<svg xmlns="http://www.w3.org/2000/svg" xmlns:svg="http://www.w3.org/2000/svg" xmlns:xlink="http://www.w3.org/1999/xlink" id="svg2" width="64" height="64" version="1.1"><title id="title3733">mesh_pipette</title><defs id="defs4"><linearGradient id="linearGradient3820"><stop id="stop3822" offset="0" stop-color="#babdb6" stop-opacity="1"/><stop id="stop3824" offset="1" stop-color="#eeeeec" stop-opacity="1"/></linearGradient><linearGradient id="linearGradient3757"><stop id="stop3759" offset="0" stop-color="#555753" stop-opacity="1"/><stop id="stop3761" offset="1" stop-color="#000" stop-opacity="1"/></linearGradient><linearGradient id="linearGradient3763" x1="28.796" x2="22.936" y1="39.304" y2="33.977" gradientUnits="userSpaceOnUse" xlink:href="#linearGradient3757"/><linearGradient id="linearGradient3842" x1="49" x2="35" y1="1043.362" y2="1045.362" gradientUnits="userSpaceOnUse" xlink:href="#linearGradient3820"/><linearGradient id="linearGradient3854" x1="49" x2="39" y1="1040.362" y2="1042.362" gradientTransform="matrix(0.70710678,0.70710678,-0.70710678,0.70710678,720.43395,268.46023)" gradientUnits="userSpaceOnUse" xlink:href="#linearGradient3820"/><linearGradient id="linearGradient3870" x1="40" x2="51" y1="1005.362" y2="1025.362" gradientUnits="userSpaceOnUse" xlink:href="#linearGradient3757"/><radialGradient id="radialGradient3062" cx="25.188" cy="41.625" r="18.063" fx="25.188" fy="41.625" gradientTransform="matrix(1,0,0,0.32526,0,28.08607)" gradientUnits="userSpaceOnUse" xlink:href="#linearGradient2269"/><linearGradient id="linearGradient2269"><stop id="stop2271" offset="0" stop-color="#000" stop-opacity="1"/><stop id="stop2273" offset="1" stop-color="#000" stop-opacity="0"/></linearGradient><radialGradient id="radialGradient3113" cx="25.188" cy="41.625" r="18.063" fx="25.188" fy="41.625" gradientTransform="matrix(1,0,0,0.32526,0,28.08607)" gradientUnits="userSpaceOnUse" xlink:href="#linearGradient2269"/></defs><metadata id="metadata7"/><g id="layer1" transform="translate(0,-988.36218)"><g id="g3844"><path id="path2267" fill="url(#radialGradient3113)" fill-opacity="1" fill-rule="evenodd" stroke="none" stroke-width="1" d="m 43.25,41.625 c 0,3.244673 -8.086857,5.875 -18.0625,5.875 -9.975643,0 -18.0625,-2.630327 -18.0625,-5.875 0,-3.244673 8.086857,-5.875 18.0625,-5.875 9.975643,0 18.0625,2.630327 18.0625,5.875 z" color="#000" display="inline" opacity=".267" overflow="visible" transform="matrix(1.256055,0,0,0.819149,-3.6368853,1011.4526)" visibility="visible" style="marker:none"/><path id="path3798-7" fill="url(#linearGradient3854)" fill-opacity="1" stroke="none" d="m 26.506083,1014.714 c 0,0 -16.970563,16.9706 -19.79899,19.799 -2.828427,2.8284 0,5.6569 0,5.6569 l -3.535534,6.3639 2.828427,2.8284 6.363961,-3.5355 c 0,0 2.828427,2.8284 5.656855,0 2.828427,-2.8284 19.798989,-19.799 19.798989,-19.799 z"/><path id="path3800" fill="none" stroke="#fff" stroke-linecap="butt" stroke-linejoin="miter" stroke-opacity="1" stroke-width="2" d="m 27.213204,1016.8353 c 0,0 -19.091883,19.0919 -19.79899,19.799 -0.707107,0.7071 1.337236,2.9054 1.337236,2.9054 l -4.165663,8.4083"/><path id="path3798" fill="none" stroke="#555753" stroke-linecap="round" stroke-linejoin="round" stroke-opacity="1" stroke-width="2" d="m 26.506097,1014.714 c 0,0 -16.970563,16.9706 -19.79899,19.799 -2.828427,2.8284 0,5.6568 0,5.6568 l -3.535534,6.364 2.828427,2.8284 6.363961,-3.5355 c 0,0 2.828428,2.8284 5.656855,0 2.828427,-2.8284 19.79899,-19.799 19.79899,-19.799 z"/><path id="path2992" fill="url(#linearGradient3870)" fill-opacity="1" stroke="none" d="m 24.384763,1011.1785 c 1.414213,-1.4142 4.24264,0 5.656854,0 1.414213,0 1.414213,0 2.828427,-2.8284 1.414213,-2.8285 -2.828427,-8.48535 1.414228,-12.728 4.24264,-4.24264 12.727936,-7.07108 21.213217,1.4142 8.485282,8.4853 5.65684,16.9706 1.4142,21.2132 -4.242655,4.2427 -9.899509,10e-5 -12.727937,1.4143 -2.828427,1.4142 -2.828427,1.4142 -2.828427,2.8284 0,1.4142 1.414214,4.2426 0,5.6568 -1.414213,1.4143 -2.12132,2.1214 -4.24264,1.4143 -2.121321,-0.7071 0,-2.8285 -5.656855,-8.4853 -5.656854,-5.6569 -7.778174,-3.5356 -8.485281,-5.6569 -0.707107,-2.1213 0,-2.8284 1.414214,-4.2426 z"/><path id="path2992-3-6" fill="none" stroke="#888a85" stroke-linecap="butt" stroke-linejoin="miter" stroke-opacity="1" stroke-width="2" d="m 25.798976,1012.5927 c 1.414214,-1.4142 4.461915,0.035 5.656854,0 1.19494,-0.035 0.707107,0.7071 2.828427,-2.8284 2.121321,-3.5356 -2.828427,-8.4853 1.414228,-12.72799 4.242641,-4.24264 11.426846,-5.54371 18.384776,1.41422 6.957931,6.95797 5.656855,14.14217 1.414214,18.38477 -4.242655,4.2427 -9.192402,-0.7071 -12.727936,1.4143 -3.535534,2.1213 -2.828427,1.4142 -2.828427,2.8284 0,1.4142 1.414213,4.2426 0,5.6568 -1.414214,1.4142 -1.414214,1.4142 -2.121321,0.7071 -0.707106,-0.7071 -0.636537,-3.0969 -5.275158,-7.7356 -4.63862,-4.6386 -6.745657,-4.2852 -7.452764,-4.9923 -0.707106,-0.7071 -0.707106,-0.7071 0.707107,-2.1213 z"/><path id="path2992-3" fill="none" stroke="#000" stroke-linecap="butt" stroke-linejoin="miter" stroke-opacity="1" stroke-width="2" d="m 24.384763,1011.1785 c 1.414213,-1.4142 4.24264,0 5.656854,0 1.414213,0 1.414213,0 2.828427,-2.8284 1.414213,-2.8285 -2.828427,-8.48535 1.414228,-12.728 4.24264,-4.24264 12.727936,-7.07108 21.213217,1.4142 8.485282,8.4853 5.65684,16.9706 1.4142,21.2132 -4.242655,4.2427 -9.899509,10e-5 -12.727937,1.4143 -2.828427,1.4142 -2.828427,1.4142 -2.828427,2.8284 0,1.4142 1.414214,4.2426 0,5.6568 -1.414213,1.4143 -2.12132,2.1214 -4.24264,1.4143 -2.121321,-0.7071 0,-2.8285 -5.656855,-8.4853 -5.656854,-5.6569 -7.778174,-3.5356 -8.485281,-5.6569 -0.707107,-2.1213 0,-2.8284 1.414214,-4.2426 z"/></g></g></svg>