<svg xmlns="http://www.w3.org/2000/svg" xmlns:svg="http://www.w3.org/2000/svg" xmlns:xlink="http://www.w3.org/1999/xlink" id="svg2816" width="64" height="64" version="1.1"><defs id="defs2818"><linearGradient id="linearGradient3600"><stop id="stop3602" offset="0" stop-color="#204a87" stop-opacity="1"/><stop id="stop3604" offset="1" stop-color="#729fcf" stop-opacity="1"/></linearGradient><linearGradient id="linearGradient3606" x1="51.037" x2="14.872" y1="47.693" y2="10.398" gradientUnits="userSpaceOnUse" xlink:href="#linearGradient3600"/><linearGradient id="linearGradient3606-5" x1="51.037" x2="14.872" y1="47.693" y2="10.398" gradientUnits="userSpaceOnUse" xlink:href="#linearGradient3600-6"/><linearGradient id="linearGradient3600-6"><stop id="stop3602-5" offset="0" stop-color="#000117" stop-opacity="1"/><stop id="stop3604-4" offset="1" stop-color="#4f82b9" stop-opacity="1"/></linearGradient><linearGradient id="linearGradient3606-0" x1="51.037" x2="14.872" y1="47.693" y2="10.398" gradientUnits="userSpaceOnUse" xlink:href="#linearGradient3600-63"/><linearGradient id="linearGradient3600-63"><stop id="stop3602-9" offset="0" stop-color="#000117" stop-opacity="1"/><stop id="stop3604-0" offset="1" stop-color="#4f82b9" stop-opacity="1"/></linearGradient><linearGradient id="linearGradient3606-1" x1="51.037" x2="14.872" y1="47.693" y2="10.398" gradientUnits="userSpaceOnUse" xlink:href="#linearGradient3600-7"/><linearGradient id="linearGradient3600-7"><stop id="stop3602-4" offset="0" stop-color="#204a87" stop-opacity="1"/><stop id="stop3604-09" offset="1" stop-color="#729fcf" stop-opacity="1"/></linearGradient><filter id="filter3871" width="1.907" height="1.907" x="-.454" y="-.454"><feGaussianBlur id="feGaussianBlur3873" stdDeviation="9.898"/></filter><filter id="filter3889" width="1.83" height="1.849" x="-.415" y="-.424"><feGaussianBlur id="feGaussianBlur3891" stdDeviation="3.149"/></filter><linearGradient id="linearGradient3606-8" x1="51.037" x2="14.872" y1="47.693" y2="10.398" gradientUnits="userSpaceOnUse" xlink:href="#linearGradient3600-8"/><linearGradient id="linearGradient3600-8"><stop id="stop3602-2" offset="0" stop-color="#204a87" stop-opacity="1"/><stop id="stop3604-45" offset="1" stop-color="#729fcf" stop-opacity="1"/></linearGradient><radialGradient id="radialGradient3982" cx="10.691" cy="19.29" r="10.455" fx="10.691" fy="19.29" gradientTransform="matrix(1.5657532,0.0370859,-0.05881345,0.89447218,-5.0994254,1.9283753)" gradientUnits="userSpaceOnUse" xlink:href="#linearGradient3976"/><linearGradient id="linearGradient3976"><stop id="stop3978" offset="0" stop-color="#fff" stop-opacity="1"/><stop id="stop3980" offset="1" stop-color="#fff" stop-opacity="0"/></linearGradient><radialGradient id="radialGradient3999" cx="10.691" cy="19.29" r="10.455" fx="10.691" fy="19.29" gradientTransform="matrix(1.5657532,0.0370859,-0.05881345,0.89447218,-5.0994254,1.9283753)" gradientUnits="userSpaceOnUse" xlink:href="#linearGradient3976"/></defs><metadata id="metadata2821"/><g id="layer1"><path id="path2826-8" fill="#000" fill-opacity=".656" fill-rule="evenodd" stroke="none" stroke-width="5" d="m 57.818182,30.363636 a 26.181818,26.181818 0 1 1 -52.363636,0 26.181818,26.181818 0 1 1 52.363636,0 z" color="#000" display="inline" enable-background="accumulate" filter="url(#filter3871)" overflow="visible" transform="matrix(0.48061681,0,0,0.1201542,24.795032,54.351681)" visibility="visible" style="marker:none"/><path id="path2826" fill="url(#linearGradient3606)" fill-opacity="1" fill-rule="evenodd" stroke="#0b1521" stroke-width="1.806" d="m 57.818182,30.363636 a 26.181818,26.181818 0 1 1 -52.363636,0 26.181818,26.181818 0 1 1 52.363636,0 z" color="#000" display="inline" enable-background="accumulate" overflow="visible" transform="matrix(1.1076389,0,0,1.1076389,-3.0416672,-1.6319444)" visibility="visible" style="marker:none"/><path id="path2826-4" fill="none" stroke="#729fcf" stroke-width="1.939" d="m 57.818182,30.363636 a 26.181818,26.181818 0 1 1 -52.363636,0 26.181818,26.181818 0 1 1 52.363636,0 z" color="#000" display="inline" enable-background="accumulate" overflow="visible" transform="matrix(1.03125,0,0,1.03125,-0.62500048,0.68750024)" visibility="visible" style="marker:none"/><path id="path2826-5" fill="none" fill-opacity="1" fill-rule="evenodd" stroke="#0b1521" stroke-width="1.806" d="m 57.818182,30.363636 a 26.181818,26.181818 0 1 1 -52.363636,0 26.181818,26.181818 0 1 1 52.363636,0 z" color="#000" display="inline" enable-background="accumulate" overflow="visible" transform="matrix(1.1076389,0,0,1.1076389,-3.0416672,-1.6319442)" visibility="visible" style="marker:none"/><path id="path3608" fill="url(#radialGradient3999)" fill-opacity="1" fill-rule="evenodd" stroke="none" stroke-width="5" d="m 27.118794,20.181818 a 15.936976,13.99132 0 1 1 -31.8739524,0 15.936976,13.99132 0 1 1 31.8739524,0 z" color="#000" display="inline" enable-background="accumulate" opacity=".845" overflow="visible" transform="matrix(0.96671212,-0.81479696,0.79456372,0.99132903,-5.8453394,10.104089)" visibility="visible" style="marker:none"/></g></svg>