<svg xmlns="http://www.w3.org/2000/svg" xmlns:svg="http://www.w3.org/2000/svg" xmlns:xlink="http://www.w3.org/1999/xlink" id="svg249" width="64" height="64" version="1.1"><defs id="defs3"><radialGradient id="radialGradient5031" cx="605.714" cy="486.648" r="117.143" fx="605.714" fy="486.648" gradientTransform="matrix(-2.774389,0,0,1.969706,112.7623,-872.8854)" gradientUnits="userSpaceOnUse" xlink:href="#linearGradient5060"/><linearGradient id="linearGradient5060"><stop id="stop5062" offset="0" stop-color="#000" stop-opacity="1"/><stop id="stop5064" offset="1" stop-color="#000" stop-opacity="0"/></linearGradient><radialGradient id="radialGradient5029" cx="605.714" cy="486.648" r="117.143" fx="605.714" fy="486.648" gradientTransform="matrix(2.774389,0,0,1.969706,-1891.633,-872.8854)" gradientUnits="userSpaceOnUse" xlink:href="#linearGradient5060"/><linearGradient id="linearGradient5048"><stop id="stop5050" offset="0" stop-color="#000" stop-opacity="0"/><stop id="stop5056" offset=".5" stop-color="#000" stop-opacity="1"/><stop id="stop5052" offset="1" stop-color="#000" stop-opacity="0"/></linearGradient><linearGradient id="linearGradient5027" x1="302.857" x2="302.857" y1="366.648" y2="609.505" gradientTransform="matrix(2.774389,0,0,1.969706,-1892.179,-872.8854)" gradientUnits="userSpaceOnUse" xlink:href="#linearGradient5048"/><linearGradient id="linearGradient4542"><stop id="stop4544" offset="0" stop-color="#000" stop-opacity="1"/><stop id="stop4546" offset="1" stop-color="#000" stop-opacity="0"/></linearGradient><radialGradient id="radialGradient4548" cx="24.307" cy="42.078" r="15.822" fx="24.307" fy="42.078" gradientTransform="matrix(1,0,0,0.284916,0,30.08928)" gradientUnits="userSpaceOnUse" xlink:href="#linearGradient4542"/><linearGradient id="linearGradient15662"><stop id="stop15664" offset="0" stop-color="#fff" stop-opacity="1"/><stop id="stop15666" offset="1" stop-color="#f8f8f8" stop-opacity="1"/></linearGradient><radialGradient id="aigrd3" cx="20.892" cy="64.568" r="5.257" fx="20.892" fy="64.568" gradientUnits="userSpaceOnUse"><stop id="stop15573" offset="0" stop-color="#F0F0F0"/><stop id="stop15575" offset="1" stop-color="#9a9a9a" stop-opacity="1"/></radialGradient><radialGradient id="aigrd2" cx="20.892" cy="114.568" r="5.256" fx="20.892" fy="114.568" gradientUnits="userSpaceOnUse"><stop id="stop15566" offset="0" stop-color="#F0F0F0"/><stop id="stop15568" offset="1" stop-color="#9a9a9a" stop-opacity="1"/></radialGradient><linearGradient id="linearGradient269"><stop id="stop270" offset="0" stop-color="#a3a3a3" stop-opacity="1"/><stop id="stop271" offset="1" stop-color="#4c4c4c" stop-opacity="1"/></linearGradient><linearGradient id="linearGradient259"><stop id="stop260" offset="0" stop-color="#fafafa" stop-opacity="1"/><stop id="stop261" offset="1" stop-color="#bbb" stop-opacity="1"/></linearGradient><linearGradient id="linearGradient12512"><stop id="stop12513" offset="0" stop-color="#fff" stop-opacity="1"/><stop id="stop12517" offset=".5" stop-color="#fff520" stop-opacity=".891"/><stop id="stop12514" offset="1" stop-color="#fff300" stop-opacity="0"/></linearGradient><radialGradient id="radialGradient278" cx="55" cy="125" r="14.375" fx="55" fy="125" gradientUnits="userSpaceOnUse" xlink:href="#linearGradient12512"/><radialGradient id="radialGradient15656" cx="8.824" cy="3.756" r="37.752" fx="8.824" fy="3.756" gradientTransform="matrix(0.96827297,0,0,1.032767,-11.096627,18.072234)" gradientUnits="userSpaceOnUse" xlink:href="#linearGradient269"/><radialGradient id="radialGradient15658" cx="33.967" cy="35.737" r="86.708" fx="33.967" fy="35.737" gradientTransform="matrix(0.96049297,0,0,1.041132,-14.45018,17.425787)" gradientUnits="userSpaceOnUse" xlink:href="#linearGradient259"/><radialGradient id="radialGradient15668" cx="8.144" cy="7.268" r="38.159" fx="8.144" fy="7.268" gradientTransform="matrix(0.96827297,0,0,1.032767,-11.096627,18.072234)" gradientUnits="userSpaceOnUse" xlink:href="#linearGradient15662"/><radialGradient id="radialGradient2283" cx="20.892" cy="114.568" r="5.256" fx="20.892" fy="114.568" gradientTransform="matrix(0.229703,0,0,0.229703,4.613529,3.979808)" gradientUnits="userSpaceOnUse" xlink:href="#aigrd2"/><radialGradient id="radialGradient2285" cx="20.892" cy="64.568" r="5.257" fx="20.892" fy="64.568" gradientTransform="matrix(0.229703,0,0,0.229703,4.613529,3.979808)" gradientUnits="userSpaceOnUse" xlink:href="#aigrd3"/><linearGradient id="linearGradient3600-63"><stop id="stop3602-9" offset="0" stop-color="#000117" stop-opacity="1"/><stop id="stop3604-0" offset="1" stop-color="#4f82b9" stop-opacity="1"/></linearGradient><linearGradient id="linearGradient3606-0" x1="51.037" x2="14.872" y1="47.693" y2="10.398" gradientUnits="userSpaceOnUse" xlink:href="#linearGradient3600-63"/><linearGradient id="linearGradient3600-6"><stop id="stop3602-5" offset="0" stop-color="#000117" stop-opacity="1"/><stop id="stop3604-4" offset="1" stop-color="#4f82b9" stop-opacity="1"/></linearGradient><linearGradient id="linearGradient3606-5" x1="51.037" x2="14.872" y1="47.693" y2="10.398" gradientUnits="userSpaceOnUse" xlink:href="#linearGradient3600-6"/><linearGradient id="linearGradient3600"><stop id="stop3602" offset="0" stop-color="#000117" stop-opacity="1"/><stop id="stop3604" offset="1" stop-color="#4f82b9" stop-opacity="1"/></linearGradient><linearGradient id="linearGradient3781-3" x1="10" x2="53" y1="40" y2="26" gradientTransform="matrix(2.909948,0,0,2.909948,-116.8992,230.0362)" gradientUnits="userSpaceOnUse" xlink:href="#linearGradient3775-6"/><linearGradient id="linearGradient3775-6"><stop id="stop3777-7" offset="0" stop-color="#d3d7cf" stop-opacity="1"/><stop id="stop3779-5" offset="1" stop-color="#fff" stop-opacity="1"/></linearGradient><linearGradient id="linearGradient3222" x1="10" x2="53" y1="40" y2="26" gradientTransform="matrix(2.909948,0,0,2.909948,-116.8992,230.0362)" gradientUnits="userSpaceOnUse" xlink:href="#linearGradient3775-6"/><linearGradient id="linearGradient3225" x1="10" x2="53" y1="40" y2="26" gradientTransform="translate(-48.256269,0.08243)" gradientUnits="userSpaceOnUse" xlink:href="#linearGradient3775-6"/></defs><metadata id="metadata4"/><g id="layer1" display="inline" transform="translate(0,16)"><rect id="rect2987" width="46" height="58" x="-39.256" y="3.082" fill="#d3d7cf" fill-opacity="1" stroke="#2e3436" stroke-dasharray="none" stroke-dashoffset="0" stroke-linecap="round" stroke-linejoin="round" stroke-miterlimit="4" stroke-opacity="1" stroke-width="2" display="inline" transform="matrix(0,-1,1,0,0,0)"/><rect id="rect2987-1" width="42" height="54" x="-37.256" y="5.082" fill="url(#linearGradient3225)" fill-opacity="1" stroke="#fff" stroke-dasharray="none" stroke-dashoffset="0" stroke-linecap="round" stroke-linejoin="miter" stroke-miterlimit="4" stroke-opacity="1" stroke-width="2" display="inline" transform="matrix(0,-1,1,0,0,0)"/><path id="path4581" fill="#f4641c" fill-opacity="1" stroke="#a03200" stroke-dasharray="none" stroke-miterlimit="4" stroke-opacity="1" stroke-width="2" d="m 27.953738,-0.2783868 c 0.961387,-0.9621509 2.611357,-0.9621509 3.57275,0 0.96872,0.9694858 0.982688,2.6112257 0.0096,3.5851413 -0.973149,0.9738799 -2.613604,0.9599 -3.582324,-0.00959 -0.961393,-0.9621509 -0.961393,-2.6134093 0,-3.5755555 z m -7.155076,8.1358372 c 0.690386,-0.6908973 1.910338,-0.707687 2.60792,-0.00956 0.711251,0.7117763 0.711251,1.9077431 0,2.6195196 -0.697582,0.698132 -1.917572,0.681348 -2.60792,-0.0096 -0.676386,-0.6769471 -0.676418,-1.9234709 0,-2.6004185 z m -7.374769,7.9159716 c 0.523659,-0.524067 1.539766,-0.524067 2.063425,0 0.545849,0.546277 0.565797,1.517912 0.0096,2.074597 -0.556247,0.556657 -1.527118,0.5367 -2.07297,-0.0096 -0.523654,-0.524036 -0.523624,-1.540978 0,-2.065012 z M 34.373249,6.1461721 c 1.646463,-1.6477879 4.371781,-1.6477879 6.018274,0 0.802302,0.8029291 1.204405,1.8570854 1.222763,2.9445859 -0.006,0.6163707 0.330188,1.153459 0.716467,1.462718 0.33438,0.267722 0.903183,0.537591 1.64307,0.363296 1.892962,-0.361344 3.824007,0.194088 5.282708,1.653935 2.324625,2.326454 2.324625,6.144022 0,8.470446 -1.454704,1.455879 -3.466518,1.996081 -5.359129,1.634835 -0.737868,-0.173835 -1.255844,0.133544 -1.566649,0.382394 -0.400482,0.320665 -0.732119,0.893843 -0.726006,1.510548 -0.01837,1.087363 -0.407393,2.090327 -1.213224,2.896791 -1.646459,1.647757 -4.371811,1.647757 -6.018274,0 -1.646493,-1.647793 -1.646493,-4.375249 0,-6.023038 0.802296,-0.80293 1.855623,-1.205348 2.942274,-1.223721 0.615986,0.0061 1.152583,-0.330514 1.46157,-0.717001 0.267506,-0.334675 0.537168,-0.903889 0.363012,-1.644392 -0.144831,-0.760024 -0.126711,-1.414603 0.01911,-2.179754 0.17366,-0.738417 -0.133473,-1.256836 -0.382128,-1.567881 -0.320448,-0.400902 -0.893266,-0.732663 -1.509358,-0.726584 -1.086484,-0.01839 -2.088693,-0.407742 -2.894489,-1.214171 -1.646494,-1.647788 -1.646494,-4.3752468 0,-6.0230069 z m -6.419511,8.8719799 c 0.961387,-0.962151 2.611357,-0.962151 3.57275,0 0.96872,0.969482 0.982688,2.611226 0.0096,3.585142 -0.973149,0.973881 -2.613604,0.959899 -3.582324,-0.0096 -0.961393,-0.962151 -0.961393,-2.613409 0,-3.575554 z m -7.155076,8.135841 c 0.690348,-0.6909 1.910338,-0.707686 2.60792,-0.0096 0.711251,0.711781 0.711251,1.907747 0,2.619526 -0.697582,0.698128 -1.917572,0.681347 -2.60792,-0.0096 -0.676418,-0.676951 -0.676418,-1.923471 0,-2.600419 z m 7.155076,7.160701 c 0.961387,-0.96215 2.611357,-0.96215 3.57275,0 0.96872,0.969482 0.982688,2.611226 0.0096,3.585104 -0.973149,0.973917 -2.613604,0.959943 -3.582324,-0.0096 -0.961393,-0.962146 -0.961393,-2.613403 0,-3.575554 z"/></g><g id="layer4" display="inline" transform="translate(0,16)"><path id="path12511" fill="url(#radialGradient278)" fill-opacity="1" fill-rule="nonzero" stroke="none" stroke-width="1.25" d="m 69.375,125 c 0,7.93909 -6.435907,14.375 -14.375,14.375 -7.939093,0 -14.375,-6.43591 -14.375,-14.375 0,-7.93909 6.435907,-14.375 14.375,-14.375 7.939093,0 14.375,6.43591 14.375,14.375 z" color="#000" display="block" transform="matrix(1.0434783,0,0,1.0434783,-8.3913065,-131.43479)" visibility="visible" style="marker:none"/></g></svg>