<svg xmlns="http://www.w3.org/2000/svg" xmlns:svg="http://www.w3.org/2000/svg" xmlns:xlink="http://www.w3.org/1999/xlink" id="svg3136" width="64" height="64" version="1.1"><defs id="defs3138"><linearGradient id="linearGradient3841"><stop id="stop3843" offset="0" stop-color="#0619c0" stop-opacity="1"/><stop id="stop3845" offset="1" stop-color="#379cfb" stop-opacity="1"/></linearGradient><linearGradient id="linearGradient4235" x1="8" x2="52" y1="31.75" y2="31.75" gradientUnits="userSpaceOnUse" xlink:href="#linearGradient3841"/><linearGradient id="linearGradient4243" x1="19.25" x2="37" y1="31.75" y2="31.75" gradientUnits="userSpaceOnUse" xlink:href="#linearGradient3841"/><linearGradient id="linearGradient4246" x1="844.917" x2="1270.708" y1="2560.25" y2="2560.25" gradientTransform="matrix(0.1390891,0,0,0.1390891,-116.65366,-325.33528)" gradientUnits="userSpaceOnUse" xlink:href="#linearGradient3841"/><linearGradient id="linearGradient3808-7" x1="29" x2="44" y1="4" y2="56" gradientTransform="matrix(0.35072612,0,0,0.35072612,18.762241,21.142012)" gradientUnits="userSpaceOnUse" xlink:href="#linearGradient3802-5"/><linearGradient id="linearGradient3802-5"><stop id="stop3804-3" offset="0" stop-color="#729fcf" stop-opacity="1"/><stop id="stop3806-5" offset="1" stop-color="#204a87" stop-opacity="1"/></linearGradient><linearGradient id="linearGradient3808" x1="29" x2="44" y1="4" y2="56" gradientTransform="translate(1,0)" gradientUnits="userSpaceOnUse" xlink:href="#linearGradient3802"/><linearGradient id="linearGradient3802"><stop id="stop3804" offset="0" stop-color="#729fcf" stop-opacity="1"/><stop id="stop3806" offset="1" stop-color="#204a87" stop-opacity="1"/></linearGradient></defs><metadata id="metadata3141"/><g id="layer1"><path id="path2996" fill="none" stroke="#0b1521" stroke-linecap="round" stroke-linejoin="round" stroke-opacity="1" stroke-width="8" d="M 8,19 19,8 54,8 54,34 c 0,9 -8,22 -24,22"/><path id="path2996-3" fill="none" stroke="url(#linearGradient3808)" stroke-linecap="round" stroke-linejoin="round" stroke-opacity="1" stroke-width="4" d="M 8,19 19,8 54,8 54,34 c 0,9 -8,22 -24,22"/><path id="path2996-3-6" fill="none" stroke="#729fcf" stroke-linecap="round" stroke-linejoin="round" stroke-opacity="1" stroke-width="2" d="M 7.03125,18.59375 18.6875,6.9375 54.353553,7 M 53,11 53,33 c 0,9 -7,22 -23,22"/><path id="path2996-6" fill="none" stroke="#0b1521" stroke-linecap="round" stroke-linejoin="round" stroke-opacity="1" stroke-width="8" d="M 21,28 25.075311,23.947821 38,24 l 0,9 c 0,3.156535 -3.388382,8 -9,8"/><path id="path2996-3-2" fill="none" stroke="url(#linearGradient3808-7)" stroke-linecap="round" stroke-linejoin="round" stroke-opacity="1" stroke-width="4" d="M 21,28 25.075311,23.947821 38,24 38,33.118879 C 38,36.275414 34.611618,41 29,41"/><path id="path2996-3-6-9" fill="none" stroke="#729fcf" stroke-linecap="round" stroke-linejoin="round" stroke-opacity="1" stroke-width="2" d="M 20.158808,27.44735 25,23 38,23 M 37,27.096525 37,32 c 0,4 -3,8 -8,8"/></g></svg>