<svg xmlns="http://www.w3.org/2000/svg" xmlns:svg="http://www.w3.org/2000/svg" xmlns:xlink="http://www.w3.org/1999/xlink" id="svg2860" width="64" height="64" version="1.1"><defs id="defs2862"><linearGradient id="linearGradient4362"><stop id="stop4364" offset="0" stop-color="#faff2b" stop-opacity="1"/><stop id="stop4366" offset="1" stop-color="#fa0" stop-opacity="1"/></linearGradient><linearGradient id="linearGradient4356"><stop id="stop4358" offset="0" stop-color="#000" stop-opacity="1"/><stop id="stop4360" offset="1" stop-color="#000" stop-opacity="0"/></linearGradient><linearGradient id="linearGradient3786"><stop id="stop3788" offset="0" stop-color="#faff2b" stop-opacity="1"/><stop id="stop3790" offset="1" stop-color="#fa0" stop-opacity="1"/></linearGradient><radialGradient id="radialGradient3692" cx="45.883" cy="28.87" r="19.467" fx="45.883" fy="28.87" gradientUnits="userSpaceOnUse" xlink:href="#linearGradient3377"/><radialGradient id="radialGradient3703" cx="135.383" cy="97.37" r="19.467" fx="135.383" fy="97.37" gradientTransform="matrix(0.97435,0.2250379,-0.4623105,2.0016728,48.487554,-127.99883)" gradientUnits="userSpaceOnUse" xlink:href="#linearGradient3377"/><linearGradient id="linearGradient3377"><stop id="stop3379" offset="0" stop-color="#faff2b" stop-opacity="1"/><stop id="stop3381" offset="1" stop-color="#fa0" stop-opacity="1"/></linearGradient><radialGradient id="radialGradient3705" cx="148.883" cy="81.87" r="19.467" fx="148.883" fy="81.87" gradientTransform="matrix(1.3852588,-0.05136783,0.03705629,0.9993132,-60.392403,7.7040438)" gradientUnits="userSpaceOnUse" xlink:href="#linearGradient3786"/><radialGradient id="radialGradient3713" cx="271.967" cy="103.547" r="19.467" fx="271.967" fy="103.547" gradientTransform="matrix(0.9271142,0.3747789,-0.7448337,1.8425422,97.364191,-190.34757)" gradientUnits="userSpaceOnUse" xlink:href="#linearGradient3377-1"/><linearGradient id="linearGradient3377-1"><stop id="stop3379-5" offset="0" stop-color="#c8ff43" stop-opacity="1"/><stop id="stop3381-9" offset="1" stop-color="#04aa00" stop-opacity="1"/></linearGradient><radialGradient id="radialGradient3784" cx="109.479" cy="-6.229" r="19.571" fx="109.479" fy="-6.229" gradientTransform="matrix(0.7037846,0.9728679,-1.3005398,0.9408264,121.13694,-67.560812)" gradientUnits="userSpaceOnUse" xlink:href="#linearGradient3864"/><linearGradient id="linearGradient3864"><stop id="stop3866" offset="0" stop-color="#71b2f8" stop-opacity="1"/><stop id="stop3868" offset="1" stop-color="#002795" stop-opacity="1"/></linearGradient><radialGradient id="radialGradient3009" cx="109.479" cy="-6.229" r="19.571" fx="109.479" fy="-6.229" gradientTransform="matrix(0.7037846,0.9728679,-1.3005398,0.9408264,121.13694,-67.560812)" gradientUnits="userSpaceOnUse" xlink:href="#linearGradient3864"/><linearGradient id="linearGradient3784" x1="259.614" x2="317.44" y1="99.25" y2="99.25" gradientUnits="userSpaceOnUse" xlink:href="#linearGradient4362"/><linearGradient id="linearGradient3792" x1="276.575" x2="298.46" y1="93.572" y2="118.558" gradientUnits="userSpaceOnUse" xlink:href="#linearGradient3377"/><radialGradient id="radialGradient3062" cx="225.938" cy="91.957" r="22" fx="225.938" fy="91.957" gradientTransform="matrix(-1.4090915,3.8636359,-0.97565325,-0.35582669,437.08461,-816.22007)" gradientUnits="userSpaceOnUse" xlink:href="#linearGradient3011"/><linearGradient id="linearGradient3011"><stop id="stop3013" offset="0" stop-color="#fce94f" stop-opacity="1"/><stop id="stop3015" offset="1" stop-color="#c4a000" stop-opacity="1"/></linearGradient><radialGradient id="radialGradient3086" cx="225.938" cy="91.957" r="22" fx="225.938" fy="91.957" gradientTransform="matrix(-1.4090915,3.8636359,-0.97565325,-0.35582669,355.44592,-815.80833)" gradientUnits="userSpaceOnUse" xlink:href="#linearGradient3011"/><linearGradient id="linearGradient3773" x1="22.117" x2="17.329" y1="55.718" y2="21.311" gradientTransform="matrix(0.82352937,0,0,0.77272731,68.529413,5.8636358)" gradientUnits="userSpaceOnUse" xlink:href="#linearGradient3767"/><linearGradient id="linearGradient3767"><stop id="stop3769" offset="0" stop-color="#edd400" stop-opacity="1"/><stop id="stop3771" offset="1" stop-color="#fce94f" stop-opacity="1"/></linearGradient><linearGradient id="linearGradient3783" x1="53.897" x2="47.502" y1="51.18" y2="21.837" gradientTransform="matrix(0.79109028,0,0,0.78516507,69.03755,5.1139279)" gradientUnits="userSpaceOnUse" xlink:href="#linearGradient3777"/><linearGradient id="linearGradient3777"><stop id="stop3779" offset="0" stop-color="#c4a000" stop-opacity="1"/><stop id="stop3781" offset="1" stop-color="#edd400" stop-opacity="1"/></linearGradient><radialGradient id="radialGradient3174" cx="225.938" cy="91.957" r="22" fx="225.938" fy="91.957" gradientTransform="matrix(-1.4090915,3.8636359,-0.97565325,-0.35582669,355.44592,-815.80833)" gradientUnits="userSpaceOnUse" xlink:href="#linearGradient3011"/><radialGradient id="radialGradient3174-3" cx="225.938" cy="91.957" r="22" fx="225.938" fy="91.957" gradientTransform="matrix(-1.4090915,3.8636359,-0.97565325,-0.35582669,355.44592,-815.80833)" gradientUnits="userSpaceOnUse" xlink:href="#linearGradient3011-6"/><linearGradient id="linearGradient3011-6"><stop id="stop3013-7" offset="0" stop-color="#fce94f" stop-opacity="1"/><stop id="stop3015-5" offset="1" stop-color="#c4a000" stop-opacity="1"/></linearGradient><linearGradient id="linearGradient3220" x1="53.897" x2="47.502" y1="51.18" y2="21.837" gradientTransform="matrix(0.79109028,0,0,0.78516507,69.03755,5.1139279)" gradientUnits="userSpaceOnUse" xlink:href="#linearGradient3777"/><linearGradient id="linearGradient3222" x1="22.117" x2="17.329" y1="55.718" y2="21.311" gradientTransform="matrix(0.82352937,0,0,0.77272731,68.529413,5.8636358)" gradientUnits="userSpaceOnUse" xlink:href="#linearGradient3767"/></defs><metadata id="metadata2865"/><g id="layer1"><g id="g3163" transform="translate(-62,7.999998)"><path id="path2993" fill="#fce94f" stroke="#302b00" stroke-linecap="butt" stroke-linejoin="round" stroke-opacity="1" stroke-width="2" d="m 71,19 28,5 18,-7 -23.84947,-3.42198 z"/><path id="path2995" fill="url(#linearGradient3220)" fill-opacity="1" stroke="#302b00" stroke-linecap="butt" stroke-linejoin="round" stroke-opacity="1" stroke-width="2" d="m 117,17 0,28 -18,8 0,-30 z"/><path id="path3825" fill="url(#linearGradient3222)" fill-opacity="1" fill-rule="evenodd" stroke="#302b00" stroke-dasharray="none" stroke-dashoffset="0" stroke-linecap="butt" stroke-linejoin="round" stroke-miterlimit="4" stroke-opacity="1" stroke-width="2" d="m 71,19 28,4 0,30.000002 -28,-4.636365 z" display="inline" enable-background="accumulate" overflow="visible" visibility="visible" style="marker:none"/><path id="path3765" fill="none" stroke="#fce94f" stroke-linecap="butt" stroke-linejoin="miter" stroke-opacity="1" stroke-width="2" d="M 72.993,21.368254 73,46.6 l 24,4 -0.007,-25.843 z"/><path id="path3775" fill="none" stroke="#edd400" stroke-linecap="butt" stroke-linejoin="miter" stroke-opacity="1" stroke-width="2" d="m 101,24.5 0,25.6 14,-6.4 0,-23.8 z"/></g><g id="g3176" transform="translate(54,-0.99999998)"><g id="g3170" transform="matrix(0.47285104,0,0,0.47285104,-15.096853,1.7984977)"><path id="path3039" fill="url(#radialGradient3174-3)" fill-opacity="1" stroke="#302b00" stroke-linecap="butt" stroke-linejoin="round" stroke-opacity="1" stroke-width="4.23" d="m -50.551114,4.6558051 -21.14831,50.7559419 c 0,8 42.296619,8 42.296619,0 z"/><path id="path3817" fill="none" stroke="#fce94f" stroke-linecap="butt" stroke-linejoin="miter" stroke-opacity="1" stroke-width="4.23" d="m -50.551114,15.22996 -16.284198,39.547338 c 6.767459,2.74928 26.858352,2.74928 33.625811,0 z"/></g></g><g id="g4034" transform="matrix(0.87840585,0,0,0.891343,-70.633978,2.8453912)"><path id="path3224" fill="none" stroke="#2e3436" stroke-linecap="round" stroke-linejoin="miter" stroke-opacity="1" stroke-width="4.08" d="m 92,72 c -10e-7,-0.802214 1.081369,-0.395785 1.333333,-10e-7 0.682808,1.072551 -0.300296,2.337841 -1.333331,2.666667 C 90.152144,75.254859 88.373911,73.762011 88,72.000003 c -0.548729,-2.585818 1.511717,-4.937312 3.999996,-5.333336 3.316485,-0.527837 6.257409,2.119018 6.66667,5.333328 0.515013,4.044883 -2.726256,7.581912 -6.666661,8.000004 -4.772357,0.506367 -8.90893,-3.333424 -9.333337,-7.999993 -0.478081,-5.256727 3.578737,-9.884369 8.712558,-10.598849" transform="matrix(1.6713772,0,0,1.6527248,-51.99945,-69.292304)"/><path id="path3224-3" fill="none" stroke="#d3d7cf" stroke-linecap="round" stroke-linejoin="miter" stroke-opacity="1" stroke-width="1.36" d="m 92,72 c -10e-7,-0.802214 1.081369,-0.395785 1.333333,-10e-7 0.682808,1.072551 -0.300296,2.337841 -1.333331,2.666667 C 90.152144,75.254859 88.373911,73.762011 88,72.000003 c -0.548729,-2.585818 1.511717,-4.937312 3.999996,-5.333336 3.316485,-0.527837 6.257409,2.119018 6.66667,5.333328 0.515013,4.044883 -2.726256,7.581912 -6.666661,8.000004 -4.772357,0.506367 -8.90893,-3.333424 -9.333337,-7.999993 -0.478081,-5.256727 3.578737,-9.884369 8.712558,-10.598849" transform="matrix(1.6713772,0,0,1.6527248,-51.99945,-69.292304)"/></g><path id="path4012" fill="none" stroke="#2e3436" stroke-linecap="round" stroke-linejoin="miter" stroke-opacity="1" stroke-width="6" d="m 27,15 30,0"/><path id="path4012-5" fill="none" stroke="#d3d7cf" stroke-linecap="round" stroke-linejoin="miter" stroke-opacity="1" stroke-width="2" d="m 27,15 30,0"/><path id="path4032" fill="none" stroke="#2e3436" stroke-dasharray="none" stroke-dashoffset="20.4" stroke-linecap="round" stroke-linejoin="round" stroke-miterlimit="4.5" stroke-opacity="1" stroke-width="7.5" d="m 140,45 a 15,15 0 1 1 -30,0 15,15 0 1 1 30,0 z" transform="matrix(0.8,0,0,0.8,-53,11)"/><path id="path4032-6" fill="none" stroke="#d3d7cf" stroke-dasharray="none" stroke-dashoffset="20.4" stroke-linecap="round" stroke-linejoin="round" stroke-miterlimit="4.5" stroke-opacity="1" stroke-width="2.5" d="m 140,45 a 15,15 0 1 1 -30,0 15,15 0 1 1 30,0 z" transform="matrix(0.8,0,0,0.8,-53,11)"/></g></svg>