<svg xmlns="http://www.w3.org/2000/svg" xmlns:svg="http://www.w3.org/2000/svg" xmlns:xlink="http://www.w3.org/1999/xlink" id="svg2980" width="64" height="64" version="1.1"><defs id="defs2982"><linearGradient id="linearGradient3794"><stop id="stop3796" offset="0" stop-color="#000" stop-opacity="1"/><stop id="stop3798" offset="1" stop-color="#000" stop-opacity="0"/></linearGradient><linearGradient id="linearGradient3864"><stop id="stop3866" offset="0" stop-color="#71b2f8" stop-opacity="1"/><stop id="stop3868" offset="1" stop-color="#002795" stop-opacity="1"/></linearGradient><linearGradient id="linearGradient3773" x1="22.117" x2="17.329" y1="55.718" y2="21.311" gradientTransform="translate(0,-4)" gradientUnits="userSpaceOnUse" xlink:href="#linearGradient3767"/><linearGradient id="linearGradient3767"><stop id="stop3769" offset="0" stop-color="#3465a4" stop-opacity="1"/><stop id="stop3771" offset="1" stop-color="#729fcf" stop-opacity="1"/></linearGradient><linearGradient id="linearGradient3783" x1="53.897" x2="47.502" y1="51.18" y2="21.837" gradientTransform="translate(0,-4)" gradientUnits="userSpaceOnUse" xlink:href="#linearGradient3777"/><linearGradient id="linearGradient3777"><stop id="stop3779" offset="0" stop-color="#204a87" stop-opacity="1"/><stop id="stop3781" offset="1" stop-color="#3465a4" stop-opacity="1"/></linearGradient><radialGradient id="radialGradient3800" cx="1" cy="45" r="41" fx="1" fy="45" gradientTransform="matrix(0.93348213,-2.2905276e-8,0,0.28687573,0.06651751,32.090592)" gradientUnits="userSpaceOnUse" xlink:href="#linearGradient3794"/><filter id="filter4897" width="1.092" height="1.101" x="-.046" y="-.05" color-interpolation-filters="sRGB"><feGaussianBlur id="feGaussianBlur4899" stdDeviation=".909"/></filter></defs><metadata id="metadata2985"/><g id="layer1" display="inline" opacity=".7"><ellipse id="path3024" cx="1" cy="45" fill="url(#radialGradient3800)" fill-opacity="1" stroke="none" rx="41" ry="13" transform="matrix(0.73170732,0,0,0.80769231,31.268293,15.153846)"/><path id="path2993" fill="#729fcf" stroke="#0b1521" stroke-linecap="butt" stroke-linejoin="round" stroke-opacity="1" stroke-width="2" d="M 3,13 37,19 61,11 31,7 Z"/><path id="path2995" fill="url(#linearGradient3783)" fill-opacity="1" stroke="#0b1521" stroke-linecap="butt" stroke-linejoin="round" stroke-opacity="1" stroke-width="2" d="M 61,11 V 47 L 37,57 V 19 Z"/><path id="path3825" fill="url(#linearGradient3773)" fill-opacity="1" fill-rule="evenodd" stroke="#0b1521" stroke-dasharray="none" stroke-dashoffset="0" stroke-linecap="butt" stroke-linejoin="round" stroke-miterlimit="4" stroke-opacity="1" stroke-width="2" d="m 3,13 34,6 V 57 L 3,51 Z" display="inline" enable-background="accumulate" overflow="visible" visibility="visible" style="marker:none"/><path id="path3765" fill="none" stroke="#729fcf" stroke-linecap="butt" stroke-linejoin="miter" stroke-opacity="1" stroke-width="2" d="m 5,15.42772 0.00867,33.919116 30.008671,5.268799 -0.0087,-33.933614 z"/><path id="path3775" fill="none" stroke="#3465a4" stroke-linecap="butt" stroke-linejoin="miter" stroke-opacity="1" stroke-width="2" d="m 39.01243,20.433833 -0.01226,33.535301 20.001105,-8.300993 3.6e-4,-31.867363 z"/></g><g id="layer2"><path id="path4645" fill="none" stroke="#fff" stroke-dasharray="none" stroke-linecap="butt" stroke-linejoin="round" stroke-miterlimit="4" stroke-opacity="1" stroke-width="4.913" d="m 33.938382,54.968942 3.811752,5.132361 C 63.687198,48.508689 57.912776,11.463609 22.281971,26.588764 L 22.716269,16.708074 6.2739087,33.016699 28.639153,41.431467 24.468924,33.4329 c 25.262449,-12.441655 31.688854,9.191766 9.469458,21.536042 z" filter="url(#filter4897)" opacity=".8"/><path id="path3734" fill="red" stroke="none" stroke-dasharray="none" stroke-linecap="butt" stroke-linejoin="round" stroke-miterlimit="4" stroke-opacity="1" stroke-width="1.448" d="m 33.938382,54.968942 3.811752,5.132361 C 63.687198,48.508689 57.912776,11.463609 22.281971,26.588764 L 22.716269,16.708074 6.2739087,33.016699 28.639153,41.431467 24.468924,33.4329 c 25.262449,-12.441655 31.688854,9.191766 9.469458,21.536042 z"/><path id="path4851" fill="none" stroke="#000" stroke-dasharray="none" stroke-linecap="butt" stroke-linejoin="round" stroke-miterlimit="4" stroke-opacity="1" stroke-width="1.89" d="m 33.938382,54.968942 3.811752,5.132361 C 63.687198,48.508689 57.912776,11.463609 22.281971,26.588764 L 22.716269,16.708074 6.2739087,33.016699 28.639153,41.431467 24.468924,33.4329 c 25.262449,-12.441655 31.688854,9.191766 9.469458,21.536042 z"/></g></svg>