<svg xmlns="http://www.w3.org/2000/svg" xmlns:svg="http://www.w3.org/2000/svg" xmlns:xlink="http://www.w3.org/1999/xlink" id="svg2860" width="64" height="64" version="1.1"><defs id="defs2862"><linearGradient id="linearGradient3775"><stop id="stop3777" offset="0" stop-color="#faff2b" stop-opacity="1"/><stop id="stop3779" offset="1" stop-color="#fa0" stop-opacity="1"/></linearGradient><linearGradient id="linearGradient3377"><stop id="stop3379" offset="0" stop-color="#faff2b" stop-opacity="1"/><stop id="stop3381" offset="1" stop-color="#fa0" stop-opacity="1"/></linearGradient><radialGradient id="radialGradient3174-3" cx="225.938" cy="91.957" r="22" fx="225.938" fy="91.957" gradientTransform="matrix(-1.4090915,3.8636359,-0.97565325,-0.35582669,355.44592,-815.80833)" gradientUnits="userSpaceOnUse" xlink:href="#linearGradient3011-6"/><linearGradient id="linearGradient3011-6"><stop id="stop3013-7" offset="0" stop-color="#fce94f" stop-opacity="1"/><stop id="stop3015-5" offset="1" stop-color="#c4a000" stop-opacity="1"/></linearGradient><linearGradient id="linearGradient3220" x1="53.897" x2="47.502" y1="51.18" y2="21.837" gradientTransform="matrix(0.79109028,0,0,0.78516507,69.03755,5.1139279)" gradientUnits="userSpaceOnUse" xlink:href="#linearGradient3777"/><linearGradient id="linearGradient3777"><stop id="stop3779-3" offset="0" stop-color="#c4a000" stop-opacity="1"/><stop id="stop3781" offset="1" stop-color="#edd400" stop-opacity="1"/></linearGradient><linearGradient id="linearGradient3222" x1="22.117" x2="17.329" y1="55.718" y2="21.311" gradientTransform="matrix(0.82352937,0,0,0.77272731,68.529413,5.8636358)" gradientUnits="userSpaceOnUse" xlink:href="#linearGradient3767"/><linearGradient id="linearGradient3767"><stop id="stop3769" offset="0" stop-color="#edd400" stop-opacity="1"/><stop id="stop3771" offset="1" stop-color="#fce94f" stop-opacity="1"/></linearGradient></defs><metadata id="metadata2865"/><g id="layer1"><g id="g3618" transform="translate(-129.7515,-68.681262)"><g id="g3163" transform="translate(71.7515,76.68126)"><path id="path2993" fill="#fce94f" stroke="#302b00" stroke-linecap="butt" stroke-linejoin="round" stroke-opacity="1" stroke-width="2" d="m 71,19 28,5 18,-7 -23.84947,-3.42198 z"/><path id="path2995" fill="url(#linearGradient3220)" fill-opacity="1" stroke="#302b00" stroke-linecap="butt" stroke-linejoin="round" stroke-opacity="1" stroke-width="2" d="m 117,17 0,28 -18,8 0,-30 z"/><path id="path3825" fill="url(#linearGradient3222)" fill-opacity="1" fill-rule="evenodd" stroke="#302b00" stroke-dasharray="none" stroke-dashoffset="0" stroke-linecap="butt" stroke-linejoin="round" stroke-miterlimit="4" stroke-opacity="1" stroke-width="2" d="m 71,19 28,4 0,30.000002 -28,-4.636365 z" display="inline" enable-background="accumulate" overflow="visible" visibility="visible" style="marker:none"/><path id="path3765" fill="none" stroke="#fce94f" stroke-linecap="butt" stroke-linejoin="miter" stroke-opacity="1" stroke-width="2" d="M 72.993,21.368254 73,46.6 l 24,4 -0.007,-25.843 z"/><path id="path3775" fill="none" stroke="#edd400" stroke-linecap="butt" stroke-linejoin="miter" stroke-opacity="1" stroke-width="2" d="m 101,24.5 0,25.6 14,-6.4 0,-23.8 z"/></g><g id="g3176" transform="translate(187.7515,67.681262)"><g id="g3170" transform="matrix(0.47285104,0,0,0.47285104,-15.096853,1.7984977)"><path id="path3039" fill="url(#radialGradient3174-3)" fill-opacity="1" stroke="#302b00" stroke-linecap="butt" stroke-linejoin="round" stroke-opacity="1" stroke-width="4.23" d="m -50.551114,4.6558051 -21.14831,50.7559419 c 0,8 42.296619,8 42.296619,0 z"/><path id="path3817" fill="none" stroke="#fce94f" stroke-linecap="butt" stroke-linejoin="miter" stroke-opacity="1" stroke-width="4.23" d="m -50.551114,15.22996 -16.284198,39.547338 c 6.767459,2.74928 26.858352,2.74928 33.625811,0 z"/></g></g><g id="g3866" transform="translate(-0.18097,2.2293053)"><path id="path3074" fill="none" stroke="#042a2a" stroke-dasharray="none" stroke-linecap="round" stroke-linejoin="miter" stroke-miterlimit="4" stroke-opacity="1" stroke-width="8" d="m 147.93247,83.778883 c 0.81237,-3.858821 3.51206,-7.273515 7.07935,-8.954275 3.56728,-1.68076 7.91929,-1.588544 11.41217,0.241814 3.49288,1.830359 6.04551,5.356345 6.6937,9.246114 0.64818,3.889769 -0.62313,8.052971 -3.33374,10.917069 -1.75374,1.853043 -4.00899,3.134652 -6.17494,4.482987 -2.16596,1.348338 -4.32985,2.843108 -5.74507,4.965958 -0.39126,0.5869 -0.71613,1.22352 -0.90052,1.90436 -0.18438,0.68083 -0.21192,1.39299 -0.21192,2.09835 l 0,4"/><path id="path3011" fill="none" stroke="#16d0d2" stroke-dasharray="none" stroke-linecap="round" stroke-linejoin="miter" stroke-miterlimit="4" stroke-opacity="1" stroke-width="4" d="m 147.93247,84.054862 c 0.6406,-4.041309 3.31501,-7.707217 6.96781,-9.551011 3.65281,-1.843794 8.19051,-1.818285 11.82235,0.06646 3.63184,1.884746 6.26487,5.580491 6.85999,9.628746 0.59512,4.048256 -0.8629,8.345412 -3.79867,11.19564 -1.82858,1.775297 -4.12759,2.967137 -6.30722,4.287969 -2.17963,1.320834 -4.33592,2.863804 -5.61279,5.069474 -0.70845,1.22379 -1.1158,2.61098 -1.26025,4.01764 -0.12007,1.16922 -0.0614,2.35663 0.17343,3.5083"/><path id="path3011-7" fill="none" stroke="#34e0e2" stroke-dasharray="none" stroke-linecap="round" stroke-linejoin="miter" stroke-miterlimit="4" stroke-opacity="1" stroke-width="2" d="m 147.44781,82.697555 c 0.86224,-3.821346 3.5811,-7.178164 7.14,-8.815345 3.5589,-1.637181 7.87702,-1.517542 11.33981,0.314185 3.46279,1.831728 5.99161,5.33394 6.64094,9.197166 0.64932,3.863227 -0.59559,7.999725 -3.26927,10.862865 -1.74762,1.871459 -4.00446,3.170044 -6.17223,4.532874 -2.16777,1.36283 -4.33397,2.87044 -5.74778,5.00531 -0.80384,1.2138 -1.33911,2.60623 -1.54135,4.04795 -0.16676,1.18883 -0.10759,2.40896 0.17343,3.57607"/></g><path id="path3871" fill="#34e0e2" fill-opacity="1" stroke="#042a2a" stroke-dasharray="none" stroke-dashoffset="20.4" stroke-linecap="round" stroke-linejoin="miter" stroke-miterlimit="4" stroke-opacity="1" stroke-width="1.491" d="m 29.914083,59.130264 a 2.9814701,2.9814701 0 1 1 -5.96294,0 2.9814701,2.9814701 0 1 1 5.96294,0 z" transform="matrix(1.3416199,0,0,1.3416199,120.61817,46.350924)"/></g></g></svg>