<svg xmlns="http://www.w3.org/2000/svg" xmlns:svg="http://www.w3.org/2000/svg" xmlns:xlink="http://www.w3.org/1999/xlink" id="svg2568" width="64" height="64" version="1.1"><defs id="defs2570"><linearGradient id="linearGradient3864"><stop id="stop3866" offset="0" stop-color="#71b2f8" stop-opacity="1"/><stop id="stop3868" offset="1" stop-color="#002795" stop-opacity="1"/></linearGradient><linearGradient id="linearGradient3593"><stop id="stop3595" offset="0" stop-color="#c8e0f9" stop-opacity="1"/><stop id="stop3597" offset="1" stop-color="#637dca" stop-opacity="1"/></linearGradient><radialGradient id="radialGradient3090" cx="46.534" cy="26.282" r="19.571" fx="46.534" fy="26.282" gradientTransform="matrix(1.1486088,1.8477617,-3.056673,1.900094,73.257745,-112.1016)" gradientUnits="userSpaceOnUse" xlink:href="#linearGradient3143"/><linearGradient id="linearGradient3143"><stop id="stop3145" offset="0" stop-color="#fff" stop-opacity="1"/><stop id="stop3147" offset="1" stop-color="#d3d7cf" stop-opacity="1"/></linearGradient><radialGradient id="radialGradient3165" cx="48.646" cy="25.149" r="19.571" fx="48.646" fy="25.149" gradientTransform="matrix(0.63294029,0.93089132,-0.82695376,0.56227002,38.653022,-34.275496)" gradientUnits="userSpaceOnUse" xlink:href="#linearGradient3143-7"/><linearGradient id="linearGradient3143-7"><stop id="stop3145-0" offset="0" stop-color="#729fcf" stop-opacity="1"/><stop id="stop3147-9" offset="1" stop-color="#3465a4" stop-opacity="1"/></linearGradient><radialGradient id="radialGradient3991" cx="56.832" cy="30.181" r="19.571" fx="56.832" fy="30.181" gradientTransform="matrix(-0.51094884,-0.61313857,0.25133659,-0.20944716,57.452467,81.167084)" gradientUnits="userSpaceOnUse" xlink:href="#linearGradient3143-8"/><linearGradient id="linearGradient3143-8"><stop id="stop3145-4" offset="0" stop-color="#3465a4" stop-opacity="1"/><stop id="stop3147-50" offset="1" stop-color="#729fcf" stop-opacity="1"/></linearGradient><linearGradient id="linearGradient4000-2" x1="62" x2="52" y1="34" y2="34" gradientTransform="matrix(0.87648555,0,0,1.1068128,0.81760416,1.3277733)" gradientUnits="userSpaceOnUse" spreadMethod="reflect" xlink:href="#linearGradient3994-3"/><linearGradient id="linearGradient3994-3"><stop id="stop3996-7" offset="0" stop-color="#a40000" stop-opacity="1"/><stop id="stop3998-5" offset="1" stop-color="#ef2929" stop-opacity="1"/></linearGradient></defs><metadata id="metadata2573"/><g id="layer1"><g id="g3560" transform="matrix(0.91273618,0,0,0.90349515,105.85374,2.800363)"><path id="path3550-3-3" fill="url(#radialGradient3165)" fill-opacity="1" fill-rule="evenodd" stroke="#0b1521" stroke-dasharray="none" stroke-dashoffset="0" stroke-linecap="butt" stroke-linejoin="miter" stroke-miterlimit="4" stroke-opacity="1" stroke-width="1.953" d="m 71.785715,34.571426 c 0,10.256717 -8.314712,18.571429 -18.571428,18.571429 -10.256717,0 -18.571428,-8.314712 -18.571428,-18.571429 0,-10.256716 8.314711,-18.571428 18.571428,-18.571428 10.256716,0 18.571428,8.314712 18.571428,18.571428 z" display="inline" enable-background="accumulate" overflow="visible" transform="matrix(1.1209541,0,0,1.1324194,-151.52151,2.0236756)" visibility="visible" style="marker:none"/><path id="path3550-3-1-6" fill="none" stroke="#729fcf" stroke-dasharray="none" stroke-dashoffset="0" stroke-linecap="butt" stroke-linejoin="miter" stroke-miterlimit="4" stroke-opacity="1" stroke-width="2.182" d="m 71.785715,34.571426 c 0,10.256717 -8.314712,18.571429 -18.571428,18.571429 -10.256717,0 -18.571428,-8.314712 -18.571428,-18.571429 0,-10.256716 8.314711,-18.571428 18.571428,-18.571428 10.256716,0 18.571428,8.314712 18.571428,18.571428 z" display="inline" enable-background="accumulate" overflow="visible" transform="matrix(1.0029659,0,0,1.0132241,-145.24287,6.1444238)" visibility="visible" style="marker:none"/><path id="path3550-3" fill="url(#radialGradient3090)" fill-opacity="1" fill-rule="evenodd" stroke="#2e3436" stroke-dasharray="none" stroke-dashoffset="0" stroke-linecap="butt" stroke-linejoin="miter" stroke-miterlimit="4" stroke-opacity="1" stroke-width="1.953" d="m 71.785715,34.571426 c 0,10.256717 -8.314712,18.571429 -18.571428,18.571429 -10.256717,0 -18.571428,-8.314712 -18.571428,-18.571429 0,-10.256716 8.314711,-18.571428 18.571428,-18.571428 10.256716,0 18.571428,8.314712 18.571428,18.571428 z" display="inline" enable-background="accumulate" overflow="visible" transform="matrix(1.1209541,0,0,1.1324194,-131.80057,-13.471699)" visibility="visible" style="marker:none"/><g id="g3987" transform="matrix(0.84821111,0.2296021,-0.22920173,0.86414155,-95.764174,-3.5769808)"><path id="path3550-3-36" fill="url(#radialGradient3991)" fill-opacity="1" fill-rule="evenodd" stroke="#0b1521" stroke-dasharray="none" stroke-dashoffset="0" stroke-linecap="butt" stroke-linejoin="miter" stroke-miterlimit="4" stroke-opacity="1" stroke-width="2.482" d="m 22,21 c -0.1166,0 -0.22765,0.02916 -0.34375,0.03125 C 21.22885,22.614131 21,24.282004 21,26 c 0,10.49401 8.50599,19 19,19 0.1166,0 0.22765,-0.02916 0.34375,-0.03125 C 40.77115,43.385869 41,41.717996 41,40 41,29.50599 32.49401,21 22,21 z" display="inline" enable-background="accumulate" overflow="visible" visibility="visible" style="marker:none"/><path id="path3550-3-1-1" fill="none" stroke="#729fcf" stroke-dasharray="none" stroke-dashoffset="0" stroke-linecap="butt" stroke-linejoin="miter" stroke-miterlimit="4" stroke-opacity="1" stroke-width="2.482" d="m 23.72748,23.909844 c -0.155127,0.889936 -0.263225,1.808987 -0.263225,2.743203 0,8.367259 6.481855,15.207464 14.711346,15.817191 0.155127,-0.889934 0.263225,-1.808987 0.263225,-2.743203 0,-8.367258 -6.481856,-15.207464 -14.711346,-15.817191 z" display="inline" enable-background="accumulate" overflow="visible" visibility="visible" style="marker:none"/></g><g id="g4095" transform="translate(-107.44028,-2.8457408)"><path id="path3206" fill="url(#linearGradient4000-2)" fill-opacity="1" stroke="#280000" stroke-linecap="butt" stroke-linejoin="round" stroke-opacity="1" stroke-width="2.202" d="m 38.506483,33.425344 0,30.990759 c 0,0 1.752973,4.427251 9.641343,4.427251 7.88837,0 9.641339,-4.427251 9.641339,-4.427251 l 0,-30.990759 z"/><path id="path3206-6" fill="none" stroke="#ef2929" stroke-linecap="butt" stroke-linejoin="miter" stroke-opacity="1" stroke-width="2.202" d="m 40.697698,35.63897 0,28.223727 c 0,0 1.704278,2.767032 7.669251,2.767032 5.964972,0 7.669249,-2.767032 7.669249,-2.767032 l 0,-28.223727 z"/><path id="path3186" fill="#c00" fill-opacity="1" stroke="#280000" stroke-dasharray="none" stroke-dashoffset="6.8" stroke-linecap="round" stroke-linejoin="round" stroke-miterlimit="4" stroke-opacity="1" stroke-width="2.37" d="m 25.169065,29.033289 c 0,2.428978 -5.029918,4.398055 -11.234635,4.398055 -6.2047171,0 -11.2346343,-1.969077 -11.2346343,-4.398055 0,-2.428979 5.0299172,-4.398055 11.2346343,-4.398055 6.204717,0 11.234635,1.969076 11.234635,4.398055 z" transform="matrix(0.85818027,0,0,1.0066384,36.189573,4.1993198)"/><path id="path3186-0" fill="none" stroke="#ef2929" stroke-dasharray="none" stroke-dashoffset="6.8" stroke-linecap="round" stroke-linejoin="round" stroke-miterlimit="4" stroke-opacity="1" stroke-width="3.757" d="m 25.169065,29.033289 c 0,2.428978 -5.029918,4.398055 -11.234635,4.398055 -6.2047171,0 -11.2346343,-1.969077 -11.2346343,-4.398055 0,-2.428979 5.0299172,-4.398055 11.2346343,-4.398055 6.204717,0 11.234635,1.969076 11.234635,4.398055 z" transform="matrix(0.68264328,0,0,0.50331927,38.854701,18.812331)"/><path id="path4002" fill="none" stroke="#ef2929" stroke-linecap="butt" stroke-linejoin="miter" stroke-opacity="1" stroke-width="2.202" d="m 40.259454,38.516683 c 0,0 2.629455,1.549538 7.88837,1.549538 5.258915,0 7.88837,-1.549538 7.88837,-1.549538"/><path id="path4004" fill="none" stroke="#2e3436" stroke-linecap="round" stroke-linejoin="round" stroke-opacity="1" stroke-width="6" d="m 52.000002,28 c 0,0 -3.289969,-4.344762 -3,-8 0.289968,-3.655238 2,-5 2,-5" transform="matrix(1.0956068,0,0,1.1068128,-8.6046095,1.3277733)"/><path id="path4004-2" fill="none" stroke="#d3d7cf" stroke-linecap="round" stroke-linejoin="round" stroke-opacity="1" stroke-width="2.202" d="m 48.366947,32.318532 c 0,0 -3.604513,-4.808838 -3.286821,-8.854503 0.317691,-4.045664 2.191213,-5.534064 2.191213,-5.534064"/><path id="path4024" fill="none" stroke="#a40000" stroke-linecap="round" stroke-linejoin="miter" stroke-opacity="1" stroke-width="6.607" d="m 38.506483,17.929966 -4.382426,2.213625"/><path id="path4024-6" fill="none" stroke="#ef2929" stroke-linecap="round" stroke-linejoin="miter" stroke-opacity="1" stroke-width="2.202" d="m 38.506483,17.929966 -4.382426,2.213625"/><path id="path4024-1" fill="none" stroke="#a40000" stroke-linecap="round" stroke-linejoin="miter" stroke-opacity="1" stroke-width="6.607" d="M 58.227407,22.357217 53.84498,20.143591"/><path id="path4024-6-8" fill="none" stroke="#ef2929" stroke-linecap="round" stroke-linejoin="miter" stroke-opacity="1" stroke-width="2.202" d="M 58.227407,22.357217 53.84498,20.143591"/><path id="path4024-7" fill="none" stroke="#a40000" stroke-linecap="round" stroke-linejoin="miter" stroke-opacity="1" stroke-width="6.607" d="M 53.84498,6.8618373 51.653766,11.289089"/><path id="path4024-6-9" fill="none" stroke="#ef2929" stroke-linecap="round" stroke-linejoin="miter" stroke-opacity="1" stroke-width="2.202" d="M 53.84498,6.8618373 51.653766,11.289089"/><path id="path4024-7-2" fill="none" stroke="#a40000" stroke-linecap="round" stroke-linejoin="miter" stroke-opacity="1" stroke-width="6.607" d="m 40.697698,6.8618373 2.191214,4.4272517"/><path id="path4024-6-9-0" fill="none" stroke="#ef2929" stroke-linecap="round" stroke-linejoin="miter" stroke-opacity="1" stroke-width="2.202" d="m 40.697698,6.8618373 2.191214,4.4272517"/></g></g></g></svg>