<svg xmlns="http://www.w3.org/2000/svg" xmlns:svg="http://www.w3.org/2000/svg" xmlns:xlink="http://www.w3.org/1999/xlink" id="svg3052" width="64" height="64" version="1.1"><defs id="defs3054"><linearGradient id="linearGradient4032"><stop id="stop4034" offset="0" stop-color="#71b2f8" stop-opacity="1"/><stop id="stop4036" offset="1" stop-color="#002795" stop-opacity="1"/></linearGradient><radialGradient id="radialGradient3705" cx="148.883" cy="81.87" r="19.467" fx="148.883" fy="81.87" gradientTransform="matrix(1.6244669,-0.05136783,0.04345521,0.9993132,-102.99033,7.7040438)" gradientUnits="userSpaceOnUse" xlink:href="#linearGradient3377"/><linearGradient id="linearGradient3377"><stop id="stop3379" offset="0" stop-color="#4bff54" stop-opacity="1"/><stop id="stop3381" offset="1" stop-color="#00b800" stop-opacity="1"/></linearGradient><radialGradient id="radialGradient3703" cx="135.383" cy="97.37" r="19.467" fx="135.383" fy="97.37" gradientTransform="matrix(0.87904684,0.2250379,-0.41709097,2.0016728,56.73751,-127.99883)" gradientUnits="userSpaceOnUse" xlink:href="#linearGradient3206"/><linearGradient id="linearGradient3199"><stop id="stop3201" offset="0" stop-color="#faff2b" stop-opacity="1"/><stop id="stop3203" offset="1" stop-color="#fa0" stop-opacity="1"/></linearGradient><radialGradient id="radialGradient3692" cx="45.883" cy="28.87" r="19.467" fx="45.883" fy="28.87" gradientUnits="userSpaceOnUse" xlink:href="#linearGradient3377"/><linearGradient id="linearGradient3206"><stop id="stop3208" offset="0" stop-color="#faff2b" stop-opacity="1"/><stop id="stop3210" offset="1" stop-color="#fa0" stop-opacity="1"/></linearGradient><radialGradient id="radialGradient4030" cx="148.883" cy="81.87" r="19.467" fx="148.883" fy="81.87" gradientTransform="matrix(1.260164,-0.05136783,0.03370995,0.9993132,-43.139781,7.2044077)" gradientUnits="userSpaceOnUse" xlink:href="#linearGradient4032"/><linearGradient id="linearGradient3801-1-3-14-0-9" x1="-18" x2="-22" y1="18" y2="5" gradientTransform="matrix(0.76342439,0,0,0.75750425,-4.596389,2.7525637)" gradientUnits="userSpaceOnUse" xlink:href="#linearGradient3836-0-6-92-4-2"/><linearGradient id="linearGradient3836-0-6-92-4-2"><stop id="stop3838-2-7-06-8-0" offset="0" stop-color="#a40000" stop-opacity="1"/><stop id="stop3840-5-5-8-7-23" offset="1" stop-color="#ef2929" stop-opacity="1"/></linearGradient><linearGradient id="linearGradient3801-1-3-14-0-9-7" x1="-18" x2="-22" y1="18" y2="5" gradientTransform="matrix(0.76342439,0,0,0.75750425,-4.596389,2.7525637)" gradientUnits="userSpaceOnUse" xlink:href="#linearGradient3836-0-6-92-4-2-5"/><linearGradient id="linearGradient3836-0-6-92-4-2-5"><stop id="stop3838-2-7-06-8-0-3" offset="0" stop-color="#a40000" stop-opacity="1"/><stop id="stop3840-5-5-8-7-23-5" offset="1" stop-color="#ef2929" stop-opacity="1"/></linearGradient></defs><metadata id="metadata3057"/><g id="layer1"><path id="path3966" fill="none" stroke="#204a87" stroke-dasharray="none" stroke-linecap="butt" stroke-linejoin="miter" stroke-miterlimit="4" stroke-opacity="1" stroke-width="3.42" d="m 20.363164,12.188881 c 2.358032,0.04436 3.631693,2.621743 3.257356,4.712324 -0.598824,3.344281 -4.26761,5.030166 -7.371553,4.242277 -4.328481,-1.09872 -6.4474753,-5.923829 -5.227198,-10.030781 1.579169,-5.3148337 7.58403,-7.8733832 12.690009,-6.2121189 6.302869,2.0506803 9.303936,9.2462409 7.19704,15.3492369 -2.517381,7.29204 -10.909631,10.737277 -18.008465,8.181962 C 4.6183695,25.450576 0.72793359,15.857998 3.7334703,7.7640873 7.1766446,-1.5083817 17.971925,-5.844706 27.060392,-2.3877167 c 0.110468,0.042019 0.220542,0.085072 0.330203,0.1291525" transform="matrix(1.8715648,0,0,1.6438367,-0.09809,10.885929)"/><path id="path3966-2" fill="none" stroke="#729fcf" stroke-dasharray="none" stroke-linecap="butt" stroke-linejoin="miter" stroke-miterlimit="4" stroke-opacity="1" stroke-width="1.14" d="m 20.363164,12.188881 c 2.358032,0.04436 3.631693,2.621743 3.257356,4.712324 -0.598824,3.344281 -4.26761,5.030166 -7.371553,4.242277 -4.328481,-1.09872 -6.4474753,-5.923829 -5.227198,-10.030781 1.579169,-5.3148337 7.58403,-7.8733832 12.690009,-6.2121189 6.302869,2.0506803 9.303936,9.2462409 7.19704,15.3492369 -2.517381,7.29204 -10.909631,10.737277 -18.008465,8.181962 C 4.6183695,25.450576 0.72793359,15.857998 3.7334703,7.7640873 7.1766446,-1.5083817 17.971925,-5.844706 27.060392,-2.3877167 c 0.110468,0.042019 0.220542,0.085072 0.330203,0.1291525" transform="matrix(1.8715648,0,0,1.6438367,-0.098075,10.885942)"/><g id="g3827-1-3-92-1-7" transform="matrix(0.5613787,1.5641823e-8,0,0.56576972,47.28696,-21.441084)"><g id="g3797-9-5-66-7-5" transform="translate(31.322131,40.570289)"><path id="path4250-71-6-49-2-9" fill="#ef2929" stroke="#280000" stroke-dasharray="none" stroke-miterlimit="4" stroke-opacity="1" stroke-width="3.549" d="M -26.118221,5.6643347 A 8.9379793,8.8680774 0 1 1 -12.540634,17.200906 8.9379793,8.8680774 0 1 1 -26.118221,5.6643347 z"/><path id="path4250-7-3-2-5-7-2" fill="url(#linearGradient3801-1-3-14-0-9)" fill-opacity="1" stroke="#ef2929" stroke-dasharray="none" stroke-miterlimit="4" stroke-opacity="1" stroke-width="3.549" d="m -23.40227,7.9744858 a 5.3439706,5.3025298 0 1 1 8.11794,6.8981452 5.3439706,5.3025298 0 0 1 -8.11794,-6.8981452 z"/></g></g><g id="g3827-1-3-92-1-7-6" transform="matrix(0.5613787,1.5641823e-8,0,0.56576972,31.28696,0.55891646)"><g id="g3797-9-5-66-7-5-2" transform="translate(31.322131,40.570289)"><path id="path4250-71-6-49-2-9-9" fill="#ef2929" stroke="#280000" stroke-dasharray="none" stroke-miterlimit="4" stroke-opacity="1" stroke-width="3.549" d="M -26.118221,5.6643347 A 8.9379793,8.8680774 0 1 1 -12.540634,17.200906 8.9379793,8.8680774 0 1 1 -26.118221,5.6643347 z"/><path id="path4250-7-3-2-5-7-2-1" fill="url(#linearGradient3801-1-3-14-0-9-7)" fill-opacity="1" stroke="#ef2929" stroke-dasharray="none" stroke-miterlimit="4" stroke-opacity="1" stroke-width="3.549" d="m -23.40227,7.9744858 a 5.3439706,5.3025298 0 1 1 8.11794,6.8981452 5.3439706,5.3025298 0 0 1 -8.11794,-6.8981452 z"/></g></g></g></svg>