<svg xmlns="http://www.w3.org/2000/svg" xmlns:svg="http://www.w3.org/2000/svg" xmlns:xlink="http://www.w3.org/1999/xlink" id="svg2568" width="64" height="64" version="1.1"><defs id="defs2570"><linearGradient id="linearGradient3864"><stop id="stop3866" offset="0" stop-color="#71b2f8" stop-opacity="1"/><stop id="stop3868" offset="1" stop-color="#002795" stop-opacity="1"/></linearGradient><linearGradient id="linearGradient3593"><stop id="stop3595" offset="0" stop-color="#c8e0f9" stop-opacity="1"/><stop id="stop3597" offset="1" stop-color="#637dca" stop-opacity="1"/></linearGradient><radialGradient id="radialGradient3090" cx="46.534" cy="26.282" r="19.571" fx="46.534" fy="26.282" gradientTransform="matrix(1.1486088,1.8477617,-3.056673,1.900094,73.257745,-112.1016)" gradientUnits="userSpaceOnUse" xlink:href="#linearGradient3143"/><linearGradient id="linearGradient3143"><stop id="stop3145" offset="0" stop-color="#fff" stop-opacity="1"/><stop id="stop3147" offset="1" stop-color="#d3d7cf" stop-opacity="1"/></linearGradient><radialGradient id="radialGradient3165" cx="48.646" cy="25.149" r="19.571" fx="48.646" fy="25.149" gradientTransform="matrix(0.63294029,0.93089132,-0.82695376,0.56227002,38.653022,-34.275496)" gradientUnits="userSpaceOnUse" xlink:href="#linearGradient3143-7"/><linearGradient id="linearGradient3143-7"><stop id="stop3145-0" offset="0" stop-color="#729fcf" stop-opacity="1"/><stop id="stop3147-9" offset="1" stop-color="#3465a4" stop-opacity="1"/></linearGradient><radialGradient id="radialGradient3991" cx="56.832" cy="30.181" r="19.571" fx="56.832" fy="30.181" gradientTransform="matrix(-0.51094884,-0.61313857,0.25133659,-0.20944716,57.452467,81.167084)" gradientUnits="userSpaceOnUse" xlink:href="#linearGradient3143-8"/><linearGradient id="linearGradient3143-8"><stop id="stop3145-4" offset="0" stop-color="#3465a4" stop-opacity="1"/><stop id="stop3147-50" offset="1" stop-color="#729fcf" stop-opacity="1"/></linearGradient></defs><metadata id="metadata2573"/><g id="layer1"><g id="g3560" transform="matrix(0.91273618,0,0,0.90349515,105.85374,2.800363)"><path id="path3550-3-3" fill="url(#radialGradient3165)" fill-opacity="1" fill-rule="evenodd" stroke="#0b1521" stroke-dasharray="none" stroke-dashoffset="0" stroke-linecap="butt" stroke-linejoin="miter" stroke-miterlimit="4" stroke-opacity="1" stroke-width="1.953" d="m 71.785715,34.571426 c 0,10.256717 -8.314712,18.571429 -18.571428,18.571429 -10.256717,0 -18.571428,-8.314712 -18.571428,-18.571429 0,-10.256716 8.314711,-18.571428 18.571428,-18.571428 10.256716,0 18.571428,8.314712 18.571428,18.571428 z" display="inline" enable-background="accumulate" overflow="visible" transform="matrix(1.1209541,0,0,1.1324194,-151.52151,2.0236756)" visibility="visible" style="marker:none"/><path id="path3550-3-1-6" fill="none" stroke="#729fcf" stroke-dasharray="none" stroke-dashoffset="0" stroke-linecap="butt" stroke-linejoin="miter" stroke-miterlimit="4" stroke-opacity="1" stroke-width="2.182" d="m 71.785715,34.571426 c 0,10.256717 -8.314712,18.571429 -18.571428,18.571429 -10.256717,0 -18.571428,-8.314712 -18.571428,-18.571429 0,-10.256716 8.314711,-18.571428 18.571428,-18.571428 10.256716,0 18.571428,8.314712 18.571428,18.571428 z" display="inline" enable-background="accumulate" overflow="visible" transform="matrix(1.0029659,0,0,1.0132241,-145.24287,6.1444238)" visibility="visible" style="marker:none"/><path id="path3550-3" fill="url(#radialGradient3090)" fill-opacity="1" fill-rule="evenodd" stroke="#2e3436" stroke-dasharray="none" stroke-dashoffset="0" stroke-linecap="butt" stroke-linejoin="miter" stroke-miterlimit="4" stroke-opacity="1" stroke-width="1.953" d="m 71.785715,34.571426 c 0,10.256717 -8.314712,18.571429 -18.571428,18.571429 -10.256717,0 -18.571428,-8.314712 -18.571428,-18.571429 0,-10.256716 8.314711,-18.571428 18.571428,-18.571428 10.256716,0 18.571428,8.314712 18.571428,18.571428 z" display="inline" enable-background="accumulate" overflow="visible" transform="matrix(1.1209541,0,0,1.1324194,-131.80057,-13.471699)" visibility="visible" style="marker:none"/><g id="g3987" transform="matrix(0.84821111,0.2296021,-0.22920173,0.86414155,-95.764174,-3.5769808)"><path id="path3550-3-36" fill="url(#radialGradient3991)" fill-opacity="1" fill-rule="evenodd" stroke="#0b1521" stroke-dasharray="none" stroke-dashoffset="0" stroke-linecap="butt" stroke-linejoin="miter" stroke-miterlimit="4" stroke-opacity="1" stroke-width="2.482" d="m 22,21 c -0.1166,0 -0.22765,0.02916 -0.34375,0.03125 C 21.22885,22.614131 21,24.282004 21,26 c 0,10.49401 8.50599,19 19,19 0.1166,0 0.22765,-0.02916 0.34375,-0.03125 C 40.77115,43.385869 41,41.717996 41,40 41,29.50599 32.49401,21 22,21 z" display="inline" enable-background="accumulate" overflow="visible" visibility="visible" style="marker:none"/><path id="path3550-3-1-1" fill="none" stroke="#729fcf" stroke-dasharray="none" stroke-dashoffset="0" stroke-linecap="butt" stroke-linejoin="miter" stroke-miterlimit="4" stroke-opacity="1" stroke-width="2.482" d="m 23.72748,23.909844 c -0.155127,0.889936 -0.263225,1.808987 -0.263225,2.743203 0,8.367259 6.481855,15.207464 14.711346,15.817191 0.155127,-0.889934 0.263225,-1.808987 0.263225,-2.743203 0,-8.367258 -6.481856,-15.207464 -14.711346,-15.817191 z" display="inline" enable-background="accumulate" overflow="visible" visibility="visible" style="marker:none"/></g></g></g></svg>