<svg xmlns="http://www.w3.org/2000/svg" xmlns:svg="http://www.w3.org/2000/svg" xmlns:xlink="http://www.w3.org/1999/xlink" id="svg2568" width="64" height="64" version="1.1"><defs id="defs2570"><linearGradient id="linearGradient3864"><stop id="stop3866" offset="0" stop-color="#71b2f8" stop-opacity="1"/><stop id="stop3868" offset="1" stop-color="#002795" stop-opacity="1"/></linearGradient><linearGradient id="linearGradient3377"><stop id="stop3379" offset="0" stop-color="#71b2f8" stop-opacity="1"/><stop id="stop3381" offset="1" stop-color="#002795" stop-opacity="1"/></linearGradient><linearGradient id="linearGradient3023"><stop id="stop3025" offset="0" stop-color="#71b2f8" stop-opacity="1"/><stop id="stop3027" offset="1" stop-color="#002795" stop-opacity="1"/></linearGradient><radialGradient id="radialGradient3692" cx="45.883" cy="28.87" r="19.467" fx="45.883" fy="28.87" gradientUnits="userSpaceOnUse" xlink:href="#linearGradient3377"/><linearGradient id="linearGradient3030"><stop id="stop3032" offset="0" stop-color="#71b2f8" stop-opacity="1"/><stop id="stop3034" offset="1" stop-color="#002795" stop-opacity="1"/></linearGradient><radialGradient id="radialGradient3837" cx="148.883" cy="81.87" r="19.467" fx="148.883" fy="81.87" gradientTransform="matrix(0.98773287,-0.06324662,0.02642229,1.230404,-216.68819,-80.013158)" gradientUnits="userSpaceOnUse" xlink:href="#linearGradient3377"/><radialGradient id="radialGradient3839" cx="135.383" cy="97.37" r="19.467" fx="135.383" fy="97.37" gradientTransform="matrix(0.69474204,0.27707782,-0.32964185,2.4645588,-139.05338,-247.09727)" gradientUnits="userSpaceOnUse" xlink:href="#linearGradient3377"/><radialGradient id="radialGradient3841" cx="45.883" cy="28.87" r="19.467" fx="45.883" fy="28.87" gradientTransform="matrix(0.71303129,0,0,1.2312496,-173.62652,-89.498759)" gradientUnits="userSpaceOnUse" xlink:href="#linearGradient3377"/><radialGradient id="radialGradient3804" cx="148.883" cy="81.87" r="19.467" fx="148.883" fy="81.87" gradientTransform="matrix(0.98773287,-0.06324662,0.02642229,1.230404,-216.68819,-80.013158)" gradientUnits="userSpaceOnUse" xlink:href="#linearGradient3377"/><radialGradient id="radialGradient3806" cx="135.383" cy="97.37" r="19.467" fx="135.383" fy="97.37" gradientTransform="matrix(0.69474204,0.27707782,-0.32964185,2.4645588,-139.05338,-247.09727)" gradientUnits="userSpaceOnUse" xlink:href="#linearGradient3377"/><radialGradient id="radialGradient3808" cx="45.883" cy="28.87" r="19.467" fx="45.883" fy="28.87" gradientTransform="matrix(0.71303129,0,0,1.2312496,-173.62652,-89.498759)" gradientUnits="userSpaceOnUse" xlink:href="#linearGradient3377"/></defs><metadata id="metadata2573"/><g id="layer1"><g id="g3029" transform="translate(-0.25712974,3.8569461)"><path id="path3024" fill="#ff8080" stroke="none" d="M 8.0995866,33.144431 23.141676,43.815315 23.27024,56.414672 c 0.476565,4.113068 20.356105,3.171267 20.31325,0.514259 L 43.454925,43.94388 59.782662,32.630171 c 1.324085,-0.591322 3.447335,-3.332971 0,-4.49977 C 51.04293,25.172316 42.049495,24.538764 32.398346,24.65915 21.342168,24.797061 7.9710214,27.616141 7.9710214,27.616141 c -3.625473,1.563215 -6.5941112,2.651976 0.1285652,5.52829 z"/><path id="path3012" fill="#000" fill-opacity=".204" stroke="#000" stroke-dasharray="none" stroke-dashoffset="0" stroke-linecap="round" stroke-linejoin="round" stroke-miterlimit="4" stroke-opacity="1" stroke-width="1.417" d="m 61.968266,30.316004 c 0,2.982185 -12.893542,5.399724 -28.798531,5.399724 -15.904989,0 -28.7985306,-2.417539 -28.7985306,-5.399724 0,-2.982186 12.8935416,-5.399725 28.7985306,-5.399725 15.904989,0 28.798531,2.417539 28.798531,5.399725 z"/><path id="path3014" fill="none" stroke="#000" stroke-linecap="butt" stroke-linejoin="miter" stroke-opacity="1" stroke-width="1" d="m 61.196878,31.344523 -17.741952,12.470793 0,12.727922"/><use id="use3016" width="64" height="64" x="0" y="0" transform="matrix(-1,0,0,1,66.468037,0)" xlink:href="#path3014"/><path id="path3018" fill="none" stroke="#000" stroke-linecap="butt" stroke-linejoin="miter" stroke-opacity="1" stroke-width="1" d="m 23.141676,56.157543 c 0.0046,4.178769 19.985257,4.725403 20.31325,0"/><use id="use3022" width="64" height="64" x="0" y="0" transform="translate(0,-12.985052)" xlink:href="#path3018"/></g><g id="g3049" stroke-dasharray="none" stroke-miterlimit="4" stroke-width="2" transform="matrix(1.4762131,0,0,1.0076494,-1.6458556,-22.340833)"><path id="path3045" fill="none" stroke="#000" stroke-dasharray="none" stroke-linecap="butt" stroke-linejoin="miter" stroke-miterlimit="4" stroke-opacity="1" stroke-width="1.64" d="m 10.351377,24.493827 -5.6980057,0 0,25.925926 5.6980057,0"/><use id="use3047" width="64" height="64" x="0" y="0" stroke-dasharray="none" stroke-miterlimit="4" stroke-width="2" transform="matrix(-1,0,0,1,47.081698,0)" xlink:href="#path3045"/></g><g id="g3798" transform="matrix(1.566393,0,0,1.566393,-35.857152,-16.961636)"><g id="g3843" transform="matrix(0.57659255,0,0,0.32499812,79.277735,9.6499853)"><path id="path3845" fill="url(#radialGradient3804)" fill-opacity="1" fill-rule="evenodd" stroke="#000137" stroke-dasharray="none" stroke-dashoffset="0" stroke-linecap="butt" stroke-linejoin="round" stroke-miterlimit="4" stroke-opacity="1" stroke-width="1.316" d="m -65.878042,4.7970936 -12.866966,10.1036774 21.744289,5.108296 0.30338,44.045609 11.486763,-13.03934 0.410614,-42.3363302 z" display="inline" enable-background="accumulate" overflow="visible" visibility="visible" style="marker:none"/><path id="path3847" fill="url(#radialGradient3806)" fill-opacity="1" fill-rule="evenodd" stroke="#000137" stroke-dasharray="none" stroke-dashoffset="0" stroke-linecap="butt" stroke-linejoin="round" stroke-miterlimit="4" stroke-opacity="1" stroke-width="1.316" d="m -78.552461,15.155385 21.896364,4.143912 0,44.912523 -22.192265,-6.236008 0.295901,-42.820427 z" display="inline" enable-background="accumulate" overflow="visible" visibility="visible" style="marker:none"/><path id="path3849" fill="url(#radialGradient3808)" fill-opacity="1" fill-rule="evenodd" stroke="#000137" stroke-dasharray="none" stroke-dashoffset="0" stroke-linecap="butt" stroke-linejoin="round" stroke-miterlimit="4" stroke-opacity="1" stroke-width="1.316" d="M -56.822875,19.354658 -44.896728,9.001326" display="inline" enable-background="accumulate" overflow="visible" visibility="visible" style="marker:none"/></g></g></g></svg>