<svg xmlns="http://www.w3.org/2000/svg" xmlns:svg="http://www.w3.org/2000/svg" xmlns:xlink="http://www.w3.org/1999/xlink" id="svg2742" width="64" height="64" version="1.1"><defs id="defs2744"><linearGradient id="linearGradient3840"><stop id="stop3842" offset="0" stop-color="#3465a4" stop-opacity="1"/><stop id="stop3844" offset="1" stop-color="#729fcf" stop-opacity="1"/></linearGradient><linearGradient id="linearGradient3796"><stop id="stop3798" offset="0" stop-color="#3465a4" stop-opacity="1"/><stop id="stop3800" offset="1" stop-color="#729fcf" stop-opacity="1"/></linearGradient><linearGradient id="linearGradient3593"><stop id="stop3595" offset="0" stop-color="#c8e0f9" stop-opacity="1"/><stop id="stop3597" offset="1" stop-color="#637dca" stop-opacity="1"/></linearGradient><radialGradient id="radialGradient3354" cx="330.638" cy="39.963" r="19.571" fx="330.638" fy="39.963" gradientTransform="matrix(0.758418,0,0,0.7033779,-258.10517,7.1653991)" gradientUnits="userSpaceOnUse" xlink:href="#linearGradient3593"/><linearGradient id="linearGradient3864"><stop id="stop3866" offset="0" stop-color="#71b2f8" stop-opacity="1"/><stop id="stop3868" offset="1" stop-color="#002795" stop-opacity="1"/></linearGradient><radialGradient id="radialGradient3408" cx="93.128" cy="47.935" r="19.571" fx="93.128" fy="47.935" gradientTransform="matrix(-2.9923907e-2,-0.4114445,0.8683018,-8.8076009e-2,-66.032603,103.75566)" gradientUnits="userSpaceOnUse" xlink:href="#linearGradient3864"/><radialGradient id="radialGradient3933" cx="4.215" cy="80.361" r="19.571" fx="4.215" fy="80.361" gradientTransform="matrix(-1.0945417,-0.203985,-0.1416113,-1.4096281,-15.484624,133.08369)" gradientUnits="userSpaceOnUse" xlink:href="#linearGradient3864"/><radialGradient id="radialGradient3945" cx="330.638" cy="39.963" r="19.571" fx="330.638" fy="39.963" gradientTransform="matrix(0.758418,0,0,0.7033779,-258.10517,7.1653991)" gradientUnits="userSpaceOnUse" xlink:href="#linearGradient3593"/><radialGradient id="radialGradient3949" cx="93.128" cy="47.935" r="19.571" fx="93.128" fy="47.935" gradientTransform="matrix(-2.9923907e-2,-0.4114445,0.8683018,-8.8076009e-2,-69.632419,100.15584)" gradientUnits="userSpaceOnUse" xlink:href="#linearGradient3864"/><radialGradient id="radialGradient3953" cx="93.128" cy="47.935" r="19.571" fx="93.128" fy="47.935" gradientTransform="matrix(-2.9923907e-2,-0.4114445,0.8683018,-8.8076009e-2,-66.032603,103.75566)" gradientUnits="userSpaceOnUse" xlink:href="#linearGradient3864"/><radialGradient id="radialGradient3958" cx="93.128" cy="47.935" r="19.571" fx="93.128" fy="47.935" gradientTransform="matrix(-2.9923907e-2,-0.4114445,0.8683018,-8.8076009e-2,-69.632419,100.15584)" gradientUnits="userSpaceOnUse" xlink:href="#linearGradient3864"/><radialGradient id="radialGradient3963" cx="93.128" cy="47.935" r="19.571" fx="93.128" fy="47.935" gradientTransform="matrix(-2.6911746e-2,-0.3700282,0.7808979,-7.9210216e-2,-62.599387,90.09532)" gradientUnits="userSpaceOnUse" xlink:href="#linearGradient3864"/><radialGradient id="radialGradient3967" cx="93.128" cy="47.935" r="19.571" fx="93.128" fy="47.935" gradientTransform="matrix(-2.9923907e-2,-0.4114445,0.8683018,-8.8076009e-2,-69.632419,100.15584)" gradientUnits="userSpaceOnUse" xlink:href="#linearGradient3864"/><radialGradient id="radialGradient3972" cx="93.128" cy="47.935" r="19.571" fx="93.128" fy="47.935" gradientTransform="matrix(-2.6911746e-2,-0.3700282,0.7808979,-7.9210216e-2,-62.599387,90.09532)" gradientUnits="userSpaceOnUse" xlink:href="#linearGradient3864"/><radialGradient id="radialGradient3977" cx="93.128" cy="47.935" r="19.571" fx="93.128" fy="47.935" gradientTransform="matrix(2.49373e-2,-0.4117768,0.8723106,2.7922076e-2,-78.180197,84.568149)" gradientUnits="userSpaceOnUse" xlink:href="#linearGradient3864"/><radialGradient id="radialGradient3979" cx="93.128" cy="47.935" r="19.571" fx="93.128" fy="47.935" gradientTransform="matrix(-2.6911746e-2,-0.3700282,0.7808979,-7.9210216e-2,-62.599387,90.09532)" gradientUnits="userSpaceOnUse" xlink:href="#linearGradient3864"/><linearGradient id="linearGradient3802" x1="18.365" x2="15.981" y1="40.034" y2="10.809" gradientUnits="userSpaceOnUse" xlink:href="#linearGradient3796"/><linearGradient id="linearGradient3846" x1="55.512" x2="46.665" y1="39.156" y2="9.608" gradientUnits="userSpaceOnUse" xlink:href="#linearGradient3840"/></defs><metadata id="metadata2747"/><g id="layer1"><path id="path3989" fill="#729fcf" fill-opacity="1" fill-rule="evenodd" stroke="#0b1521" stroke-dasharray="none" stroke-dashoffset="0" stroke-linecap="butt" stroke-linejoin="round" stroke-miterlimit="4" stroke-opacity="1" stroke-width="2" d="M 32.990769,3.0999999 C 16.449997,3.353826 3.1000001,16.206544 3.1000002,32 c 0,15.951987 13.6124768,28.899999 30.3830868,28.9 7.441494,0 14.232363,-2.560259 19.516914,-6.790162 L 41.219521,41.432639 c -2.135089,1.585107 -4.820462,2.54213 -7.736434,2.54213 C 26.53439,43.974768 20.893798,38.609509 20.893798,32 c -1e-6,-6.486455 5.432419,-11.746659 12.202467,-11.941319 L 32.990769,3.0999999 z" color="#000" display="inline" enable-background="accumulate" overflow="visible" visibility="visible" style="marker:none"/><path id="path3947" fill="url(#linearGradient3802)" fill-opacity="1" fill-rule="evenodd" stroke="#0b1521" stroke-dasharray="none" stroke-dashoffset="0" stroke-linecap="butt" stroke-linejoin="round" stroke-miterlimit="4" stroke-opacity="1" stroke-width="2" d="M 32.991887,3.0000004 C 16.450496,3.2560203 3.0999999,16.219831 3.1,32.149797 3.1,40.324912 6.6213256,47.704882 12.278567,53 L 23.918821,40.010796 c -1.884095,-2.111526 -3.024358,-4.865994 -3.024358,-7.860999 -10e-7,-6.542521 5.432622,-11.848192 12.202925,-12.044534 L 32.991887,3.0000004 z" display="inline" enable-background="accumulate" overflow="visible" visibility="visible" style="marker:none"/><path id="path3961" fill="url(#linearGradient3846)" fill-opacity="1" fill-rule="evenodd" stroke="#0b1521" stroke-dasharray="none" stroke-dashoffset="0" stroke-linecap="butt" stroke-linejoin="round" stroke-miterlimit="4" stroke-opacity="1" stroke-width="1.979" d="m 43,7 -0.431054,16.922903 5.695727,-4.403548 c 3.200882,2.979806 4.68243,6.620272 4.563577,9.937358 C 52.708019,32.812243 52.323648,37.062439 49,41 l 6,6 c 3.250376,-4.502503 6.078739,-9.900936 6.00859,-15.708229 -0.07601,-6.292925 -2.410211,-12.055168 -6.297819,-16.680883 l 5.174381,-3.956387 z" display="inline" enable-background="accumulate" overflow="visible" visibility="visible" style="marker:none"/><path id="path3993" fill="#729fcf" fill-opacity="1" fill-rule="evenodd" stroke="#0b1521" stroke-dasharray="none" stroke-dashoffset="0" stroke-linecap="butt" stroke-linejoin="miter" stroke-miterlimit="4" stroke-opacity="1" stroke-width="1.125" d="m 35.869598,32.823021 a 2.2498853,2.2498853 0 1 1 -4.49977,0 2.2498853,2.2498853 0 1 1 4.49977,0 z" display="inline" enable-background="accumulate" overflow="visible" transform="matrix(1.7778679,0,0,1.7778684,-26.771406,-26.355013)" visibility="visible" style="marker:none"/><path id="path3947-3" fill="none" stroke="#729fcf" stroke-dasharray="none" stroke-dashoffset="0" stroke-linecap="butt" stroke-linejoin="miter" stroke-miterlimit="4" stroke-opacity="1" stroke-width="2" d="M 30.908558,5 C 19,5 5,17 5,31.817813 5,39.338919 9,47 12,50 L 21.327268,39.953247 C 19.974759,38.010643 18.392216,34.579227 19,30 19.52629,26.034774 23.064948,19.823352 31,18.280516 z" display="inline" enable-background="accumulate" overflow="visible" visibility="visible" style="marker:none"/><path id="path3993-6" fill="#3465a4" fill-opacity="1" fill-rule="evenodd" stroke="#729fcf" stroke-dasharray="none" stroke-dashoffset="0" stroke-linecap="butt" stroke-linejoin="miter" stroke-miterlimit="4" stroke-opacity="1" stroke-width="2.25" d="m 35.869598,32.823021 a 2.2498853,2.2498853 0 1 1 -4.49977,0 2.2498853,2.2498853 0 1 1 4.49977,0 z" display="inline" enable-background="accumulate" overflow="visible" transform="matrix(0.88893439,0,0,0.88893414,3.1142806,2.8224961)" visibility="visible" style="marker:none"/><path id="path3961-7" fill="none" stroke="#729fcf" stroke-dasharray="none" stroke-dashoffset="0" stroke-linecap="butt" stroke-linejoin="miter" stroke-miterlimit="4" stroke-opacity="1" stroke-width="1.979" d="m 44.9,9.4 -0.3,10.7 3.829768,-3.06365 c 2.738055,3.012865 6.074346,7.153777 6.2727,10.971877 0.174201,3.353161 -0.271415,8.459148 -3.132236,12.7273 l 3.165295,3.198355 C 57.126367,40.257856 58.867733,36.80621 59,31 59.155404,24.17813 55.956194,18.79101 52.068586,14.165295 L 55.4,11.6 z" display="inline" enable-background="accumulate" overflow="visible" visibility="visible" style="marker:none"/></g></svg>