<svg xmlns="http://www.w3.org/2000/svg" xmlns:svg="http://www.w3.org/2000/svg" xmlns:xlink="http://www.w3.org/1999/xlink" id="svg2568" width="64" height="64" version="1.1"><defs id="defs2570"><linearGradient id="linearGradient3864"><stop id="stop3866" offset="0" stop-color="#71b2f8" stop-opacity="1"/><stop id="stop3868" offset="1" stop-color="#002795" stop-opacity="1"/></linearGradient><linearGradient id="linearGradient3593"><stop id="stop3595" offset="0" stop-color="#c8e0f9" stop-opacity="1"/><stop id="stop3597" offset="1" stop-color="#637dca" stop-opacity="1"/></linearGradient><radialGradient id="radialGradient3090" cx="56.832" cy="30.181" r="19.571" fx="56.832" fy="30.181" gradientTransform="matrix(-0.51094884,-0.61313857,0.25133659,-0.20944716,57.452467,81.167084)" gradientUnits="userSpaceOnUse" xlink:href="#linearGradient3143"/><linearGradient id="linearGradient3143"><stop id="stop3145" offset="0" stop-color="#3465a4" stop-opacity="1"/><stop id="stop3147" offset="1" stop-color="#729fcf" stop-opacity="1"/></linearGradient><linearGradient id="linearGradient3143-7"><stop id="stop3145-0" offset="0" stop-color="#729fcf" stop-opacity="1"/><stop id="stop3147-9" offset="1" stop-color="#204a87" stop-opacity="1"/></linearGradient><radialGradient id="radialGradient3090-3" cx="46.534" cy="26.282" r="19.571" fx="46.534" fy="26.282" gradientTransform="matrix(1.1486088,1.8477617,-3.056673,1.900094,73.257745,-112.1016)" gradientUnits="userSpaceOnUse" xlink:href="#linearGradient3143-6"/><linearGradient id="linearGradient3143-6"><stop id="stop3145-7" offset="0" stop-color="#fff" stop-opacity="1"/><stop id="stop3147-5" offset="1" stop-color="#d3d7cf" stop-opacity="1"/></linearGradient><radialGradient id="radialGradient3017" cx="46.534" cy="26.282" r="19.571" fx="46.534" fy="26.282" gradientTransform="matrix(1.1486088,1.8477617,-3.056673,1.900094,73.257745,-112.1016)" gradientUnits="userSpaceOnUse" xlink:href="#linearGradient3143-6"/><radialGradient id="radialGradient3090-5" cx="46.534" cy="26.282" r="19.571" fx="46.534" fy="26.282" gradientTransform="matrix(1.1486088,1.8477617,-3.056673,1.900094,73.257745,-112.1016)" gradientUnits="userSpaceOnUse" xlink:href="#linearGradient3143-62"/><linearGradient id="linearGradient3143-62"><stop id="stop3145-9" offset="0" stop-color="#fff" stop-opacity="1"/><stop id="stop3147-1" offset="1" stop-color="#d3d7cf" stop-opacity="1"/></linearGradient><radialGradient id="radialGradient3017-2" cx="46.534" cy="26.282" r="19.571" fx="46.534" fy="26.282" gradientTransform="matrix(1.1486088,1.8477617,-3.056673,1.900094,73.257745,-112.1016)" gradientUnits="userSpaceOnUse" xlink:href="#linearGradient3143-62"/></defs><metadata id="metadata2573"/><g id="layer1"><g id="g3560" transform="matrix(0.91273618,0,0,0.90349515,105.85374,2.800363)"><path id="path3550-3-7" fill="url(#radialGradient3017-2)" fill-opacity="1" fill-rule="evenodd" stroke="#2e3436" stroke-dasharray="none" stroke-dashoffset="0" stroke-linecap="butt" stroke-linejoin="miter" stroke-miterlimit="4" stroke-opacity="1" stroke-width="1.953" d="m 71.785715,34.571426 a 18.571428,18.571428 0 1 1 -37.142856,0 18.571428,18.571428 0 1 1 37.142856,0 z" display="inline" enable-background="accumulate" overflow="visible" transform="matrix(1.1209221,0,0,1.1323546,-151.52039,2.02592)" visibility="visible" style="marker:none"/><path id="path3550-3-3" fill="url(#radialGradient3017)" fill-opacity="1" fill-rule="evenodd" stroke="#2e3436" stroke-dasharray="none" stroke-dashoffset="0" stroke-linecap="butt" stroke-linejoin="miter" stroke-miterlimit="4" stroke-opacity="1" stroke-width="1.953" d="m 71.785715,34.571426 a 18.571428,18.571428 0 1 1 -37.142856,0 18.571428,18.571428 0 1 1 37.142856,0 z" display="inline" enable-background="accumulate" overflow="visible" transform="matrix(1.1209541,0,0,1.1324194,-131.80058,-13.472896)" visibility="visible" style="marker:none"/><path id="path3550-3" fill="url(#radialGradient3090)" fill-opacity="1" fill-rule="evenodd" stroke="#0b1521" stroke-dasharray="none" stroke-dashoffset="0" stroke-linecap="butt" stroke-linejoin="miter" stroke-miterlimit="4" stroke-opacity="1" stroke-width="1.998" d="M 22 21 C 21.883396 21 21.772354 21.029158 21.65625 21.03125 C 21.228852 22.614131 21 24.282004 21 26 C 21 36.49401 29.505991 45 40 45 C 40.116604 45 40.227646 44.970842 40.34375 44.96875 C 40.771148 43.385869 41 41.717996 41 40 C 41 29.50599 32.494009 21 22 21 z" display="inline" enable-background="accumulate" overflow="visible" transform="matrix(1.0956068,0,0,1.1068128,-115.97408,-3.0994776)" visibility="visible" style="marker:none"/><path id="path3550-3-1" fill="none" stroke="#729fcf" stroke-dasharray="none" stroke-dashoffset="0" stroke-linecap="butt" stroke-linejoin="miter" stroke-miterlimit="4" stroke-opacity="1" stroke-width="1.998" d="M 23.28125 23.0625 C 23.115498 24.015468 23 24.999615 23 26 C 23 34.959899 29.925717 42.284587 38.71875 42.9375 C 38.884502 41.984532 39 41.000385 39 40 C 39 31.040101 32.074283 23.715413 23.28125 23.0625 z" display="inline" enable-background="accumulate" overflow="visible" transform="matrix(1.0956068,0,0,1.1068128,-115.97408,-3.0994776)" visibility="visible" style="marker:none"/></g></g></svg>