<svg xmlns="http://www.w3.org/2000/svg" xmlns:svg="http://www.w3.org/2000/svg" xmlns:xlink="http://www.w3.org/1999/xlink" id="svg2568" width="64" height="64" version="1.1"><defs id="defs2570"><linearGradient id="linearGradient3805"><stop id="stop3807" offset="0" stop-color="#3465a4" stop-opacity="1"/><stop id="stop3809" offset="1" stop-color="#3465a4" stop-opacity="0"/></linearGradient><linearGradient id="linearGradient3864"><stop id="stop3866" offset="0" stop-color="#71b2f8" stop-opacity="1"/><stop id="stop3868" offset="1" stop-color="#002795" stop-opacity="1"/></linearGradient><linearGradient id="linearGradient3593"><stop id="stop3595" offset="0" stop-color="#c8e0f9" stop-opacity="1"/><stop id="stop3597" offset="1" stop-color="#637dca" stop-opacity="1"/></linearGradient><radialGradient id="radialGradient3090" cx="46.534" cy="26.282" r="19.571" fx="46.534" fy="26.282" gradientTransform="matrix(1.1486088,1.8477617,-3.056673,1.900094,73.257745,-112.1016)" gradientUnits="userSpaceOnUse" xlink:href="#linearGradient3143"/><linearGradient id="linearGradient3143"><stop id="stop3145" offset="0" stop-color="#729fcf" stop-opacity="1"/><stop id="stop3147" offset="1" stop-color="#3465a4" stop-opacity="1"/></linearGradient><radialGradient id="radialGradient3165" cx="48.646" cy="25.149" r="19.571" fx="48.646" fy="25.149" gradientTransform="matrix(0.63294029,0.93089132,-0.82695376,0.56227002,38.653022,-34.275496)" gradientUnits="userSpaceOnUse" xlink:href="#linearGradient3143-7"/><linearGradient id="linearGradient3143-7"><stop id="stop3145-0" offset="0" stop-color="#729fcf" stop-opacity="1"/><stop id="stop3147-9" offset="1" stop-color="#204a87" stop-opacity="1"/></linearGradient><radialGradient id="radialGradient3023" cx="46.534" cy="26.282" r="19.571" fx="46.534" fy="26.282" gradientTransform="matrix(1.1751823,1.8905104,-3.1273904,1.9440534,60.507183,-124.06637)" gradientUnits="userSpaceOnUse" xlink:href="#linearGradient3143"/><radialGradient id="radialGradient3811" cx="22.626" cy="32.827" r="13" fx="22.626" fy="32.827" gradientTransform="matrix(0.22188004,-0.16641004,0.69230766,0.92307688,3.2536872,7.463585)" gradientUnits="userSpaceOnUse" xlink:href="#linearGradient3805"/></defs><metadata id="metadata2573"/><g id="layer1"><path id="path3550-3" fill="url(#radialGradient3023)" fill-opacity="1" fill-rule="evenodd" stroke="#0b1521" stroke-dasharray="none" stroke-dashoffset="0" stroke-linecap="butt" stroke-linejoin="miter" stroke-miterlimit="4" stroke-opacity="1" stroke-width="1.998" d="M 40 7 C 31.223986 7 23.839523 12.945441 21.65625 21.03125 C 11.323305 21.217406 3 29.622594 3 40 C 3 50.49401 11.50599 59 22 59 C 30.776014 59 38.160477 53.054559 40.34375 44.96875 C 50.676695 44.782594 59 36.377406 59 26 C 59 15.50599 50.49401 7 40 7 z" display="inline" enable-background="accumulate" overflow="visible" visibility="visible" style="marker:none"/><path id="path3027" fill="none" stroke="url(#radialGradient3811)" stroke-linecap="butt" stroke-linejoin="miter" stroke-opacity="1" stroke-width="10" d="m 21,25 c 5.79937,2.615469 10.296259,7.638903 16,20"/><path id="path3550-3-1" fill="none" stroke="#729fcf" stroke-dasharray="none" stroke-dashoffset="0" stroke-linecap="butt" stroke-linejoin="miter" stroke-miterlimit="4" stroke-opacity="1" stroke-width="1.998" d="M 40 9 C 31.610943 9 24.671219 15.071076 23.28125 23.0625 C 22.859709 23.031199 22.429541 23 22 23 C 12.610558 23 5 30.61056 5 40 C 5 49.38944 12.610558 57 22 57 C 30.389057 57 37.328781 50.928924 38.71875 42.9375 C 39.140291 42.968801 39.570459 43 40 43 C 49.389442 43 57 35.38944 57 26 C 57 16.61056 49.389442 9 40 9 z" display="inline" enable-background="accumulate" overflow="visible" visibility="visible" style="marker:none"/></g></svg>