<svg xmlns="http://www.w3.org/2000/svg" xmlns:svg="http://www.w3.org/2000/svg" xmlns:xlink="http://www.w3.org/1999/xlink" id="svg2821" width="64" height="64" version="1.1"><defs id="defs2823"><linearGradient id="linearGradient3801"><stop id="stop3803" offset="0" stop-color="#c4a000" stop-opacity="1"/><stop id="stop3805" offset="1" stop-color="#fce94f" stop-opacity="1"/></linearGradient><radialGradient id="radialGradient3701" cx="84.883" cy="77.043" r="19.467" fx="84.883" fy="77.043" gradientTransform="matrix(2.8492421,1.2585119,-0.4040415,0.9147407,-125.84131,-100.25805)" gradientUnits="userSpaceOnUse" xlink:href="#linearGradient3377"/><linearGradient id="linearGradient3377"><stop id="stop3379" offset="0" stop-color="#faff2b" stop-opacity="1"/><stop id="stop3381" offset="1" stop-color="#fa0" stop-opacity="1"/></linearGradient><radialGradient id="radialGradient3699" cx="76.383" cy="94.37" r="19.467" fx="76.383" fy="94.37" gradientTransform="matrix(0.9818943,0.1894295,-0.4109427,2.1300924,40.163453,-121.11559)" gradientUnits="userSpaceOnUse" xlink:href="#linearGradient3377"/><linearGradient id="linearGradient3807" x1="110" x2="85" y1="35" y2="35" gradientTransform="translate(-62,0)" gradientUnits="userSpaceOnUse" spreadMethod="reflect" xlink:href="#linearGradient3801"/><linearGradient id="linearGradient3807-7" x1="110" x2="85" y1="35" y2="35" gradientTransform="translate(-62,-16)" gradientUnits="userSpaceOnUse" spreadMethod="reflect" xlink:href="#linearGradient3801-5"/><linearGradient id="linearGradient3801-5"><stop id="stop3803-3" offset="0" stop-color="#c4a000" stop-opacity="1"/><stop id="stop3805-5" offset="1" stop-color="#fce94f" stop-opacity="1"/></linearGradient></defs><metadata id="metadata2826"/><g id="layer1"><path id="path2994-3" fill="#fce94f" stroke="#302b00" stroke-dashoffset="20.4" stroke-linecap="round" stroke-linejoin="round" stroke-miterlimit="4.5" stroke-opacity="1" stroke-width="2" d="m 55.000001,53 c 0,4.418278 -10.745166,8 -24,8 C 17.745168,61 7.000002,57.418278 7.000002,53 L 7,11 54.999999,11 z"/><path id="path2994-3-6" fill="url(#linearGradient3807)" fill-opacity="1" stroke="#fce94f" stroke-dashoffset="20.4" stroke-linecap="round" stroke-linejoin="round" stroke-miterlimit="4.5" stroke-opacity="1" stroke-width="2" d="M 53,51.727273 C 53,55.743889 43.15027,59 31,59 18.849736,59 9.000001,55.743889 9.000001,51.727273 l -2e-6,-38 44.000001,0 z"/><path id="path2994-3-6-9" fill="none" stroke="#fce94f" stroke-dashoffset="20.4" stroke-linecap="round" stroke-linejoin="round" stroke-miterlimit="4.5" stroke-opacity="1" stroke-width="2" d="M 53,15.727273 C 51,19 43.15027,21 31,21 18.849736,21 12,19 9.000001,15.727273"/><path id="path2994" fill="#fce94f" stroke="#302b00" stroke-dasharray="none" stroke-dashoffset="20.4" stroke-linecap="round" stroke-linejoin="round" stroke-miterlimit="4.5" stroke-opacity="1" stroke-width="1.75" d="m -14,25 a 21,7 0 1 1 -42,0 21,7 0 1 1 42,0 z" transform="matrix(1.1428571,0,0,1.1428571,71,-17.571428)"/></g></svg>