<svg xmlns="http://www.w3.org/2000/svg" xmlns:svg="http://www.w3.org/2000/svg" xmlns:xlink="http://www.w3.org/1999/xlink" id="svg2568" width="64" height="64" version="1.1"><defs id="defs2570"><linearGradient id="linearGradient3864"><stop id="stop3866" offset="0" stop-color="#71b2f8" stop-opacity="1"/><stop id="stop3868" offset="1" stop-color="#002795" stop-opacity="1"/></linearGradient><linearGradient id="linearGradient3377"><stop id="stop3379" offset="0" stop-color="#71b2f8" stop-opacity="1"/><stop id="stop3381" offset="1" stop-color="#002795" stop-opacity="1"/></linearGradient><linearGradient id="linearGradient3023"><stop id="stop3025" offset="0" stop-color="#71b2f8" stop-opacity="1"/><stop id="stop3027" offset="1" stop-color="#002795" stop-opacity="1"/></linearGradient><radialGradient id="radialGradient3692" cx="45.883" cy="28.87" r="19.467" fx="45.883" fy="28.87" gradientUnits="userSpaceOnUse" xlink:href="#linearGradient3377"/><linearGradient id="linearGradient3030"><stop id="stop3032" offset="0" stop-color="#71b2f8" stop-opacity="1"/><stop id="stop3034" offset="1" stop-color="#002795" stop-opacity="1"/></linearGradient><radialGradient id="radialGradient3837" cx="148.883" cy="81.87" r="19.467" fx="148.883" fy="81.87" gradientTransform="matrix(0.98773287,-0.06324662,0.02642229,1.230404,-216.68819,-80.013158)" gradientUnits="userSpaceOnUse" xlink:href="#linearGradient3377"/><radialGradient id="radialGradient3839" cx="135.383" cy="97.37" r="19.467" fx="135.383" fy="97.37" gradientTransform="matrix(0.69474204,0.27707782,-0.32964185,2.4645588,-139.05338,-247.09727)" gradientUnits="userSpaceOnUse" xlink:href="#linearGradient3377"/><radialGradient id="radialGradient3841" cx="45.883" cy="28.87" r="19.467" fx="45.883" fy="28.87" gradientTransform="matrix(0.71303129,0,0,1.2312496,-173.62652,-89.498759)" gradientUnits="userSpaceOnUse" xlink:href="#linearGradient3377"/><radialGradient id="radialGradient3804" cx="148.883" cy="81.87" r="19.467" fx="148.883" fy="81.87" gradientTransform="matrix(0.98773287,-0.06324662,0.02642229,1.230404,-216.68819,-80.013158)" gradientUnits="userSpaceOnUse" xlink:href="#linearGradient3377"/><radialGradient id="radialGradient3806" cx="135.383" cy="97.37" r="19.467" fx="135.383" fy="97.37" gradientTransform="matrix(0.69474204,0.27707782,-0.32964185,2.4645588,-139.05338,-247.09727)" gradientUnits="userSpaceOnUse" xlink:href="#linearGradient3377"/><radialGradient id="radialGradient3808" cx="45.883" cy="28.87" r="19.467" fx="45.883" fy="28.87" gradientTransform="matrix(0.71303129,0,0,1.2312496,-173.62652,-89.498759)" gradientUnits="userSpaceOnUse" xlink:href="#linearGradient3377"/><linearGradient id="linearGradient4293" x1="25.56" x2="31.478" y1="48.404" y2="52.711" gradientUnits="userSpaceOnUse" xlink:href="#linearGradient4287"/><linearGradient id="linearGradient4287"><stop id="stop4289" offset="0" stop-color="#f87c71" stop-opacity="1"/><stop id="stop4291" offset="1" stop-color="red" stop-opacity="1"/></linearGradient><radialGradient id="radialGradient4285" cx="112.772" cy="66.256" r="19.467" fx="112.772" fy="66.256" gradientTransform="matrix(-0.54355955,-0.69959567,1.0924249,-0.61410558,95.667642,203.16161)" gradientUnits="userSpaceOnUse" xlink:href="#linearGradient4287"/><linearGradient id="linearGradient3101"><stop id="stop3103" offset="0" stop-color="#f87c71" stop-opacity="1"/><stop id="stop3105" offset="1" stop-color="red" stop-opacity="1"/></linearGradient><radialGradient id="radialGradient3098" cx="148.883" cy="81.87" r="19.467" fx="148.883" fy="81.87" gradientTransform="matrix(0.98773287,-0.06324662,0.02642229,1.230404,-216.68819,-80.013158)" gradientUnits="userSpaceOnUse" xlink:href="#linearGradient3377"/><radialGradient id="radialGradient3100" cx="135.383" cy="97.37" r="19.467" fx="135.383" fy="97.37" gradientTransform="matrix(0.69474204,0.27707782,-0.32964185,2.4645588,-139.05338,-247.09727)" gradientUnits="userSpaceOnUse" xlink:href="#linearGradient3377"/><radialGradient id="radialGradient3102" cx="45.883" cy="28.87" r="19.467" fx="45.883" fy="28.87" gradientTransform="matrix(0.71303129,0,0,1.2312496,-173.62652,-89.498759)" gradientUnits="userSpaceOnUse" xlink:href="#linearGradient3377"/><filter id="filter3842"><feGaussianBlur id="feGaussianBlur3844" stdDeviation=".425"/></filter><linearGradient id="linearGradient4000-2" x1="62" x2="52" y1="34" y2="34" gradientTransform="matrix(0.87648555,0,0,1.1068128,0.81760416,1.3277733)" gradientUnits="userSpaceOnUse" spreadMethod="reflect" xlink:href="#linearGradient3994-3"/><linearGradient id="linearGradient3994-3"><stop id="stop3996-7" offset="0" stop-color="#a40000" stop-opacity="1"/><stop id="stop3998-5" offset="1" stop-color="#ef2929" stop-opacity="1"/></linearGradient><linearGradient id="linearGradient3783" x1="53.897" x2="47.502" y1="51.18" y2="21.837" gradientTransform="translate(0,-4)" gradientUnits="userSpaceOnUse" xlink:href="#linearGradient3777"/><linearGradient id="linearGradient3777"><stop id="stop3779" offset="0" stop-color="#204a87" stop-opacity="1"/><stop id="stop3781" offset="1" stop-color="#3465a4" stop-opacity="1"/></linearGradient><linearGradient id="linearGradient3773" x1="22.117" x2="17.329" y1="55.718" y2="21.311" gradientTransform="translate(0,-4)" gradientUnits="userSpaceOnUse" xlink:href="#linearGradient3767"/><linearGradient id="linearGradient3767"><stop id="stop3769" offset="0" stop-color="#3465a4" stop-opacity="1"/><stop id="stop3771" offset="1" stop-color="#729fcf" stop-opacity="1"/></linearGradient></defs><metadata id="metadata2573"/><g id="layer1"><g id="g3004" transform="matrix(0.69755245,0,0,0.69755245,6.0594406,2.1783216)"><path id="path2993" fill="#729fcf" stroke="#0b1521" stroke-linecap="butt" stroke-linejoin="round" stroke-opacity="1" stroke-width="2.867" d="M 3,13 37,19 61,11 31,7 z"/><path id="path2995" fill="url(#linearGradient3783)" fill-opacity="1" stroke="#0b1521" stroke-linecap="butt" stroke-linejoin="round" stroke-opacity="1" stroke-width="2.867" d="M 61,11 61,47 37,57 37,19 z"/><path id="path3825-8" fill="url(#linearGradient3773)" fill-opacity="1" fill-rule="evenodd" stroke="#0b1521" stroke-dasharray="none" stroke-dashoffset="0" stroke-linecap="butt" stroke-linejoin="round" stroke-miterlimit="4" stroke-opacity="1" stroke-width="2.867" d="M 3,13 37,19 37,57 3,51 z" display="inline" enable-background="accumulate" overflow="visible" visibility="visible" style="marker:none"/><path id="path3765" fill="none" stroke="#729fcf" stroke-linecap="butt" stroke-linejoin="miter" stroke-opacity="1" stroke-width="2.867" d="m 5,15.42772 0.00867,33.919116 30.008671,5.268799 -0.0087,-33.933614 z"/><path id="path3775" fill="none" stroke="#3465a4" stroke-linecap="butt" stroke-linejoin="miter" stroke-opacity="1" stroke-width="2.867" d="m 39.01243,20.433833 -0.01226,33.535301 20.001105,-8.300993 3.6e-4,-31.867363 z"/></g><g id="g3049" stroke-dasharray="none" stroke-miterlimit="4" stroke-width="2" transform="matrix(1.3087192,0,0,1.535691,-2.1562387,-33.976602)"><g id="g3827"><path id="path3045" fill="none" stroke="#fff" stroke-dasharray="none" stroke-linecap="round" stroke-linejoin="round" stroke-miterlimit="4" stroke-opacity=".857" stroke-width="4.938" d="m 10.351377,24.493827 -5.6980057,0 0,25.925926 5.6980057,0"/><path id="path3825" fill="none" stroke="#000" stroke-dasharray="none" stroke-linecap="round" stroke-linejoin="round" stroke-miterlimit="4" stroke-opacity="1" stroke-width="1.411" d="m 10.351377,24.493827 -5.6980057,0 0,25.925926 5.6980057,0"/></g><use id="use3831" width="64" height="64" x="0" y="0" transform="matrix(-1,0,0,1,46.557279,0)" xlink:href="#g3827"/></g><g id="g4095" transform="matrix(0.91273618,0,0,0.90349515,6.5354045,-0.91856045)"><path id="path3206" fill="url(#linearGradient4000-2)" fill-opacity="1" stroke="#280000" stroke-linecap="butt" stroke-linejoin="round" stroke-opacity="1" stroke-width="2.202" d="m 38.506483,33.425344 0,30.990759 c 0,0 1.752973,4.427251 9.641343,4.427251 7.88837,0 9.641339,-4.427251 9.641339,-4.427251 l 0,-30.990759 z"/><path id="path3206-6" fill="none" stroke="#ef2929" stroke-linecap="butt" stroke-linejoin="miter" stroke-opacity="1" stroke-width="2.202" d="m 40.697698,35.63897 0,28.223727 c 0,0 1.704278,2.767032 7.669251,2.767032 5.964972,0 7.669249,-2.767032 7.669249,-2.767032 l 0,-28.223727 z"/><path id="path3186" fill="#c00" fill-opacity="1" stroke="#280000" stroke-dasharray="none" stroke-dashoffset="6.8" stroke-linecap="round" stroke-linejoin="round" stroke-miterlimit="4" stroke-opacity="1" stroke-width="2.37" d="m 25.169065,29.033289 c 0,2.428978 -5.029918,4.398055 -11.234635,4.398055 -6.2047171,0 -11.2346343,-1.969077 -11.2346343,-4.398055 0,-2.428979 5.0299172,-4.398055 11.2346343,-4.398055 6.204717,0 11.234635,1.969076 11.234635,4.398055 z" transform="matrix(0.85818027,0,0,1.0066384,36.189573,4.1993198)"/><path id="path3186-0" fill="none" stroke="#ef2929" stroke-dasharray="none" stroke-dashoffset="6.8" stroke-linecap="round" stroke-linejoin="round" stroke-miterlimit="4" stroke-opacity="1" stroke-width="3.757" d="m 25.169065,29.033289 c 0,2.428978 -5.029918,4.398055 -11.234635,4.398055 -6.2047171,0 -11.2346343,-1.969077 -11.2346343,-4.398055 0,-2.428979 5.0299172,-4.398055 11.2346343,-4.398055 6.204717,0 11.234635,1.969076 11.234635,4.398055 z" transform="matrix(0.68264328,0,0,0.50331927,38.854701,18.812331)"/><path id="path4002" fill="none" stroke="#ef2929" stroke-linecap="butt" stroke-linejoin="miter" stroke-opacity="1" stroke-width="2.202" d="m 40.259454,38.516683 c 0,0 2.629455,1.549538 7.88837,1.549538 5.258915,0 7.88837,-1.549538 7.88837,-1.549538"/><path id="path4004" fill="none" stroke="#2e3436" stroke-linecap="round" stroke-linejoin="round" stroke-opacity="1" stroke-width="6" d="m 52.000002,28 c 0,0 -3.289969,-4.344762 -3,-8 0.289968,-3.655238 2,-5 2,-5" transform="matrix(1.0956068,0,0,1.1068128,-8.6046095,1.3277733)"/><path id="path4004-2" fill="none" stroke="#d3d7cf" stroke-linecap="round" stroke-linejoin="round" stroke-opacity="1" stroke-width="2.202" d="m 48.366947,32.318532 c 0,0 -3.604513,-4.808838 -3.286821,-8.854503 0.317691,-4.045664 2.191213,-5.534064 2.191213,-5.534064"/><path id="path4024" fill="none" stroke="#a40000" stroke-linecap="round" stroke-linejoin="miter" stroke-opacity="1" stroke-width="6.607" d="m 38.506483,17.929966 -4.382426,2.213625"/><path id="path4024-6" fill="none" stroke="#ef2929" stroke-linecap="round" stroke-linejoin="miter" stroke-opacity="1" stroke-width="2.202" d="m 38.506483,17.929966 -4.382426,2.213625"/><path id="path4024-1" fill="none" stroke="#a40000" stroke-linecap="round" stroke-linejoin="miter" stroke-opacity="1" stroke-width="6.607" d="M 58.227407,22.357217 53.84498,20.143591"/><path id="path4024-6-8" fill="none" stroke="#ef2929" stroke-linecap="round" stroke-linejoin="miter" stroke-opacity="1" stroke-width="2.202" d="M 58.227407,22.357217 53.84498,20.143591"/><path id="path4024-7" fill="none" stroke="#a40000" stroke-linecap="round" stroke-linejoin="miter" stroke-opacity="1" stroke-width="6.607" d="M 53.84498,6.8618373 51.653766,11.289089"/><path id="path4024-6-9" fill="none" stroke="#ef2929" stroke-linecap="round" stroke-linejoin="miter" stroke-opacity="1" stroke-width="2.202" d="M 53.84498,6.8618373 51.653766,11.289089"/><path id="path4024-7-2" fill="none" stroke="#a40000" stroke-linecap="round" stroke-linejoin="miter" stroke-opacity="1" stroke-width="6.607" d="m 40.697698,6.8618373 2.191214,4.4272517"/><path id="path4024-6-9-0" fill="none" stroke="#ef2929" stroke-linecap="round" stroke-linejoin="miter" stroke-opacity="1" stroke-width="2.202" d="m 40.697698,6.8618373 2.191214,4.4272517"/></g></g></svg>