<svg xmlns="http://www.w3.org/2000/svg" xmlns:svg="http://www.w3.org/2000/svg" xmlns:xlink="http://www.w3.org/1999/xlink" id="svg2860" width="64" height="64" version="1.1"><defs id="defs2862"><linearGradient id="linearGradient3814"><stop id="stop3816" offset="0" stop-color="#3465a4" stop-opacity="1"/><stop id="stop3818" offset="1" stop-color="#204a87" stop-opacity="1"/></linearGradient><linearGradient id="linearGradient3804"><stop id="stop3806" offset="0" stop-color="#729fcf" stop-opacity="1"/><stop id="stop3808" offset="1" stop-color="#3465a4" stop-opacity="1"/></linearGradient><radialGradient id="radialGradient3692" cx="45.883" cy="28.87" r="19.467" fx="45.883" fy="28.87" gradientUnits="userSpaceOnUse" xlink:href="#linearGradient3377"/><radialGradient id="radialGradient3703" cx="135.383" cy="97.37" r="19.467" fx="135.383" fy="97.37" gradientTransform="matrix(0.97435,0.2250379,-0.4623105,2.0016728,48.487554,-127.99883)" gradientUnits="userSpaceOnUse" xlink:href="#linearGradient3377"/><linearGradient id="linearGradient3377"><stop id="stop3379" offset="0" stop-color="#71b2f8" stop-opacity="1"/><stop id="stop3381" offset="1" stop-color="#002795" stop-opacity="1"/></linearGradient><radialGradient id="radialGradient3705" cx="148.883" cy="81.87" r="19.467" fx="148.883" fy="81.87" gradientTransform="matrix(1.3852588,-0.05136783,0.03705629,0.9993132,-60.392403,7.7040438)" gradientUnits="userSpaceOnUse" xlink:href="#linearGradient3377"/><linearGradient id="linearGradient3810" x1="-35" x2="-28" y1="14" y2="56" gradientUnits="userSpaceOnUse" xlink:href="#linearGradient3804"/><linearGradient id="linearGradient3820" x1="-16" x2="-13" y1="12" y2="52" gradientUnits="userSpaceOnUse" xlink:href="#linearGradient3814"/><linearGradient id="linearGradient3829" x1="-35" x2="-28" y1="14" y2="56" gradientTransform="translate(80,0)" gradientUnits="userSpaceOnUse" xlink:href="#linearGradient3804"/><linearGradient id="linearGradient3831" x1="-16" x2="-13" y1="12" y2="52" gradientTransform="translate(80,0)" gradientUnits="userSpaceOnUse" xlink:href="#linearGradient3814"/></defs><metadata id="metadata2865"/><g id="layer1"><g id="g3822" transform="translate(-20,0)"><path id="path3010" fill="#729fcf" stroke="#0b1521" stroke-linecap="butt" stroke-linejoin="round" stroke-opacity="1" stroke-width="2" d="M 49,3 37,11 61,13 71,5 z"/><path id="path3798" fill="#729fcf" stroke="#000" stroke-linecap="butt" stroke-linejoin="round" stroke-opacity="1" stroke-width="2" d="m 37,11 0,48 24,2 0,-48 z"/><path id="path3800" fill="#3465a4" stroke="#0b1521" stroke-linecap="butt" stroke-linejoin="round" stroke-opacity="1" stroke-width="2" d="m 71,5 0,48 -10,8 0,-48 z"/><path id="path3802" fill="url(#linearGradient3829)" fill-opacity="1" stroke="#729fcf" stroke-linecap="butt" stroke-linejoin="miter" stroke-opacity="1" stroke-width="2" d="m 39,13.1 0,44.1 20,1.7 0,-44.1 z"/><path id="path3812" fill="url(#linearGradient3831)" fill-opacity="1" stroke="#3465a4" stroke-linecap="butt" stroke-linejoin="miter" stroke-opacity="1" stroke-width="2" d="M 63,14 63,56.8 69,52 69,9.2 z"/><path id="path3010-6-7" fill="#ef2929" stroke="#a40000" stroke-linecap="butt" stroke-linejoin="round" stroke-opacity="1" stroke-width="2" d="M 73,36.15625 73,37 62,45 37,43 37,37.1875 23,47 65,51 81,37 73,36.15625 z"/><path id="path3010-6-7-5" fill="#ef2929" stroke="#a40000" stroke-linecap="butt" stroke-linejoin="round" stroke-opacity="1" stroke-width="2" d="M 73,18.15625 73,19 62,27 37,25 37,19.1875 23,29 65,33 81,19 73,18.15625 z"/></g></g></svg>