<svg xmlns="http://www.w3.org/2000/svg" xmlns:svg="http://www.w3.org/2000/svg" xmlns:xlink="http://www.w3.org/1999/xlink" id="svg2568" width="64" height="64" version="1.1"><defs id="defs2570"><linearGradient id="linearGradient3864"><stop id="stop3866" offset="0" stop-color="#71b2f8" stop-opacity="1"/><stop id="stop3868" offset="1" stop-color="#002795" stop-opacity="1"/></linearGradient><linearGradient id="linearGradient3593"><stop id="stop3595" offset="0" stop-color="#c8e0f9" stop-opacity="1"/><stop id="stop3597" offset="1" stop-color="#637dca" stop-opacity="1"/></linearGradient><radialGradient id="radialGradient3090" cx="46.534" cy="26.282" r="19.571" fx="46.534" fy="26.282" gradientTransform="matrix(1.1486088,1.8477617,-3.056673,1.900094,73.257745,-112.1016)" gradientUnits="userSpaceOnUse" xlink:href="#linearGradient3143"/><linearGradient id="linearGradient3143"><stop id="stop3145" offset="0" stop-color="#729fcf" stop-opacity="1"/><stop id="stop3147" offset="1" stop-color="#3465a4" stop-opacity="1"/></linearGradient><radialGradient id="radialGradient3165" cx="48.646" cy="25.149" r="19.571" fx="48.646" fy="25.149" gradientTransform="matrix(0.63294029,0.93089132,-0.82695376,0.56227002,38.653022,-34.275496)" gradientUnits="userSpaceOnUse" xlink:href="#linearGradient3143-7"/><linearGradient id="linearGradient3143-7"><stop id="stop3145-0" offset="0" stop-color="#729fcf" stop-opacity="1"/><stop id="stop3147-9" offset="1" stop-color="#204a87" stop-opacity="1"/></linearGradient><linearGradient id="linearGradient3143-6"><stop id="stop3145-7" offset="0" stop-color="#729fcf" stop-opacity="1"/><stop id="stop3147-5" offset="1" stop-color="#3465a4" stop-opacity="1"/></linearGradient><linearGradient id="linearGradient3143-7-5"><stop id="stop3145-0-6" offset="0" stop-color="#729fcf" stop-opacity="1"/><stop id="stop3147-9-2" offset="1" stop-color="#204a87" stop-opacity="1"/></linearGradient><linearGradient id="linearGradient3143-9"><stop id="stop3145-2" offset="0" stop-color="#729fcf" stop-opacity="1"/><stop id="stop3147-2" offset="1" stop-color="#3465a4" stop-opacity="1"/></linearGradient><linearGradient id="linearGradient3143-7-9"><stop id="stop3145-0-7" offset="0" stop-color="#729fcf" stop-opacity="1"/><stop id="stop3147-9-3" offset="1" stop-color="#204a87" stop-opacity="1"/></linearGradient><radialGradient id="radialGradient3090-7" cx="56.832" cy="30.181" r="19.571" fx="56.832" fy="30.181" gradientTransform="matrix(-0.51094884,-0.61313857,0.25133659,-0.20944716,57.452467,81.167084)" gradientUnits="userSpaceOnUse" xlink:href="#linearGradient3143-8"/><linearGradient id="linearGradient3143-8"><stop id="stop3145-4" offset="0" stop-color="#3465a4" stop-opacity="1"/><stop id="stop3147-50" offset="1" stop-color="#729fcf" stop-opacity="1"/></linearGradient><radialGradient id="radialGradient3876" cx="56.832" cy="30.181" r="19.571" fx="56.832" fy="30.181" gradientTransform="matrix(-0.51094884,-0.61313857,0.25133659,-0.20944716,57.452467,81.167084)" gradientUnits="userSpaceOnUse" xlink:href="#linearGradient3143-8"/><radialGradient id="radialGradient3150" cx="46.534" cy="26.282" r="19.571" fx="46.534" fy="26.282" gradientTransform="matrix(1.1751823,1.8905104,-3.1273904,1.9440534,62.508269,-128.06746)" gradientUnits="userSpaceOnUse" xlink:href="#linearGradient3143-9"/><radialGradient id="radialGradient3150-0" cx="46.534" cy="26.282" r="19.571" fx="46.534" fy="26.282" gradientTransform="matrix(1.1751823,1.8905104,-3.1273904,1.9440534,-13.492817,-124.06637)" gradientUnits="userSpaceOnUse" xlink:href="#linearGradient3143-9-6"/><linearGradient id="linearGradient3143-9-6"><stop id="stop3145-2-3" offset="0" stop-color="#729fcf" stop-opacity="1"/><stop id="stop3147-2-2" offset="1" stop-color="#3465a4" stop-opacity="1"/></linearGradient><radialGradient id="radialGradient3957" cx="46.534" cy="26.282" r="19.571" fx="46.534" fy="26.282" gradientTransform="matrix(1.1751823,1.8905104,-3.1273904,1.9440534,-47.492817,-92.06637)" gradientUnits="userSpaceOnUse" xlink:href="#linearGradient3143-9-6"/><radialGradient id="radialGradient3985" cx="57.211" cy="24.628" r="19.571" fx="57.211" fy="24.628" gradientTransform="matrix(-1.0218978,-1.021898,2.6038354,-2.6038348,-62.94508,186.55918)" gradientUnits="userSpaceOnUse" xlink:href="#linearGradient3143-9-6"/><radialGradient id="radialGradient3991" cx="56.832" cy="30.181" r="19.571" fx="56.832" fy="30.181" gradientTransform="matrix(-0.51094884,-0.61313857,0.25133659,-0.20944716,57.452467,81.167084)" gradientUnits="userSpaceOnUse" xlink:href="#linearGradient3143-8"/><radialGradient id="radialGradient3997" cx="46.534" cy="26.282" r="19.571" fx="46.534" fy="26.282" gradientTransform="matrix(1.1751823,1.8905104,-3.1273904,1.9440534,62.508269,-128.06746)" gradientUnits="userSpaceOnUse" xlink:href="#linearGradient3143-9"/><radialGradient id="radialGradient4002" cx="57.211" cy="24.628" r="19.571" fx="57.211" fy="24.628" gradientTransform="matrix(0.91962301,0.91962319,-2.3432352,2.3432347,15.548412,-73.789986)" gradientUnits="userSpaceOnUse" xlink:href="#linearGradient3143-9-6"/><radialGradient id="radialGradient4006" cx="46.534" cy="26.282" r="19.571" fx="46.534" fy="26.282" gradientTransform="matrix(1.0575638,1.701298,-2.8143845,1.7494822,62.357336,-112.94955)" gradientUnits="userSpaceOnUse" xlink:href="#linearGradient3143-9"/></defs><metadata id="metadata2573"/><g id="layer1"><path id="path3550-3-129" fill="url(#radialGradient4006)" fill-opacity="1" fill-rule="evenodd" stroke="#0b1521" stroke-dasharray="none" stroke-dashoffset="0" stroke-linecap="butt" stroke-linejoin="round" stroke-miterlimit="4" stroke-opacity="1" stroke-width="1.998" d="m 43.902621,4.999 c -7.891566,0 -14.4811,5.358976 -16.451564,12.626927 0.08618,-0.0013 0.166612,-0.02812 0.253101,-0.02812 1.180464,0 2.34592,0.10969 3.459047,0.337468 1.113126,0.227778 2.183076,0.579766 3.205945,1.012404 1.02287,0.432638 1.986909,0.960276 2.896601,1.574851 0.909691,0.614575 1.757416,1.307459 2.53101,2.081052 0.773593,0.773594 1.466477,1.621319 2.081052,2.53101 0.614576,0.909692 1.142214,1.873732 1.574851,2.896601 0.432638,1.022869 0.784626,2.092819 1.012404,3.205946 0.227778,1.113127 0.337468,2.278583 0.337468,3.459047 0,1.180464 -0.10969,2.34592 -0.337468,3.459047 -0.07171,0.35048 -0.216539,0.670092 -0.309346,1.012404 C 53.480008,39.029181 61.001,31.454603 61.001,22.097378 61.001,12.653665 53.346335,4.999 43.902621,4.999 z" display="inline" enable-background="accumulate" overflow="visible" visibility="visible" style="marker:none"/><path id="path3550-3-1-3" fill="none" stroke="#729fcf" stroke-dasharray="none" stroke-dashoffset="0" stroke-linecap="butt" stroke-linejoin="miter" stroke-miterlimit="4" stroke-opacity="1" stroke-width="1.998" d="m 43.874354,6.9989143 c -6.221521,0 -11.551869,3.7524627 -13.87544,9.1202147 0.537493,0.0623 1.090185,0.0599 1.612778,0.166833 1.216411,0.248912 2.413644,0.611639 3.531423,1.084416 1.11778,0.472778 2.175841,1.052348 3.169941,1.723944 0.9941,0.671595 1.907469,1.434688 2.752842,2.280053 0.845373,0.845366 1.608533,1.758656 2.280133,2.752748 0.6716,0.994091 1.251222,2.052061 1.724003,3.169831 0.47278,1.11777 0.83554,2.314903 1.084453,3.531303 0.248913,1.216401 0.38929,2.463762 0.38929,3.753747 0,0.831302 -0.145039,1.616489 -0.250259,2.419082 7.200835,-1.161368 12.707568,-7.347692 12.707568,-14.875962 0,-8.354508 -6.771934,-15.1262097 -15.126732,-15.1262097 z" display="inline" enable-background="accumulate" overflow="visible" visibility="visible" style="marker:none"/><g id="g3987" transform="matrix(0.80150354,0,0,0.8082895,7.1922309,4.6728381)"><path id="path3550-3-36" fill="url(#radialGradient3991)" fill-opacity="1" fill-rule="evenodd" stroke="#0b1521" stroke-dasharray="none" stroke-dashoffset="0" stroke-linecap="butt" stroke-linejoin="miter" stroke-miterlimit="4" stroke-opacity="1" stroke-width="2.482" d="m 22,21 c -0.1166,0 -0.22765,0.02916 -0.34375,0.03125 C 21.22885,22.614131 21,24.282004 21,26 c 0,10.49401 8.50599,19 19,19 0.1166,0 0.22765,-0.02916 0.34375,-0.03125 C 40.77115,43.385869 41,41.717996 41,40 41,29.50599 32.49401,21 22,21 z" display="inline" enable-background="accumulate" overflow="visible" visibility="visible" style="marker:none"/><path id="path3550-3-1-1" fill="none" stroke="#729fcf" stroke-dasharray="none" stroke-dashoffset="0" stroke-linecap="butt" stroke-linejoin="miter" stroke-miterlimit="4" stroke-opacity="1" stroke-width="2.482" d="m 23.72748,23.909844 c -0.155127,0.889936 -0.263225,1.808987 -0.263225,2.743203 0,8.367259 6.481855,15.207464 14.711346,15.817191 0.155127,-0.889934 0.263225,-1.808987 0.263225,-2.743203 0,-8.367258 -6.481856,-15.207464 -14.711346,-15.817191 z" display="inline" enable-background="accumulate" overflow="visible" visibility="visible" style="marker:none"/></g><path id="path3550-3-129-0" fill="url(#radialGradient4002)" fill-opacity="1" fill-rule="evenodd" stroke="#0b1521" stroke-dasharray="none" stroke-dashoffset="0" stroke-linecap="butt" stroke-linejoin="round" stroke-miterlimit="4" stroke-opacity="1" stroke-width="1.998" d="m 20.097419,59.001 c 7.891586,0 14.481135,-5.358988 16.451604,-12.626957 -0.08618,0.0013 -0.166613,0.02812 -0.253101,0.02812 -1.180467,0 -2.345926,-0.10969 -3.459056,-0.337469 C 31.723737,45.836915 30.653784,45.484926 29.630913,45.052288 28.608041,44.619649 27.643999,44.09201 26.734306,43.477433 25.824612,42.862857 24.976885,42.169971 24.20329,41.396376 23.429694,40.62278 22.736808,39.775053 22.122232,38.86536 21.507655,37.955666 20.980016,36.991624 20.547377,35.968753 20.114739,34.945881 19.76275,33.875929 19.534971,32.762799 c -0.227779,-1.11313 -0.337469,-2.278589 -0.337469,-3.459055 0,-1.180467 0.10969,-2.345926 0.337469,-3.459056 0.07172,-0.350481 0.21654,-0.670094 0.309346,-1.012406 -9.324308,0.138454 -16.8453173,7.71305 -16.8453173,17.070297 0,9.443736 7.6546833,17.098419 17.0984193,17.098419 z" display="inline" enable-background="accumulate" overflow="visible" visibility="visible" style="marker:none"/><path id="path3156-6" fill="none" stroke="#729fcf" stroke-dasharray="none" stroke-dashoffset="0" stroke-linecap="butt" stroke-linejoin="miter" stroke-miterlimit="4" stroke-opacity="1" stroke-width="1.998" d="m 17.65077,26.857097 c -0.106415,0.811738 -0.253101,1.605874 -0.253101,2.446649 0,1.304686 0.141971,2.566262 0.393713,3.796524 0.251742,1.230262 0.618622,2.441038 1.096774,3.571545 0.478152,1.130507 1.064358,2.200534 1.743589,3.205953 0.67923,1.00542 1.451059,1.929119 2.306037,2.784118 0.854977,0.854999 1.778724,1.626788 2.784117,2.306037 1.005394,0.679248 2.075476,1.265424 3.205954,1.743588 1.130478,0.478165 2.341313,0.845026 3.571545,1.096774 0.52853,0.108156 1.0875,0.105712 1.631099,0.168734" display="inline" enable-background="accumulate" overflow="visible" visibility="visible" style="marker:none"/><path id="path3550-3-1-3-1" fill="none" stroke="#729fcf" stroke-dasharray="none" stroke-dashoffset="0" stroke-linecap="butt" stroke-linejoin="miter" stroke-miterlimit="4" stroke-opacity="1" stroke-width="1.998" d="m 20.125646,57.001086 c 6.221521,0 11.55187,-3.752462 13.87544,-9.120216 -0.537493,-0.06231 -1.090184,-0.0599 -1.612777,-0.166833 -1.216412,-0.248911 -2.413645,-0.611639 -3.531424,-1.084416 -1.117779,-0.472776 -2.17584,-1.052348 -3.169941,-1.723942 -0.994099,-0.671596 -1.907469,-1.434689 -2.752842,-2.280055 -0.845374,-0.845365 -1.608533,-1.758656 -2.280133,-2.752748 -0.6716,-0.99409 -1.251222,-2.052061 -1.724002,-3.16983 -0.47278,-1.117769 -0.83554,-2.314903 -1.084453,-3.531303 -0.248914,-1.2164 -0.389291,-2.463761 -0.389291,-3.753746 0,-0.831303 0.145039,-1.61649 0.250258,-2.419083 -7.200833,1.161367 -12.7075667,7.347692 -12.7075667,14.875961 0,8.354509 6.7719337,15.126211 15.1267317,15.126211 z" display="inline" enable-background="accumulate" overflow="visible" visibility="visible" style="marker:none"/></g></svg>