<svg xmlns="http://www.w3.org/2000/svg" xmlns:svg="http://www.w3.org/2000/svg" xmlns:xlink="http://www.w3.org/1999/xlink" id="svg2327" width="64" height="64" version="1.1"><defs id="defs3"><linearGradient id="linearGradient3960"><stop id="stop3962" offset="0" stop-color="#8ae234" stop-opacity="1"/><stop id="stop3964" offset="1" stop-color="#4e9a06" stop-opacity="1"/></linearGradient><linearGradient id="linearGradient2269"><stop id="stop2271" offset="0" stop-color="#000" stop-opacity="1"/><stop id="stop2273" offset="1" stop-color="#000" stop-opacity="0"/></linearGradient><linearGradient id="linearGradient3099"><stop id="stop3101" offset="0" stop-color="#fff" stop-opacity="1"/><stop id="stop3103" offset="1" stop-color="#fff" stop-opacity="0"/></linearGradient><linearGradient id="linearGradient3078"><stop id="stop3080" offset="0" stop-color="#c4a000"/><stop id="stop3082" offset="1" stop-color="#fce94f"/></linearGradient><linearGradient id="linearGradient3084" x1="42.426" x2="32.35" y1="58.076" y2="16.357" gradientTransform="translate(50.864156,-20.272299)" gradientUnits="userSpaceOnUse" xlink:href="#linearGradient3078"/><linearGradient id="linearGradient2329"><stop id="stop2331" offset="0" stop-color="#fff" stop-opacity="1"/><stop id="stop2333" offset="1" stop-color="#fff" stop-opacity="0"/></linearGradient><linearGradient id="linearGradient2321"><stop id="stop2323" offset="0" stop-color="#7b7f7a" stop-opacity="1"/><stop id="stop2325" offset="1" stop-color="#7b7f7a" stop-opacity="0"/></linearGradient><linearGradient id="linearGradient2711"><stop id="stop2713" offset="0" stop-color="#909090" stop-opacity="1"/><stop id="stop2715" offset="1" stop-color="#bebebe" stop-opacity="0"/></linearGradient><linearGradient id="linearGradient2701"><stop id="stop2703" offset="0" stop-color="#585956" stop-opacity="1"/><stop id="stop2705" offset="1" stop-color="#bbbeb8" stop-opacity="1"/></linearGradient><linearGradient id="linearGradient2683"><stop id="stop2685" offset="0" stop-color="#000" stop-opacity="1"/><stop id="stop2687" offset="1" stop-color="#000" stop-opacity="0"/></linearGradient><linearGradient id="linearGradient2675"><stop id="stop2677" offset="0" stop-color="#5b5b97" stop-opacity="1"/><stop id="stop2679" offset="1" stop-color="#1b1b43" stop-opacity="1"/></linearGradient><linearGradient id="linearGradient2667"><stop id="stop2669" offset="0" stop-color="#fff" stop-opacity="1"/><stop id="stop2671" offset="1" stop-color="#fcfcff" stop-opacity="0"/></linearGradient><linearGradient id="linearGradient2454"><stop id="stop2456" offset="0" stop-color="#000" stop-opacity="1"/><stop id="stop2458" offset="1" stop-color="#000" stop-opacity="0"/></linearGradient><linearGradient id="linearGradient2415"><stop id="stop2417" offset="0" stop-color="#fff" stop-opacity="1"/><stop id="stop2419" offset="1" stop-color="#fff" stop-opacity="0"/></linearGradient><linearGradient id="linearGradient2253"><stop id="stop2255" offset="0" stop-color="#8f8f8f" stop-opacity="1"/><stop id="stop2257" offset="1" stop-color="#494949" stop-opacity="1"/></linearGradient><linearGradient id="linearGradient2245"><stop id="stop2247" offset="0" stop-color="#dde1d9" stop-opacity="1"/><stop id="stop2249" offset="1" stop-color="#cacdc6" stop-opacity="1"/></linearGradient><filter id="filter3547" width="1.446" height="3.506" x="-.223" y="-1.253" color-interpolation-filters="sRGB"><feGaussianBlur id="feGaussianBlur3549" stdDeviation="2.215"/></filter><radialGradient id="radialGradient3109" cx="12.576" cy="67.502" r="8.766" fx="12.576" fy="67.502" gradientTransform="scale(1.925808,0.519262)" gradientUnits="userSpaceOnUse" xlink:href="#linearGradient2454"/><linearGradient id="linearGradient3111" x1="-35.658" x2="-35.658" y1="33.416" y2="28.206" gradientUnits="userSpaceOnUse" xlink:href="#linearGradient2321"/><linearGradient id="linearGradient3113" x1="-35.123" x2="-35.075" y1="34.242" y2="30.962" gradientUnits="userSpaceOnUse" xlink:href="#linearGradient2329"/><linearGradient id="linearGradient3115" x1="12.207" x2="12.128" y1="53.535" y2="64.893" gradientTransform="matrix(1.816345,0,0,1.278927,2.5,-40.24508)" gradientUnits="userSpaceOnUse" xlink:href="#linearGradient2701"/><linearGradient id="linearGradient3117" x1="8.612" x2="34.784" y1="7.229" y2="33.34" gradientTransform="matrix(1.129863,0,0,0.885063,2.875,1.570628)" gradientUnits="userSpaceOnUse" xlink:href="#linearGradient2245"/><linearGradient id="linearGradient3119" x1="10.391" x2="32.537" y1="5.382" y2="31.246" gradientTransform="matrix(1.104397,0,0,0.905471,4.5,2.875)" gradientUnits="userSpaceOnUse" xlink:href="#linearGradient2253"/><linearGradient id="linearGradient3121" x1="19.15" x2="16.316" y1="32.622" y2="8.867" gradientTransform="matrix(1.174139,0,0,0.945431,5.221825,1.543476)" gradientUnits="userSpaceOnUse" xlink:href="#linearGradient2675"/><linearGradient id="linearGradient3123" x1="3.707" x2="3.707" y1="171.291" y2="162.451" gradientTransform="matrix(5.705159,0,0,0.17528,5.5,2.195627)" gradientUnits="userSpaceOnUse" xlink:href="#linearGradient2683"/><linearGradient id="linearGradient3125" x1="17.698" x2="34.975" y1="13.005" y2="55.201" gradientTransform="matrix(1.108069,0,0,0.902471,5.5,3.875)" gradientUnits="userSpaceOnUse" xlink:href="#linearGradient2415"/><linearGradient id="linearGradient3127" x1="11.492" x2="17.199" y1="1.654" y2="26.729" gradientTransform="matrix(1.238977,0,0,0.895955,5.090553,1.543476)" gradientUnits="userSpaceOnUse" xlink:href="#linearGradient2667"/><linearGradient id="linearGradient3129" x1="34.301" x2="35.521" y1="3.938" y2="3.845" gradientUnits="userSpaceOnUse" xlink:href="#linearGradient2711"/><linearGradient id="linearGradient3131" x1="34.301" x2="35.521" y1="3.938" y2="3.845" gradientUnits="userSpaceOnUse" xlink:href="#linearGradient2711"/><linearGradient id="linearGradient3133" x1="34.301" x2="35.521" y1="3.938" y2="3.845" gradientUnits="userSpaceOnUse" xlink:href="#linearGradient2711"/><linearGradient id="linearGradient3135" x1="34.301" x2="35.521" y1="3.938" y2="3.845" gradientUnits="userSpaceOnUse" xlink:href="#linearGradient2711"/><linearGradient id="linearGradient3137" x1="34.301" x2="35.521" y1="3.938" y2="3.845" gradientUnits="userSpaceOnUse" xlink:href="#linearGradient2711"/><radialGradient id="radialGradient3139" cx="25.188" cy="41.625" r="18.063" fx="25.188" fy="41.625" gradientTransform="matrix(1,0,0,0.32526,0,28.08607)" gradientUnits="userSpaceOnUse" xlink:href="#linearGradient2269"/><linearGradient id="linearGradient3141" x1="42.426" x2="32.35" y1="58.076" y2="16.357" gradientTransform="matrix(0.3640416,0,0,0.3341235,39.940316,5.8859777)" gradientUnits="userSpaceOnUse" xlink:href="#linearGradient3078"/><linearGradient id="linearGradient3143" x1="28.835" x2="52.132" y1="11.914" y2="70.073" gradientTransform="matrix(0.3640416,0,0,0.3341235,21.423647,12.659429)" gradientUnits="userSpaceOnUse" xlink:href="#linearGradient3099"/><linearGradient id="linearGradient3155" x1="28.835" x2="52.132" y1="11.914" y2="70.073" gradientTransform="matrix(0.53802833,0,0,0.47959543,27.638104,-1.667119)" gradientUnits="userSpaceOnUse" xlink:href="#linearGradient3099"/><linearGradient id="linearGradient3158" x1="42.426" x2="32.35" y1="58.076" y2="16.357" gradientTransform="matrix(0.53802833,0,0,0.47959543,55.004461,-11.389621)" gradientUnits="userSpaceOnUse" xlink:href="#linearGradient3078"/><linearGradient id="linearGradient3169" x1="11.492" x2="17.199" y1="1.654" y2="26.729" gradientTransform="matrix(1.8057669,0,0,1.2409827,4.1634661,-16.418451)" gradientUnits="userSpaceOnUse" xlink:href="#linearGradient2667"/><linearGradient id="linearGradient3172" x1="17.698" x2="34.975" y1="13.005" y2="55.201" gradientTransform="matrix(1.5885776,0,0,1.2588769,4.9401609,-13.32748)" gradientUnits="userSpaceOnUse" xlink:href="#linearGradient2415"/><linearGradient id="linearGradient3175" x1="3.707" x2="3.707" y1="171.291" y2="162.451" gradientTransform="matrix(8.4318308,0,0,0.25159405,4.1040543,-16.68669)" gradientUnits="userSpaceOnUse" xlink:href="#linearGradient2683"/><linearGradient id="linearGradient3178" x1="19.15" x2="16.316" y1="32.622" y2="8.867" gradientTransform="matrix(1.7435657,0,0,1.3294597,3.3669894,-16.927211)" gradientUnits="userSpaceOnUse" xlink:href="#linearGradient2675"/><linearGradient id="linearGradient3181" x1="8.612" x2="34.784" y1="7.229" y2="33.34" gradientTransform="matrix(1.6552334,0,0,1.281815,0.50280125,-17.344818)" gradientUnits="userSpaceOnUse" xlink:href="#linearGradient2245"/><linearGradient id="linearGradient3183" x1="10.391" x2="32.537" y1="5.382" y2="31.246" gradientTransform="matrix(1.6179261,0,0,1.3113715,2.8834035,-15.455727)" gradientUnits="userSpaceOnUse" xlink:href="#linearGradient2253"/><linearGradient id="linearGradient3186" x1="12.207" x2="12.128" y1="53.535" y2="64.893" gradientTransform="matrix(2.6844324,0,0,1.835751,-0.32973845,-77.605389)" gradientUnits="userSpaceOnUse" xlink:href="#linearGradient2701"/><linearGradient id="linearGradient3966" x1="30" x2="32" y1="-3" y2="10" gradientTransform="matrix(0.93922434,0,0,0.93066116,2.6206445,1.2040365)" gradientUnits="userSpaceOnUse" xlink:href="#linearGradient3960"/></defs><metadata id="metadata4"/><g id="layer1" transform="translate(0,16)"><path id="path2452" fill="url(#radialGradient3109)" fill-opacity="1" fill-rule="evenodd" stroke="none" stroke-width="1" d="m 41.10058,35.051105 c 0,2.514001 -7.558406,4.552001 -16.882173,4.552001 -9.323767,0 -16.8821739,-2.038 -16.8821739,-4.552001 0,-2.514 7.5584069,-4.552 16.8821739,-4.552 9.323767,0 16.882173,2.038 16.882173,4.552 z" color="#000" display="inline" opacity=".509" overflow="visible" transform="matrix(1.5521984,0,0,2.681136,-5.4220351,-60.181309)" visibility="visible" style="marker:none"/><path id="path2407" fill="#adb0aa" fill-opacity="1" fill-rule="evenodd" stroke="#4b4d4a" stroke-dashoffset="0" stroke-linecap="butt" stroke-linejoin="miter" stroke-miterlimit="4" stroke-opacity="1" stroke-width="1.373" d="m -26.263968,29.716238 c 0,2.175778 -4.206024,3.939595 -9.394418,3.939595 -5.188394,0 -9.394419,-1.763817 -9.394419,-3.939595 0,-2.175778 4.206025,-3.939595 9.394419,-3.939595 5.188394,0 9.394418,1.763817 9.394418,3.939595 z" color="#000" display="inline" overflow="visible" transform="matrix(1.4779309,0,0,1.4353837,84.700636,-8.2426103)" visibility="visible" style="marker:none"/><path id="path1825" fill="none" stroke="url(#linearGradient3111)" stroke-dasharray="none" stroke-dashoffset="0" stroke-linecap="butt" stroke-linejoin="miter" stroke-miterlimit="4" stroke-opacity="1" stroke-width=".794" d="m -26.263968,29.716238 c 0,2.175778 -4.206024,3.939595 -9.394418,3.939595 -5.188394,0 -9.394419,-1.763817 -9.394419,-3.939595 0,-2.175778 4.206025,-3.939595 9.394419,-3.939595 5.188394,0 9.394418,1.763817 9.394418,3.939595 z" color="#000" display="inline" overflow="visible" transform="matrix(1.3336449,0,0,1.1879953,79.555604,-1.3678544)" visibility="visible" style="marker:none"/><path id="path2983" fill="none" stroke="url(#linearGradient3113)" stroke-dasharray="none" stroke-dashoffset="0" stroke-linecap="butt" stroke-linejoin="miter" stroke-miterlimit="4" stroke-opacity="1" stroke-width=".812" d="m -26.263968,29.716238 c 0,2.175778 -4.206024,3.939595 -9.394418,3.939595 -5.188394,0 -9.394419,-1.763817 -9.394419,-3.939595 0,-2.175778 4.206025,-3.939595 9.394419,-3.939595 5.188394,0 9.394418,1.763817 9.394418,3.939595 z" color="#000" display="inline" overflow="visible" transform="matrix(1.2378381,0,0,1.2238871,76.046937,-4.0402087)" visibility="visible" style="marker:none"/><rect id="rect2699" width="13.36" height="9.136" x="25.493" y="24.771" fill="url(#linearGradient3186)" fill-opacity="1" fill-rule="evenodd" stroke="none" stroke-width=".609" color="#000" display="inline" overflow="visible" visibility="visible" style="marker:none"/><path id="rect2404" fill="url(#linearGradient3181)" fill-opacity="1" fill-rule="evenodd" stroke="url(#linearGradient3183)" stroke-dashoffset="0" stroke-linecap="butt" stroke-linejoin="miter" stroke-miterlimit="4" stroke-opacity="1" stroke-width="2" d="m 7.3968823,-13 49.2062347,0 c 1.335103,0 2.379353,0.845043 2.441768,2.029885 l 1.951426,37.044155 c 0.08527,1.61879 -1.320034,2.925959 -2.959719,2.925959 l -52.0731844,0 c -1.6396842,0 -3.044994,-1.307169 -2.9597188,-2.925959 L 4.9551143,-10.970115 C 5.0141295,-12.090406 5.7571981,-13 7.3968823,-13 z" color="#000" display="inline" overflow="visible" visibility="visible" style="marker:none"/><path id="path2377" fill="url(#linearGradient3178)" fill-opacity="1" fill-rule="evenodd" stroke="#000079" stroke-dasharray="none" stroke-linecap="butt" stroke-linejoin="round" stroke-miterlimit="4" stroke-opacity="1" stroke-width="2" d="M 8.8446274,-9 6.9999999,22 54,22 52.017535,-8.8686205 8.8446274,-9 z"/><path id="path2393" fill="none" stroke="url(#linearGradient3175)" stroke-linecap="round" stroke-linejoin="miter" stroke-miterlimit="4" stroke-opacity=".248" stroke-width=".996" d="m 5.844219,25.535354 52.360841,0"/><path stroke-opacity=".701" style="marker:none" id="path2397" fill="none" stroke="url(#linearGradient3172)" stroke-dashoffset="0" stroke-linecap="butt" stroke-linejoin="miter" stroke-miterlimit="4" stroke-width="2" d="M 7.6850154,-10.947269 56.207452,-11 c 0.40672,-4.41e-4 0.801839,0.330945 0.834531,0.910247 l 1.95247,34.598603 C 59.077658,25.983325 58.220644,27 56.702957,27 L 7.2078407,27 C 5.6901514,27 4.9240236,25.983393 5.0059463,24.50885 L 6.9042218,-9.6586074 c 0.055476,-0.9985276 0.2385375,-1.2880726 0.7807936,-1.2886616 z" color="#000" display="inline" overflow="visible" visibility="visible"/><path id="path2443" fill="url(#linearGradient3169)" fill-opacity="1" fill-rule="evenodd" stroke="none" d="M 10.169659,-8 9,16.752104 C 25.097184,13.427003 31.476258,2.2194119 51.49101,-1.4573932 L 51.255671,-7.9084951 10.169659,-8 z" opacity=".531"/><path id="path2709" fill="url(#linearGradient3129)" fill-opacity="1" fill-rule="evenodd" stroke="none" stroke-width=".5" d="m 35.620504,3.9384086 c 0,0.4637476 -0.375941,0.8396893 -0.839689,0.8396893 -0.463747,0 -0.839689,-0.3759417 -0.839689,-0.8396893 0,-0.4637476 0.375942,-0.8396893 0.839689,-0.8396893 0.463748,0 0.839689,0.3759417 0.839689,0.8396893 z" color="#000" display="inline" overflow="visible" transform="matrix(1.9674763,0,0,0.94512696,-12.772926,-11.615136)" visibility="visible" style="marker:none"/><path id="path2719" fill="url(#linearGradient3131)" fill-opacity="1" fill-rule="evenodd" stroke="none" stroke-width=".5" d="m 35.620504,3.9384086 c 0,0.4637476 -0.375941,0.8396893 -0.839689,0.8396893 -0.463747,0 -0.839689,-0.3759417 -0.839689,-0.8396893 0,-0.4637476 0.375942,-0.8396893 0.839689,-0.8396893 0.463748,0 0.839689,0.3759417 0.839689,0.8396893 z" color="#000" display="inline" overflow="visible" transform="matrix(1.9674763,0,0,0.94512696,-12.605033,-8.5925281)" visibility="visible" style="marker:none"/><path id="path2723" fill="url(#linearGradient3133)" fill-opacity="1" fill-rule="evenodd" stroke="none" stroke-width=".5" d="m 35.620504,3.9384086 c 0,0.4637476 -0.375941,0.8396893 -0.839689,0.8396893 -0.463747,0 -0.839689,-0.3759417 -0.839689,-0.8396893 0,-0.4637476 0.375942,-0.8396893 0.839689,-0.8396893 0.463748,0 0.839689,0.3759417 0.839689,0.8396893 z" color="#000" display="inline" overflow="visible" transform="matrix(1.9674763,0,0,0.94512696,-12.437141,-5.7217607)" visibility="visible" style="marker:none"/><path id="path2727" fill="url(#linearGradient3135)" fill-opacity="1" fill-rule="evenodd" stroke="none" stroke-width=".5" d="m 35.620504,3.9384086 c 0,0.4637476 -0.375941,0.8396893 -0.839689,0.8396893 -0.463747,0 -0.839689,-0.3759417 -0.839689,-0.8396893 0,-0.4637476 0.375942,-0.8396893 0.839689,-0.8396893 0.463748,0 0.839689,0.3759417 0.839689,0.8396893 z" color="#000" display="inline" overflow="visible" transform="matrix(1.9674763,0,0,0.94512696,-12.269248,-2.8509933)" visibility="visible" style="marker:none"/><path id="path2731" fill="url(#linearGradient3137)" fill-opacity="1" fill-rule="evenodd" stroke="none" stroke-width=".5" d="m 35.620504,3.9384086 c 0,0.4637476 -0.375941,0.8396893 -0.839689,0.8396893 -0.463747,0 -0.839689,-0.3759417 -0.839689,-0.8396893 0,-0.4637476 0.375942,-0.8396893 0.839689,-0.8396893 0.463748,0 0.839689,0.3759417 0.839689,0.8396893 z" color="#000" display="inline" overflow="visible" transform="matrix(1.9674763,0,0,0.94512696,-12.101355,0.01977411)" visibility="visible" style="marker:none"/><path id="text2735" fill="#4a4a4a" fill-opacity="1" stroke="none" d="m 29.22888,23.499804 0.416356,0 c 0.123792,10e-7 0.218712,0.02678 0.284738,0.08037 0.06646,0.05315 0.09969,0.129098 0.09969,0.227815 -2e-6,0.09914 -0.03322,0.175502 -0.09969,0.22908 -0.06602,0.05315 -0.160939,0.07974 -0.284738,0.07974 l -0.1655,0 0,0.327798 -0.250856,0 0,-0.944796 m 0.250856,0.176556 0,0.263885 0.138778,0 c 0.04865,0 0.08622,-0.01134 0.112722,-0.03418 0.0265,-0.02321 0.03974,-0.05589 0.03974,-0.09809 0,-0.04219 -0.0133,-0.07467 -0.03974,-0.09745 -0.0265,-0.02278 -0.06407,-0.03418 -0.112722,-0.03418 l -0.138778,0 m 1.170882,-0.01708 c -0.07645,1e-6 -0.135748,0.02743 -0.177881,0.08226 -0.04214,0.05485 -0.0632,0.132055 -0.0632,0.231612 0,0.09914 0.02106,0.176134 0.0632,0.230979 0.04214,0.05485 0.101431,0.08226 0.177881,0.08226 0.07688,0 0.136398,-0.02742 0.178533,-0.08226 0.04214,-0.05485 0.0632,-0.13184 0.0632,-0.230979 -2e-6,-0.09956 -0.02106,-0.176766 -0.0632,-0.231612 -0.04214,-0.05485 -0.101652,-0.08226 -0.178533,-0.08226 m 0,-0.176556 c 0.156377,1e-6 0.278874,0.04345 0.367489,0.130361 0.08862,0.08691 0.132925,0.206932 0.132925,0.360073 -1e-6,0.152721 -0.04431,0.272534 -0.132925,0.35944 -0.08862,0.08691 -0.211112,0.130362 -0.367489,0.130362 -0.155944,0 -0.278441,-0.04345 -0.367489,-0.130362 -0.08862,-0.08691 -0.132925,-0.206719 -0.132925,-0.35944 0,-0.153141 0.04431,-0.273166 0.132925,-0.360073 0.08905,-0.08691 0.211545,-0.130361 0.367489,-0.130361 m 0.689368,0.01708 0.280177,0 0.353806,0.648005 0,-0.648005 0.237826,0 0,0.944796 -0.280179,0 -0.353805,-0.648005 0,0.648005 -0.237825,0 0,-0.944796 m 0.97997,0 0.274313,0 0.221536,0.336659 0.221535,-0.336659 0.274967,0 -0.370748,0.546754 0,0.398042 -0.250857,0 0,-0.398042 -0.370746,-0.546754" font-family="Bitstream Vera Sans" font-size=".903" font-stretch="normal" font-style="normal" font-variant="normal" font-weight="bold" text-anchor="start" writing-mode="lr-tb"/><path id="path5298" fill="url(#linearGradient3966)" fill-opacity="1" fill-rule="evenodd" stroke="#172a04" stroke-linecap="butt" stroke-linejoin="round" stroke-opacity="1" stroke-width="2" d="m 39.379792,6.6655432 c 1.877593,-3.3440133 7.326994,-6.27510546 0.103372,-13.6655433 0,0 0.227938,0.2015447 0.227938,0.2015447 -5.324481,5.2423107 -12.050479,4.8472928 -20.799581,4.7591597 -5.313502,-0.053528 -7.027705,2.46805647 -7.880961,5.9190477 0,0 -0.03056,0.1232995 -0.03056,0.1232995 7.494205,2.7453307 17.83088,6.9181065 14.637971,13.3614805 1.95782,-0.821832 3.810694,-2.139397 5.522314,-4.218005 2.738179,-3.3252742 5.396861,-5.416968 8.219513,-6.4809878 z"/><path id="path3251" fill="url(#radialGradient3139)" fill-opacity="1" fill-rule="evenodd" stroke="none" stroke-width="1" d="m 43.25,41.625 c 0,3.244673 -8.086857,5.875 -18.0625,5.875 -9.975643,0 -18.0625,-2.630327 -18.0625,-5.875 0,-3.244673 8.086857,-5.875 18.0625,-5.875 9.975643,0 18.0625,2.630327 18.0625,5.875 z" color="#000" display="inline" opacity=".267" overflow="visible" transform="matrix(0.52127303,0,0,0.22311073,30.918398,10.276112)" visibility="visible" style="marker:none"/><path id="path1465" fill="url(#linearGradient3158)" fill-opacity="1" fill-rule="evenodd" stroke="#c4a000" stroke-linecap="butt" stroke-linejoin="miter" stroke-opacity="1" stroke-width=".358" d="M 51.563546,0.10138715 36.481941,19.659891 l 15.081605,0 0,-19.55850385 z m -3.194542,9.50198605 0,6.7143358 -4.859069,0 4.859069,-6.7143358 z"/><path id="path3006" fill="none" stroke="url(#linearGradient3155)" stroke-linecap="butt" stroke-linejoin="miter" stroke-opacity="1" stroke-width=".349" d="m 51.042331,19.195283 0,-17.5801718 -13.51796,17.5501968 13.51796,0.02997 z" opacity=".639"/><path id="path3022" fill="#2e3436" fill-opacity=".75" fill-rule="evenodd" stroke="#c4a000" stroke-linecap="square" stroke-linejoin="miter" stroke-opacity="1" stroke-width=".349" d="m 51.045574,17.812188 -0.408057,0"/><path id="path3046" fill="#2e3436" fill-opacity=".75" fill-rule="evenodd" stroke="#c4a000" stroke-linecap="square" stroke-linejoin="miter" stroke-opacity="1" stroke-width=".349" d="m 51.045574,15.893804 -0.408057,0"/><path id="path3050" fill="#2e3436" fill-opacity=".75" fill-rule="evenodd" stroke="#c4a000" stroke-linecap="square" stroke-linejoin="miter" stroke-opacity="1" stroke-width=".349" d="m 51.045574,13.975423 -0.408057,0"/><path id="path3054" fill="#2e3436" fill-opacity=".75" fill-rule="evenodd" stroke="#c4a000" stroke-linecap="square" stroke-linejoin="miter" stroke-opacity="1" stroke-width=".349" d="m 51.045574,12.057041 -0.408057,0"/><path id="path3058" fill="#2e3436" fill-opacity=".75" fill-rule="evenodd" stroke="#c4a000" stroke-linecap="square" stroke-linejoin="miter" stroke-opacity="1" stroke-width=".349" d="m 51.045574,10.138659 -0.408057,0"/><path id="path3062" fill="#2e3436" fill-opacity=".75" fill-rule="evenodd" stroke="#c4a000" stroke-linecap="square" stroke-linejoin="miter" stroke-opacity="1" stroke-width=".349" d="m 51.045574,8.2202776 -0.408057,0"/><path id="path3066" fill="#2e3436" fill-opacity=".75" fill-rule="evenodd" stroke="#c4a000" stroke-linecap="square" stroke-linejoin="miter" stroke-opacity="1" stroke-width=".349" d="m 51.045574,6.3018959 -0.408057,0"/><path id="path3070" fill="#2e3436" fill-opacity=".75" fill-rule="evenodd" stroke="#c4a000" stroke-linecap="square" stroke-linejoin="miter" stroke-opacity="1" stroke-width=".349" d="m 51.045574,4.3835128 -0.408057,0"/><rect id="rect2400" width="23.865" height="4.243" x="8.485" y="12.821" fill="#fbf8fe" fill-opacity="1" fill-rule="evenodd" stroke="none" filter="url(#filter3547)" ry="0" transform="matrix(0.69777818,-0.49787504,0.58428786,-0.08283483,9.4438239,15.297262)"/></g></svg>