<svg xmlns="http://www.w3.org/2000/svg" xmlns:svg="http://www.w3.org/2000/svg" id="svg8" width="210mm" height="297mm" version="1.1" viewBox="0 0 210 297"><defs id="defs2"><marker id="marker1185" orient="auto" overflow="visible" refX="0" refY="0"><path id="path1183" fill="#000" fill-opacity="1" fill-rule="evenodd" stroke="#000" stroke-linejoin="round" stroke-opacity="1" stroke-width=".625" d="M 8.7185878,4.0337352 -2.2072895,0.01601326 8.7185884,-4.0017078 c -1.7454984,2.3720609 -1.7354408,5.6174519 -6e-7,8.035443 z" transform="matrix(-1.1,0,0,-1.1,-1.1,0)"/></marker><marker id="marker1181" orient="auto" overflow="visible" refX="0" refY="0"><path id="path1179" fill="#000" fill-opacity="1" fill-rule="evenodd" stroke="#000" stroke-linejoin="round" stroke-opacity="1" stroke-width=".625" d="M 8.7185878,4.0337352 -2.2072895,0.01601326 8.7185884,-4.0017078 c -1.7454984,2.3720609 -1.7354408,5.6174519 -6e-7,8.035443 z" transform="matrix(1.1,0,0,1.1,1.1,0)"/></marker><marker id="marker1177" orient="auto" overflow="visible" refX="0" refY="0"><path id="path1175" fill="#000" fill-opacity="1" fill-rule="evenodd" stroke="#000" stroke-linejoin="round" stroke-opacity="1" stroke-width=".625" d="M 8.7185878,4.0337352 -2.2072895,0.01601326 8.7185884,-4.0017078 c -1.7454984,2.3720609 -1.7354408,5.6174519 -6e-7,8.035443 z" transform="matrix(-1.1,0,0,-1.1,-1.1,0)"/></marker><marker id="marker1173" orient="auto" overflow="visible" refX="0" refY="0"><path id="path1171" fill="#000" fill-opacity="1" fill-rule="evenodd" stroke="#000" stroke-linejoin="round" stroke-opacity="1" stroke-width=".625" d="M 8.7185878,4.0337352 -2.2072895,0.01601326 8.7185884,-4.0017078 c -1.7454984,2.3720609 -1.7354408,5.6174519 -6e-7,8.035443 z" transform="matrix(1.1,0,0,1.1,1.1,0)"/></marker><marker id="Arrow2Lend" orient="auto" overflow="visible" refX="0" refY="0"><path id="path920" fill="#000" fill-opacity="1" fill-rule="evenodd" stroke="#000" stroke-linejoin="round" stroke-opacity="1" stroke-width=".625" d="M 8.7185878,4.0337352 -2.2072895,0.01601326 8.7185884,-4.0017078 c -1.7454984,2.3720609 -1.7354408,5.6174519 -6e-7,8.035443 z" transform="matrix(-1.1,0,0,-1.1,-1.1,0)"/></marker><marker id="Arrow2Lstart" orient="auto" overflow="visible" refX="0" refY="0"><path id="path917" fill="#000" fill-opacity="1" fill-rule="evenodd" stroke="#000" stroke-linejoin="round" stroke-opacity="1" stroke-width=".625" d="M 8.7185878,4.0337352 -2.2072895,0.01601326 8.7185884,-4.0017078 c -1.7454984,2.3720609 -1.7354408,5.6174519 -6e-7,8.035443 z" transform="matrix(1.1,0,0,1.1,1.1,0)"/></marker><marker id="Arrow1Lstart" orient="auto" overflow="visible" refX="0" refY="0"><path id="path899" fill="#000" fill-opacity="1" fill-rule="evenodd" stroke="#000" stroke-opacity="1" stroke-width="1.333" d="M 0,0 5,-5 -12.5,0 5,5 Z" transform="matrix(0.8,0,0,0.8,10,0)"/></marker><marker id="Arrow2Mstart" orient="auto" overflow="visible" refX="0" refY="0"><path id="path923" fill="#000" fill-opacity="1" fill-rule="evenodd" stroke="#000" stroke-linejoin="round" stroke-opacity="1" stroke-width=".625" d="M 8.7185878,4.0337352 -2.2072895,0.01601326 8.7185884,-4.0017078 c -1.7454984,2.3720609 -1.7354408,5.6174519 -6e-7,8.035443 z" transform="scale(0.6)"/></marker><marker id="Arrow1Mend" orient="auto" overflow="visible" refX="0" refY="0"><path id="path908" fill="#000" fill-opacity="1" fill-rule="evenodd" stroke="#000" stroke-opacity="1" stroke-width="1.333" d="M 0,0 5,-5 -12.5,0 5,5 Z" transform="matrix(-0.4,0,0,-0.4,-4,0)"/></marker><marker id="marker7497" orient="auto" overflow="visible" refX="0" refY="0"><path id="path7495" fill="#000025" fill-opacity="1" fill-rule="evenodd" stroke="#000025" stroke-linejoin="round" stroke-opacity="1" stroke-width=".625" d="M 8.7185878,4.0337352 -2.2072895,0.01601326 8.7185884,-4.0017078 c -1.7454984,2.3720609 -1.7354408,5.6174519 -6e-7,8.035443 z" transform="scale(-0.6)"/></marker><marker id="marker7379" orient="auto" overflow="visible" refX="0" refY="0"><path id="path7377" fill="#000025" fill-opacity="1" fill-rule="evenodd" stroke="#000025" stroke-opacity="1" stroke-width="1.333" d="M 0,0 5,-5 -12.5,0 5,5 Z" transform="matrix(0.4,0,0,0.4,4,0)"/></marker><marker id="marker5480" orient="auto" overflow="visible" refX="0" refY="0"><path id="path5478" fill="#000" fill-opacity="1" fill-rule="evenodd" stroke="#000" stroke-linejoin="round" stroke-opacity="1" stroke-width=".625" d="M 8.7185878,4.0337352 -2.2072895,0.01601326 8.7185884,-4.0017078 c -1.7454984,2.3720609 -1.7354408,5.6174519 -6e-7,8.035443 z" transform="scale(-0.6)"/></marker><marker id="marker5470" orient="auto" overflow="visible" refX="0" refY="0"><path id="path5468" fill="#000" fill-opacity="1" fill-rule="evenodd" stroke="#000" stroke-linejoin="round" stroke-opacity="1" stroke-width=".625" d="M 8.7185878,4.0337352 -2.2072895,0.01601326 8.7185884,-4.0017078 c -1.7454984,2.3720609 -1.7354408,5.6174519 -6e-7,8.035443 z" transform="scale(-0.6)"/></marker><marker id="marker5220" orient="auto" overflow="visible" refX="0" refY="0"><path id="path5218" fill="#000" fill-opacity="1" fill-rule="evenodd" stroke="#000" stroke-opacity="1" stroke-width="1.333" d="M 0,0 5,-5 -12.5,0 5,5 Z" transform="matrix(0.4,0,0,0.4,4,0)"/></marker><marker id="marker5210" orient="auto" overflow="visible" refX="0" refY="0"><path id="path5208" fill="#000" fill-opacity="1" fill-rule="evenodd" stroke="#000" stroke-opacity="1" stroke-width="1.333" d="M 0,0 5,-5 -12.5,0 5,5 Z" transform="matrix(0.4,0,0,0.4,4,0)"/></marker><marker id="marker5072" orient="auto" overflow="visible" refX="0" refY="0"><path id="path5070" fill="#000" fill-opacity="1" fill-rule="evenodd" stroke="#000" stroke-opacity="1" stroke-width="1.333" d="M 0,0 5,-5 -12.5,0 5,5 Z" transform="matrix(-0.8,0,0,-0.8,-10,0)"/></marker><marker id="marker5014" orient="auto" overflow="visible" refX="0" refY="0"><path id="path5012" fill="#000" fill-opacity="1" fill-rule="evenodd" stroke="#000" stroke-opacity="1" stroke-width="1.333" d="M 0,0 5,-5 -12.5,0 5,5 Z" transform="matrix(-0.8,0,0,-0.8,-10,0)"/></marker><marker id="marker4968" orient="auto" overflow="visible" refX="0" refY="0"><path id="path4966" fill="#000" fill-opacity="1" fill-rule="evenodd" stroke="#000" stroke-opacity="1" stroke-width="1.333" d="M 0,0 5,-5 -12.5,0 5,5 Z" transform="matrix(-0.8,0,0,-0.8,-10,0)"/></marker><marker id="marker4884" orient="auto" overflow="visible" refX="0" refY="0"><path id="path4882" fill="#000" fill-opacity="1" fill-rule="evenodd" stroke="#000" stroke-opacity="1" stroke-width="1.333" d="M 0,0 5,-5 -12.5,0 5,5 Z" transform="matrix(0.8,0,0,0.8,10,0)"/></marker><marker id="marker4856" orient="auto" overflow="visible" refX="0" refY="0"><path id="path4854" fill="#000" fill-opacity="1" fill-rule="evenodd" stroke="#000" stroke-opacity="1" stroke-width="1.333" d="M 0,0 5,-5 -12.5,0 5,5 Z" transform="matrix(0.8,0,0,0.8,10,0)"/></marker><marker id="marker4834" orient="auto" overflow="visible" refX="0" refY="0"><path id="path4832" fill="#000" fill-opacity="1" fill-rule="evenodd" stroke="#000" stroke-opacity="1" stroke-width="1.333" d="M 0,0 5,-5 -12.5,0 5,5 Z" transform="matrix(0.8,0,0,0.8,10,0)"/></marker><marker id="marker5220-5" orient="auto" overflow="visible" refX="0" refY="0"><path id="path5218-3" fill="#000" fill-opacity="1" fill-rule="evenodd" stroke="#000" stroke-opacity="1" stroke-width="1.333" d="M 0,0 5,-5 -12.5,0 5,5 Z" transform="matrix(0.4,0,0,0.4,4,0)"/></marker><marker id="marker5480-5" orient="auto" overflow="visible" refX="0" refY="0"><path id="path5478-7" fill="#000" fill-opacity="1" fill-rule="evenodd" stroke="#000" stroke-linejoin="round" stroke-opacity="1" stroke-width=".625" d="M 8.7185878,4.0337352 -2.2072895,0.01601326 8.7185884,-4.0017078 c -1.7454984,2.3720609 -1.7354408,5.6174519 -6e-7,8.035443 z" transform="scale(-0.6)"/></marker></defs><metadata id="metadata5"/><g id="layer1" transform="translate(0.19510138,82.181594)"><path id="path4520" fill="none" stroke="#000" stroke-linecap="butt" stroke-linejoin="miter" stroke-opacity="1" stroke-width="3.354" d="M 49.933333,-22.442786 V 68.899983 H 13 V 147.19377 H 160.73333 V 68.899983 H 123.8 v -91.342769 z"/><path id="path4526" fill="none" stroke="#000" stroke-dasharray="10.14 2.535 1.267 2.535" stroke-dashoffset="0" stroke-linecap="butt" stroke-linejoin="miter" stroke-miterlimit="4" stroke-opacity="1" stroke-width="1.267" d="M 86.866667,-35.491751 V 160.24274"/><path id="path4528" fill="none" stroke="#000" stroke-dasharray="none" stroke-linecap="butt" stroke-linejoin="miter" stroke-miterlimit="4" stroke-opacity="1" stroke-width=".824" d="M 49.933333,-22.442786 V -61.589682"/><path id="path4530" fill="none" stroke="#000" stroke-dasharray="none" stroke-linecap="butt" stroke-linejoin="miter" stroke-miterlimit="4" stroke-opacity="1" stroke-width=".824" d="M 123.8,-22.442786 V -61.589682"/><path id="path4538" fill="none" stroke="#000" stroke-dasharray="none" stroke-linecap="butt" stroke-linejoin="miter" stroke-miterlimit="4" stroke-opacity="1" stroke-width=".824" d="m 160.73333,186.34067 v -39.1469"/><path id="path4542" fill="none" stroke="#000" stroke-dasharray="none" stroke-linecap="butt" stroke-linejoin="miter" stroke-miterlimit="4" stroke-opacity="1" stroke-width=".824" marker-end="url(#marker1185)" marker-start="url(#marker1181)" d="M 49.933333,-48.540717 H 123.8"/><path id="path4548" fill="none" stroke="#000" stroke-dasharray="none" stroke-linecap="butt" stroke-linejoin="miter" stroke-miterlimit="4" stroke-opacity="1" stroke-width=".824" marker-end="url(#marker1177)" marker-start="url(#marker1173)" d="M 13,173.2917 H 160.73333"/><text id="text5680" x="78.952" y="-51.439" fill="#000" fill-opacity="1" stroke="none" stroke-width="3.354" font-family="URW Bookman L" font-size="35.771" font-stretch="normal" font-style="normal" font-variant="normal" font-weight="normal" letter-spacing="0" text-anchor="start" transform="scale(0.97131606,1.029531)" word-spacing="0" writing-mode="lr-tb" xml:space="preserve" style="line-height:1.25;-inkscape-font-specification:'URW Bookman L, Normal';font-variant-ligatures:normal;font-variant-caps:normal;font-variant-numeric:normal;font-feature-settings:normal;text-align:start"><tspan font-stretch="normal" style="-inkscape-font-specification:'URW Bookman L, Normal';font-variant-ligatures:normal;font-variant-caps:normal;font-variant-numeric:normal;font-feature-settings:normal;text-align:start" id="tspan5678" x="78.952" y="-51.439" stroke-width="3.354" font-family="URW Bookman L" font-size="35.771" font-style="normal" font-variant="normal" font-weight="normal" text-anchor="start" writing-mode="lr-tb">S</tspan></text><text id="text5692" x="76.055" y="200.458" fill="#000" fill-opacity="1" stroke="none" stroke-width="3.354" font-family="URW Bookman L" font-size="35.771" font-stretch="normal" font-style="normal" font-variant="normal" font-weight="normal" letter-spacing="0" text-anchor="start" transform="scale(0.97131606,1.029531)" word-spacing="0" writing-mode="lr-tb" xml:space="preserve" style="line-height:1.25;-inkscape-font-specification:'URW Bookman L, Normal';font-variant-ligatures:normal;font-variant-caps:normal;font-variant-numeric:normal;font-feature-settings:normal;text-align:start"><tspan font-stretch="normal" style="-inkscape-font-specification:'URW Bookman L, Normal';font-variant-ligatures:normal;font-variant-caps:normal;font-variant-numeric:normal;font-feature-settings:normal;text-align:start" id="tspan5690" x="76.055" y="200.458" stroke-width="3.354" font-family="URW Bookman L" font-size="35.771" font-style="normal" font-variant="normal" font-weight="normal" text-anchor="start" writing-mode="lr-tb">D</tspan></text><text id="text5692-8" x="185.942" y="119.315" fill="#000" fill-opacity="1" stroke="none" stroke-width="3.354" font-family="URW Bookman L" font-size="35.771" font-stretch="normal" font-style="normal" font-variant="normal" font-weight="normal" letter-spacing="0" text-anchor="start" transform="scale(0.97131606,1.029531)" word-spacing="0" writing-mode="lr-tb" xml:space="preserve" style="line-height:1.25;-inkscape-font-specification:'URW Bookman L, Normal';font-variant-ligatures:normal;font-variant-caps:normal;font-variant-numeric:normal;font-feature-settings:normal;text-align:start"><tspan id="tspan10475" x="185.942" y="119.315" stroke-width="3.354">H</tspan></text><path id="path4538-8" fill="none" stroke="#000" stroke-dasharray="none" stroke-linecap="butt" stroke-linejoin="miter" stroke-miterlimit="4" stroke-opacity="1" stroke-width=".824" d="m 13,186.34067 v -39.1469"/><path id="path897" fill="none" stroke="#000" stroke-dasharray="none" stroke-linecap="butt" stroke-linejoin="miter" stroke-miterlimit="4" stroke-opacity="1" stroke-width=".824" marker-end="url(#Arrow2Lend)" marker-start="url(#Arrow2Lstart)" d="M 173.04444,68.899983 V 147.19377"/><path id="path1187" fill="none" stroke="#000" stroke-dasharray="none" stroke-linecap="butt" stroke-linejoin="miter" stroke-miterlimit="4" stroke-opacity="1" stroke-width=".824" d="m 160.73333,68.899983 h 24.62222"/><path id="path1189" fill="none" stroke="#000" stroke-dasharray="none" stroke-linecap="butt" stroke-linejoin="miter" stroke-miterlimit="4" stroke-opacity="1" stroke-width=".824" d="m 160.73333,147.19377 h 24.62222"/><rect id="rect1191" width="147.733" height="78.294" x="13" y="68.9" fill="#000" fill-opacity=".137" stroke="#000025" stroke-dasharray="none" stroke-miterlimit="4" stroke-opacity="1" stroke-width=".824"/></g></svg>