<svg xmlns="http://www.w3.org/2000/svg" xmlns:svg="http://www.w3.org/2000/svg" xmlns:xlink="http://www.w3.org/1999/xlink" id="svg3052" width="64" height="64" version="1.1"><defs id="defs3054"><linearGradient id="linearGradient3992"><stop id="stop3994" offset="0" stop-color="#ef2929" stop-opacity="1"/><stop id="stop3996" offset="1" stop-color="#a40000" stop-opacity="1"/></linearGradient><linearGradient id="linearGradient3873"><stop id="stop3875" offset="0" stop-color="#729fcf" stop-opacity="1"/><stop id="stop3877" offset="1" stop-color="#204a87" stop-opacity="1"/></linearGradient><linearGradient id="linearGradient4032"><stop id="stop4034" offset="0" stop-color="#71b2f8" stop-opacity="1"/><stop id="stop4036" offset="1" stop-color="#002795" stop-opacity="1"/></linearGradient><radialGradient id="radialGradient3705" cx="148.883" cy="81.87" r="19.467" fx="148.883" fy="81.87" gradientTransform="matrix(1.6244669,-0.05136783,0.04345521,0.9993132,-102.99033,7.7040438)" gradientUnits="userSpaceOnUse" xlink:href="#linearGradient3377"/><linearGradient id="linearGradient3377"><stop id="stop3379" offset="0" stop-color="#4bff54" stop-opacity="1"/><stop id="stop3381" offset="1" stop-color="#00b800" stop-opacity="1"/></linearGradient><radialGradient id="radialGradient3703" cx="135.383" cy="97.37" r="19.467" fx="135.383" fy="97.37" gradientTransform="matrix(0.87904684,0.2250379,-0.41709097,2.0016728,56.73751,-127.99883)" gradientUnits="userSpaceOnUse" xlink:href="#linearGradient3206"/><linearGradient id="linearGradient3199"><stop id="stop3201" offset="0" stop-color="#faff2b" stop-opacity="1"/><stop id="stop3203" offset="1" stop-color="#fa0" stop-opacity="1"/></linearGradient><radialGradient id="radialGradient3692" cx="45.883" cy="28.87" r="19.467" fx="45.883" fy="28.87" gradientUnits="userSpaceOnUse" xlink:href="#linearGradient3377"/><linearGradient id="linearGradient3206"><stop id="stop3208" offset="0" stop-color="#faff2b" stop-opacity="1"/><stop id="stop3210" offset="1" stop-color="#fa0" stop-opacity="1"/></linearGradient><radialGradient id="radialGradient4030" cx="148.883" cy="81.87" r="19.467" fx="148.883" fy="81.87" gradientTransform="matrix(1.260164,-0.05136783,0.03370995,0.9993132,-43.139781,7.2044077)" gradientUnits="userSpaceOnUse" xlink:href="#linearGradient4032"/><linearGradient id="linearGradient3836-0-6-92-4-6"><stop id="stop3838-2-7-06-8-7" offset="0" stop-color="#a40000" stop-opacity="1"/><stop id="stop3840-5-5-8-7-5" offset="1" stop-color="#ef2929" stop-opacity="1"/></linearGradient><linearGradient id="linearGradient3879" x1="27.72" x2="33.467" y1="46.316" y2="57.855" gradientUnits="userSpaceOnUse" xlink:href="#linearGradient3873"/><linearGradient id="linearGradient3801-1-3-14-0-3-7" x1="-18" x2="-22" y1="18" y2="5" gradientTransform="matrix(0.42857019,1.1941349e-8,0,0.42857297,60.277128,8.0959354)" gradientUnits="userSpaceOnUse" xlink:href="#linearGradient3836-0-6-92-4-6-5"/><linearGradient id="linearGradient3836-0-6-92-4-6-5"><stop id="stop3838-2-7-06-8-7-3" offset="0" stop-color="#a40000" stop-opacity="1"/><stop id="stop3840-5-5-8-7-5-5" offset="1" stop-color="#ef2929" stop-opacity="1"/></linearGradient><linearGradient id="linearGradient3818-6" x1="31.168" x2="26.57" y1="59.009" y2="44.008" gradientUnits="userSpaceOnUse" xlink:href="#linearGradient3812-2"/><linearGradient id="linearGradient3812-2"><stop id="stop3814-9" offset="0" stop-color="#3465a4" stop-opacity="1"/><stop id="stop3816-1" offset="1" stop-color="#729fcf" stop-opacity="1"/></linearGradient><linearGradient id="linearGradient3998" x1="51" x2="57" y1="26" y2="42" gradientUnits="userSpaceOnUse" xlink:href="#linearGradient3992"/></defs><metadata id="metadata3057"/><g id="layer1"><path id="path3899" fill="none" stroke="#2e3436" stroke-linecap="butt" stroke-linejoin="miter" stroke-opacity="1" stroke-width="6" d="m 5,13 47,0"/><path id="path3771" fill="none" stroke="#000" stroke-dasharray="none" stroke-linecap="butt" stroke-linejoin="miter" stroke-miterlimit="4" stroke-opacity="1" stroke-width="5" d="m -33.769034,11.275032 -37.957202,0 m 0,-9.5716096 0,53.5361216"/><path id="path3773" fill="none" stroke="#000" stroke-dasharray="none" stroke-linecap="butt" stroke-linejoin="miter" stroke-miterlimit="4" stroke-opacity="1" stroke-width="5" d="m -33.444573,52.806084 -38.606124,0"/><path id="path3078-5" fill="#ff0900" fill-opacity="1" fill-rule="nonzero" stroke="#0034ff" stroke-dasharray="none" stroke-dashoffset="0" stroke-linecap="round" stroke-linejoin="round" stroke-miterlimit="4" stroke-opacity="1" stroke-width="5.096" d="m 73.247149,12.613435 a 7.6248417,7.3409381 0 1 1 -15.249684,0 7.6248417,7.3409381 0 1 1 15.249684,0 z" transform="matrix(0.86109082,0,0,0.90544239,-84.146817,-0.30793846)"/><path id="path3001" fill="#0034ff" fill-opacity="1" fill-rule="nonzero" stroke="#0034ff" stroke-dasharray="none" stroke-dashoffset="0" stroke-linecap="round" stroke-linejoin="round" stroke-miterlimit="4" stroke-opacity="1" stroke-width="5.096" d="m 73.247149,12.613435 a 7.6248417,7.3409381 0 1 1 -15.249684,0 7.6248417,7.3409381 0 1 1 15.249684,0 z" transform="matrix(0.86109082,0,0,0.90544239,-84.146817,41.223113)"/><path id="path3093" fill="none" stroke="#2e3436" stroke-linecap="round" stroke-linejoin="round" stroke-opacity="1" stroke-width="6" d="m 5,5 0,46 46,0"/><path id="path3093-3" fill="none" stroke="#d3d7cf" stroke-linecap="round" stroke-linejoin="round" stroke-opacity="1" stroke-width="2" d="m 5,5 0,46 46,0"/><g id="g3863" transform="translate(-0.20025323,-0.88339671)"><path id="path3024" fill="none" stroke="#0b1521" stroke-dasharray="none" stroke-dashoffset="20.4" stroke-linecap="round" stroke-linejoin="round" stroke-miterlimit="4.5" stroke-opacity="1" stroke-width="6.91" d="m 38.064973,52.085354 c 0,4.460915 -3.602431,8.077202 -8.046254,8.077202 -4.443824,0 -8.046254,-3.616287 -8.046254,-8.077202 0,-4.460916 3.60243,-8.077202 8.046254,-8.077202 4.443823,0 8.046254,3.616286 8.046254,8.077202 z" transform="matrix(0.86997005,0,0,0.86663677,26.084867,6.7443139)"/><path id="path3024-3" fill="url(#linearGradient3879)" fill-opacity="1" stroke="#729fcf" stroke-dasharray="none" stroke-dashoffset="20.4" stroke-linecap="round" stroke-linejoin="round" stroke-miterlimit="4.5" stroke-opacity="1" stroke-width="2.303" d="m 38.064973,52.085354 c 0,4.460915 -3.602431,8.077202 -8.046254,8.077202 -4.443824,0 -8.046254,-3.616287 -8.046254,-8.077202 0,-4.460916 3.60243,-8.077202 8.046254,-8.077202 4.443823,0 8.046254,3.616286 8.046254,8.077202 z" transform="matrix(0.86997005,0,0,0.86663677,26.084867,6.7443139)"/></g><path id="path3899-6" fill="none" stroke="#d3d7cf" stroke-linecap="butt" stroke-linejoin="miter" stroke-opacity="1" stroke-width="2" d="m 5,13 47,0"/><path id="path3024-2" fill="none" stroke="#204a87" stroke-dasharray="none" stroke-dashoffset="20.4" stroke-linecap="round" stroke-linejoin="round" stroke-miterlimit="4.5" stroke-opacity="1" stroke-width="6.91" d="m 38.064973,52.085354 a 8.0462542,8.0772018 0 1 1 -16.092508,0 8.0462542,8.0772018 0 1 1 16.092508,0 z" transform="matrix(0.86997005,0,0,0.86663677,25.910337,-32.112823)"/><path id="path3024-3-7" fill="none" stroke="url(#linearGradient3818-6)" stroke-dasharray="none" stroke-dashoffset="20.4" stroke-linecap="round" stroke-linejoin="round" stroke-miterlimit="4.5" stroke-opacity="1" stroke-width="2.303" d="m 38.064973,52.085354 a 8.0462542,8.0772018 0 1 1 -16.092508,0 8.0462542,8.0772018 0 1 1 16.092508,0 z" transform="matrix(0.86997005,0,0,0.86663677,25.910337,-32.112823)"/><path id="path4250-71-6-49-2" fill="#ef2929" stroke="#a40000" stroke-dasharray="none" stroke-miterlimit="4" stroke-opacity="1" stroke-width="2" d="M 48.195229,9.7433274 A 5.0175912,5.0172897 0.01328306 1 1 55.817398,16.27037 5.0175912,5.0172897 0.01328306 1 1 48.195229,9.7433274 z"/><path id="path4250-7-3-2-5-7" fill="url(#linearGradient3801-1-3-14-0-3-7)" fill-opacity="1" stroke="#ef2929" stroke-dasharray="none" stroke-miterlimit="4" stroke-opacity="1" stroke-width="2" d="m 49.719906,11.05034 a 3.0000108,2.9999913 89.877399 1 1 4.557239,3.902762 3.0000108,2.9999913 89.877399 0 1 -4.557239,-3.902762 z"/><path id="path3775" fill="url(#linearGradient3998)" fill-opacity="1" stroke="#280000" stroke-dasharray="none" stroke-linecap="butt" stroke-linejoin="round" stroke-miterlimit="4" stroke-opacity="1" stroke-width="2" d="m 43,33 9,-9 9,9 -6,0 0,10 -6,0 0,-10 z"/><path id="path3970" fill="none" stroke="#ef2929" stroke-linecap="butt" stroke-linejoin="miter" stroke-opacity="1" stroke-width="2" d="m 53,25.8 -7,7"/><path id="path3972" fill="none" stroke="#ef2929" stroke-linecap="butt" stroke-linejoin="round" stroke-opacity="1" stroke-width="2" d="m 48,31 3,0 0,11"/><path id="path3775-0" fill="none" fill-opacity="1" stroke="#280000" stroke-dasharray="none" stroke-linecap="butt" stroke-linejoin="round" stroke-miterlimit="4" stroke-opacity="1" stroke-width="2" d="m 43,33 9,-9 9,9 -6,0 0,10 -6,0 0,-10 z"/></g></svg>