<svg xmlns="http://www.w3.org/2000/svg" xmlns:osb="http://www.openswatchbook.org/uri/2009/osb" xmlns:svg="http://www.w3.org/2000/svg" xmlns:xlink="http://www.w3.org/1999/xlink" id="svg2985" width="64" height="64" version="1.1"><defs id="defs2987"><linearGradient id="linearGradient3797"><stop id="stop4161" offset="0" stop-color="#f77c11" stop-opacity="1"/><stop id="stop4163" offset="1" stop-color="#eca668" stop-opacity="1"/></linearGradient><linearGradient id="linearGradient4165"><stop id="stop3799" offset="0" stop-color="#3465a4" stop-opacity="1"/><stop id="stop3801" offset="1" stop-color="#729fcf" stop-opacity="1"/></linearGradient><linearGradient id="linearGradient3789" osb:paint="gradient"><stop id="stop3791" offset="0" stop-color="#729fcf" stop-opacity="1"/><stop id="stop3793" offset="1" stop-color="#204a87" stop-opacity="1"/></linearGradient><linearGradient id="linearGradient3860"><stop id="stop3862" offset="0" stop-color="#1e76e3" stop-opacity="1"/><stop id="stop3864" offset="1" stop-color="#fff" stop-opacity="1"/></linearGradient><linearGradient id="linearGradient3866-5" x1="31.125" x2="30.114" y1="61.411" y2="12.161" gradientUnits="userSpaceOnUse" xlink:href="#linearGradient3860-6"/><linearGradient id="linearGradient3860-6"><stop id="stop3862-4" offset="0" stop-color="#5a9ff5" stop-opacity="1"/><stop id="stop3864-4" offset="1" stop-color="#fff" stop-opacity="1"/></linearGradient><linearGradient id="linearGradient3797-3"><stop id="stop3799-6" offset="0" stop-color="#3465a4" stop-opacity="1"/><stop id="stop3801-7" offset="1" stop-color="#fff" stop-opacity="1"/></linearGradient><linearGradient id="linearGradient3823-5" x1="35.396" x2="25.417" y1="9.966" y2="51.052" gradientTransform="translate(-2.0009807,-1.984438)" gradientUnits="userSpaceOnUse" xlink:href="#linearGradient3797"/><linearGradient id="linearGradient84-2" x1="116.704" x2="121.009" y1="-7.064" y2="27.703" gradientTransform="translate(-104.97463,10.038174)" gradientUnits="userSpaceOnUse" xlink:href="#linearGradient3797"/><linearGradient id="linearGradient4739"><stop id="stop4735" offset="0" stop-color="#204a87" stop-opacity="1"/><stop id="stop4737" offset="1" stop-color="#729fcf" stop-opacity="1"/></linearGradient><linearGradient id="linearGradient4687-1-6-6" x1="18.145" x2="44.398" y1="51.499" y2="51.499" gradientTransform="matrix(1,0,0,1.0981138,0.14321474,-55.839871)" gradientUnits="userSpaceOnUse" xlink:href="#linearGradient4165"/><linearGradient id="linearGradient4695-7-8-7-0" x1=".18" x2="14.624" y1="36.248" y2="36.248" gradientTransform="matrix(-1,0,0,1,57.200391,-43.587124)" gradientUnits="userSpaceOnUse" xlink:href="#linearGradient4165"/><linearGradient id="linearGradient4687-1-6-6-8" x1="18.145" x2="44.398" y1="51.499" y2="51.499" gradientTransform="matrix(1,0,0,1.0981138,45.686839,-56.465414)" gradientUnits="userSpaceOnUse" xlink:href="#linearGradient4165"/><linearGradient id="linearGradient1065" x1="26.112" x2="44.096" y1="2.937" y2="2.911" gradientTransform="matrix(1.2002734,0,0,1.2002734,-6.0365755,41.424104)" gradientUnits="userSpaceOnUse" xlink:href="#linearGradient4165"/><linearGradient id="linearGradient4655" x1="108" x2="128" y1="46" y2="46" gradientTransform="translate(-86.020077,-13.687753)" gradientUnits="userSpaceOnUse" xlink:href="#linearGradient4165"/><linearGradient id="linearGradient4743" x1="18.702" x2="45.765" y1="31.725" y2="31.812" gradientUnits="userSpaceOnUse" xlink:href="#linearGradient3797"/><linearGradient id="linearGradient995" x1="39.971" x2="26.592" y1="44.082" y2="23.737" gradientTransform="translate(78.922405,4.6396909)" gradientUnits="userSpaceOnUse" xlink:href="#linearGradient4739"/></defs><g id="layer1"><g id="g4675" transform="matrix(1.0161989,0,0,1.0161989,-87.653447,1.406572)"><g id="g1020" transform="matrix(1.0609942,0,0,1.0609942,-1.9456602,-1.9888296)"><path id="path4647" fill="url(#linearGradient4743)" fill-opacity="1" fill-rule="evenodd" stroke="none" stroke-linecap="butt" stroke-linejoin="miter" stroke-opacity="1" stroke-width="1" d="m 46.862923,19.416557 c 1.66448,-7.41576 -2.46805,-8.904332 -8.5834,-8.36557 -4.11598,-2.663978 -8.27216,-3.770605 -12.55492,0.02414 -9.092843,-1.4097023 -9.656833,2.766969 -7.92369,8.256193 -2.73442,1.388934 -5.868243,2.528459 -4.07631,6.743807 -7.680309,2.33437 -5.7802556,8.942561 -4.1199056,15.266333 5.5618756,0.0094 4.4051156,-7.129743 8.5057256,-11.000703 0.59642,13.168027 3.40522,23.70858 13.88958,25.133475 9.57683,-1.495739 14.31812,-9.769102 13.97992,-25.161985 3.71316,4.605098 2.370548,10.614916 9.210148,10.704411 -0.5217,-5.949656 3.023801,-12.794017 -3.914549,-15.177637 1.68354,-4.071161 -1.666449,-5.112266 -4.412599,-6.422464 z" transform="matrix(1.1051629,0,0,1.1051629,77.309604,-5.2337101)"/><path id="path827-3-6-6-9" fill="none" fill-opacity="1" stroke="#0b1521" stroke-dasharray="none" stroke-linecap="round" stroke-linejoin="miter" stroke-miterlimit="4" stroke-opacity="1" stroke-width="2.21" d="m 91.113487,23.461656 c -2.122316,2.007939 -3.692747,4.126938 -3.79054,4.680108 -2.589415,4.058486 -0.694529,9.908416 0.547415,13.098492 9.408812,-5.737396 7.240035,-10.674829 9.811883,-14.73087"/><path id="path821-9-0-6-4-8" fill="none" fill-opacity="1" stroke="#0b1521" stroke-dasharray="none" stroke-linecap="round" stroke-linejoin="miter" stroke-miterlimit="4" stroke-opacity="1" stroke-width="2.21" d="m 97.324561,28.297771 c 1.39788,12.664458 1.466694,26.127299 15.350259,27.776584 12.81603,-1.433182 14.0412,-15.042369 15.45008,-27.808095"/><path id="path4669-3-1" fill="none" fill-opacity="1" fill-rule="nonzero" stroke="#0b1521" stroke-dasharray="none" stroke-linecap="round" stroke-miterlimit="4" stroke-width="2.21" d="m 91.620966,22.925502 a 7.7969213,6.3020225 0 0 1 5.36154,-6.794953" opacity="1"/><path id="path4669-1-6-3" fill="none" fill-opacity="1" fill-rule="nonzero" stroke="#0b1521" stroke-dasharray="none" stroke-linecap="round" stroke-miterlimit="4" stroke-width="2.21" d="M 96.531506,15.475609 A 7.7969213,6.3020225 0 0 1 97.724587,8.3495286 7.7969213,6.3020225 0 0 1 106.40311,6.7663551" opacity="1"/><path id="path4669-1-2-3-1-9" fill="none" fill-opacity="1" fill-rule="nonzero" stroke="#0b1521" stroke-dasharray="none" stroke-linecap="round" stroke-miterlimit="4" stroke-width="2.21" d="m -119.45405,6.8448431 a 7.7969213,6.3020225 0 0 1 6.48018,-2.8777831 7.7969213,6.3020225 0 0 1 6.53912,2.7893298" opacity="1" transform="scale(-1,1)"/><path id="path4669-1-5-5-6" fill="none" fill-opacity="1" fill-rule="nonzero" stroke="#0b1521" stroke-dasharray="none" stroke-linecap="round" stroke-miterlimit="4" stroke-width="2.21" d="m -129.69694,15.466558 a 7.7969213,6.3020225 0 0 1 1.43347,-7.0434015 7.7969213,6.3020225 0 0 1 8.64876,-1.4437246" opacity="1" transform="scale(-1,1)"/><path id="path4669-2-4-9" fill="none" fill-opacity="1" fill-rule="nonzero" stroke="#0b1521" stroke-dasharray="none" stroke-linecap="round" stroke-miterlimit="4" stroke-width="2.21" d="m -133.80516,22.99263 a 7.5624275,6.3020225 0 0 1 4.70438,-6.767883" opacity="1" transform="scale(-1,1)"/><path id="path4669-3-1-4" fill="none" fill-opacity="1" fill-rule="nonzero" stroke="#cd6000" stroke-dasharray="none" stroke-linecap="round" stroke-miterlimit="4" stroke-opacity="1" stroke-width="2.175" d="m 93.773194,22.745299 a 6.9618187,4.3235502 0 0 1 4.117308,-4.602634" opacity="1"/><path id="path4669-1-6-3-9" fill="none" fill-opacity="1" fill-rule="nonzero" stroke="#cd6000" stroke-dasharray="none" stroke-linecap="round" stroke-miterlimit="4" stroke-opacity="1" stroke-width="2.175" d="M 98.749064,14.789371 A 5.7523088,4.1353617 0 0 1 99.639489,9.6853122 5.7523088,4.1353617 0 0 1 106.75655,9.1535976" opacity="1"/><path id="path4669-1-2-3-1-9-0" fill="none" fill-opacity="1" fill-rule="nonzero" stroke="#cd6000" stroke-dasharray="none" stroke-linecap="round" stroke-miterlimit="4" stroke-opacity="1" stroke-width="1.899" d="m -118.72162,9.3358452 a 6.4067531,5.661931 0 0 1 5.48449,-3.295517 6.4067531,5.661931 0 0 1 5.84882,2.763239" opacity="1" transform="scale(-1,1)"/><path id="path4669-1-5-5-6-1" fill="none" fill-opacity="1" fill-rule="nonzero" stroke="#cd6000" stroke-dasharray="none" stroke-linecap="round" stroke-miterlimit="4" stroke-opacity="1" stroke-width="2.175" d="m -127.46151,14.825723 a 5.4478283,4.3276558 0 0 1 1.33243,-5.0883943 5.4478283,4.3276558 0 0 1 6.52294,-0.402451" opacity="1" transform="scale(-1,1)"/><path id="path821-9-0-6-4-8-28" fill="none" fill-opacity="1" stroke="#cd6000" stroke-dasharray="none" stroke-linecap="round" stroke-linejoin="miter" stroke-miterlimit="4" stroke-opacity="1" stroke-width="2.175" d="m 99.488536,27.817519 c 1.275474,10.878584 1.044554,24.652569 13.083424,25.932791 10.70002,-0.813223 12.14112,-13.908959 13.34368,-25.805623"/><path id="path866" fill="none" fill-rule="evenodd" stroke="#cd6000" stroke-dasharray="none" stroke-dashoffset="0" stroke-linecap="round" stroke-linejoin="miter" stroke-miterlimit="4" stroke-opacity="1" stroke-width="2.175" d="m 94.842871,27.74934 c 1.513405,-2.286545 3.838508,-1.883509 4.576728,-0.186792"/><path id="path868" fill="none" fill-rule="evenodd" stroke="#cd6000" stroke-dasharray="none" stroke-linecap="round" stroke-linejoin="miter" stroke-miterlimit="4" stroke-opacity="1" stroke-width="2.175" d="m 92.662592,25.011871 c 0.753375,-0.753214 1.129518,-1.452486 1.106199,-2.386578"/><path id="path868-7" fill="none" fill-rule="evenodd" stroke="#cd6000" stroke-dasharray="none" stroke-linecap="round" stroke-linejoin="miter" stroke-miterlimit="4" stroke-opacity="1" stroke-width="2.175" d="m 97.664875,18.203625 c 1.155563,-0.327326 1.984499,-1.769638 1.25442,-3.073667"/><g id="g4583-1-6-1" transform="matrix(0.6619134,0,0,0.76251857,103.84857,4.8916002)"><path id="path4557-8-0-0" fill="#0b1521" fill-opacity="1" fill-rule="nonzero" stroke="none" stroke-dasharray="none" stroke-miterlimit="4" stroke-width="1.89" d="m -48.632539,35.775429 a 2,4.375 0 0 1 -2.419975,-3.174399 2,4.375 0 0 1 1.439682,-5.308664 2,4.375 0 0 1 2.433606,3.12414 2,4.375 0 0 1 -1.416642,5.338241" opacity="1" transform="rotate(-66.420589)"/><path id="path4557-4-5-6-1" fill="#0b1521" fill-opacity="1" fill-rule="nonzero" stroke="none" stroke-dasharray="none" stroke-miterlimit="4" stroke-width="1.89" d="m -59.260518,11.320401 a 2,4.375 0 0 1 -2.419975,-3.1744 2,4.375 0 0 1 1.439682,-5.3086639 2,4.375 0 0 1 2.433606,3.12414 2,4.375 0 0 1 -1.416642,5.3382419" opacity="1" transform="matrix(-0.40001972,-0.91650653,-0.91650653,0.40001972,0,0)"/><path id="path4557-3-1-2-9" fill="#0b1521" fill-opacity="1" fill-rule="nonzero" stroke="none" stroke-dasharray="none" stroke-miterlimit="4" stroke-width="1.89" d="m 13.954073,67.074179 a 2,4.375 0 0 1 -2.419975,-3.1744 2,4.375 0 0 1 1.439682,-5.308663 2,4.375 0 0 1 2.433606,3.12414 2,4.375 0 0 1 -1.416642,5.338241" opacity="1" transform="rotate(0.20338494)"/></g><path id="path827-3-6-6-9-5-6" fill="none" fill-opacity="1" stroke="#cd6000" stroke-dasharray="none" stroke-linecap="round" stroke-linejoin="miter" stroke-miterlimit="4" stroke-opacity="1" stroke-width="2.175" d="m 92.662592,25.011871 c -5.719151,5.384675 -4.914007,9.03267 -3.603215,12.807958 2.383091,-1.735628 3.848287,-4.003857 4.587404,-5.95184 0.546538,-1.440431 0.335979,-1.425345 0.996202,-3.749627"/><g id="g1071" transform="matrix(1.4426554,0,0,1.5336585,66.480418,35.211399)"><path id="path5083-1" fill="#fff" fill-opacity="1" fill-rule="nonzero" stroke="none" stroke-dasharray="none" stroke-miterlimit="4" stroke-width="2.807" d="m 32.012441,-3.579859 a 4.2360187,4.386272 0 0 1 3.896572,-4.6885042 4.2360187,4.386272 0 0 1 4.549821,4.0082547 4.2360187,4.386272 0 0 1 -3.845206,4.73375573 4.2360187,4.386272 0 0 1 -4.593232,-3.95481253" opacity="1"/><path id="path5083-8-6" fill="#0b1521" fill-opacity="1" fill-rule="nonzero" stroke="none" stroke-dasharray="none" stroke-miterlimit="4" stroke-width="1.499" d="m 32.090572,-3.0617162 a 2.262718,2.3429775 0 0 1 2.081398,-2.5044184 2.262718,2.3429775 0 0 1 2.43034,2.1410553 2.262718,2.3429775 0 0 1 -2.053961,2.52858996 2.262718,2.3429775 0 0 1 -2.453528,-2.11250846" opacity="1"/><path id="path5083-0-4" fill="#fff" fill-opacity="1" fill-rule="nonzero" stroke="none" stroke-dasharray="none" stroke-miterlimit="4" stroke-width="2.137" d="M -7.5008603,28.528731 A 3.0267222,3.5582526 0 0 1 -4.71668,24.7253 a 3.0267222,3.5582526 0 0 1 3.2509404,3.251596 3.0267222,3.5582526 0 0 1 -2.7474785,3.84014 3.0267222,3.5582526 0 0 1 -3.2819583,-3.208242" opacity="1" transform="matrix(-0.02973672,0.99955777,0.99924923,0.03874253,0,0)"/><path id="path5083-8-1-8" fill="#0b1521" fill-opacity="1" fill-rule="nonzero" stroke="none" stroke-dasharray="none" stroke-miterlimit="4" stroke-width="1.116" d="m 28.695223,-3.0884248 a 1.684593,1.7443461 0 0 1 1.5496,-1.8645388 1.684593,1.7443461 0 0 1 1.809387,1.5940151 1.684593,1.7443461 0 0 1 -1.529173,1.8825346 1.684593,1.7443461 0 0 1 -1.826651,-1.5727621" opacity="1"/></g><path id="path827-3-6-6-9-1" fill="none" fill-opacity="1" stroke="#0b1521" stroke-dasharray="none" stroke-linecap="round" stroke-linejoin="miter" stroke-miterlimit="4" stroke-opacity="1" stroke-width="2.21" d="m 134.23835,23.409596 c 2.12231,2.007939 3.69274,4.126938 3.79054,4.680108 2.58941,4.058486 0.69453,9.908416 -0.54742,13.098492 -9.40881,-5.737395 -6.78471,-8.865895 -9.35656,-12.921936"/></g></g></g><metadata id="metadata3831"/></svg>