<svg xmlns="http://www.w3.org/2000/svg" xmlns:svg="http://www.w3.org/2000/svg" xmlns:xlink="http://www.w3.org/1999/xlink" id="svg3052" width="64" height="64" version="1.1"><defs id="defs3054"><linearGradient id="linearGradient4189"><stop id="stop4191" offset="0" stop-color="#204a87" stop-opacity="1"/><stop id="stop4193" offset="1" stop-color="#729fcf" stop-opacity="1"/></linearGradient><linearGradient id="linearGradient4032"><stop id="stop4034" offset="0" stop-color="#71b2f8" stop-opacity="1"/><stop id="stop4036" offset="1" stop-color="#002795" stop-opacity="1"/></linearGradient><radialGradient id="radialGradient3705" cx="148.883" cy="81.87" r="19.467" fx="148.883" fy="81.87" gradientTransform="matrix(1.6244669,-0.05136783,0.04345521,0.9993132,-102.99033,7.7040438)" gradientUnits="userSpaceOnUse" xlink:href="#linearGradient3377"/><linearGradient id="linearGradient3377"><stop id="stop3379" offset="0" stop-color="#4bff54" stop-opacity="1"/><stop id="stop3381" offset="1" stop-color="#00b800" stop-opacity="1"/></linearGradient><radialGradient id="radialGradient3703" cx="135.383" cy="97.37" r="19.467" fx="135.383" fy="97.37" gradientTransform="matrix(0.87904684,0.2250379,-0.41709097,2.0016728,56.73751,-127.99883)" gradientUnits="userSpaceOnUse" xlink:href="#linearGradient3206"/><linearGradient id="linearGradient3199"><stop id="stop3201" offset="0" stop-color="#faff2b" stop-opacity="1"/><stop id="stop3203" offset="1" stop-color="#fa0" stop-opacity="1"/></linearGradient><radialGradient id="radialGradient3692" cx="45.883" cy="28.87" r="19.467" fx="45.883" fy="28.87" gradientUnits="userSpaceOnUse" xlink:href="#linearGradient3377"/><linearGradient id="linearGradient3206"><stop id="stop3208" offset="0" stop-color="#faff2b" stop-opacity="1"/><stop id="stop3210" offset="1" stop-color="#fa0" stop-opacity="1"/></linearGradient><radialGradient id="radialGradient4030" cx="148.883" cy="81.87" r="19.467" fx="148.883" fy="81.87" gradientTransform="matrix(1.260164,-0.05136783,0.03370995,0.9993132,-43.139781,7.2044077)" gradientUnits="userSpaceOnUse" xlink:href="#linearGradient4032"/><radialGradient id="radialGradient4187" cx="35.437" cy="41.607" r="30.506" fx="35.437" fy="41.607" gradientTransform="matrix(0.80718009,-0.6317573,0.63924656,0.81674892,-19.700334,30.320775)" gradientUnits="userSpaceOnUse" xlink:href="#linearGradient4189"/><radialGradient id="radialGradient4187-6" cx="35.437" cy="41.607" r="30.506" fx="35.437" fy="41.607" gradientTransform="matrix(0.97729927,0,0,0.96923885,0.7054002,1.1269478)" gradientUnits="userSpaceOnUse" xlink:href="#linearGradient4189-7"/><linearGradient id="linearGradient4189-7"><stop id="stop4191-5" offset="0" stop-color="#064d9a" stop-opacity="1"/><stop id="stop4193-3" offset="1" stop-color="#7499ff" stop-opacity="1"/></linearGradient><linearGradient id="linearGradient3801-1-3-14-0-9" x1="-18" x2="-22" y1="18" y2="5" gradientTransform="matrix(0.76342439,0,0,0.75750425,-4.596389,2.7525637)" gradientUnits="userSpaceOnUse" xlink:href="#linearGradient3836-0-6-92-4-2"/><linearGradient id="linearGradient3836-0-6-92-4-2"><stop id="stop3838-2-7-06-8-0" offset="0" stop-color="#a40000" stop-opacity="1"/><stop id="stop3840-5-5-8-7-23" offset="1" stop-color="#ef2929" stop-opacity="1"/></linearGradient><linearGradient id="linearGradient3801-1-3-14-0-9-6" x1="-18" x2="-22" y1="18" y2="5" gradientTransform="matrix(0.76342439,0,0,0.75750425,-4.596389,2.7525637)" gradientUnits="userSpaceOnUse" xlink:href="#linearGradient3836-0-6-92-4-2-2"/><linearGradient id="linearGradient3836-0-6-92-4-2-2"><stop id="stop3838-2-7-06-8-0-9" offset="0" stop-color="#a40000" stop-opacity="1"/><stop id="stop3840-5-5-8-7-23-1" offset="1" stop-color="#ef2929" stop-opacity="1"/></linearGradient><linearGradient id="linearGradient3801-1-3-14-0-9-3" x1="-18" x2="-22" y1="18" y2="5" gradientTransform="matrix(0.76342439,0,0,0.75750425,-4.596389,2.7525637)" gradientUnits="userSpaceOnUse" xlink:href="#linearGradient3836-0-6-92-4-2-6"/><linearGradient id="linearGradient3836-0-6-92-4-2-6"><stop id="stop3838-2-7-06-8-0-0" offset="0" stop-color="#a40000" stop-opacity="1"/><stop id="stop3840-5-5-8-7-23-6" offset="1" stop-color="#ef2929" stop-opacity="1"/></linearGradient></defs><metadata id="metadata3057"/><g id="layer1"><path id="path4179" fill="url(#radialGradient4187)" fill-opacity="1" fill-rule="evenodd" stroke="#0b1521" stroke-dasharray="none" stroke-linecap="butt" stroke-linejoin="miter" stroke-miterlimit="4" stroke-opacity="1" stroke-width="2" d="M 6.2324977,28.949884 C 2.9580054,39.23663 2.101676,40.120446 3.9830209,47.201562 c 1.881345,7.081118 10.2451931,3.905362 19.6519171,8.930672 9.406724,5.025307 14.815591,6.281633 23.164058,3.197922 8.348469,-3.083711 -3.174769,-12.791692 -0.587919,-21.47177 2.586849,-8.680077 9.921607,-8.332895 13.122786,-14.551618 2.05003,-3.982465 3.075046,-7.964932 -2.18747,-15.6002322 C 50.311735,-2.2097629 35.758504,6.3812885 33.21804,7.9349589 30.149296,9.8117091 28.926219,11.361306 22.341514,8.1633821 15.756808,4.9654586 6.5852498,3.7091317 5.4094092,10.104978 4.2335688,16.500825 6.2324977,28.949884 6.2324977,28.949884 z"/><path id="path4179-5" fill="none" stroke="#729fcf" stroke-dasharray="none" stroke-linecap="butt" stroke-linejoin="miter" stroke-miterlimit="4" stroke-opacity="1" stroke-width="2" d="M 8.2389949,29.389667 C 5.1903301,38.966984 3.9342003,40.93699 5.6857972,46.15318 7.857291,52.619807 14.191996,48.986207 22.94998,53.664943 31.707962,58.343678 39.55517,60.935682 44.860657,57.101178 50.419821,53.083331 42.3094,47.479285 44.427998,37.569076 46.278012,28.915228 53.493284,28.090145 57.391406,23.160657 59.978088,19.889591 59.394023,13.565459 55.985726,8.9804476 49.29631,-0.01848865 34.809728,9.4996057 32.331033,10.741762 29.416569,12.202296 27.704272,12.842022 22.204613,10.380859 15.983779,7.5969611 7.5349896,5.4307975 7.1285281,11.385552 6.7162141,17.426046 8.2389949,29.389667 8.2389949,29.389667 z"/><g id="g3827-1-3-92-1-7" transform="matrix(0.5613787,1.5641823e-8,0,0.56576972,41.28696,26.558916)"><g id="g3797-9-5-66-7-5" transform="translate(31.322131,40.570289)"><path id="path4250-71-6-49-2-9" fill="#ef2929" stroke="#280000" stroke-dasharray="none" stroke-miterlimit="4" stroke-opacity="1" stroke-width="3.549" d="M -26.118221,5.6643347 A 8.9379793,8.8680774 0 1 1 -12.540634,17.200906 8.9379793,8.8680774 0 1 1 -26.118221,5.6643347 z"/><path id="path4250-7-3-2-5-7-2" fill="url(#linearGradient3801-1-3-14-0-9)" fill-opacity="1" stroke="#ef2929" stroke-dasharray="none" stroke-miterlimit="4" stroke-opacity="1" stroke-width="3.549" d="m -23.40227,7.9744858 a 5.3439706,5.3025298 0 1 1 8.11794,6.8981452 5.3439706,5.3025298 0 0 1 -8.11794,-6.8981452 z"/></g></g><g id="g3827-1-3-92-1-7-2" transform="matrix(0.5613787,1.5641823e-8,0,0.56576972,1.2869604,-1.4410835)"><g id="g3797-9-5-66-7-5-7" transform="translate(31.322131,40.570289)"><path id="path4250-71-6-49-2-9-0" fill="#ef2929" stroke="#280000" stroke-dasharray="none" stroke-miterlimit="4" stroke-opacity="1" stroke-width="3.549" d="M -26.118221,5.6643347 A 8.9379793,8.8680774 0 1 1 -12.540634,17.200906 8.9379793,8.8680774 0 1 1 -26.118221,5.6643347 z"/><path id="path4250-7-3-2-5-7-2-9" fill="url(#linearGradient3801-1-3-14-0-9-6)" fill-opacity="1" stroke="#ef2929" stroke-dasharray="none" stroke-miterlimit="4" stroke-opacity="1" stroke-width="3.549" d="m -23.40227,7.9744858 a 5.3439706,5.3025298 0 1 1 8.11794,6.8981452 5.3439706,5.3025298 0 0 1 -8.11794,-6.8981452 z"/></g></g><g id="g3827-1-3-92-1-7-26" transform="matrix(0.5613787,1.5641823e-8,0,0.56576972,49.248143,-21.40226)"><g id="g3797-9-5-66-7-5-1" transform="translate(31.322131,40.570289)"><path id="path4250-71-6-49-2-9-8" fill="#ef2929" stroke="#280000" stroke-dasharray="none" stroke-miterlimit="4" stroke-opacity="1" stroke-width="3.549" d="M -26.118221,5.6643347 A 8.9379793,8.8680774 0 1 1 -12.540634,17.200906 8.9379793,8.8680774 0 1 1 -26.118221,5.6643347 z"/><path id="path4250-7-3-2-5-7-2-7" fill="url(#linearGradient3801-1-3-14-0-9-3)" fill-opacity="1" stroke="#ef2929" stroke-dasharray="none" stroke-miterlimit="4" stroke-opacity="1" stroke-width="3.549" d="m -23.40227,7.9744858 a 5.3439706,5.3025298 0 1 1 8.11794,6.8981452 5.3439706,5.3025298 0 0 1 -8.11794,-6.8981452 z"/></g></g></g></svg>