<svg xmlns="http://www.w3.org/2000/svg" xmlns:svg="http://www.w3.org/2000/svg" xmlns:xlink="http://www.w3.org/1999/xlink" id="svg2980" width="64" height="64" version="1.1"><defs id="defs2982"><linearGradient id="linearGradient3864"><stop id="stop3866" offset="0" stop-color="#71b2f8" stop-opacity="1"/><stop id="stop3868" offset="1" stop-color="#002795" stop-opacity="1"/></linearGradient><linearGradient id="linearGradient3616-9" x1="901.188" x2="1267.906" y1="1190.875" y2="1190.875" gradientTransform="matrix(0.1367863,0,0,0.1367863,-122.45404,-135.82061)" gradientUnits="userSpaceOnUse" xlink:href="#linearGradient3377-28"/><linearGradient id="linearGradient3377-28"><stop id="stop3379-2" offset="0" stop-color="#fa0" stop-opacity="1"/><stop id="stop3381-9" offset="1" stop-color="#faff2b" stop-opacity="1"/></linearGradient><linearGradient id="linearGradient3383-7" x1="901.188" x2="1267.906" y1="1190.875" y2="1190.875" gradientUnits="userSpaceOnUse" xlink:href="#linearGradient3377-28"/><linearGradient id="linearGradient3616" x1="901.188" x2="1267.906" y1="1190.875" y2="1190.875" gradientTransform="matrix(0.1367863,0,0,0.1367863,-122.45404,-135.82061)" gradientUnits="userSpaceOnUse" xlink:href="#linearGradient3377-2"/><linearGradient id="linearGradient3377-2"><stop id="stop3379-6" offset="0" stop-color="#fa0" stop-opacity="1"/><stop id="stop3381-7" offset="1" stop-color="#faff2b" stop-opacity="1"/></linearGradient><linearGradient id="linearGradient3383-6" x1="901.188" x2="1267.906" y1="1190.875" y2="1190.875" gradientUnits="userSpaceOnUse" xlink:href="#linearGradient3377-2"/><radialGradient id="radialGradient6355" cx="1103.64" cy="1424.447" r="194.406" fx="1103.64" fy="1424.447" gradientTransform="matrix(1.4307499,-1.3605156e-7,1.202713e-8,0.1264801,-475.3928,1244.2826)" gradientUnits="userSpaceOnUse" xlink:href="#linearGradient6349"/><linearGradient id="linearGradient3383" x1="901.188" x2="1267.906" y1="1190.875" y2="1190.875" gradientUnits="userSpaceOnUse" xlink:href="#linearGradient3377"/><linearGradient id="linearGradient3377"><stop id="stop3379" offset="0" stop-color="#fa0" stop-opacity="1"/><stop id="stop3381" offset="1" stop-color="#faff2b" stop-opacity="1"/></linearGradient><linearGradient id="linearGradient6349"><stop id="stop6351" offset="0" stop-color="#000" stop-opacity="1"/><stop id="stop6353" offset="1" stop-color="#000" stop-opacity="0"/></linearGradient><linearGradient id="linearGradient3025" x1="901.188" x2="1267.906" y1="1190.875" y2="1190.875" gradientUnits="userSpaceOnUse" xlink:href="#linearGradient3377"/><linearGradient id="linearGradient3027" x1="901.188" x2="1267.906" y1="1190.875" y2="1190.875" gradientUnits="userSpaceOnUse" xlink:href="#linearGradient3377-2"/><linearGradient id="linearGradient3029" x1="901.188" x2="1267.906" y1="1190.875" y2="1190.875" gradientUnits="userSpaceOnUse" xlink:href="#linearGradient3377-28"/><linearGradient id="linearGradient3773" x1="22.117" x2="17.329" y1="55.718" y2="21.311" gradientTransform="translate(-0.017371,-2.4277202)" gradientUnits="userSpaceOnUse" xlink:href="#linearGradient3767"/><linearGradient id="linearGradient3767"><stop id="stop3769" offset="0" stop-color="#3465a4" stop-opacity="1"/><stop id="stop3771" offset="1" stop-color="#729fcf" stop-opacity="1"/></linearGradient><linearGradient id="linearGradient3783" x1="53.897" x2="47.502" y1="51.18" y2="21.837" gradientTransform="translate(-0.017371,-2.4277202)" gradientUnits="userSpaceOnUse" xlink:href="#linearGradient3777"/><linearGradient id="linearGradient3777"><stop id="stop3779" offset="0" stop-color="#204a87" stop-opacity="1"/><stop id="stop3781" offset="1" stop-color="#3465a4" stop-opacity="1"/></linearGradient><radialGradient id="radialGradient3800" cx="1" cy="45" r="41" fx="1" fy="45" gradientTransform="matrix(0.93348213,-2.2905276e-8,0,0.28687573,0.06651751,32.090592)" gradientUnits="userSpaceOnUse" xlink:href="#linearGradient3794"/><linearGradient id="linearGradient3794"><stop id="stop3796" offset="0" stop-color="#000" stop-opacity="1"/><stop id="stop3798" offset="1" stop-color="#000" stop-opacity="0"/></linearGradient><radialGradient id="radialGradient3071" cx="1" cy="45" r="41" fx="1" fy="45" gradientTransform="matrix(0.93348213,-2.2905276e-8,0,0.28687573,0.06651751,32.090592)" gradientUnits="userSpaceOnUse" xlink:href="#linearGradient3794"/></defs><metadata id="metadata2985"/><g id="layer1"><path id="path3024" fill="url(#radialGradient3071)" fill-opacity="1" stroke="none" d="m 42,45 a 41,13 0 1 1 -82,0 41,13 0 1 1 82,0 z" transform="matrix(0.73170732,0,0,0.80769231,31.250922,16.726126)"/><path id="path2993" fill="#729fcf" stroke="#0b1521" stroke-linecap="butt" stroke-linejoin="round" stroke-opacity="1" stroke-width="2" d="m 2.982629,14.57228 34,6 23.999999,-8 -29.999999,-4 z"/><path id="path2995" fill="url(#linearGradient3783)" fill-opacity="1" stroke="#0b1521" stroke-linecap="butt" stroke-linejoin="round" stroke-opacity="1" stroke-width="2" d="m 60.982628,12.57228 0,36 -23.999999,10 0,-38 z"/><path id="path3825-3" fill="url(#linearGradient3773)" fill-opacity="1" fill-rule="evenodd" stroke="#0b1521" stroke-dasharray="none" stroke-dashoffset="0" stroke-linecap="butt" stroke-linejoin="round" stroke-miterlimit="4" stroke-opacity="1" stroke-width="2" d="m 2.982629,14.57228 34,6 0,38 -34,-6 z" display="inline" enable-background="accumulate" overflow="visible" visibility="visible" style="marker:none"/><path id="path3765" fill="none" stroke="#729fcf" stroke-linecap="butt" stroke-linejoin="miter" stroke-opacity="1" stroke-width="2" d="M 4.982629,17 4.991329,50.919116 35,56.187915 34.9913,22.254301 z"/><path id="path3775" fill="none" stroke="#3465a4" stroke-linecap="butt" stroke-linejoin="miter" stroke-opacity="1" stroke-width="2" d="m 38.995059,22.006113 -0.01226,33.535301 20.001109,-8.300993 3.6e-4,-31.867363 z"/><g id="g3973" transform="matrix(0.98259094,0,0,1,-534.57346,-68.336561)"><g id="g3090" transform="translate(-0.50884952,-0.49999704)"><path id="path3969" fill="#fff" stroke="#302b00" stroke-linecap="butt" stroke-linejoin="round" stroke-opacity="1" stroke-width="2.018" d="m 580.17373,91.836561 5.08859,17.999999 -17.3012,-6 -2.03543,-3.999999 10.17717,-10 z"/><path id="path3843" fill="#fce94f" stroke="none" d="m 559.81938,71.836555 -4.07087,4 20.35435,20.000006 c 0,-3 1.01772,-4 4.07087,-4 z"/><path id="path3843-7" fill="#edd400" stroke="none" d="m 555.74851,75.836548 -4.07087,4.000013 20.35435,20 c 0,-3 1.01772,-4 4.07087,-4 z"/><path id="path3843-5" fill="#c4a000" stroke="none" d="m 551.67764,79.836561 -4.07087,4 20.35435,19.999999 c 0,-3 1.01772,-3.999999 4.07087,-3.999999 z"/><path id="path3888" fill="none" stroke="#edd400" stroke-linecap="round" stroke-linejoin="miter" stroke-opacity="1" stroke-width="2.018" d="m 550.65993,81.636553 18.31891,18.00001"/><path id="path3888-5" fill="none" stroke="#fce94f" stroke-linecap="round" stroke-linejoin="miter" stroke-opacity="1" stroke-width="2.018" d="M 554.73079,77.636557 573.04971,95.63656"/><path id="path3843-5-6" fill="none" stroke="#302b00" stroke-linecap="butt" stroke-linejoin="round" stroke-opacity="1" stroke-width="2.018" d="m 559.81938,71.836558 -4.07087,4 20.35435,20.000003 c 0,-3 1.01772,-4 4.07087,-4 z"/><path id="path3843-5-6-2" fill="none" stroke="#302b00" stroke-linecap="butt" stroke-linejoin="round" stroke-opacity="1" stroke-width="2.018" d="m 555.74851,75.836558 -4.07087,4.000003 20.35435,20 c 0,-3 1.01772,-4 4.07087,-4 z"/><path id="path3843-5-6-9" fill="none" stroke="#302b00" stroke-linecap="butt" stroke-linejoin="round" stroke-opacity="1" stroke-width="2.018" d="m 551.67764,79.836561 -4.07087,4 20.35435,19.999999 c 0,-3 1.01772,-3.999999 4.07087,-3.999999 z"/><path id="path3971" fill="#302b00" stroke="#302b00" stroke-linecap="butt" stroke-linejoin="round" stroke-opacity="1" stroke-width="1.009" d="m 583.22688,100.83656 c -2.03543,0 -5.66928,2.51623 -6.1063,5 l 8.14174,4 -2.03544,-8 0,0"/></g></g></g></svg>