<svg xmlns="http://www.w3.org/2000/svg" xmlns:svg="http://www.w3.org/2000/svg" xmlns:xlink="http://www.w3.org/1999/xlink" id="svg3052" width="64" height="64" version="1.1"><defs id="defs3054"><linearGradient id="linearGradient4032"><stop id="stop4034" offset="0" stop-color="#71b2f8" stop-opacity="1"/><stop id="stop4036" offset="1" stop-color="#002795" stop-opacity="1"/></linearGradient><radialGradient id="radialGradient3705" cx="148.883" cy="81.87" r="19.467" fx="148.883" fy="81.87" gradientTransform="matrix(1.6244669,-0.05136783,0.04345521,0.9993132,-102.99033,7.7040438)" gradientUnits="userSpaceOnUse" xlink:href="#linearGradient3377"/><linearGradient id="linearGradient3377"><stop id="stop3379" offset="0" stop-color="#4bff54" stop-opacity="1"/><stop id="stop3381" offset="1" stop-color="#00b800" stop-opacity="1"/></linearGradient><radialGradient id="radialGradient3703" cx="135.383" cy="97.37" r="19.467" fx="135.383" fy="97.37" gradientTransform="matrix(0.87904684,0.2250379,-0.41709097,2.0016728,56.73751,-127.99883)" gradientUnits="userSpaceOnUse" xlink:href="#linearGradient3206"/><linearGradient id="linearGradient3199"><stop id="stop3201" offset="0" stop-color="#faff2b" stop-opacity="1"/><stop id="stop3203" offset="1" stop-color="#fa0" stop-opacity="1"/></linearGradient><radialGradient id="radialGradient3692" cx="45.883" cy="28.87" r="19.467" fx="45.883" fy="28.87" gradientUnits="userSpaceOnUse" xlink:href="#linearGradient3377"/><linearGradient id="linearGradient3206"><stop id="stop3208" offset="0" stop-color="#faff2b" stop-opacity="1"/><stop id="stop3210" offset="1" stop-color="#fa0" stop-opacity="1"/></linearGradient><radialGradient id="radialGradient4030" cx="148.883" cy="81.87" r="19.467" fx="148.883" fy="81.87" gradientTransform="matrix(1.260164,-0.05136783,0.03370995,0.9993132,-43.139781,7.2044077)" gradientUnits="userSpaceOnUse" xlink:href="#linearGradient4032"/><linearGradient id="linearGradient3801-1-3-14-0-9-3" x1="-18" x2="-22" y1="18" y2="5" gradientTransform="matrix(0.76342439,0,0,0.75750425,-4.596389,2.7525637)" gradientUnits="userSpaceOnUse" xlink:href="#linearGradient3836-0-6-92-4-2-6"/><linearGradient id="linearGradient3836-0-6-92-4-2-6"><stop id="stop3838-2-7-06-8-0-7" offset="0" stop-color="#a40000" stop-opacity="1"/><stop id="stop3840-5-5-8-7-23-5" offset="1" stop-color="#ef2929" stop-opacity="1"/></linearGradient><linearGradient id="linearGradient3801-1-3-14-0-9" x1="-18" x2="-22" y1="18" y2="5" gradientTransform="matrix(0.76342439,0,0,0.75750425,-4.596389,2.7525637)" gradientUnits="userSpaceOnUse" xlink:href="#linearGradient3836-0-6-92-4-2"/><linearGradient id="linearGradient3836-0-6-92-4-2"><stop id="stop3838-2-7-06-8-0" offset="0" stop-color="#a40000" stop-opacity="1"/><stop id="stop3840-5-5-8-7-23" offset="1" stop-color="#ef2929" stop-opacity="1"/></linearGradient><linearGradient id="linearGradient3801-1-3-14-0-9-3-3" x1="-18" x2="-22" y1="18" y2="5" gradientTransform="matrix(0.76342439,0,0,0.75750425,-4.596389,2.7525637)" gradientUnits="userSpaceOnUse" xlink:href="#linearGradient3836-0-6-92-4-2-6-6"/><linearGradient id="linearGradient3836-0-6-92-4-2-6-6"><stop id="stop3838-2-7-06-8-0-7-7" offset="0" stop-color="#a40000" stop-opacity="1"/><stop id="stop3840-5-5-8-7-23-5-5" offset="1" stop-color="#ef2929" stop-opacity="1"/></linearGradient><linearGradient id="linearGradient3801-1-3-14-0-9-35" x1="-18" x2="-22" y1="18" y2="5" gradientTransform="matrix(0.76342439,0,0,0.75750425,-4.596389,2.7525637)" gradientUnits="userSpaceOnUse" xlink:href="#linearGradient3836-0-6-92-4-2-62"/><linearGradient id="linearGradient3836-0-6-92-4-2-62"><stop id="stop3838-2-7-06-8-0-9" offset="0" stop-color="#a40000" stop-opacity="1"/><stop id="stop3840-5-5-8-7-23-1" offset="1" stop-color="#ef2929" stop-opacity="1"/></linearGradient><linearGradient id="linearGradient3801-1-3-14-0-9-3-7" x1="-18" x2="-22" y1="18" y2="5" gradientTransform="matrix(0.76342439,0,0,0.75750425,-4.596389,2.7525637)" gradientUnits="userSpaceOnUse" xlink:href="#linearGradient3836-0-6-92-4-2-6-9"/><linearGradient id="linearGradient3836-0-6-92-4-2-6-9"><stop id="stop3838-2-7-06-8-0-7-2" offset="0" stop-color="#a40000" stop-opacity="1"/><stop id="stop3840-5-5-8-7-23-5-0" offset="1" stop-color="#ef2929" stop-opacity="1"/></linearGradient><linearGradient id="linearGradient3801-1-3-14-0-9-2" x1="-18" x2="-22" y1="18" y2="5" gradientTransform="matrix(0.76342439,0,0,0.75750425,-4.596389,2.7525637)" gradientUnits="userSpaceOnUse" xlink:href="#linearGradient3836-0-6-92-4-2-3"/><linearGradient id="linearGradient3836-0-6-92-4-2-3"><stop id="stop3838-2-7-06-8-0-75" offset="0" stop-color="#a40000" stop-opacity="1"/><stop id="stop3840-5-5-8-7-23-9" offset="1" stop-color="#ef2929" stop-opacity="1"/></linearGradient></defs><metadata id="metadata3057"/><g id="layer1"><path id="path3165-22" fill="none" stroke="#0b1521" stroke-linecap="butt" stroke-linejoin="miter" stroke-opacity="1" stroke-width="8" d="m 26,36 30,10e-7"/><path id="path3165-9-8" fill="none" stroke="#3465a4" stroke-linecap="butt" stroke-linejoin="miter" stroke-opacity="1" stroke-width="4" d="m 26,36 30,10e-7"/><path id="path3165-9-1-9" fill="none" stroke="#729fcf" stroke-linecap="butt" stroke-linejoin="miter" stroke-opacity="1" stroke-width="2" d="M 26,34.999999 56,35"/><g id="g3827-1-3-92-1-7-3-3" transform="matrix(0.5613787,1.5641823e-8,0,0.56576972,49.28696,6.558916)"><g id="g3797-9-5-66-7-5-5-1" transform="translate(31.322131,40.570289)"><path id="path4250-71-6-49-2-9-6-9" fill="#ef2929" stroke="#280000" stroke-dasharray="none" stroke-miterlimit="4" stroke-opacity="1" stroke-width="3.549" d="M -26.118221,5.6643347 A 8.9379793,8.8680774 0 1 1 -12.540634,17.200906 8.9379793,8.8680774 0 1 1 -26.118221,5.6643347 z"/><path id="path4250-7-3-2-5-7-2-2-4" fill="url(#linearGradient3801-1-3-14-0-9-3-7)" fill-opacity="1" stroke="#ef2929" stroke-dasharray="none" stroke-miterlimit="4" stroke-opacity="1" stroke-width="3.549" d="m -23.40227,7.9744858 a 5.3439706,5.3025298 0 1 1 8.11794,6.8981452 5.3439706,5.3025298 0 0 1 -8.11794,-6.8981452 z"/></g></g><path id="path3165-2" fill="none" stroke="#0b1521" stroke-linecap="butt" stroke-linejoin="miter" stroke-opacity="1" stroke-width="8" d="M 28,36 28,8.000001"/><path id="path3165-9-7" fill="none" stroke="#3465a4" stroke-linecap="butt" stroke-linejoin="miter" stroke-opacity="1" stroke-width="4" d="M 28,36 28,8.000001"/><path id="path3165-9-1-0" fill="none" stroke="#729fcf" stroke-linecap="butt" stroke-linejoin="miter" stroke-opacity="1" stroke-width="2" d="M 27,36 27,8.000001"/><path id="path3165" fill="none" stroke="#0b1521" stroke-linecap="butt" stroke-linejoin="miter" stroke-opacity="1" stroke-width="8" d="M 8,56 28,36.000001"/><path id="path3165-9" fill="none" stroke="#3465a4" stroke-linecap="butt" stroke-linejoin="miter" stroke-opacity="1" stroke-width="4" d="M 8,56 28,36.000001"/><path id="path3165-9-1" fill="none" stroke="#729fcf" stroke-linecap="butt" stroke-linejoin="miter" stroke-opacity="1" stroke-width="2" d="m 7.3,55.3 20,-19.999999"/><g id="g3827-1-3-92-1-7" transform="matrix(0.5613787,1.5641823e-8,0,0.56576972,1.28696,26.558916)"><g id="g3797-9-5-66-7-5" transform="translate(31.322131,40.570289)"><path id="path4250-71-6-49-2-9" fill="#ef2929" stroke="#280000" stroke-dasharray="none" stroke-miterlimit="4" stroke-opacity="1" stroke-width="3.549" d="M -26.118221,5.6643347 A 8.9379793,8.8680774 0 1 1 -12.540634,17.200906 8.9379793,8.8680774 0 1 1 -26.118221,5.6643347 z"/><path id="path4250-7-3-2-5-7-2" fill="url(#linearGradient3801-1-3-14-0-9)" fill-opacity="1" stroke="#ef2929" stroke-dasharray="none" stroke-miterlimit="4" stroke-opacity="1" stroke-width="3.549" d="m -23.40227,7.9744858 a 5.3439706,5.3025298 0 1 1 8.11794,6.8981452 5.3439706,5.3025298 0 0 1 -8.11794,-6.8981452 z"/></g></g><g id="g3827-1-3-92-1-7-3" transform="matrix(0.5613787,1.5641823e-8,0,0.56576972,21.28696,6.558916)"><g id="g3797-9-5-66-7-5-5" transform="translate(31.322131,40.570289)"><path id="path4250-71-6-49-2-9-6" fill="#ef2929" stroke="#280000" stroke-dasharray="none" stroke-miterlimit="4" stroke-opacity="1" stroke-width="3.549" d="M -26.118221,5.6643347 A 8.9379793,8.8680774 0 1 1 -12.540634,17.200906 8.9379793,8.8680774 0 1 1 -26.118221,5.6643347 z"/><path id="path4250-7-3-2-5-7-2-2" fill="url(#linearGradient3801-1-3-14-0-9-3)" fill-opacity="1" stroke="#ef2929" stroke-dasharray="none" stroke-miterlimit="4" stroke-opacity="1" stroke-width="3.549" d="m -23.40227,7.9744858 a 5.3439706,5.3025298 0 1 1 8.11794,6.8981452 5.3439706,5.3025298 0 0 1 -8.11794,-6.8981452 z"/></g></g><g id="g3827-1-3-92-1-7-3-2" transform="matrix(0.5613787,1.5641823e-8,0,0.56576972,21.28696,-21.441084)"><g id="g3797-9-5-66-7-5-5-6" transform="translate(31.322131,40.570289)"><path id="path4250-71-6-49-2-9-6-1" fill="#ef2929" stroke="#280000" stroke-dasharray="none" stroke-miterlimit="4" stroke-opacity="1" stroke-width="3.549" d="M -26.118221,5.6643347 A 8.9379793,8.8680774 0 1 1 -12.540634,17.200906 8.9379793,8.8680774 0 1 1 -26.118221,5.6643347 z"/><path id="path4250-7-3-2-5-7-2-2-8" fill="url(#linearGradient3801-1-3-14-0-9-3-3)" fill-opacity="1" stroke="#ef2929" stroke-dasharray="none" stroke-miterlimit="4" stroke-opacity="1" stroke-width="3.549" d="m -23.40227,7.9744858 a 5.3439706,5.3025298 0 1 1 8.11794,6.8981452 5.3439706,5.3025298 0 0 1 -8.11794,-6.8981452 z"/></g></g></g></svg>