<svg xmlns="http://www.w3.org/2000/svg" xmlns:osb="http://www.openswatchbook.org/uri/2009/osb" xmlns:svg="http://www.w3.org/2000/svg" xmlns:xlink="http://www.w3.org/1999/xlink" id="svg3364" width="64" height="64" version="1.1"><defs id="defs3366"><linearGradient id="linearGradient4187"><stop id="stop4189" offset="0" stop-color="#7a6600" stop-opacity="1"/><stop id="stop4191" offset="1" stop-color="#ffe400" stop-opacity=".608"/></linearGradient><linearGradient id="linearGradient4178" osb:paint="gradient"><stop id="stop4180" offset="0" stop-color="#d3cc00" stop-opacity=".443"/><stop id="stop4182" offset="1" stop-color="#ffef00" stop-opacity="1"/></linearGradient><linearGradient id="linearGradient4166"><stop id="stop4168" offset="0" stop-color="#7a6600" stop-opacity="1"/><stop id="stop4170" offset="1" stop-color="#ffe400" stop-opacity="1"/></linearGradient><linearGradient id="linearGradient4513" osb:paint="solid"><stop id="stop4515" offset="0" stop-color="#ff0900" stop-opacity="1"/></linearGradient><marker id="Arrow2Lstart" orient="auto" overflow="visible" refX="0" refY="0"><path id="path3909" fill-rule="evenodd" stroke-linejoin="round" stroke-width=".625" d="M 8.7185878,4.0337352 L -2.2072895,0.016013256 L 8.7185884,-4.0017078 C 6.9730900,-1.6296469 6.9831476,1.6157441 8.7185878,4.0337352 z" transform="scale(1.1) translate(1,0)"/></marker><linearGradient id="linearGradient3864" osb:paint="gradient"><stop id="stop3866" offset="0" stop-color="#71b2f8" stop-opacity=".443"/><stop id="stop3868" offset="1" stop-color="#002795" stop-opacity="1"/></linearGradient><radialGradient id="radialGradient2571" cx="342.583" cy="27.257" r="19.571" fx="342.583" fy="27.257" gradientTransform="matrix(1.6258409,0.5434973,-8.8819886e-2,0.2656996,-215.02413,-170.90186)" gradientUnits="userSpaceOnUse" xlink:href="#linearGradient3864"/><radialGradient id="radialGradient3352" cx="345.284" cy="15.561" r="19.571" fx="345.284" fy="15.561" gradientTransform="translate(-0.1767767,-2.6516504)" gradientUnits="userSpaceOnUse" xlink:href="#linearGradient3593"/><linearGradient id="linearGradient3593"><stop id="stop3595" offset="0" stop-color="#c8e0f9" stop-opacity="1"/><stop id="stop3597" offset="1" stop-color="#637dca" stop-opacity="1"/></linearGradient><radialGradient id="radialGradient3354" cx="330.638" cy="39.963" r="19.571" fx="330.638" fy="39.963" gradientTransform="translate(-0.1767767,-2.6516504)" gradientUnits="userSpaceOnUse" xlink:href="#linearGradient3593"/><radialGradient id="radialGradient3369" cx="342.583" cy="27.257" r="19.571" fx="342.583" fy="27.257" gradientTransform="matrix(1.6258409,0.5434973,-8.8819886e-2,0.2656996,-461.81066,-173.06271)" gradientUnits="userSpaceOnUse" xlink:href="#linearGradient3864"/><linearGradient id="linearGradient3828" x1="20.383" x2="52.727" y1="32.634" y2="32.634" gradientTransform="matrix(1.1630793,0,0,1.1396343,77.483402,3.4151415)" gradientUnits="userSpaceOnUse" xlink:href="#linearGradient4178"/><linearGradient id="linearGradient3828-2" x1="20.383" x2="52.727" y1="32.634" y2="32.634" gradientUnits="userSpaceOnUse" xlink:href="#linearGradient3864-1"/><linearGradient id="linearGradient3864-1"><stop id="stop3866-6" offset="0" stop-color="#71b2f8" stop-opacity="1"/><stop id="stop3868-7" offset="1" stop-color="#002795" stop-opacity="1"/></linearGradient><linearGradient id="linearGradient3845" x1="20.383" x2="52.727" y1="32.634" y2="32.634" gradientTransform="matrix(1.1630793,0,0,1.1396343,53.744012,14.322778)" gradientUnits="userSpaceOnUse" xlink:href="#linearGradient4166"/><linearGradient id="linearGradient4179" x1="-6.898" x2="27.606" y1="38.97" y2="48.85" gradientTransform="translate(80,0)" gradientUnits="userSpaceOnUse" xlink:href="#linearGradient4187"/></defs><metadata id="metadata3369"/><g id="layer1"><path id="path3881-2" fill="#fce94f" stroke="#302b00" stroke-linecap="butt" stroke-linejoin="round" stroke-opacity="1" stroke-width="2" d="M 59,39 C 52,49 34,57 21,57 L 5,51 c 13,0 23,-8 30,-18 z"/><path id="path3861-56" fill="#c4a000" stroke="#302b00" stroke-linecap="butt" stroke-linejoin="round" stroke-opacity="1" stroke-width="2" d="M 21,57 21,41 C 33,40 43,25 47,13 L 59,39 C 52,49 34,57 21,57 z"/><path id="path3881" fill="#fce94f" stroke="#302b00" stroke-linecap="butt" stroke-linejoin="round" stroke-opacity="1" stroke-width="2" d="M 59,39 C 52,49 34,57 21,57 L 5,51 c 13,0 23,-8 30,-18 z" opacity=".6"/><path id="path3861-5" fill="#c4a000" stroke="#302b00" stroke-linecap="butt" stroke-linejoin="round" stroke-opacity="1" stroke-width="2" d="M 5,51 5,35 C 17,34 19,19 23,7 L 35,33 C 28,43 18,51 5,51 z"/><g id="g3836" transform="translate(48,4)"><path id="path3031" fill="none" stroke="#a40000" stroke-linecap="butt" stroke-linejoin="round" stroke-opacity="1" stroke-width="6" d="m -43,31 16,6 0,16 -16,-6 z"/><path id="path3031-6" fill="none" stroke="#ef2929" stroke-linecap="butt" stroke-linejoin="round" stroke-opacity="1" stroke-width="2" d="m -43,31 16,6 0,16 -16,-6 z"/></g><g id="g4027"><path id="path3942" fill="none" stroke="#280000" stroke-dasharray="8 16" stroke-dashoffset="1.6" stroke-linecap="round" stroke-linejoin="miter" stroke-miterlimit="4" stroke-opacity="1" stroke-width="8" d="M 6,48 C 32,48 47,44 58,6"/><path id="path3942-7" fill="none" stroke="#c00" stroke-dasharray="8 16" stroke-dashoffset="1.6" stroke-linecap="round" stroke-linejoin="miter" stroke-miterlimit="4" stroke-opacity="1" stroke-width="4" d="M 6,48 C 32,48 47,44 58,6"/><path id="path3942-7-0" fill="none" stroke="#ef2929" stroke-dasharray="8 16" stroke-dashoffset="1.6" stroke-linecap="round" stroke-linejoin="miter" stroke-miterlimit="4" stroke-opacity="1" stroke-width="2" d="M 6,47 C 32,47 46.257799,43.628016 57.257799,5.6280162"/></g><path id="path3861" fill="#c4a000" stroke="#302b00" stroke-linecap="butt" stroke-linejoin="round" stroke-opacity="1" stroke-width="2" d="M 21,57 21,41 C 33,40 43,25 47,13 L 59,39 C 52,49 34,57 21,57 z" opacity=".6"/><path id="path3881-3" fill="#fce94f" stroke="#302b00" stroke-linecap="butt" stroke-linejoin="round" stroke-opacity="1" stroke-width="2" d="M 47,13 C 43,25 33,41 21,41 L 5,35 C 17,34 19,19 23,7 z"/><path id="path3922" fill="none" stroke="#a40000" stroke-dasharray="none" stroke-linecap="round" stroke-linejoin="round" stroke-miterlimit="4" stroke-opacity="1" stroke-width="6" d="m 23,7 24,6 12,26"/><path id="path3922-9" fill="none" stroke="#ef2929" stroke-dasharray="none" stroke-linecap="round" stroke-linejoin="round" stroke-miterlimit="4" stroke-opacity="1" stroke-width="2" d="m 23,7 24,6 12,26"/><path id="path4032" fill="none" stroke="#a40000" stroke-dasharray="none" stroke-linecap="round" stroke-linejoin="round" stroke-miterlimit="4" stroke-opacity="1" stroke-width="6" d="m 5,35 16,6 0,16"/><path id="path4034" fill="none" stroke="#ef2929" stroke-dasharray="none" stroke-linecap="round" stroke-linejoin="round" stroke-miterlimit="4" stroke-opacity="1" stroke-width="2" d="m 5,41 0,-6 16,6 0,16 -9,-3.4"/></g></svg>