<svg xmlns="http://www.w3.org/2000/svg" xmlns:freecad="http://www.freecadweb.org/wiki/index.php?title=Svg_Namespace" width="594mm" height="420mm" version="1.1" viewBox="0 0 594 420"><g><rect id="drawing-border" width="564" height="400" x="20" y="10" fill="none" stroke="#000" stroke-linecap="miter" stroke-miterlimit="4" stroke-width=".35"/><g transform="translate(384,123)"><g id="titleblock-structure" fill="none" stroke="#000" stroke-linecap="miter" stroke-miterlimit="4" stroke-width=".35"><rect width="180" height="60" x="20" y="227"/><path d="m 20,239 h 180"/><path d="m 80,227 v 12"/><path d="m 140,239 v 48"/><path d="m 160,239 v 12"/><path d="m 180,239 v 12"/><path d="m 140,251 h 60"/><path d="m 140,275 h 60"/><path d="m 180,275 v 12"/></g><g id="titleblock-text-non-editable" fill="#000" font-family="osifont" font-size="3" text-anchor="start" xml:space="preserve"><text x="21" y="230">Created by:</text><text x="81" y="230">Title:</text><text x="21" y="242">Supplementary information:</text><text x="141" y="242">Size:</text><text x="161" y="242">Sheet:</text><text x="181" y="242">Scale:</text><text x="141" y="254">Part number:</text><text x="141" y="266">Drawing number:</text><text x="141" y="278">Date:</text><text x="181" y="278">Revision:</text></g><g id="titleblock-text-editable" fill="#000" font-family="osifont" font-size="5" text-anchor="middle" xml:space="preserve"><text x="50" y="236" freecad:editable="AUTHOR NAME"><tspan>AUTHOR NAME</tspan></text><text x="140" y="236" freecad:editable="DRAWING TITLE"><tspan>DRAWING TITLE</tspan></text><text x="80" y="262" freecad:editable="FreeCAD DRAWING"><tspan>FreeCAD DRAWING</tspan></text><text x="150" y="248" freecad:editable="FC-SI"><tspan>A2</tspan></text><text x="170" y="248" freecad:editable="FC-SH"><tspan>X / Y</tspan></text><text x="190" y="248" freecad:editable="FC-SC"><tspan>SCALE</tspan></text><text x="170" y="260" freecad:editable="PN"><tspan>PN</tspan></text><text x="170" y="272" freecad:editable="DN"><tspan>DN</tspan></text><text x="160" y="284" freecad:editable="FC-DATE"><tspan>DD/MM/YYYY</tspan></text><text x="190" y="284" freecad:editable="FC-REV"><tspan>REV A</tspan></text></g><g id="freecad-logo" fill="none" fill-rule="evenodd" stroke="#000" stroke-width=".35" display="inline"><path d="m0.1524 0.15254v8.8549h1.9744v-3.4652h1.396v-1.3661h-1.396v-1.4745h3.4391v-2.5441l-5.4135-0.005z" transform="translate(128.5,276)"/><path d="m7.7927 3.4504-0.50715-0.176-0.48387-1.2366-0.76115 0.04-0.34718 1.2787-0.4859 0.23269-1.2119-0.53015-0.51188 0.56882 0.65892 1.1485-0.18006 0.50567-1.2366 0.48387 0.044064 0.76263 1.2787 0.34718 0.23269 0.4859-0.53421 1.2104 0.56882 0.51188 1.1485-0.65891 0.50973 0.18155 0.4798 1.2351 0.7667-0.04258 0.34311-1.2802 0.4859-0.23269 1.2145 0.5357 0.51188-0.56882-0.65891-1.1485 0.17748-0.51122 1.2351-0.4798-0.03851-0.76521-1.2802-0.34311-0.23269-0.4859 0.53163-1.216-0.56881-0.51184zm-0.5715 1.2244 0.23576 0.13679 0.20426 0.18519 0.16353 0.22101 0.11763 0.24572 0.06916 0.26489 0.01146 0.27146-0.03921 0.27139-0.08948 0.25764-0.14234 0.23834-0.17964 0.20167-0.22101 0.16353-0.24572 0.11763-0.26489 0.06916-0.27295 0.01553-0.2719-0.04-0.2576-0.089-0.2383-0.143-0.2002-0.183-0.165-0.217-0.1177-0.246-0.0676-0.269-0.0156-0.273 0.039206-0.2714 0.089484-0.25764 0.14085-0.23427 0.18113-0.20574 0.22101-0.16352 0.24572-0.11763 0.26895-0.06768 0.27147-0.01146 0.27139 0.03921 0.25764 0.08948z" transform="translate(128.5,276)"/></g></g></g></svg>