<svg xmlns="http://www.w3.org/2000/svg" xmlns:svg="http://www.w3.org/2000/svg" xmlns:xlink="http://www.w3.org/1999/xlink" id="svg2860" width="64" height="64" version="1.1"><defs id="defs2862"><radialGradient id="radialGradient3703" cx="135.383" cy="97.37" r="19.467" fx="135.383" fy="97.37" gradientTransform="matrix(0.97435,0.2250379,-0.4623105,2.0016728,48.487554,-127.99883)" gradientUnits="userSpaceOnUse" xlink:href="#linearGradient3377"/><linearGradient id="linearGradient3377"><stop id="stop3379" offset="0" stop-color="#faff2b" stop-opacity="1"/><stop id="stop3381" offset="1" stop-color="#fa0" stop-opacity="1"/></linearGradient><radialGradient id="radialGradient3705" cx="148.883" cy="81.87" r="19.467" fx="148.883" fy="81.87" gradientTransform="matrix(1.3852588,-0.05136783,0.03705629,0.9993132,-60.392403,7.7040438)" gradientUnits="userSpaceOnUse" xlink:href="#linearGradient3377"/><radialGradient id="radialGradient3703-8" cx="135.383" cy="97.37" r="19.467" fx="135.383" fy="97.37" gradientTransform="matrix(0.97435,0.2250379,-0.4623105,2.0016728,48.487554,-127.99883)" gradientUnits="userSpaceOnUse" xlink:href="#linearGradient3377-4"/><linearGradient id="linearGradient3377-4"><stop id="stop3379-3" offset="0" stop-color="#faff2b" stop-opacity="1"/><stop id="stop3381-0" offset="1" stop-color="#fa0" stop-opacity="1"/></linearGradient><linearGradient id="linearGradient3865" x1="32.558" x2="26.302" y1="32.918" y2="12.207" gradientUnits="userSpaceOnUse" xlink:href="#linearGradient3859"/><linearGradient id="linearGradient3859"><stop id="stop3861" offset="0" stop-color="#edd400" stop-opacity="1"/><stop id="stop3863" offset="1" stop-color="#fce94f" stop-opacity="1"/></linearGradient><linearGradient id="linearGradient3857" x1="-11" x2="-18" y1="26" y2="14" gradientTransform="translate(54,8.0000002)" gradientUnits="userSpaceOnUse" spreadMethod="reflect" xlink:href="#linearGradient3851"/><linearGradient id="linearGradient3851"><stop id="stop3853" offset="0" stop-color="#c4a000" stop-opacity="1"/><stop id="stop3855" offset="1" stop-color="#fce94f" stop-opacity="1"/></linearGradient><linearGradient id="linearGradient3071" x1="-11" x2="-18" y1="26" y2="14" gradientTransform="translate(54,8.0000002)" gradientUnits="userSpaceOnUse" spreadMethod="reflect" xlink:href="#linearGradient3851"/><linearGradient id="linearGradient3073" x1="32.558" x2="26.302" y1="32.918" y2="12.207" gradientUnits="userSpaceOnUse" xlink:href="#linearGradient3859"/></defs><metadata id="metadata2865"/><g id="layer1"><g id="g3056" transform="translate(0,2)"><path id="path3063" fill="#edd400" stroke="#a40000" stroke-linecap="butt" stroke-linejoin="round" stroke-opacity="1" stroke-width="2" d="M 13.50173,26.297578 37.723183,11.653979 C 49.066647,7.0106954 62.451966,24.863355 50.124568,33.910035 l -23.695502,13.84083 z"/><path id="path3063-3" fill="url(#linearGradient3071)" fill-opacity="1" stroke="#ef2929" stroke-linecap="butt" stroke-linejoin="round" stroke-opacity="1" stroke-width="2" d="M 12.420908,29.205413 36.368327,14.757554 C 46.733095,7.0607428 60.314154,25.383176 48.378233,32.629058 l -23.695501,13.84083 z"/><path id="path3875" fill="none" stroke="#a40000" stroke-linecap="butt" stroke-linejoin="miter" stroke-opacity="1" stroke-width="2" d="M 32,15 C 44,14 51,26 47,36"/><path id="path3875-5" fill="none" stroke="#a40000" stroke-linecap="butt" stroke-linejoin="miter" stroke-opacity="1" stroke-width="2" d="M 24,20 C 36,19.000001 42,31 38,41"/><path id="path3895" fill="none" stroke="#a40000" stroke-linecap="butt" stroke-linejoin="miter" stroke-opacity="1" stroke-width="2" d="M 22,27 47,12"/><path id="path3895-6" fill="none" stroke="#a40000" stroke-linecap="butt" stroke-linejoin="miter" stroke-opacity="1" stroke-width="2" d="M 30,38 55,23"/><g id="g3031" transform="matrix(0.92148167,0.21647657,-0.04656814,0.97752703,6.8716625,19.095463)"><path id="path3011" fill="#ef2929" stroke="#a40000" stroke-linecap="round" stroke-linejoin="round" stroke-miterlimit="4" stroke-width="2.096" d="m 44,22 c 0,6.627417 -5.372583,12 -12,12 -6.627417,0 -12,-5.372583 -12,-12 0,-6.627417 5.372583,-12 12,-12 6.627417,0 12,5.372583 12,12 z" transform="translate(-17,-7)"/><path id="path3011-3" fill="url(#linearGradient3073)" fill-opacity="1" stroke="#ef2929" stroke-linecap="round" stroke-linejoin="round" stroke-miterlimit="4" stroke-width="2.515" d="m 44,22 c 0,6.627417 -5.372583,12 -12,12 -6.627417,0 -12,-5.372583 -12,-12 0,-6.627417 5.372583,-12 12,-12 6.627417,0 12,5.372583 12,12 z" transform="matrix(0.83333334,0,0,0.83333333,-11.666667,-3.3333333)"/></g><path id="path3867" fill="none" stroke="#a40000" stroke-linecap="butt" stroke-linejoin="miter" stroke-opacity="1" stroke-width="2" d="m 23,26 0,23"/><path id="path3869" fill="none" stroke="#a40000" stroke-linecap="butt" stroke-linejoin="miter" stroke-opacity="1" stroke-width="2" d="m 16,26 0,21"/><path id="path3871" fill="none" stroke="#a40000" stroke-linecap="butt" stroke-linejoin="miter" stroke-opacity="1" stroke-width="2" d="M 9.9999995,30 31,37"/><path id="path3873" fill="none" stroke="#a40000" stroke-linecap="butt" stroke-linejoin="miter" stroke-opacity="1" stroke-width="2" d="M 8.9999995,37 30,44"/></g></g></svg>