<svg xmlns="http://www.w3.org/2000/svg" xmlns:svg="http://www.w3.org/2000/svg" xmlns:xlink="http://www.w3.org/1999/xlink" id="svg2860" width="64" height="64" version="1.1"><defs id="defs2862"><linearGradient id="linearGradient3780"><stop id="stop3782" offset="0" stop-color="#3465a4" stop-opacity="1"/><stop id="stop3784" offset="1" stop-color="#729fcf" stop-opacity="0"/></linearGradient><radialGradient id="radialGradient3692" cx="45.883" cy="28.87" r="19.467" fx="45.883" fy="28.87" gradientUnits="userSpaceOnUse" xlink:href="#linearGradient3377"/><radialGradient id="radialGradient3703" cx="135.383" cy="97.37" r="19.467" fx="135.383" fy="97.37" gradientTransform="matrix(0.97435,0.2250379,-0.4623105,2.0016728,48.487554,-127.99883)" gradientUnits="userSpaceOnUse" xlink:href="#linearGradient3377"/><linearGradient id="linearGradient3377"><stop id="stop3379" offset="0" stop-color="#faff2b" stop-opacity="1"/><stop id="stop3381" offset="1" stop-color="#fa0" stop-opacity="1"/></linearGradient><radialGradient id="radialGradient3705" cx="148.883" cy="81.87" r="19.467" fx="148.883" fy="81.87" gradientTransform="matrix(1.3852588,-5.1367833e-2,3.7056289e-2,0.9993132,-60.392403,7.7040438)" gradientUnits="userSpaceOnUse" xlink:href="#linearGradient3377"/><linearGradient id="linearGradient3786" x1="41.643" x2="22.357" y1="58.786" y2="7.357" gradientUnits="userSpaceOnUse" xlink:href="#linearGradient3780"/></defs><metadata id="metadata2865"/><g id="layer1"><path id="path2992" fill="#729fcf" stroke="#0b1521" stroke-dasharray="none" stroke-linecap="round" stroke-linejoin="round" stroke-miterlimit="4" stroke-width="2.069" d="M 62,32 A 30,30 0 1 1 2,32 30,30 0 1 1 62,32 z" transform="matrix(0.96666667,0,0,0.96666667,1.0666667,1.0666667)"/><path id="path2992-3" fill="url(#linearGradient3786)" fill-opacity="1" stroke="#729fcf" stroke-dasharray="none" stroke-linecap="round" stroke-linejoin="round" stroke-miterlimit="4" stroke-width="2.222" d="M 62,32 A 30,30 0 1 1 2,32 30,30 0 1 1 62,32 z" transform="matrix(0.9,0,0,0.9,3.2,3.2)"/><path id="path3788" fill="#fff" stroke="#729fcf" stroke-dasharray="none" stroke-linecap="round" stroke-linejoin="round" stroke-miterlimit="4" stroke-width="2.333" d="m -38.569459,23.180655 a 7.0067854,7.0067854 0 1 1 -14.013571,0 7.0067854,7.0067854 0 1 1 14.013571,0 z" transform="matrix(0.8572812,0,0,0.8572812,71.071657,-4.8791247)"/><path id="path3790" fill="#fff" stroke="#729fcf" stroke-linecap="butt" stroke-linejoin="miter" stroke-opacity="1" stroke-width="2" d="m 25,23 0,6 2,0 0,14 -4,0 0,6 18,0 0,-6 -4,0 0,-20 z"/></g></svg>