<svg xmlns="http://www.w3.org/2000/svg" xmlns:svg="http://www.w3.org/2000/svg" xmlns:xlink="http://www.w3.org/1999/xlink" id="svg2860" width="64" height="64" version="1.1"><defs id="defs2862"><linearGradient id="linearGradient3866"><stop id="stop3868" offset="0" stop-color="#ef2929" stop-opacity="1"/><stop id="stop3870" offset="1" stop-color="#a40000" stop-opacity="1"/></linearGradient><linearGradient id="linearGradient3791"><stop id="stop3793" offset="0" stop-color="#a40000" stop-opacity="1"/><stop id="stop3795" offset="1" stop-color="#ef2929" stop-opacity="1"/></linearGradient><radialGradient id="radialGradient3692" cx="45.883" cy="28.87" r="19.467" fx="45.883" fy="28.87" gradientUnits="userSpaceOnUse" xlink:href="#linearGradient3377"/><radialGradient id="radialGradient3703" cx="135.383" cy="97.37" r="19.467" fx="135.383" fy="97.37" gradientTransform="matrix(0.97435,0.2250379,-0.4623105,2.0016728,48.487554,-127.99883)" gradientUnits="userSpaceOnUse" xlink:href="#linearGradient3377"/><linearGradient id="linearGradient3377"><stop id="stop3379" offset="0" stop-color="#faff2b" stop-opacity="1"/><stop id="stop3381" offset="1" stop-color="#fa0" stop-opacity="1"/></linearGradient><radialGradient id="radialGradient3705" cx="148.883" cy="81.87" r="19.467" fx="148.883" fy="81.87" gradientTransform="matrix(1.3852588,-0.05136783,0.03705629,0.9993132,-60.392403,7.7040438)" gradientUnits="userSpaceOnUse" xlink:href="#linearGradient3377"/><linearGradient id="linearGradient3773" x1="22.117" x2="17.329" y1="55.718" y2="21.311" gradientTransform="translate(0,-4)" gradientUnits="userSpaceOnUse" xlink:href="#linearGradient3767"/><linearGradient id="linearGradient3767"><stop id="stop3769" offset="0" stop-color="#edd400" stop-opacity="1"/><stop id="stop3771" offset="1" stop-color="#fce94f" stop-opacity="1"/></linearGradient><linearGradient id="linearGradient3783" x1="53.897" x2="47.502" y1="51.18" y2="21.837" gradientTransform="translate(0,-4)" gradientUnits="userSpaceOnUse" xlink:href="#linearGradient3777"/><linearGradient id="linearGradient3777"><stop id="stop3779" offset="0" stop-color="#c4a000" stop-opacity="1"/><stop id="stop3781" offset="1" stop-color="#edd400" stop-opacity="1"/></linearGradient><linearGradient id="linearGradient3797" x1="51.912" x2="47.845" y1="25.924" y2="2.878" gradientUnits="userSpaceOnUse" xlink:href="#linearGradient3791"/><linearGradient id="linearGradient3872" x1="36.511" x2="51.004" y1="-10.437" y2=".649" gradientUnits="userSpaceOnUse" xlink:href="#linearGradient3866"/><linearGradient id="linearGradient3874" x1="47.048" x2="51.004" y1="-21.522" y2=".649" gradientUnits="userSpaceOnUse" xlink:href="#linearGradient3866"/></defs><metadata id="metadata2865"/><g id="layer1"><path id="path2422" fill="none" stroke="#000" stroke-linecap="butt" stroke-linejoin="miter" stroke-opacity="1" stroke-width="1" d="m 55.818182,23.636364 c 0.242424,0 0.242424,0 0,0 z"/><path id="path2993" fill="#fce94f" stroke="#302b00" stroke-linecap="butt" stroke-linejoin="round" stroke-opacity="1" stroke-width="2" d="M 3,13 37,19 61,11 31,7 z"/><path id="path2995" fill="url(#linearGradient3783)" fill-opacity="1" stroke="#302b00" stroke-linecap="butt" stroke-linejoin="round" stroke-opacity="1" stroke-width="2" d="M 61,11 61,47 37,57 37,19 z"/><path id="path3825" fill="url(#linearGradient3773)" fill-opacity="1" fill-rule="evenodd" stroke="#302b00" stroke-dasharray="none" stroke-dashoffset="0" stroke-linecap="butt" stroke-linejoin="round" stroke-miterlimit="4" stroke-opacity="1" stroke-width="2" d="M 3,13 37,19 37,57 3,51 z" display="inline" enable-background="accumulate" overflow="visible" visibility="visible" style="marker:none"/><path id="path3765" fill="none" stroke="#fce94f" stroke-linecap="butt" stroke-linejoin="miter" stroke-opacity="1" stroke-width="2" d="m 5,15.42772 0.00867,33.919116 30.008671,5.268799 -0.0087,-33.933614 z"/><path id="path3775" fill="none" stroke="#edd400" stroke-linecap="butt" stroke-linejoin="miter" stroke-opacity="1" stroke-width="2" d="m 39.01243,20.433833 -0.01226,33.535301 20.001105,-8.300993 3.6e-4,-31.867363 z"/><path id="path3051" fill="none" stroke="#302b00" stroke-linecap="round" stroke-linejoin="miter" stroke-opacity="1" stroke-width="2" d="M 25,54 25,17"/><path id="path3051-3" fill="none" stroke="#302b00" stroke-linecap="round" stroke-linejoin="miter" stroke-opacity="1" stroke-width="2" d="M 13,52 13,15"/><path id="path3051-6" fill="none" stroke="#302b00" stroke-linecap="round" stroke-linejoin="miter" stroke-opacity="1" stroke-width="2" d="M 47,51.999998 47,16"/><path id="path3051-7" fill="none" stroke="#302b00" stroke-linecap="round" stroke-linejoin="miter" stroke-opacity="1" stroke-width="2" d="M 55,49.5 55,13"/><path id="path3853" fill="none" stroke="#302b00" stroke-linecap="round" stroke-linejoin="miter" stroke-opacity="1" stroke-width="2" d="M 24.363636,8.5909091 55,13"/><path id="path3873" fill="none" stroke="#302b00" stroke-linecap="round" stroke-linejoin="miter" stroke-opacity="1" stroke-width="2" d="M 13.75,10.875 47,16"/><path id="path3875" fill="none" stroke="#302b00" stroke-linecap="round" stroke-linejoin="miter" stroke-opacity="1" stroke-width="2" d="M 13.049334,14.759655 40.369369,8.1385643"/><path id="path3875-3" fill="none" stroke="#302b00" stroke-linecap="round" stroke-linejoin="miter" stroke-opacity="1" stroke-width="2" d="M 25.745115,16.848834 50.365288,9.5849195"/><path id="path3895" fill="none" stroke="#302b00" stroke-linecap="butt" stroke-linejoin="miter" stroke-opacity="1" stroke-width="2" d="m 3,25 34,6"/><path id="path3895-5" fill="none" stroke="#302b00" stroke-linecap="butt" stroke-linejoin="miter" stroke-opacity="1" stroke-width="2" d="m 3,39 34,6"/><path id="path3915" fill="none" stroke="#302b00" stroke-linecap="butt" stroke-linejoin="miter" stroke-opacity="1" stroke-width="2" d="M 37,45 61,35"/><path id="path3915-6" fill="none" stroke="#302b00" stroke-linecap="butt" stroke-linejoin="miter" stroke-opacity="1" stroke-width="2" d="M 37,31 61,23"/><g id="text3859" fill="url(#linearGradient3872)" fill-opacity="1" stroke="#280000" stroke-width="1.311" font-family="Sans" font-size="40" font-style="normal" font-weight="normal" letter-spacing="0" transform="matrix(1.5164952,0,0,1.5335599,-29.347911,37.005436)" word-spacing="0" style="line-height:125%"><path id="path3864" fill="url(#linearGradient3874)" fill-opacity="1" stroke="#280000" stroke-width="1.311" d="m 52.686728,-7.0767859 -7.44,-13.5600001 c -0.799999,-1.479998 -1.200001,-1.52 -2.32,-1.52 -0.04,0 -0.08,0 -0.16,0 l -3.2,0 c -1.599998,0 -2.4,0.600002 -2.4,2.16 0,1.399999 0.760001,2.16 2.12,2.16 0.08,0 0.2,0 0.28,0 l 0,14.5600001 c -0.12,0 -0.2,0 -0.32,0 -1.319999,0 -2.08,0.7600014 -2.08,2.12 0,1.59999842 0.800002,2.16 2.4,2.16 l 5.56,0 c 1.599998,0 2.4,-0.56000158 2.4,-2.16 0,-1.5999984 -0.800002,-2.12 -2.4,-2.12 l -1.08,0 0,-10.6000001 8.12,14.28000012 c 0.48,0.83999918 1.040001,0.87999998 1.96,0.87999998 l 1.96,0 c 0.959999,0 1.08,-0.2400011 1.08,-1.39999998 l 0,-17.72000012 c 0.08,0 0.2,0 0.28,0 1.359999,0 2.12,-0.760001 2.12,-2.16 0,-1.599998 -0.800002,-2.16 -2.4,-2.16 l -5.56,0 c -1.599998,0 -2.4,0.560002 -2.4,2.16 0,1.599999 0.800002,2.16 2.4,2.16 l 1.08,0 0,10.7600001" font-family="Courier 10 Pitch" font-stretch="normal" font-variant="normal" font-weight="bold" style="-inkscape-font-specification:Courier 10 Pitch Bold"/></g></g></svg>