<svg xmlns="http://www.w3.org/2000/svg" xmlns:svg="http://www.w3.org/2000/svg" xmlns:xlink="http://www.w3.org/1999/xlink" id="svg2" width="64" height="64" version="1.1"><defs id="defs4"><linearGradient id="linearGradient3858"><stop id="stop3860" offset="0" stop-color="#729fcf" stop-opacity="1"/><stop id="stop3862" offset="1" stop-color="#204a87" stop-opacity="1"/></linearGradient><linearGradient id="linearGradient3852"><stop id="stop3854" offset="0" stop-color="#729fcf" stop-opacity="1"/><stop id="stop3856" offset="1" stop-color="#204a87" stop-opacity="1"/></linearGradient><linearGradient id="linearGradient3787"><stop id="stop3789" offset="0" stop-color="#8ae234" stop-opacity="1"/><stop id="stop3791" offset="1" stop-color="#4e9a06" stop-opacity="1"/></linearGradient><linearGradient id="linearGradient3777"><stop id="stop3779" offset="0" stop-color="#8ae234" stop-opacity="1"/><stop id="stop3781" offset="1" stop-color="#4e9a06" stop-opacity="1"/></linearGradient><radialGradient id="radialGradient3785" cx="34.167" cy="39.333" r="27.8" fx="34.167" fy="39.333" gradientTransform="matrix(0.77177963,-0.06681083,0.06037751,0.77356601,7.8286243,8.2003145)" gradientUnits="userSpaceOnUse" xlink:href="#linearGradient3777"/><radialGradient id="radialGradient3793" cx="29" cy="7.066" r="28.428" fx="29" fy="7.066" gradientTransform="matrix(1.6533033,0.42211997,-0.23719203,0.92900212,-17.269848,-10.805604)" gradientUnits="userSpaceOnUse" xlink:href="#linearGradient3787"/><radialGradient id="radialGradient3793-5" cx="29" cy="7.066" r="28.428" fx="29" fy="7.066" gradientTransform="matrix(1.6533033,0.42211997,-0.23719203,0.92900212,-17.269848,-10.805604)" gradientUnits="userSpaceOnUse" xlink:href="#linearGradient3787-6"/><linearGradient id="linearGradient3787-6"><stop id="stop3789-2" offset="0" stop-color="#8ae234" stop-opacity="1"/><stop id="stop3791-9" offset="1" stop-color="#4e9a06" stop-opacity="1"/></linearGradient><radialGradient id="radialGradient3848" cx="29" cy="7.066" r="28.428" fx="29" fy="7.066" gradientTransform="matrix(1.6533033,0.42211997,-0.23719203,0.92900212,-113.26985,965.55658)" gradientUnits="userSpaceOnUse" xlink:href="#linearGradient3858"/><radialGradient id="radialGradient3850" cx="34.167" cy="39.333" r="27.8" fx="34.167" fy="39.333" gradientTransform="matrix(0.77177963,-0.06681083,0.06037751,0.77356601,7.8286243,8.2003145)" gradientUnits="userSpaceOnUse" xlink:href="#linearGradient3852"/><radialGradient id="radialGradient3850-7" cx="34.167" cy="39.333" r="27.8" fx="34.167" fy="39.333" gradientTransform="matrix(0.77177963,-0.06681083,0.06037751,0.77356601,7.8286243,8.2003145)" gradientUnits="userSpaceOnUse" xlink:href="#linearGradient3852-0"/><linearGradient id="linearGradient3852-0"><stop id="stop3854-9" offset="0" stop-color="#729fcf" stop-opacity="1"/><stop id="stop3856-3" offset="1" stop-color="#204a87" stop-opacity="1"/></linearGradient><radialGradient id="radialGradient3879" cx="34.167" cy="39.333" r="27.8" fx="34.167" fy="39.333" gradientTransform="matrix(0.77177963,-0.06681083,0.06037751,0.77356601,7.8286243,8.2003145)" gradientUnits="userSpaceOnUse" xlink:href="#linearGradient3852-0"/></defs><metadata id="metadata7"/><g id="layer1" transform="translate(0,-988.36218)"><path id="path2989" fill="url(#radialGradient3793)" fill-opacity="1" stroke="#172a04" stroke-linecap="butt" stroke-linejoin="miter" stroke-opacity="1" stroke-width="2" d="M 6,11.291997 C 38,-11.708003 74.047351,20 56.047351,56" transform="translate(0,988.36218)"/><path id="path2987" fill="url(#radialGradient3785)" fill-opacity="1" stroke="#172a04" stroke-dasharray="none" stroke-dashoffset="9.6" stroke-linecap="round" stroke-linejoin="round" stroke-miterlimit="4" stroke-width="1.6" d="m 64,29 a 27,13 0 1 1 -54,0 27,13 0 1 1 54,0 z" transform="matrix(0.90079433,0.86743157,-0.90079433,0.86743157,22.793645,966.1117)"/><g id="g3844" stroke="#0b1521" stroke-width="1" transform="matrix(0.66387713,0,0,0.66387713,74.52365,351.00053)"><path id="path2989-1" fill="url(#radialGradient3848)" fill-opacity="1" stroke="#0b1521" stroke-linecap="butt" stroke-linejoin="miter" stroke-opacity="1" stroke-width="3.013" d="m -90,987.65418 c 6.386431,-4.59025 15.711388,-9.10456 21.427597,-6.50628 16.569331,7.53151 22.594543,15.06303 33.138662,31.6324 3.041522,4.7795 -1.380909,13.3059 -4.518908,19.5819"/><path id="path2987-2" fill="url(#radialGradient3850)" fill-opacity="1" stroke="#0b1521" stroke-dasharray="none" stroke-dashoffset="9.6" stroke-linecap="round" stroke-linejoin="round" stroke-miterlimit="4" stroke-width="2.41" d="M 64,29 C 64,36.179702 51.911688,42 37,42 22.088312,42 10,36.179702 10,29 10,21.820298 22.088312,16 37,16 c 14.911688,0 27,5.820298 27,13 z" transform="matrix(0.90079433,0.86743157,-0.90079433,0.86743157,-73.206355,954.11171)"/></g><path id="path3898" fill="#204a87" stroke="#0b1521" stroke-linecap="butt" stroke-linejoin="miter" stroke-opacity="1" stroke-width="2" d="M 26.842164,25.284105 C 28.309637,24.523832 29.536357,23.436363 34,23 c 3.392916,2.410627 6.607285,5.089072 9,9 0.0041,3.435248 -1.146353,5.492454 -2.315673,7" transform="translate(0,988.36218)"/><path id="path2987-2-6" fill="url(#radialGradient3879)" fill-opacity="1" stroke="#0b1521" stroke-dasharray="none" stroke-dashoffset="9.6" stroke-linecap="round" stroke-linejoin="round" stroke-miterlimit="4" stroke-width="5.522" d="m 64,29 a 27,13 0 1 1 -54,0 27,13 0 1 1 54,0 z" transform="matrix(0.26100056,0.25133387,-0.26100056,0.25133387,31.518988,1004.0415)"/></g></svg>