<svg xmlns="http://www.w3.org/2000/svg" xmlns:svg="http://www.w3.org/2000/svg" xmlns:xlink="http://www.w3.org/1999/xlink" id="svg2860" width="64" height="64" version="1.1"><defs id="defs2862"><linearGradient id="linearGradient3791"><stop id="stop3793" offset="0" stop-color="#a40000" stop-opacity="1"/><stop id="stop3795" offset="1" stop-color="#ef2929" stop-opacity="1"/></linearGradient><radialGradient id="radialGradient3692" cx="45.883" cy="28.87" r="19.467" fx="45.883" fy="28.87" gradientUnits="userSpaceOnUse" xlink:href="#linearGradient3377"/><radialGradient id="radialGradient3703" cx="135.383" cy="97.37" r="19.467" fx="135.383" fy="97.37" gradientTransform="matrix(0.97435,0.2250379,-0.4623105,2.0016728,48.487554,-127.99883)" gradientUnits="userSpaceOnUse" xlink:href="#linearGradient3377"/><linearGradient id="linearGradient3377"><stop id="stop3379" offset="0" stop-color="#faff2b" stop-opacity="1"/><stop id="stop3381" offset="1" stop-color="#fa0" stop-opacity="1"/></linearGradient><radialGradient id="radialGradient3705" cx="148.883" cy="81.87" r="19.467" fx="148.883" fy="81.87" gradientTransform="matrix(1.3852588,-0.05136783,0.03705629,0.9993132,-60.392403,7.7040438)" gradientUnits="userSpaceOnUse" xlink:href="#linearGradient3377"/><linearGradient id="linearGradient3773" x1="22.117" x2="17.329" y1="55.718" y2="21.311" gradientTransform="translate(0,-4)" gradientUnits="userSpaceOnUse" xlink:href="#linearGradient3767"/><linearGradient id="linearGradient3767"><stop id="stop3769" offset="0" stop-color="#edd400" stop-opacity="1"/><stop id="stop3771" offset="1" stop-color="#fce94f" stop-opacity="1"/></linearGradient><linearGradient id="linearGradient3783" x1="53.897" x2="47.502" y1="51.18" y2="21.837" gradientTransform="translate(0,-4)" gradientUnits="userSpaceOnUse" xlink:href="#linearGradient3777"/><linearGradient id="linearGradient3777"><stop id="stop3779" offset="0" stop-color="#c4a000" stop-opacity="1"/><stop id="stop3781" offset="1" stop-color="#edd400" stop-opacity="1"/></linearGradient><linearGradient id="linearGradient3797" x1="51.912" x2="47.845" y1="25.924" y2="2.878" gradientUnits="userSpaceOnUse" xlink:href="#linearGradient3791"/></defs><metadata id="metadata2865"/><g id="layer1"><path id="path2422" fill="none" stroke="#000" stroke-linecap="butt" stroke-linejoin="miter" stroke-opacity="1" stroke-width="1" d="m 55.818182,23.636364 c 0.242424,0 0.242424,0 0,0 z"/><path id="path2993" fill="#fce94f" stroke="#302b00" stroke-linecap="butt" stroke-linejoin="round" stroke-opacity="1" stroke-width="2" d="M 3,13 37,19 61,11 31,7 z"/><path id="path2995" fill="url(#linearGradient3783)" fill-opacity="1" stroke="#302b00" stroke-linecap="butt" stroke-linejoin="round" stroke-opacity="1" stroke-width="2" d="M 61,11 61,47 37,57 37,19 z"/><path id="path3825" fill="url(#linearGradient3773)" fill-opacity="1" fill-rule="evenodd" stroke="#302b00" stroke-dasharray="none" stroke-dashoffset="0" stroke-linecap="butt" stroke-linejoin="round" stroke-miterlimit="4" stroke-opacity="1" stroke-width="2" d="M 3,13 37,19 37,57 3,51 z" display="inline" enable-background="accumulate" overflow="visible" visibility="visible" style="marker:none"/><path id="path3765" fill="none" stroke="#fce94f" stroke-linecap="butt" stroke-linejoin="miter" stroke-opacity="1" stroke-width="2" d="m 5,15.42772 0.00867,33.919116 30.008671,5.268799 -0.0087,-33.933614 z"/><path id="path3775" fill="none" stroke="#edd400" stroke-linecap="butt" stroke-linejoin="miter" stroke-opacity="1" stroke-width="2" d="m 39.01243,20.433833 -0.01226,33.535301 20.001105,-8.300993 3.6e-4,-31.867363 z"/><path id="path3051" fill="none" stroke="#302b00" stroke-linecap="round" stroke-linejoin="miter" stroke-opacity="1" stroke-width="2" d="M 25,54 25,17"/><path id="path3051-3" fill="none" stroke="#302b00" stroke-linecap="round" stroke-linejoin="miter" stroke-opacity="1" stroke-width="2" d="M 13,52 13,15"/><path id="path3051-6" fill="none" stroke="#302b00" stroke-linecap="round" stroke-linejoin="miter" stroke-opacity="1" stroke-width="2" d="M 47,51.999998 47,16"/><path id="path3051-7" fill="none" stroke="#302b00" stroke-linecap="round" stroke-linejoin="miter" stroke-opacity="1" stroke-width="2" d="M 55,49.5 55,13"/><path id="path3853" fill="none" stroke="#302b00" stroke-linecap="round" stroke-linejoin="miter" stroke-opacity="1" stroke-width="2" d="M 24.363636,8.5909091 55,13"/><path id="path3873" fill="none" stroke="#302b00" stroke-linecap="round" stroke-linejoin="miter" stroke-opacity="1" stroke-width="2" d="M 13.75,10.875 47,16"/><path id="path3875" fill="none" stroke="#302b00" stroke-linecap="round" stroke-linejoin="miter" stroke-opacity="1" stroke-width="2" d="M 13.049334,14.759655 40.369369,8.1385643"/><path id="path3875-3" fill="none" stroke="#302b00" stroke-linecap="round" stroke-linejoin="miter" stroke-opacity="1" stroke-width="2" d="M 25.745115,16.848834 50.365288,9.5849195"/><path id="path3895" fill="none" stroke="#302b00" stroke-linecap="butt" stroke-linejoin="miter" stroke-opacity="1" stroke-width="2" d="m 3,25 34,6"/><path id="path3895-5" fill="none" stroke="#302b00" stroke-linecap="butt" stroke-linejoin="miter" stroke-opacity="1" stroke-width="2" d="m 3,39 34,6"/><path id="path3915" fill="none" stroke="#302b00" stroke-linecap="butt" stroke-linejoin="miter" stroke-opacity="1" stroke-width="2" d="M 37,45 61,35"/><path id="path3915-6" fill="none" stroke="#302b00" stroke-linecap="butt" stroke-linejoin="miter" stroke-opacity="1" stroke-width="2" d="M 37,31 61,23"/><g id="text3016" fill="url(#linearGradient3797)" fill-opacity="1" stroke="#280000" stroke-width="1.356" font-family="Sans" font-size="40" font-style="normal" font-weight="normal" letter-spacing="0" transform="matrix(1.4752791,0,0,1.4752791,-30.585327,-0.24561401)" word-spacing="0" style="line-height:125%"><path id="path3021" fill="url(#linearGradient3797)" fill-opacity="1" stroke="#280000" stroke-width="1.356" d="M 55.96,3.48 C 54.040002,2.6400008 52.239998,2.2 50.36,2.2 43.680007,2.2 39,7.5600068 39,14.4 c 0,7.199993 4.600007,12.2 11.48,12.2 4.039996,0 7.360001,-1.040001 8.44,-1.68 0.639999,-0.4 0.68,-0.640001 0.68,-1.36 0,-0.08 0,-0.16 0,-0.24 l 0,-4.64 c 0.12,0 0.2,0 0.32,0 1.399999,0 2.16,-0.760001 2.16,-2.16 0,-1.679998 -0.840002,-2.12 -2.48,-2.12 l -7.04,0 c -1.639998,0 -2.44,0.520002 -2.44,2.16 0,1.639998 0.800002,2.16 2.44,2.16 l 2.2,0 0,3.04 c -1.479999,0.44 -2.720001,0.68 -3.72,0.68 -3.999996,0 -6.4,-2.840005 -6.4,-8.04 0,-5.1999948 2.240004,-7.92 6.2,-7.92 2.879997,0 4.040001,1.2000023 4.68,3.48 0.36,1.239999 0.840001,1.84 2.04,1.84 1.639998,0 2.04,-0.600002 2.04,-2.28 L 59.56,4.44 c 0,-1.6799983 -0.560001,-2.2 -1.8,-2.2 -0.879999,0 -1.32,0.3600009 -1.8,1.24" font-family="Courier 10 Pitch" font-stretch="normal" font-variant="normal" font-weight="bold" style="-inkscape-font-specification:Courier 10 Pitch Bold"/></g></g></svg>