<svg xmlns="http://www.w3.org/2000/svg" xmlns:svg="http://www.w3.org/2000/svg" xmlns:xlink="http://www.w3.org/1999/xlink" id="svg2821" width="64" height="64" version="1.1"><defs id="defs2823"><linearGradient id="linearGradient4570"><stop id="stop4572" offset="0" stop-color="#71b2f8" stop-opacity="1"/><stop id="stop4574" offset="1" stop-color="#002795" stop-opacity="1"/></linearGradient><linearGradient id="linearGradient3377"><stop id="stop3379" offset="0" stop-color="#faff2b" stop-opacity="1"/><stop id="stop3381" offset="1" stop-color="#fa0" stop-opacity="1"/></linearGradient><radialGradient id="radialGradient3916" cx="83.883" cy="85.367" r="19.467" fx="83.883" fy="85.367" gradientTransform="matrix(2.2573658,1.1001677,-0.34701734,1.3322405,-149.63076,-196.85841)" gradientUnits="userSpaceOnUse" xlink:href="#linearGradient4570"/><linearGradient id="linearGradient3918" x1="3.799" x2="34.318" y1="24.309" y2="36.344" gradientTransform="matrix(1.1575895,0,0,1.1787449,-0.22154565,-1.8180692)" gradientUnits="userSpaceOnUse" xlink:href="#linearGradient4570"/><linearGradient id="linearGradient3807" x1="110" x2="85" y1="35" y2="35" gradientTransform="translate(-62.087394,-0.169889)" gradientUnits="userSpaceOnUse" spreadMethod="reflect" xlink:href="#linearGradient3801"/><linearGradient id="linearGradient3801"><stop id="stop3803" offset="0" stop-color="#204a87" stop-opacity="1"/><stop id="stop3805" offset="1" stop-color="#729fcf" stop-opacity="1"/></linearGradient></defs><metadata id="metadata2826"/><g id="layer1"><path id="path2994-3" fill="#729fcf" stroke="#0b1521" stroke-dashoffset="20.4" stroke-linecap="round" stroke-linejoin="round" stroke-miterlimit="4.5" stroke-opacity="1" stroke-width="2" d="m 54.912607,52.830111 c 0,4.418278 -10.745166,8 -24,8 -13.254833,0 -23.9999991,-3.581722 -23.9999991,-8 l -1.9e-6,-42 47.999999,0 z"/><path id="path2994-3-6" fill="url(#linearGradient3807)" fill-opacity="1" stroke="#729fcf" stroke-dashoffset="20.4" stroke-linecap="round" stroke-linejoin="round" stroke-miterlimit="4.5" stroke-opacity="1" stroke-width="2" d="m 52.912606,51.557384 c 0,4.016616 -9.84973,7.272727 -22,7.272727 -12.150264,0 -21.999999,-3.256111 -21.999999,-7.272727 l -2e-6,-38 44.000001,0 z"/><path id="path2994-3-6-9" fill="none" stroke="#729fcf" stroke-dashoffset="20.4" stroke-linecap="round" stroke-linejoin="round" stroke-miterlimit="4.5" stroke-opacity="1" stroke-width="2" d="m 52.912606,15.557384 c -2,3.272727 -9.84973,5.272727 -22,5.272727 -12.150264,0 -19,-2 -21.999999,-5.272727"/><path id="path2994" fill="#729fcf" stroke="#0b1521" stroke-dasharray="none" stroke-dashoffset="20.4" stroke-linecap="round" stroke-linejoin="round" stroke-miterlimit="4.5" stroke-opacity="1" stroke-width="1.75" d="m -14,25 a 21,7 0 1 1 -42,0 21,7 0 1 1 42,0 z" transform="matrix(1.1428571,0,0,1.1428571,70.912606,-17.741317)"/></g></svg>