<svg xmlns="http://www.w3.org/2000/svg" xmlns:svg="http://www.w3.org/2000/svg" xmlns:xlink="http://www.w3.org/1999/xlink" id="svg2860" width="64" height="64" version="1.1"><defs id="defs2862"><linearGradient id="linearGradient3784"><stop id="stop3786" offset="0" stop-color="#edd400" stop-opacity="1"/><stop id="stop3788" offset="1" stop-color="#edd400" stop-opacity="0"/></linearGradient><radialGradient id="radialGradient3692" cx="45.883" cy="28.87" r="19.467" fx="45.883" fy="28.87" gradientUnits="userSpaceOnUse" xlink:href="#linearGradient3377"/><radialGradient id="radialGradient3703" cx="135.383" cy="97.37" r="19.467" fx="135.383" fy="97.37" gradientTransform="matrix(0.97435,0.2250379,-0.4623105,2.0016728,48.487554,-127.99883)" gradientUnits="userSpaceOnUse" xlink:href="#linearGradient3377"/><linearGradient id="linearGradient3377"><stop id="stop3379" offset="0" stop-color="#faff2b" stop-opacity="1"/><stop id="stop3381" offset="1" stop-color="#fa0" stop-opacity="1"/></linearGradient><radialGradient id="radialGradient3705" cx="148.883" cy="81.87" r="19.467" fx="148.883" fy="81.87" gradientTransform="matrix(1.3852588,-5.1367833e-2,3.7056289e-2,0.9993132,-60.392403,7.7040438)" gradientUnits="userSpaceOnUse" xlink:href="#linearGradient3377"/><linearGradient id="linearGradient3790" x1="48" x2="32" y1="56" y2="8" gradientUnits="userSpaceOnUse" xlink:href="#linearGradient3784"/></defs><metadata id="metadata2865"/><g id="layer1"><g id="text3014" fill="#fce94f" fill-opacity="1" stroke="#241c1c" stroke-dashoffset="4.1" stroke-linejoin="round" stroke-miterlimit="4" stroke-width="2" font-family="DejaVu Serif" font-size="79.045" font-stretch="normal" font-style="normal" font-variant="normal" font-weight="normal" letter-spacing="0" transform="scale(0.99351891,1.0065234)" word-spacing="0" style="line-height:125%;-inkscape-font-specification:DejaVu Serif"><path id="path3762" fill="#fce94f" d="m 19.307156,39.724118 21.150704,0 L 29.882508,12.320833 19.307156,39.724118 m -16.2875859,20.880531 0,-4.091195 5.056099,0 20.5331659,-53.5328956 6.484157,0 20.571762,53.5328956 5.673637,0 0,4.091195 -20.957723,0 0,-4.091195 6.406965,0 -4.824522,-12.659546 -24.238398,0 -4.824522,12.659546 6.329773,0 0,4.091195 -16.2103939,0"/></g><path id="path3782" fill="none" stroke="url(#linearGradient3790)" stroke-linecap="round" stroke-linejoin="miter" stroke-opacity="1" stroke-width="3" d="M 32,7 51,57"/></g></svg>