<svg xmlns="http://www.w3.org/2000/svg" xmlns:svg="http://www.w3.org/2000/svg" id="svg2" width="64" height="64" version="1.1"><metadata id="metadata8"/><path id="path3845" fill="none" stroke="#2e3436" stroke-linecap="round" stroke-linejoin="miter" stroke-opacity="1" stroke-width="6" d="m 51,45 8,2"/><path id="path3845-5" fill="none" stroke="#d3d7cf" stroke-linecap="round" stroke-linejoin="miter" stroke-opacity="1" stroke-width="2" d="m 50.81276,44.789004 8,2"/><g id="g3834" transform="translate(-80,0)"><path id="path3808" fill="#06f" fill-opacity="1" stroke="#172a04" stroke-linecap="butt" stroke-linejoin="round" stroke-opacity="1" stroke-width="2" d="M 104,58 90,13 83,11 83,49 z"/><path id="path3810" fill="#06f" stroke="#172a04" stroke-linecap="butt" stroke-linejoin="round" stroke-opacity="1" stroke-width="2" d="m 83,11 26,-8 8,1 -27,9 z"/><path id="path3812" fill="#06f" fill-opacity="1" stroke="#172a04" stroke-dasharray="none" stroke-linecap="butt" stroke-linejoin="round" stroke-miterlimit="4" stroke-opacity="1" stroke-width="2" d="M 117,4 131,45 104,56 90,13 z"/><path id="path3814" fill="none" stroke="#8ae234" stroke-linecap="butt" stroke-linejoin="miter" stroke-opacity="1" stroke-width="2" d="M 85,13.712363 85,47.74159 101.46741,54.557296 88.19775,14.53259 z"/><path id="path3824" fill="#06f" stroke="#73d216" stroke-linecap="butt" stroke-linejoin="miter" stroke-opacity="1" stroke-width="2" d="m 92.26271,14.491525 13.38136,38.70339 23.14407,-9.483051 -13.43221,-37.194915 z"/></g><path id="path2989" fill="none" stroke="#2e3436" stroke-linecap="round" stroke-linejoin="round" stroke-opacity="1" stroke-width="6" d="M 12,14 31,19 59,11 37,6"/><path id="path2991" fill="none" stroke="#2e3436" stroke-linecap="round" stroke-linejoin="round" stroke-opacity="1" stroke-width="6" d="m 24,56 7,3 0,-40"/><path id="path2993" fill="none" stroke="#2e3436" stroke-linecap="butt" stroke-linejoin="round" stroke-opacity="1" stroke-width="6" d="M 31,19 31,59 59,47 59,11 z"/><path id="path2989-3" fill="none" stroke="#d3d7cf" stroke-linecap="round" stroke-linejoin="round" stroke-opacity="1" stroke-width="2" d="M 12,14 31,19 59,11 37,6"/><path id="path2991-6" fill="none" stroke="#d3d7cf" stroke-linecap="round" stroke-linejoin="round" stroke-opacity="1" stroke-width="2" d="m 24,56 7,3 0,-40"/><path id="path2993-7" fill="none" stroke="#d3d7cf" stroke-linecap="butt" stroke-linejoin="round" stroke-opacity="1" stroke-width="2" d="M 31,19 31,59 59,47 59,11 z"/></svg>