<svg xmlns="http://www.w3.org/2000/svg" xmlns:svg="http://www.w3.org/2000/svg" xmlns:xlink="http://www.w3.org/1999/xlink" id="svg2816" width="64" height="64" version="1.1"><defs id="defs2818"><linearGradient id="linearGradient3681"><stop id="stop3697" offset="0" stop-color="#fff110" stop-opacity="1"/><stop id="stop3685" offset="1" stop-color="#cf7008" stop-opacity="1"/></linearGradient><pattern id="pattern5231" patternTransform="matrix(0.67643728,-0.81829155,2.4578314,1.8844554,-26.450606,18.294947)" xlink:href="#Strips1_1-4"/><pattern id="Strips1_1-4" width="2" height="1" patternTransform="matrix(0.66772843,-1.0037085,2.4261878,2.3114548,3.4760987,3.534923)" patternUnits="userSpaceOnUse"><rect id="rect4483-4" width="1" height="2" x="0" y="-.5" fill="#000" stroke="none"/></pattern><pattern id="pattern5231-4" patternTransform="matrix(0.66772843,-1.0037085,2.4261878,2.3114548,39.618381,8.9692804)" xlink:href="#Strips1_1-6"/><pattern id="Strips1_1-6" width="2" height="1" patternTransform="matrix(0.66772843,-1.0037085,2.4261878,2.3114548,3.4760987,3.534923)" patternUnits="userSpaceOnUse"><rect id="rect4483-0" width="1" height="2" x="0" y="-.5" fill="#000" stroke="none"/></pattern><pattern id="pattern5296" patternTransform="matrix(0.66513382,-1.0631299,2.4167603,2.4482973,-49.762569,2.9546807)" xlink:href="#pattern5231-3"/><pattern id="pattern5231-3" patternTransform="matrix(0.66772843,-1.0037085,2.4261878,2.3114548,-26.336284,10.887197)" xlink:href="#Strips1_1-4-3"/><pattern id="Strips1_1-4-3" width="2" height="1" patternTransform="matrix(0.66772843,-1.0037085,2.4261878,2.3114548,3.4760987,3.534923)" patternUnits="userSpaceOnUse"><rect id="rect4483-4-6" width="1" height="2" x="0" y="-.5" fill="#000" stroke="none"/></pattern><pattern id="pattern5330" patternTransform="matrix(0.42844886,-0.62155849,1.5567667,1.431396,27.948414,13.306456)" xlink:href="#Strips1_1-9"/><pattern id="Strips1_1-9" width="2" height="1" patternTransform="matrix(0.66772843,-1.0037085,2.4261878,2.3114548,3.4760987,3.534923)" patternUnits="userSpaceOnUse"><rect id="rect4483-3" width="1" height="2" x="0" y="-.5" fill="#000" stroke="none"/></pattern><linearGradient id="linearGradient3687" x1="37.898" x2="4.061" y1="41.088" y2="40.169" gradientUnits="userSpaceOnUse" xlink:href="#linearGradient3681"/><linearGradient id="linearGradient3695" x1="31.778" x2="68.442" y1="40.242" y2="54.041" gradientTransform="matrix(0.24227019,-0.62451792,0.66563096,0.22730625,-0.3950942,44.273138)" gradientUnits="userSpaceOnUse" xlink:href="#linearGradient3681"/><radialGradient id="radialGradient278" cx="55" cy="125" r="14.375" fx="55" fy="125" gradientUnits="userSpaceOnUse" xlink:href="#linearGradient12512"/><linearGradient id="linearGradient12512"><stop id="stop12513" offset="0" stop-color="#fff" stop-opacity="1"/><stop id="stop12517" offset=".5" stop-color="#fff520" stop-opacity=".891"/><stop id="stop12514" offset="1" stop-color="#fff300" stop-opacity="0"/></linearGradient><radialGradient id="radialGradient4227" cx="55" cy="125" r="14.375" fx="55" fy="125" gradientUnits="userSpaceOnUse" xlink:href="#linearGradient12512"/><radialGradient id="radialGradient4227-3" cx="55" cy="125" r="14.375" fx="55" fy="125" gradientUnits="userSpaceOnUse" xlink:href="#linearGradient12512-6"/><linearGradient id="linearGradient12512-6"><stop id="stop12513-7" offset="0" stop-color="#fff" stop-opacity="1"/><stop id="stop12517-5" offset=".5" stop-color="#fff520" stop-opacity=".891"/><stop id="stop12514-3" offset="1" stop-color="#fff300" stop-opacity="0"/></linearGradient><linearGradient id="linearGradient3056" x1="3.963" x2="59.208" y1="55.155" y2="24.272" gradientTransform="matrix(0.25722491,-0.63634476,0.70671865,0.23161085,-2.6138961,43.901131)" gradientUnits="userSpaceOnUse" xlink:href="#linearGradient3075"/><linearGradient id="linearGradient3075"><stop id="stop3077" offset="0" stop-color="#c4a000" stop-opacity="1"/><stop id="stop3079" offset="1" stop-color="#fce94f" stop-opacity="1"/></linearGradient></defs><metadata id="metadata2821"/><g id="layer1" opacity="1"><path id="path2896-5" fill="#fce94f" fill-opacity="1" stroke="#302b00" stroke-dasharray="none" stroke-linecap="butt" stroke-linejoin="round" stroke-miterlimit="4" stroke-opacity="1" stroke-width="2" d="m 21,9 26,0 0,48 -26,0 z"/><path id="path2896-3" fill="url(#linearGradient3056)" fill-opacity="1" stroke="#fce94f" stroke-dasharray="none" stroke-linecap="butt" stroke-linejoin="miter" stroke-miterlimit="4" stroke-opacity="1" stroke-width="2" d="m 23,11 22,0 0,44 -22,0 z"/><path id="path12511-6" fill="url(#radialGradient4227-3)" fill-opacity="1" fill-rule="nonzero" stroke="none" stroke-width="1.25" d="m 69.375,125 a 14.375,14.375 0 1 1 -28.75,0 14.375,14.375 0 1 1 28.75,0 z" color="#000" display="block" transform="matrix(1.0434783,0,0,1.0434783,-8.3913071,-115.4348)" visibility="visible" style="marker:none"/><path id="path2896-6" fill="none" stroke="#302b00" stroke-dasharray="6 12" stroke-dashoffset="9.6" stroke-linecap="round" stroke-linejoin="round" stroke-miterlimit="4" stroke-opacity="1" stroke-width="6" d="M 4.9999999,9 31,9 c 8,8 16,32 16,48 L 21,57 C 21,41 13,17 4.9999999,9 z"/><path id="path2896-6-2" fill="none" stroke="#fce94f" stroke-dasharray="6 12" stroke-dashoffset="9.6" stroke-linecap="round" stroke-linejoin="round" stroke-miterlimit="4" stroke-opacity="1" stroke-width="2" d="M 4.9999999,9 31,9 c 8,8 16,32 16,48 L 21,57 C 21,41 13,17 4.9999999,9 z"/><path id="path4151" fill="#babdb6" fill-opacity="1" fill-rule="nonzero" stroke="#2e3436" stroke-dasharray="none" stroke-dashoffset="0" stroke-linecap="round" stroke-linejoin="round" stroke-miterlimit="4" stroke-opacity="1" stroke-width="2" d="m 35.62634,7.8639368 c -2.40248,-0.028596 -2.5424,4.2694662 -2.91874,8.3177042 1.46209,0.04781 2.91568,0.242335 4.33889,0.580664 0.54461,-4.175898 1.4254,-8.5896616 -1.20424,-8.8846225 -0.0739,-0.00829 -0.14595,-0.012912 -0.21591,-0.01375 z M 19.72682,10.643881 c -0.24936,0.0046 -0.50665,0.06864 -0.7731,0.200482 -2.31104,1.143558 -0.15635,4.827978 1.74601,8.476282 1.25463,-0.758782 2.58246,-1.389336 3.9634,-1.882127 -1.55637,-3.314941 -3.01044,-6.830151 -4.93631,-6.794637 z m 30.85027,3.455821 c -1.85734,-0.01471 -4.00634,3.108992 -6.19855,5.894807 1.20266,0.827232 2.31939,1.772909 3.33345,2.822856 2.74877,-3.277204 6.03255,-6.604046 3.94161,-8.304964 -0.34594,-0.281404 -0.70531,-0.40976 -1.07651,-0.412699 z M 7.98581,21.601727 c -0.69084,-0.01878 -1.25353,0.23189 -1.63571,0.869321 -1.31385,2.191333 2.40978,4.11098 5.95381,6.131164 0.63214,-1.325194 1.39625,-2.583289 2.28075,-3.755206 C 12.12992,23.301401 9.6748,21.647652 7.98581,21.601727 z m 51.32202,5.76976 c -1.85239,-0.0083 -4.61095,1.123626 -7.24958,2.025952 0.57428,1.34012 1.01297,2.734361 1.30951,4.161869 4.13241,-1.299654 8.85305,-2.314948 8.00022,-4.917201 -0.3009,-0.918141 -1.04401,-1.266074 -2.06015,-1.27062 z M 10.2213,36.612823 c -4.07967,0.03711 -8.26741,-0.101362 -8.18796,2.452733 0.0796,2.55963 4.26875,2.15398 8.35123,1.93778 -0.14672,-0.996531 -0.22435,-2.002017 -0.23233,-3.009259 0.008,-0.461031 0.0315,-0.921681 0.0691,-1.381254 z m 2.82152,12.18656 C 9.59968,51.061559 5.91046,53.23229 7.3733,55.36001 c 1.47143,2.140212 4.84983,-0.571156 8.21445,-2.986797 -0.96608,-1.102865 -1.81869,-2.300178 -2.54493,-3.57383 z" color="#000" display="inline" enable-background="accumulate" overflow="visible" visibility="visible" style="marker:none"/><path id="path4151-7" fill="#888a85" fill-opacity="1" fill-rule="nonzero" stroke="#2e3436" stroke-dasharray="none" stroke-dashoffset="0" stroke-linecap="round" stroke-linejoin="round" stroke-miterlimit="4" stroke-opacity="1" stroke-width="2" d="m 32.59911,34.799169 c -0.22479,1.439764 -0.59306,2.853427 -1.09931,4.219868 4.19353,1.140804 18.89374,6.460931 19.58604,3.799656 C 51.77808,40.1577 36.81663,35.846329 32.59911,34.799169 z" color="#000" display="inline" enable-background="accumulate" overflow="visible" visibility="visible" style="marker:none"/><path id="path4151-3" fill="#ef2929" fill-opacity="1" fill-rule="nonzero" stroke="#280000" stroke-dasharray="none" stroke-dashoffset="0" stroke-linecap="round" stroke-linejoin="round" stroke-miterlimit="4" stroke-opacity="1" stroke-width="2" d="m 53.55953,41.358038 c -0.22479,1.439763 -0.59306,2.853427 -1.09931,4.219868 4.19353,1.140803 8.74884,2.864106 9.44115,0.20283 0.69223,-2.660992 -4.12432,-3.375539 -8.34184,-4.422698 z" color="#000" display="inline" enable-background="accumulate" overflow="visible" visibility="visible" style="marker:none"/><circle id="path4186" cx="31.92" cy="36.385" r="5.718" fill="#888a85" fill-opacity="1" fill-rule="nonzero" stroke="#2e3436" stroke-dasharray="none" stroke-dashoffset="0" stroke-linecap="round" stroke-linejoin="round" stroke-miterlimit="4" stroke-opacity="1" stroke-width="2" color="#000" display="inline" enable-background="accumulate" overflow="visible" visibility="visible" style="marker:none"/></g></svg>