<svg xmlns="http://www.w3.org/2000/svg" xmlns:svg="http://www.w3.org/2000/svg" id="svg2" width="64" height="64" version="1.1"><metadata id="metadata7"/><g id="layer1" transform="translate(0,-988.36218)"><path id="path2987" fill="#8ae234" stroke="#172a04" stroke-linecap="butt" stroke-linejoin="round" stroke-opacity="1" stroke-width="2" d="M 49,61 60,23 9,9 5,58 z" transform="translate(0,988.36218)"/><path id="path3757" fill="none" stroke="#0b1521" stroke-linecap="round" stroke-linejoin="miter" stroke-opacity="1" stroke-width="6" d="M 9,54.99996 55,22.99998" transform="translate(0,988.36218)"/><path id="path4221-6" fill="#729fcf" fill-opacity="1" stroke="#0b1521" stroke-dasharray="none" stroke-dashoffset="9.6" stroke-linecap="round" stroke-linejoin="round" stroke-miterlimit="4" stroke-width="1.833" d="m 12,57.5 a 5.5,5.5 0 1 1 -11,0 5.5,5.5 0 1 1 11,0 z" transform="matrix(1.0909091,0,0,1.0909088,47.909091,948.63493)"/><path id="path4221-6-7" fill="#729fcf" fill-opacity="1" stroke="#0b1521" stroke-dasharray="none" stroke-dashoffset="9.6" stroke-linecap="round" stroke-linejoin="round" stroke-miterlimit="4" stroke-width="1.833" d="m 12,57.5 a 5.5,5.5 0 1 1 -11,0 5.5,5.5 0 1 1 11,0 z" transform="matrix(1.0909091,0,0,1.0909088,1.9090908,980.63493)"/><path id="path3757-3" fill="none" stroke="#729fcf" stroke-linecap="round" stroke-linejoin="miter" stroke-opacity="1" stroke-width="2" d="m 9,1043.3622 46,-32"/><path id="path4300" fill="none" stroke="#0b1521" stroke-linecap="round" stroke-linejoin="round" stroke-opacity="1" stroke-width="6" d="m 8,44 2,-7 6,3 -2,-11 11,9 -6,-15 12,11 -6,-13 10,8 -3,-10 8,5 -1,-5 4,0" transform="translate(0,988.36218)"/><path id="path4300-6" fill="none" stroke="#729fcf" stroke-linecap="round" stroke-linejoin="round" stroke-opacity="1" stroke-width="2" d="m 8,1032.3622 2,-7 6,3 -2,-11 11,9 -6,-15 12,11 -6,-13 10,8 -3,-10 8,5 -1,-5 4,0"/><path id="path4259" fill="none" stroke="#2e3436" stroke-linecap="round" stroke-linejoin="miter" stroke-opacity="1" stroke-width="6" d="M 13,52 5,40" transform="translate(0,988.36218)"/><path id="path4259-5" fill="none" stroke="#d3d7cf" stroke-linecap="round" stroke-linejoin="miter" stroke-opacity="1" stroke-width="2" d="m 13,1040.3622 -8,-12"/><path id="path4259-3" fill="none" stroke="#2e3436" stroke-linecap="round" stroke-linejoin="miter" stroke-opacity="1" stroke-width="6" d="m 50,1014.3622 -8,-12"/><path id="path4259-5-5" fill="none" stroke="#d3d7cf" stroke-linecap="round" stroke-linejoin="miter" stroke-opacity="1" stroke-width="2" d="m 50,1014.3622 -8,-12"/></g></svg>