<svg xmlns="http://www.w3.org/2000/svg" xmlns:svg="http://www.w3.org/2000/svg" xmlns:xlink="http://www.w3.org/1999/xlink" id="svg2" width="64" height="64" version="1.1"><metadata id="metadata8"/><defs id="defs6"><linearGradient id="linearGradient3826"><stop id="stop3828" offset="0" stop-color="#4e9a06" stop-opacity="1"/><stop id="stop3830" offset="1" stop-color="#73d216" stop-opacity="1"/></linearGradient><linearGradient id="linearGradient3816"><stop id="stop3818" offset="0" stop-color="#73d216" stop-opacity="1"/><stop id="stop3820" offset="1" stop-color="#8ae234" stop-opacity="1"/></linearGradient><linearGradient id="linearGradient3841" x1="95" x2="91" y1="47" y2="15" gradientUnits="userSpaceOnUse" xlink:href="#linearGradient3816"/><linearGradient id="linearGradient3843" x1="120" x2="109" y1="46" y2="15" gradientUnits="userSpaceOnUse" xlink:href="#linearGradient3826"/></defs><path id="path2993-3" fill="none" stroke="#2e3436" stroke-linecap="butt" stroke-linejoin="round" stroke-opacity="1" stroke-width="6" d="M 5,13 5,53 33,41 33,5 z"/><path id="path2991" fill="none" stroke="#2e3436" stroke-linecap="round" stroke-linejoin="round" stroke-opacity="1" stroke-width="6" d="m 5,53 26,6 0,-40"/><path id="path3845" fill="none" stroke="#2e3436" stroke-linecap="round" stroke-linejoin="miter" stroke-opacity="1" stroke-width="6" d="m 51,45 8,2"/><path id="path3845-5" fill="none" stroke="#d3d7cf" stroke-linecap="round" stroke-linejoin="miter" stroke-opacity="1" stroke-width="2" d="m 50.81276,44.789004 8,2"/><path id="path2993-7-6" fill="none" stroke="#d3d7cf" stroke-linecap="butt" stroke-linejoin="round" stroke-opacity="1" stroke-width="2" d="M 5,13 5,53 33,41 33,5 z"/><g id="g3834" transform="translate(-80,0)"><path id="path3812" fill="url(#linearGradient3843)" fill-opacity="1" stroke="#172a04" stroke-dasharray="none" stroke-linecap="butt" stroke-linejoin="round" stroke-miterlimit="4" stroke-opacity="1" stroke-width="2" d="M 119,5 131,45 104,56 90,14 z"/><path id="path3824" fill="none" stroke="#73d216" stroke-linecap="butt" stroke-linejoin="miter" stroke-opacity="1" stroke-width="2" d="m 92.26271,15.491525 13.38136,37.70339 23.14407,-9.483051 -11.43221,-36.194915 z"/></g><path id="path2989" fill="none" stroke="#2e3436" stroke-linecap="round" stroke-linejoin="round" stroke-opacity="1" stroke-width="6" d="M 5,13 31,19 59,11 33,5"/><path id="path2993" fill="none" stroke="#2e3436" stroke-linecap="butt" stroke-linejoin="round" stroke-opacity="1" stroke-width="6" d="M 31,19 31,59 59,47 59,11 z"/><path id="path2989-3" fill="none" stroke="#d3d7cf" stroke-linecap="round" stroke-linejoin="round" stroke-opacity="1" stroke-width="2" d="M 5,13 31,19 59,11 33,5"/><path id="path2991-6" fill="none" stroke="#d3d7cf" stroke-linecap="round" stroke-linejoin="round" stroke-opacity="1" stroke-width="2" d="m 5,53 26,6 0,-40"/><path id="path2993-7" fill="none" stroke="#d3d7cf" stroke-linecap="butt" stroke-linejoin="round" stroke-opacity="1" stroke-width="2" d="M 31,19 31,59 59,47 59,11 z"/><path id="path3044" fill="none" stroke="#d3d7cf" stroke-linecap="round" stroke-linejoin="round" stroke-opacity="1" stroke-width="2" d="M 5,17 5,13 33,5 59,11"/></svg>