<svg xmlns="http://www.w3.org/2000/svg" xmlns:svg="http://www.w3.org/2000/svg" xmlns:xlink="http://www.w3.org/1999/xlink" id="svg2784" width="64" height="64" version="1.1"><defs id="defs2786"><linearGradient id="linearGradient3777"><stop id="stop3779" offset="0" stop-color="#71b2f8" stop-opacity="1"/><stop id="stop3781" offset="1" stop-color="#002795" stop-opacity="1"/></linearGradient><linearGradient id="linearGradient3377"><stop id="stop3379" offset="0" stop-color="#faff2b" stop-opacity="1"/><stop id="stop3381" offset="1" stop-color="#fa0" stop-opacity="1"/></linearGradient><radialGradient id="radialGradient3692" cx="45.883" cy="28.87" r="19.467" fx="45.883" fy="28.87" gradientUnits="userSpaceOnUse" xlink:href="#linearGradient3777"/><linearGradient id="linearGradient3377-3"><stop id="stop3379-8" offset="0" stop-color="#faff2b" stop-opacity="1"/><stop id="stop3381-3" offset="1" stop-color="#fa0" stop-opacity="1"/></linearGradient><radialGradient id="radialGradient3808" cx="20.803" cy="18.627" r="27.085" fx="20.803" fy="18.627" gradientTransform="matrix(0.66666671,0.70000004,-1.3510775,1.2867404,32.100634,-19.902858)" gradientUnits="userSpaceOnUse" xlink:href="#linearGradient3600"/><linearGradient id="linearGradient3600"><stop id="stop3602" offset="0" stop-color="#729fcf" stop-opacity="1"/><stop id="stop3604" offset="1" stop-color="#204a87" stop-opacity="1"/></linearGradient><radialGradient id="radialGradient3132" cx="20.803" cy="18.627" r="27.085" fx="20.803" fy="18.627" gradientTransform="matrix(0.66666671,0.70000004,-1.3510775,1.2867404,32.100634,-19.902858)" gradientUnits="userSpaceOnUse" xlink:href="#linearGradient3600"/></defs><metadata id="metadata2789"/><g id="layer1"><path id="path2826" fill="url(#radialGradient3132)" fill-opacity="1" fill-rule="evenodd" stroke="#0b1521" stroke-width="1.806" d="m 57.818182,30.363636 a 26.181818,26.181818 0 1 1 -52.363636,0 26.181818,26.181818 0 1 1 52.363636,0 z" color="#000" display="inline" enable-background="accumulate" overflow="visible" transform="matrix(1.1076389,0,0,1.1076389,-3.0416672,-1.6319442)" visibility="visible" style="marker:none"/><path id="path2826-4" fill="none" stroke="#729fcf" stroke-width="1.939" d="m 57.818182,30.363636 a 26.181818,26.181818 0 1 1 -52.363636,0 26.181818,26.181818 0 1 1 52.363636,0 z" color="#000" display="inline" enable-background="accumulate" overflow="visible" transform="matrix(1.03125,0,0,1.03125,-0.6250005,0.68750036)" visibility="visible" style="marker:none"/><path id="path2826-5" fill="none" stroke="#0b1521" stroke-width="1.806" d="m 57.818182,30.363636 a 26.181818,26.181818 0 1 1 -52.363636,0 26.181818,26.181818 0 1 1 52.363636,0 z" color="#000" display="inline" enable-background="accumulate" overflow="visible" transform="matrix(1.1076389,0,0,1.1076389,-3.0416672,-1.631944)" visibility="visible" style="marker:none"/></g></svg>