<svg xmlns="http://www.w3.org/2000/svg" xmlns:svg="http://www.w3.org/2000/svg" xmlns:xlink="http://www.w3.org/1999/xlink" id="svg2" width="64" height="64" version="1.1" viewBox="0 0 64 64"><defs id="defs4"><linearGradient id="linearGradient3942"><stop id="stop3944" offset="0" stop-color="#729fcf" stop-opacity="1"/><stop id="stop3946" offset="1" stop-color="#ef2929" stop-opacity="1"/></linearGradient><linearGradient id="linearGradient3900"><stop id="stop3902" offset="0" stop-color="#8ae234" stop-opacity="1"/><stop id="stop3904" offset="1" stop-color="#8ae234" stop-opacity="0"/></linearGradient><linearGradient id="linearGradient3846"><stop id="stop3848" offset="0" stop-color="#3465a4" stop-opacity="1"/><stop id="stop3850" offset="1" stop-color="#c00" stop-opacity="1"/></linearGradient><linearGradient id="linearGradient3804"><stop id="stop3806" offset="0" stop-color="#73d216" stop-opacity="1"/><stop id="stop3808" offset="1" stop-color="#8ae234" stop-opacity="0"/></linearGradient><linearGradient id="linearGradient3757"><stop id="stop3759" offset="0" stop-color="#a40000" stop-opacity="1"/><stop id="stop3761" offset="1" stop-color="#ef2929" stop-opacity="1"/></linearGradient><linearGradient id="linearGradient3763" x1="8" x2="6" y1="1043.362" y2="1032.362" gradientUnits="userSpaceOnUse" xlink:href="#linearGradient3757"/><linearGradient id="linearGradient3763-3" x1="8" x2="6" y1="1043.362" y2="1032.362" gradientUnits="userSpaceOnUse" xlink:href="#linearGradient3757-6"/><linearGradient id="linearGradient3757-6"><stop id="stop3759-7" offset="0" stop-color="#a40000" stop-opacity="1"/><stop id="stop3761-5" offset="1" stop-color="#ef2929" stop-opacity="1"/></linearGradient><linearGradient id="linearGradient3781" x1="8" x2="6" y1="1043.362" y2="1032.362" gradientTransform="translate(0,-15.99998)" gradientUnits="userSpaceOnUse" xlink:href="#linearGradient3757-6"/><linearGradient id="linearGradient3810" x1="16" x2="62" y1="1029.362" y2="1029.362" gradientUnits="userSpaceOnUse" xlink:href="#linearGradient3804"/><linearGradient id="linearGradient3810-6" x1="16" x2="62" y1="1029.362" y2="1029.362" gradientUnits="userSpaceOnUse" xlink:href="#linearGradient3804-2"/><linearGradient id="linearGradient3804-2"><stop id="stop3806-9" offset="0" stop-color="#8ae234" stop-opacity="1"/><stop id="stop3808-1" offset="1" stop-color="#8ae234" stop-opacity="0"/></linearGradient><linearGradient id="linearGradient3827" x1="59" x2="59" y1="1042.362" y2="1017.362" gradientTransform="translate(2.5e-7,1.0169853e-5)" gradientUnits="userSpaceOnUse" xlink:href="#linearGradient3846"/><linearGradient id="linearGradient3810-7" x1="16" x2="62" y1="1029.362" y2="1029.362" gradientUnits="userSpaceOnUse" xlink:href="#linearGradient3804-0"/><linearGradient id="linearGradient3804-0"><stop id="stop3806-93" offset="0" stop-color="#8ae234" stop-opacity="1"/><stop id="stop3808-6" offset="1" stop-color="#8ae234" stop-opacity="0"/></linearGradient><linearGradient id="linearGradient3906" x1="18" x2="60" y1="989.362" y2="989.362" gradientTransform="translate(0,40)" gradientUnits="userSpaceOnUse" xlink:href="#linearGradient3900"/><linearGradient id="linearGradient3906-1" x1="18" x2="60" y1="989.362" y2="989.362" gradientUnits="userSpaceOnUse" xlink:href="#linearGradient3900-9"/><linearGradient id="linearGradient3900-9"><stop id="stop3902-7" offset="0" stop-color="#8ae234" stop-opacity="1"/><stop id="stop3904-1" offset="1" stop-color="#8ae234" stop-opacity="0"/></linearGradient><linearGradient id="linearGradient3923" x1="59" x2="59" y1="1001.362" y2="977.362" gradientTransform="translate(2.8125e-7,40.00003)" gradientUnits="userSpaceOnUse" xlink:href="#linearGradient3942"/></defs><metadata id="metadata7"/><g id="layer1" transform="translate(0,-988.36221)"><path id="path2985" fill="url(#linearGradient3763)" fill-opacity="1" stroke="#280000" stroke-linecap="butt" stroke-linejoin="round" stroke-opacity="1" stroke-width="2" d="m 3,1043.3622 8,0 0,-2 4,-4 -4,-4 0,-2 -8,0 z"/><path id="path3755" fill="none" stroke="#ef2929" stroke-linecap="butt" stroke-linejoin="miter" stroke-opacity="1" stroke-width="2" d="M 5,45 9,45 9,45.877232 12.139509,49 9,52.15625 9,53 5,53 z" transform="translate(0,988.36221)"/><path id="path2985-3" fill="url(#linearGradient3781)" fill-opacity="1" stroke="#280000" stroke-linecap="butt" stroke-linejoin="round" stroke-opacity="1" stroke-width="2" d="m 3,1027.3622 8,0 0,-2 4,-4 -4,-4 0,-2 -8,0 z"/><path id="path3755-5" fill="none" stroke="#ef2929" stroke-linecap="butt" stroke-linejoin="miter" stroke-opacity="1" stroke-width="2" d="m 5,1017.3622 4.0000001,0 0,0.8772 3.1395089,3.1228 -3.1395089,3.1562 0,0.8438 -4.0000001,0 z"/><rect id="rect3802-2" width="44" height="28" x="17" y="1015.362" fill="url(#linearGradient3827)" fill-opacity="1" stroke="#172a04" stroke-dasharray="none" stroke-dashoffset="9.6" stroke-linecap="round" stroke-linejoin="round" stroke-miterlimit="4" stroke-opacity="1" stroke-width="2"/><rect id="rect3802" width="44" height="28" x="17" y="1015.362" fill="url(#linearGradient3810)" fill-opacity="1" stroke="#172a04" stroke-dasharray="none" stroke-dashoffset="9.6" stroke-linecap="round" stroke-linejoin="round" stroke-miterlimit="4" stroke-opacity="1" stroke-width="2"/><rect id="rect3802-0-3" width="40" height="24" x="19" y="1017.362" fill="none" stroke="url(#linearGradient3923)" stroke-dasharray="none" stroke-dashoffset="9.6" stroke-linecap="round" stroke-linejoin="miter" stroke-miterlimit="4" stroke-opacity="1" stroke-width="2"/><rect id="rect3802-0" width="40" height="24" x="19" y="1017.362" fill="none" stroke="url(#linearGradient3906)" stroke-dasharray="none" stroke-dashoffset="9.6" stroke-linecap="round" stroke-linejoin="miter" stroke-miterlimit="4" stroke-opacity="1" stroke-width="2"/><path id="path3948" fill="#729fcf" stroke="#0b1521" stroke-linecap="butt" stroke-linejoin="round" stroke-opacity="1" stroke-width="2" d="m 23,25 -6,-6 4,0 0,-16.0000001 4,0 L 25,19 l 4,0 z" transform="translate(0,988.36221)"/><path id="path3948-1" fill="#729fcf" stroke="#0b1521" stroke-linecap="butt" stroke-linejoin="round" stroke-opacity="1" stroke-width="2" d="m 39.000001,1013.3622 -6,-6 4,0 0,-15.99999 4,0 0,15.99999 4,0 z"/><path id="path3948-2" fill="#729fcf" stroke="#0b1521" stroke-linecap="butt" stroke-linejoin="round" stroke-opacity="1" stroke-width="2" d="m 55.000001,1013.3622 -6,-6 4,0 0,-15.99999 4,0 0,15.99999 4,0 z"/></g></svg>