<svg xmlns="http://www.w3.org/2000/svg" xmlns:svg="http://www.w3.org/2000/svg" xmlns:xlink="http://www.w3.org/1999/xlink" id="svg2" width="64" height="64" version="1.1" viewBox="0 0 64 64"><metadata id="metadata8"/><defs id="defs6"><linearGradient id="linearGradient4739"><stop id="stop4735" offset="0" stop-color="#204a87" stop-opacity="1"/><stop id="stop4737" offset="1" stop-color="#729fcf" stop-opacity="1"/></linearGradient><linearGradient id="linearGradient3797"><stop id="stop3799-3" offset="0" stop-color="#3465a4" stop-opacity="1"/><stop id="stop3801" offset="1" stop-color="#729fcf" stop-opacity="1"/></linearGradient><linearGradient id="linearGradient4687-1-6-6" x1="18.145" x2="44.398" y1="51.499" y2="51.499" gradientTransform="matrix(1,0,0,1.0981138,0.14321474,-55.839871)" gradientUnits="userSpaceOnUse" xlink:href="#linearGradient3797"/><linearGradient id="linearGradient4695-7-8-7-0" x1=".18" x2="14.624" y1="36.248" y2="36.248" gradientTransform="matrix(-1,0,0,1,57.200391,-43.587124)" gradientUnits="userSpaceOnUse" xlink:href="#linearGradient3797"/><linearGradient id="linearGradient4687-1-6-6-8" x1="18.145" x2="44.398" y1="51.499" y2="51.499" gradientTransform="matrix(1,0,0,1.0981138,45.686839,-56.465414)" gradientUnits="userSpaceOnUse" xlink:href="#linearGradient3797"/><linearGradient id="linearGradient1065" x1="26.112" x2="44.096" y1="2.937" y2="2.911" gradientTransform="matrix(1.2002734,0,0,1.2002734,-6.0365755,41.424104)" gradientUnits="userSpaceOnUse" xlink:href="#linearGradient3797"/><linearGradient id="linearGradient4655" x1="108" x2="128" y1="46" y2="46" gradientTransform="translate(-86.020077,-13.687753)" gradientUnits="userSpaceOnUse" xlink:href="#linearGradient3797"/><linearGradient id="linearGradient995" x1="39.971" x2="26.592" y1="44.082" y2="23.737" gradientTransform="translate(78.922405,4.6396909)" gradientUnits="userSpaceOnUse" xlink:href="#linearGradient4739"/><linearGradient id="linearGradient949" x1="18.702" x2="45.765" y1="31.725" y2="31.812" gradientUnits="userSpaceOnUse" xlink:href="#linearGradient4739"/></defs><g id="g4675" transform="matrix(1.0161989,0,0,1.0161989,-0.46489119,-0.38459578)"><g id="g1027" transform="matrix(1.0467069,0,0,0.96691716,-1.6743117,1.1139168)"><path id="path1543-7-6-1" fill="#8ae234" fill-opacity="1" fill-rule="evenodd" stroke="none" stroke-linecap="butt" stroke-linejoin="miter" stroke-opacity="1" stroke-width=".984" d="m 5.00875,45.522181 23.49442,15.86795 30.87486,-15.86795 V 13.294243 L 31.94401,2.346576 5.00875,13.294243 Z" opacity="1"/><path id="path971-0-3" fill="none" stroke="#172a04" stroke-dasharray="none" stroke-linecap="butt" stroke-linejoin="round" stroke-miterlimit="4" stroke-opacity="1" stroke-width="1.968" d="M 5.00875,13.294243 31.94401,2.346576 59.37803,13.294243 V 45.522181 L 28.50317,61.390131 5.00875,45.522181 Z"/><path id="path983" fill="#4e9a06" stroke="#172a04" stroke-dasharray="none" stroke-linecap="butt" stroke-linejoin="round" stroke-miterlimit="4" stroke-opacity="1" stroke-width="1.956" d="M 31.947378,2.3465822 59.378032,13.294244 V 45.522186 L 31.947378,32.852423 Z"/><path id="path985" fill="#73d216" stroke="#172a04" stroke-dasharray="none" stroke-linecap="butt" stroke-linejoin="round" stroke-miterlimit="4" stroke-opacity="1" stroke-width="1.968" d="M 5.0087548,45.522186 28.503171,61.390143 59.378032,45.522186 31.947378,32.852423 5.0087548,45.522186"/></g><g id="g933" transform="matrix(0.84067711,0,0,0.84067711,4.792689,5.8630294)"><path id="path1141-6" fill="#729fcf" stroke="#0b1521" stroke-dasharray="none" stroke-linecap="butt" stroke-linejoin="miter" stroke-miterlimit="4" stroke-opacity="1" stroke-width="1.968" d="m 30.22554,16.840233 0.0435,12.023068 -13.02134,-6.795248 -1.78936,3.371558 12.74569,6.66474 -7.87506,3.13105 1.2679,3.20128 8.26338,-3.22048 -0.0652,10.71529 h 3.93624 l 0.0435,-10.82401 12.43586,6.653 1.78935,-3.37156 -11.30661,-5.93357 7.82767,-3.09799 -1.26789,-3.20128 -9.46037,3.68691 V 16.840233 Z"/><circle id="path1066-18-6" cx="51.574" cy="42.533" r="5.781" fill="#729fcf" fill-opacity="1" fill-rule="nonzero" stroke="#0b1521" stroke-dasharray="none" stroke-linecap="round" stroke-miterlimit="4" stroke-width="1.968" opacity="1"/><circle id="path1066-4" cx="32.071" cy="10.997" r="5.781" fill="#729fcf" fill-opacity="1" fill-rule="nonzero" stroke="#0b1521" stroke-dasharray="none" stroke-linecap="round" stroke-miterlimit="4" stroke-width="1.968" opacity="1"/><circle id="path1066-1-1" cx="31.825" cy="51.59" r="5.781" fill="#729fcf" fill-opacity="1" fill-rule="nonzero" stroke="#0b1521" stroke-dasharray="none" stroke-linecap="round" stroke-miterlimit="4" stroke-width="1.968" opacity="1"/><circle id="path1066-6-2" cx="11.289" cy="21.435" r="5.781" fill="#729fcf" fill-opacity="1" fill-rule="nonzero" stroke="#0b1521" stroke-dasharray="none" stroke-linecap="round" stroke-miterlimit="4" stroke-width="1.968" opacity="1"/><circle id="path1066-5-2" cx="49.386" cy="25.436" r="5.781" fill="#729fcf" fill-opacity="1" fill-rule="nonzero" stroke="#0b1521" stroke-dasharray="none" stroke-linecap="round" stroke-miterlimit="4" stroke-width="1.968" opacity="1"/><circle id="path1066-2-5" cx="15.377" cy="38.57" r="5.781" fill="#729fcf" fill-opacity="1" fill-rule="nonzero" stroke="#0b1521" stroke-dasharray="none" stroke-linecap="round" stroke-miterlimit="4" stroke-width="1.968" opacity="1"/></g></g></svg>