<svg xmlns="http://www.w3.org/2000/svg" xmlns:svg="http://www.w3.org/2000/svg" xmlns:xlink="http://www.w3.org/1999/xlink" id="svg2860" width="64" height="64" version="1.1"><defs id="defs2862"><radialGradient id="radialGradient3703" cx="135.383" cy="97.37" r="19.467" fx="135.383" fy="97.37" gradientTransform="matrix(-0.34791909,0.31825551,-0.73405476,-0.58464457,117.5429,55.266368)" gradientUnits="userSpaceOnUse" xlink:href="#linearGradient3377"/><linearGradient id="linearGradient3377"><stop id="stop3379" offset="0" stop-color="#faff2b" stop-opacity="1"/><stop id="stop3381" offset="1" stop-color="#fa0" stop-opacity="1"/></linearGradient><radialGradient id="radialGradient3705" cx="148.883" cy="81.87" r="19.467" fx="148.883" fy="81.87" gradientTransform="matrix(-0.33630263,0.52883839,-0.4357335,-0.19166171,87.82801,-13.379033)" gradientUnits="userSpaceOnUse" xlink:href="#linearGradient3377"/><radialGradient id="radialGradient3703-8" cx="135.383" cy="97.37" r="19.467" fx="135.383" fy="97.37" gradientTransform="matrix(0.97435,0.2250379,-0.4623105,2.0016728,48.487554,-127.99883)" gradientUnits="userSpaceOnUse" xlink:href="#linearGradient3377-4"/><linearGradient id="linearGradient3377-4"><stop id="stop3379-3" offset="0" stop-color="#faff2b" stop-opacity="1"/><stop id="stop3381-0" offset="1" stop-color="#fa0" stop-opacity="1"/></linearGradient><radialGradient id="radialGradient3703-8-8" cx="135.383" cy="97.37" r="19.467" fx="135.383" fy="97.37" gradientTransform="matrix(0.97435,0.2250379,-0.4623105,2.0016728,48.487554,-127.99883)" gradientUnits="userSpaceOnUse" xlink:href="#linearGradient3377"/><linearGradient id="linearGradient3092-0-6" x1="51.284" x2="39.544" y1="24.929" y2="31.991" gradientTransform="matrix(0.70710678,-0.70710678,0.70710678,0.70710678,-77.468037,60.464466)" gradientUnits="userSpaceOnUse" xlink:href="#linearGradient3094-7-8"/><linearGradient id="linearGradient3094-7-8"><stop id="stop3096-6-7" offset="0" stop-color="#4e9a06" stop-opacity="1"/><stop id="stop3098-0-4" offset="1" stop-color="#8ae234" stop-opacity="1"/></linearGradient><linearGradient id="linearGradient4175" x1="96.246" x2="111.246" y1="55.08" y2="56.08" gradientTransform="translate(-108,0)" gradientUnits="userSpaceOnUse" spreadMethod="reflect" xlink:href="#linearGradient4079"/><linearGradient id="linearGradient4079"><stop id="stop4081" offset="0" stop-color="#fce94f" stop-opacity="1"/><stop id="stop4083" offset="1" stop-color="#c4a000" stop-opacity="1"/></linearGradient></defs><metadata id="metadata2865"/><g id="layer1"><g id="g4161" transform="translate(38.754325,-29.079584)"><path id="path4022" fill="#fce94f" stroke="#4e9a06" stroke-linecap="butt" stroke-linejoin="round" stroke-opacity="1" stroke-width="2" d="m -19.754325,38.079585 0,22 c 0,8 26,8 26,0 l 0,-22 z"/><path id="path4022-6" fill="url(#linearGradient4175)" fill-opacity="1" stroke="#fce94f" stroke-linecap="butt" stroke-linejoin="miter" stroke-opacity="1" stroke-width="2" d="m -17.75433,43.779585 0,16 c 5e-6,5.3 22.00001,5.3 22,0 l 0,-16 c 1e-5,3.3 -21.999995,3.3 -22,0 z"/><path id="path4044" fill="none" stroke="#4e9a06" stroke-linecap="butt" stroke-linejoin="miter" stroke-opacity="1" stroke-width="2" d="m -15.754325,42.079585 0,22"/><path id="path4044-2" fill="none" stroke="#4e9a06" stroke-linecap="butt" stroke-linejoin="miter" stroke-opacity="1" stroke-width="2" d="m -7.75432,44.079585 0,22"/><path id="path4044-9" fill="none" stroke="#4e9a06" stroke-linecap="butt" stroke-linejoin="miter" stroke-opacity="1" stroke-width="2" d="m 3.24568,42.079585 0,22"/><path id="path3164" fill="#fce94f" fill-opacity="1" stroke="#4e9a06" stroke-dasharray="none" stroke-linecap="round" stroke-linejoin="round" stroke-miterlimit="4" stroke-width="2" d="m 116,16 c 0,3.313708 -5.8203,6 -13,6 -7.179702,0 -13,-2.686292 -13,-6 0,-3.313708 5.820298,-6 13,-6 7.1797,0 13,2.686292 13,6 z" transform="translate(-109.75434,22.079585)"/><path id="path3164-3" fill="#fce94f" fill-opacity="1" stroke="#fce94f" stroke-dasharray="none" stroke-linecap="round" stroke-linejoin="round" stroke-miterlimit="4" stroke-width="2.663" d="m 116,16 c 0,3.313708 -5.8203,6 -13,6 -7.179702,0 -13,-2.686292 -13,-6 0,-3.313708 5.820298,-6 13,-6 7.1797,0 13,2.686292 13,6 z" transform="matrix(0.84615382,0,0,0.66666668,-93.90817,27.412918)"/><path id="path3952" fill="none" stroke="#4e9a06" stroke-linecap="butt" stroke-linejoin="miter" stroke-opacity="1" stroke-width="2" d="m -5.754325,32.079585 -10,10"/><path id="path3952-6" fill="none" stroke="#4e9a06" stroke-linecap="butt" stroke-linejoin="miter" stroke-opacity="1" stroke-width="2" d="m 3.24568,34.079585 -11,10"/><path id="path3952-7" fill="none" stroke="#4e9a06" stroke-linecap="round" stroke-linejoin="miter" stroke-opacity="1" stroke-width="2" d="M 5.91004,38.453288 -15.754325,34.079585"/><path id="path3952-7-3" fill="none" stroke="#4e9a06" stroke-linecap="round" stroke-linejoin="miter" stroke-opacity="1" stroke-width="2" d="M 2.91004,41.453288 -18.754325,37.079585"/><path id="path4042" fill="none" stroke="#4e9a06" stroke-linecap="butt" stroke-linejoin="miter" stroke-opacity="1" stroke-width="2" d="m -19.754325,50.079585 c 0,6 26.000005,6 26.000005,0"/></g><g id="g3088-1-9" transform="matrix(-0.45683557,0.44456963,-0.45683557,-0.44456963,45.900658,81.458914)"><path id="path3343-0-2" fill="url(#linearGradient3092-0-6)" fill-opacity="1" fill-rule="evenodd" stroke="#172a04" stroke-dasharray="none" stroke-linecap="butt" stroke-linejoin="round" stroke-miterlimit="4" stroke-opacity="1" stroke-width="3.138" d="m -32.236782,40.77521 6.566914,6.566914 -11.246832,11.246832 8.755886,8.755886 11.246832,-11.246832 6.566915,6.566914 2.5513411,-24.441055 z"/><path id="path3343-2-2-4" fill="none" stroke="#8ae234" stroke-dasharray="none" stroke-linecap="butt" stroke-linejoin="miter" stroke-miterlimit="4" stroke-opacity="1" stroke-width="3.138" d="m -25.390575,43.122684 4.159045,4.159045 -11.246832,11.246832 4.377943,4.377943 11.246832,-11.246832 4.159046,4.159046 1.513234,-14.221358 z"/></g></g></svg>