<svg xmlns="http://www.w3.org/2000/svg" xmlns:svg="http://www.w3.org/2000/svg" id="svg3542" width="64" height="64" version="1.1"><metadata id="metadata3552"/><defs id="defs3544"><pattern id="cross" width=".1" height=".1" x="0" y="0" patternUnits="userSpaceOnUse"><g id="g3382" fill="none" stroke="#000" stroke-width=".005"><path id="path3384" d="M0,0 l.12,.12"/><path id="path3386" d="M.12,0 l-.12,.12"/></g></pattern></defs><path id="path2998" fill="none" stroke="#000" stroke-linecap="butt" stroke-linejoin="miter" stroke-opacity="1" stroke-width="1" d="M 64,0 0,64"/><path id="path3000" fill="none" stroke="#000" stroke-linecap="butt" stroke-linejoin="miter" stroke-opacity="1" stroke-width="1" d="M 48,0 0,48"/><path id="path3002" fill="none" stroke="#000" stroke-linecap="butt" stroke-linejoin="miter" stroke-opacity="1" stroke-width="1" d="M 16,64 64,16"/><path id="path3004" fill="none" stroke="#000" stroke-linecap="butt" stroke-linejoin="miter" stroke-opacity="1" stroke-width="1" d="M 32,0 0,32"/><path id="path3006" fill="none" stroke="#000" stroke-linecap="butt" stroke-linejoin="miter" stroke-opacity="1" stroke-width="1" d="M 16,0 0,16"/><path id="path3008" fill="none" stroke="#000" stroke-linecap="butt" stroke-linejoin="miter" stroke-opacity="1" stroke-width="1" d="M 64,32 32,64"/><path id="path3010" fill="none" stroke="#000" stroke-linecap="butt" stroke-linejoin="miter" stroke-opacity="1" stroke-width="1" d="M 64,48 48,64"/><path id="path3683" fill="none" stroke="#000" stroke-linecap="butt" stroke-linejoin="miter" stroke-opacity="1" stroke-width="1" d="M 0,0 64,64"/><path id="path3685" fill="none" stroke="#000" stroke-linecap="butt" stroke-linejoin="miter" stroke-opacity="1" stroke-width="1" d="M 16,0 64,48"/><path id="path3687" fill="none" stroke="#000" stroke-linecap="butt" stroke-linejoin="miter" stroke-opacity="1" stroke-width="1" d="M 32,0 64,32"/><path id="path3689" fill="none" stroke="#000" stroke-linecap="butt" stroke-linejoin="miter" stroke-opacity="1" stroke-width="1" d="M 48,0 64,16"/><path id="path3691" fill="none" stroke="#000" stroke-linecap="butt" stroke-linejoin="miter" stroke-opacity="1" stroke-width="1" d="M 0,16 48,64"/><path id="path3693" fill="none" stroke="#000" stroke-linecap="butt" stroke-linejoin="miter" stroke-opacity="1" stroke-width="1" d="M 0,32 32,64"/><path id="path3695" fill="none" stroke="#000" stroke-linecap="butt" stroke-linejoin="miter" stroke-opacity="1" stroke-width="1" d="M 0,48 16,64"/></svg>