<svg xmlns="http://www.w3.org/2000/svg" xmlns:svg="http://www.w3.org/2000/svg" id="svg3137" width="64" height="64" version="1.1"><defs id="defs3139"><pattern id="wood" width="64.969" height="65.313" patternTransform="translate(-0.125,-0.5)" patternUnits="userSpaceOnUse"><g id="g3339" transform="translate(0.125,0.5) scale(0.03,0.03)"><line id="line10" x1="36.014" x2="46.449" y1="49.589" y2="44.405" stroke="#000" stroke-width=".916"/><line id="line12" x1="26.509" x2="36.014" y1="56.912" y2="49.589" stroke="#000" stroke-width=".916"/><line id="line14" x1="18.325" x2="22.829" y1="43.803" y2="36.588" stroke="#000" stroke-width=".916"/><line id="line16" x1="10.452" x2="18.325" y1="52.415" y2="43.803" stroke="#000" stroke-width=".916"/><line id="line18" x1="60.742" x2="64.451" y1="45.402" y2="51.171" stroke="#000" stroke-width=".916"/><line id="line20" x1="54.284" x2="60.742" y1="38.169" y2="45.402" stroke="#000" stroke-width=".916"/><line id="line22" x1="46.965" x2="54.284" y1="31.994" y2="38.169" stroke="#000" stroke-width=".916"/><line id="line24" x1="53.595" x2="56.523" y1="58.921" y2="64.537" stroke="#000" stroke-width=".916"/><line id="line26" x1="48.17" x2="53.595" y1="50.483" y2="58.921" stroke="#000" stroke-width=".916"/><line id="line28" x1="41.541" x2="48.17" y1="42.991" y2="50.483" stroke="#000" stroke-width=".916"/><line id="line30" x1="34.652" x2="41.541" y1="36.533" y2="42.991" stroke="#000" stroke-width=".916"/><line id="line34" x1="39.302" x2="44.812" y1="57.026" y2="64.537" stroke="#000" stroke-width=".916"/><line id="line36" x1="30.175" x2="39.302" y1="46.005" y2="57.026" stroke="#000" stroke-width=".916"/><line id="line38" x1="20.617" x2="30.175" y1="38.169" y2="46.005" stroke="#000" stroke-width=".916"/><line id="line40" x1="12.868" x2="20.617" y1="34.294" y2="38.169" stroke="#000" stroke-width=".916"/><line id="line42" x1="2.88" x2="12.868" y1="31.994" y2="34.294" stroke="#000" stroke-width=".916"/><line id="line44" x1="31.122" x2="35.082" y1="59.437" y2="64.537" stroke="#000" stroke-width=".916"/><line id="line46" x1="25.008" x2="31.122" y1="52.721" y2="59.437" stroke="#000" stroke-width=".916"/><line id="line48" x1="16.914" x2="25.008" y1="45.918" y2="52.721" stroke="#000" stroke-width=".916"/><line id="line50" x1="7.271" x2="16.914" y1="40.752" y2="45.918" stroke="#000" stroke-width=".916"/><line id="line52" x1=".095" x2="7.271" y1="38.772" y2="40.752" stroke="#000" stroke-width=".916"/><line id="line54" x1="19.412" x2="23.803" y1="58.663" y2="64.537" stroke="#000" stroke-width=".916"/><line id="line56" x1="15.365" x2="19.412" y1="54.271" y2="58.663" stroke="#000" stroke-width=".916"/><line id="line58" x1="9.854" x2="15.365" y1="49.966" y2="54.271" stroke="#000" stroke-width=".916"/><line id="line60" x1="4.515" x2="9.854" y1="47.038" y2="49.966" stroke="#000" stroke-width=".916"/><line id="line62" x1=".095" x2="4.515" y1="45.746" y2="47.038" stroke="#000" stroke-width=".916"/><line id="line64" x1="12.437" x2="13.47" y1="62.71" y2="64.537" stroke="#000" stroke-width=".916"/><line id="line66" x1="8.734" x2="12.437" y1="58.06" y2="62.71" stroke="#000" stroke-width=".916"/><line id="line68" x1="4.085" x2="8.734" y1="54.702" y2="58.06" stroke="#000" stroke-width=".916"/><line id="line70" x1=".095" x2="4.085" y1="53.41" y2="54.702" stroke="#000" stroke-width=".916"/><line id="line10-8" x1="35.923" x2="46.356" y1="17.814" y2="12.55" stroke="#000" stroke-width=".923"/><line id="line12-2" x1="26.418" x2="35.923" y1="25.251" y2="17.814" stroke="#000" stroke-width=".923"/><line id="line14-8" x1="18.235" x2="22.739" y1="11.938" y2="4.611" stroke="#000" stroke-width=".923"/><line id="line16-8" x1="10.363" x2="18.235" y1="20.685" y2="11.938" stroke="#000" stroke-width=".923"/><line id="line18-9" x1="60.648" x2="64.356" y1="13.562" y2="19.422" stroke="#000" stroke-width=".923"/><line id="line20-6" x1="54.191" x2="60.648" y1="6.217" y2="13.562" stroke="#000" stroke-width=".923"/><line id="line22-6" x1="46.873" x2="54.191" y1="-.055" y2="6.217" stroke="#000" stroke-width=".923"/><line id="line24-0" x1="53.501" x2="56.429" y1="27.292" y2="32.995" stroke="#000" stroke-width=".923"/><line id="line26-2" x1="48.078" x2="53.501" y1="18.722" y2="27.292" stroke="#000" stroke-width=".923"/><line id="line28-1" x1="41.449" x2="48.078" y1="11.114" y2="18.722" stroke="#000" stroke-width=".923"/><line id="line30-7" x1="34.561" x2="41.449" y1="4.555" y2="11.114" stroke="#000" stroke-width=".923"/><line id="line32-2" x1="27.76" x2="34.561" y1="-.055" y2="4.555" stroke="#000" stroke-width=".923"/><line id="line36-1" x1="30.084" x2="39.21" y1="14.175" y2="25.368" stroke="#000" stroke-width=".923"/><line id="line38-3" x1="20.528" x2="30.084" y1="6.217" y2="14.175" stroke="#000" stroke-width=".923"/><line id="line40-2" x1="12.779" x2="20.528" y1="2.281" y2="6.217" stroke="#000" stroke-width=".923"/><line id="line42-0" x1="2.792" x2="12.779" y1="-.055" y2="2.281" stroke="#000" stroke-width=".923"/><line id="line46-7" x1="24.918" x2="31.031" y1="20.995" y2="27.817" stroke="#000" stroke-width=".923"/><line id="line48-7" x1="16.825" x2="24.918" y1="14.087" y2="20.995" stroke="#000" stroke-width=".923"/><line id="line50-6" x1="7.183" x2="16.825" y1="8.84" y2="14.087" stroke="#000" stroke-width=".923"/><line id="line52-4" x1=".007" x2="7.183" y1="6.829" y2="8.84" stroke="#000" stroke-width=".923"/><line id="line56-6" x1="15.276" x2="19.322" y1="22.57" y2="27.03" stroke="#000" stroke-width=".923"/><line id="line58-2" x1="9.765" x2="15.276" y1="18.198" y2="22.57" stroke="#000" stroke-width=".923"/><line id="line60-1" x1="4.427" x2="9.765" y1="15.224" y2="18.198" stroke="#000" stroke-width=".923"/><line id="line62-8" x1=".007" x2="4.427" y1="13.912" y2="15.224" stroke="#000" stroke-width=".923"/><line id="line64-9" x1="12.348" x2="13.381" y1="31.14" y2="32.995" stroke="#000" stroke-width=".923"/><line id="line66-0" x1="8.646" x2="12.348" y1="26.418" y2="31.14" stroke="#000" stroke-width=".923"/><line id="line68-0" x1="3.997" x2="8.646" y1="23.007" y2="26.418" stroke="#000" stroke-width=".923"/><line id="line70-1" x1=".007" x2="3.997" y1="21.695" y2="23.007" stroke="#000" stroke-width=".923"/><path id="path3331" fill="none" stroke="#000" stroke-linecap="butt" stroke-linejoin="miter" stroke-opacity="1" stroke-width="1" d="M 19.181818,26.772727 34.90909,36.590909"/><path id="path3333" fill="none" stroke="#000" stroke-linecap="butt" stroke-linejoin="miter" stroke-opacity="1" stroke-width="1" d="m 56.454546,32.772727 3.090909,8"/><path id="path3335" fill="none" stroke="#000" stroke-linecap="butt" stroke-linejoin="miter" stroke-opacity="1" stroke-width="1" d="m 39.045455,25.181818 8.090909,6.909091"/><path id="path3337" fill="none" stroke="#000" stroke-linecap="butt" stroke-linejoin="miter" stroke-opacity="1" stroke-width="1" d="M 40.181818,38.545455 52.727272,35.818182 64.545454,29.454546"/></g></pattern></defs><metadata id="metadata3142"/><g id="layer1"><rect id="rect3468" width="64.969" height="65.313" x="-.125" y="-.5" fill="none" stroke="none"/><line id="line3533" x1="36.014" x2="46.449" y1="49.589" y2="44.405" stroke="#000" stroke-width=".916"/><line id="line3535" x1="26.509" x2="36.014" y1="56.912" y2="49.589" stroke="#000" stroke-width=".916"/><line id="line3537" x1="18.325" x2="22.829" y1="43.803" y2="36.588" stroke="#000" stroke-width=".916"/><line id="line3539" x1="10.452" x2="18.325" y1="52.415" y2="43.803" stroke="#000" stroke-width=".916"/><line id="line3541" x1="60.742" x2="64.451" y1="45.402" y2="51.171" stroke="#000" stroke-width=".916"/><line id="line3543" x1="54.284" x2="60.742" y1="38.169" y2="45.402" stroke="#000" stroke-width=".916"/><line id="line3545" x1="46.965" x2="54.284" y1="31.994" y2="38.169" stroke="#000" stroke-width=".916"/><line id="line3547" x1="53.595" x2="56.523" y1="58.921" y2="64.537" stroke="#000" stroke-width=".916"/><line id="line3549" x1="48.17" x2="53.595" y1="50.483" y2="58.921" stroke="#000" stroke-width=".916"/><line id="line3551" x1="41.541" x2="48.17" y1="42.991" y2="50.483" stroke="#000" stroke-width=".916"/><line id="line3553" x1="34.652" x2="41.541" y1="36.533" y2="42.991" stroke="#000" stroke-width=".916"/><line id="line3555" x1="39.302" x2="44.812" y1="57.026" y2="64.537" stroke="#000" stroke-width=".916"/><line id="line3557" x1="30.175" x2="39.302" y1="46.005" y2="57.026" stroke="#000" stroke-width=".916"/><line id="line3559" x1="20.617" x2="30.175" y1="38.169" y2="46.005" stroke="#000" stroke-width=".916"/><line id="line3561" x1="12.868" x2="20.617" y1="34.294" y2="38.169" stroke="#000" stroke-width=".916"/><line id="line3563" x1="2.88" x2="12.868" y1="31.994" y2="34.294" stroke="#000" stroke-width=".916"/><line id="line3565" x1="31.122" x2="35.082" y1="59.437" y2="64.537" stroke="#000" stroke-width=".916"/><line id="line3567" x1="25.008" x2="31.122" y1="52.721" y2="59.437" stroke="#000" stroke-width=".916"/><line id="line3569" x1="16.914" x2="25.008" y1="45.918" y2="52.721" stroke="#000" stroke-width=".916"/><line id="line3571" x1="7.271" x2="16.914" y1="40.752" y2="45.918" stroke="#000" stroke-width=".916"/><line id="line3573" x1=".095" x2="7.271" y1="38.772" y2="40.752" stroke="#000" stroke-width=".916"/><line id="line3575" x1="19.412" x2="23.803" y1="58.663" y2="64.537" stroke="#000" stroke-width=".916"/><line id="line3577" x1="15.365" x2="19.412" y1="54.271" y2="58.663" stroke="#000" stroke-width=".916"/><line id="line3579" x1="9.854" x2="15.365" y1="49.966" y2="54.271" stroke="#000" stroke-width=".916"/><line id="line3581" x1="4.515" x2="9.854" y1="47.038" y2="49.966" stroke="#000" stroke-width=".916"/><line id="line3583" x1=".095" x2="4.515" y1="45.746" y2="47.038" stroke="#000" stroke-width=".916"/><line id="line3585" x1="12.437" x2="13.47" y1="62.71" y2="64.537" stroke="#000" stroke-width=".916"/><line id="line3587" x1="8.734" x2="12.437" y1="58.06" y2="62.71" stroke="#000" stroke-width=".916"/><line id="line3589" x1="4.085" x2="8.734" y1="54.702" y2="58.06" stroke="#000" stroke-width=".916"/><line id="line3591" x1=".095" x2="4.085" y1="53.41" y2="54.702" stroke="#000" stroke-width=".916"/><line id="line3593" x1="35.923" x2="46.356" y1="17.814" y2="12.55" stroke="#000" stroke-width=".923"/><line id="line3595" x1="26.418" x2="35.923" y1="25.251" y2="17.814" stroke="#000" stroke-width=".923"/><line id="line3597" x1="18.235" x2="22.739" y1="11.938" y2="4.611" stroke="#000" stroke-width=".923"/><line id="line3599" x1="10.363" x2="18.235" y1="20.685" y2="11.938" stroke="#000" stroke-width=".923"/><line id="line3601" x1="60.648" x2="64.356" y1="13.562" y2="19.422" stroke="#000" stroke-width=".923"/><line id="line3603" x1="54.191" x2="60.648" y1="6.217" y2="13.562" stroke="#000" stroke-width=".923"/><line id="line3605" x1="46.873" x2="54.191" y1="-.055" y2="6.217" stroke="#000" stroke-width=".923"/><line id="line3607" x1="53.501" x2="56.429" y1="27.292" y2="32.995" stroke="#000" stroke-width=".923"/><line id="line3609" x1="48.078" x2="53.501" y1="18.722" y2="27.292" stroke="#000" stroke-width=".923"/><line id="line3611" x1="41.449" x2="48.078" y1="11.114" y2="18.722" stroke="#000" stroke-width=".923"/><line id="line3613" x1="34.561" x2="41.449" y1="4.555" y2="11.114" stroke="#000" stroke-width=".923"/><line id="line3615" x1="27.76" x2="34.561" y1="-.055" y2="4.555" stroke="#000" stroke-width=".923"/><line id="line3617" x1="30.084" x2="39.21" y1="14.175" y2="25.368" stroke="#000" stroke-width=".923"/><line id="line3619" x1="20.528" x2="30.084" y1="6.217" y2="14.175" stroke="#000" stroke-width=".923"/><line id="line3621" x1="12.779" x2="20.528" y1="2.281" y2="6.217" stroke="#000" stroke-width=".923"/><line id="line3623" x1="2.792" x2="12.779" y1="-.055" y2="2.281" stroke="#000" stroke-width=".923"/><line id="line3625" x1="24.918" x2="31.031" y1="20.995" y2="27.817" stroke="#000" stroke-width=".923"/><line id="line3627" x1="16.825" x2="24.918" y1="14.087" y2="20.995" stroke="#000" stroke-width=".923"/><line id="line3629" x1="7.183" x2="16.825" y1="8.84" y2="14.087" stroke="#000" stroke-width=".923"/><line id="line3631" x1=".007" x2="7.183" y1="6.829" y2="8.84" stroke="#000" stroke-width=".923"/><line id="line3633" x1="15.276" x2="19.322" y1="22.57" y2="27.03" stroke="#000" stroke-width=".923"/><line id="line3635" x1="9.765" x2="15.276" y1="18.198" y2="22.57" stroke="#000" stroke-width=".923"/><line id="line3637" x1="4.427" x2="9.765" y1="15.224" y2="18.198" stroke="#000" stroke-width=".923"/><line id="line3639" x1=".007" x2="4.427" y1="13.912" y2="15.224" stroke="#000" stroke-width=".923"/><line id="line3641" x1="12.348" x2="13.381" y1="31.14" y2="32.995" stroke="#000" stroke-width=".923"/><line id="line3643" x1="8.646" x2="12.348" y1="26.418" y2="31.14" stroke="#000" stroke-width=".923"/><line id="line3645" x1="3.997" x2="8.646" y1="23.007" y2="26.418" stroke="#000" stroke-width=".923"/><line id="line3647" x1=".007" x2="3.997" y1="21.695" y2="23.007" stroke="#000" stroke-width=".923"/><path id="path3649" fill="none" stroke="#000" stroke-linecap="butt" stroke-linejoin="miter" stroke-opacity="1" stroke-width="1" d="M 19.181818,26.772727 34.90909,36.590909"/><path id="path3651" fill="none" stroke="#000" stroke-linecap="butt" stroke-linejoin="miter" stroke-opacity="1" stroke-width="1" d="m 56.454546,32.772727 3.090909,8"/><path id="path3653" fill="none" stroke="#000" stroke-linecap="butt" stroke-linejoin="miter" stroke-opacity="1" stroke-width="1" d="m 39.045455,25.181818 8.090909,6.909091"/><path id="path3655" fill="none" stroke="#000" stroke-linecap="butt" stroke-linejoin="miter" stroke-opacity="1" stroke-width="1" d="M 40.181818,38.545455 52.727272,35.818182 64.545454,29.454546"/></g></svg>