<svg xmlns="http://www.w3.org/2000/svg" xmlns:svg="http://www.w3.org/2000/svg" xmlns:xlink="http://www.w3.org/1999/xlink" id="svg3364" width="64" height="64" version="1.1"><defs id="defs3366"><linearGradient id="linearGradient3814"><stop id="stop3816" offset="0" stop-color="#71b2f8" stop-opacity="1"/><stop id="stop3818" offset=".218" stop-color="#002795" stop-opacity="1"/><stop id="stop3822" offset=".505" stop-color="#002795" stop-opacity="1"/><stop id="stop3820" offset="1" stop-color="#71b2f8" stop-opacity="1"/></linearGradient><linearGradient id="linearGradient3864"><stop id="stop3866" offset="0" stop-color="#71b2f8" stop-opacity="1"/><stop id="stop3868" offset="1" stop-color="#002795" stop-opacity="1"/></linearGradient><radialGradient id="radialGradient2571" cx="342.583" cy="27.257" r="19.571" fx="342.583" fy="27.257" gradientTransform="matrix(1.6258409,0.5434973,-8.8819886e-2,0.2656996,-215.02413,-170.90186)" gradientUnits="userSpaceOnUse" xlink:href="#linearGradient3864"/><radialGradient id="radialGradient3352" cx="345.284" cy="15.561" r="19.571" fx="345.284" fy="15.561" gradientTransform="translate(-0.1767767,-2.6516504)" gradientUnits="userSpaceOnUse" xlink:href="#linearGradient3593"/><linearGradient id="linearGradient3593"><stop id="stop3595" offset="0" stop-color="#c8e0f9" stop-opacity="1"/><stop id="stop3597" offset="1" stop-color="#637dca" stop-opacity="1"/></linearGradient><radialGradient id="radialGradient3354" cx="330.638" cy="39.963" r="19.571" fx="330.638" fy="39.963" gradientTransform="translate(-0.1767767,-2.6516504)" gradientUnits="userSpaceOnUse" xlink:href="#linearGradient3593"/><radialGradient id="radialGradient3369" cx="342.583" cy="27.257" r="19.571" fx="342.583" fy="27.257" gradientTransform="matrix(1.6258409,0.5434973,-8.8819886e-2,0.2656996,-461.81066,-173.06271)" gradientUnits="userSpaceOnUse" xlink:href="#linearGradient3864"/><radialGradient id="radialGradient3372" cx="345.284" cy="15.561" r="19.571" fx="345.284" fy="15.561" gradientTransform="matrix(1.0012324,0,0,0.9421773,-327.50313,-4.3316646)" gradientUnits="userSpaceOnUse" xlink:href="#linearGradient3593"/><radialGradient id="radialGradient3375" cx="330.638" cy="39.963" r="19.571" fx="330.638" fy="39.963" gradientTransform="matrix(1.0012324,0,0,0.9421773,-287.81791,-28.143054)" gradientUnits="userSpaceOnUse" xlink:href="#linearGradient3593"/><radialGradient id="radialGradient3380" cx="320.44" cy="113.234" r="19.571" fx="320.44" fy="113.234" gradientTransform="matrix(0.9829174,1.3240854,-1.2330051,0.8105158,-131.04134,-483.74563)" gradientUnits="userSpaceOnUse" xlink:href="#linearGradient3864"/><linearGradient id="linearGradient3914" x1="6.945" x2="48.691" y1="36.839" y2="36.839" gradientTransform="matrix(1.0012324,0,0,0.9421773,-4.8699606,-2.3863162)" gradientUnits="userSpaceOnUse" xlink:href="#linearGradient3864"/><linearGradient id="linearGradient3792" x1="6.83" x2="48.691" y1="34.146" y2="36.839" gradientTransform="matrix(1.0012324,0,0,0.9421773,-4.8699606,-2.3863162)" gradientUnits="userSpaceOnUse" xlink:href="#linearGradient3864"/><radialGradient id="radialGradient3812" cx="330.638" cy="39.963" r="19.571" fx="330.638" fy="39.963" gradientTransform="matrix(1.0012324,0,0,0.9421773,-287.81791,-28.143054)" gradientUnits="userSpaceOnUse" xlink:href="#linearGradient3864"/><radialGradient id="radialGradient3814" cx="345.284" cy="15.561" r="19.571" fx="345.284" fy="15.561" gradientTransform="matrix(1.0012324,0,0,0.9421773,-327.50313,-4.3316646)" gradientUnits="userSpaceOnUse" xlink:href="#linearGradient3593"/><radialGradient id="radialGradient3816" cx="320.44" cy="113.234" r="19.571" fx="320.44" fy="113.234" gradientTransform="matrix(0.9829174,1.3240854,-1.2330051,0.8105158,-131.04134,-483.74563)" gradientUnits="userSpaceOnUse" xlink:href="#linearGradient3864"/><linearGradient id="linearGradient3828-2" x1="20.383" x2="52.727" y1="32.634" y2="32.634" gradientUnits="userSpaceOnUse" xlink:href="#linearGradient3864-1"/><linearGradient id="linearGradient3864-1"><stop id="stop3866-6" offset="0" stop-color="#71b2f8" stop-opacity="1"/><stop id="stop3812" offset=".5" stop-color="#002795" stop-opacity="1"/><stop id="stop3868-7" offset="1" stop-color="#71b2f8" stop-opacity="1"/></linearGradient></defs><metadata id="metadata3369"/><g id="layer1"><path id="path3820-1" fill="#5c7ddb" fill-opacity="1" stroke="#0f118e" stroke-dasharray="none" stroke-linecap="butt" stroke-linejoin="round" stroke-miterlimit="4" stroke-opacity="1" stroke-width="3" d="M 2.6293891,23.803361 15.865371,50.209369 C 31.117829,11.342981 44.076973,62.386103 56.629264,27.681511 L 40.939304,7.3982223 C 32.507325,35.593058 17.707155,-1.5947189 2.6293891,23.803361 z"/><path id="path3864" fill="none" stroke="#ff0900" stroke-dasharray="none" stroke-linecap="round" stroke-linejoin="round" stroke-miterlimit="4" stroke-opacity="1" stroke-width="4" d="M 15.86537,49.871451 C 33.063625,9.8522263 42.029288,63.98341 56.74156,27.794151"/><path id="path3865" fill="none" stroke="#000" stroke-dasharray="none" stroke-linecap="butt" stroke-linejoin="miter" stroke-miterlimit="4" stroke-opacity="1" stroke-width="2" d="M 17.527928,44.246003 22.654418,27.00439"/><path id="path3867" fill="none" stroke="#000" stroke-dasharray="none" stroke-linecap="butt" stroke-linejoin="miter" stroke-miterlimit="4" stroke-opacity="1" stroke-width="2" d="M 48.432433,51.395554 56.735135,28.217175"/><path id="path3808" fill="#000" fill-opacity="1" stroke="none" d="m 17.758558,44.799999 a 4.0936937,3.9783783 0 1 1 -8.1873872,0 4.0936937,3.9783783 0 1 1 8.1873872,0 z" transform="matrix(1.3167245,0,0,1.3590175,29.377856,-7.2022669)"/><path id="path3810" fill="#ff0900" fill-opacity="1" stroke="none" d="m 17.758558,44.799999 a 4.0936937,3.9783783 0 1 1 -8.1873872,0 4.0936937,3.9783783 0 1 1 8.1873872,0 z" transform="matrix(1.3167245,0,0,1.3590175,38.65451,-32.18069)"/><path id="path3862" fill="#000" fill-opacity="1" stroke="none" d="m 17.758558,44.799999 a 4.0936937,3.9783783 0 1 1 -8.1873872,0 4.0936937,3.9783783 0 1 1 8.1873872,0 z" transform="matrix(1.3167245,0,0,1.3590175,4.9923938,-36.287158)"/><path id="path4478" fill="#ff0900" fill-opacity="1" stroke="none" d="m 17.758558,44.799999 a 4.0936937,3.9783783 0 1 1 -8.1873872,0 4.0936937,3.9783783 0 1 1 8.1873872,0 z" transform="matrix(1.3167245,0,0,1.3590175,-1.770433,-12.555879)"/></g></svg>