<svg xmlns="http://www.w3.org/2000/svg" xmlns:svg="http://www.w3.org/2000/svg" xmlns:xlink="http://www.w3.org/1999/xlink" id="svg3052" width="64" height="64" version="1.1"><defs id="defs3054"><radialGradient id="radialGradient3169" cx="25.188" cy="41.625" r="18.063" fx="25.188" fy="41.625" gradientTransform="matrix(1,0,0,0.32526,0,28.08607)" gradientUnits="userSpaceOnUse" xlink:href="#linearGradient2269-0"/><linearGradient id="linearGradient2269-0"><stop id="stop2271-4" offset="0" stop-color="#000" stop-opacity="1"/><stop id="stop2273-87" offset="1" stop-color="#000" stop-opacity="0"/></linearGradient><radialGradient id="radialGradient3047" cx="25.188" cy="41.625" r="18.063" fx="25.188" fy="41.625" gradientTransform="matrix(1,0,0,0.32526,0,28.08607)" gradientUnits="userSpaceOnUse" xlink:href="#linearGradient2269-0"/></defs><metadata id="metadata3057"/><g id="layer1"><g id="g3884" transform="matrix(-0.2109556,0.9774957,0.8838524,0.1907462,-82.022362,-158.02055)"><path id="path2267" fill="url(#radialGradient3047)" fill-opacity="1" fill-rule="evenodd" stroke="none" stroke-width="1" d="m 43.25,41.625 a 18.0625,5.875 0 1 1 -36.125,0 18.0625,5.875 0 1 1 36.125,0 z" color="#000" display="inline" opacity=".267" overflow="visible" transform="matrix(-0.34490802,1.7675115,1.0422728,0.24876696,150.19488,118.26157)" visibility="visible" style="marker:none"/><path id="path2993" fill="#8ae234" stroke="#172a04" stroke-linecap="round" stroke-linejoin="round" stroke-opacity="1" stroke-width="2.103" d="m 141.5287,150.3403 12.30643,-10.63966 33.65676,5.77029 -14.68333,12.33517 z"/><path id="path2995" fill="#73d216" stroke="none" d="m 141.52871,150.3403 1.37852,13.90595 29.32487,6.99918 0.57647,-13.43933 z"/><path id="path2997" fill="#4e9a06" stroke="none" d="m 142.90723,164.24625 13.53037,14.5435 27.36988,6.53257 -11.57538,-14.07689 z"/><path id="path2999" fill="#73d216" stroke="#172a04" stroke-linecap="round" stroke-linejoin="round" stroke-opacity="1" stroke-width="2.103" d="m 183.80747,185.32232 -11.19525,15.43052 -24.99298,-8.22808 8.81835,-13.73501 z"/><path id="path3771" fill="none" stroke="#8ae234" stroke-linecap="butt" stroke-linejoin="miter" stroke-opacity="1" stroke-width="2.103" d="m 143.48369,150.80691 1.37852,13.90595"/><path id="path3773" fill="none" stroke="#8ae234" stroke-linecap="butt" stroke-linejoin="miter" stroke-opacity="1" stroke-width="2.103" d="m 143.32913,162.08413 28.34737,6.76588"/><path id="path3775" fill="none" stroke="#8ae234" stroke-linecap="butt" stroke-linejoin="miter" stroke-opacity="1" stroke-width="2.103" d="m 170.2771,170.77882 0.57647,-13.43933"/><path id="path3777" fill="none" stroke="#8ae234" stroke-linecap="butt" stroke-linejoin="miter" stroke-opacity="1" stroke-width="2.103" d="m 172.38665,159.96822 -30.30236,-7.23249"/><path id="path2995-3" fill="none" stroke="#172a04" stroke-linecap="round" stroke-linejoin="round" stroke-opacity="1" stroke-width="2.103" d="m 141.5287,150.34031 1.37852,13.90594 29.32486,6.99919 0.57648,-13.43934 z"/><path id="path3797" fill="none" stroke="#73d216" stroke-linecap="butt" stroke-linejoin="miter" stroke-opacity="1" stroke-width="2.103" d="m 149.32778,168.04151 24.43739,5.83266"/><path id="path3799" fill="none" stroke="#73d216" stroke-linecap="butt" stroke-linejoin="miter" stroke-opacity="1" stroke-width="2.103" d="M 180.87498,184.6224 169.2996,170.54552"/><path id="path3801" fill="none" stroke="#73d216" stroke-linecap="butt" stroke-linejoin="miter" stroke-opacity="1" stroke-width="2.103" d="m 178.36441,181.76036 -23.4599,-5.59934"/><path id="path3803" fill="none" stroke="#73d216" stroke-linecap="butt" stroke-linejoin="miter" stroke-opacity="1" stroke-width="2.103" d="M 159.37008,179.48967 146.52056,165.03153"/><path id="path2997-6" fill="none" stroke="#172a04" stroke-linecap="round" stroke-linejoin="round" stroke-opacity="1" stroke-width="2.103" d="m 142.90722,164.24625 13.53037,14.5435 27.36988,6.53257 -11.57538,-14.07689 z"/><path id="path3843" fill="none" stroke="#a40000" stroke-linecap="round" stroke-linejoin="round" stroke-opacity="1" stroke-width="6.31" d="m 174.01163,198.82403 9.79585,-13.5017 -11.57538,-14.07689 0.57647,-13.43934 14.68333,-12.33517 -33.65677,-5.77029 -12.30642,10.63967 1.37852,13.90594 13.53037,14.5435 -7.20799,10.72514"/><path id="path3843-7" fill="none" stroke="#ef2929" stroke-linecap="round" stroke-linejoin="round" stroke-opacity="1" stroke-width="2.103" d="m 172.61222,200.75284 11.19526,-15.43052 -11.57538,-14.07688 0.57647,-13.43934 14.68333,-12.33517 -33.65677,-5.77029 -12.30642,10.63966 1.37852,13.90595 13.53037,14.5435 -7.20799,10.72514"/><path id="path3001" fill="#4e9a06" stroke="none" d="m 172.61223,200.75284 -9.6204,-13.61028 -26.94796,-8.69469 11.57538,14.07689 z"/><path id="path3825" fill="none" stroke="#73d216" stroke-linecap="butt" stroke-linejoin="miter" stroke-opacity="1" stroke-width="2.103" d="m 160.47403,187.03255 8.60928,12.35073"/><path id="path3827" fill="none" stroke="#73d216" stroke-linecap="butt" stroke-linejoin="miter" stroke-opacity="1" stroke-width="2.103" d="m 170.10164,197.8908 -24.01548,-7.99477"/><path id="path3829" fill="none" stroke="#73d216" stroke-linecap="butt" stroke-linejoin="miter" stroke-opacity="1" stroke-width="2.103" d="M 150.70356,193.04235 139.58249,179.31817"/><path id="path3823" fill="none" stroke="#73d216" stroke-linecap="butt" stroke-linejoin="miter" stroke-opacity="1" stroke-width="2.103" d="m 138.55443,181.30991 25.97047,8.46138"/><path id="path3001-7" fill="none" stroke="#172a04" stroke-linecap="round" stroke-linejoin="round" stroke-opacity="1" stroke-width="2.103" d="m 172.61222,200.75284 -9.62039,-13.61027 -26.94797,-8.69469 11.57538,14.07688 z"/></g></g></svg>