<svg xmlns="http://www.w3.org/2000/svg" xmlns:svg="http://www.w3.org/2000/svg" xmlns:xlink="http://www.w3.org/1999/xlink" id="svg2985" width="64" height="64" version="1.1"><defs id="defs2987"><linearGradient id="linearGradient3793"><stop id="stop3795" offset="0" stop-color="#c4a000" stop-opacity="1"/><stop id="stop3797" offset="1" stop-color="#c4a000" stop-opacity="0"/></linearGradient><linearGradient id="linearGradient3765"><stop id="stop3767" offset="0" stop-color="#c4a000" stop-opacity="1"/><stop id="stop3769" offset="1" stop-color="#fce94f" stop-opacity="1"/></linearGradient><linearGradient id="linearGradient3771" x1="40" x2="34" y1="68" y2="12" gradientUnits="userSpaceOnUse" xlink:href="#linearGradient3765"/><linearGradient id="linearGradient3799" x1="32" x2="32" y1="18" y2="48" gradientUnits="userSpaceOnUse" xlink:href="#linearGradient3793"/></defs><metadata id="metadata2990"/><g id="layer1"><path id="path4207" fill="url(#linearGradient3771)" fill-opacity="1" fill-rule="evenodd" stroke="#473400" stroke-dasharray="none" stroke-dashoffset="0" stroke-linecap="butt" stroke-linejoin="round" stroke-miterlimit="4" stroke-opacity="1" stroke-width="2" d="m 3,3 0,58 24,0 0,-10 10,0 0,10 24.000001,0 0,-58 L 37,3 37,13 27,13 27,3 z m 6,6 12,0 0,4 c 0,4 2,6 6,6 l 10,0 c 4,0 6,-2 6,-6 l 0,-4 12,0 0,46 -12,0 0,-4 c 0,-4 -2,-6 -6,-6 l -10,0 c -4,0 -6,2 -6,6 l 0,4 -12,0 z" color="#000" display="inline" enable-background="accumulate" overflow="visible" visibility="visible" style="marker:none"/><path id="path3773" fill="none" stroke="#fce94f" stroke-linecap="butt" stroke-linejoin="miter" stroke-opacity="1" stroke-width="2" d="m 7,7 0,50 16,0 0,-6 c 0,-3 1,-4 4,-4 l 10,0 c 3,0 4,1 4,4 l 0,6 16,0 0,-50"/><path id="path3773-3" fill="none" stroke="url(#linearGradient3799)" stroke-linecap="butt" stroke-linejoin="miter" stroke-opacity="1" stroke-width="2" d="m 7,57 0,-50 16,0 0,6 c 0,3 1,4 4,4 l 10,0 c 3,0 4,-1 4,-4 l 0,-6 16,0 0,50"/></g></svg>