<svg xmlns="http://www.w3.org/2000/svg" xmlns:svg="http://www.w3.org/2000/svg" xmlns:xlink="http://www.w3.org/1999/xlink" id="svg2816" width="64" height="64" version="1.1"><defs id="defs2818"><linearGradient id="linearGradient3633"><stop id="stop3635" offset="0" stop-color="#fff652" stop-opacity="1"/><stop id="stop3637" offset="1" stop-color="#ffbf00" stop-opacity="1"/></linearGradient><pattern id="pattern5231" patternTransform="matrix(0.67643728,-0.81829155,2.4578314,1.8844554,-26.450606,18.294947)" xlink:href="#Strips1_1-4"/><pattern id="Strips1_1-4" width="2" height="1" patternTransform="matrix(0.66772843,-1.0037085,2.4261878,2.3114548,3.4760987,3.534923)" patternUnits="userSpaceOnUse"><rect id="rect4483-4" width="1" height="2" x="0" y="-.5" fill="#000" stroke="none"/></pattern><pattern id="pattern5231-4" patternTransform="matrix(0.66772843,-1.0037085,2.4261878,2.3114548,39.618381,8.9692804)" xlink:href="#Strips1_1-6"/><pattern id="Strips1_1-6" width="2" height="1" patternTransform="matrix(0.66772843,-1.0037085,2.4261878,2.3114548,3.4760987,3.534923)" patternUnits="userSpaceOnUse"><rect id="rect4483-0" width="1" height="2" x="0" y="-.5" fill="#000" stroke="none"/></pattern><pattern id="pattern5296" patternTransform="matrix(0.66513382,-1.0631299,2.4167603,2.4482973,-49.762569,2.9546807)" xlink:href="#pattern5231-3"/><pattern id="pattern5231-3" patternTransform="matrix(0.66772843,-1.0037085,2.4261878,2.3114548,-26.336284,10.887197)" xlink:href="#Strips1_1-4-3"/><pattern id="Strips1_1-4-3" width="2" height="1" patternTransform="matrix(0.66772843,-1.0037085,2.4261878,2.3114548,3.4760987,3.534923)" patternUnits="userSpaceOnUse"><rect id="rect4483-4-6" width="1" height="2" x="0" y="-.5" fill="#000" stroke="none"/></pattern><pattern id="pattern5330" patternTransform="matrix(0.42844886,-0.62155849,1.5567667,1.431396,27.948414,13.306456)" xlink:href="#Strips1_1-9"/><pattern id="Strips1_1-9" width="2" height="1" patternTransform="matrix(0.66772843,-1.0037085,2.4261878,2.3114548,3.4760987,3.534923)" patternUnits="userSpaceOnUse"><rect id="rect4483-3" width="1" height="2" x="0" y="-.5" fill="#000" stroke="none"/></pattern><linearGradient id="linearGradient3120" x1="34" x2="24" y1="64" y2="9" gradientUnits="userSpaceOnUse" xlink:href="#linearGradient3071"/><linearGradient id="linearGradient3071"><stop id="stop3073" offset="0" stop-color="#c4a000" stop-opacity="1"/><stop id="stop3075" offset="1" stop-color="#fce94f" stop-opacity="1"/></linearGradient><linearGradient id="linearGradient3880" x1="56" x2="53" y1="47" y2="39" gradientUnits="userSpaceOnUse" xlink:href="#linearGradient3874"/><linearGradient id="linearGradient3874"><stop id="stop3876" offset="0" stop-color="#c4a000" stop-opacity="1"/><stop id="stop3878" offset="1" stop-color="#edd400" stop-opacity="1"/></linearGradient><linearGradient id="linearGradient3075" x1="34" x2="24" y1="64" y2="9" gradientUnits="userSpaceOnUse" xlink:href="#linearGradient3071"/><linearGradient id="linearGradient3771" x1="40" x2="34" y1="68" y2="12" gradientTransform="translate(147,-3)" gradientUnits="userSpaceOnUse" xlink:href="#linearGradient3765"/><linearGradient id="linearGradient3765"><stop id="stop3767" offset="0" stop-color="#c4a000" stop-opacity="1"/><stop id="stop3769" offset="1" stop-color="#fce94f" stop-opacity="1"/></linearGradient></defs><metadata id="metadata2821"/><g id="layer1"><path id="rect3005" fill="url(#linearGradient3075)" fill-opacity="1" fill-rule="evenodd" stroke="#302b00" stroke-dasharray="none" stroke-dashoffset="0" stroke-linecap="butt" stroke-linejoin="round" stroke-miterlimit="4" stroke-opacity="1" stroke-width="2" d="m 2.9999999,9 0,44 L 51,53 61,43 61,9 z" color="#000" display="inline" enable-background="accumulate" overflow="visible" visibility="visible" style="marker:none"/><path id="path3096" fill="none" stroke="#fce94f" stroke-linecap="butt" stroke-linejoin="miter" stroke-opacity="1" stroke-width="2" d="m 4.9999999,51 0,-40 L 59,11 l 0,32 -6,8 z"/><path id="path3778" fill="url(#linearGradient3880)" fill-opacity="1" fill-rule="evenodd" stroke="#3f3f3f" stroke-dasharray="none" stroke-dashoffset="0" stroke-linecap="butt" stroke-linejoin="round" stroke-miterlimit="4" stroke-opacity="1" stroke-width="1.951" d="m 61,43 c 0,-1 -4,-4 -8,-4 0,0 2,10 -2,14 z" color="#000" display="inline" enable-background="accumulate" overflow="visible" visibility="visible" style="marker:none"/><path id="path3125" fill="none" stroke="#c4a000" stroke-linecap="butt" stroke-linejoin="miter" stroke-opacity="1" stroke-width="2" d="m 53.08551,48.1244 6.65843,-6.453618"/><path id="path3778-3" fill="none" stroke="#302b00" stroke-dasharray="none" stroke-dashoffset="0" stroke-linecap="butt" stroke-linejoin="round" stroke-miterlimit="4" stroke-opacity="1" stroke-width="1.951" d="m 61,43 c 0,-1 -4,-4 -8,-4 0,0 2,10 -2,14 z" color="#000" display="inline" enable-background="accumulate" overflow="visible" visibility="visible" style="marker:none"/><path id="path4207" fill="#302b00" fill-opacity="1" fill-rule="evenodd" stroke="none" stroke-width="2" d="m 6,12 0,38 16,0 0,-6 6,0 0,6 16,0 0,-38 -16,0 0,6 -6,0 0,-6 z m 4,4 8,0 0,2 c 0,3 1,4 4,4 l 6,0 c 3,0 4,-1 4,-4 l 0,-2 8,0 0,30 -8,0 0,-2 c 0,-3 -1,-4 -4,-4 l -6,0 c -3,0 -4,1 -4,3 l 0,3 -8,0 z" color="#000" display="inline" enable-background="accumulate" overflow="visible" visibility="visible" style="marker:none"/></g></svg>