<svg xmlns="http://www.w3.org/2000/svg" xmlns:svg="http://www.w3.org/2000/svg" xmlns:xlink="http://www.w3.org/1999/xlink" id="svg2860" width="64" height="64" version="1.1"><defs id="defs2862"><linearGradient id="linearGradient4147"><stop id="stop4149" offset="0" stop-color="#d3d7cf" stop-opacity="1"/><stop id="stop4151" offset="1" stop-color="#fff" stop-opacity="1"/></linearGradient><linearGradient id="linearGradient4121"><stop id="stop4123" offset="0" stop-color="#888a85" stop-opacity="1"/><stop id="stop4125" offset="1" stop-color="#babdb6" stop-opacity="1"/></linearGradient><linearGradient id="linearGradient3377"><stop id="stop3379" offset="0" stop-color="#faff2b" stop-opacity="1"/><stop id="stop3381" offset="1" stop-color="#fa0" stop-opacity="1"/></linearGradient><radialGradient id="radialGradient3095-6" cx="135.383" cy="97.37" r="19.467" fx="135.383" fy="97.37" gradientTransform="matrix(1.0352785,0.23911008,-0.49121993,2.1268424,-83.020566,-210.19595)" gradientUnits="userSpaceOnUse" xlink:href="#linearGradient3377-1"/><linearGradient id="linearGradient3377-1"><stop id="stop3379-1" offset="0" stop-color="#faff2b" stop-opacity="1"/><stop id="stop3381-0" offset="1" stop-color="#fa0" stop-opacity="1"/></linearGradient><radialGradient id="radialGradient4108" cx="225.264" cy="672.797" r="34.345" fx="225.264" fy="672.797" gradientTransform="matrix(1,0,0,0.6985294,0,202.82863)" gradientUnits="userSpaceOnUse" xlink:href="#linearGradient3144"/><linearGradient id="linearGradient3144"><stop id="stop3146" offset="0" stop-color="#fff" stop-opacity="1"/><stop id="stop3148" offset="1" stop-color="#fff" stop-opacity="0"/></linearGradient><linearGradient id="linearGradient4041" x1="37.758" x2="21.86" y1="57.301" y2="22.615" gradientUnits="userSpaceOnUse" xlink:href="#linearGradient3960"/><linearGradient id="linearGradient3960"><stop id="stop3962" offset="0" stop-color="#babdb6" stop-opacity="1"/><stop id="stop3964" offset="1" stop-color="#fff" stop-opacity="1"/></linearGradient><filter id="filter3980" width="1.586" height="1.885" x="-.293" y="-.442" color-interpolation-filters="sRGB"><feGaussianBlur id="feGaussianBlur3982" stdDeviation="4.486"/></filter><linearGradient id="linearGradient4127" x1="100.538" x2="90.271" y1="123.206" y2="93.794" gradientTransform="translate(-80,-80)" gradientUnits="userSpaceOnUse" xlink:href="#linearGradient4121"/><linearGradient id="linearGradient4153" x1="128.228" x2="123.5" y1="123.569" y2="88.253" gradientTransform="translate(-80,-80)" gradientUnits="userSpaceOnUse" xlink:href="#linearGradient4147"/><linearGradient id="linearGradient4743" x1="18.702" x2="45.765" y1="31.725" y2="31.812" gradientUnits="userSpaceOnUse" xlink:href="#linearGradient4739"/><linearGradient id="linearGradient4739"><stop id="stop4735" offset="0" stop-color="#204a87" stop-opacity="1"/><stop id="stop4737" offset="1" stop-color="#729fcf" stop-opacity="1"/></linearGradient></defs><metadata id="metadata2865"/><g id="layer1"><path id="path3006" fill="#fff" stroke="none" d="M 5,53 29,43 59,49 39,59 z"/><path id="path3886" fill="url(#linearGradient4127)" fill-opacity="1" stroke="none" d="M 29,4 5,14 5,53 29,43 z"/><path id="path3888" fill="url(#linearGradient4153)" fill-opacity="1" stroke="none" d="m 29,4 0,39 30,6 0,-39 z"/><path id="path3886-4" fill="none" stroke="#babdb6" stroke-width="2" d="M 28.02303,5.485571 6,14.653164 6,51.52025 28.02303,42.35266 z"/><path id="path3888-7" fill="none" stroke="#fff" stroke-width="2" d="m 30.0756,5.190938 -0.006,36.998812 27.91898,5.44506 0.0763,-36.787223 z"/><path id="path3006-3" fill="#fff" stroke="none" d="M 5,14 29,4 59,10 39,20 z"/><path id="path3917" fill="none" stroke="#2e3436" stroke-dasharray="6 12" stroke-dashoffset="3.6" stroke-linecap="round" stroke-linejoin="miter" stroke-miterlimit="4" stroke-opacity="1" stroke-width="6" d="m 5,53 34,6"/><path id="path3917-2" fill="none" stroke="#2e3436" stroke-dasharray="6 12" stroke-dashoffset="3.6" stroke-linecap="round" stroke-linejoin="miter" stroke-miterlimit="4" stroke-opacity="1" stroke-width="6" d="m 25,44 34,5"/><path id="path3917-1" fill="none" stroke="#2e3436" stroke-dasharray="6 12" stroke-dashoffset="3.6" stroke-linecap="round" stroke-linejoin="miter" stroke-miterlimit="4" stroke-opacity="1" stroke-width="6" d="m 25,5 34,6"/><path id="path3917-27" fill="none" stroke="#2e3436" stroke-dasharray="6 12" stroke-dashoffset="3.6" stroke-linecap="round" stroke-linejoin="miter" stroke-miterlimit="4" stroke-opacity="1" stroke-width="6" d="m 59,11 0,38"/><path id="path3917-0" fill="none" stroke="#2e3436" stroke-dasharray="6 12" stroke-dashoffset="3.6" stroke-linecap="round" stroke-linejoin="miter" stroke-miterlimit="4" stroke-opacity="1" stroke-width="6" d="M 40,59 59,49"/><path id="path3917-9" fill="none" stroke="#2e3436" stroke-dasharray="6 12" stroke-dashoffset="3.6" stroke-linecap="round" stroke-linejoin="miter" stroke-miterlimit="4" stroke-opacity="1" stroke-width="6" d="M 5,15 25,5"/><path id="path3917-3" fill="none" stroke="#2e3436" stroke-dasharray="6 12" stroke-dashoffset="3.6" stroke-linecap="round" stroke-linejoin="miter" stroke-miterlimit="4" stroke-opacity="1" stroke-width="6" d="M 5,15 5,53"/><path id="path3917-60" fill="none" stroke="#2e3436" stroke-dasharray="6 12" stroke-dashoffset="3.6" stroke-linecap="round" stroke-linejoin="miter" stroke-miterlimit="4" stroke-opacity="1" stroke-width="6" d="M 5,53 25,44"/><path id="path3917-2-7" fill="none" stroke="#fff" stroke-dasharray="6 12" stroke-dashoffset="3.6" stroke-linecap="round" stroke-linejoin="miter" stroke-miterlimit="4" stroke-opacity="1" stroke-width="2" d="m 25,44 34,5"/><path id="path3917-60-3" fill="none" stroke="#fff" stroke-dasharray="6 12" stroke-dashoffset="3.6" stroke-linecap="round" stroke-linejoin="miter" stroke-miterlimit="4" stroke-opacity="1" stroke-width="2" d="M 5,53 25,44"/><g id="g4035" stroke="#2e3436" transform="translate(-64,10)"><path id="path4042-12" fill="url(#linearGradient4041)" fill-opacity="1" stroke="#2e3436" stroke-dasharray="none" stroke-dashoffset="0" stroke-miterlimit="4" stroke-width="3.129" d="m 48.597521,39.95837 c 0,11.57372 -9.382354,20.956074 -20.956074,20.956074 -11.57372,0 -20.9560737,-9.382354 -20.9560737,-20.956074 0,-11.57372 9.3823537,-20.956074 20.9560737,-20.956074 11.57372,0 20.956074,9.382354 20.956074,20.956074 z" transform="matrix(0.6389479,0,0,0.63940352,79.151188,-6.6213323)"/><path id="path12511-77" fill="#fff" fill-opacity="1" fill-rule="nonzero" stroke="#2e3436" stroke-width="1.25" d="m 69.375,125 c 0,7.93909 -6.435907,14.375 -14.375,14.375 -7.939093,0 -14.375,-6.43591 -14.375,-14.375 0,-7.93909 6.435907,-14.375 14.375,-14.375 7.939093,0 14.375,6.43591 14.375,14.375 z" color="#000" display="block" filter="url(#filter3980)" transform="matrix(0.1255542,0.12343818,-0.19272145,0.17977458,109.1847,-15.260922)" visibility="visible" style="marker:none"/><path id="path4042-0" fill="none" stroke="#fff" stroke-dasharray="none" stroke-dashoffset="0" stroke-miterlimit="4" stroke-width="3.493" d="m 48.597521,39.95837 c 0,11.57372 -9.382354,20.956074 -20.956074,20.956074 -11.57372,0 -20.9560737,-9.382354 -20.9560737,-20.956074 0,-11.57372 9.3823537,-20.956074 20.9560737,-20.956074 11.57372,0 20.956074,9.382354 20.956074,20.956074 z" transform="matrix(0.57262634,0,0,0.57262635,81.17178,-3.8812157)"/><path id="path4042-3" fill="none" stroke="#2e3436" stroke-dasharray="none" stroke-dashoffset="0" stroke-miterlimit="4" stroke-width="2.994" d="m 48.597521,39.95837 c 0,11.57372 -9.382354,20.956074 -20.956074,20.956074 -11.57372,0 -20.9560737,-9.382354 -20.9560737,-20.956074 0,-11.57372 9.3823537,-20.956074 20.9560737,-20.956074 11.57372,0 20.956074,9.382354 20.956074,20.956074 z" transform="matrix(0.66806408,0,0,0.66806407,78.533742,-7.6947514)"/></g><path id="path3917-62" fill="none" stroke="#2e3436" stroke-dasharray="6 12" stroke-dashoffset="3.6" stroke-linecap="round" stroke-linejoin="miter" stroke-miterlimit="4" stroke-opacity="1" stroke-width="6" d="m 40,21 0,38"/><path id="path3917-61" fill="none" stroke="#2e3436" stroke-dasharray="6 12" stroke-dashoffset="3.6" stroke-linecap="round" stroke-linejoin="miter" stroke-miterlimit="4" stroke-opacity="1" stroke-width="6" d="M 40,21 61,10"/><path id="path3917-6" fill="none" stroke="#2e3436" stroke-dasharray="6 12" stroke-dashoffset="3.6" stroke-linecap="round" stroke-linejoin="miter" stroke-miterlimit="4" stroke-opacity="1" stroke-width="6" d="m 5,15 35,6"/><path id="path3917-6-9" fill="none" stroke="#fff" stroke-dasharray="6 12" stroke-dashoffset="3.6" stroke-linecap="round" stroke-linejoin="miter" stroke-miterlimit="4" stroke-opacity="1" stroke-width="2" d="m 5,15 35,6"/><path id="path3917-61-9" fill="none" stroke="#fff" stroke-dasharray="6 12" stroke-dashoffset="3.6" stroke-linecap="round" stroke-linejoin="miter" stroke-miterlimit="4" stroke-opacity="1" stroke-width="2" d="M 40,21 61,10"/><path id="path3917-62-1" fill="none" stroke="#fff" stroke-dasharray="6 12" stroke-dashoffset="3.6" stroke-linecap="round" stroke-linejoin="miter" stroke-miterlimit="4" stroke-opacity="1" stroke-width="2" d="m 40,21 0,38"/><path id="path3917-3-9" fill="none" stroke="#fff" stroke-dasharray="6 12" stroke-dashoffset="3.6" stroke-linecap="round" stroke-linejoin="miter" stroke-miterlimit="4" stroke-opacity="1" stroke-width="2" d="M 5,15 5,53"/><path id="path3917-9-2" fill="none" stroke="#fff" stroke-dasharray="6 12" stroke-dashoffset="3.6" stroke-linecap="round" stroke-linejoin="miter" stroke-miterlimit="4" stroke-opacity="1" stroke-width="2" d="M 5,15 25,5"/><path id="path3917-0-1" fill="none" stroke="#fff" stroke-dasharray="6 12" stroke-dashoffset="3.6" stroke-linecap="round" stroke-linejoin="miter" stroke-miterlimit="4" stroke-opacity="1" stroke-width="2" d="M 40,59 59,49"/><path id="path3917-28" fill="none" stroke="#fff" stroke-dasharray="6 12" stroke-dashoffset="3.6" stroke-linecap="round" stroke-linejoin="miter" stroke-miterlimit="4" stroke-opacity="1" stroke-width="2" d="m 5,53 34,6"/><path id="path3917-27-6" fill="none" stroke="#fff" stroke-dasharray="6 12" stroke-dashoffset="3.6" stroke-linecap="round" stroke-linejoin="miter" stroke-miterlimit="4" stroke-opacity="1" stroke-width="2" d="m 59,11 0,38"/><path id="path3917-1-3" fill="none" stroke="#fff" stroke-dasharray="6 12" stroke-dashoffset="3.6" stroke-linecap="round" stroke-linejoin="miter" stroke-miterlimit="4" stroke-opacity="1" stroke-width="2" d="m 25,5 34,6"/><g id="g916" transform="matrix(0.57870228,0,0,0.57870228,-1.1453489,29.091638)"><path id="path4647" fill="url(#linearGradient4743)" fill-opacity="1" fill-rule="evenodd" stroke="none" stroke-linecap="butt" stroke-linejoin="miter" stroke-opacity="1" stroke-width="1" d="m 46.862923,19.416557 c 1.66448,-7.41576 -2.46805,-8.904332 -8.5834,-8.36557 -4.11598,-2.663978 -8.27216,-3.770605 -12.55492,0.02414 -9.092843,-1.4097023 -9.656833,2.766969 -7.92369,8.256193 -2.73442,1.388934 -5.868243,2.528459 -4.07631,6.743807 -7.680309,2.33437 -5.7802556,8.942561 -4.1199056,15.266333 5.5618756,0.0094 4.4051156,-7.129743 8.5057256,-11.000703 0.59642,13.168027 3.40522,23.70858 13.88958,25.133475 9.57683,-1.495739 14.31812,-9.769102 13.97992,-25.161985 3.71316,4.605098 2.370548,10.614916 9.210148,10.704411 -0.5217,-5.949656 3.023801,-12.794017 -3.914549,-15.177637 1.68354,-4.071161 -1.666449,-5.112266 -4.412599,-6.422464 z" transform="matrix(1.1051629,0,0,1.1051629,-3.3975789,-3.4322105)"/><path id="path827-3-6-6-9" fill="none" fill-opacity="1" stroke="#0b1521" stroke-dasharray="none" stroke-linecap="round" stroke-linejoin="miter" stroke-miterlimit="4" stroke-opacity="1" stroke-width="3.456" d="M 10.406304,25.263156 C 8.2839879,27.271095 6.7135569,29.390094 6.6157637,29.943264 4.0263487,34.00175 5.9212349,39.85168 7.1631788,43.041756 16.571991,37.30436 14.403214,32.366927 16.975062,28.310886"/><path id="path821-9-0-6-4-8" fill="none" fill-opacity="1" stroke="#0b1521" stroke-dasharray="none" stroke-linecap="round" stroke-linejoin="miter" stroke-miterlimit="4" stroke-opacity="1" stroke-width="3.456" d="M 16.617378,30.099271 C 18.015258,42.763729 18.084072,56.22657 31.967634,57.875855 44.78367,56.442673 46.008839,42.833486 47.417716,30.06776"/><path id="path4669-3-1" fill="none" fill-opacity="1" fill-rule="nonzero" stroke="#0b1521" stroke-dasharray="none" stroke-linecap="round" stroke-miterlimit="4" stroke-width="3.456" d="m 10.913786,24.727003 a 7.7969213,6.3020225 0 0 1 5.36154,-6.794954" opacity="1"/><path id="path4669-1-6-3" fill="none" fill-opacity="1" fill-rule="nonzero" stroke="#0b1521" stroke-dasharray="none" stroke-linecap="round" stroke-miterlimit="4" stroke-width="3.456" d="m 15.824326,17.277108 a 7.7969213,6.3020225 0 0 1 1.19308,-7.12608 7.7969213,6.3020225 0 0 1 8.678521,-1.5831735" opacity="1"/><path id="path4669-1-2-3-1-9" fill="none" fill-opacity="1" fill-rule="nonzero" stroke="#0b1521" stroke-dasharray="none" stroke-linecap="round" stroke-miterlimit="4" stroke-width="3.456" d="m -38.746863,8.6463425 a 7.7969213,6.3020225 0 0 1 6.480178,-2.8777831 7.7969213,6.3020225 0 0 1 6.539114,2.7893297" opacity="1" transform="scale(-1,1)"/><path id="path4669-1-5-5-6" fill="none" fill-opacity="1" fill-rule="nonzero" stroke="#0b1521" stroke-dasharray="none" stroke-linecap="round" stroke-miterlimit="4" stroke-width="3.456" d="m -48.989754,17.268057 a 7.7969213,6.3020225 0 0 1 1.433475,-7.043401 7.7969213,6.3020225 0 0 1 8.648757,-1.4437247" opacity="1" transform="scale(-1,1)"/><path id="path4669-2-4-9" fill="none" fill-opacity="1" fill-rule="nonzero" stroke="#0b1521" stroke-dasharray="none" stroke-linecap="round" stroke-miterlimit="4" stroke-width="3.456" d="m -53.097978,24.794131 a 7.5624275,6.3020225 0 0 1 4.704385,-6.767884" opacity="1" transform="scale(-1,1)"/><path id="path4669-3-1-4" fill="none" fill-opacity="1" fill-rule="nonzero" stroke="#729fcf" stroke-dasharray="none" stroke-linecap="round" stroke-miterlimit="4" stroke-width="2.175" d="m 13.066014,24.5468 a 6.9618187,4.3235502 0 0 1 4.117308,-4.602635" opacity="1"/><path id="path4669-1-6-3-9" fill="none" fill-opacity="1" fill-rule="nonzero" stroke="#729fcf" stroke-dasharray="none" stroke-linecap="round" stroke-miterlimit="4" stroke-width="2.175" d="m 18.04188,16.59087 a 5.7523088,4.1353617 0 0 1 0.890425,-5.104059 5.7523088,4.1353617 0 0 1 7.117062,-0.531715" opacity="1"/><path id="path4669-1-2-3-1-9-0" fill="none" fill-opacity="1" fill-rule="nonzero" stroke="#729fcf" stroke-dasharray="none" stroke-linecap="round" stroke-miterlimit="4" stroke-width="1.899" d="m -38.014432,11.137345 a 6.4067531,5.661931 0 0 1 5.484481,-3.2955175 6.4067531,5.661931 0 0 1 5.848826,2.7632395" opacity="1" transform="scale(-1,1)"/><path id="path4669-1-5-5-6-1" fill="none" fill-opacity="1" fill-rule="nonzero" stroke="#729fcf" stroke-dasharray="none" stroke-linecap="round" stroke-miterlimit="4" stroke-width="2.175" d="m -46.754332,16.627222 a 5.4478283,4.3276558 0 0 1 1.332429,-5.088394 5.4478283,4.3276558 0 0 1 6.522947,-0.402451" opacity="1" transform="scale(-1,1)"/><path id="path821-9-0-6-4-8-28" fill="none" fill-opacity="1" stroke="#729fcf" stroke-dasharray="none" stroke-linecap="round" stroke-linejoin="miter" stroke-miterlimit="4" stroke-opacity="1" stroke-width="2.175" d="M 18.781353,29.619019 C 20.056823,40.497603 19.825912,54.271588 31.864782,55.55181 42.5648,54.738587 44.005893,41.642851 45.208457,29.746187"/><path id="path866" fill="none" fill-rule="evenodd" stroke="#729fcf" stroke-dasharray="none" stroke-dashoffset="0" stroke-linecap="round" stroke-linejoin="miter" stroke-miterlimit="4" stroke-opacity="1" stroke-width="2.175" d="m 14.135688,29.55084 c 1.513405,-2.286545 3.838508,-1.883509 4.576728,-0.186792"/><path id="path868" fill="none" fill-rule="evenodd" stroke="#729fcf" stroke-dasharray="none" stroke-linecap="round" stroke-linejoin="miter" stroke-miterlimit="4" stroke-opacity="1" stroke-width="2.175" d="m 11.955409,26.813371 c 0.753375,-0.753214 1.129518,-1.452486 1.106199,-2.386578"/><path id="path868-7" fill="none" fill-rule="evenodd" stroke="#729fcf" stroke-dasharray="none" stroke-linecap="round" stroke-linejoin="miter" stroke-miterlimit="4" stroke-opacity="1" stroke-width="2.175" d="m 16.957692,20.005125 c 1.155563,-0.327326 1.984499,-1.769638 1.25442,-3.073667"/><g id="g4583-1-6-1" transform="matrix(0.6619134,0,0,0.76251857,23.141389,6.6930998)"><path id="path4557-8-0-0" fill="#0b1521" fill-opacity="1" fill-rule="nonzero" stroke="none" stroke-dasharray="none" stroke-miterlimit="4" stroke-width="1.89" d="m -48.632539,35.775429 a 2,4.375 0 0 1 -2.419975,-3.174399 2,4.375 0 0 1 1.439682,-5.308664 2,4.375 0 0 1 2.433606,3.12414 2,4.375 0 0 1 -1.416642,5.338241" opacity="1" transform="rotate(-66.420589)"/><path id="path4557-4-5-6-1" fill="#0b1521" fill-opacity="1" fill-rule="nonzero" stroke="none" stroke-dasharray="none" stroke-miterlimit="4" stroke-width="1.89" d="m -59.260518,11.320401 a 2,4.375 0 0 1 -2.419975,-3.1744 2,4.375 0 0 1 1.439682,-5.3086639 2,4.375 0 0 1 2.433606,3.12414 2,4.375 0 0 1 -1.416642,5.3382419" opacity="1" transform="matrix(-0.40001972,-0.91650653,-0.91650653,0.40001972,0,0)"/><path id="path4557-3-1-2-9" fill="#0b1521" fill-opacity="1" fill-rule="nonzero" stroke="none" stroke-dasharray="none" stroke-miterlimit="4" stroke-width="1.89" d="m 13.954073,67.074179 a 2,4.375 0 0 1 -2.419975,-3.1744 2,4.375 0 0 1 1.439682,-5.308663 2,4.375 0 0 1 2.433606,3.12414 2,4.375 0 0 1 -1.416642,5.338241" opacity="1" transform="rotate(0.20338494)"/></g><path id="path827-3-6-6-9-5-6" fill="none" fill-opacity="1" stroke="#729fcf" stroke-dasharray="none" stroke-linecap="round" stroke-linejoin="miter" stroke-miterlimit="4" stroke-opacity="1" stroke-width="2.175" d="m 11.955409,26.813371 c -5.7191513,5.384675 -4.9140072,9.03267 -3.6032146,12.807958 2.3830906,-1.735628 3.8482866,-4.003857 4.5874036,-5.95184 0.546538,-1.440431 0.335979,-1.425345 0.996202,-3.749627"/><g id="g1071" transform="matrix(1.4426554,0,0,1.5336585,-14.226765,37.012899)"><path id="path5083-1" fill="#fff" fill-opacity="1" fill-rule="nonzero" stroke="none" stroke-dasharray="none" stroke-miterlimit="4" stroke-width="2.807" d="m 32.012441,-3.579859 a 4.2360187,4.386272 0 0 1 3.896572,-4.6885042 4.2360187,4.386272 0 0 1 4.549821,4.0082547 4.2360187,4.386272 0 0 1 -3.845206,4.73375573 4.2360187,4.386272 0 0 1 -4.593232,-3.95481253" opacity="1"/><path id="path5083-8-6" fill="#0b1521" fill-opacity="1" fill-rule="nonzero" stroke="none" stroke-dasharray="none" stroke-miterlimit="4" stroke-width="1.499" d="m 32.090572,-3.0617162 a 2.262718,2.3429775 0 0 1 2.081398,-2.5044184 2.262718,2.3429775 0 0 1 2.43034,2.1410553 2.262718,2.3429775 0 0 1 -2.053961,2.52858996 2.262718,2.3429775 0 0 1 -2.453528,-2.11250846" opacity="1"/><path id="path5083-0-4" fill="#fff" fill-opacity="1" fill-rule="nonzero" stroke="none" stroke-dasharray="none" stroke-miterlimit="4" stroke-width="2.137" d="M -7.5008603,28.528731 A 3.0267222,3.5582526 0 0 1 -4.71668,24.7253 a 3.0267222,3.5582526 0 0 1 3.2509404,3.251596 3.0267222,3.5582526 0 0 1 -2.7474785,3.84014 3.0267222,3.5582526 0 0 1 -3.2819583,-3.208242" opacity="1" transform="matrix(-0.02973672,0.99955777,0.99924923,0.03874253,0,0)"/><path id="path5083-8-1-8" fill="#0b1521" fill-opacity="1" fill-rule="nonzero" stroke="none" stroke-dasharray="none" stroke-miterlimit="4" stroke-width="1.116" d="m 28.695223,-3.0884248 a 1.684593,1.7443461 0 0 1 1.5496,-1.8645388 1.684593,1.7443461 0 0 1 1.809387,1.5940151 1.684593,1.7443461 0 0 1 -1.529173,1.8825346 1.684593,1.7443461 0 0 1 -1.826651,-1.5727621" opacity="1"/></g><path id="path827-3-6-6-9-1" fill="none" fill-opacity="1" stroke="#0b1521" stroke-dasharray="none" stroke-linecap="round" stroke-linejoin="miter" stroke-miterlimit="4" stroke-opacity="1" stroke-width="3.456" d="m 53.531164,25.211096 c 2.122316,2.007939 3.692747,4.126938 3.79054,4.680108 2.589415,4.058486 0.694529,9.908416 -0.547415,13.098492 -9.408812,-5.737395 -6.784715,-8.865895 -9.356563,-12.921936"/></g></g></svg>