<svg xmlns="http://www.w3.org/2000/svg" xmlns:svg="http://www.w3.org/2000/svg" xmlns:xlink="http://www.w3.org/1999/xlink" id="svg2980" width="64" height="64" version="1.1"><defs id="defs2982"><linearGradient id="linearGradient3805"><stop id="stop3807" offset="0" stop-color="#4e9a06" stop-opacity="1"/><stop id="stop3809" offset="1" stop-color="#8ae234" stop-opacity="1"/></linearGradient><linearGradient id="linearGradient3777"><stop id="stop3779" offset="0" stop-color="#888a85" stop-opacity="1"/><stop id="stop3781" offset="1" stop-color="#babdb6" stop-opacity="1"/></linearGradient><linearGradient id="linearGradient3767"><stop id="stop3769" offset="0" stop-color="#babdb6" stop-opacity="1"/><stop id="stop3771" offset="1" stop-color="#d3d7cf" stop-opacity="1"/></linearGradient><linearGradient id="linearGradient3864"><stop id="stop3866" offset="0" stop-color="#71b2f8" stop-opacity="1"/><stop id="stop3868" offset="1" stop-color="#002795" stop-opacity="1"/></linearGradient><radialGradient id="radialGradient3850" cx="51.329" cy="31.074" r="19.571" fx="51.329" fy="31.074" gradientTransform="matrix(0.6028459,1.0471639,-1.9794021,1.1395295,127.9588,-74.456907)" gradientUnits="userSpaceOnUse" xlink:href="#linearGradient3864"/><linearGradient id="linearGradient3773" x1="22.117" x2="17.329" y1="55.718" y2="21.311" gradientUnits="userSpaceOnUse" xlink:href="#linearGradient3767"/><linearGradient id="linearGradient3783" x1="53.897" x2="47.502" y1="51.18" y2="21.837" gradientUnits="userSpaceOnUse" xlink:href="#linearGradient3777"/><linearGradient id="linearGradient3811" x1="49.059" x2="34.941" y1="60.824" y2="23.176" gradientUnits="userSpaceOnUse" xlink:href="#linearGradient3805"/><linearGradient id="linearGradient3797"><stop id="stop3799" offset="0" stop-color="#3465a4" stop-opacity="1"/><stop id="stop3801" offset="1" stop-color="#729fcf" stop-opacity="1"/></linearGradient><linearGradient id="linearGradient3968" x1="30" x2="29" y1="48" y2="39" gradientTransform="translate(-0.00826352,-0.02205)" gradientUnits="userSpaceOnUse" xlink:href="#linearGradient3962"/><linearGradient id="linearGradient3962"><stop id="stop3964" offset="0" stop-color="#babdb6" stop-opacity="1"/><stop id="stop3966" offset="1" stop-color="#d3d7cf" stop-opacity="1"/></linearGradient><linearGradient id="linearGradient3936" x1="22" x2="19" y1="52" y2="38" gradientUnits="userSpaceOnUse" xlink:href="#linearGradient3930"/><linearGradient id="linearGradient3930"><stop id="stop3932" offset="0" stop-color="#babdb6" stop-opacity="1"/><stop id="stop3934" offset="1" stop-color="#d3d7cf" stop-opacity="1"/></linearGradient><linearGradient id="linearGradient4739"><stop id="stop4735" offset="0" stop-color="#204a87" stop-opacity="1"/><stop id="stop4737" offset="1" stop-color="#729fcf" stop-opacity="1"/></linearGradient><linearGradient id="linearGradient4687-1-6-6" x1="18.145" x2="44.398" y1="51.499" y2="51.499" gradientTransform="matrix(1,0,0,1.0981138,0.14321474,-55.839871)" gradientUnits="userSpaceOnUse" xlink:href="#linearGradient3797"/><linearGradient id="linearGradient4695-7-8-7-0" x1=".18" x2="14.624" y1="36.248" y2="36.248" gradientTransform="matrix(-1,0,0,1,57.200391,-43.587124)" gradientUnits="userSpaceOnUse" xlink:href="#linearGradient3797"/><linearGradient id="linearGradient4687-1-6-6-8" x1="18.145" x2="44.398" y1="51.499" y2="51.499" gradientTransform="matrix(1,0,0,1.0981138,45.686839,-56.465414)" gradientUnits="userSpaceOnUse" xlink:href="#linearGradient3797"/><linearGradient id="linearGradient1065" x1="26.112" x2="44.096" y1="2.937" y2="2.911" gradientTransform="matrix(1.2002734,0,0,1.2002734,-6.0365755,41.424104)" gradientUnits="userSpaceOnUse" xlink:href="#linearGradient3797"/><linearGradient id="linearGradient4655" x1="108" x2="128" y1="46" y2="46" gradientTransform="translate(-86.020077,-13.687753)" gradientUnits="userSpaceOnUse" xlink:href="#linearGradient3797"/><linearGradient id="linearGradient4743" x1="18.702" x2="45.765" y1="31.725" y2="31.812" gradientUnits="userSpaceOnUse" xlink:href="#linearGradient4739"/><linearGradient id="linearGradient995" x1="39.971" x2="26.592" y1="44.082" y2="23.737" gradientTransform="translate(78.922405,4.6396909)" gradientUnits="userSpaceOnUse" xlink:href="#linearGradient4739"/></defs><metadata id="metadata2985"/><g id="layer1"><path id="path2993" fill="#fff" stroke="#2e3436" stroke-linecap="butt" stroke-linejoin="round" stroke-opacity="1" stroke-width="2" d="M 3,17 37,23 61,15 31,11 z"/><path id="path2995" fill="url(#linearGradient3783)" fill-opacity="1" stroke="#2e3436" stroke-linecap="butt" stroke-linejoin="round" stroke-opacity="1" stroke-width="2" d="M 61,15 61,51 37,61 37,23 z"/><path id="path3825" fill="url(#linearGradient3773)" fill-opacity="1" fill-rule="evenodd" stroke="#2e3436" stroke-dasharray="none" stroke-dashoffset="0" stroke-linecap="butt" stroke-linejoin="round" stroke-miterlimit="4" stroke-opacity="1" stroke-width="2" d="M 3,17 37,23 37,61 3,55 z" display="inline" enable-background="accumulate" overflow="visible" visibility="visible" style="marker:none"/><path id="path3765" fill="none" stroke="#d3d7cf" stroke-linecap="butt" stroke-linejoin="miter" stroke-opacity="1" stroke-width="2" d="m 5,19.42772 0.00867,33.919116 30.0086711,5.268799 -0.0087,-33.933614 z"/><path id="path3775" fill="none" stroke="#babdb6" stroke-linecap="butt" stroke-linejoin="miter" stroke-opacity="1" stroke-width="2" d="m 39.01243,24.433833 -0.01226,33.535301 20.001105,-8.300993 3.6e-4,-31.867363 z"/><g id="g4675" transform="matrix(0.54543397,0,0,0.54543397,-58.825433,25.086473)"><g id="g1020" transform="matrix(1.0609942,0,0,1.0609942,105.75081,7.343079)"><path id="path4647" fill="url(#linearGradient4743)" fill-opacity="1" fill-rule="evenodd" stroke="none" stroke-linecap="butt" stroke-linejoin="miter" stroke-opacity="1" stroke-width="1" d="m 46.862923,19.416557 c 1.66448,-7.41576 -2.46805,-8.904332 -8.5834,-8.36557 -4.11598,-2.663978 -8.27216,-3.770605 -12.55492,0.02414 -9.092843,-1.4097023 -9.656833,2.766969 -7.92369,8.256193 -2.73442,1.388934 -5.868243,2.528459 -4.07631,6.743807 -7.680309,2.33437 -5.7802556,8.942561 -4.1199056,15.266333 5.5618756,0.0094 4.4051156,-7.129743 8.5057256,-11.000703 0.59642,13.168027 3.40522,23.70858 13.88958,25.133475 9.57683,-1.495739 14.31812,-9.769102 13.97992,-25.161985 3.71316,4.605098 2.370548,10.614916 9.210148,10.704411 -0.5217,-5.949656 3.023801,-12.794017 -3.914549,-15.177637 1.68354,-4.071161 -1.666449,-5.112266 -4.412599,-6.422464 z" transform="matrix(1.1051629,0,0,1.1051629,-3.3975789,-3.4322105)"/><path id="path827-3-6-6-9" fill="none" fill-opacity="1" stroke="#0b1521" stroke-dasharray="none" stroke-linecap="round" stroke-linejoin="miter" stroke-miterlimit="4" stroke-opacity="1" stroke-width="3.456" d="M 10.406304,25.263156 C 8.2839879,27.271095 6.7135569,29.390094 6.6157637,29.943264 4.0263487,34.00175 5.9212349,39.85168 7.1631788,43.041756 16.571991,37.30436 14.403214,32.366927 16.975062,28.310886"/><path id="path821-9-0-6-4-8" fill="none" fill-opacity="1" stroke="#0b1521" stroke-dasharray="none" stroke-linecap="round" stroke-linejoin="miter" stroke-miterlimit="4" stroke-opacity="1" stroke-width="3.456" d="M 16.617378,30.099271 C 18.015258,42.763729 18.084072,56.22657 31.967634,57.875855 44.78367,56.442673 46.008839,42.833486 47.417716,30.06776"/><path id="path4669-3-1" fill="none" fill-opacity="1" fill-rule="nonzero" stroke="#0b1521" stroke-dasharray="none" stroke-linecap="round" stroke-miterlimit="4" stroke-width="3.456" d="m 10.913786,24.727003 a 7.7969213,6.3020225 0 0 1 5.36154,-6.794954" opacity="1"/><path id="path4669-1-6-3" fill="none" fill-opacity="1" fill-rule="nonzero" stroke="#0b1521" stroke-dasharray="none" stroke-linecap="round" stroke-miterlimit="4" stroke-width="3.456" d="m 15.824326,17.277108 a 7.7969213,6.3020225 0 0 1 1.19308,-7.12608 7.7969213,6.3020225 0 0 1 8.678521,-1.5831735" opacity="1"/><path id="path4669-1-2-3-1-9" fill="none" fill-opacity="1" fill-rule="nonzero" stroke="#0b1521" stroke-dasharray="none" stroke-linecap="round" stroke-miterlimit="4" stroke-width="3.456" d="m -38.746863,8.6463425 a 7.7969213,6.3020225 0 0 1 6.480178,-2.8777831 7.7969213,6.3020225 0 0 1 6.539114,2.7893297" opacity="1" transform="scale(-1,1)"/><path id="path4669-1-5-5-6" fill="none" fill-opacity="1" fill-rule="nonzero" stroke="#0b1521" stroke-dasharray="none" stroke-linecap="round" stroke-miterlimit="4" stroke-width="3.456" d="m -48.989754,17.268057 a 7.7969213,6.3020225 0 0 1 1.433475,-7.043401 7.7969213,6.3020225 0 0 1 8.648757,-1.4437247" opacity="1" transform="scale(-1,1)"/><path id="path4669-2-4-9" fill="none" fill-opacity="1" fill-rule="nonzero" stroke="#0b1521" stroke-dasharray="none" stroke-linecap="round" stroke-miterlimit="4" stroke-width="3.456" d="m -53.097978,24.794131 a 7.5624275,6.3020225 0 0 1 4.704385,-6.767884" opacity="1" transform="scale(-1,1)"/><path id="path4669-3-1-4" fill="none" fill-opacity="1" fill-rule="nonzero" stroke="#729fcf" stroke-dasharray="none" stroke-linecap="round" stroke-miterlimit="4" stroke-width="2.175" d="m 13.066014,24.5468 a 6.9618187,4.3235502 0 0 1 4.117308,-4.602635" opacity="1"/><path id="path4669-1-6-3-9" fill="none" fill-opacity="1" fill-rule="nonzero" stroke="#729fcf" stroke-dasharray="none" stroke-linecap="round" stroke-miterlimit="4" stroke-width="2.175" d="m 18.04188,16.59087 a 5.7523088,4.1353617 0 0 1 0.890425,-5.104059 5.7523088,4.1353617 0 0 1 7.117062,-0.531715" opacity="1"/><path id="path4669-1-2-3-1-9-0" fill="none" fill-opacity="1" fill-rule="nonzero" stroke="#729fcf" stroke-dasharray="none" stroke-linecap="round" stroke-miterlimit="4" stroke-width="1.899" d="m -38.014432,11.137345 a 6.4067531,5.661931 0 0 1 5.484481,-3.2955175 6.4067531,5.661931 0 0 1 5.848826,2.7632395" opacity="1" transform="scale(-1,1)"/><path id="path4669-1-5-5-6-1" fill="none" fill-opacity="1" fill-rule="nonzero" stroke="#729fcf" stroke-dasharray="none" stroke-linecap="round" stroke-miterlimit="4" stroke-width="2.175" d="m -46.754332,16.627222 a 5.4478283,4.3276558 0 0 1 1.332429,-5.088394 5.4478283,4.3276558 0 0 1 6.522947,-0.402451" opacity="1" transform="scale(-1,1)"/><path id="path821-9-0-6-4-8-28" fill="none" fill-opacity="1" stroke="#729fcf" stroke-dasharray="none" stroke-linecap="round" stroke-linejoin="miter" stroke-miterlimit="4" stroke-opacity="1" stroke-width="2.175" d="M 18.781353,29.619019 C 20.056823,40.497603 19.825912,54.271588 31.864782,55.55181 42.5648,54.738587 44.005893,41.642851 45.208457,29.746187"/><path id="path866" fill="none" fill-rule="evenodd" stroke="#729fcf" stroke-dasharray="none" stroke-dashoffset="0" stroke-linecap="round" stroke-linejoin="miter" stroke-miterlimit="4" stroke-opacity="1" stroke-width="2.175" d="m 14.135688,29.55084 c 1.513405,-2.286545 3.838508,-1.883509 4.576728,-0.186792"/><path id="path868" fill="none" fill-rule="evenodd" stroke="#729fcf" stroke-dasharray="none" stroke-linecap="round" stroke-linejoin="miter" stroke-miterlimit="4" stroke-opacity="1" stroke-width="2.175" d="m 11.955409,26.813371 c 0.753375,-0.753214 1.129518,-1.452486 1.106199,-2.386578"/><path id="path868-7" fill="none" fill-rule="evenodd" stroke="#729fcf" stroke-dasharray="none" stroke-linecap="round" stroke-linejoin="miter" stroke-miterlimit="4" stroke-opacity="1" stroke-width="2.175" d="m 16.957692,20.005125 c 1.155563,-0.327326 1.984499,-1.769638 1.25442,-3.073667"/><g id="g4583-1-6-1" transform="matrix(0.6619134,0,0,0.76251857,23.141389,6.6930998)"><path id="path4557-8-0-0" fill="#0b1521" fill-opacity="1" fill-rule="nonzero" stroke="none" stroke-dasharray="none" stroke-miterlimit="4" stroke-width="1.89" d="m -48.632539,35.775429 a 2,4.375 0 0 1 -2.419975,-3.174399 2,4.375 0 0 1 1.439682,-5.308664 2,4.375 0 0 1 2.433606,3.12414 2,4.375 0 0 1 -1.416642,5.338241" opacity="1" transform="rotate(-66.420589)"/><path id="path4557-4-5-6-1" fill="#0b1521" fill-opacity="1" fill-rule="nonzero" stroke="none" stroke-dasharray="none" stroke-miterlimit="4" stroke-width="1.89" d="m -59.260518,11.320401 a 2,4.375 0 0 1 -2.419975,-3.1744 2,4.375 0 0 1 1.439682,-5.3086639 2,4.375 0 0 1 2.433606,3.12414 2,4.375 0 0 1 -1.416642,5.3382419" opacity="1" transform="matrix(-0.40001972,-0.91650653,-0.91650653,0.40001972,0,0)"/><path id="path4557-3-1-2-9" fill="#0b1521" fill-opacity="1" fill-rule="nonzero" stroke="none" stroke-dasharray="none" stroke-miterlimit="4" stroke-width="1.89" d="m 13.954073,67.074179 a 2,4.375 0 0 1 -2.419975,-3.1744 2,4.375 0 0 1 1.439682,-5.308663 2,4.375 0 0 1 2.433606,3.12414 2,4.375 0 0 1 -1.416642,5.338241" opacity="1" transform="rotate(0.20338494)"/></g><path id="path827-3-6-6-9-5-6" fill="none" fill-opacity="1" stroke="#729fcf" stroke-dasharray="none" stroke-linecap="round" stroke-linejoin="miter" stroke-miterlimit="4" stroke-opacity="1" stroke-width="2.175" d="m 11.955409,26.813371 c -5.7191513,5.384675 -4.9140072,9.03267 -3.6032146,12.807958 2.3830906,-1.735628 3.8482866,-4.003857 4.5874036,-5.95184 0.546538,-1.440431 0.335979,-1.425345 0.996202,-3.749627"/><g id="g1071" transform="matrix(1.4426554,0,0,1.5336585,-14.226765,37.012899)"><path id="path5083-1" fill="#fff" fill-opacity="1" fill-rule="nonzero" stroke="none" stroke-dasharray="none" stroke-miterlimit="4" stroke-width="2.807" d="m 32.012441,-3.579859 a 4.2360187,4.386272 0 0 1 3.896572,-4.6885042 4.2360187,4.386272 0 0 1 4.549821,4.0082547 4.2360187,4.386272 0 0 1 -3.845206,4.73375573 4.2360187,4.386272 0 0 1 -4.593232,-3.95481253" opacity="1"/><path id="path5083-8-6" fill="#0b1521" fill-opacity="1" fill-rule="nonzero" stroke="none" stroke-dasharray="none" stroke-miterlimit="4" stroke-width="1.499" d="m 32.090572,-3.0617162 a 2.262718,2.3429775 0 0 1 2.081398,-2.5044184 2.262718,2.3429775 0 0 1 2.43034,2.1410553 2.262718,2.3429775 0 0 1 -2.053961,2.52858996 2.262718,2.3429775 0 0 1 -2.453528,-2.11250846" opacity="1"/><path id="path5083-0-4" fill="#fff" fill-opacity="1" fill-rule="nonzero" stroke="none" stroke-dasharray="none" stroke-miterlimit="4" stroke-width="2.137" d="M -7.5008603,28.528731 A 3.0267222,3.5582526 0 0 1 -4.71668,24.7253 a 3.0267222,3.5582526 0 0 1 3.2509404,3.251596 3.0267222,3.5582526 0 0 1 -2.7474785,3.84014 3.0267222,3.5582526 0 0 1 -3.2819583,-3.208242" opacity="1" transform="matrix(-0.02973672,0.99955777,0.99924923,0.03874253,0,0)"/><path id="path5083-8-1-8" fill="#0b1521" fill-opacity="1" fill-rule="nonzero" stroke="none" stroke-dasharray="none" stroke-miterlimit="4" stroke-width="1.116" d="m 28.695223,-3.0884248 a 1.684593,1.7443461 0 0 1 1.5496,-1.8645388 1.684593,1.7443461 0 0 1 1.809387,1.5940151 1.684593,1.7443461 0 0 1 -1.529173,1.8825346 1.684593,1.7443461 0 0 1 -1.826651,-1.5727621" opacity="1"/></g><path id="path827-3-6-6-9-1" fill="none" fill-opacity="1" stroke="#0b1521" stroke-dasharray="none" stroke-linecap="round" stroke-linejoin="miter" stroke-miterlimit="4" stroke-opacity="1" stroke-width="3.456" d="m 53.531164,25.211096 c 2.122316,2.007939 3.692747,4.126938 3.79054,4.680108 2.589415,4.058486 0.694529,9.908416 -0.547415,13.098492 -9.408812,-5.737395 -6.784715,-8.865895 -9.356563,-12.921936"/></g></g></g></svg>