<svg xmlns="http://www.w3.org/2000/svg" xmlns:svg="http://www.w3.org/2000/svg" xmlns:xlink="http://www.w3.org/1999/xlink" id="svg2860" width="64" height="64" version="1.1"><defs id="defs2862"><linearGradient id="linearGradient4147"><stop id="stop4149" offset="0" stop-color="#edd400" stop-opacity="1"/><stop id="stop4151" offset="1" stop-color="#fce94f" stop-opacity="1"/></linearGradient><linearGradient id="linearGradient4121"><stop id="stop4123" offset="0" stop-color="#c4a000" stop-opacity="1"/><stop id="stop4125" offset="1" stop-color="#edd400" stop-opacity="1"/></linearGradient><linearGradient id="linearGradient3377"><stop id="stop3379" offset="0" stop-color="#faff2b" stop-opacity="1"/><stop id="stop3381" offset="1" stop-color="#fa0" stop-opacity="1"/></linearGradient><radialGradient id="radialGradient3092" cx="45.883" cy="28.87" r="19.467" fx="45.883" fy="28.87" gradientTransform="matrix(1.0625325,0,0,1.0625325,-134.54016,-74.193042)" gradientUnits="userSpaceOnUse" xlink:href="#linearGradient3377"/><radialGradient id="radialGradient3095-6" cx="135.383" cy="97.37" r="19.467" fx="135.383" fy="97.37" gradientTransform="matrix(1.0352785,0.23911008,-0.49121993,2.1268424,-83.020566,-210.19595)" gradientUnits="userSpaceOnUse" xlink:href="#linearGradient3377-1"/><linearGradient id="linearGradient3377-1"><stop id="stop3379-1" offset="0" stop-color="#faff2b" stop-opacity="1"/><stop id="stop3381-0" offset="1" stop-color="#fa0" stop-opacity="1"/></linearGradient><radialGradient id="radialGradient4108" cx="225.264" cy="672.797" r="34.345" fx="225.264" fy="672.797" gradientTransform="matrix(1,0,0,0.6985294,0,202.82863)" gradientUnits="userSpaceOnUse" xlink:href="#linearGradient3144"/><linearGradient id="linearGradient3144"><stop id="stop3146" offset="0" stop-color="#fff" stop-opacity="1"/><stop id="stop3148" offset="1" stop-color="#fff" stop-opacity="0"/></linearGradient><radialGradient id="radialGradient4134" cx="225.264" cy="672.797" r="34.345" fx="225.264" fy="672.797" gradientTransform="matrix(1,0,0,0.6985294,0,202.82863)" gradientUnits="userSpaceOnUse" xlink:href="#linearGradient3144"/><linearGradient id="linearGradient4041" x1="37.758" x2="21.86" y1="57.301" y2="22.615" gradientUnits="userSpaceOnUse" xlink:href="#linearGradient3960"/><linearGradient id="linearGradient3960"><stop id="stop3962" offset="0" stop-color="#c4a000" stop-opacity="1"/><stop id="stop3964" offset="1" stop-color="#fce94f" stop-opacity="1"/></linearGradient><filter id="filter3980" width="1.586" height="1.885" x="-.293" y="-.442" color-interpolation-filters="sRGB"><feGaussianBlur id="feGaussianBlur3982" stdDeviation="4.486"/></filter><linearGradient id="linearGradient4127" x1="100.538" x2="90.271" y1="123.206" y2="93.794" gradientTransform="translate(-80,-80)" gradientUnits="userSpaceOnUse" xlink:href="#linearGradient4121"/><linearGradient id="linearGradient4153" x1="128.228" x2="123.5" y1="123.569" y2="88.253" gradientTransform="translate(-80,-80)" gradientUnits="userSpaceOnUse" xlink:href="#linearGradient4147"/></defs><metadata id="metadata2865"/><g id="layer1"><path id="path3006" fill="#fce94f" stroke="none" d="M 5,53 29,43 59,49 39,59 z"/><path id="path3886" fill="url(#linearGradient4127)" fill-opacity="1" stroke="none" d="M 29,4 5,14 5,53 29,43 z"/><path id="path3888" fill="url(#linearGradient4153)" fill-opacity="1" stroke="none" d="m 29,4 0,39 30,6 0,-39 z"/><path id="path3886-4" fill="none" stroke="#edd400" stroke-width="2" d="M 28.02303,5.485571 6,14.653164 6,51.52025 28.02303,42.35266 z"/><path id="path3888-7" fill="none" stroke="#fce94f" stroke-width="2" d="m 30.0756,5.190938 -0.006,36.998812 27.91898,5.44506 0.0763,-36.787223 z"/><path id="path3006-3" fill="#fce94f" stroke="none" d="M 5,14 29,4 59,10 39,20 z"/><path id="path3917" fill="none" stroke="#302b00" stroke-dasharray="6 12" stroke-dashoffset="3.6" stroke-linecap="round" stroke-linejoin="miter" stroke-miterlimit="4" stroke-opacity="1" stroke-width="6" d="m 5,53 34,6"/><path id="path3917-2" fill="none" stroke="#302b00" stroke-dasharray="6 12" stroke-dashoffset="3.6" stroke-linecap="round" stroke-linejoin="miter" stroke-miterlimit="4" stroke-opacity="1" stroke-width="6" d="m 25,44 34,5"/><path id="path3917-1" fill="none" stroke="#302b00" stroke-dasharray="6 12" stroke-dashoffset="3.6" stroke-linecap="round" stroke-linejoin="miter" stroke-miterlimit="4" stroke-opacity="1" stroke-width="6" d="m 25,5 34,6"/><path id="path3917-27" fill="none" stroke="#302b00" stroke-dasharray="6 12" stroke-dashoffset="3.6" stroke-linecap="round" stroke-linejoin="miter" stroke-miterlimit="4" stroke-opacity="1" stroke-width="6" d="m 59,11 0,38"/><path id="path3917-0" fill="none" stroke="#302b00" stroke-dasharray="6 12" stroke-dashoffset="3.6" stroke-linecap="round" stroke-linejoin="miter" stroke-miterlimit="4" stroke-opacity="1" stroke-width="6" d="M 40,59 59,49"/><path id="path3917-9" fill="none" stroke="#302b00" stroke-dasharray="6 12" stroke-dashoffset="3.6" stroke-linecap="round" stroke-linejoin="miter" stroke-miterlimit="4" stroke-opacity="1" stroke-width="6" d="M 5,15 25,5"/><path id="path3917-3" fill="none" stroke="#302b00" stroke-dasharray="6 12" stroke-dashoffset="3.6" stroke-linecap="round" stroke-linejoin="miter" stroke-miterlimit="4" stroke-opacity="1" stroke-width="6" d="M 5,15 5,53"/><path id="path3917-60" fill="none" stroke="#302b00" stroke-dasharray="6 12" stroke-dashoffset="3.6" stroke-linecap="round" stroke-linejoin="miter" stroke-miterlimit="4" stroke-opacity="1" stroke-width="6" d="M 5,53 25,44"/><path id="path3917-2-7" fill="none" stroke="#fce94f" stroke-dasharray="6 12" stroke-dashoffset="3.6" stroke-linecap="round" stroke-linejoin="miter" stroke-miterlimit="4" stroke-opacity="1" stroke-width="2" d="m 25,44 34,5"/><path id="path3917-60-3" fill="none" stroke="#fce94f" stroke-dasharray="6 12" stroke-dashoffset="3.6" stroke-linecap="round" stroke-linejoin="miter" stroke-miterlimit="4" stroke-opacity="1" stroke-width="2" d="M 5,53 25,44"/><g id="g4035" transform="translate(-64,10)"><path id="path4042-12" fill="url(#linearGradient4041)" fill-opacity="1" stroke="#302b00" stroke-dasharray="none" stroke-dashoffset="0" stroke-miterlimit="4" stroke-width="3.129" d="m 48.597521,39.95837 c 0,11.57372 -9.382354,20.956074 -20.956074,20.956074 -11.57372,0 -20.9560737,-9.382354 -20.9560737,-20.956074 0,-11.57372 9.3823537,-20.956074 20.9560737,-20.956074 11.57372,0 20.956074,9.382354 20.956074,20.956074 z" transform="matrix(0.6389479,0,0,0.63940352,79.151188,-6.6213323)"/><path id="path12511-77" fill="#fff" fill-opacity="1" fill-rule="nonzero" stroke="none" stroke-width="1.25" d="m 69.375,125 c 0,7.93909 -6.435907,14.375 -14.375,14.375 -7.939093,0 -14.375,-6.43591 -14.375,-14.375 0,-7.93909 6.435907,-14.375 14.375,-14.375 7.939093,0 14.375,6.43591 14.375,14.375 z" color="#000" display="block" filter="url(#filter3980)" transform="matrix(0.1255542,0.12343818,-0.19272145,0.17977458,109.1847,-15.260922)" visibility="visible" style="marker:none"/><path id="path4042-0" fill="none" stroke="#fce94f" stroke-dasharray="none" stroke-dashoffset="0" stroke-miterlimit="4" stroke-width="3.493" d="m 48.597521,39.95837 c 0,11.57372 -9.382354,20.956074 -20.956074,20.956074 -11.57372,0 -20.9560737,-9.382354 -20.9560737,-20.956074 0,-11.57372 9.3823537,-20.956074 20.9560737,-20.956074 11.57372,0 20.956074,9.382354 20.956074,20.956074 z" transform="matrix(0.57262634,0,0,0.57262635,81.17178,-3.8812157)"/><path id="path4042-3" fill="none" stroke="#302b00" stroke-dasharray="none" stroke-dashoffset="0" stroke-miterlimit="4" stroke-width="2.994" d="m 48.597521,39.95837 c 0,11.57372 -9.382354,20.956074 -20.956074,20.956074 -11.57372,0 -20.9560737,-9.382354 -20.9560737,-20.956074 0,-11.57372 9.3823537,-20.956074 20.9560737,-20.956074 11.57372,0 20.956074,9.382354 20.956074,20.956074 z" transform="matrix(0.66806408,0,0,0.66806407,78.533742,-7.6947514)"/></g><path id="path3917-62" fill="none" stroke="#302b00" stroke-dasharray="6 12" stroke-dashoffset="3.6" stroke-linecap="round" stroke-linejoin="miter" stroke-miterlimit="4" stroke-opacity="1" stroke-width="6" d="m 40,21 0,38"/><path id="path3917-61" fill="none" stroke="#302b00" stroke-dasharray="6 12" stroke-dashoffset="3.6" stroke-linecap="round" stroke-linejoin="miter" stroke-miterlimit="4" stroke-opacity="1" stroke-width="6" d="M 40,21 61,10"/><path id="path3917-6" fill="none" stroke="#302b00" stroke-dasharray="6 12" stroke-dashoffset="3.6" stroke-linecap="round" stroke-linejoin="miter" stroke-miterlimit="4" stroke-opacity="1" stroke-width="6" d="m 5,15 35,6"/><path id="path3917-6-9" fill="none" stroke="#fce94f" stroke-dasharray="6 12" stroke-dashoffset="3.6" stroke-linecap="round" stroke-linejoin="miter" stroke-miterlimit="4" stroke-opacity="1" stroke-width="2" d="m 5,15 35,6"/><path id="path3917-61-9" fill="none" stroke="#fce94f" stroke-dasharray="6 12" stroke-dashoffset="3.6" stroke-linecap="round" stroke-linejoin="miter" stroke-miterlimit="4" stroke-opacity="1" stroke-width="2" d="M 40,21 61,10"/><path id="path3917-62-1" fill="none" stroke="#fce94f" stroke-dasharray="6 12" stroke-dashoffset="3.6" stroke-linecap="round" stroke-linejoin="miter" stroke-miterlimit="4" stroke-opacity="1" stroke-width="2" d="m 40,21 0,38"/><path id="path3917-3-9" fill="none" stroke="#fce94f" stroke-dasharray="6 12" stroke-dashoffset="3.6" stroke-linecap="round" stroke-linejoin="miter" stroke-miterlimit="4" stroke-opacity="1" stroke-width="2" d="M 5,15 5,53"/><path id="path3917-9-2" fill="none" stroke="#fce94f" stroke-dasharray="6 12" stroke-dashoffset="3.6" stroke-linecap="round" stroke-linejoin="miter" stroke-miterlimit="4" stroke-opacity="1" stroke-width="2" d="M 5,15 25,5"/><path id="path3917-0-1" fill="none" stroke="#fce94f" stroke-dasharray="6 12" stroke-dashoffset="3.6" stroke-linecap="round" stroke-linejoin="miter" stroke-miterlimit="4" stroke-opacity="1" stroke-width="2" d="M 40,59 59,49"/><path id="path3917-28" fill="none" stroke="#fce94f" stroke-dasharray="6 12" stroke-dashoffset="3.6" stroke-linecap="round" stroke-linejoin="miter" stroke-miterlimit="4" stroke-opacity="1" stroke-width="2" d="m 5,53 34,6"/><path id="path3917-27-6" fill="none" stroke="#fce94f" stroke-dasharray="6 12" stroke-dashoffset="3.6" stroke-linecap="round" stroke-linejoin="miter" stroke-miterlimit="4" stroke-opacity="1" stroke-width="2" d="m 59,11 0,38"/><path id="path3917-1-3" fill="none" stroke="#fce94f" stroke-dasharray="6 12" stroke-dashoffset="3.6" stroke-linecap="round" stroke-linejoin="miter" stroke-miterlimit="4" stroke-opacity="1" stroke-width="2" d="m 25,5 34,6"/></g></svg>