<svg xmlns="http://www.w3.org/2000/svg" xmlns:svg="http://www.w3.org/2000/svg" xmlns:xlink="http://www.w3.org/1999/xlink" id="svg2985" width="64" height="64" version="1.1"><defs id="defs2987"><linearGradient id="linearGradient3793"><stop id="stop3795" offset="0" stop-color="#000f8a" stop-opacity="1"/><stop id="stop3797" offset="1" stop-color="#06f" stop-opacity="1"/></linearGradient><linearGradient id="linearGradient3799" x1="12.038" x2="52.883" y1="54.001" y2="9.274" gradientTransform="translate(-2,-2)" gradientUnits="userSpaceOnUse" xlink:href="#linearGradient3793"/><linearGradient id="linearGradient3799-8" x1="12.038" x2="52.883" y1="54.001" y2="9.274" gradientUnits="userSpaceOnUse" xlink:href="#linearGradient3793-2"/><linearGradient id="linearGradient3793-2"><stop id="stop3795-6" offset="0" stop-color="#000f8a" stop-opacity="1"/><stop id="stop3797-0" offset="1" stop-color="#06f" stop-opacity="1"/></linearGradient><radialGradient id="radialGradient2097" cx="23.071" cy="35.127" r="10.319" fx="23.071" fy="35.127" gradientTransform="matrix(0.914812,0.01265023,-0.00821502,0.213562,2.253914,27.18889)" gradientUnits="userSpaceOnUse" xlink:href="#linearGradient2091"/><linearGradient id="linearGradient2091"><stop id="stop2093" offset="0" stop-color="#000" stop-opacity="1"/><stop id="stop2095" offset="1" stop-color="#000" stop-opacity="0"/></linearGradient><linearGradient id="linearGradient3053" x1="42.003" x2="42.985" y1="36.21" y2="40.942" gradientTransform="matrix(1.9455392,0,0,1.9455392,-47.998185,-58.673094)" gradientUnits="userSpaceOnUse" xlink:href="#linearGradient3057"/><linearGradient id="linearGradient3057"><stop id="stop3059" offset="0" stop-color="#729fcf"/><stop id="stop3061" offset="1" stop-color="#3465a4" stop-opacity="1"/></linearGradient><radialGradient id="radialGradient3071" cx="23.071" cy="35.127" r="10.319" fx="23.071" fy="35.127" gradientTransform="matrix(0.914812,0.01265023,-0.00821502,0.213562,2.253914,27.18889)" gradientUnits="userSpaceOnUse" xlink:href="#linearGradient2091"/></defs><metadata id="metadata2990"/><g id="layer1"><path id="path1361" fill="url(#radialGradient3071)" fill-opacity="1" stroke="none" d="m 33.278212,34.94062 a 10.31934,2.320194 0 1 1 -20.63868,0 10.31934,2.320194 0 1 1 20.63868,0 z" opacity=".108" transform="matrix(2.9071627,0,0,2.1549921,-34.745177,-30.296761)"/><g id="g3048" transform="matrix(1.0469189,0,0,1.0861452,-3.3021786,15.211538)"><path font-family="Bitstream Vera Sans" style="text-align:start;line-height:125%" id="text1314" fill="#3465a4" stroke="#0b1521" stroke-linecap="butt" stroke-linejoin="round" stroke-opacity="1" stroke-width="1.876" d="m 40.406357,21.901733 0,0 19.103676,0 0,-12.8896209 -19.103676,0 0,0 -13.372574,0 1e-6,0 -19.1036765,0 -1e-6,12.8896209 19.1036765,0 -1e-6,0 z" font-size="59.901" font-stretch="normal" font-style="normal" font-variant="normal" font-weight="bold" text-anchor="start" writing-mode="lr-tb"/><path font-family="Bitstream Vera Sans" style="text-align:start;line-height:125%" id="path7076" fill="url(#linearGradient3053)" fill-opacity="1" stroke="#729fcf" stroke-linecap="butt" stroke-linejoin="miter" stroke-opacity="1" stroke-width="1.876" d="m 38.495989,20.060359 0,0 19.103676,0 0,-9.206872 -19.103676,0 0,0 -9.551838,0 4e-6,0 -19.1036768,0 -4e-6,9.206872 19.1036768,0 1.3e-5,0 9.551838,0 z" font-size="59.901" font-stretch="normal" font-style="normal" font-variant="normal" font-weight="bold" text-anchor="start" writing-mode="lr-tb"/></g></g></svg>