<svg xmlns="http://www.w3.org/2000/svg" xmlns:svg="http://www.w3.org/2000/svg" xmlns:xlink="http://www.w3.org/1999/xlink" id="svg2985" width="64" height="64" version="1.1"><defs id="defs2987"><linearGradient id="linearGradient3764"><stop id="stop3766" offset="0" stop-color="#c4a000" stop-opacity="1"/><stop id="stop3768" offset="1" stop-color="#fce94f" stop-opacity="1"/></linearGradient><linearGradient id="linearGradient3778"><stop id="stop3780" offset="0" stop-color="#c4a000" stop-opacity="1"/><stop id="stop3782" offset="1" stop-color="#fce94f" stop-opacity="1"/></linearGradient><linearGradient id="linearGradient3784" x1="31.905" x2="20.735" y1="47.935" y2="7.905" gradientUnits="userSpaceOnUse" xlink:href="#linearGradient3778"/><linearGradient id="linearGradient3770" x1="34" x2="32" y1="60" y2="6" gradientUnits="userSpaceOnUse" xlink:href="#linearGradient3764"/><linearGradient id="linearGradient3770-3" x1="34" x2="32" y1="60" y2="6" gradientUnits="userSpaceOnUse" xlink:href="#linearGradient3764-6"/><linearGradient id="linearGradient3764-6"><stop id="stop3766-7" offset="0" stop-color="#c4a000" stop-opacity="1"/><stop id="stop3768-5" offset="1" stop-color="#fce94f" stop-opacity="1"/></linearGradient></defs><metadata id="metadata2990"/><g id="layer1"><path id="path2994" fill="url(#linearGradient3770)" fill-opacity="1" stroke="#302b00" stroke-linecap="butt" stroke-linejoin="round" stroke-opacity="1" stroke-width="2" d="m 31,61 4,0 0,-57 -4,0 z"/><path id="path2993" fill="url(#linearGradient3784)" fill-opacity="1" fill-rule="nonzero" stroke="#302b00" stroke-dasharray="none" stroke-dashoffset="0" stroke-linecap="butt" stroke-linejoin="round" stroke-miterlimit="4" stroke-opacity="1" stroke-width="1.862" d="m 51.454546,27.454546 a 23.272728,23.272728 0 1 1 -46.545456,0 23.272728,23.272728 0 1 1 46.545456,0 z" color="#000" display="inline" enable-background="accumulate" overflow="visible" transform="matrix(1.0742187,0,0,1.0742187,1.7265638,-1.4921872)" visibility="visible" style="marker:none"/><path id="path2993-3" fill="none" stroke="#fce94f" stroke-dasharray="none" stroke-dashoffset="0" stroke-linecap="butt" stroke-linejoin="round" stroke-miterlimit="4" stroke-opacity="1" stroke-width="2.024" d="m 51.454546,27.454546 a 23.272728,23.272728 0 1 1 -46.545456,0 23.272728,23.272728 0 1 1 46.545456,0 z" color="#000" display="inline" enable-background="accumulate" overflow="visible" transform="matrix(0.98828121,0,0,0.98828121,4.1484387,0.86718805)" visibility="visible" style="marker:none"/><path id="path2997" fill="#302b00" fill-opacity="1" fill-rule="nonzero" stroke="#302b00" stroke-dasharray="none" stroke-dashoffset="0" stroke-linecap="butt" stroke-linejoin="round" stroke-miterlimit="4" stroke-opacity="1" stroke-width="1.827" d="m 11.783744,34.785983 0,-35.39014963 30.648768,17.69507463 z" color="#000" display="inline" enable-background="accumulate" overflow="visible" transform="matrix(0.84832121,0,0,1.4128225,21.0036,3.8535803)" visibility="visible" style="marker:none"/><g font-stretch="normal" style="line-height:125%;-inkscape-font-specification:Arial" id="text3767" fill="#302b00" fill-opacity="1" stroke="none" font-family="Arial" font-size="27.778" font-style="normal" font-variant="normal" font-weight="normal" letter-spacing="0" word-spacing="0"><path id="path2990" fill="#302b00" stroke="none" d="m 27.128129,36 -2.371134,-6.432931 -9.455081,0 L 12.916053,36 10,36 18.468336,14 21.664212,14 30,36 27.128129,36 M 21.251841,19.980128 c -0.157105,-0.416355 -0.309289,-0.83793 -0.456554,-1.264727 -0.137468,-0.426763 -0.260197,-0.811905 -0.368188,-1.155429 -0.108007,-0.353896 -0.201287,-0.645356 -0.279824,-0.874379 -0.06873,-0.239394 -0.108018,-0.385123 -0.11782,-0.43719 -0.01964,0.05207 -0.06382,0.197796 -0.132548,0.43719 -0.06875,0.239433 -0.162013,0.536096 -0.279823,0.889992 -0.108008,0.353934 -0.23565,0.744281 -0.382916,1.171043 -0.137467,0.426797 -0.279832,0.848373 -0.427098,1.264728 l -2.650958,7.229241 7.761414,0 -2.665685,-7.260469"/></g></g></svg>