<svg xmlns="http://www.w3.org/2000/svg" xmlns:svg="http://www.w3.org/2000/svg" xmlns:xlink="http://www.w3.org/1999/xlink" id="svg2980" width="64" height="64" version="1.1"><defs id="defs2982"><linearGradient id="linearGradient3805"><stop id="stop3807" offset="0" stop-color="#4e9a06" stop-opacity="1"/><stop id="stop3809" offset="1" stop-color="#8ae234" stop-opacity="1"/></linearGradient><linearGradient id="linearGradient3777"><stop id="stop3779" offset="0" stop-color="#204a87" stop-opacity="1"/><stop id="stop3781" offset="1" stop-color="#3465a4" stop-opacity="1"/></linearGradient><linearGradient id="linearGradient3767"><stop id="stop3769" offset="0" stop-color="#3465a4" stop-opacity="1"/><stop id="stop3771" offset="1" stop-color="#729fcf" stop-opacity="1"/></linearGradient><linearGradient id="linearGradient3864"><stop id="stop3866" offset="0" stop-color="#71b2f8" stop-opacity="1"/><stop id="stop3868" offset="1" stop-color="#002795" stop-opacity="1"/></linearGradient><radialGradient id="radialGradient3850" cx="51.329" cy="31.074" r="19.571" fx="51.329" fy="31.074" gradientTransform="matrix(0.6028459,1.0471639,-1.9794021,1.1395295,127.9588,-74.456907)" gradientUnits="userSpaceOnUse" xlink:href="#linearGradient3864"/><radialGradient id="radialGradient3076" cx="51.329" cy="31.074" r="19.571" fx="51.329" fy="31.074" gradientTransform="matrix(0.58019421,1.0078171,-1.9050269,1.0967121,59.286512,-197.81747)" gradientUnits="userSpaceOnUse" xlink:href="#linearGradient3864"/><linearGradient id="linearGradient3773" x1="22.117" x2="17.329" y1="55.718" y2="21.311" gradientUnits="userSpaceOnUse" xlink:href="#linearGradient3767"/><linearGradient id="linearGradient3783" x1="53.897" x2="47.502" y1="51.18" y2="21.837" gradientUnits="userSpaceOnUse" xlink:href="#linearGradient3777"/><linearGradient id="linearGradient3811" x1="49.059" x2="34.941" y1="60.824" y2="23.176" gradientUnits="userSpaceOnUse" xlink:href="#linearGradient3805"/></defs><metadata id="metadata2985"/><g id="layer1"><path id="path2993" fill="#729fcf" stroke="#0b1521" stroke-linecap="butt" stroke-linejoin="round" stroke-opacity="1" stroke-width="2" d="M 3,17 37,23 61,15 31,11 z"/><path id="path2995" fill="url(#linearGradient3783)" fill-opacity="1" stroke="#0b1521" stroke-linecap="butt" stroke-linejoin="round" stroke-opacity="1" stroke-width="2" d="M 61,15 61,51 37,61 37,23 z"/><path id="path3825" fill="url(#linearGradient3773)" fill-opacity="1" fill-rule="evenodd" stroke="#0b1521" stroke-dasharray="none" stroke-dashoffset="0" stroke-linecap="butt" stroke-linejoin="round" stroke-miterlimit="4" stroke-opacity="1" stroke-width="2" d="M 3,17 37,23 37,61 3,55 z" display="inline" enable-background="accumulate" overflow="visible" visibility="visible" style="marker:none"/><path id="path3765" fill="none" stroke="#729fcf" stroke-linecap="butt" stroke-linejoin="miter" stroke-opacity="1" stroke-width="2" d="m 5,19.42772 0.00867,33.919116 30.0086711,5.268799 -0.0087,-33.933614 z"/><path id="path3775" fill="none" stroke="#3465a4" stroke-linecap="butt" stroke-linejoin="miter" stroke-opacity="1" stroke-width="2" d="m 39.01243,24.433833 -0.01226,33.535301 20.001105,-8.300993 3.6e-4,-31.867363 z"/><path id="path3785" fill="#73d216" fill-opacity="1" stroke="#172a04" stroke-dasharray="none" stroke-dashoffset=".6" stroke-linecap="square" stroke-linejoin="round" stroke-miterlimit="4" stroke-opacity="1" stroke-width="2.105" d="m 62,42 a 20,20 0 1 1 -40,0 20,20 0 1 1 40,0 z" transform="matrix(0.95,0,0,0.95,2.1000001,2.1000001)"/><path id="path3785-3" fill="url(#linearGradient3811)" fill-opacity="1" stroke="#8ae234" stroke-dasharray="none" stroke-dashoffset=".6" stroke-linecap="square" stroke-linejoin="round" stroke-miterlimit="4" stroke-opacity="1" stroke-width="2.353" d="m 62,42 a 20,20 0 1 1 -40,0 20,20 0 1 1 40,0 z" transform="matrix(0.85,0,0,0.85,6.3000001,6.3000001)"/><path id="path3813" fill="#fff" stroke="#172a04" stroke-linecap="butt" stroke-linejoin="round" stroke-opacity="1" stroke-width="2" d="m 31,45 4,-4 4,4 12,-12 4,4 -16,16 z"/></g></svg>