<svg xmlns="http://www.w3.org/2000/svg" xmlns:svg="http://www.w3.org/2000/svg" xmlns:xlink="http://www.w3.org/1999/xlink" id="svg2821" width="64" height="64" version="1.1"><defs id="defs2823"><linearGradient id="linearGradient3776"><stop id="stop3778" offset="0" stop-color="#edd400" stop-opacity="1"/><stop id="stop3780" offset="1" stop-color="#fce94f" stop-opacity="1"/></linearGradient><linearGradient id="linearGradient3000"><stop id="stop3002" offset="0" stop-color="#c4a000" stop-opacity="1"/><stop id="stop3004" offset="1" stop-color="#fce94f" stop-opacity="1"/></linearGradient><linearGradient id="linearGradient4220"><stop id="stop4222" offset="0" stop-color="#c4a000" stop-opacity="1"/><stop id="stop4224" offset="1" stop-color="#edd400" stop-opacity="1"/></linearGradient><linearGradient id="linearGradient3377"><stop id="stop3379" offset="0" stop-color="#faff2b" stop-opacity="1"/><stop id="stop3381" offset="1" stop-color="#fa0" stop-opacity="1"/></linearGradient><radialGradient id="radialGradient3699" cx="87.913" cy="103.564" r="19.467" fx="87.913" fy="103.564" gradientTransform="matrix(0.66695084,0.01171093,-0.07977187,4.543106,-31.231178,-423.39163)" gradientUnits="userSpaceOnUse" xlink:href="#linearGradient3000"/><radialGradient id="radialGradient3699-3" cx="76.383" cy="94.37" r="19.467" fx="76.383" fy="94.37" gradientTransform="matrix(0.9818943,0.1894295,-0.4109427,2.1300924,-28.674047,-202.34148)" gradientUnits="userSpaceOnUse" xlink:href="#linearGradient3377"/><radialGradient id="radialGradient4169-6" cx="85.583" cy="87.15" r="19.467" fx="85.583" fy="87.15" gradientTransform="matrix(1.0143165,-0.08041065,0.04751512,0.59936541,-71.548049,-32.500118)" gradientUnits="userSpaceOnUse" xlink:href="#linearGradient3377"/><radialGradient id="radialGradient4218" cx="87.809" cy="104.802" r="19.467" fx="87.809" fy="104.802" gradientTransform="matrix(0.32212606,0.02709022,-0.20558233,2.444551,19.34142,-239.42527)" gradientUnits="userSpaceOnUse" xlink:href="#linearGradient4220"/><linearGradient id="linearGradient3774" x1="11.584" x2="37.46" y1="22.456" y2="3.843" gradientUnits="userSpaceOnUse" xlink:href="#linearGradient3776"/><radialGradient id="radialGradient3699-36" cx="87.913" cy="103.564" r="19.467" fx="87.913" fy="103.564" gradientTransform="matrix(0.66695084,0.01171093,-0.07977187,4.543106,-31.231178,-423.39163)" gradientUnits="userSpaceOnUse" xlink:href="#linearGradient3000-7"/><linearGradient id="linearGradient3000-7"><stop id="stop3002-5" offset="0" stop-color="#c4a000" stop-opacity="1"/><stop id="stop3004-3" offset="1" stop-color="#fce94f" stop-opacity="1"/></linearGradient><radialGradient id="radialGradient4218-6" cx="86.816" cy="104.864" r="19.467" fx="86.816" fy="104.864" gradientTransform="matrix(0.70517063,0.05757771,-0.19963957,2.4450435,-14.536184,-242.12372)" gradientUnits="userSpaceOnUse" xlink:href="#linearGradient4220-2"/><linearGradient id="linearGradient4220-2"><stop id="stop4222-9" offset="0" stop-color="#c4a000" stop-opacity="1"/><stop id="stop4224-1" offset="1" stop-color="#edd400" stop-opacity="1"/></linearGradient><radialGradient id="radialGradient4218-7" cx="86.816" cy="104.864" r="19.467" fx="86.816" fy="104.864" gradientTransform="matrix(0.70517063,0.05757771,-0.19963957,2.4450435,-14.536184,-242.12372)" gradientUnits="userSpaceOnUse" xlink:href="#linearGradient4220-0"/><linearGradient id="linearGradient4220-0"><stop id="stop4222-93" offset="0" stop-color="#c4a000" stop-opacity="1"/><stop id="stop4224-6" offset="1" stop-color="#edd400" stop-opacity="1"/></linearGradient><linearGradient id="linearGradient3774-6" x1="11.584" x2="37.46" y1="22.456" y2="3.843" gradientUnits="userSpaceOnUse" xlink:href="#linearGradient3776-2"/><linearGradient id="linearGradient3776-2"><stop id="stop3778-6" offset="0" stop-color="#edd400" stop-opacity="1"/><stop id="stop3780-1" offset="1" stop-color="#fce94f" stop-opacity="1"/></linearGradient></defs><metadata id="metadata2826"/><g id="layer1"><g id="g4226" transform="matrix(0.34582702,-0.91061373,0.91061373,0.34582702,-6.4545082,44.78234)"><path id="path3727" fill="url(#radialGradient3699)" fill-opacity="1" fill-rule="evenodd" stroke="#302b00" stroke-dasharray="none" stroke-dashoffset="0" stroke-linecap="butt" stroke-linejoin="round" stroke-miterlimit="4" stroke-opacity="1" stroke-width="2.053" marker-end="none" marker-mid="none" marker-start="none" d="m 5.286552,14.326369 c -0.232244,9.907966 0.02748,26.488757 -0.133929,36.272317 0,7.199781 9.212054,11.253999 21.040628,11.253999 11.82857,0 21.803122,-6.625506 21.803122,-11.253999 L 47.951773,14.50494 5.286592,14.326369 Z" display="inline" enable-background="accumulate" opacity="1" overflow="visible" visibility="visible" style="marker:none"/><path id="path3727-5" fill="none" stroke="#fce94f" stroke-dasharray="none" stroke-dashoffset="0" stroke-linecap="butt" stroke-linejoin="round" stroke-miterlimit="4" stroke-opacity="1" stroke-width="2.053" d="m 7.1412819,16.758106 c -0.1918929,9.056495 0.076804,24.213633 -0.050888,33.156545 0.014087,6.581376 8.0963911,9.779118 18.8568471,9.802255 10.760453,0.02315 20.127178,-5.487513 20.118125,-9.718454 L 45.954204,17.004791 7.1413277,16.758106 z" display="inline" enable-background="accumulate" overflow="visible" visibility="visible" style="marker:none"/><ellipse id="path3725" cx="26.572" cy="14.289" fill="url(#linearGradient3774)" fill-opacity="1" fill-rule="evenodd" stroke="#302b00" stroke-dasharray="none" stroke-dashoffset="0" stroke-linecap="butt" stroke-linejoin="round" stroke-miterlimit="4" stroke-opacity="1" stroke-width="2.053" marker-end="none" marker-mid="none" marker-start="none" d="m 47.879932,14.288702 c 0,6.414786 -9.539766,11.614998 -21.307664,11.614998 -11.767899,0 -21.3076653,-5.200212 -21.3076653,-11.614998 0,-6.4147862 9.5397663,-11.6149979 21.3076653,-11.6149979 11.767898,0 21.307664,5.2002117 21.307664,11.6149979 z" clip-rule="nonzero" color="#000" color-interpolation="sRGB" color-interpolation-filters="linearRGB" color-rendering="auto" display="inline" enable-background="accumulate" image-rendering="auto" opacity="1" overflow="visible" rx="21.308" ry="11.615" shape-rendering="auto" text-rendering="auto" visibility="visible" style="isolation:auto;mix-blend-mode:normal;solid-color:#000;solid-opacity:1;marker:none"/><ellipse id="path3725-4" cx="26.572" cy="14.289" fill="url(#radialGradient4218)" fill-opacity="1" fill-rule="evenodd" stroke="#302b00" stroke-dasharray="none" stroke-dashoffset="0" stroke-linecap="butt" stroke-linejoin="round" stroke-miterlimit="4" stroke-opacity="1" stroke-width="2.053" marker-end="none" marker-mid="none" marker-start="none" d="m 39.831576,14.288702 c 0,3.991786 -5.936394,7.227767 -13.259308,7.227767 -7.322915,0 -13.259309,-3.235981 -13.259309,-7.227767 0,-3.991786 5.936394,-7.2277675 13.259309,-7.2277675 7.322914,0 13.259308,3.2359815 13.259308,7.2277675 z" clip-rule="nonzero" color="#000" color-interpolation="sRGB" color-interpolation-filters="linearRGB" color-rendering="auto" display="inline" enable-background="accumulate" image-rendering="auto" opacity="1" overflow="visible" rx="13.259" ry="7.228" shape-rendering="auto" text-rendering="auto" visibility="visible" style="isolation:auto;mix-blend-mode:normal;solid-color:#000;solid-opacity:1;marker:none"/><ellipse stroke-opacity="1" style="marker:none" id="path3725-4-2" cx="26.572" cy="14.289" fill="none" fill-opacity="1" fill-rule="evenodd" stroke="#fce94f" stroke-dasharray="none" stroke-dashoffset="0" stroke-linecap="butt" stroke-linejoin="round" stroke-miterlimit="4" stroke-width="2.327" d="m 39.831576,14.288702 c 0,3.991786 -5.936394,7.227767 -13.259308,7.227767 -7.322915,0 -13.259309,-3.235981 -13.259309,-7.227767 0,-3.991786 5.936394,-7.2277675 13.259309,-7.2277675 7.322914,0 13.259308,3.2359815 13.259308,7.2277675 z" color="#000" display="inline" enable-background="accumulate" overflow="visible" rx="13.259" ry="7.228" transform="matrix(0.88950423,-0.00642941,-0.00642941,0.87501637,2.9817826,2.9199948)" visibility="visible"/><ellipse id="path3725-4-0" cx="26.572" cy="14.289" fill="none" stroke="#302b00" stroke-dasharray="none" stroke-dashoffset="0" stroke-linecap="butt" stroke-linejoin="round" stroke-miterlimit="4" stroke-opacity="1" stroke-width="2.053" d="m 39.831576,14.288702 c 0,3.991786 -5.936394,7.227767 -13.259308,7.227767 -7.322915,0 -13.259309,-3.235981 -13.259309,-7.227767 0,-3.991786 5.936394,-7.2277675 13.259309,-7.2277675 7.322914,0 13.259308,3.2359815 13.259308,7.2277675 z" color="#000" display="inline" enable-background="accumulate" overflow="visible" rx="13.259" ry="7.228" transform="translate(0.00573995,-0.00361967)" visibility="visible" style="marker:none"/><ellipse id="path3725-8" cx="26.572" cy="14.289" fill="none" stroke="#fce94f" stroke-dasharray="none" stroke-dashoffset="0" stroke-linecap="butt" stroke-linejoin="round" stroke-miterlimit="4" stroke-opacity="1" stroke-width="2.419" d="m 47.879932,14.288702 c 0,6.414786 -9.539766,11.614998 -21.307664,11.614998 -11.767899,0 -21.3076653,-5.200212 -21.3076653,-11.614998 0,-6.4147862 9.5397663,-11.6149979 21.3076653,-11.6149979 11.767898,0 21.307664,5.2002117 21.307664,11.6149979 z" color="#000" display="inline" enable-background="accumulate" overflow="visible" rx="21.308" ry="11.615" transform="matrix(0.89763539,0.02655413,-0.09250694,0.79955155,3.97451,2.1079343)" visibility="visible" style="marker:none"/></g></g></svg>