<svg xmlns="http://www.w3.org/2000/svg" xmlns:svg="http://www.w3.org/2000/svg" xmlns:xlink="http://www.w3.org/1999/xlink" id="svg2985" width="64" height="64" version="1.1"><defs id="defs2987"><linearGradient id="linearGradient3878"><stop id="stop3880" offset="0" stop-color="#3465a4" stop-opacity="1"/><stop id="stop3882" offset="1" stop-color="#729fcf" stop-opacity="1"/></linearGradient><linearGradient id="linearGradient3870"><stop id="stop3872" offset="0" stop-color="#3465a4" stop-opacity="1"/><stop id="stop3874" offset="1" stop-color="#729fcf" stop-opacity="1"/></linearGradient><linearGradient id="linearGradient3862"><stop id="stop3864" offset="0" stop-color="#204a87" stop-opacity="1"/><stop id="stop3866" offset="1" stop-color="#729fcf" stop-opacity="1"/></linearGradient><linearGradient id="linearGradient3852"><stop id="stop3854" offset="0" stop-color="#729fcf" stop-opacity="1"/><stop id="stop3856" offset="1" stop-color="#204a87" stop-opacity="1"/></linearGradient><linearGradient id="linearGradient3844"><stop id="stop3846" offset="0" stop-color="#204a87" stop-opacity="1"/><stop id="stop3848" offset="1" stop-color="#729fcf" stop-opacity="1"/></linearGradient><linearGradient id="linearGradient3956"><stop id="stop3958" offset="0" stop-color="#fff" stop-opacity="0"/><stop id="stop3964" offset=".5" stop-color="#fff" stop-opacity="1"/><stop id="stop3960" offset="1" stop-color="#fff" stop-opacity="0"/></linearGradient><linearGradient id="linearGradient3776"><stop id="stop3778" offset="0" stop-color="#00208c" stop-opacity="1"/><stop id="stop3780" offset="1" stop-color="#008cff" stop-opacity="1"/></linearGradient><linearGradient id="linearGradient3776-4"><stop id="stop3778-4" offset="0" stop-color="#00208c" stop-opacity="1"/><stop id="stop3780-7" offset="1" stop-color="#008cff" stop-opacity="1"/></linearGradient><linearGradient id="linearGradient3799" x1="16.532" x2="30.809" y1="45.841" y2="14.932" gradientTransform="translate(-6.9406308,-9.2840961)" gradientUnits="userSpaceOnUse" xlink:href="#linearGradient3776-4"/><linearGradient id="linearGradient3776-0"><stop id="stop3778-6" offset="0" stop-color="#00208c" stop-opacity="1"/><stop id="stop3780-2" offset="1" stop-color="#008cff" stop-opacity="1"/></linearGradient><linearGradient id="linearGradient3834" x1="16.532" x2="30.809" y1="45.841" y2="14.932" gradientTransform="matrix(1.0888436,0,0,1.0888436,-7.601554,-11.903857)" gradientUnits="userSpaceOnUse" xlink:href="#linearGradient3776-0"/><linearGradient id="linearGradient3782-0-8" x1="20.782" x2="23.488" y1="21.636" y2="15.404" gradientTransform="matrix(1.0888436,0,0,1.0888436,-2.0972179,-6.9712888)" gradientUnits="userSpaceOnUse" xlink:href="#linearGradient3776-0-3"/><linearGradient id="linearGradient3776-0-3"><stop id="stop3778-6-3" offset="0" stop-color="#00208c" stop-opacity="1"/><stop id="stop3780-2-1" offset="1" stop-color="#008cff" stop-opacity="1"/></linearGradient><linearGradient id="linearGradient3782-0-7" x1="20.782" x2="23.488" y1="21.636" y2="15.404" gradientTransform="matrix(1.0888436,0,0,1.0888436,-2.0972179,-6.9712888)" gradientUnits="userSpaceOnUse" xlink:href="#linearGradient3776-0-7"/><linearGradient id="linearGradient3776-0-7"><stop id="stop3778-6-33" offset="0" stop-color="#00208c" stop-opacity="1"/><stop id="stop3780-2-2" offset="1" stop-color="#008cff" stop-opacity="1"/></linearGradient><linearGradient id="linearGradient3782-3-0" x1="6.895" x2="45.536" y1="42.568" y2="48.568" gradientTransform="matrix(1.0888436,0,0,1.0888436,-0.46085426,-6.7894706)" gradientUnits="userSpaceOnUse" xlink:href="#linearGradient3776-4-1"/><linearGradient id="linearGradient3776-4-1"><stop id="stop3778-4-2" offset="0" stop-color="#00208c" stop-opacity="1"/><stop id="stop3780-7-4" offset="1" stop-color="#008cff" stop-opacity="1"/></linearGradient><linearGradient id="linearGradient3782-3-3" x1="6.895" x2="45.536" y1="42.568" y2="48.568" gradientTransform="matrix(1.1590541,0,0,1.1748303,-3.7509614,-8.3719678)" gradientUnits="userSpaceOnUse" xlink:href="#linearGradient3776-4-6"/><linearGradient id="linearGradient3776-4-6"><stop id="stop3778-4-7" offset="0" stop-color="#00208c" stop-opacity="1"/><stop id="stop3780-7-5" offset="1" stop-color="#008cff" stop-opacity="1"/></linearGradient><linearGradient id="linearGradient3850" x1="21.914" x2="46.402" y1="63.635" y2="53.432" gradientUnits="userSpaceOnUse" spreadMethod="reflect" xlink:href="#linearGradient3844"/><radialGradient id="radialGradient3858" cx="13.661" cy="19.538" r="26.09" fx="13.661" fy="19.538" gradientTransform="matrix(0.99725655,1.1602311,-0.86385051,0.74250775,15.793591,-13.837429)" gradientUnits="userSpaceOnUse" xlink:href="#linearGradient3852"/><linearGradient id="linearGradient3868" x1="24" x2="23" y1="18" y2="10" gradientUnits="userSpaceOnUse" xlink:href="#linearGradient3862"/><linearGradient id="linearGradient3876" x1="27" x2="26" y1="10" y2="4" gradientUnits="userSpaceOnUse" xlink:href="#linearGradient3870"/><linearGradient id="linearGradient3884" x1="40" x2="34" y1="14" y2="4" gradientUnits="userSpaceOnUse" xlink:href="#linearGradient3878"/></defs><metadata id="metadata2990"/><g id="layer1"><path id="path3006" fill="url(#linearGradient3850)" fill-opacity="1" fill-rule="nonzero" stroke="#0b1521" stroke-dasharray="none" stroke-dashoffset="0" stroke-linecap="butt" stroke-linejoin="round" stroke-miterlimit="4" stroke-opacity="1" stroke-width="2" d="m 8.893265,28.79539 c 0,0 -3.1610564,0.74762 -4.8469528,3.524491 -1.6858975,2.776871 -1.7551093,6.15032 2.9864752,10.636035 5.0863306,4.811858 11.5200456,10.785776 21.8823216,15.15081 14.447742,6.086009 25.343973,1.244985 29.377933,-2.444425 4.947701,-4.525109 3.284504,-13.19616 -6.409404,-18.749902 C 42.189732,31.358656 9.9469519,29.008995 9.9469519,29.008995 z" color="#000" display="inline" enable-background="accumulate" overflow="visible" visibility="visible" style="marker:none"/><path id="path3006-3" fill="none" stroke="#729fcf" stroke-dasharray="none" stroke-dashoffset="0" stroke-linecap="butt" stroke-linejoin="round" stroke-miterlimit="4" stroke-opacity="1" stroke-width="2" d="m 10.486833,29.000001 c 0,0 -2.839002,1.216695 -4.4086296,3.803473 -1.5696287,2.586776 -1.9115364,4.654098 2.5030423,8.832739 4.7355493,4.482456 11.6897303,10.730214 21.3373663,14.796434 13.451346,5.669384 23.186881,1.205323 26.942636,-2.231525 4.606481,-4.215337 1.18507,-12.050015 -7.840293,-17.223568 -9.025361,-5.173555 -37.553103,-7.778571 -37.553103,-7.778571 z" color="#000" display="inline" enable-background="accumulate" overflow="visible" visibility="visible" style="marker:none"/><path id="path3004" fill="url(#radialGradient3858)" fill-opacity="1" stroke="#0b1521" stroke-dasharray="none" stroke-linecap="butt" stroke-linejoin="round" stroke-miterlimit="4" stroke-opacity="1" stroke-width="2" d="m 5.5214718,34.135527 c 0,0 -0.5762065,-12.14805 4.2147424,-19.224496 C 14.179091,8.3487016 24.066339,5.0851784 32.074349,5.7259954 40.08236,6.3668113 48.605188,14.361961 51.883638,21.532803 c 4.004004,8.757825 3.793268,17.51565 3.793268,17.51565 0,0 -0.709499,8.480783 -11.035617,10.616838 C 33.172755,52.037664 27.227395,49.301518 18.165699,45.029407 9.1040015,40.757298 5.5214718,34.135527 5.5214718,34.135527 z"/><path id="path3004-5" fill="none" stroke="#729fcf" stroke-dasharray="none" stroke-linecap="butt" stroke-linejoin="round" stroke-miterlimit="4" stroke-opacity="1" stroke-width="2" d="m 7.5547475,33.638319 c 0,0 -0.6795468,-10.98434 3.7471375,-17.382906 4.105077,-5.933697 13.24058,-8.8845949 20.639726,-8.3051643 7.399148,0.5794297 15.02629,7.9439783 18.082429,14.4152363 3.380745,7.158602 3.725583,15.715131 3.725583,15.715131 0,0 -0.140528,7.717426 -9.681533,9.64886 C 33.471529,49.87459 27.732955,47.228875 19.360236,43.366006 10.987516,39.503139 7.5547475,33.638319 7.5547475,33.638319 z"/><path id="path3817-5" fill="url(#linearGradient3884)" fill-opacity="1" fill-rule="nonzero" stroke="#0b1521" stroke-dasharray="none" stroke-dashoffset="0" stroke-linecap="butt" stroke-linejoin="round" stroke-miterlimit="4" stroke-opacity="1" stroke-width="2" d="m 49.782587,26.04531 c 0,0 -4.789923,-11.097418 -11.495817,-14.287925 C 31.580877,8.566878 22.274741,9.537902 22.274741,9.537902 c 0,0 3.596504,-8.423382 14.780335,-5.132555 11.420749,3.360539 12.727511,21.639963 12.727511,21.639963 z" color="#000" display="inline" enable-background="accumulate" overflow="visible" visibility="visible" style="marker:none"/><path id="path3817-0" fill="url(#linearGradient3876)" fill-opacity="1" fill-rule="nonzero" stroke="#0b1521" stroke-dasharray="none" stroke-dashoffset="0" stroke-linecap="butt" stroke-linejoin="round" stroke-miterlimit="4" stroke-opacity="1" stroke-width="2" d="m 44.005214,28.599774 c 0,0 -6.725345,-14.530507 -13.431239,-17.721014 -6.705892,-3.190508 -16.495884,-0.699027 -16.495884,-0.699027 0,0 5.048071,-9.747662 16.231901,-6.456836 11.420749,3.360539 13.695222,24.876877 13.695222,24.876877 z" color="#000" display="inline" enable-background="accumulate" overflow="visible" visibility="visible" style="marker:none"/><path id="path3817" fill="url(#linearGradient3868)" fill-opacity="1" fill-rule="nonzero" stroke="#0b1521" stroke-dasharray="none" stroke-dashoffset="0" stroke-linecap="butt" stroke-linejoin="round" stroke-miterlimit="4" stroke-opacity="1" stroke-width="2" d="m 37.895717,31.166337 c 0,0 -4.789924,-11.097418 -11.495817,-14.287925 -6.705892,-3.190507 -16.012029,-2.219484 -16.012029,-2.219484 0,0 3.596505,-8.4233807 14.780334,-5.1325544 11.420749,3.3605384 12.727512,21.6399634 12.727512,21.6399634 z" color="#000" display="inline" enable-background="accumulate" overflow="visible" visibility="visible" style="marker:none"/></g></svg>