<svg xmlns="http://www.w3.org/2000/svg" xmlns:svg="http://www.w3.org/2000/svg" xmlns:xlink="http://www.w3.org/1999/xlink" id="svg2816" width="64" height="64" version="1.1"><defs id="defs2818"><linearGradient id="linearGradient3633"><stop id="stop3635" offset="0" stop-color="#fff652" stop-opacity="1"/><stop id="stop3637" offset="1" stop-color="#ffbf00" stop-opacity="1"/></linearGradient><pattern id="pattern5231" patternTransform="matrix(0.67643728,-0.81829155,2.4578314,1.8844554,-26.450606,18.294947)" xlink:href="#Strips1_1-4"/><pattern id="Strips1_1-4" width="2" height="1" patternTransform="matrix(0.66772843,-1.0037085,2.4261878,2.3114548,3.4760987,3.534923)" patternUnits="userSpaceOnUse"><rect id="rect4483-4" width="1" height="2" x="0" y="-.5" fill="#000" stroke="none"/></pattern><pattern id="pattern5231-4" patternTransform="matrix(0.66772843,-1.0037085,2.4261878,2.3114548,39.618381,8.9692804)" xlink:href="#Strips1_1-6"/><pattern id="Strips1_1-6" width="2" height="1" patternTransform="matrix(0.66772843,-1.0037085,2.4261878,2.3114548,3.4760987,3.534923)" patternUnits="userSpaceOnUse"><rect id="rect4483-0" width="1" height="2" x="0" y="-.5" fill="#000" stroke="none"/></pattern><pattern id="pattern5296" patternTransform="matrix(0.66513382,-1.0631299,2.4167603,2.4482973,-49.762569,2.9546807)" xlink:href="#pattern5231-3"/><pattern id="pattern5231-3" patternTransform="matrix(0.66772843,-1.0037085,2.4261878,2.3114548,-26.336284,10.887197)" xlink:href="#Strips1_1-4-3"/><pattern id="Strips1_1-4-3" width="2" height="1" patternTransform="matrix(0.66772843,-1.0037085,2.4261878,2.3114548,3.4760987,3.534923)" patternUnits="userSpaceOnUse"><rect id="rect4483-4-6" width="1" height="2" x="0" y="-.5" fill="#000" stroke="none"/></pattern><pattern id="pattern5330" patternTransform="matrix(0.42844886,-0.62155849,1.5567667,1.431396,27.948414,13.306456)" xlink:href="#Strips1_1-9"/><pattern id="Strips1_1-9" width="2" height="1" patternTransform="matrix(0.66772843,-1.0037085,2.4261878,2.3114548,3.4760987,3.534923)" patternUnits="userSpaceOnUse"><rect id="rect4483-3" width="1" height="2" x="0" y="-.5" fill="#000" stroke="none"/></pattern><linearGradient id="linearGradient3872" x1="35" x2="24" y1="53" y2="9" gradientUnits="userSpaceOnUse" xlink:href="#linearGradient3866"/><linearGradient id="linearGradient3866"><stop id="stop3868" offset="0" stop-color="#d3d7cf" stop-opacity="1"/><stop id="stop3870" offset="1" stop-color="#fff" stop-opacity="1"/></linearGradient><linearGradient id="linearGradient3880" x1="56" x2="53" y1="47" y2="39" gradientUnits="userSpaceOnUse" xlink:href="#linearGradient3874"/><linearGradient id="linearGradient3874"><stop id="stop3876" offset="0" stop-color="#555753" stop-opacity="1"/><stop id="stop3878" offset="1" stop-color="#babdb6" stop-opacity="1"/></linearGradient><linearGradient id="linearGradient3120" x1="35" x2="24" y1="53" y2="9" gradientUnits="userSpaceOnUse" xlink:href="#linearGradient3866"/></defs><metadata id="metadata2821"/><g id="layer1"><path id="rect3005" fill="url(#linearGradient3120)" fill-opacity="1" fill-rule="evenodd" stroke="#3f3f3f" stroke-dasharray="none" stroke-dashoffset="0" stroke-linecap="butt" stroke-linejoin="round" stroke-miterlimit="4" stroke-opacity="1" stroke-width="2" d="M 3,9 3,53 51,53 61,43 61,9 z" color="#000" display="inline" enable-background="accumulate" overflow="visible" visibility="visible" style="marker:none"/><path id="path3096" fill="none" stroke="#fff" stroke-linecap="butt" stroke-linejoin="miter" stroke-opacity="1" stroke-width="2" d="m 5,51 0,-40 54,0 0,32 -6,8 z"/><path id="path3778" fill="url(#linearGradient3880)" fill-opacity="1" fill-rule="evenodd" stroke="#3f3f3f" stroke-dasharray="none" stroke-dashoffset="0" stroke-linecap="butt" stroke-linejoin="round" stroke-miterlimit="4" stroke-opacity="1" stroke-width="1.951" d="m 61,43 c 0,-1 -4,-4 -8,-4 0,0 2,10 -2,14 z" color="#000" display="inline" enable-background="accumulate" overflow="visible" visibility="visible" style="marker:none"/><path id="path3125" fill="none" stroke="#babdb6" stroke-linecap="butt" stroke-linejoin="miter" stroke-opacity="1" stroke-width="2" d="m 53.08551,48.1244 6.65843,-6.453618"/><path id="path3778-3" fill="none" stroke="#3f3f3f" stroke-dasharray="none" stroke-dashoffset="0" stroke-linecap="butt" stroke-linejoin="round" stroke-miterlimit="4" stroke-opacity="1" stroke-width="1.951" d="m 61,43 c 0,-1 -4,-4 -8,-4 0,0 2,10 -2,14 z" color="#000" display="inline" enable-background="accumulate" overflow="visible" visibility="visible" style="marker:none"/><g id="g3067" fill="#2e3436" transform="matrix(1.1,0,0,1.1538462,-0.8,-4.4615385)"><path d="m 8,16 0,4 0,22 2,0 2,0 12.363636,-2e-6 0,-3.466666 -12.727272,0 0,-8.666666 10.909091,0 0,-3.466667 -10.909091,0 0,-6.933333 5.454545,0 0,-3.466667 z m 18.181818,-10e-7 0,3.466667 10.909091,0 0,10.4 1.818182,0 0,-10.4 5.454545,0 0,19.066666 -5.454545,0 0,-1.733333 -1.818182,0 0,1.733333 -3.636364,0 0,3.466666 L 35,42 l 3,0 6,0 2,0 2,0 0,-26 z" style="marker:none" id="rect5347" fill="#2e3436" fill-opacity="1" fill-rule="nonzero" stroke="none" stroke-width=".928" color="#000" display="inline" enable-background="accumulate" overflow="visible" visibility="visible"/><path id="path5429" fill="none" stroke="#2e3436" stroke-linejoin="round" stroke-opacity="1" stroke-width="1.775" d="m 34.363636,39.399998 0,-7 c -0.04286,-7.19e-4 -0.03409,1.272727 0,0 -4.07634,0 -9.090909,0.933334 -9.090909,7.866667" color="#000" display="inline" enable-background="accumulate" overflow="visible" visibility="visible" style="marker:none"/></g></g></svg>