<svg xmlns="http://www.w3.org/2000/svg" xmlns:svg="http://www.w3.org/2000/svg" id="svg2" width="200" height="120" version="1.1"><metadata id="metadata7"/><g id="layer1" transform="translate(0,-932.36218)"><rect id="rect2985" width="79.137" height="79.289" x="111.376" y="941.9" fill="#fff" fill-opacity="1" fill-rule="evenodd" stroke="#000" stroke-dasharray="none" stroke-dashoffset="0" stroke-linecap="butt" stroke-linejoin="round" stroke-miterlimit="4" stroke-opacity="1" stroke-width="2" color="#000" display="inline" enable-background="accumulate" overflow="visible" visibility="visible" style="marker:none"/><rect id="rect3755" width="70.114" height="69.766" x="115.961" y="946.48" fill="#fff" fill-opacity="1" fill-rule="evenodd" stroke="#000" stroke-dasharray="none" stroke-dashoffset="0" stroke-linecap="butt" stroke-linejoin="round" stroke-miterlimit="4" stroke-opacity="1" stroke-width="2" color="#000" display="inline" enable-background="accumulate" overflow="visible" visibility="visible" style="marker:none"/><rect id="rect3757" width="60.993" height="61.111" x="120.021" y="950.362" fill="#6996bd" fill-opacity="1" fill-rule="evenodd" stroke="#000" stroke-dasharray="none" stroke-dashoffset="0" stroke-linecap="butt" stroke-linejoin="round" stroke-miterlimit="4" stroke-opacity="1" stroke-width="2.236" color="#000" display="inline" enable-background="accumulate" overflow="visible" visibility="visible" style="marker:none"/><rect id="rect4365-5" width="37.171" height="6.818" x="14.41" y="-941.074" fill="#909090" fill-opacity="1" stroke="none" stroke-width="1" color="#000" display="inline" enable-background="accumulate" overflow="visible" transform="scale(1,-1)" visibility="visible" style="marker:none"/><path id="path4095-1" fill="none" stroke="#000" stroke-dasharray="none" stroke-dashoffset="0" stroke-linecap="butt" stroke-linejoin="miter" stroke-miterlimit="4" stroke-opacity="1" stroke-width="3" d="m 14.490515,941.28831 37.60019,0 0,-7.04665" color="#000" display="inline" enable-background="accumulate" overflow="visible" visibility="visible" style="marker:none"/><rect id="rect3863" width="18.435" height="78.929" x="20.056" y="941.988" fill="#fff" fill-opacity="1" fill-rule="evenodd" stroke="#000" stroke-dasharray="none" stroke-dashoffset="0" stroke-linecap="butt" stroke-linejoin="round" stroke-miterlimit="4" stroke-opacity="1" stroke-width="1" color="#000" display="inline" enable-background="accumulate" overflow="visible" visibility="visible" style="marker:none"/><rect id="rect3777" width="18.393" height="4.821" x="20.148" y="941.988" fill="#fff" fill-opacity="1" fill-rule="evenodd" stroke="#000" stroke-dasharray="none" stroke-dashoffset="0" stroke-linecap="butt" stroke-linejoin="round" stroke-miterlimit="4" stroke-opacity="1" stroke-width="1.918" color="#000" display="inline" enable-background="accumulate" overflow="visible" visibility="visible" style="marker:none"/><rect id="rect4365" width="36.365" height="13.132" x="14.819" y="1021.616" fill="#909090" fill-opacity="1" stroke="none" stroke-width="1" color="#000" display="inline" enable-background="accumulate" overflow="visible" visibility="visible" style="marker:none"/><rect id="rect3777-8" width="18.393" height="4.821" x="20.148" y="1016.095" fill="#fff" fill-opacity="1" fill-rule="evenodd" stroke="#000" stroke-dasharray="none" stroke-dashoffset="0" stroke-linecap="butt" stroke-linejoin="round" stroke-miterlimit="4" stroke-opacity="1" stroke-width="1.918" color="#000" display="inline" enable-background="accumulate" overflow="visible" visibility="visible" style="marker:none"/><rect id="rect3777-3-1" width="5.927" height="5.569" x="23.97" y="946.971" fill="#fff" fill-opacity="1" fill-rule="evenodd" stroke="#000" stroke-dasharray="none" stroke-dashoffset="0" stroke-linecap="butt" stroke-linejoin="round" stroke-miterlimit="4" stroke-opacity="1" stroke-width="1.918" color="#000" display="inline" enable-background="accumulate" overflow="visible" visibility="visible" style="marker:none"/><rect id="rect3777-3-1-8" width="5.927" height="5.569" x="23.97" y="1010.106" fill="#fff" fill-opacity="1" fill-rule="evenodd" stroke="#000" stroke-dasharray="none" stroke-dashoffset="0" stroke-linecap="butt" stroke-linejoin="round" stroke-miterlimit="4" stroke-opacity="1" stroke-width="1.918" color="#000" display="inline" enable-background="accumulate" overflow="visible" visibility="visible" style="marker:none"/><path id="path3861" fill="none" stroke="#000" stroke-dasharray="none" stroke-linecap="butt" stroke-linejoin="miter" stroke-miterlimit="4" stroke-opacity="1" stroke-width="2" d="m 26.622468,952.62992 0,57.45248"/><path id="path3865" fill="red" stroke="red" stroke-linecap="butt" stroke-linejoin="miter" stroke-opacity="1" stroke-width=".99" d="m 93.07632,938.51389 0,86.62721"/><path id="path3867" fill="none" stroke="red" stroke-linecap="butt" stroke-linejoin="miter" stroke-opacity="1" stroke-width="1" d="m 101.29061,942.27388 -12.14286,0"/><path id="path3867-8" fill="none" stroke="red" stroke-linecap="butt" stroke-linejoin="miter" stroke-opacity="1" stroke-width="1" d="m 101.29061,1021.0239 -12.14286,0"/><path id="path3865-3" fill="none" stroke="red" stroke-dasharray="none" stroke-dashoffset="0" stroke-linecap="butt" stroke-linejoin="miter" stroke-miterlimit="4" stroke-opacity="1" stroke-width="1" d="m 51.076324,938.09374 0,19.40844" color="#000" display="inline" enable-background="accumulate" overflow="visible" visibility="visible" style="marker:none"/><path id="path3867-7" fill="none" stroke="red" stroke-linecap="butt" stroke-linejoin="miter" stroke-opacity="1" stroke-width="1" d="m 55.29061,942.27388 -12.142857,0"/><path id="path3867-8-6" fill="none" stroke="red" stroke-linecap="butt" stroke-linejoin="miter" stroke-opacity="1" stroke-width="1" d="m 55.29061,952.20722 -12.142857,0"/><path id="path3867-3-7" fill="none" stroke="red" stroke-linecap="butt" stroke-linejoin="miter" stroke-opacity="1" stroke-width="1" d="m 55.29061,942.27388 -12.142857,0"/><path id="path3867-8-2-8" fill="none" stroke="red" stroke-linecap="butt" stroke-linejoin="miter" stroke-opacity="1" stroke-width="1" d="m 55.29061,946.77132 -12.142857,0"/><path id="path3865-5" fill="none" stroke="red" stroke-dasharray="none" stroke-dashoffset="0" stroke-linecap="butt" stroke-linejoin="miter" stroke-miterlimit="4" stroke-opacity="1" stroke-width="1" d="m 105.68728,1046.2411 89.2943,0" color="#000" display="inline" enable-background="accumulate" overflow="visible" visibility="visible" style="marker:none"/><path id="path3867-0" fill="none" stroke="red" stroke-linecap="butt" stroke-linejoin="miter" stroke-opacity="1" stroke-width="1" d="m 111.39191,1038.0268 0,12.1429"/><path id="path3867-8-7" fill="none" stroke="red" stroke-linecap="butt" stroke-linejoin="miter" stroke-opacity="1" stroke-width="1" d="m 190.14182,1038.0268 0,12.1429"/><path id="path3867-8-6-3" fill="none" stroke="red" stroke-linecap="butt" stroke-linejoin="miter" stroke-opacity="1" stroke-width="1" d="m 20.374022,1049.9503 0,-12.1429"/><path id="path3867-8-2-8-9" fill="none" stroke="red" stroke-linecap="butt" stroke-linejoin="miter" stroke-opacity="1" stroke-width="1" d="m 37.809923,1049.9503 0,-12.1429"/><path id="path3865-3-4-1" fill="none" stroke="red" stroke-dasharray="none" stroke-dashoffset="0" stroke-linecap="butt" stroke-linejoin="miter" stroke-miterlimit="4" stroke-opacity="1" stroke-width="1" d="m 17.365776,998.80956 27.135383,0" color="#000" display="inline" enable-background="accumulate" overflow="visible" visibility="visible" style="marker:none"/><path id="path3867-8-6-3-1" fill="none" stroke="red" stroke-linecap="butt" stroke-linejoin="miter" stroke-opacity="1" stroke-width="1" d="m 29.940932,994.59526 0,12.14294"/><path id="path3867-8-2-8-9-7" fill="none" stroke="red" stroke-linecap="butt" stroke-linejoin="miter" stroke-opacity="1" stroke-width="1" d="m 23.969317,994.59526 0,12.14294"/><text id="text4070" x="133.081" y="1044.529" fill="red" fill-opacity="1" stroke="none" font-family="Sans" font-size="40" font-style="normal" font-weight="normal" letter-spacing="0" word-spacing="0" xml:space="preserve" style="line-height:125%"><tspan style="-inkscape-font-specification:Sans Bold" id="tspan4072" x="133.081" y="1044.529" font-size="10" font-weight="bold">WIDTH</tspan></text><text id="text4070-5" x="-1003.166" y="90.645" fill="red" fill-opacity="1" stroke="none" font-family="Sans" font-size="40" font-style="normal" font-weight="normal" letter-spacing="0" transform="matrix(0,-1,1,0,0,0)" word-spacing="0" xml:space="preserve" style="line-height:125%"><tspan style="-inkscape-font-specification:Sans Bold" id="tspan4072-7" x="-1003.166" y="90.645" font-size="10" font-weight="bold">HEIGHT</tspan></text><path id="path4095" fill="none" stroke="#000" stroke-dasharray="none" stroke-linecap="butt" stroke-linejoin="miter" stroke-miterlimit="4" stroke-opacity="1" stroke-width="3" d="m 14.897753,1021.2025 36.785714,0 0,13.5714"/><path id="path3865-3-4" fill="none" stroke="red" stroke-dasharray="none" stroke-dashoffset="0" stroke-linecap="butt" stroke-linejoin="miter" stroke-miterlimit="4" stroke-opacity="1" stroke-width="1" d="m 60.397105,1045.736 -44.79365,0" color="#000" display="inline" enable-background="accumulate" overflow="visible" visibility="visible" style="marker:none"/><path id="path3867-8-2-8-9-9" fill="none" stroke="red" stroke-linecap="butt" stroke-linejoin="miter" stroke-opacity="1" stroke-width="1" d="m 51.809923,1049.9503 0,-12.1429"/><path id="path3867-8-6-3-1-5" fill="none" stroke="red" stroke-linecap="butt" stroke-linejoin="miter" stroke-opacity="1" stroke-width="1" d="m 38.54071,994.59526 0,12.14294"/><path id="path4150" fill="none" stroke="red" stroke-dasharray="none" stroke-dashoffset="0" stroke-linecap="butt" stroke-linejoin="miter" stroke-miterlimit="4" stroke-opacity="1" stroke-width="1" d="m 40.342969,54.416866 c 0,0.941443 -0.76319,1.704633 -1.704633,1.704633 -0.941442,0 -1.704632,-0.76319 -1.704632,-1.704633 0,-0.941442 0.76319,-1.704632 1.704632,-1.704632 0.941443,0 1.704633,0.76319 1.704633,1.704632 z" color="#000" display="inline" enable-background="accumulate" overflow="visible" transform="translate(-0.0812208,944.42975)" visibility="visible" style="marker:none"/><path id="path4150-8" fill="none" stroke="red" stroke-dasharray="none" stroke-dashoffset="0" stroke-linecap="butt" stroke-linejoin="miter" stroke-miterlimit="4" stroke-opacity="1" stroke-width="1" d="m 40.342969,54.416866 c 0,0.941443 -0.76319,1.704633 -1.704633,1.704633 -0.941442,0 -1.704632,-0.76319 -1.704632,-1.704633 0,-0.941442 0.76319,-1.704632 1.704632,-1.704632 0.941443,0 1.704633,0.76319 1.704633,1.704632 z" color="#000" display="inline" enable-background="accumulate" overflow="visible" transform="translate(-8.667518,944.24035)" visibility="visible" style="marker:none"/><path id="path4150-0" fill="none" stroke="red" stroke-dasharray="none" stroke-dashoffset="0" stroke-linecap="butt" stroke-linejoin="miter" stroke-miterlimit="4" stroke-opacity="1" stroke-width="1" d="m 40.342969,54.416866 c 0,0.941443 -0.76319,1.704633 -1.704633,1.704633 -0.941442,0 -1.704632,-0.76319 -1.704632,-1.704633 0,-0.941442 0.76319,-1.704632 1.704632,-1.704632 0.941443,0 1.704633,0.76319 1.704633,1.704632 z" color="#000" display="inline" enable-background="accumulate" overflow="visible" transform="translate(-14.63344,944.46416)" visibility="visible" style="marker:none"/><path id="path4150-6" fill="none" stroke="red" stroke-dasharray="none" stroke-dashoffset="0" stroke-linecap="butt" stroke-linejoin="miter" stroke-miterlimit="4" stroke-opacity="1" stroke-width="1" d="m 40.342969,54.416866 c 0,0.941443 -0.76319,1.704633 -1.704633,1.704633 -0.941442,0 -1.704632,-0.76319 -1.704632,-1.704633 0,-0.941442 0.76319,-1.704632 1.704632,-1.704632 0.941443,0 1.704633,0.76319 1.704633,1.704632 z" color="#000" display="inline" enable-background="accumulate" overflow="visible" transform="translate(-18.204869,991.23201)" visibility="visible" style="marker:none"/><path id="path4150-80" fill="none" stroke="red" stroke-dasharray="none" stroke-dashoffset="0" stroke-linecap="butt" stroke-linejoin="miter" stroke-miterlimit="4" stroke-opacity="1" stroke-width="1" d="m 40.342969,54.416866 c 0,0.941443 -0.76319,1.704633 -1.704633,1.704633 -0.941442,0 -1.704632,-0.76319 -1.704632,-1.704633 0,-0.941442 0.76319,-1.704632 1.704632,-1.704632 0.941443,0 1.704633,0.76319 1.704633,1.704632 z" color="#000" display="inline" enable-background="accumulate" overflow="visible" transform="translate(-0.7941548,991.14273)" visibility="visible" style="marker:none"/><path id="path4150-9" fill="none" stroke="red" stroke-dasharray="none" stroke-dashoffset="0" stroke-linecap="butt" stroke-linejoin="miter" stroke-miterlimit="4" stroke-opacity="1" stroke-width="1" d="m 40.342969,54.416866 c 0,0.941443 -0.76319,1.704633 -1.704633,1.704633 -0.941442,0 -1.704632,-0.76319 -1.704632,-1.704633 0,-0.941442 0.76319,-1.704632 1.704632,-1.704632 0.941443,0 1.704633,0.76319 1.704633,1.704632 z" color="#000" display="inline" enable-background="accumulate" overflow="visible" transform="translate(13.045131,991.41059)" visibility="visible" style="marker:none"/><path id="path4150-03" fill="none" stroke="red" stroke-dasharray="none" stroke-dashoffset="0" stroke-linecap="butt" stroke-linejoin="miter" stroke-miterlimit="4" stroke-opacity="1" stroke-width="1" d="m 40.342969,54.416866 c 0,0.941443 -0.76319,1.704633 -1.704633,1.704633 -0.941442,0 -1.704632,-0.76319 -1.704632,-1.704633 0,-0.941442 0.76319,-1.704632 1.704632,-1.704632 0.941443,0 1.704633,0.76319 1.704633,1.704632 z" color="#000" display="inline" enable-background="accumulate" overflow="visible" transform="translate(12.509417,897.76773)" visibility="visible" style="marker:none"/><path id="path4150-68" fill="none" stroke="red" stroke-dasharray="none" stroke-dashoffset="0" stroke-linecap="butt" stroke-linejoin="miter" stroke-miterlimit="4" stroke-opacity="1" stroke-width="1" d="m 40.342969,54.416866 c 0,0.941443 -0.76319,1.704633 -1.704633,1.704633 -0.941442,0 -1.704632,-0.76319 -1.704632,-1.704633 0,-0.941442 0.76319,-1.704632 1.704632,-1.704632 0.941443,0 1.704633,0.76319 1.704633,1.704632 z" color="#000" display="inline" enable-background="accumulate" overflow="visible" transform="translate(12.509417,892.3213)" visibility="visible" style="marker:none"/><path id="path4150-3" fill="none" stroke="red" stroke-dasharray="none" stroke-dashoffset="0" stroke-linecap="butt" stroke-linejoin="miter" stroke-miterlimit="4" stroke-opacity="1" stroke-width="1" d="m 40.342969,54.416866 c 0,0.941443 -0.76319,1.704633 -1.704633,1.704633 -0.941442,0 -1.704632,-0.76319 -1.704632,-1.704633 0,-0.941442 0.76319,-1.704632 1.704632,-1.704632 0.941443,0 1.704633,0.76319 1.704633,1.704632 z" color="#000" display="inline" enable-background="accumulate" overflow="visible" transform="translate(12.420131,887.76773)" visibility="visible" style="marker:none"/><path id="path4150-5" fill="none" stroke="red" stroke-dasharray="none" stroke-dashoffset="0" stroke-linecap="butt" stroke-linejoin="miter" stroke-miterlimit="4" stroke-opacity="1" stroke-width="1" d="m 40.342969,54.416866 a 1.7046324,1.7046324 0 1 1 -3.409265,0 1.7046324,1.7046324 0 1 1 3.409265,0 z" color="#000" display="inline" enable-background="accumulate" overflow="visible" transform="translate(54.61656,887.85702)" visibility="visible" style="marker:none"/><path id="path4150-7" fill="none" stroke="red" stroke-dasharray="none" stroke-dashoffset="0" stroke-linecap="butt" stroke-linejoin="miter" stroke-miterlimit="4" stroke-opacity="1" stroke-width="1" d="m 40.342969,54.416866 a 1.7046324,1.7046324 0 1 1 -3.409265,0 1.7046324,1.7046324 0 1 1 3.409265,0 z" color="#000" display="inline" enable-background="accumulate" overflow="visible" transform="translate(54.43799,966.42845)" visibility="visible" style="marker:none"/><path id="path4150-87" fill="none" stroke="red" stroke-dasharray="none" stroke-dashoffset="0" stroke-linecap="butt" stroke-linejoin="miter" stroke-miterlimit="4" stroke-opacity="1" stroke-width="1" d="m 40.342969,54.416866 a 1.7046324,1.7046324 0 1 1 -3.409265,0 1.7046324,1.7046324 0 1 1 3.409265,0 z" color="#000" display="inline" enable-background="accumulate" overflow="visible" transform="translate(72.759417,991.76773)" visibility="visible" style="marker:none"/><path id="path4150-63" fill="none" stroke="red" stroke-dasharray="none" stroke-dashoffset="0" stroke-linecap="butt" stroke-linejoin="miter" stroke-miterlimit="4" stroke-opacity="1" stroke-width="1" d="m 40.342969,54.416866 a 1.7046324,1.7046324 0 1 1 -3.409265,0 1.7046324,1.7046324 0 1 1 3.409265,0 z" color="#000" display="inline" enable-background="accumulate" overflow="visible" transform="translate(151.59871,991.76773)" visibility="visible" style="marker:none"/><text id="text4070-8" x="55.457" y="945.131" fill="red" fill-opacity="1" stroke="none" font-family="Sans" font-size="40" font-style="normal" font-weight="normal" letter-spacing="0" word-spacing="0" xml:space="preserve" style="line-height:125%"><tspan style="-inkscape-font-specification:Sans Bold" id="tspan4072-1" x="55.457" y="945.131" font-size="10" font-weight="bold">H1</tspan></text><text id="text4070-8-2" x="55.457" y="957.988" fill="red" fill-opacity="1" stroke="none" font-family="Sans" font-size="40" font-style="normal" font-weight="normal" letter-spacing="0" word-spacing="0" xml:space="preserve" style="line-height:125%"><tspan style="-inkscape-font-specification:Sans Bold" id="tspan4072-1-4" x="55.457" y="957.988" font-size="10" font-weight="bold">H2</tspan></text><text id="text4070-8-3" x="1.243" y="997.504" fill="red" fill-opacity="1" stroke="none" font-family="Sans" font-size="40" font-style="normal" font-weight="normal" letter-spacing="0" word-spacing="0" xml:space="preserve" style="line-height:125%"><tspan style="-inkscape-font-specification:Sans Bold" id="tspan4072-1-3" x="1.243" y="997.504" font-size="10" font-weight="bold">W2</tspan></text><text id="text4070-8-3-3" x="40.546" y="997.504" fill="red" fill-opacity="1" stroke="none" font-family="Sans" font-size="40" font-style="normal" font-weight="normal" letter-spacing="0" word-spacing="0" xml:space="preserve" style="line-height:125%"><tspan style="-inkscape-font-specification:Sans Bold" id="tspan4072-1-3-0" x="40.546" y="997.504" font-size="10" font-weight="bold">O2</tspan></text><text id="text4070-8-3-2" x="1.377" y="1043.843" fill="red" fill-opacity="1" stroke="none" font-family="Sans" font-size="40" font-style="normal" font-weight="normal" letter-spacing="0" word-spacing="0" xml:space="preserve" style="line-height:125%"><tspan style="-inkscape-font-specification:Sans Bold" id="tspan4072-1-3-7" x="1.377" y="1043.843" font-size="10" font-weight="bold">W1</tspan></text><text id="text4070-8-3-3-9" x="53.885" y="1043.843" fill="red" fill-opacity="1" stroke="none" font-family="Sans" font-size="40" font-style="normal" font-weight="normal" letter-spacing="0" word-spacing="0" xml:space="preserve" style="line-height:125%"><tspan style="-inkscape-font-specification:Sans Bold" id="tspan4072-1-3-0-0" x="53.885" y="1043.843" font-size="10" font-weight="bold">O1</tspan></text></g></svg>