<svg xmlns="http://www.w3.org/2000/svg" xmlns:svg="http://www.w3.org/2000/svg" xmlns:xlink="http://www.w3.org/1999/xlink" id="svg3612" width="64" height="64" version="1.1"><defs id="defs3614"><linearGradient id="linearGradient3144-6"><stop id="stop3146-9" offset="0" stop-color="#fff" stop-opacity="1"/><stop id="stop3148-2" offset="1" stop-color="#fff" stop-opacity="0"/></linearGradient><linearGradient id="linearGradient3701"><stop id="stop3703" offset="0" stop-color="#fff" stop-opacity="1"/><stop id="stop3705" offset="1" stop-color="#fff" stop-opacity="0"/></linearGradient><radialGradient id="radialGradient3688" cx="225.264" cy="672.797" r="34.345" fx="225.264" fy="672.797" gradientTransform="matrix(1,0,0,0.6985294,0,202.82863)" gradientUnits="userSpaceOnUse" xlink:href="#linearGradient3144-6"/><linearGradient id="linearGradient3708"><stop id="stop3710" offset="0" stop-color="#fff" stop-opacity="1"/><stop id="stop3712" offset="1" stop-color="#fff" stop-opacity="0"/></linearGradient><linearGradient id="linearGradient3934" x1="696.673" x2="654.8" y1="77.046" y2="115.02" gradientTransform="matrix(0.2210246,-0.5789261,-0.71699693,-0.35346705,519.98085,464.19243)" gradientUnits="userSpaceOnUse" xlink:href="#linearGradient3864-0-0"/><linearGradient id="linearGradient3864-0-0"><stop id="stop3866-5-7" offset="0" stop-color="#0619c0" stop-opacity="1"/><stop id="stop3868-7-6" offset="1" stop-color="#379cfb" stop-opacity="1"/></linearGradient><linearGradient id="linearGradient3942" x1="597.773" x2="619.303" y1="44.024" y2="30.274" gradientUnits="userSpaceOnUse" xlink:href="#linearGradient3377"/><linearGradient id="linearGradient3377"><stop id="stop3379" offset="0" stop-color="#fa0" stop-opacity="1"/><stop id="stop3381" offset="1" stop-color="#faff2b" stop-opacity="1"/></linearGradient><linearGradient id="linearGradient3657" x1="696.673" x2="650.705" y1="77.046" y2="139.41" gradientTransform="matrix(0.2210246,-0.5789261,-0.71699693,-0.35346705,536.41251,472.3612)" gradientUnits="userSpaceOnUse" xlink:href="#linearGradient3864-0"/><linearGradient id="linearGradient3864-0"><stop id="stop3866-5" offset="0" stop-color="#0619c0" stop-opacity="1"/><stop id="stop3868-7" offset="1" stop-color="#379cfb" stop-opacity="1"/></linearGradient><linearGradient id="linearGradient5048"><stop id="stop5050" offset="0" stop-color="#000" stop-opacity="0"/><stop id="stop5056" offset=".5" stop-color="#000" stop-opacity="1"/><stop id="stop5052" offset="1" stop-color="#000" stop-opacity="0"/></linearGradient><linearGradient id="linearGradient5060"><stop id="stop5062" offset="0" stop-color="#000" stop-opacity="1"/><stop id="stop5064" offset="1" stop-color="#000" stop-opacity="0"/></linearGradient><linearGradient id="linearGradient3841-0-3"><stop id="stop3843-1-3" offset="0" stop-color="#0619c0" stop-opacity="1"/><stop id="stop3845-0-8" offset="1" stop-color="#379cfb" stop-opacity="1"/></linearGradient><radialGradient id="aigrd2" cx="20.892" cy="114.568" r="5.256" fx="20.892" fy="114.568" gradientUnits="userSpaceOnUse"><stop id="stop15566" offset="0" stop-color="#F0F0F0"/><stop id="stop15568" offset="1" stop-color="#9a9a9a" stop-opacity="1"/></radialGradient><radialGradient id="aigrd3" cx="20.892" cy="64.568" r="5.257" fx="20.892" fy="64.568" gradientUnits="userSpaceOnUse"><stop id="stop15573" offset="0" stop-color="#F0F0F0"/><stop id="stop15575" offset="1" stop-color="#9a9a9a" stop-opacity="1"/></radialGradient><radialGradient id="radialGradient15668" cx="8.144" cy="7.268" r="38.159" fx="8.144" fy="7.268" gradientTransform="matrix(0.935697,0,0,0.99080935,21.282967,-62.773289)" gradientUnits="userSpaceOnUse" xlink:href="#linearGradient15662"/><linearGradient id="linearGradient15662"><stop id="stop15664" offset="0" stop-color="#fff" stop-opacity="1"/><stop id="stop15666" offset="1" stop-color="#f8f8f8" stop-opacity="1"/></linearGradient><radialGradient id="radialGradient4452" cx="33.967" cy="35.737" r="86.708" fx="33.967" fy="35.737" gradientTransform="matrix(0.96049297,0,0,1.041132,-52.144249,-702.33158)" gradientUnits="userSpaceOnUse" xlink:href="#linearGradient259"/><linearGradient id="linearGradient259"><stop id="stop260" offset="0" stop-color="#fafafa" stop-opacity="1"/><stop id="stop261" offset="1" stop-color="#bbb" stop-opacity="1"/></linearGradient><radialGradient id="radialGradient4454" cx="8.824" cy="3.756" r="37.752" fx="8.824" fy="3.756" gradientTransform="matrix(0.96827297,0,0,1.032767,-48.790699,-701.68513)" gradientUnits="userSpaceOnUse" xlink:href="#linearGradient269"/><linearGradient id="linearGradient269"><stop id="stop270" offset="0" stop-color="#a3a3a3" stop-opacity="1"/><stop id="stop271" offset="1" stop-color="#4c4c4c" stop-opacity="1"/></linearGradient><radialGradient id="radialGradient3972" cx="3.775" cy="43.718" r="86.708" fx="3.775" fy="43.718" gradientTransform="matrix(0.98388648,0,0,1.0539832,16.693143,-64.706866)" gradientUnits="userSpaceOnUse" xlink:href="#linearGradient259"/><radialGradient id="radialGradient3974" cx=".281" cy="43.446" r="37.752" fx=".281" fy="43.446" gradientTransform="matrix(0.99185595,0,0,1.0455151,20.12837,-64.052436)" gradientUnits="userSpaceOnUse" xlink:href="#linearGradient269"/><linearGradient id="linearGradient3909" x1="43" x2="48" y1="22" y2="44" gradientUnits="userSpaceOnUse" xlink:href="#linearGradient3895"/><linearGradient id="linearGradient3895"><stop id="stop3897" offset="0" stop-color="#729fcf" stop-opacity="1"/><stop id="stop3899" offset="1" stop-color="#204a87" stop-opacity="1"/></linearGradient><linearGradient id="linearGradient3023" x1="43" x2="48" y1="22" y2="44" gradientTransform="translate(-27,-6)" gradientUnits="userSpaceOnUse" xlink:href="#linearGradient3895"/><linearGradient id="linearGradient3092" x1="302.857" x2="302.857" y1="366.648" y2="609.505" gradientTransform="matrix(0.06080526,0,0,0.02998042,18.212751,47.128743)" gradientUnits="userSpaceOnUse" xlink:href="#linearGradient5048"/><radialGradient id="radialGradient3094" cx="605.714" cy="486.648" r="117.143" fx="605.714" fy="486.648" gradientTransform="matrix(0.05873337,-0.01573756,0,0.02998042,17.603726,42.411839)" gradientUnits="userSpaceOnUse" xlink:href="#linearGradient5060"/><radialGradient id="radialGradient3096" cx="605.714" cy="486.648" r="117.143" fx="605.714" fy="486.648" gradientTransform="matrix(-0.05873337,0.01573756,0,0.02998042,60.036454,31.042024)" gradientUnits="userSpaceOnUse" xlink:href="#linearGradient5060"/><linearGradient id="linearGradient5087" x1="416.495" x2="408.874" y1="187.257" y2="140.564" gradientTransform="matrix(0.52433702,-0.14049568,0,0.52433702,-175.60172,3.3075306)" gradientUnits="userSpaceOnUse" xlink:href="#linearGradient3814"/><linearGradient id="linearGradient3814"><stop id="stop3816" offset="0" stop-color="#4e9a06" stop-opacity="1"/><stop id="stop3818" offset="1" stop-color="#8ae234" stop-opacity="1"/></linearGradient></defs><g id="layer1"><rect id="rect15391" width="35.724" height="41.426" x="23.458" y="-61.015" fill="url(#radialGradient3972)" fill-opacity="1" fill-rule="nonzero" stroke="url(#radialGradient3974)" stroke-dasharray="none" stroke-dashoffset="0" stroke-linecap="round" stroke-linejoin="round" stroke-miterlimit="4" stroke-opacity="1" stroke-width="2.035" color="#000" display="block" overflow="visible" rx="1.177" ry="1.163" transform="matrix(3.5740235e-4,0.99999994,-0.96583103,0.25917256,0,0)" visibility="visible" style="marker:none"/><rect id="rect15660" width="31.673" height="37.364" x="25.45" y="-58.995" fill="none" stroke="url(#radialGradient15668)" stroke-dashoffset="0" stroke-linecap="round" stroke-linejoin="miter" stroke-miterlimit="4" stroke-opacity="1" stroke-width="2.035" color="#000" display="block" overflow="visible" rx=".144" ry=".143" transform="matrix(3.5903001e-4,0.99999994,-0.96583146,0.25917096,0,0)" visibility="visible" style="marker:none"/><path id="path15672" fill="none" stroke="#000" stroke-linecap="butt" stroke-linejoin="miter" stroke-miterlimit="4" stroke-opacity=".018" stroke-width="2" d="M 57.134004,13.150404 20.070725,23.09602" display="inline"/><path id="path3464" fill="url(#linearGradient5087)" fill-opacity="1" stroke="#154b00" stroke-dasharray="none" stroke-linecap="round" stroke-linejoin="round" stroke-miterlimit="4" stroke-opacity="1" stroke-width="2" d="M 41.112866,44.740044 C 40,45.038236 40,43.368937 40,41.699638 c 0,-2.782165 0,-6.870056 0,-10.015795 -1.6693,-0.109146 -3.895032,1.043671 -5.564331,-0.734774 -1.669299,-1.778445 -1.621073,-7.950296 -0.556433,-10.979565 1.06464,-3.029269 2.782165,-2.414778 3.338598,-0.894575 0.556433,1.520203 1.112866,2.483973 2.225732,-0.596383 1.112867,-3.080357 3.338599,-3.67674 4.451465,-1.192767 1.112866,2.483974 1.669299,1.222012 2.225732,-0.596383 0.556433,-1.818394 2.225732,-3.378548 3.338598,-0.894574 1.112866,2.483973 1.112866,8.604737 -0.556433,11.277756 -1.669299,2.67302 -3.895031,2.71297 -5.56433,3.71669 0,2.225733 0,5.007898 0,6.677197 0,1.669299 0.883148,1.69918 2.667306,-0.859659 1.784158,-2.558839 5.679189,-7.497541 8.989827,-11.109454 0.02799,3.273763 1.140827,6.314178 -0.390761,10.137971 -1.531587,3.823792 -8.484207,7.762859 -13.492104,9.104721 z M 27.758473,42.754013 c -1.112867,-3.040406 -0.700555,-6.93759 -0.522324,-10.228117 3.162437,0.225715 8.052204,4.599236 10.538118,6.431527 0.03411,1.864314 0,4.451464 0,6.677196 -3.972793,1.089767 -8.902928,0.159801 -10.015794,-2.880606 z"/><path id="path15674" fill="none" stroke="#fff" stroke-linecap="butt" stroke-linejoin="miter" stroke-miterlimit="4" stroke-opacity=".205" stroke-width="2" d="M 57.597596,14.044595 20.42567,24.019364" display="inline"/><rect id="rect4173" width="29.36" height="7.281" x="25.509" y="58.121" fill="url(#linearGradient3092)" fill-opacity="1" fill-rule="nonzero" stroke="none" stroke-width="2.057" color="#000" display="inline" opacity=".402" overflow="visible" transform="matrix(0.96592583,-0.25881905,0,1,0,0)" visibility="visible" style="marker:none"/><path id="path5058" fill="url(#radialGradient3094)" fill-opacity="1" fill-rule="nonzero" stroke="none" stroke-width="2.022" d="m 53,43.919945 c 0,0 0,7.280558 0,7.280558 3.024623,-0.796735 7.312067,-3.590465 7.312066,-5.600009 0,-2.009545 -3.375252,-2.735415 -7.312066,-1.680549 z" color="#000" display="inline" opacity=".402" overflow="visible" visibility="visible" style="marker:none"/><path id="path5018" fill="url(#radialGradient3096)" fill-opacity="1" fill-rule="nonzero" stroke="none" stroke-width="2.022" d="m 24.640172,51.518938 c 0,0 0,7.280558 0,7.280558 -3.024624,0.824156 -7.312067,0.32806 -7.312067,-1.681484 0,-2.009545 3.375252,-4.544207 7.312067,-5.599074 z" color="#000" display="inline" opacity=".402" overflow="visible" visibility="visible" style="marker:none"/><path id="path3464-9" fill="none" stroke="#8ae234" stroke-dasharray="none" stroke-linecap="round" stroke-linejoin="miter" stroke-miterlimit="4" stroke-opacity="1" stroke-width="1.113" d="m 41.884282,43.407831 c -1.036985,0.353739 -0.61966,0.558071 -0.796706,-2.808968 0,-2.782165 0.01263,-6.886082 0.01263,-10.031821 -1.669299,-0.109146 -4.944665,0.730549 -5.880485,-0.612123 -0.93582,-1.342672 -1.570488,-5.991045 -0.505848,-9.020314 1.06464,-3.029269 1.222979,-1.419607 1.998101,-0.02954 0.775123,1.39007 2.640887,0.955543 3.664329,-1.975665 1.023447,-2.931206 1.593424,-2.688196 2.759941,-0.352726 1.166523,2.335463 3.085149,1.085609 3.793599,-1.014792 0.708451,-2.100565 1.008891,-2.787563 1.792956,0.01214 0.784064,2.799713 0.341822,6.946364 -0.897505,9.428298 -1.239332,2.481935 -3.917628,2.205614 -5.586927,3.209334 0,2.225732 0.0045,6.520946 -0.0082,7.915432 -0.01263,1.394468 1.591643,2.931483 3.818416,0.01377 2.226778,-2.917717 4.623113,-6.415005 7.93375,-10.026918 0.349907,3.115971 0.604292,5.313336 -0.694796,7.966 -1.299093,2.652658 -7.110769,5.891744 -11.403288,7.328073 z m -13.26587,-1.971814 c -0.834766,-3.304962 -0.380266,-4.891516 -0.328796,-7.37316 2.150741,0.623257 5.885871,3.790438 8.371785,5.62273 0.03411,1.864315 0.02532,2.851261 0.02532,5.076994 -3.087558,0.473183 -7.284093,-0.109228 -8.068279,-3.326572 z"/><g id="g4566"><path id="path3343" fill="url(#linearGradient3023)" fill-opacity="1" fill-rule="evenodd" stroke="#0b1521" stroke-dasharray="none" stroke-linecap="butt" stroke-linejoin="round" stroke-miterlimit="4" stroke-opacity="1" stroke-width="2" d="M 20,9 V 19 H 3 V 33 H 20 V 43 L 38,26 Z"/><path id="path3343-2" fill="none" stroke="#729fcf" stroke-dasharray="none" stroke-linecap="butt" stroke-linejoin="miter" stroke-miterlimit="4" stroke-opacity="1" stroke-width="2" d="M 22.006611,13.642998 22,21 H 5 V 31 H 22 L 21.9934,38.357002 35,26 Z"/></g></g><metadata id="metadata4251"/></svg>