<svg xmlns="http://www.w3.org/2000/svg" xmlns:svg="http://www.w3.org/2000/svg" id="svg2" width="11" height="11" version="1.1" viewBox="0 0 11 11"><metadata id="metadata7"/><g id="layer1" transform="translate(-1070.0664,-345.59799)"><path id="rect6655" fill="#fff" fill-opacity=".353" fill-rule="evenodd" stroke="none" stroke-dasharray="none" stroke-dashoffset="0" stroke-linecap="butt" stroke-linejoin="miter" stroke-miterlimit="4" stroke-opacity="1" stroke-width="3.78" d="M 2 0 C 0.8920031 0 0 0.8920031 0 2 L 0 9 C 0 10.107997 0.8920031 11 2 11 L 9 11 C 10.107997 11 11 10.107997 11 9 L 11 2 C 11 0.8920031 10.107997 0 9 0 L 2 0 z M 5.4921875 1.9941406 A 0.50005 0.50005 0 0 1 6 2.5 L 6 5 L 8.5 5 A 0.50005 0.50005 0 1 1 8.5 6 L 6 6 L 6 8.5 A 0.50005 0.50005 0 1 1 5 8.5 L 5 6 L 2.5 6 A 0.50005 0.50005 0 1 1 2.5 5 L 5 5 L 5 2.5 A 0.50005 0.50005 0 0 1 5.4921875 1.9941406 z" opacity="1" transform="translate(1070.0664,345.59799)" vector-effect="none"/></g></svg>