<svg xmlns="http://www.w3.org/2000/svg" xmlns:svg="http://www.w3.org/2000/svg" xmlns:xlink="http://www.w3.org/1999/xlink" id="svg5816" width="48" height="48"><defs id="defs3"><radialGradient id="radialGradient6719" cx="605.714" cy="486.648" r="117.143" fx="605.714" fy="486.648" gradientTransform="matrix(-2.774389,0,0,1.969706,112.7623,-872.8854)" gradientUnits="userSpaceOnUse" xlink:href="#linearGradient5060"/><linearGradient id="linearGradient5060"><stop id="stop5062" offset="0" stop-color="#000" stop-opacity="1"/><stop id="stop5064" offset="1" stop-color="#000" stop-opacity="0"/></linearGradient><radialGradient id="radialGradient6717" cx="605.714" cy="486.648" r="117.143" fx="605.714" fy="486.648" gradientTransform="matrix(2.774389,0,0,1.969706,-1891.633,-872.8854)" gradientUnits="userSpaceOnUse" xlink:href="#linearGradient5060"/><linearGradient id="linearGradient5048"><stop id="stop5050" offset="0" stop-color="#000" stop-opacity="0"/><stop id="stop5056" offset=".5" stop-color="#000" stop-opacity="1"/><stop id="stop5052" offset="1" stop-color="#000" stop-opacity="0"/></linearGradient><linearGradient id="linearGradient6715" x1="302.857" x2="302.857" y1="366.648" y2="609.505" gradientTransform="matrix(2.774389,0,0,1.969706,-1892.179,-872.8854)" gradientUnits="userSpaceOnUse" xlink:href="#linearGradient5048"/><linearGradient id="linearGradient30695"><stop id="stop30697" offset="0" stop-color="#b8babc" stop-opacity="1"/><stop id="stop30703" offset=".374" stop-color="#5d6062" stop-opacity="1"/><stop id="stop30699" offset="1" stop-color="#585b5d" stop-opacity="1"/></linearGradient><linearGradient id="linearGradient30685"><stop id="stop30687" offset="0" stop-color="#8d8d8d" stop-opacity="1"/><stop id="stop30689" offset="1" stop-color="#747474" stop-opacity="1"/></linearGradient><linearGradient id="linearGradient30649"><stop id="stop30651" offset="0" stop-color="#858585" stop-opacity="1"/><stop id="stop30653" offset="1" stop-color="#5f5f5f" stop-opacity="1"/></linearGradient><linearGradient id="linearGradient30518"><stop id="stop30520" offset="0" stop-color="#fff" stop-opacity="1"/><stop id="stop30522" offset="1" stop-color="#fff" stop-opacity=".787"/></linearGradient><linearGradient id="linearGradient30505"><stop id="stop30507" offset="0" stop-color="#000" stop-opacity="1"/><stop id="stop30509" offset="1" stop-color="#000" stop-opacity="0"/></linearGradient><radialGradient id="radialGradient30511" cx="25.375" cy="43.375" r="17.125" fx="25.375" fy="43.375" gradientTransform="matrix(1.000000,0.000000,0.000000,0.343066,1.971081e-16,28.49453)" gradientUnits="userSpaceOnUse" xlink:href="#linearGradient30505"/><linearGradient id="linearGradient30524" x1="14.21" x2="39.061" y1="5.889" y2="40.626" gradientTransform="matrix(1.000000,0.000000,0.000000,1.021753,0.000000,-6.554300e-2)" gradientUnits="userSpaceOnUse" xlink:href="#linearGradient30518"/><linearGradient id="linearGradient30667" x1="20.087" x2="20.087" y1="22.048" y2="25.849" gradientUnits="userSpaceOnUse" xlink:href="#linearGradient30649"/><linearGradient id="linearGradient30669" x1="20.087" x2="20.087" y1="22.048" y2="25.849" gradientUnits="userSpaceOnUse" xlink:href="#linearGradient30649"/><linearGradient id="linearGradient30671" x1="20.087" x2="20.087" y1="22.048" y2="25.849" gradientUnits="userSpaceOnUse" xlink:href="#linearGradient30649"/><linearGradient id="linearGradient30673" x1="20.087" x2="20.087" y1="29.031" y2="32.964" gradientUnits="userSpaceOnUse" xlink:href="#linearGradient30649"/><linearGradient id="linearGradient30675" x1="20.087" x2="20.087" y1="29.031" y2="32.964" gradientUnits="userSpaceOnUse" xlink:href="#linearGradient30649"/><linearGradient id="linearGradient30677" x1="20.087" x2="20.087" y1="29.031" y2="32.964" gradientUnits="userSpaceOnUse" xlink:href="#linearGradient30649"/><linearGradient id="linearGradient30679" x1="20.087" x2="20.087" y1="36.102" y2="39.814" gradientUnits="userSpaceOnUse" xlink:href="#linearGradient30649"/><linearGradient id="linearGradient30681" x1="20.087" x2="20.087" y1="36.102" y2="39.814" gradientUnits="userSpaceOnUse" xlink:href="#linearGradient30649"/><linearGradient id="linearGradient30683" x1="20.087" x2="20.087" y1="36.102" y2="39.814" gradientUnits="userSpaceOnUse" xlink:href="#linearGradient30649"/><linearGradient id="linearGradient30691" x1="36.357" x2="36.357" y1="38.036" y2="40.161" gradientTransform="matrix(1.102932,0.000000,0.000000,1.000000,-4.117285,0.000000)" gradientUnits="userSpaceOnUse" xlink:href="#linearGradient30685"/><linearGradient id="linearGradient30693" x1="36.357" x2="36.357" y1="25.411" y2="26.911" gradientTransform="matrix(1.102932,0.000000,0.000000,1.000000,-4.117285,0.000000)" gradientUnits="userSpaceOnUse" xlink:href="#linearGradient30685"/><linearGradient id="linearGradient30701" x1="19.76" x2="25.865" y1="8.812" y2="42.563" gradientUnits="userSpaceOnUse" xlink:href="#linearGradient30695"/><linearGradient id="linearGradient30709" x1="36.357" x2="36.357" y1="38.036" y2="40.161" gradientTransform="matrix(1.102932,0.000000,0.000000,1.000000,-3.492285,0.625000)" gradientUnits="userSpaceOnUse" xlink:href="#linearGradient30685"/><linearGradient id="linearGradient30711" x1="36.357" x2="36.357" y1="25.411" y2="26.911" gradientTransform="matrix(1.102932,0.000000,0.000000,1.000000,-3.492285,0.625000)" gradientUnits="userSpaceOnUse" xlink:href="#linearGradient30685"/></defs><metadata id="metadata4"/><g id="layer1"><g id="g6707" transform="matrix(2.140526e-2,0,0,2.086758e-2,44.35111,41.4036)"><rect id="rect6709" width="1339.633" height="478.357" x="-1559.252" y="-150.697" fill="url(#linearGradient6715)" fill-opacity="1" fill-rule="nonzero" stroke="none" stroke-dasharray="none" stroke-dashoffset="0" stroke-linecap="round" stroke-linejoin="miter" stroke-miterlimit="4" stroke-opacity="1" stroke-width="1" marker-end="none" marker-mid="none" marker-start="none" color="#000" display="inline" opacity=".402" overflow="visible" visibility="visible" style="marker:none"/><path id="path6711" fill="url(#radialGradient6717)" fill-opacity="1" fill-rule="nonzero" stroke="none" stroke-dasharray="none" stroke-dashoffset="0" stroke-linecap="round" stroke-linejoin="miter" stroke-miterlimit="4" stroke-opacity="1" stroke-width="1" marker-end="none" marker-mid="none" marker-start="none" d="M -219.61876,-150.68038 C -219.61876,-150.68038 -219.61876,327.65041 -219.61876,327.65041 C -76.744594,328.55086 125.78146,220.48075 125.78138,88.454235 C 125.78138,-43.572302 -33.655436,-150.68036 -219.61876,-150.68038 z" color="#000" display="inline" opacity=".402" overflow="visible" visibility="visible" style="marker:none"/><path stroke-width="1" style="marker:none" id="path6713" fill="url(#radialGradient6719)" fill-opacity="1" fill-rule="nonzero" stroke="none" stroke-dasharray="none" stroke-dashoffset="0" stroke-linecap="round" stroke-linejoin="miter" stroke-miterlimit="4" stroke-opacity="1" marker-end="none" marker-mid="none" marker-start="none" d="M -1559.2523,-150.68038 C -1559.2523,-150.68038 -1559.2523,327.65041 -1559.2523,327.65041 C -1702.1265,328.55086 -1904.6525,220.48075 -1904.6525,88.454235 C -1904.6525,-43.572302 -1745.2157,-150.68036 -1559.2523,-150.68038 z" color="#000" display="inline" opacity=".402" overflow="visible" visibility="visible"/></g><rect id="rect30499" width="36.98" height="42.104" x="6.51" y="2.51" fill="url(#linearGradient30701)" fill-opacity="1" fill-rule="nonzero" stroke="#343434" stroke-dashoffset="0" stroke-linecap="butt" stroke-linejoin="miter" stroke-miterlimit="4" stroke-opacity="1" stroke-width="1" marker-end="none" marker-mid="none" marker-start="none" color="#000" display="block" overflow="visible" rx="1.958" ry="1.959" visibility="visible" style="marker:none"/><path id="path30526" fill="#2e3436" fill-opacity="1" fill-rule="nonzero" stroke="none" stroke-dashoffset="0" stroke-linecap="butt" stroke-linejoin="miter" stroke-miterlimit="4" stroke-opacity="1" stroke-width="1" marker-end="none" marker-mid="none" marker-start="none" d="M 9.9822237,5.1161175 L 39.957116,5.1161175 C 41.088875,5.1161175 42.000000,6.4933386 42.000000,8.2040570 L 42.000000,15.165394 C 42.000000,18.485012 38.071689,19.596195 36.939932,19.596195 L 12.999408,19.596195 C 11.867651,19.596195 7.9393398,18.089710 7.9393398,15.165394 L 7.9393398,8.2040570 C 7.9393398,6.4933386 8.8504660,5.1161175 9.9822237,5.1161175 z" color="#000" display="block" overflow="visible" visibility="visible" style="marker:none"/><path id="rect30501" fill="#babdb6" fill-opacity="1" fill-rule="nonzero" stroke="none" stroke-dashoffset="0" stroke-linecap="butt" stroke-linejoin="miter" stroke-miterlimit="4" stroke-opacity="1" stroke-width="1" marker-end="none" marker-mid="none" marker-start="none" d="M 10.919290,6.0000001 L 39.080710,6.0000001 C 40.143997,6.0000001 41.000000,6.8560034 41.000000,7.9192899 L 41.000000,12.246064 C 41.000000,14.309351 37.309351,15.000000 36.246064,15.000000 L 13.753936,15.000000 C 12.690649,15.000000 9.0000000,14.063654 9.0000000,12.246064 L 9.0000000,7.9192899 C 9.0000000,6.8560034 9.8560033,6.0000001 10.919290,6.0000001 z" color="#000" display="block" overflow="visible" visibility="visible" style="marker:none"/><rect id="rect30514" width="25.25" height="5" x="12.25" y="7" fill="#777b5e" fill-opacity="1" fill-rule="nonzero" stroke="none" stroke-dashoffset="0" stroke-linecap="butt" stroke-linejoin="miter" stroke-miterlimit="4" stroke-opacity="1" stroke-width="1" marker-end="none" marker-mid="none" marker-start="none" color="#000" display="block" overflow="visible" rx=".712" ry=".744" visibility="visible" style="marker:none"/><rect id="rect30516" width="34.988" height="40.077" x="7.374" y="3.524" fill="none" fill-opacity="1" fill-rule="nonzero" stroke="url(#linearGradient30524)" stroke-dashoffset="0" stroke-linecap="butt" stroke-linejoin="miter" stroke-miterlimit="4" stroke-opacity="1" stroke-width="1" marker-end="none" marker-mid="none" marker-start="none" color="#000" display="block" opacity=".487" overflow="visible" rx=".941" ry=".962" visibility="visible" style="marker:none"/><rect id="rect30705" width="6.933" height="10.872" x="33.14" y="30.226" fill="url(#linearGradient30709)" fill-opacity="1" fill-rule="nonzero" stroke="#7d7d7d" stroke-dashoffset="0" stroke-linecap="butt" stroke-linejoin="miter" stroke-miterlimit="4" stroke-opacity="1" stroke-width="1" marker-end="none" marker-mid="none" marker-start="none" color="#000" display="block" font-family="Bitstream Vera Sans" overflow="visible" rx="1.525" ry="1.383" visibility="visible" style="marker:none"/><rect stroke-opacity="1" style="marker:none" id="rect30528" width="6.933" height="10.872" x="32.515" y="29.601" fill="url(#linearGradient30691)" fill-opacity="1" fill-rule="nonzero" stroke="#343434" stroke-dashoffset="0" stroke-linecap="butt" stroke-linejoin="miter" stroke-miterlimit="4" stroke-width="1" marker-end="none" marker-mid="none" marker-start="none" color="#000" display="block" font-family="Bitstream Vera Sans" overflow="visible" rx="1.525" ry="1.383" visibility="visible"/><g id="g30602" stroke="#707070" stroke-opacity="1" transform="translate(0.707108,0.707108)"><rect stroke-width="1" style="marker:none" id="rect30584" width="5.173" height="5.103" x="10.444" y="21.397" fill="#737373" fill-opacity="1" fill-rule="nonzero" stroke-dashoffset="0" stroke-linecap="butt" stroke-linejoin="miter" stroke-miterlimit="4" marker-end="none" marker-mid="none" marker-start="none" color="#000" display="block" font-family="Bitstream Vera Sans" overflow="visible" rx="1.003" ry="1.003" visibility="visible"/><rect id="rect30586" width="5.173" height="5.103" x="17.5" y="21.397" fill="#737373" fill-opacity="1" fill-rule="nonzero" stroke-dashoffset="0" stroke-linecap="butt" stroke-linejoin="miter" stroke-miterlimit="4" stroke-width="1" marker-end="none" marker-mid="none" marker-start="none" color="#000" display="block" font-family="Bitstream Vera Sans" overflow="visible" rx="1.003" ry="1.003" visibility="visible" style="marker:none"/><rect stroke-width="1" style="marker:none" id="rect30588" width="5.173" height="5.103" x="24.5" y="21.397" fill="#737373" fill-opacity="1" fill-rule="nonzero" stroke-dashoffset="0" stroke-linecap="butt" stroke-linejoin="miter" stroke-miterlimit="4" marker-end="none" marker-mid="none" marker-start="none" color="#000" display="block" font-family="Bitstream Vera Sans" overflow="visible" rx="1.003" ry="1.003" visibility="visible"/><rect id="rect30590" width="5.173" height="5.103" x="10.444" y="28.315" fill="#737373" fill-opacity="1" fill-rule="nonzero" stroke-dashoffset="0" stroke-linecap="butt" stroke-linejoin="miter" stroke-miterlimit="4" stroke-width="1" marker-end="none" marker-mid="none" marker-start="none" color="#000" display="block" font-family="Bitstream Vera Sans" overflow="visible" rx="1.003" ry="1.003" visibility="visible" style="marker:none"/><rect stroke-width="1" style="marker:none" id="rect30592" width="5.173" height="5.103" x="17.5" y="28.315" fill="#737373" fill-opacity="1" fill-rule="nonzero" stroke-dashoffset="0" stroke-linecap="butt" stroke-linejoin="miter" stroke-miterlimit="4" marker-end="none" marker-mid="none" marker-start="none" color="#000" display="block" font-family="Bitstream Vera Sans" overflow="visible" rx="1.003" ry="1.003" visibility="visible"/><rect id="rect30594" width="5.173" height="5.103" x="24.5" y="28.315" fill="#737373" fill-opacity="1" fill-rule="nonzero" stroke-dashoffset="0" stroke-linecap="butt" stroke-linejoin="miter" stroke-miterlimit="4" stroke-width="1" marker-end="none" marker-mid="none" marker-start="none" color="#000" display="block" font-family="Bitstream Vera Sans" overflow="visible" rx="1.003" ry="1.003" visibility="visible" style="marker:none"/><rect stroke-width="1" style="marker:none" id="rect30596" width="5.173" height="5.103" x="10.444" y="35.315" fill="#737373" fill-opacity="1" fill-rule="nonzero" stroke-dashoffset="0" stroke-linecap="butt" stroke-linejoin="miter" stroke-miterlimit="4" marker-end="none" marker-mid="none" marker-start="none" color="#000" display="block" font-family="Bitstream Vera Sans" overflow="visible" rx="1.003" ry="1.003" visibility="visible"/><rect id="rect30598" width="5.173" height="5.103" x="17.5" y="35.315" fill="#737373" fill-opacity="1" fill-rule="nonzero" stroke-dashoffset="0" stroke-linecap="butt" stroke-linejoin="miter" stroke-miterlimit="4" stroke-width="1" marker-end="none" marker-mid="none" marker-start="none" color="#000" display="block" font-family="Bitstream Vera Sans" overflow="visible" rx="1.003" ry="1.003" visibility="visible" style="marker:none"/><rect stroke-width="1" style="marker:none" id="rect30600" width="5.173" height="5.103" x="24.5" y="35.315" fill="#737373" fill-opacity="1" fill-rule="nonzero" stroke-dashoffset="0" stroke-linecap="butt" stroke-linejoin="miter" stroke-miterlimit="4" marker-end="none" marker-mid="none" marker-start="none" color="#000" display="block" font-family="Bitstream Vera Sans" overflow="visible" rx="1.003" ry="1.003" visibility="visible"/></g><rect stroke-opacity="1" style="marker:none" id="rect30540" width="5.173" height="5.103" x="10.444" y="21.397" fill="url(#linearGradient30671)" fill-opacity="1" fill-rule="nonzero" stroke="#343434" stroke-dashoffset="0" stroke-linecap="butt" stroke-linejoin="miter" stroke-miterlimit="4" stroke-width="1" marker-end="none" marker-mid="none" marker-start="none" color="#000" display="block" font-family="Bitstream Vera Sans" overflow="visible" rx="1.003" ry="1.003" visibility="visible"/><rect id="rect30551" width="5.173" height="5.103" x="17.5" y="21.397" fill="url(#linearGradient30669)" fill-opacity="1" fill-rule="nonzero" stroke="#343434" stroke-dashoffset="0" stroke-linecap="butt" stroke-linejoin="miter" stroke-miterlimit="4" stroke-opacity="1" stroke-width="1" marker-end="none" marker-mid="none" marker-start="none" color="#000" display="block" font-family="Bitstream Vera Sans" overflow="visible" rx="1.003" ry="1.003" visibility="visible" style="marker:none"/><rect stroke-opacity="1" style="marker:none" id="rect30553" width="5.173" height="5.103" x="24.5" y="21.397" fill="url(#linearGradient30667)" fill-opacity="1" fill-rule="nonzero" stroke="#343434" stroke-dashoffset="0" stroke-linecap="butt" stroke-linejoin="miter" stroke-miterlimit="4" stroke-width="1" marker-end="none" marker-mid="none" marker-start="none" color="#000" display="block" font-family="Bitstream Vera Sans" overflow="visible" rx="1.003" ry="1.003" visibility="visible"/><rect id="rect30555" width="5.173" height="5.103" x="10.444" y="28.315" fill="url(#linearGradient30675)" fill-opacity="1" fill-rule="nonzero" stroke="#343434" stroke-dashoffset="0" stroke-linecap="butt" stroke-linejoin="miter" stroke-miterlimit="4" stroke-opacity="1" stroke-width="1" marker-end="none" marker-mid="none" marker-start="none" color="#000" display="block" font-family="Bitstream Vera Sans" overflow="visible" rx="1.003" ry="1.003" visibility="visible" style="marker:none"/><rect stroke-opacity="1" style="marker:none" id="rect30557" width="5.173" height="5.103" x="17.5" y="28.315" fill="url(#linearGradient30673)" fill-opacity="1" fill-rule="nonzero" stroke="#343434" stroke-dashoffset="0" stroke-linecap="butt" stroke-linejoin="miter" stroke-miterlimit="4" stroke-width="1" marker-end="none" marker-mid="none" marker-start="none" color="#000" display="block" font-family="Bitstream Vera Sans" overflow="visible" rx="1.003" ry="1.003" visibility="visible"/><rect id="rect30559" width="5.173" height="5.103" x="24.5" y="28.315" fill="url(#linearGradient30677)" fill-opacity="1" fill-rule="nonzero" stroke="#343434" stroke-dashoffset="0" stroke-linecap="butt" stroke-linejoin="miter" stroke-miterlimit="4" stroke-opacity="1" stroke-width="1" marker-end="none" marker-mid="none" marker-start="none" color="#000" display="block" font-family="Bitstream Vera Sans" overflow="visible" rx="1.003" ry="1.003" visibility="visible" style="marker:none"/><rect stroke-opacity="1" style="marker:none" id="rect30561" width="5.173" height="5.103" x="10.444" y="35.315" fill="url(#linearGradient30681)" fill-opacity="1" fill-rule="nonzero" stroke="#343434" stroke-dashoffset="0" stroke-linecap="butt" stroke-linejoin="miter" stroke-miterlimit="4" stroke-width="1" marker-end="none" marker-mid="none" marker-start="none" color="#000" display="block" font-family="Bitstream Vera Sans" overflow="visible" rx="1.003" ry="1.003" visibility="visible"/><rect id="rect30563" width="5.173" height="5.103" x="17.5" y="35.315" fill="url(#linearGradient30679)" fill-opacity="1" fill-rule="nonzero" stroke="#343434" stroke-dashoffset="0" stroke-linecap="butt" stroke-linejoin="miter" stroke-miterlimit="4" stroke-opacity="1" stroke-width="1" marker-end="none" marker-mid="none" marker-start="none" color="#000" display="block" font-family="Bitstream Vera Sans" overflow="visible" rx="1.003" ry="1.003" visibility="visible" style="marker:none"/><rect stroke-opacity="1" style="marker:none" id="rect30565" width="5.173" height="5.103" x="24.5" y="35.315" fill="url(#linearGradient30683)" fill-opacity="1" fill-rule="nonzero" stroke="#343434" stroke-dashoffset="0" stroke-linecap="butt" stroke-linejoin="miter" stroke-miterlimit="4" stroke-width="1" marker-end="none" marker-mid="none" marker-start="none" color="#000" display="block" font-family="Bitstream Vera Sans" overflow="visible" rx="1.003" ry="1.003" visibility="visible"/><rect stroke-opacity="1" style="marker:none" id="rect30707" width="6.933" height="6.266" x="33.14" y="22.042" fill="url(#linearGradient30711)" fill-opacity="1" fill-rule="nonzero" stroke="#7d7d7d" stroke-dashoffset="0" stroke-linecap="butt" stroke-linejoin="miter" stroke-miterlimit="4" stroke-width="1" marker-end="none" marker-mid="none" marker-start="none" color="#000" display="block" font-family="Bitstream Vera Sans" overflow="visible" rx="1.339" ry="1.214" visibility="visible"/><rect id="rect30567" width="6.933" height="6.266" x="32.515" y="21.417" fill="url(#linearGradient30693)" fill-opacity="1" fill-rule="nonzero" stroke="#343434" stroke-dashoffset="0" stroke-linecap="butt" stroke-linejoin="miter" stroke-miterlimit="4" stroke-opacity="1" stroke-width="1" marker-end="none" marker-mid="none" marker-start="none" color="#000" display="block" font-family="Bitstream Vera Sans" overflow="visible" rx="1.339" ry="1.214" visibility="visible" style="marker:none"/><path id="text30569" fill="#000" fill-opacity="1" stroke="none" stroke-linecap="butt" stroke-linejoin="miter" stroke-opacity="1" stroke-width="1.333" d="M 28.408396,9.5622980 C 28.581930,9.6071200 28.713518,9.6852680 28.803161,9.7967430 C 28.893949,9.9070720 28.939344,10.047854 28.939346,10.219090 C 28.939344,10.474222 28.841659,10.668444 28.646290,10.801756 C 28.450917,10.933919 28.165905,11.000000 27.791253,11.000000 C 27.659089,11.000000 27.526352,10.989083 27.393041,10.967247 C 27.260877,10.946561 27.129864,10.914957 27.000000,10.872435 L 27.000000,10.360447 C 27.124117,10.422507 27.247086,10.469625 27.368906,10.501804 C 27.491875,10.532834 27.612545,10.548349 27.730918,10.548348 C 27.906751,10.548349 28.041212,10.517894 28.134302,10.456983 C 28.228538,10.396074 28.275657,10.308732 28.275659,10.194956 C 28.275657,10.077734 28.227389,9.9892420 28.130854,9.9294810 C 28.035466,9.8685720 27.894109,9.8381170 27.706784,9.8381160 L 27.441309,9.8381160 L 27.441309,9.4105980 L 27.720575,9.4105980 C 27.887214,9.4106000 28.011332,9.3847420 28.092929,9.3330240 C 28.174524,9.2801610 28.215322,9.2002880 28.215324,9.0934070 C 28.215322,8.9945740 28.175673,8.9181500 28.096377,8.8641330 C 28.017078,8.8101210 27.905027,8.7831140 27.760224,8.7831120 C 27.653343,8.7831140 27.545314,8.7951810 27.436137,8.8193130 C 27.326958,8.8434490 27.218355,8.8790750 27.110327,8.9261920 L 27.110327,8.4400630 C 27.241340,8.4032890 27.371204,8.3757080 27.499920,8.3573170 C 27.628634,8.3389320 27.755051,8.3297380 27.879170,8.3297350 C 28.213598,8.3297380 28.463558,8.3849010 28.629051,8.4952260 C 28.795689,8.6044070 28.879009,8.7693230 28.879011,8.9899750 C 28.879009,9.1405280 28.839360,9.2640710 28.760065,9.3606060 C 28.680765,9.4559940 28.563542,9.5232250 28.408396,9.5622980 M 29.578900,10.282873 L 30.199491,10.282873 L 30.199491,10.950008 L 29.578900,10.950008 L 29.578900,10.282873 M 30.970058,10.491461 L 31.556172,10.491461 L 31.556172,8.8279320 L 30.954543,8.9520500 L 30.954543,8.5003980 L 31.552724,8.3762800 L 32.183658,8.3762800 L 32.183658,10.491461 L 32.769772,10.491461 L 32.769772,10.950008 L 30.970058,10.950008 L 30.970058,10.491461 M 34.310907,8.9227450 L 33.583436,10.000159 L 34.310907,10.000159 L 34.310907,8.9227450 M 34.200579,8.3762800 L 34.938393,8.3762800 L 34.938393,10.000159 L 35.305576,10.000159 L 35.305576,10.481117 L 34.938393,10.481117 L 34.938393,10.950008 L 34.310907,10.950008 L 34.310907,10.481117 L 33.169709,10.481117 L 33.169709,9.9122420 L 34.200579,8.3762800" font-family="Bitstream Vera Sans" font-size="3.53" font-stretch="normal" font-style="normal" font-variant="normal" font-weight="bold" text-anchor="start" writing-mode="lr-tb"/><path id="text30574" fill="#b8b8b8" fill-opacity="1" stroke="none" stroke-linecap="butt" stroke-linejoin="miter" stroke-opacity="1" stroke-width="1.333" d="M 36.268162,33.708210 L 36.268162,34.921185 L 37.476507,34.921185 L 37.476507,35.467487 L 36.268162,35.467487 L 36.268162,36.680462 L 35.717230,36.680462 L 35.717230,35.467487 L 34.508885,35.467487 L 34.508885,34.921185 L 35.717230,34.921185 L 35.717230,33.708210 L 36.268162,33.708210" font-family="Bitstream Vera Sans" font-size="4.741" font-stretch="normal" font-style="normal" font-variant="normal" font-weight="bold" text-anchor="start" writing-mode="lr-tb"/><path id="text30578" fill="#b8b8b8" fill-opacity="1" stroke="none" stroke-linecap="butt" stroke-linejoin="miter" stroke-opacity="1" stroke-width="1.333" d="M 35.324173,24.170804 L 36.777892,24.170804 L 36.777892,24.844421 L 35.324173,24.844421 L 35.324173,24.170804" font-family="Bitstream Vera Sans" font-size="4.741" font-stretch="normal" font-style="normal" font-variant="normal" font-weight="bold" text-anchor="start" writing-mode="lr-tb"/></g></svg>