<svg xmlns="http://www.w3.org/2000/svg" xmlns:cc="http://web.resource.org/cc/" xmlns:svg="http://www.w3.org/2000/svg" xmlns:xlink="http://www.w3.org/1999/xlink" id="svg7631" width="48" height="48"><defs id="defs3"><radialGradient id="radialGradient6719" cx="605.714" cy="486.648" r="117.143" fx="605.714" fy="486.648" gradientTransform="matrix(-2.774389,0,0,1.969706,112.7623,-872.8854)" gradientUnits="userSpaceOnUse" xlink:href="#linearGradient5060"/><linearGradient id="linearGradient5060"><stop id="stop5062" offset="0" stop-color="#000" stop-opacity="1"/><stop id="stop5064" offset="1" stop-color="#000" stop-opacity="0"/></linearGradient><radialGradient id="radialGradient6717" cx="605.714" cy="486.648" r="117.143" fx="605.714" fy="486.648" gradientTransform="matrix(2.774389,0,0,1.969706,-1891.633,-872.8854)" gradientUnits="userSpaceOnUse" xlink:href="#linearGradient5060"/><linearGradient id="linearGradient5048"><stop id="stop5050" offset="0" stop-color="#000" stop-opacity="0"/><stop id="stop5056" offset=".5" stop-color="#000" stop-opacity="1"/><stop id="stop5052" offset="1" stop-color="#000" stop-opacity="0"/></linearGradient><linearGradient id="linearGradient6715" x1="302.857" x2="302.857" y1="366.648" y2="609.505" gradientTransform="matrix(2.774389,0,0,1.969706,-1892.179,-872.8854)" gradientUnits="userSpaceOnUse" xlink:href="#linearGradient5048"/><linearGradient id="linearGradient2818"><stop id="stop2820" offset="0" stop-color="#fff" stop-opacity="1"/><stop id="stop2822" offset="1" stop-color="#fff" stop-opacity="0"/></linearGradient><linearGradient id="linearGradient2690"><stop id="stop2692" offset="0" stop-color="#fff" stop-opacity="1"/><stop id="stop2694" offset="1" stop-color="#fff" stop-opacity="0"/></linearGradient><linearGradient id="linearGradient2673"><stop id="stop2675" offset="0" stop-color="#8b8b8b" stop-opacity="1"/><stop id="stop2681" offset=".5" stop-color="#d3d9da" stop-opacity="1"/><stop id="stop2677" offset="1" stop-color="#828282" stop-opacity="1"/></linearGradient><linearGradient id="linearGradient2656"><stop id="stop2658" offset="0" stop-color="#000" stop-opacity="1"/><stop id="stop2660" offset="1" stop-color="#000" stop-opacity="0"/></linearGradient><linearGradient id="linearGradient2631"><stop id="stop2633" offset="0" stop-color="#010101" stop-opacity="1"/><stop id="stop2635" offset="1" stop-color="#959595" stop-opacity="1"/></linearGradient><linearGradient id="linearGradient2615"><stop id="stop2617" offset="0" stop-color="#363d40" stop-opacity="1"/><stop id="stop2623" offset=".5" stop-color="#818f95" stop-opacity="1"/><stop id="stop2619" offset="1" stop-color="#31383b" stop-opacity="1"/></linearGradient><linearGradient id="linearGradient2304"><stop id="stop2306" offset="0" stop-color="#353633" stop-opacity="1"/><stop id="stop2308" offset="1" stop-color="#676964" stop-opacity="1"/></linearGradient><linearGradient id="linearGradient2290"><stop id="stop2292" offset="0" stop-color="#555753" stop-opacity="1"/><stop id="stop2294" offset="1" stop-color="#313330" stop-opacity="1"/></linearGradient><linearGradient id="linearGradient2268"><stop id="stop2270" offset="0" stop-color="#555753" stop-opacity="1"/><stop id="stop2272" offset="1" stop-color="#141514" stop-opacity="1"/></linearGradient><linearGradient id="linearGradient2230"><stop id="stop2232" offset="0" stop-color="#eee" stop-opacity="1"/><stop id="stop2234" offset="1" stop-color="#a2a2a2" stop-opacity="1"/></linearGradient><linearGradient id="linearGradient3301"><stop id="stop3303" offset="0" stop-color="#fff" stop-opacity="1"/><stop id="stop3305" offset="1" stop-color="#cbcbcb" stop-opacity="1"/></linearGradient><linearGradient id="linearGradient2591"><stop id="stop2593" offset="0" stop-color="#7a7a7a" stop-opacity="1"/><stop id="stop2595" offset="1" stop-color="#000" stop-opacity="1"/></linearGradient><radialGradient id="radialGradient1415" cx="25.375" cy="36.813" r="17.5" fx="25.375" fy="36.813" gradientTransform="matrix(1.000000,0.000000,0.000000,0.453571,-8.417747e-16,20.11540)" gradientUnits="userSpaceOnUse" xlink:href="#linearGradient2656"/><radialGradient id="radialGradient1417" cx="25.375" cy="36.813" r="17.5" fx="25.375" fy="36.813" gradientTransform="matrix(1.000000,0.000000,0.000000,0.453571,-1.856804e-15,20.11540)" gradientUnits="userSpaceOnUse" xlink:href="#linearGradient2656"/><linearGradient id="linearGradient1423" x1="22.55" x2="38.416" y1="39.052" y2="30.566" gradientUnits="userSpaceOnUse" xlink:href="#linearGradient2615"/><linearGradient id="linearGradient1425" x1="23.661" x2="33.904" y1="35.303" y2="30.917" gradientUnits="userSpaceOnUse" xlink:href="#linearGradient2673"/><radialGradient id="radialGradient1431" cx="16.875" cy="23.672" r="4.625" fx="16.875" fy="23.672" gradientTransform="matrix(1.000000,0.000000,0.000000,1.013514,-4.816024e-16,-0.304899)" gradientUnits="userSpaceOnUse" xlink:href="#linearGradient2591"/><linearGradient id="linearGradient1433" x1="12.836" x2="18.422" y1="18.849" y2="27.073" gradientUnits="userSpaceOnUse" xlink:href="#linearGradient2631"/><linearGradient id="linearGradient1451" x1="6.56" x2="6.56" y1="29.374" y2="30.191" gradientTransform="matrix(0.655244,0.000000,0.000000,1.898477,14.94194,-35.55180)" gradientUnits="userSpaceOnUse" xlink:href="#linearGradient3301"/><linearGradient id="linearGradient1456" x1="6.56" x2="6.56" y1="29.374" y2="30.191" gradientTransform="matrix(1.477785,0.000000,0.000000,1.982181,18.56747,-51.60768)" gradientUnits="userSpaceOnUse" xlink:href="#linearGradient3301"/><linearGradient id="linearGradient1458" x1="7.915" x2="7.915" y1="30.817" y2="24.701" gradientTransform="matrix(1.318423,0.000000,0.000000,0.773191,18.70736,-14.22023)" gradientUnits="userSpaceOnUse" xlink:href="#linearGradient2230"/><linearGradient id="linearGradient1461" x1="29.395" x2="29.395" y1="9.412" y2="12.847" gradientUnits="userSpaceOnUse" xlink:href="#linearGradient2268"/><linearGradient id="linearGradient1469" x1="16.667" x2="35.888" y1="16.125" y2="57.125" gradientUnits="userSpaceOnUse" xlink:href="#linearGradient2690"/><linearGradient id="linearGradient1475" x1="7.871" x2="14.844" y1="29.719" y2="29.719" gradientTransform="matrix(1.024993,0.000000,0.000000,1.000000,-6.795098e-2,0.000000)" gradientUnits="userSpaceOnUse" xlink:href="#linearGradient2290"/><linearGradient id="linearGradient1482" x1="16.353" x2="30.13" y1="26.093" y2="26.093" gradientUnits="userSpaceOnUse" xlink:href="#linearGradient2304"/><linearGradient id="linearGradient1485" x1="7.871" x2="14.844" y1="29.719" y2="29.719" gradientTransform="matrix(1.035758,0.000000,0.000000,1.000000,-0.162473,0.202030)" gradientUnits="userSpaceOnUse" xlink:href="#linearGradient2290"/><radialGradient id="radialGradient2824" cx="14.75" cy="22.688" r="1.75" fx="14.75" fy="22.688" gradientTransform="matrix(1.000000,0.000000,0.000000,1.035714,0.000000,-0.810268)" gradientUnits="userSpaceOnUse" xlink:href="#linearGradient2818"/></defs><metadata id="metadata4"/><g id="layer1"><g id="g6707" transform="matrix(2.45274e-2,0,0,2.086758e-2,45.15006,37.31476)"><rect id="rect6709" width="1339.633" height="478.357" x="-1559.252" y="-150.697" fill="url(#linearGradient6715)" fill-opacity="1" fill-rule="nonzero" stroke="none" stroke-dasharray="none" stroke-dashoffset="0" stroke-linecap="round" stroke-linejoin="miter" stroke-miterlimit="4" stroke-opacity="1" stroke-width="1" marker-end="none" marker-mid="none" marker-start="none" color="#000" display="inline" opacity=".402" overflow="visible" visibility="visible" style="marker:none"/><path id="path6711" fill="url(#radialGradient6717)" fill-opacity="1" fill-rule="nonzero" stroke="none" stroke-dasharray="none" stroke-dashoffset="0" stroke-linecap="round" stroke-linejoin="miter" stroke-miterlimit="4" stroke-opacity="1" stroke-width="1" marker-end="none" marker-mid="none" marker-start="none" d="M -219.61876,-150.68038 C -219.61876,-150.68038 -219.61876,327.65041 -219.61876,327.65041 C -76.744594,328.55086 125.78146,220.48075 125.78138,88.454235 C 125.78138,-43.572302 -33.655436,-150.68036 -219.61876,-150.68038 z" color="#000" display="inline" opacity=".402" overflow="visible" visibility="visible" style="marker:none"/><path stroke-width="1" style="marker:none" id="path6713" fill="url(#radialGradient6719)" fill-opacity="1" fill-rule="nonzero" stroke="none" stroke-dasharray="none" stroke-dashoffset="0" stroke-linecap="round" stroke-linejoin="miter" stroke-miterlimit="4" stroke-opacity="1" marker-end="none" marker-mid="none" marker-start="none" d="M -1559.2523,-150.68038 C -1559.2523,-150.68038 -1559.2523,327.65041 -1559.2523,327.65041 C -1702.1265,328.55086 -1904.6525,220.48075 -1904.6525,88.454235 C -1904.6525,-43.572302 -1745.2157,-150.68036 -1559.2523,-150.68038 z" color="#000" display="inline" opacity=".402" overflow="visible" visibility="visible"/></g><path id="path2664" fill="url(#radialGradient1415)" fill-opacity="1" fill-rule="nonzero" stroke="none" stroke-dasharray="none" stroke-dashoffset="0" stroke-linecap="butt" stroke-linejoin="miter" stroke-miterlimit="4" stroke-opacity="1" stroke-width="1" marker-end="none" marker-mid="none" marker-start="none" d="M 42.875000 36.812500 A 17.500000 7.9375000 0 1 1 7.8750000,36.812500 A 17.500000 7.9375000 0 1 1 42.875000 36.812500 z" color="#000" display="block" opacity=".399" overflow="visible" transform="matrix(0.693194,0.000000,0.000000,0.811023,13.91019,9.956690)" visibility="visible" style="marker:none"/><path id="path2608" fill="url(#linearGradient1485)" fill-opacity="1" fill-rule="nonzero" stroke="#282828" stroke-dasharray="none" stroke-dashoffset="0" stroke-linecap="butt" stroke-linejoin="miter" stroke-miterlimit="4" stroke-opacity="1" stroke-width="2" marker-end="none" marker-mid="none" marker-start="none" d="M 8.9327762,18.920780 C 5.4615071,18.920780 2.6534933,20.040780 2.6534933,21.420780 C 2.6534933,21.577572 2.8105028,21.709462 2.8800654,21.858280 C 2.8698789,21.907712 2.7829631,21.899460 2.7829631,21.952030 C 2.7829631,21.952030 2.6534933,38.263988 2.6534933,38.420780 C 2.6534933,39.800780 5.4615071,40.920780 8.9327762,40.920780 C 12.404046,40.920780 15.212059,39.800780 15.212059,38.420780 L 15.082590,21.952030 C 15.082590,21.899460 14.995674,21.907712 14.985487,21.858280 C 15.055050,21.709462 15.212059,21.577572 15.212059,21.420780 C 15.212059,20.040780 12.404046,18.920780 8.9327762,18.920780 z" color="#000" display="block" opacity="1" overflow="visible" visibility="visible" style="marker:none"/><path stroke-width="1" style="marker:none" id="path8417" fill="url(#linearGradient1482)" fill-opacity="1" fill-rule="nonzero" stroke="#282828" stroke-dasharray="none" stroke-dashoffset="0" stroke-linecap="butt" stroke-linejoin="miter" stroke-miterlimit="4" stroke-opacity="1" marker-end="none" marker-mid="none" marker-start="none" d="M 2.1428571,38.647933 L 42.285714,38.647933 C 43.396882,38.748948 44.505076,37.497897 44.505076,36.790790 L 44.505076,19.142857 C 44.404061,18.031689 40.536106,16.719102 39.626969,16.618087 L 37.194851,16.618087 L 34.271326,13.533125 L 23.714286,13.533125 L 20.278818,16.564532 C 20.278818,16.564532 13.552003,16.776186 8.3377087,17.731617 C 3.1234141,18.687048 2.0000000,20.318891 2.0000000,21.531074 L 2.1428571,38.647933 z" color="#000" display="block" opacity="1" overflow="visible" visibility="visible"/><path stroke-width="1" style="marker:none" id="path2300" fill="#3f413e" fill-opacity="1" fill-rule="nonzero" stroke="none" stroke-dasharray="none" stroke-dashoffset="0" stroke-linecap="butt" stroke-linejoin="miter" stroke-miterlimit="4" stroke-opacity="1" marker-end="none" marker-mid="none" marker-start="none" d="M 33.890618,13.907352 L 35.254324,17.695424 L 37.123106,17.240855 L 33.890618,13.907352 z" color="#000" display="block" opacity="1" overflow="visible" visibility="visible"/><path id="path2302" fill="#585b57" fill-opacity="1" fill-rule="nonzero" stroke="#a7a7a7" stroke-dasharray="none" stroke-dashoffset="0" stroke-linecap="butt" stroke-linejoin="miter" stroke-miterlimit="4" stroke-opacity="1" stroke-width=".796" marker-end="none" marker-mid="none" marker-start="none" d="M 43.133513 33.908371 A 1.9697975 1.9697975 0 1 1 39.193918,33.908371 A 1.9697975 1.9697975 0 1 1 43.133513 33.908371 z" color="#000" display="block" opacity="1" overflow="visible" transform="matrix(1.256914,0.000000,0.000000,1.256914,-11.68675,-10.02479)" visibility="visible" style="marker:none"/><path id="path2280" fill="url(#linearGradient1423)" fill-opacity="1" fill-rule="nonzero" stroke="none" stroke-dasharray="none" stroke-dashoffset="0" stroke-linecap="butt" stroke-linejoin="miter" stroke-miterlimit="4" stroke-opacity="1" stroke-width="1" marker-end="none" marker-mid="none" marker-start="none" d="M 40.714286 33.571430 A 10.142858 10.142858 0 1 1 20.428571,33.571430 A 10.142858 10.142858 0 1 1 40.714286 33.571430 z" color="#000" display="block" opacity="1" overflow="visible" transform="matrix(1.082923,0.000000,0.000000,1.082923,-3.320501,-4.385684)" visibility="visible" style="marker:none"/><path id="path2278" fill="url(#linearGradient1425)" fill-opacity="1" fill-rule="nonzero" stroke="none" stroke-dasharray="none" stroke-dashoffset="0" stroke-linecap="butt" stroke-linejoin="miter" stroke-miterlimit="4" stroke-opacity="1" stroke-width="1" marker-end="none" marker-mid="none" marker-start="none" d="M 40.714286 33.571430 A 10.142858 10.142858 0 1 1 20.428571,33.571430 A 10.142858 10.142858 0 1 1 40.714286 33.571430 z" color="#000" display="block" opacity="1" overflow="visible" transform="matrix(1.082923,0.000000,0.000000,1.082923,-3.155039,-2.495930)" visibility="visible" style="marker:none"/><path stroke-width="1" style="marker:none" id="path7949" fill="url(#linearGradient1475)" fill-opacity="1" fill-rule="nonzero" stroke="none" stroke-dasharray="none" stroke-dashoffset="0" stroke-linecap="butt" stroke-linejoin="miter" stroke-miterlimit="4" stroke-opacity="1" marker-end="none" marker-mid="none" marker-start="none" d="M 8.9327729,18.718750 C 5.4975804,18.718750 2.7187500,19.838750 2.7187500,21.218750 C 2.7187500,21.375542 2.8741277,21.507432 2.9429673,21.656250 C 2.9328867,21.705682 2.8468742,21.697430 2.8468742,21.750000 C 2.8468742,21.750000 2.7187500,38.061958 2.7187500,38.218750 C 2.7187500,39.598750 5.4975804,40.718750 8.9327729,40.718750 C 12.367966,40.718750 15.146796,39.598750 15.146796,38.218750 L 15.018672,21.750000 C 15.018672,21.697430 14.932659,21.705682 14.922578,21.656250 C 14.991418,21.507432 15.146796,21.375542 15.146796,21.218750 C 15.146796,19.838750 12.367966,18.718750 8.9327729,18.718750 z" color="#000" display="block" opacity="1" overflow="visible" visibility="visible"/><path stroke-width="1" style="marker:none" id="path2298" fill="#7b7e79" fill-opacity="1" fill-rule="nonzero" stroke="none" stroke-dasharray="none" stroke-dashoffset="0" stroke-linecap="butt" stroke-linejoin="miter" stroke-miterlimit="4" stroke-opacity="1" marker-end="none" marker-mid="none" marker-start="none" d="M 24.243661,14.159890 L 23.486047,17.796439 L 23.132493,19.008622 L 20.354573,16.937809 L 24.243661,14.159890 z" color="#000" display="block" opacity="1" overflow="visible" visibility="visible"/><path stroke-width="1" style="marker:none" id="path2276" fill="#a7aba7" fill-opacity="1" fill-rule="nonzero" stroke="none" stroke-dasharray="none" stroke-dashoffset="0" stroke-linecap="butt" stroke-linejoin="miter" stroke-miterlimit="4" stroke-opacity="1" marker-end="none" marker-mid="none" marker-start="none" d="M 19.030081,27.995300 L 23.940615,19.412683 L 35.153309,19.412683 L 39.991888,26.528041 L 35.254324,17.796439 L 23.435539,17.796439 L 19.030081,27.995300 z" color="#000" display="block" opacity="1" overflow="visible" visibility="visible"/><path stroke-width="1" style="marker:none" id="path7953" fill="#888a85" fill-opacity="1" fill-rule="nonzero" stroke="none" stroke-dashoffset="0" stroke-linecap="butt" stroke-linejoin="miter" stroke-miterlimit="4" stroke-opacity="1" marker-end="none" marker-mid="none" marker-start="none" d="M 20.312500,16.875000 C 20.312500,16.875000 8.1666040,17.513063 4.1562500,19.625000 C 3.3042101,20.073702 2.6682424,20.465607 2.6682424,21.067227 C 2.6682424,22.447227 5.4923214,24.093750 8.8437500,24.093750 C 12.195179,24.093750 14.843750,22.598750 14.843750,21.218750 C 14.843750,20.904411 14.663819,20.589696 14.406250,20.312500 L 23.031250,18.500000 L 20.312500,16.875000 z" color="#000" display="block" overflow="visible" visibility="visible"/><path stroke-width="1" style="marker:none" id="path2683" fill="none" fill-opacity="1" fill-rule="nonzero" stroke="url(#linearGradient1469)" stroke-dasharray="none" stroke-dashoffset="0" stroke-linecap="butt" stroke-linejoin="miter" stroke-miterlimit="4" stroke-opacity="1" marker-end="none" marker-mid="none" marker-start="none" d="M 24.553211,14.482118 L 20.635909,17.275103 C 20.635909,17.275104 14.191167,17.710137 9.3867322,18.590468 C 4.5822970,19.470800 3.1666200,20.423893 3.0416200,21.603294 L 3.2677390,38.194718 C 3.5637007,39.355800 6.4977958,40.267861 9.4963120,40.267861 C 12.494828,40.267861 14.997700,38.668300 15.293662,37.507218 L 41.781643,37.632218 C 43.242971,37.662792 43.513492,36.931125 43.513492,36.279599 L 43.513492,19.602477 C 43.513492,18.890493 40.671858,17.738265 39.834182,17.645190 L 36.900777,17.707690 L 33.660467,14.482118 L 24.553211,14.482118 z" color="#000" display="block" opacity=".418" overflow="visible" visibility="visible"/><path id="path8415" fill="#2e3436" fill-opacity="1" fill-rule="nonzero" stroke="none" stroke-dasharray="none" stroke-dashoffset="0" stroke-linecap="butt" stroke-linejoin="miter" stroke-miterlimit="4" stroke-opacity="1" stroke-width="1" marker-end="none" marker-mid="none" marker-start="none" d="M 40.714286 33.571430 A 10.142858 10.142858 0 1 1 20.428571,33.571430 A 10.142858 10.142858 0 1 1 40.714286 33.571430 z" color="#000" display="block" opacity="1" overflow="visible" transform="matrix(1.082923,0.000000,0.000000,1.082923,-3.050891,-1.568850)" visibility="visible" style="marker:none"/><path id="path2589" fill="url(#radialGradient1431)" fill-opacity="1" fill-rule="nonzero" stroke="url(#linearGradient1433)" stroke-dashoffset="0" stroke-linecap="butt" stroke-linejoin="miter" stroke-miterlimit="4" stroke-opacity="1" stroke-width=".596" marker-end="none" marker-mid="none" marker-start="none" d="M 19.875000 22.562500 A 4.1250000 4.1875000 0 1 1 11.625000,22.562500 A 4.1250000 4.1875000 0 1 1 19.875000 22.562500 z" color="#000" display="inline" font-family="Bitstream Vera Sans" overflow="visible" transform="matrix(1.676984,0.000000,0.000000,1.676984,3.488419,-3.050526)" visibility="visible" style="marker:none"/><path marker-end="none" style="marker:none" id="path2599" fill="#fff" fill-opacity=".529" fill-rule="nonzero" stroke="none" stroke-dashoffset="0" stroke-linecap="butt" stroke-linejoin="miter" stroke-miterlimit="4" stroke-opacity="1" stroke-width="1" marker-mid="none" marker-start="none" d="M 16.500000 22.687500 A 1.7500000 1.8125000 0 1 1 13.000000,22.687500 A 1.7500000 1.8125000 0 1 1 16.500000 22.687500 z" color="#000" display="inline" font-family="Bitstream Vera Sans" opacity=".608" overflow="visible" transform="matrix(1.676984,0.000000,0.000000,1.676984,5.499948,-3.195174)" visibility="visible"/><path marker-end="none" style="marker:none" id="path2601" fill="#fff" fill-opacity="1" fill-rule="nonzero" stroke="none" stroke-dashoffset="0" stroke-linecap="butt" stroke-linejoin="miter" stroke-miterlimit="4" stroke-opacity="1" stroke-width="1" marker-mid="none" marker-start="none" d="M 16.500000 22.687500 A 1.7500000 1.8125000 0 1 1 13.000000,22.687500 A 1.7500000 1.8125000 0 1 1 16.500000 22.687500 z" color="#000" display="inline" font-family="Bitstream Vera Sans" opacity=".373" overflow="visible" transform="matrix(1.673245,0.000000,0.000000,1.673245,3.333940,-5.000547)" visibility="visible"/><path marker-end="none" style="marker:none" id="path8405" fill="url(#radialGradient2824)" fill-opacity="1" fill-rule="nonzero" stroke="none" stroke-dashoffset="0" stroke-linecap="butt" stroke-linejoin="miter" stroke-miterlimit="4" stroke-opacity="1" stroke-width="1" marker-mid="none" marker-start="none" d="M 16.500000 22.687500 A 1.7500000 1.8125000 0 1 1 13.000000,22.687500 A 1.7500000 1.8125000 0 1 1 16.500000 22.687500 z" color="#000" display="inline" font-family="Bitstream Vera Sans" opacity="1" overflow="visible" transform="matrix(0.412730,0.000000,0.000000,0.412730,27.45136,28.98197)" visibility="visible"/><path stroke-width="1" style="marker:none" id="path1507" fill="url(#linearGradient1461)" fill-opacity="1" fill-rule="nonzero" stroke="none" stroke-dasharray="none" stroke-dashoffset="0" stroke-linecap="butt" stroke-linejoin="miter" stroke-miterlimit="4" stroke-opacity="1" marker-end="none" marker-mid="none" marker-start="none" d="M 22.223356,15.574103 L 25.152798,13.452783 L 26.061935,11.028417 L 32.425896,11.028417 L 33.739095,13.957860 L 36.567522,16.382225 L 34.042141,5.4725778 L 24.142646,5.4725778 L 22.223356,15.574103 z" color="#000" display="block" opacity="1" overflow="visible" visibility="visible"/><rect id="rect3297" width="9.329" height="4.584" x="24.479" y="4.637" fill="url(#linearGradient1456)" fill-opacity="1" fill-rule="nonzero" stroke="url(#linearGradient1458)" stroke-dashoffset="0" stroke-linecap="butt" stroke-linejoin="miter" stroke-miterlimit="4" stroke-opacity="1" stroke-width="1" marker-end="none" marker-mid="none" marker-start="none" color="#000" display="inline" font-family="Bitstream Vera Sans" overflow="visible" rx="1.504" ry="1.504" visibility="visible" style="marker:none"/><path id="path2288" fill="#2f302e" fill-opacity="1" fill-rule="nonzero" stroke="none" stroke-dasharray="none" stroke-dashoffset="0" stroke-linecap="butt" stroke-linejoin="miter" stroke-miterlimit="4" stroke-opacity="1" stroke-width="1" marker-end="none" marker-mid="none" marker-start="none" d="M 14.857143 38.214287 A 6.0714288 2.5000000 0 1 1 2.7142854,38.214287 A 6.0714288 2.5000000 0 1 1 14.857143 38.214287 z" color="#000" display="block" opacity="1" overflow="visible" transform="matrix(0.359444,0.000000,0.000000,0.554344,7.698551,7.305544e-2)" visibility="visible" style="marker:none"/><path stroke-width="1" style="marker:none" id="path2312" fill="#c4c6c3" fill-opacity="1" fill-rule="nonzero" stroke="none" stroke-dasharray="none" stroke-dashoffset="0" stroke-linecap="butt" stroke-linejoin="miter" stroke-miterlimit="4" stroke-opacity="1" marker-end="none" marker-mid="none" marker-start="none" d="M 2.7034271,21.250564 C 2.5678753,23.036228 5.1472726,25.130768 8.8987966,25.132037 C 12.712821,25.133306 14.748227,22.948217 14.950257,21.028927 L 19.495944,19.311668 L 14.344166,20.321820 C 14.445182,22.241110 12.642329,24.152278 8.9038729,24.092824 C 4.8175065,24.026843 3.3284271,22.438064 2.7034271,21.250564 z" color="#000" display="block" opacity="1" overflow="visible" visibility="visible"/><rect stroke-opacity="1" style="marker:none" id="rect2282" width="4.136" height="4.39" x="17.563" y="18.317" fill="url(#linearGradient1451)" fill-opacity="1" fill-rule="nonzero" stroke="#464646" stroke-dashoffset="0" stroke-linecap="butt" stroke-linejoin="miter" stroke-miterlimit="4" stroke-width="1" marker-end="none" marker-mid="none" marker-start="none" color="#000" display="inline" font-family="Bitstream Vera Sans" overflow="visible" rx=".695" ry=".695" visibility="visible"/><path marker-end="none" style="marker:none" id="path2612" fill="#fff" fill-opacity="1" fill-rule="nonzero" stroke="none" stroke-dashoffset="0" stroke-linecap="butt" stroke-linejoin="miter" stroke-miterlimit="4" stroke-opacity="1" stroke-width="1" marker-mid="none" marker-start="none" d="M 16.500000 22.687500 A 1.7500000 1.8125000 0 1 1 13.000000,22.687500 A 1.7500000 1.8125000 0 1 1 16.500000 22.687500 z" color="#000" display="inline" font-family="Bitstream Vera Sans" opacity=".43" overflow="visible" transform="matrix(0.389835,0.000000,0.000000,0.389835,4.452477,12.38659)" visibility="visible"/><path marker-end="none" style="marker:none" id="path2629" fill="#fff" fill-opacity="1" fill-rule="nonzero" stroke="none" stroke-dashoffset="0" stroke-linecap="butt" stroke-linejoin="miter" stroke-miterlimit="4" stroke-opacity="1" stroke-width="1" marker-mid="none" marker-start="none" d="M 16.500000 22.687500 A 1.7500000 1.8125000 0 1 1 13.000000,22.687500 A 1.7500000 1.8125000 0 1 1 16.500000 22.687500 z" color="#000" display="inline" font-family="Bitstream Vera Sans" opacity="1" overflow="visible" transform="matrix(0.456110,0.000000,0.000000,0.456110,20.30269,21.39326)" visibility="visible"/><path id="path2641" fill="#c5c5c5" fill-opacity=".529" fill-rule="nonzero" stroke="none" stroke-dasharray="none" stroke-dashoffset="0" stroke-linecap="butt" stroke-linejoin="miter" stroke-miterlimit="4" stroke-opacity="1" stroke-width="2" marker-end="none" marker-mid="none" marker-start="none" d="M 42.250000 20.562500 A 1.6250000 0.68750000 0 1 1 39.000000,20.562500 A 1.6250000 0.68750000 0 1 1 42.250000 20.562500 z" color="#000" display="block" opacity="1" overflow="visible" transform="matrix(1.038462,0.000000,0.000000,1.636364,-1.187500,-12.71023)" visibility="visible" style="marker:none"/><path id="path2639" fill="#565656" fill-opacity="1" fill-rule="nonzero" stroke="none" stroke-dasharray="none" stroke-dashoffset="0" stroke-linecap="butt" stroke-linejoin="miter" stroke-miterlimit="4" stroke-opacity="1" stroke-width="2" marker-end="none" marker-mid="none" marker-start="none" d="M 42.250000 20.562500 A 1.6250000 0.68750000 0 1 1 39.000000,20.562500 A 1.6250000 0.68750000 0 1 1 42.250000 20.562500 z" color="#000" display="block" opacity="1" overflow="visible" transform="matrix(1.038462,0.000000,0.000000,1.636364,-1.125000,-12.33523)" visibility="visible" style="marker:none"/><path stroke-width="1" style="marker:none" id="path2650" fill="none" fill-opacity="1" fill-rule="nonzero" stroke="#777" stroke-dasharray="none" stroke-dashoffset="0" stroke-linecap="butt" stroke-linejoin="miter" stroke-miterlimit="4" stroke-opacity="1" marker-end="none" marker-mid="none" marker-start="none" d="M 23.271357,28.422173 C 25.874096,25.054531 32.027018,24.229460 35.546276,27.380934" color="#000" display="block" opacity="1" overflow="visible" visibility="visible"/><path id="path2668" fill="#fff" fill-opacity="1" fill-rule="nonzero" stroke="none" stroke-dashoffset="0" stroke-linecap="butt" stroke-linejoin="miter" stroke-miterlimit="4" stroke-opacity="1" stroke-width="1" marker-end="none" marker-mid="none" marker-start="none" d="M 30.219981,31.818049 C 28.600014,31.818049 27.309626,33.185948 27.309626,34.863771 C 27.309626,35.247616 27.556343,35.506933 27.681881,35.845170 C 27.808561,35.862524 27.889059,35.980535 28.020294,35.980535 C 29.636648,35.980535 30.930649,34.642736 30.930649,32.968655 C 30.930649,32.575045 30.656499,32.298592 30.524554,31.953415 C 30.409594,31.939221 30.338611,31.818049 30.219981,31.818049 z" color="#000" display="inline" font-family="Bitstream Vera Sans" opacity=".671" overflow="visible" visibility="visible" style="marker:none"/></g></svg>