<svg xmlns="http://www.w3.org/2000/svg" xmlns:svg="http://www.w3.org/2000/svg" xmlns:xlink="http://www.w3.org/1999/xlink" id="svg3057" width="64" height="64" version="1.1"><defs id="defs3059"><linearGradient id="linearGradient3868"><stop id="stop3870" offset="0" stop-color="#c17d11" stop-opacity="1"/><stop id="stop3873" offset="1" stop-color="#8f5902" stop-opacity="1"/></linearGradient><linearGradient id="linearGradient3859"><stop id="stop3861" offset="0" stop-color="#e9b96e" stop-opacity="1"/><stop id="stop3863" offset="1" stop-color="#8f5902" stop-opacity="1"/></linearGradient><linearGradient id="linearGradient3850"><stop id="stop3852" offset="0" stop-color="#e9b96e" stop-opacity="1"/><stop id="stop3854" offset="1" stop-color="#8f5902" stop-opacity="1"/></linearGradient><linearGradient id="linearGradient3808"><stop id="stop3810" offset="0" stop-color="#e9b96e" stop-opacity="1"/><stop id="stop3812" offset="1" stop-color="#c17d11" stop-opacity="1"/></linearGradient><linearGradient id="linearGradient3891"><stop id="stop3893" offset="0" stop-color="#e3ad6b" stop-opacity="1"/><stop id="stop3895" offset="1" stop-color="#ac6f1a" stop-opacity="1"/></linearGradient><linearGradient id="linearGradient3883"><stop id="stop3885" offset="0" stop-color="#accbcb" stop-opacity=".9"/><stop id="stop3887" offset="1" stop-color="#bed5d5" stop-opacity=".9"/></linearGradient><linearGradient id="linearGradient3878"><stop id="stop3880" offset="0" stop-color="#000" stop-opacity=".588"/><stop id="stop3882" offset="1" stop-color="#000" stop-opacity=".588"/></linearGradient><linearGradient id="linearGradient3870"><stop id="stop3872" offset="0" stop-color="#000" stop-opacity=".196"/><stop id="stop3874" offset="1" stop-color="#000" stop-opacity="1"/></linearGradient><linearGradient id="linearGradient3858"><stop id="stop3868" offset="0" stop-color="#000" stop-opacity=".196"/><stop id="stop3862" offset="1" stop-color="#000" stop-opacity="1"/></linearGradient><linearGradient id="linearGradient3839"><stop id="stop3841" offset="0" stop-color="#01d6d6" stop-opacity="1"/><stop id="stop3843" offset="1" stop-color="#01d6d6" stop-opacity="0"/></linearGradient><linearGradient id="linearGradient3865" x1="7.65" x2="57.406" y1="24.259" y2="24.259" gradientUnits="userSpaceOnUse" xlink:href="#linearGradient3891"/><linearGradient id="linearGradient3867" x1="7.942" x2="56.494" y1="9.713" y2="9.713" gradientUnits="userSpaceOnUse" xlink:href="#linearGradient3891"/><linearGradient id="linearGradient3869" x1="7.65" x2="57.406" y1="24.259" y2="24.259" gradientUnits="userSpaceOnUse" xlink:href="#linearGradient3891"/><linearGradient id="linearGradient3871" x1="7.942" x2="56.494" y1="9.713" y2="9.713" gradientUnits="userSpaceOnUse" xlink:href="#linearGradient3891"/><linearGradient id="linearGradient3889" x1="71.583" x2="107.708" y1="19.009" y2="43.081" gradientTransform="matrix(0.8782269,0,0,0.88301047,-44.309994,6.0680873)" gradientUnits="userSpaceOnUse" xlink:href="#linearGradient3883"/><linearGradient id="linearGradient3814" x1="46" x2="55.333" y1="27.31" y2="31.241" gradientUnits="userSpaceOnUse" xlink:href="#linearGradient3808"/><linearGradient id="linearGradient3814-3" x1="46" x2="55.333" y1="27.31" y2="31.241" gradientUnits="userSpaceOnUse" xlink:href="#linearGradient3808-6"/><linearGradient id="linearGradient3808-6"><stop id="stop3810-7" offset="0" stop-color="#e9b96e" stop-opacity="1"/><stop id="stop3812-5" offset="1" stop-color="#c17d11" stop-opacity="1"/></linearGradient><linearGradient id="linearGradient3831" x1="46" x2="55.333" y1="27.31" y2="31.241" gradientUnits="userSpaceOnUse" xlink:href="#linearGradient3808-6"/><linearGradient id="linearGradient3856" x1="40.667" x2="60" y1="28.586" y2="29.897" gradientTransform="matrix(1.3173403,0,0,1.3477535,-33.504399,-23.628982)" gradientUnits="userSpaceOnUse" xlink:href="#linearGradient3850"/><linearGradient id="linearGradient3866" x1="41.214" x2="62.786" y1="28.997" y2="28.997" gradientTransform="matrix(1.3173403,0,0,1.3477512,-33.504399,16.803688)" gradientUnits="userSpaceOnUse" xlink:href="#linearGradient3859"/><linearGradient id="linearGradient3875" x1="45.333" x2="58.667" y1="27.448" y2="30.724" gradientUnits="userSpaceOnUse" xlink:href="#linearGradient3868"/><linearGradient id="linearGradient3885" x1="41.214" x2="62.786" y1="28.997" y2="28.997" gradientTransform="matrix(1.3173403,0,0,1.3477512,-33.504399,16.803688)" gradientUnits="userSpaceOnUse" xlink:href="#linearGradient3859"/><linearGradient id="linearGradient3887" x1="40.667" x2="60" y1="28.586" y2="29.897" gradientTransform="matrix(1.3173403,0,0,1.3477535,-33.504399,-23.628982)" gradientUnits="userSpaceOnUse" xlink:href="#linearGradient3850"/><linearGradient id="linearGradient3890" x1="45.333" x2="58.667" y1="27.448" y2="30.724" gradientUnits="userSpaceOnUse" xlink:href="#linearGradient3868"/><linearGradient id="linearGradient3892" x1="46" x2="55.333" y1="27.31" y2="31.241" gradientUnits="userSpaceOnUse" xlink:href="#linearGradient3808"/><linearGradient id="linearGradient3894" x1="46" x2="55.333" y1="27.31" y2="31.241" gradientUnits="userSpaceOnUse" xlink:href="#linearGradient3808-6"/></defs><metadata id="metadata3062"/><g id="layer1"><g id="g3851" transform="matrix(1.1386579,0,0,1.1324894,-5.849948,-6.8720445)"><g id="g3877" transform="matrix(0.98824027,0,0,1,-1.3423527,0)"><path id="path3226" fill="#fff" stroke="#2e3436" stroke-linecap="butt" stroke-linejoin="round" stroke-opacity="1" stroke-width="1.772" d="m 21.823894,15.455872 c 0,12.129785 11.093392,16.173045 11.093392,18.868551 0,2.695505 -11.093392,9.434276 -11.093392,21.564058 2.773348,-5.391013 22.186785,-5.391013 26.346807,0 0,-12.129782 -9.706719,-18.868553 -9.706719,-21.564058 0,-2.695506 9.706719,-6.738766 9.706719,-18.868551 z"/><path id="path3204-9" fill="url(#linearGradient3885)" fill-opacity="1" stroke="#271903" stroke-linecap="round" stroke-linejoin="miter" stroke-miterlimit="4" stroke-width="1.772" d="m 48.1707,55.888473 c 0,2.233027 -5.897934,4.043253 -13.173403,4.043253 -7.275469,0 -13.173403,-1.810226 -13.173403,-4.043253 0,-2.233027 -2.634681,-3.903841 13.173403,-4.043254 15.808085,-0.139413 13.173403,1.810227 13.173403,4.043254 z"/><path id="path3204" fill="url(#linearGradient3887)" fill-opacity="1" stroke="#271903" stroke-linecap="round" stroke-linejoin="miter" stroke-miterlimit="4" stroke-width="1.772" d="m 48.1707,15.455869 c 0,2.233031 -5.897934,4.043261 -13.173403,4.043261 -7.275469,0 -13.173403,-1.81023 -13.173403,-4.043261 0,-2.23303 -1.756454,-3.996802 13.173403,-4.04326 14.929857,-0.04646 13.173403,1.81023 13.173403,4.04326 z"/><path id="path3204-9-1" fill="url(#linearGradient3890)" fill-opacity="1" stroke="#271903" stroke-dasharray="none" stroke-linecap="round" stroke-linejoin="miter" stroke-miterlimit="4" stroke-width="1.33" d="m 62,29 c 0,1.656854 -4.477153,3 -10,3 -5.522847,0 -10,-1.343146 -10,-3 0,-1.656854 4.477153,-3 10,-3 5.522847,0 10,1.343146 10,3 z" transform="matrix(1.3173403,0,0,1.3477512,-33.504399,14.108182)"/><path id="path3204-9-2" fill="url(#linearGradient3892)" fill-opacity="1" stroke="#271903" stroke-dasharray="none" stroke-linecap="round" stroke-linejoin="miter" stroke-miterlimit="4" stroke-width="1.33" d="m 62,29 c 0,1.656854 -4.477153,3 -10,3 -5.522847,0 -10,-1.343146 -10,-3 0,-1.656854 4.477153,-3 10,-3 5.522847,0 10,1.343146 10,3 z" transform="matrix(1.3173403,0,0,1.3477512,-33.504399,-26.324413)"/><path id="path3204-9-2-3" fill="url(#linearGradient3894)" fill-opacity="1" stroke="#e9b96e" stroke-dasharray="none" stroke-linecap="round" stroke-linejoin="miter" stroke-miterlimit="4" stroke-width="1.933" d="m 62,29 c 0,1.656854 -4.477153,3 -10,3 -5.522847,0 -10,-1.343146 -10,-3 0,-1.656854 4.477153,-3 10,-3 5.522847,0 10,1.343146 10,3 z" transform="matrix(1.1416949,0,0,0.735842,-24.370837,-8.6487522)"/></g></g></g></svg>