<svg xmlns="http://www.w3.org/2000/svg" xmlns:svg="http://www.w3.org/2000/svg" xmlns:xlink="http://www.w3.org/1999/xlink" id="svg3057" width="64" height="64" version="1.1"><defs id="defs3059"><linearGradient id="linearGradient3862"><stop id="stop3864" offset="0" stop-color="#729fcf" stop-opacity="1"/><stop id="stop3866" offset="1" stop-color="#204a87" stop-opacity="1"/></linearGradient><linearGradient id="linearGradient3814"><stop id="stop3816" offset="0" stop-color="#fff" stop-opacity="1"/><stop id="stop3818" offset="1" stop-color="#d3d7cf" stop-opacity="1"/></linearGradient><linearGradient id="linearGradient3878"><stop id="stop3880" offset="0" stop-color="#000" stop-opacity=".588"/><stop id="stop3882" offset="1" stop-color="#000" stop-opacity=".588"/></linearGradient><linearGradient id="linearGradient3870"><stop id="stop3872" offset="0" stop-color="#000" stop-opacity=".196"/><stop id="stop3874" offset="1" stop-color="#000" stop-opacity="1"/></linearGradient><linearGradient id="linearGradient3858"><stop id="stop3868" offset="0" stop-color="#000" stop-opacity=".196"/><stop id="stop3862" offset="1" stop-color="#000" stop-opacity="1"/></linearGradient><linearGradient id="linearGradient3839"><stop id="stop3841" offset="0" stop-color="#01d6d6" stop-opacity="1"/><stop id="stop3843" offset="1" stop-color="#01d6d6" stop-opacity="0"/></linearGradient><linearGradient id="linearGradient3844-0" x1=".154" x2="64.948" y1=".431" y2="64.895" gradientTransform="matrix(0.83341111,0,0,0.86929423,6.5373399,6.8175926)" gradientUnits="userSpaceOnUse" xlink:href="#linearGradient3838-3"/><linearGradient id="linearGradient3838-3"><stop id="stop3840-1" offset="0" stop-color="#fff" stop-opacity="1"/><stop id="stop3842-2" offset="1" stop-color="#dde0dd" stop-opacity=".093"/></linearGradient><radialGradient id="radialGradient3820" cx="20.946" cy="24.739" r="26.353" fx="20.946" fy="24.739" gradientTransform="matrix(0.49689881,1.3736343,-1.2300244,0.46910229,40.296276,-13.659687)" gradientUnits="userSpaceOnUse" xlink:href="#linearGradient3814"/><radialGradient id="radialGradient3868" cx="44.616" cy="44.709" r="16.079" fx="44.616" fy="44.709" gradientTransform="matrix(1.0625002,-1.0000002,0.91069082,0.96760906,-43.504641,46.064532)" gradientUnits="userSpaceOnUse" xlink:href="#linearGradient3862"/></defs><metadata id="metadata3062"/><g id="layer1"><g id="g3851" transform="matrix(1.1386579,0,0,1.1324894,-5.849948,-6.8720445)"><path id="path3016" fill="url(#radialGradient3820)" fill-opacity="1" stroke="#2e3436" stroke-dasharray="none" stroke-linecap="butt" stroke-linejoin="miter" stroke-miterlimit="4" stroke-opacity="1" stroke-width="1.761" d="M 7.7722627,34.279354 C 20.354267,58.83915 45.233263,59.243588 58.709426,34.409232 45.894758,9.8013263 21.264446,9.3871781 7.7722627,34.279354 z"/><path id="path3808" fill="url(#radialGradient3868)" fill-opacity="1" fill-rule="evenodd" stroke="#204a87" stroke-width="2.01" d="m 53.660798,37.674473 a 15.074067,15.074067 0 1 1 -30.148134,0 15.074067,15.074067 0 1 1 30.148134,0 z" transform="matrix(0.87391169,0,0,0.87867175,-0.48055252,1.2209273)"/><path id="path3810" fill="#2e3436" fill-opacity="1" fill-rule="evenodd" stroke="#2e3436" stroke-width="2.224" d="m 40.9626,32.986366 a 7.7852244,7.7852244 0 1 1 -15.570449,0 7.7852244,7.7852244 0 1 1 15.570449,0 z" transform="matrix(0.78964818,0,0,0.79394928,7.0423882,8.1349206)"/><path id="path3016-7" fill="none" stroke="#888a85" stroke-dasharray="none" stroke-linecap="butt" stroke-linejoin="miter" stroke-miterlimit="4" stroke-opacity="1" stroke-width="1.761" d="M 9.5287167,34.283648 C 21.242996,56.504419 44.406199,56.870339 56.95297,34.401158 45.022072,12.136861 22.090404,11.762154 9.5287167,34.283648 z"/><path id="path3808-0" fill="none" stroke="#729fcf" stroke-width="2.319" d="m 53.660798,37.674473 a 15.074067,15.074067 0 1 1 -30.148134,0 15.074067,15.074067 0 1 1 30.148134,0 z" transform="matrix(0.75739013,0,0,0.76151552,4.0156334,5.6347265)"/></g></g></svg>