<svg xmlns="http://www.w3.org/2000/svg" xmlns:svg="http://www.w3.org/2000/svg" xmlns:xlink="http://www.w3.org/1999/xlink" id="svg2994" width="48" height="48"><defs id="defs3"><radialGradient id="radialGradient5031" cx="605.714" cy="486.648" r="117.143" fx="605.714" fy="486.648" gradientTransform="matrix(-2.774389,0,0,1.969706,112.7623,-872.8854)" gradientUnits="userSpaceOnUse" xlink:href="#linearGradient5060"/><linearGradient id="linearGradient5060"><stop id="stop5062" offset="0" stop-color="#000" stop-opacity="1"/><stop id="stop5064" offset="1" stop-color="#000" stop-opacity="0"/></linearGradient><radialGradient id="radialGradient5029" cx="605.714" cy="486.648" r="117.143" fx="605.714" fy="486.648" gradientTransform="matrix(2.774389,0,0,1.969706,-1891.633,-872.8854)" gradientUnits="userSpaceOnUse" xlink:href="#linearGradient5060"/><linearGradient id="linearGradient5048"><stop id="stop5050" offset="0" stop-color="#000" stop-opacity="0"/><stop id="stop5056" offset=".5" stop-color="#000" stop-opacity="1"/><stop id="stop5052" offset="1" stop-color="#000" stop-opacity="0"/></linearGradient><linearGradient id="linearGradient5027" x1="302.857" x2="302.857" y1="366.648" y2="609.505" gradientTransform="matrix(2.774389,0,0,1.969706,-1892.179,-872.8854)" gradientUnits="userSpaceOnUse" xlink:href="#linearGradient5048"/><linearGradient id="linearGradient4467"><stop id="stop4469" offset="0" stop-color="#fff" stop-opacity="1"/><stop id="stop4471" offset="1" stop-color="#fff" stop-opacity=".248"/></linearGradient><radialGradient id="radialGradient1876" cx="15.414" cy="13.078" r="6.656" fx="15.414" fy="13.078" gradientTransform="matrix(2.592963,-7.746900e-24,-5.714443e-24,2.252104,-25.05975,-18.94100)" gradientUnits="userSpaceOnUse" xlink:href="#linearGradient4467"/><linearGradient id="linearGradient4454"><stop id="stop4456" offset="0" stop-color="#729fcf" stop-opacity=".208"/><stop id="stop4458" offset="1" stop-color="#729fcf" stop-opacity=".676"/></linearGradient><radialGradient id="radialGradient4460" cx="18.241" cy="21.818" r="8.309" fx="18.241" fy="21.818" gradientUnits="userSpaceOnUse" xlink:href="#linearGradient4454"/><linearGradient id="linearGradient2366"><stop id="stop2368" offset="0" stop-color="#fff" stop-opacity="1"/><stop id="stop2374" offset=".5" stop-color="#fff" stop-opacity=".219"/><stop id="stop2370" offset="1" stop-color="#fff" stop-opacity="1"/></linearGradient><linearGradient id="linearGradient2372" x1="18.293" x2="17.501" y1="13.602" y2="25.743" gradientUnits="userSpaceOnUse" xlink:href="#linearGradient2366"/><linearGradient id="linearGradient4440"><stop id="stop4442" offset="0" stop-color="#7d7d7d" stop-opacity="1"/><stop id="stop4448" offset=".5" stop-color="#b1b1b1" stop-opacity="1"/><stop id="stop4444" offset="1" stop-color="#686868" stop-opacity="1"/></linearGradient><linearGradient id="linearGradient1883" x1="30.656" x2="33.219" y1="34" y2="31.063" gradientTransform="matrix(1.334593,0.000000,0.000000,1.291292,-6.973842,-7.460658)" gradientUnits="userSpaceOnUse" xlink:href="#linearGradient4440"/><linearGradient id="linearGradient2846"><stop id="stop2848" offset="0" stop-color="#8a8a8a" stop-opacity="1"/><stop id="stop2850" offset="1" stop-color="#484848" stop-opacity="1"/></linearGradient><linearGradient id="linearGradient1887" x1="27.366" x2="31.336" y1="26.58" y2="30.558" gradientUnits="userSpaceOnUse" xlink:href="#linearGradient2846"/><linearGradient id="linearGradient7612"><stop id="stop7614" offset="0" stop-color="#000" stop-opacity="1"/><stop id="stop7616" offset="1" stop-color="#000" stop-opacity="0"/></linearGradient><radialGradient id="radialGradient7618" cx="24" cy="41.875" r="19.125" fx="24" fy="41.875" gradientTransform="matrix(1.000000,0.000000,0.000000,0.333333,0.000000,27.91667)" gradientUnits="userSpaceOnUse" xlink:href="#linearGradient7612"/><linearGradient id="linearGradient4762"><stop id="stop4764" offset="0" stop-color="#fff" stop-opacity=".124"/><stop id="stop4768" offset=".103" stop-color="#fff" stop-opacity="1"/><stop id="stop4766" offset="1" stop-color="#fff" stop-opacity="0"/></linearGradient><linearGradient id="linearGradient4741"><stop id="stop4743" offset="0" stop-color="#dcdcda" stop-opacity="1"/><stop id="stop4745" offset="1" stop-color="#bab9b7" stop-opacity="1"/></linearGradient><linearGradient id="linearGradient4733"><stop id="stop4735" offset="0" stop-color="#000" stop-opacity=".237"/><stop id="stop4737" offset="1" stop-color="#000" stop-opacity="0"/></linearGradient><linearGradient id="linearGradient4698"><stop id="stop4700" offset="0" stop-color="#fffffd" stop-opacity="1"/><stop id="stop4706" offset=".5" stop-color="#bbbbb9" stop-opacity="1"/><stop id="stop4702" offset="1" stop-color="#000" stop-opacity="1"/></linearGradient><linearGradient id="linearGradient4688"><stop id="stop4690" offset="0" stop-color="#666" stop-opacity="1"/><stop id="stop4692" offset="1" stop-color="#000" stop-opacity="0"/></linearGradient><linearGradient id="linearGradient4680"><stop id="stop4682" offset="0" stop-color="#f7f6f5" stop-opacity="1"/><stop id="stop4684" offset="1" stop-color="#f7f6f5" stop-opacity="0"/></linearGradient><linearGradient id="linearGradient4668"><stop id="stop4670" offset="0" stop-color="#8e8d87" stop-opacity="1"/><stop id="stop4676" offset=".276" stop-color="#cbc9c1" stop-opacity="1"/><stop id="stop4672" offset="1" stop-color="#8e8d87" stop-opacity="1"/></linearGradient><linearGradient id="linearGradient259"><stop id="stop260" offset="0" stop-color="#e0e0e0" stop-opacity="1"/><stop id="stop4886" offset=".405" stop-color="#fff" stop-opacity="1"/><stop id="stop4884" offset=".534" stop-color="#cdcdcd" stop-opacity="1"/><stop id="stop261" offset="1" stop-color="#494949" stop-opacity="1"/></linearGradient><linearGradient id="linearGradient15662"><stop id="stop15664" offset="0" stop-color="#fff" stop-opacity="0"/><stop id="stop15666" offset="1" stop-color="#f8f8f8" stop-opacity="1"/></linearGradient><radialGradient id="radialGradient1433" cx="9.13" cy="26.926" r="2.123" fx="9.13" fy="26.926" gradientUnits="userSpaceOnUse" xlink:href="#linearGradient4698"/><linearGradient id="linearGradient1447" x1="9.87" x2="9.913" y1="57.228" y2="72.064" gradientTransform="matrix(2.772086,0.000000,0.000000,0.360739,0.618718,2.883883)" gradientUnits="userSpaceOnUse" xlink:href="#linearGradient4733"/><linearGradient id="linearGradient1451" x1="10.338" x2="10.338" y1="64.652" y2="54.136" gradientTransform="matrix(2.369844,0.000000,0.000000,0.421969,0.000000,2.000000)" gradientUnits="userSpaceOnUse" xlink:href="#linearGradient4680"/><linearGradient id="linearGradient1453" x1="9.732" x2="9.705" y1="70.725" y2="62.282" gradientTransform="matrix(2.369844,0.000000,0.000000,0.421969,0.000000,2.000000)" gradientUnits="userSpaceOnUse" xlink:href="#linearGradient4688"/><linearGradient id="linearGradient1456" x1="20.771" x2="20.718" y1="25.14" y2="19.337" gradientTransform="matrix(1.196549,0,0,0.853565,-0.122464,2.034513)" gradientUnits="userSpaceOnUse" xlink:href="#linearGradient15662"/><linearGradient id="linearGradient1459" x1="25.057" x2="24.79" y1="3.679" y2="25.247" gradientTransform="matrix(0.945288,0,0,1.075484,5.460076e-2,4.105725)" gradientUnits="userSpaceOnUse" xlink:href="#linearGradient259"/><linearGradient id="linearGradient1464" x1="15.388" x2="15.488" y1="32.539" y2="58.831" gradientTransform="matrix(1.490161,0,0,0.667712,8.895128e-2,2.058442)" gradientUnits="userSpaceOnUse" xlink:href="#linearGradient4762"/><linearGradient id="linearGradient1468" x1="1.846" x2="18.972" y1="88.295" y2="88.295" gradientTransform="matrix(2.291824,0,0,0.434269,8.855179e-2,2)" gradientUnits="userSpaceOnUse" xlink:href="#linearGradient4741"/><linearGradient id="linearGradient1471" x1="1.846" x2="18.972" y1="88.295" y2="88.295" gradientTransform="matrix(2.302720,0.000000,0.000000,0.434269,0.000000,0.875000)" gradientUnits="userSpaceOnUse" xlink:href="#linearGradient4668"/></defs><metadata id="metadata4"/><g id="layer1"><g id="g5022" display="inline" transform="matrix(2.411405e-2,0,0,1.929202e-2,45.48953,39.75228)"><rect stroke-linejoin="miter" style="marker:none" id="rect4173" width="1339.633" height="478.357" x="-1559.252" y="-150.697" fill="url(#linearGradient5027)" fill-opacity="1" fill-rule="nonzero" stroke="none" stroke-dasharray="none" stroke-dashoffset="0" stroke-linecap="round" stroke-miterlimit="4" stroke-opacity="1" stroke-width="1" marker-end="none" marker-mid="none" marker-start="none" color="#000" display="inline" opacity=".402" overflow="visible" visibility="visible"/><path stroke-width="1" style="marker:none" id="path5058" fill="url(#radialGradient5029)" fill-opacity="1" fill-rule="nonzero" stroke="none" stroke-dasharray="none" stroke-dashoffset="0" stroke-linecap="round" stroke-linejoin="miter" stroke-miterlimit="4" stroke-opacity="1" marker-end="none" marker-mid="none" marker-start="none" d="M -219.61876,-150.68038 C -219.61876,-150.68038 -219.61876,327.65041 -219.61876,327.65041 C -76.744594,328.55086 125.78146,220.48075 125.78138,88.454235 C 125.78138,-43.572302 -33.655436,-150.68036 -219.61876,-150.68038 z" color="#000" display="inline" opacity=".402" overflow="visible" visibility="visible"/><path id="path5018" fill="url(#radialGradient5031)" fill-opacity="1" fill-rule="nonzero" stroke="none" stroke-dasharray="none" stroke-dashoffset="0" stroke-linecap="round" stroke-linejoin="miter" stroke-miterlimit="4" stroke-opacity="1" stroke-width="1" marker-end="none" marker-mid="none" marker-start="none" d="M -1559.2523,-150.68038 C -1559.2523,-150.68038 -1559.2523,327.65041 -1559.2523,327.65041 C -1702.1265,328.55086 -1904.6525,220.48075 -1904.6525,88.454235 C -1904.6525,-43.572302 -1745.2157,-150.68036 -1559.2523,-150.68038 z" color="#000" display="inline" opacity=".402" overflow="visible" visibility="visible" style="marker:none"/></g><rect id="rect4652" width="38.438" height="6.438" x="4.75" y="36" fill="url(#linearGradient1471)" fill-opacity="1" stroke="#595959" stroke-miterlimit="4" stroke-opacity="1" stroke-width="1" rx="1.712" ry="1.712"/><path stroke-width="1" style="marker:none" id="rect4609" fill="url(#linearGradient1468)" fill-opacity="1" fill-rule="nonzero" stroke="#676767" stroke-dashoffset="0" stroke-linecap="butt" stroke-linejoin="miter" stroke-miterlimit="4" stroke-opacity="1" marker-end="none" marker-mid="none" marker-start="none" d="M 7.1308961,21.5 L 40.870615,21.5 C 41.255661,21.5 41.747648,21.788155 42.051049,22.223919 C 42.354451,22.659684 43.787518,24.83394 44.109448,25.297964 C 44.431378,25.761987 44.502397,26.201852 44.502397,26.774049 L 44.502397,38.850951 C 44.502397,39.764524 43.770402,40.5 42.861152,40.5 L 5.1403596,40.5 C 4.2311094,40.5 3.4991138,39.764524 3.4991138,38.850951 L 3.4991138,26.774049 C 3.4991138,26.280031 3.6002798,25.571641 3.9455202,25.120718 C 4.3811666,24.551713 5.5498664,22.57277 5.8581276,22.153118 C 6.1663887,21.733467 6.7324461,21.5 7.1308961,21.5 z" color="#000" display="inline" overflow="visible" visibility="visible"/><path id="path4718" fill="#fbfbfb" fill-opacity="1" fill-rule="evenodd" stroke="none" stroke-linecap="butt" stroke-linejoin="miter" stroke-opacity="1" stroke-width="1" d="M 7.7468087,22 C 7.2538918,22 6.6200916,22.131117 6.360195,22.533013 L 4.5402642,25.347295 C 4.247295,25.800333 4.573548,26.868141 5.455113,26.868141 L 42.36394,26.868141 C 43.5564,26.868141 43.559882,25.863124 43.278788,25.435241 L 41.545521,22.796852 C 41.231243,22.318456 41.117169,22 40.332233,22 L 7.7468087,22 z"/><path id="path4750" fill="none" fill-opacity="1" fill-rule="nonzero" stroke="url(#linearGradient1464)" stroke-dashoffset="0" stroke-linecap="butt" stroke-linejoin="miter" stroke-miterlimit="4" stroke-opacity="1" stroke-width=".947" marker-end="none" marker-mid="none" marker-start="none" d="M 7.6002951,22.472753 L 40.374658,22.472753 C 40.739745,22.472753 41.206233,22.745206 41.493909,23.157226 C 41.781585,23.569246 42.788049,25.183766 43.093293,25.622505 C 43.398536,26.061244 43.528159,26.477141 43.528159,27.018159 L 43.528159,38.281906 C 43.528159,39.145699 43.394653,39.52908 42.532529,39.52908 L 5.5305059,39.52908 C 4.6683828,39.52908 4.472593,39.145699 4.472593,38.281906 L 4.472593,27.018159 C 4.472593,26.55106 4.6930819,25.88127 5.0204282,25.454917 C 5.4334949,24.916917 6.1012112,23.487067 6.393495,23.090283 C 6.6857788,22.693498 7.222497,22.472753 7.6002951,22.472753 z" color="#000" display="inline" overflow="visible" visibility="visible" style="marker:none"/><path stroke-width="1" style="marker:none" id="rect15391" fill="url(#linearGradient1459)" fill-opacity="1" fill-rule="nonzero" stroke="#898989" stroke-dashoffset="0" stroke-linecap="round" stroke-linejoin="miter" stroke-miterlimit="4" stroke-opacity="1" marker-end="none" marker-mid="none" marker-start="none" d="M 11.672214,4.5100628 L 36.313379,4.5100628 C 36.963853,4.5100628 37.487519,5.0199333 37.487519,5.6532701 L 37.487519,24.348185 L 10.498074,24.348185 L 10.498074,5.6532701 C 10.498074,5.0199333 11.02174,4.5100628 11.672214,4.5100628 z" color="#000" display="block" overflow="visible" visibility="visible"/><rect id="rect15660" width="24.954" height="18.836" x="11.498" y="5.499" fill="none" fill-opacity="1" fill-rule="nonzero" stroke="url(#linearGradient1456)" stroke-dashoffset="0" stroke-linecap="round" stroke-linejoin="round" stroke-miterlimit="4" stroke-opacity="1" stroke-width="1" marker-end="none" marker-mid="none" marker-start="none" color="#000" display="block" overflow="visible" rx=".177" ry=".177" visibility="visible" style="marker:none"/><rect id="rect4678" width="33.75" height="5.188" x="6.875" y="27.375" fill="url(#linearGradient1451)" fill-opacity="1" stroke="url(#linearGradient1453)" stroke-miterlimit="4" stroke-opacity="1" stroke-width="1" rx="1.712" ry="1.712"/><path id="path4696" fill="url(#radialGradient1433)" fill-opacity="1" stroke="none" stroke-miterlimit="4" stroke-opacity="1" stroke-width="1" d="M 10.871767 27.626486 A 1.2816310 1.2816310 0 1 1 8.3085046,27.626486 A 1.2816310 1.2816310 0 1 1 10.871767 27.626486 z" transform="translate(0.000000,2.000000)"/><path id="path4731" fill="url(#linearGradient1447)" fill-opacity="1" fill-rule="evenodd" stroke="none" stroke-linecap="butt" stroke-linejoin="miter" stroke-opacity="1" stroke-width="1" d="M 11.743718,25.416053 L 37.306218,25.478553 C 37.993716,25.480234 38.294038,25.107558 38.243718,24.478553 L 38.118718,22.916053 L 39.984835,22.916053 C 40.797335,22.916053 40.975035,23.108616 41.172335,23.478553 L 41.672335,24.416053 C 42.199130,25.403793 43.483508,26.390165 42.170495,26.390165 C 37.667784,26.390165 13.993718,26.041053 11.743718,25.416053 z" opacity=".366"/><path id="path4760" fill="none" fill-opacity=".75" fill-rule="evenodd" stroke="#fff" stroke-linecap="round" stroke-linejoin="round" stroke-opacity="1" stroke-width="1" d="M 42.937500,26.750000 L 4.8125000,26.750000"/><g id="g4849" opacity=".436" transform="translate(0.000000,2.000000)"><rect id="rect4831" width="19" height="1" x="14" y="5" fill="#000" fill-opacity=".292" fill-rule="nonzero" stroke="none" stroke-dashoffset="0" stroke-linecap="round" stroke-linejoin="round" stroke-miterlimit="4" stroke-opacity="1" stroke-width="1" marker-end="none" marker-mid="none" marker-start="none" color="#000" display="inline" overflow="visible" visibility="visible" style="marker:none"/><rect stroke-linejoin="round" style="marker:none" id="rect4833" width="19" height="1" x="14" y="7" fill="#000" fill-opacity=".292" fill-rule="nonzero" stroke="none" stroke-dashoffset="0" stroke-linecap="round" stroke-miterlimit="4" stroke-opacity="1" stroke-width="1" marker-end="none" marker-mid="none" marker-start="none" color="#000" display="inline" overflow="visible" visibility="visible"/><rect id="rect4835" width="19" height="1" x="14" y="9" fill="#000" fill-opacity=".292" fill-rule="nonzero" stroke="none" stroke-dashoffset="0" stroke-linecap="round" stroke-linejoin="round" stroke-miterlimit="4" stroke-opacity="1" stroke-width="1" marker-end="none" marker-mid="none" marker-start="none" color="#000" display="inline" overflow="visible" visibility="visible" style="marker:none"/><rect stroke-linejoin="round" style="marker:none" id="rect4837" width="19" height="1" x="14" y="11" fill="#000" fill-opacity=".292" fill-rule="nonzero" stroke="none" stroke-dashoffset="0" stroke-linecap="round" stroke-miterlimit="4" stroke-opacity="1" stroke-width="1" marker-end="none" marker-mid="none" marker-start="none" color="#000" display="inline" overflow="visible" visibility="visible"/><rect id="rect4839" width="11" height="1" x="14" y="13" fill="#000" fill-opacity=".292" fill-rule="nonzero" stroke="none" stroke-dashoffset="0" stroke-linecap="round" stroke-linejoin="round" stroke-miterlimit="4" stroke-opacity="1" stroke-width="1" marker-end="none" marker-mid="none" marker-start="none" color="#000" display="inline" overflow="visible" visibility="visible" style="marker:none"/><rect id="rect4843" width="19" height="1" x="14" y="17" fill="#000" fill-opacity=".292" fill-rule="nonzero" stroke="none" stroke-dashoffset="0" stroke-linecap="round" stroke-linejoin="round" stroke-miterlimit="4" stroke-opacity="1" stroke-width="1" marker-end="none" marker-mid="none" marker-start="none" color="#000" display="inline" overflow="visible" visibility="visible" style="marker:none"/><rect stroke-linejoin="round" style="marker:none" id="rect4845" width="19" height="1" x="14" y="19" fill="#000" fill-opacity=".292" fill-rule="nonzero" stroke="none" stroke-dashoffset="0" stroke-linecap="round" stroke-miterlimit="4" stroke-opacity="1" stroke-width="1" marker-end="none" marker-mid="none" marker-start="none" color="#000" display="inline" overflow="visible" visibility="visible"/></g><g id="g1890" transform="matrix(0.715678,0.000000,0.000000,0.715678,4.077534,4.713886)"><path stroke-width="2.795" style="marker:none" id="path2844" fill="#dcdcdc" fill-opacity="1" fill-rule="evenodd" stroke="url(#linearGradient1887)" stroke-dasharray="none" stroke-dashoffset="0" stroke-linecap="round" stroke-linejoin="miter" stroke-miterlimit="10" stroke-opacity="1" marker-end="none" marker-mid="none" marker-start="none" d="M 18.627569,3.1435548 C 10.488439,3.1435548 3.8827682,9.7492259 3.8827682,17.888356 C 3.8827682,26.027486 10.488439,32.633158 18.627569,32.633158 C 22.107124,32.633158 25.178570,31.248765 27.701292,29.230511 C 27.495915,30.237392 27.623257,31.265879 28.457436,31.990436 L 39.421520,41.517846 C 40.654936,42.589175 42.508982,42.448806 43.580310,41.215389 C 44.651638,39.981971 44.511269,38.127927 43.277853,37.056599 L 32.313769,27.529188 C 31.642242,26.945909 30.820891,26.773219 30.007531,26.886466 C 31.994231,24.374044 33.372370,21.337663 33.372370,17.888356 C 33.372370,9.7492259 26.766699,3.1435548 18.627569,3.1435548 z M 18.551954,4.3697381 C 26.191413,4.3697381 31.843729,9.1586886 31.843729,17.661513 C 31.843729,26.336626 26.027039,30.953288 18.551954,30.953288 C 11.249005,30.953288 5.2601806,25.475196 5.2601806,17.661513 C 5.2601806,9.6774061 11.084819,4.3697380 18.551954,4.3697381 z" color="#000" display="inline" opacity="1" overflow="visible" visibility="visible"/><path id="path4430" fill="#dcdcdc" fill-opacity="1" fill-rule="evenodd" stroke="none" stroke-dasharray="none" stroke-dashoffset="0" stroke-linecap="round" stroke-linejoin="miter" stroke-miterlimit="10" stroke-opacity="1" stroke-width="1" marker-end="none" marker-mid="none" marker-start="none" d="M 18.602905,3.0803551 C 10.437465,3.0803551 3.8104408,9.7073791 3.8104408,17.872819 C 3.8104408,26.038259 10.437465,32.665283 18.602905,32.665283 C 22.093708,32.665283 25.175082,31.276416 27.705960,29.251638 C 27.499919,30.261774 27.627672,31.293585 28.464547,32.020484 L 39.464073,41.578691 C 40.701476,42.653483 42.561515,42.512661 43.636306,41.275256 C 44.711097,40.037852 44.570274,38.177814 43.332871,37.103023 L 32.333346,27.544815 C 31.659648,26.959651 30.835642,26.786402 30.019653,26.900016 C 32.012775,24.379472 33.395369,21.333276 33.395369,17.872819 C 33.395369,9.7073791 26.768345,3.0803551 18.602905,3.0803551 z M 18.527046,6.2664243 C 24.808154,6.2664245 29.905864,11.364135 29.905864,17.645243 C 29.905864,23.926351 24.808154,29.024061 18.527046,29.024061 C 12.245938,29.024061 7.1482276,23.926351 7.1482276,17.645243 C 7.1482278,11.364135 12.245938,6.2664243 18.527046,6.2664243 z" color="#000" display="inline" opacity="1" overflow="visible" visibility="visible" style="marker:none"/><path id="path4438" fill="url(#linearGradient1883)" fill-opacity="1" fill-rule="evenodd" stroke="none" stroke-dasharray="none" stroke-dashoffset="0" stroke-linecap="round" stroke-linejoin="miter" stroke-miterlimit="10" stroke-opacity="1" stroke-width="1" marker-end="none" marker-mid="none" marker-start="none" d="M 39.507004,41.577690 C 39.028332,39.304503 40.904334,36.766268 43.091057,36.789315 C 43.091057,36.789315 32.330690,27.531204 32.330690,27.531204 C 29.385899,27.474498 28.061188,29.803820 28.553876,32.131126 L 39.507004,41.577690 z" color="#000" display="inline" opacity="1" overflow="visible" visibility="visible" style="marker:none"/><path id="path4450" fill="none" fill-opacity="1" fill-rule="evenodd" stroke="url(#linearGradient2372)" stroke-dasharray="none" stroke-dashoffset="0" stroke-linecap="round" stroke-linejoin="miter" stroke-miterlimit="10" stroke-opacity="1" stroke-width="1.122" marker-end="none" marker-mid="none" marker-start="none" d="M 28.549437 18.920233 A 11.048544 11.048544 0 1 1 6.4523487,18.920233 A 11.048544 11.048544 0 1 1 28.549437 18.920233 z" color="#000" display="inline" opacity="1" overflow="visible" transform="matrix(1.245743,0.000000,0.000000,1.245743,-3.425346,-6.177033)" visibility="visible" style="marker:none"/><rect id="rect4495" width="19.048" height="4.44" x="40.373" y=".141" fill="none" fill-opacity="1" fill-rule="evenodd" stroke="#fff" stroke-dasharray="none" stroke-dashoffset="0" stroke-linecap="round" stroke-linejoin="miter" stroke-miterlimit="10" stroke-opacity="1" stroke-width="1.397" marker-end="none" marker-mid="none" marker-start="none" color="#000" display="inline" opacity=".433" overflow="visible" rx="2.986" ry="2.638" transform="matrix(0.752986,0.658037,-0.648902,0.760872,0.000000,0.000000)" visibility="visible" style="marker:none"/><path id="path4452" fill="url(#radialGradient4460)" fill-opacity="1" fill-rule="evenodd" stroke="#3063a3" stroke-dashoffset="0" stroke-linecap="round" stroke-linejoin="miter" stroke-miterlimit="10" stroke-opacity="1" stroke-width=".999" marker-end="none" marker-mid="none" marker-start="none" d="M 25.897786 18.478292 A 8.3085051 8.3085051 0 1 1 9.2807760,18.478292 A 8.3085051 8.3085051 0 1 1 25.897786 18.478292 z" color="#000" transform="matrix(1.398614,0.000000,0.000000,1.398614,-6.224338,-8.298958)" visibility="visible" style="marker:none"/><path id="path4462" fill="url(#radialGradient1876)" fill-opacity="1" fill-rule="evenodd" stroke="none" stroke-dasharray="none" stroke-dashoffset="0" stroke-linecap="round" stroke-linejoin="miter" stroke-miterlimit="10" stroke-opacity="1" stroke-width="1" marker-end="none" marker-mid="none" marker-start="none" d="M 18.156915,7.3966938 C 12.949325,7.3966938 8.7323681,11.613651 8.7323681,16.821241 C 8.7323681,18.325216 9.1526753,19.709014 9.7795400,20.971144 C 11.031920,21.432757 12.362297,21.746827 13.774307,21.746827 C 19.945262,21.746827 24.873589,16.885190 25.254413,10.809698 C 23.523449,8.7641668 21.044374,7.3966938 18.156915,7.3966938 z" color="#000" display="inline" opacity=".834" overflow="visible" visibility="visible" style="marker:none"/></g></g></svg>