<svg xmlns="http://www.w3.org/2000/svg" xmlns:svg="http://www.w3.org/2000/svg" xmlns:xlink="http://www.w3.org/1999/xlink" id="svg4025" width="64" height="64" version="1.1"><defs id="defs4027"><linearGradient id="linearGradient3799"><stop id="stop3801" offset="0" stop-color="#204a87" stop-opacity="1"/><stop id="stop3803" offset="1" stop-color="#3465a4" stop-opacity="1"/></linearGradient><linearGradient id="linearGradient3791"><stop id="stop3793" offset="0" stop-color="#3465a4" stop-opacity="1"/><stop id="stop3795" offset="1" stop-color="#729fcf" stop-opacity="1"/></linearGradient><linearGradient id="linearGradient3999" x1="901.188" x2="1267.906" y1="1190.875" y2="1190.875" gradientTransform="matrix(0.10456791,0,0,0.10456791,420.90006,31.02362)" gradientUnits="userSpaceOnUse" xlink:href="#linearGradient4095"/><linearGradient id="linearGradient4095"><stop id="stop4097" offset="0" stop-color="#0044be" stop-opacity="1"/><stop id="stop4099" offset="1" stop-color="#2b90cc" stop-opacity="1"/></linearGradient><linearGradient id="linearGradient2979" x1="901.188" x2="1267.906" y1="1190.875" y2="1190.875" gradientTransform="matrix(0.13878644,0,0,0.1266123,-61.41255,-154.04118)" gradientUnits="userSpaceOnUse" xlink:href="#linearGradient4095"/><linearGradient id="linearGradient3797" x1="448.724" x2="434.476" y1="115.006" y2="78.006" gradientUnits="userSpaceOnUse" xlink:href="#linearGradient3791"/><linearGradient id="linearGradient3805" x1="444.654" x2="429.388" y1="117.006" y2="86.006" gradientUnits="userSpaceOnUse" xlink:href="#linearGradient3799"/></defs><metadata id="metadata4030"/><g id="layer1" transform="translate(0,32)"><g id="g3973" transform="matrix(0.98259094,0,0,1,-413.91255,-100.0061)"><path id="path3969" fill="#fff" stroke="#0b1521" stroke-linecap="butt" stroke-linejoin="round" stroke-opacity="1" stroke-width="2.018" d="m 479.25595,111.0061 4.07087,18 -18.31892,-4 -2.03543,-4 12.21261,-12 z"/><path id="path3843" fill="#729fcf" stroke="none" d="m 438.54725,71.006094 -4.07087,4 40.7087,40.000006 c 0,-3 1.01772,-4 4.07087,-4 z"/><path id="path3843-7" fill="url(#linearGradient3797)" fill-opacity="1" stroke="none" d="m 434.47638,75.006087 -6.10631,6.000013 40.7087,40 c 0,-3 3.05316,-6 6.10631,-6 z"/><path id="path3843-5" fill="url(#linearGradient3805)" fill-opacity="1" stroke="none" d="m 428.37007,81.0061 -4.07087,4 40.7087,40 c 0,-3 1.01772,-4 4.07087,-4 z"/><path id="path3843-5-6" fill="none" stroke="#0b1521" stroke-linecap="butt" stroke-linejoin="round" stroke-opacity="1" stroke-width="2.018" d="m 438.54725,71.006097 -4.07087,4 40.7087,40.000003 c 0,-3 1.01772,-4 4.07087,-4 z"/><path id="path3843-5-6-2" fill="none" stroke="#0b1521" stroke-linecap="butt" stroke-linejoin="round" stroke-opacity="1" stroke-width="2.018" d="m 434.47638,75.006097 -6.10631,6.000003 40.7087,40 c 0,-3 3.05316,-6 6.10631,-6 z"/><path id="path3807" fill="none" stroke="#3465a4" stroke-linecap="butt" stroke-linejoin="miter" stroke-opacity="1" stroke-width="2" d="M 4.9999978,16 43.999998,55.156281" transform="matrix(1.0177175,0,0,1,421.24605,68.0061)"/><path id="path3843-5-6-9" fill="none" stroke="#0b1521" stroke-linecap="butt" stroke-linejoin="round" stroke-opacity="1" stroke-width="2.018" d="m 428.37007,81.0061 -4.07087,4 40.7087,40 c 0,-3 1.01772,-4 4.07087,-4 z"/><path id="path3971" fill="#0b1521" stroke="#0b1521" stroke-linecap="butt" stroke-linejoin="round" stroke-opacity="1" stroke-width="1.009" d="m 479.25595,122.0061 c -1.01772,0 -3.63385,2.51623 -4.07087,5 l 8.14174,2 -3.05315,-7 -1.01772,0"/></g></g></svg>