<svg xmlns="http://www.w3.org/2000/svg" xmlns:cc="http://web.resource.org/cc/" xmlns:svg="http://www.w3.org/2000/svg" xmlns:xlink="http://www.w3.org/1999/xlink" id="svg57" width="48" height="48"><defs id="defs3"><linearGradient id="linearGradient3241"><stop id="stop3243" offset="0" stop-color="#fff" stop-opacity="1"/><stop id="stop3245" offset="1" stop-color="#fff" stop-opacity="0"/></linearGradient><linearGradient id="linearGradient3229"><stop id="stop3231" offset="0" stop-color="#598bcb" stop-opacity="1"/><stop id="stop3249" offset=".757" stop-color="#2f5c96" stop-opacity="1"/><stop id="stop3233" offset="1" stop-color="#203e65" stop-opacity="1"/></linearGradient><linearGradient id="linearGradient3175"><stop id="stop3177" offset="0" stop-color="#000" stop-opacity="1"/><stop id="stop3179" offset="1" stop-color="#000" stop-opacity="0"/></linearGradient><linearGradient id="linearGradient3159"><stop id="stop3161" offset="0" stop-color="#000" stop-opacity="1"/><stop id="stop3163" offset="1" stop-color="#000" stop-opacity="0"/></linearGradient><linearGradient id="linearGradient3141"><stop id="stop3143" offset="0" stop-color="#a40000" stop-opacity="1"/><stop id="stop3145" offset="1" stop-color="#ffc4c4" stop-opacity="1"/></linearGradient><linearGradient id="linearGradient3008"><stop id="stop3010" offset="0" stop-color="#fff" stop-opacity="1"/><stop id="stop3012" offset="1" stop-color="#d3d3d3" stop-opacity="1"/></linearGradient><linearGradient id="linearGradient2978"><stop id="stop2980" offset="0" stop-color="#fff" stop-opacity="1"/><stop id="stop2982" offset="1" stop-color="#d5d5d5" stop-opacity="1"/></linearGradient><linearGradient id="linearGradient2964"><stop id="stop2966" offset="0" stop-color="#000" stop-opacity="1"/><stop id="stop2968" offset="1" stop-color="#000" stop-opacity="0"/></linearGradient><radialGradient id="radialGradient6719" cx="605.714" cy="486.648" r="117.143" fx="605.714" fy="486.648" gradientTransform="matrix(-2.774389,0,0,1.969706,112.7623,-872.8854)" gradientUnits="userSpaceOnUse" xlink:href="#linearGradient5060"/><linearGradient id="linearGradient5060"><stop id="stop5062" offset="0" stop-color="#000" stop-opacity="1"/><stop id="stop5064" offset="1" stop-color="#000" stop-opacity="0"/></linearGradient><radialGradient id="radialGradient6717" cx="605.714" cy="486.648" r="117.143" fx="605.714" fy="486.648" gradientTransform="matrix(2.774389,0,0,1.969706,-1891.633,-872.8854)" gradientUnits="userSpaceOnUse" xlink:href="#linearGradient5060"/><linearGradient id="linearGradient5048"><stop id="stop5050" offset="0" stop-color="#000" stop-opacity="0"/><stop id="stop5056" offset=".5" stop-color="#000" stop-opacity="1"/><stop id="stop5052" offset="1" stop-color="#000" stop-opacity="0"/></linearGradient><linearGradient id="linearGradient6715" x1="302.857" x2="302.857" y1="366.648" y2="609.505" gradientTransform="matrix(2.774389,0,0,1.969706,-1892.179,-872.8854)" gradientUnits="userSpaceOnUse" xlink:href="#linearGradient5048"/><linearGradient id="linearGradient381"><stop id="stop382" offset="0" stop-color="#fff" stop-opacity="1"/><stop id="stop383" offset="1" stop-color="#fff" stop-opacity=".845"/></linearGradient><linearGradient id="linearGradient368"><stop id="stop369" offset="0" stop-color="#fff" stop-opacity=".103"/><stop id="stop372" offset="1" stop-color="#fff" stop-opacity="0"/></linearGradient><linearGradient id="linearGradient1065"><stop id="stop1066" offset="0" stop-color="#b5c051" stop-opacity="1"/><stop id="stop1067" offset="1" stop-color="#858e3f" stop-opacity="1"/></linearGradient><linearGradient id="linearGradient172"><stop id="stop173" offset="0" stop-color="#616c08" stop-opacity="1"/><stop id="stop174" offset="1" stop-color="#495106" stop-opacity="1"/></linearGradient><linearGradient id="linearGradient161"><stop id="stop162" offset="0" stop-color="#575955" stop-opacity="1"/><stop id="stop163" offset="1" stop-color="#7c7e79" stop-opacity="1"/></linearGradient><linearGradient id="linearGradient157"><stop id="stop158" offset="0" stop-color="#babdb6" stop-opacity="1"/><stop id="stop159" offset="1" stop-color="#f1f5ec" stop-opacity="1"/></linearGradient><linearGradient id="linearGradient149"><stop id="stop150" offset="0" stop-color="#000" stop-opacity="1"/><stop id="stop151" offset="1" stop-color="#000" stop-opacity="0"/></linearGradient><linearGradient id="linearGradient1869"><stop id="stop1870" offset="0" stop-color="#c9c9c9" stop-opacity="1"/><stop id="stop1871" offset="1" stop-color="#787a7b" stop-opacity="1"/></linearGradient><linearGradient id="linearGradient152" x1="7.374" x2="7.529" y1="27.377" y2="69.461" gradientTransform="matrix(3.495016,0,0,0.344323,-2.972087,-3.408148e-2)" gradientUnits="userSpaceOnUse" xlink:href="#linearGradient149"/><linearGradient id="linearGradient2058" x1="7.374" x2="7.529" y1="27.377" y2="69.461" gradientTransform="matrix(3.520411,0,0,0.348016,-3.037918,1.544257)" gradientUnits="userSpaceOnUse" xlink:href="#linearGradient149"/><linearGradient id="linearGradient2970" x1="27.5" x2="27.625" y1="14" y2="18.75" gradientTransform="matrix(1,0,0,0.799991,0,-1.199875)" gradientUnits="userSpaceOnUse" xlink:href="#linearGradient2964"/><radialGradient id="radialGradient2984" cx="9.58" cy="33.588" r="2.553" fx="9.58" fy="33.588" gradientTransform="matrix(3.146715,6.924886e-2,-6.039991e-2,2.744612,-17.82887,-61.79699)" gradientUnits="userSpaceOnUse" xlink:href="#linearGradient2978"/><radialGradient id="radialGradient2988" cx="9.58" cy="33.588" r="2.553" fx="9.58" fy="33.588" gradientTransform="matrix(3.146715,6.924886e-2,-6.039991e-2,2.744612,-16.18243,-61.79699)" gradientUnits="userSpaceOnUse" xlink:href="#linearGradient2978"/><radialGradient id="radialGradient2992" cx="9.58" cy="33.588" r="2.553" fx="9.58" fy="33.588" gradientTransform="matrix(3.146715,6.924886e-2,-6.039991e-2,2.744612,-14.33255,-61.89699)" gradientUnits="userSpaceOnUse" xlink:href="#linearGradient2978"/><radialGradient id="radialGradient2996" cx="9.58" cy="33.588" r="2.553" fx="9.58" fy="33.588" gradientTransform="matrix(3.146715,6.924886e-2,-6.039991e-2,2.744612,-12.67991,-61.03155)" gradientUnits="userSpaceOnUse" xlink:href="#linearGradient2978"/><radialGradient id="radialGradient3000" cx="9.58" cy="33.588" r="2.553" fx="9.58" fy="33.588" gradientTransform="matrix(3.146715,6.924886e-2,-6.039991e-2,2.744612,-10.78506,-60.99081)" gradientUnits="userSpaceOnUse" xlink:href="#linearGradient2978"/><radialGradient id="radialGradient3004" cx="9.58" cy="33.588" r="2.553" fx="9.58" fy="33.588" gradientTransform="matrix(3.146715,6.924886e-2,-6.039991e-2,2.744612,-19.58362,-61.75172)" gradientUnits="userSpaceOnUse" xlink:href="#linearGradient2978"/><linearGradient id="linearGradient3097" x1="26.151" x2="27.5" y1="-5.74" y2="13.352" gradientTransform="matrix(0.984533,0,0,1.203586,0.971903,-2.123191)" gradientUnits="userSpaceOnUse" xlink:href="#linearGradient3008"/><radialGradient id="radialGradient3107" cx="9.58" cy="33.588" r="2.553" fx="9.58" fy="33.588" gradientTransform="matrix(3.146715,6.924886e-2,-6.039991e-2,2.744612,-8.332562,-61.89699)" gradientUnits="userSpaceOnUse" xlink:href="#linearGradient2978"/><radialGradient id="radialGradient3111" cx="9.58" cy="33.588" r="2.553" fx="9.58" fy="33.588" gradientTransform="matrix(3.146715,6.924886e-2,-6.039991e-2,2.744612,-6.332562,-61.89699)" gradientUnits="userSpaceOnUse" xlink:href="#linearGradient2978"/><radialGradient id="radialGradient3115" cx="9.58" cy="33.588" r="2.553" fx="9.58" fy="33.588" gradientTransform="matrix(3.146715,6.924886e-2,-6.039991e-2,2.744612,-4.332562,-61.89699)" gradientUnits="userSpaceOnUse" xlink:href="#linearGradient2978"/><radialGradient id="radialGradient3119" cx="9.58" cy="33.588" r="2.553" fx="9.58" fy="33.588" gradientTransform="matrix(3.146715,6.924886e-2,-6.039991e-2,2.744612,-2.332562,-61.89699)" gradientUnits="userSpaceOnUse" xlink:href="#linearGradient2978"/><radialGradient id="radialGradient3123" cx="9.58" cy="33.588" r="2.553" fx="9.58" fy="33.588" gradientTransform="matrix(3.146715,6.924886e-2,-6.039991e-2,2.744612,-0.332562,-61.89699)" gradientUnits="userSpaceOnUse" xlink:href="#linearGradient2978"/><radialGradient id="radialGradient3127" cx="9.58" cy="33.588" r="2.553" fx="9.58" fy="33.588" gradientTransform="matrix(3.146715,6.924886e-2,-6.039991e-2,2.744612,1.667438,-61.89699)" gradientUnits="userSpaceOnUse" xlink:href="#linearGradient2978"/><radialGradient id="radialGradient3131" cx="9.58" cy="33.588" r="2.553" fx="9.58" fy="33.588" gradientTransform="matrix(3.146715,6.924886e-2,-6.039991e-2,2.744612,3.667438,-61.89699)" gradientUnits="userSpaceOnUse" xlink:href="#linearGradient2978"/><radialGradient id="radialGradient3135" cx="9.58" cy="33.588" r="2.553" fx="9.58" fy="33.588" gradientTransform="matrix(3.146715,6.924886e-2,-6.039991e-2,2.744612,5.667438,-61.89699)" gradientUnits="userSpaceOnUse" xlink:href="#linearGradient2978"/><linearGradient id="linearGradient3147" x1="40.5" x2="40.5" y1="13.823" y2="16.878" gradientUnits="userSpaceOnUse" xlink:href="#linearGradient3141"/><linearGradient id="linearGradient3165" x1="23.5" x2="23.5" y1="12" y2="6.688" gradientUnits="userSpaceOnUse" xlink:href="#linearGradient3159"/><linearGradient id="linearGradient3181" x1="25" x2="25" y1="21" y2="32.25" gradientUnits="userSpaceOnUse" xlink:href="#linearGradient3175"/><linearGradient id="linearGradient3239" x1="24" x2="24" y1="15.837" y2="21" gradientUnits="userSpaceOnUse" xlink:href="#linearGradient3229"/><linearGradient id="linearGradient3247" x1="21.678" x2="22.334" y1="19.97" y2="11.644" gradientUnits="userSpaceOnUse" xlink:href="#linearGradient3241"/></defs><metadata id="metadata4"/><g id="layer1"><g id="g6707" display="inline" transform="matrix(2.262383e-2,0,0,1.966248e-2,44.39519,41.98146)"><rect id="rect6709" width="1339.633" height="478.357" x="-1559.252" y="-150.697" fill="url(#linearGradient6715)" fill-opacity="1" fill-rule="nonzero" stroke="none" stroke-dasharray="none" stroke-dashoffset="0" stroke-linecap="round" stroke-linejoin="miter" stroke-miterlimit="4" stroke-opacity="1" stroke-width="1" marker-end="none" marker-mid="none" marker-start="none" color="#000" display="inline" opacity=".402" overflow="visible" visibility="visible" style="marker:none"/><path id="path6711" fill="url(#radialGradient6717)" fill-opacity="1" fill-rule="nonzero" stroke="none" stroke-dasharray="none" stroke-dashoffset="0" stroke-linecap="round" stroke-linejoin="miter" stroke-miterlimit="4" stroke-opacity="1" stroke-width="1" marker-end="none" marker-mid="none" marker-start="none" d="M -219.61876,-150.68038 C -219.61876,-150.68038 -219.61876,327.65041 -219.61876,327.65041 C -76.744594,328.55086 125.78146,220.48075 125.78138,88.454235 C 125.78138,-43.572302 -33.655436,-150.68036 -219.61876,-150.68038 z" color="#000" display="inline" opacity=".402" overflow="visible" visibility="visible" style="marker:none"/><path stroke-width="1" style="marker:none" id="path6713" fill="url(#radialGradient6719)" fill-opacity="1" fill-rule="nonzero" stroke="none" stroke-dasharray="none" stroke-dashoffset="0" stroke-linecap="round" stroke-linejoin="miter" stroke-miterlimit="4" stroke-opacity="1" marker-end="none" marker-mid="none" marker-start="none" d="M -1559.2523,-150.68038 C -1559.2523,-150.68038 -1559.2523,327.65041 -1559.2523,327.65041 C -1702.1265,328.55086 -1904.6525,220.48075 -1904.6525,88.454235 C -1904.6525,-43.572302 -1745.2157,-150.68036 -1559.2523,-150.68038 z" color="#000" display="inline" opacity=".402" overflow="visible" visibility="visible"/></g><path id="path3173" fill="url(#linearGradient3181)" fill-opacity="1" fill-rule="nonzero" stroke="none" stroke-dasharray="none" stroke-dashoffset="0" stroke-linecap="butt" stroke-linejoin="miter" stroke-miterlimit="4" stroke-opacity="1" stroke-width=".4" marker-end="none" marker-mid="none" marker-start="none" d="M 4.75,21 L 43.25,21 L 42.375,32.25 L 5.625,32.25 L 4.75,21 z" color="#000" display="inline" opacity=".387" overflow="visible" visibility="visible" style="marker:none"/><path id="path1751" fill="#babdb6" fill-opacity="1" fill-rule="evenodd" stroke="#555753" stroke-dasharray="none" stroke-linecap="butt" stroke-linejoin="miter" stroke-miterlimit="4" stroke-opacity="1" stroke-width="1" d="M 4.000805,16.500028 C 3.9568443,16.464574 5.7277298,42.005521 5.7282343,42.013263 C 5.8943636,44.563961 7.2889479,45.496198 8.8498899,45.499996 C 8.9056682,45.500127 38.133934,45.496713 38.756644,45.494055 C 41.385341,45.482836 42.029344,43.859472 42.202267,42.085776 C 42.216136,42.050805 43.986115,16.535 43.999982,16.500028 C 30.666924,16.500028 17.333866,16.500028 4.000805,16.500028 z" opacity=".5"/><path id="path1893" fill="url(#linearGradient2058)" fill-opacity="1" fill-rule="nonzero" stroke="none" stroke-dashoffset="0" stroke-linecap="butt" stroke-linejoin="miter" stroke-miterlimit="4" stroke-opacity="1" stroke-width="0" marker-end="none" marker-mid="none" marker-start="none" d="M 43.457954,20.712669 L 7.2079371,20.689264 C 34.519247,21.326592 39.885144,24.337412 43.214187,24.183575 L 43.457954,20.712669 z" color="#000" display="block" opacity=".237" visibility="visible" style="marker:none"/><g id="g3199" fill="#000" fill-opacity="1" stroke="#000" stroke-dasharray="none" stroke-miterlimit="4" stroke-opacity="1" stroke-width="1.3" opacity=".129" transform="translate(8.838865e-2,8.838865e-2)"><path stroke-width="1.3" style="marker:none" id="path3201" fill="#000" fill-opacity="1" fill-rule="evenodd" stroke="#000" stroke-dasharray="none" stroke-dashoffset="0" stroke-linecap="butt" stroke-linejoin="miter" stroke-miterlimit="4" stroke-opacity="1" marker-end="none" marker-mid="none" marker-start="none" d="M 29.163487,19.614074 C 29.163487,19.614074 30.279473,23.33545 29.517144,26.348054 C 28.754815,29.360658 29.269248,34.210167 29.269248,34.210167 L 30.884373,34.634373 C 30.884373,34.634373 30.117495,30.028639 30.931357,26.524831 C 31.745219,23.021023 30.577814,19.614988 30.577814,19.614988 L 29.163487,19.614074 z" color="#000" display="inline" opacity="1" overflow="visible" visibility="visible"/><path stroke-width="1.3" style="marker:none" id="path3203" fill="#000" fill-opacity="1" fill-rule="evenodd" stroke="#000" stroke-dasharray="none" stroke-dashoffset="0" stroke-linecap="butt" stroke-linejoin="miter" stroke-miterlimit="4" stroke-opacity="1" marker-end="none" marker-mid="none" marker-start="none" d="M 9.9124168,19.759341 C 9.9124168,19.759341 11.028404,23.480717 10.266074,26.493321 C 9.5037448,29.505925 10.018178,34.355434 10.018178,34.355434 L 11.456527,33.807368 C 11.456527,33.807368 10.866426,30.173906 11.680288,26.670098 C 12.49415,23.16629 11.326745,19.760255 11.326745,19.760255 L 9.9124168,19.759341 z" color="#000" display="inline" opacity="1" overflow="visible" visibility="visible"/><path id="path3205" fill="#000" fill-opacity="1" fill-rule="evenodd" stroke="#000" stroke-dasharray="none" stroke-dashoffset="0" stroke-linecap="butt" stroke-linejoin="miter" stroke-miterlimit="4" stroke-opacity="1" stroke-width="1.3" marker-end="none" marker-mid="none" marker-start="none" d="M 11.66716,19.714074 C 11.66716,19.714074 12.783146,23.43545 12.020817,26.448054 C 11.258488,29.460658 8.617841,31.76449 8.617841,31.76449 L 9.8260378,33.73022 C 9.8260378,33.73022 12.621168,30.128639 13.43503,26.624831 C 14.248892,23.121023 13.081487,19.714988 13.081487,19.714988 L 11.66716,19.714074 z" color="#000" display="inline" opacity="1" overflow="visible" visibility="visible" style="marker:none"/><path stroke-width="1.3" style="marker:none" id="path3207" fill="#000" fill-opacity="1" fill-rule="evenodd" stroke="#000" stroke-dasharray="none" stroke-dashoffset="0" stroke-linecap="butt" stroke-linejoin="miter" stroke-miterlimit="4" stroke-opacity="1" marker-end="none" marker-mid="none" marker-start="none" d="M 21.163487,19.614074 C 21.163487,19.614074 22.279473,23.33545 21.517144,26.348054 C 20.754815,29.360658 21.269248,34.210167 21.269248,34.210167 L 22.928567,34.766955 C 22.928567,34.766955 22.117495,30.028639 22.931357,26.524831 C 23.745219,23.021023 22.577814,19.614988 22.577814,19.614988 L 21.163487,19.614074 z" color="#000" display="inline" opacity="1" overflow="visible" visibility="visible"/><path id="path3209" fill="#000" fill-opacity="1" fill-rule="evenodd" stroke="#000" stroke-dasharray="none" stroke-dashoffset="0" stroke-linecap="butt" stroke-linejoin="miter" stroke-miterlimit="4" stroke-opacity="1" stroke-width="1.3" marker-end="none" marker-mid="none" marker-start="none" d="M 35.163487,19.614074 C 35.163487,19.614074 36.279473,23.33545 35.517144,26.348054 C 34.754815,29.360658 36.550879,33.50306 36.550879,33.50306 L 38.077615,32.292082 C 38.077615,32.292082 36.117495,30.028639 36.931357,26.524831 C 37.745219,23.021023 36.577814,19.614988 36.577814,19.614988 L 35.163487,19.614074 z" color="#000" display="inline" opacity="1" overflow="visible" visibility="visible" style="marker:none"/><path id="path3211" fill="#000" fill-opacity="1" fill-rule="evenodd" stroke="#000" stroke-dasharray="none" stroke-dashoffset="0" stroke-linecap="butt" stroke-linejoin="miter" stroke-miterlimit="4" stroke-opacity="1" stroke-width="1.3" marker-end="none" marker-mid="none" marker-start="none" d="M 31.163487,19.614074 C 31.163487,19.614074 32.279473,23.33545 31.517144,26.348054 C 30.754815,29.360658 31.269248,34.210167 31.269248,34.210167 L 32.795984,34.148237 C 32.795984,34.148237 32.117495,30.028639 32.931357,26.524831 C 33.745219,23.021023 32.577814,19.614988 32.577814,19.614988 L 31.163487,19.614074 z" color="#000" display="inline" opacity="1" overflow="visible" visibility="visible" style="marker:none"/><path stroke-width="1.3" style="marker:none" id="path3213" fill="#000" fill-opacity="1" fill-rule="evenodd" stroke="#000" stroke-dasharray="none" stroke-dashoffset="0" stroke-linecap="butt" stroke-linejoin="miter" stroke-miterlimit="4" stroke-opacity="1" marker-end="none" marker-mid="none" marker-start="none" d="M 33.163487,19.614074 C 33.163487,19.614074 34.279473,23.33545 33.517144,26.348054 C 32.754815,29.360658 32.473753,34.03339 32.473753,34.03339 L 34.265654,34.457596 C 34.265654,34.457596 34.117495,30.028639 34.931357,26.524831 C 35.745219,23.021023 34.577814,19.614988 34.577814,19.614988 L 33.163487,19.614074 z" color="#000" display="inline" opacity="1" overflow="visible" visibility="visible"/><path id="path3215" fill="#000" fill-opacity="1" fill-rule="evenodd" stroke="#000" stroke-dasharray="none" stroke-dashoffset="0" stroke-linecap="butt" stroke-linejoin="miter" stroke-miterlimit="4" stroke-opacity="1" stroke-width="1.3" marker-end="none" marker-mid="none" marker-start="none" d="M 27.163487,19.614074 C 27.163487,19.614074 28.279473,23.33545 27.517144,26.348054 C 26.754815,29.360658 28.064743,33.989196 28.064743,33.989196 L 29.724062,33.308548 C 29.724062,33.308548 28.117495,30.028639 28.931357,26.524831 C 29.745219,23.021023 28.577814,19.614988 28.577814,19.614988 L 27.163487,19.614074 z" color="#000" display="inline" opacity="1" overflow="visible" visibility="visible" style="marker:none"/><path stroke-width="1.3" style="marker:none" id="path3217" fill="#000" fill-opacity="1" fill-rule="evenodd" stroke="#000" stroke-dasharray="none" stroke-dashoffset="0" stroke-linecap="butt" stroke-linejoin="miter" stroke-miterlimit="4" stroke-opacity="1" marker-end="none" marker-mid="none" marker-start="none" d="M 25.163487,19.614074 C 25.163487,19.614074 26.279473,23.33545 25.517144,26.348054 C 24.754815,29.360658 24.164394,34.077584 24.164394,34.077584 L 25.69113,34.280819 C 25.69113,34.280819 26.117495,30.028639 26.931357,26.524831 C 27.745219,23.021023 26.577814,19.614988 26.577814,19.614988 L 25.163487,19.614074 z" color="#000" display="inline" opacity="1" overflow="visible" visibility="visible"/><path id="path3219" fill="#000" fill-opacity="1" fill-rule="evenodd" stroke="#000" stroke-dasharray="none" stroke-dashoffset="0" stroke-linecap="butt" stroke-linejoin="miter" stroke-miterlimit="4" stroke-opacity="1" stroke-width="1.3" marker-end="none" marker-mid="none" marker-start="none" d="M 23.163487,19.614074 C 23.163487,19.614074 24.279473,23.33545 23.517144,26.348054 C 22.754815,29.360658 23.269248,34.210167 23.269248,34.210167 L 24.707596,33.662101 C 24.707596,33.662101 24.117495,30.028639 24.931357,26.524831 C 25.745219,23.021023 24.577814,19.614988 24.577814,19.614988 L 23.163487,19.614074 z" color="#000" display="inline" opacity="1" overflow="visible" visibility="visible" style="marker:none"/><path stroke-width="1.3" style="marker:none" id="path3221" fill="#000" fill-opacity="1" fill-rule="evenodd" stroke="#000" stroke-dasharray="none" stroke-dashoffset="0" stroke-linecap="butt" stroke-linejoin="miter" stroke-miterlimit="4" stroke-opacity="1" marker-end="none" marker-mid="none" marker-start="none" d="M 13.313608,19.714074 C 13.313608,19.714074 14.429594,23.43545 13.667265,26.448054 C 12.904936,29.460658 13.419369,34.310167 13.419369,34.310167 L 14.999517,34.698426 C 14.999517,34.698426 14.267616,30.128639 15.081478,26.624831 C 15.89534,23.121023 14.727935,19.714988 14.727935,19.714988 L 13.313608,19.714074 z" color="#000" display="inline" opacity="1" overflow="visible" visibility="visible"/><path id="path3223" fill="#000" fill-opacity="1" fill-rule="evenodd" stroke="#000" stroke-dasharray="none" stroke-dashoffset="0" stroke-linecap="butt" stroke-linejoin="miter" stroke-miterlimit="4" stroke-opacity="1" stroke-width="1.3" marker-end="none" marker-mid="none" marker-start="none" d="M 19.418083,20.520258 C 19.418083,20.520258 19.615714,24.129801 19.064633,27.254238 C 18.524861,30.31456 21.306417,34.496773 21.306417,34.496773 L 22.721163,33.86443 C 22.721163,33.86443 19.926762,31.248786 20.558759,27.078695 C 21.116432,23.399015 20.83241,20.521172 20.83241,20.521172 L 19.418083,20.520258 z" color="#000" display="inline" opacity="1" overflow="visible" visibility="visible" style="marker:none"/><path id="path3225" fill="#000" fill-opacity="1" fill-rule="evenodd" stroke="#000" stroke-dasharray="none" stroke-dashoffset="0" stroke-linecap="butt" stroke-linejoin="miter" stroke-miterlimit="4" stroke-opacity="1" stroke-width="1.3" marker-end="none" marker-mid="none" marker-start="none" d="M 15.163487,19.614074 C 15.163487,19.614074 16.279473,23.33545 15.517144,26.348054 C 14.754815,29.360658 15.269248,34.210167 15.269248,34.210167 L 16.707596,33.662101 C 16.707596,33.662101 16.117495,30.028639 16.931357,26.524831 C 17.745219,23.021023 16.577814,19.614988 16.577814,19.614988 L 15.163487,19.614074 z" color="#000" display="inline" opacity="1" overflow="visible" visibility="visible" style="marker:none"/><path stroke-width="1.3" style="marker:none" id="path3227" fill="#000" fill-opacity="1" fill-rule="evenodd" stroke="#000" stroke-dasharray="none" stroke-dashoffset="0" stroke-linecap="butt" stroke-linejoin="miter" stroke-miterlimit="4" stroke-opacity="1" marker-end="none" marker-mid="none" marker-start="none" d="M 16.816129,20.479515 C 16.816129,20.479515 17.932115,24.200891 17.169786,27.213495 C 16.407457,30.226099 14.726988,31.80438 14.726988,31.80438 L 15.964957,32.939804 C 15.964957,32.939804 17.770137,30.89408 18.583999,27.390272 C 19.397861,23.886464 18.230456,20.480429 18.230456,20.480429 L 16.816129,20.479515 z" color="#000" display="inline" opacity="1" overflow="visible" visibility="visible"/></g><g id="g3183"><path id="path3121" fill="url(#radialGradient3123)" fill-opacity="1" fill-rule="evenodd" stroke="none" stroke-dasharray="none" stroke-dashoffset="0" stroke-linecap="butt" stroke-linejoin="miter" stroke-miterlimit="4" stroke-opacity="1" stroke-width=".4" marker-end="none" marker-mid="none" marker-start="none" d="M 29.163487,19.614074 C 29.163487,19.614074 30.279473,23.33545 29.517144,26.348054 C 28.754815,29.360658 29.269248,34.210167 29.269248,34.210167 L 30.884373,34.634373 C 30.884373,34.634373 30.117495,30.028639 30.931357,26.524831 C 31.745219,23.021023 30.577814,19.614988 30.577814,19.614988 L 29.163487,19.614074 z" color="#000" display="inline" opacity="1" overflow="visible" visibility="visible" style="marker:none"/><path id="path3002" fill="url(#radialGradient3004)" fill-opacity="1" fill-rule="evenodd" stroke="none" stroke-dasharray="none" stroke-dashoffset="0" stroke-linecap="butt" stroke-linejoin="miter" stroke-miterlimit="4" stroke-opacity="1" stroke-width=".4" marker-end="none" marker-mid="none" marker-start="none" d="M 9.9124168,19.759341 C 9.9124168,19.759341 11.028404,23.480717 10.266074,26.493321 C 9.5037448,29.505925 10.018178,34.355434 10.018178,34.355434 L 11.456527,33.807368 C 11.456527,33.807368 10.866426,30.173906 11.680288,26.670098 C 12.49415,23.16629 11.326745,19.760255 11.326745,19.760255 L 9.9124168,19.759341 z" color="#000" display="inline" opacity="1" overflow="visible" visibility="visible" style="marker:none"/><path stroke-width=".4" style="marker:none" id="path2976" fill="url(#radialGradient2984)" fill-opacity="1" fill-rule="evenodd" stroke="none" stroke-dasharray="none" stroke-dashoffset="0" stroke-linecap="butt" stroke-linejoin="miter" stroke-miterlimit="4" stroke-opacity="1" marker-end="none" marker-mid="none" marker-start="none" d="M 11.66716,19.714074 C 11.66716,19.714074 12.783146,23.43545 12.020817,26.448054 C 11.258488,29.460658 8.617841,31.76449 8.617841,31.76449 L 9.8260378,33.73022 C 9.8260378,33.73022 12.621168,30.128639 13.43503,26.624831 C 14.248892,23.121023 13.081487,19.714988 13.081487,19.714988 L 11.66716,19.714074 z" color="#000" display="inline" opacity="1" overflow="visible" visibility="visible"/><path id="path3105" fill="url(#radialGradient3107)" fill-opacity="1" fill-rule="evenodd" stroke="none" stroke-dasharray="none" stroke-dashoffset="0" stroke-linecap="butt" stroke-linejoin="miter" stroke-miterlimit="4" stroke-opacity="1" stroke-width=".4" marker-end="none" marker-mid="none" marker-start="none" d="M 21.163487,19.614074 C 21.163487,19.614074 22.279473,23.33545 21.517144,26.348054 C 20.754815,29.360658 21.269248,34.210167 21.269248,34.210167 L 22.928567,34.766955 C 22.928567,34.766955 22.117495,30.028639 22.931357,26.524831 C 23.745219,23.021023 22.577814,19.614988 22.577814,19.614988 L 21.163487,19.614074 z" color="#000" display="inline" opacity="1" overflow="visible" visibility="visible" style="marker:none"/><path stroke-width=".4" style="marker:none" id="path3133" fill="url(#radialGradient3135)" fill-opacity="1" fill-rule="evenodd" stroke="none" stroke-dasharray="none" stroke-dashoffset="0" stroke-linecap="butt" stroke-linejoin="miter" stroke-miterlimit="4" stroke-opacity="1" marker-end="none" marker-mid="none" marker-start="none" d="M 35.163487,19.614074 C 35.163487,19.614074 36.279473,23.33545 35.517144,26.348054 C 34.754815,29.360658 36.550879,33.50306 36.550879,33.50306 L 38.077615,32.292082 C 38.077615,32.292082 36.117495,30.028639 36.931357,26.524831 C 37.745219,23.021023 36.577814,19.614988 36.577814,19.614988 L 35.163487,19.614074 z" color="#000" display="inline" opacity="1" overflow="visible" visibility="visible"/><path stroke-width=".4" style="marker:none" id="path3125" fill="url(#radialGradient3127)" fill-opacity="1" fill-rule="evenodd" stroke="none" stroke-dasharray="none" stroke-dashoffset="0" stroke-linecap="butt" stroke-linejoin="miter" stroke-miterlimit="4" stroke-opacity="1" marker-end="none" marker-mid="none" marker-start="none" d="M 31.163487,19.614074 C 31.163487,19.614074 32.279473,23.33545 31.517144,26.348054 C 30.754815,29.360658 31.269248,34.210167 31.269248,34.210167 L 32.795984,34.148237 C 32.795984,34.148237 32.117495,30.028639 32.931357,26.524831 C 33.745219,23.021023 32.577814,19.614988 32.577814,19.614988 L 31.163487,19.614074 z" color="#000" display="inline" opacity="1" overflow="visible" visibility="visible"/><path id="path3129" fill="url(#radialGradient3131)" fill-opacity="1" fill-rule="evenodd" stroke="none" stroke-dasharray="none" stroke-dashoffset="0" stroke-linecap="butt" stroke-linejoin="miter" stroke-miterlimit="4" stroke-opacity="1" stroke-width=".4" marker-end="none" marker-mid="none" marker-start="none" d="M 33.163487,19.614074 C 33.163487,19.614074 34.279473,23.33545 33.517144,26.348054 C 32.754815,29.360658 32.473753,34.03339 32.473753,34.03339 L 34.265654,34.457596 C 34.265654,34.457596 34.117495,30.028639 34.931357,26.524831 C 35.745219,23.021023 34.577814,19.614988 34.577814,19.614988 L 33.163487,19.614074 z" color="#000" display="inline" opacity="1" overflow="visible" visibility="visible" style="marker:none"/><path stroke-width=".4" style="marker:none" id="path3117" fill="url(#radialGradient3119)" fill-opacity="1" fill-rule="evenodd" stroke="none" stroke-dasharray="none" stroke-dashoffset="0" stroke-linecap="butt" stroke-linejoin="miter" stroke-miterlimit="4" stroke-opacity="1" marker-end="none" marker-mid="none" marker-start="none" d="M 27.163487,19.614074 C 27.163487,19.614074 28.279473,23.33545 27.517144,26.348054 C 26.754815,29.360658 28.064743,33.989196 28.064743,33.989196 L 29.724062,33.308548 C 29.724062,33.308548 28.117495,30.028639 28.931357,26.524831 C 29.745219,23.021023 28.577814,19.614988 28.577814,19.614988 L 27.163487,19.614074 z" color="#000" display="inline" opacity="1" overflow="visible" visibility="visible"/><path id="path3113" fill="url(#radialGradient3115)" fill-opacity="1" fill-rule="evenodd" stroke="none" stroke-dasharray="none" stroke-dashoffset="0" stroke-linecap="butt" stroke-linejoin="miter" stroke-miterlimit="4" stroke-opacity="1" stroke-width=".4" marker-end="none" marker-mid="none" marker-start="none" d="M 25.163487,19.614074 C 25.163487,19.614074 26.279473,23.33545 25.517144,26.348054 C 24.754815,29.360658 24.164394,34.077584 24.164394,34.077584 L 25.69113,34.280819 C 25.69113,34.280819 26.117495,30.028639 26.931357,26.524831 C 27.745219,23.021023 26.577814,19.614988 26.577814,19.614988 L 25.163487,19.614074 z" color="#000" display="inline" opacity="1" overflow="visible" visibility="visible" style="marker:none"/><path stroke-width=".4" style="marker:none" id="path3109" fill="url(#radialGradient3111)" fill-opacity="1" fill-rule="evenodd" stroke="none" stroke-dasharray="none" stroke-dashoffset="0" stroke-linecap="butt" stroke-linejoin="miter" stroke-miterlimit="4" stroke-opacity="1" marker-end="none" marker-mid="none" marker-start="none" d="M 23.163487,19.614074 C 23.163487,19.614074 24.279473,23.33545 23.517144,26.348054 C 22.754815,29.360658 23.269248,34.210167 23.269248,34.210167 L 24.707596,33.662101 C 24.707596,33.662101 24.117495,30.028639 24.931357,26.524831 C 25.745219,23.021023 24.577814,19.614988 24.577814,19.614988 L 23.163487,19.614074 z" color="#000" display="inline" opacity="1" overflow="visible" visibility="visible"/><path id="path2986" fill="url(#radialGradient2988)" fill-opacity="1" fill-rule="evenodd" stroke="none" stroke-dasharray="none" stroke-dashoffset="0" stroke-linecap="butt" stroke-linejoin="miter" stroke-miterlimit="4" stroke-opacity="1" stroke-width=".4" marker-end="none" marker-mid="none" marker-start="none" d="M 13.313608,19.714074 C 13.313608,19.714074 14.429594,23.43545 13.667265,26.448054 C 12.904936,29.460658 13.419369,34.310167 13.419369,34.310167 L 14.999517,34.698426 C 14.999517,34.698426 14.267616,30.128639 15.081478,26.624831 C 15.89534,23.121023 14.727935,19.714988 14.727935,19.714988 L 13.313608,19.714074 z" color="#000" display="inline" opacity="1" overflow="visible" visibility="visible" style="marker:none"/><path stroke-width=".4" style="marker:none" id="path2998" fill="url(#radialGradient3000)" fill-opacity="1" fill-rule="evenodd" stroke="none" stroke-dasharray="none" stroke-dashoffset="0" stroke-linecap="butt" stroke-linejoin="miter" stroke-miterlimit="4" stroke-opacity="1" marker-end="none" marker-mid="none" marker-start="none" d="M 19.418083,20.520258 C 19.418083,20.520258 19.615714,24.129801 19.064633,27.254238 C 18.524861,30.31456 21.306417,34.496773 21.306417,34.496773 L 22.721163,33.86443 C 22.721163,33.86443 19.926762,31.248786 20.558759,27.078695 C 21.116432,23.399015 20.83241,20.521172 20.83241,20.521172 L 19.418083,20.520258 z" color="#000" display="inline" opacity="1" overflow="visible" visibility="visible"/><path stroke-width=".4" style="marker:none" id="path2990" fill="url(#radialGradient2992)" fill-opacity="1" fill-rule="evenodd" stroke="none" stroke-dasharray="none" stroke-dashoffset="0" stroke-linecap="butt" stroke-linejoin="miter" stroke-miterlimit="4" stroke-opacity="1" marker-end="none" marker-mid="none" marker-start="none" d="M 15.163487,19.614074 C 15.163487,19.614074 16.279473,23.33545 15.517144,26.348054 C 14.754815,29.360658 15.269248,34.210167 15.269248,34.210167 L 16.707596,33.662101 C 16.707596,33.662101 16.117495,30.028639 16.931357,26.524831 C 17.745219,23.021023 16.577814,19.614988 16.577814,19.614988 L 15.163487,19.614074 z" color="#000" display="inline" opacity="1" overflow="visible" visibility="visible"/><path id="path2994" fill="url(#radialGradient2996)" fill-opacity="1" fill-rule="evenodd" stroke="none" stroke-dasharray="none" stroke-dashoffset="0" stroke-linecap="butt" stroke-linejoin="miter" stroke-miterlimit="4" stroke-opacity="1" stroke-width=".4" marker-end="none" marker-mid="none" marker-start="none" d="M 16.816129,20.479515 C 16.816129,20.479515 17.932115,24.200891 17.169786,27.213495 C 16.407457,30.226099 14.726988,31.80438 14.726988,31.80438 L 15.964957,32.939804 C 15.964957,32.939804 17.770137,30.89408 18.583999,27.390272 C 19.397861,23.886464 18.230456,20.480429 18.230456,20.480429 L 16.816129,20.479515 z" color="#000" display="inline" opacity="1" overflow="visible" visibility="visible" style="marker:none"/></g><path id="path375" fill="none" fill-opacity="1" fill-rule="evenodd" stroke="#fff" stroke-dasharray="none" stroke-linecap="butt" stroke-linejoin="miter" stroke-miterlimit="4" stroke-opacity="1" stroke-width="1" d="M 5.4146811,19.121548 C 5.3634244,19.121414 6.251433,31.93862 6.9569459,40.927803 C 7.1389508,43.235262 7.5088619,44.174409 8.9423077,44.174409 C 20.759131,44.174409 37.552947,44.260504 38.124794,44.258405 C 40.891299,44.248246 40.839524,43.220919 41.068645,41.038151 C 41.152053,40.243546 42.601147,19.210922 42.587323,19.210922 C 32.686245,19.210922 17.647791,19.153519 5.4146811,19.121548 z" opacity=".629"/><path id="path1841" fill="url(#linearGradient3239)" fill-opacity="1" fill-rule="evenodd" stroke="#204a87" stroke-dasharray="none" stroke-linecap="butt" stroke-linejoin="miter" stroke-miterlimit="4" stroke-opacity="1" stroke-width="1" d="M 7.1632325,6.56876 C 6.0964702,6.571197 5.2036739,6.59587 4.7173745,7.611591 C 4.6328517,7.788132 2.0564582,14.953189 1.9325929,15.226435 C 0.87218423,17.565665 1.8500978,20.512357 3.8982467,20.492628 C 4.2877543,20.488998 44.257346,20.510899 44.877144,20.492628 C 46.620636,20.442134 46.843746,17.029897 46.093184,15.494889 C 46.050663,15.407927 42.567223,7.513946 42.47838,7.374125 C 42.067463,6.749683 41.147252,6.476015 40.463708,6.501646 C 40.329055,6.506821 7.2964985,6.568457 7.1632325,6.56876 z"/><path id="path2956" fill="#555753" fill-opacity="1" fill-rule="evenodd" stroke="none" stroke-dasharray="none" stroke-dashoffset="0" stroke-linecap="round" stroke-linejoin="round" stroke-miterlimit="4" stroke-opacity="1" stroke-width=".5" marker-end="none" marker-mid="none" marker-start="none" d="M 4.79225,20.902176 L 7.2921692,20.902264 L 8.0580206,41.513138 L 7.2954771,44.586329 C 6.688538,44.099871 6.4168015,43.362011 6.2792295,42.523528 L 4.79225,20.902176 z" color="#000" display="inline" opacity=".149" overflow="visible" visibility="visible" style="marker:none"/><path id="path2958" fill="#eeeeec" fill-opacity="1" fill-rule="evenodd" stroke="none" stroke-dasharray="none" stroke-dashoffset="0" stroke-linecap="round" stroke-linejoin="round" stroke-miterlimit="4" stroke-opacity="1" stroke-width=".5" marker-end="none" marker-mid="none" marker-start="none" d="M 8.0335688,41.611683 L 7.3212658,44.540568 C 7.7441291,44.765463 8.0570118,44.852829 8.5125475,45.007174 L 38.538428,44.978477 C 39.11735,44.938856 39.669098,44.912678 40.052766,44.806892 L 38.00699,41.370874 L 8.0335688,41.611683 z" color="#000" display="inline" opacity=".428" overflow="visible" visibility="visible" style="marker:none"/><path id="path2960" fill="#eeeeec" fill-opacity="1" fill-rule="evenodd" stroke="none" stroke-dasharray="none" stroke-dashoffset="0" stroke-linecap="round" stroke-linejoin="round" stroke-miterlimit="4" stroke-opacity="1" stroke-width=".5" marker-end="none" marker-mid="none" marker-start="none" d="M 38.00699,41.370874 L 40.019489,44.815762 C 40.637691,44.552557 41.349831,44.091949 41.630912,42.961864 L 43.139311,20.94521 L 39.69211,20.942984 L 38.00699,41.370874 z" color="#000" display="inline" opacity=".371" overflow="visible" visibility="visible" style="marker:none"/><path id="path3237" fill="none" fill-opacity="1" fill-rule="evenodd" stroke="url(#linearGradient3247)" stroke-dasharray="none" stroke-linecap="butt" stroke-linejoin="miter" stroke-miterlimit="4" stroke-opacity="1" stroke-width="1" d="M 40.375,7.53125 C 40.307786,7.5315126 40.187424,7.5621485 40.0625,7.5625 C 39.812652,7.5632031 39.458456,7.5614722 39,7.5625 C 38.083088,7.5645555 36.778275,7.5594608 35.21875,7.5625 C 32.0997,7.5685785 27.959843,7.5862798 23.8125,7.59375 C 15.517814,7.6086903 7.1755291,7.5937062 7.15625,7.59375 C 6.6366936,7.594937 6.2615608,7.6524246 6.0625,7.71875 C 5.8634392,7.7850754 5.7953622,7.77194 5.65625,8.0625 C 5.7244234,7.9201072 5.6779783,8.0363852 5.65625,8.09375 C 5.6345217,8.1511148 5.6013283,8.2387513 5.5625,8.34375 C 5.4848433,8.5537474 5.3772673,8.8700038 5.25,9.21875 C 4.9954654,9.9162423 4.647162,10.82881 4.3125,11.75 C 3.977838,12.67119 3.6668002,13.599915 3.40625,14.3125 C 3.2759749,14.668793 3.1460284,14.962545 3.0625,15.1875 C 2.9789716,15.412455 2.9631601,15.461769 2.875,15.65625 C 2.4633478,16.564343 2.4810984,17.654814 2.75,18.40625 C 3.0189016,19.157686 3.3876221,19.473746 3.90625,19.46875 C 4.0431167,19.467474 4.6187591,19.468534 5.75,19.46875 C 6.8812409,19.468966 8.469657,19.468121 10.375,19.46875 C 14.185686,19.470007 19.254551,19.467381 24.3125,19.46875 C 29.370449,19.470119 34.44211,19.469323 38.28125,19.46875 C 40.20082,19.468464 41.785363,19.469906 42.9375,19.46875 C 44.089637,19.467594 44.934706,19.466069 44.84375,19.46875 C 44.939478,19.465978 44.944876,19.474737 45.0625,19.3125 C 45.180124,19.150263 45.303425,18.791919 45.375,18.375 C 45.51815,17.541162 45.378994,16.424293 45.15625,15.96875 C 45.08818,15.829539 45.122096,15.876058 45.09375,15.8125 C 45.065404,15.748942 45.018732,15.674998 44.96875,15.5625 C 44.868786,15.337505 44.729962,15.002468 44.5625,14.625 C 44.227576,13.870065 43.788496,12.876072 43.34375,11.875 C 42.899004,10.873928 42.46493,9.8847897 42.125,9.125 C 41.955035,8.7451052 41.790172,8.4138381 41.6875,8.1875 C 41.636164,8.074331 41.590406,7.9975179 41.5625,7.9375 C 41.439574,7.7832595 40.858748,7.5177979 40.5,7.53125 C 40.400017,7.5350926 40.456732,7.5311365 40.4375,7.53125 C 40.418268,7.5313635 40.408607,7.5311187 40.375,7.53125 z" opacity=".387" xlink:href="#path1841"/><path id="path2962" fill="url(#linearGradient2970)" fill-opacity="1" fill-rule="evenodd" stroke="none" stroke-dasharray="none" stroke-dashoffset="0" stroke-linecap="round" stroke-linejoin="round" stroke-miterlimit="4" stroke-opacity="1" stroke-width=".5" marker-end="none" marker-mid="none" marker-start="none" d="M 8,10 L 7.375,12 L 39.375001,12 L 38.593148,10.07544 L 8,10 z" color="#000" display="inline" opacity=".83" overflow="visible" visibility="visible" style="marker:none"/><path id="rect3006" fill="url(#linearGradient3097)" fill-opacity="1" fill-rule="evenodd" stroke="#888a85" stroke-dashoffset="0" stroke-linecap="butt" stroke-linejoin="miter" stroke-miterlimit="4" stroke-opacity="1" stroke-width="1" marker-end="none" marker-mid="none" marker-start="none" d="M 9.8535488,1.5000014 L 37.167316,1.5000014 C 37.363184,1.5000014 37.520869,1.6576863 37.520869,1.853555 L 37.520869,11.500003 C 37.520869,11.500003 9.4999952,11.500003 9.4999952,11.500003 L 9.4999952,1.853555 C 9.4999952,1.6576863 9.6576801,1.5000014 9.8535488,1.5000014 z" color="#000" display="inline" overflow="visible" visibility="visible" style="marker:none"/><path id="path3103" fill="none" fill-opacity="1" fill-rule="evenodd" stroke="#fff" stroke-dasharray="none" stroke-dashoffset="0" stroke-linecap="square" stroke-linejoin="miter" stroke-miterlimit="4" stroke-opacity="1" stroke-width="1" marker-end="none" marker-mid="none" marker-start="none" d="M 10.499998,10.522594 L 10.499998,2.5000011 L 36.504381,2.5000011 L 36.504381,10.611733" color="#000" display="inline" opacity=".629" overflow="visible" visibility="visible" style="marker:none"/><path id="path3139" fill="#c00" fill-opacity="1" fill-rule="evenodd" stroke="#a40000" stroke-dasharray="none" stroke-dashoffset="0" stroke-linecap="square" stroke-linejoin="miter" stroke-miterlimit="4" stroke-opacity="1" stroke-width="1.242" marker-end="none" marker-mid="none" marker-start="none" d="M 43 15 A 2.5 1.25 0 1 1 38,15 A 2.5 1.25 0 1 1 43 15 z" color="#000" display="inline" opacity="1" overflow="visible" transform="matrix(0.814384,0,0,0.796379,7.58372,3.212694)" visibility="visible" style="marker:none"/><path id="path3137" fill="#ef2929" fill-opacity="1" fill-rule="evenodd" stroke="url(#linearGradient3147)" stroke-dasharray="none" stroke-dashoffset="0" stroke-linecap="square" stroke-linejoin="miter" stroke-miterlimit="4" stroke-opacity="1" stroke-width="1.242" marker-end="none" marker-mid="none" marker-start="none" d="M 43 15 A 2.5 1.25 0 1 1 38,15 A 2.5 1.25 0 1 1 43 15 z" color="#000" display="inline" opacity="1" overflow="visible" transform="matrix(0.814384,0,0,0.796379,7.58372,2.549784)" visibility="visible" style="marker:none"/><rect id="rect3157" width="29" height="5.313" x="9" y="6.688" fill="url(#linearGradient3165)" fill-opacity="1" fill-rule="nonzero" stroke="none" stroke-dasharray="none" stroke-dashoffset="0" stroke-linecap="butt" stroke-linejoin="miter" stroke-miterlimit="4" stroke-opacity="1" stroke-width=".4" marker-end="none" marker-mid="none" marker-start="none" color="#000" display="inline" opacity=".273" overflow="visible" visibility="visible" style="marker:none"/><rect id="rect3167" width="23" height="1" x="12" y="4" fill="#000" fill-opacity="1" fill-rule="nonzero" stroke="none" stroke-dasharray="none" stroke-dashoffset="0" stroke-linecap="butt" stroke-linejoin="miter" stroke-miterlimit="4" stroke-opacity="1" stroke-width=".4" marker-end="none" marker-mid="none" marker-start="none" color="#000" display="inline" opacity=".139" overflow="visible" rx=".5" ry=".5" visibility="visible" style="marker:none"/><rect stroke-miterlimit="4" style="marker:none" id="rect3169" width="15" height="1" x="12" y="6" fill="#000" fill-opacity="1" fill-rule="nonzero" stroke="none" stroke-dasharray="none" stroke-dashoffset="0" stroke-linecap="butt" stroke-linejoin="miter" stroke-opacity="1" stroke-width=".4" marker-end="none" marker-mid="none" marker-start="none" color="#000" display="inline" opacity=".139" overflow="visible" rx=".5" ry=".5" visibility="visible"/><rect id="rect3171" width="19" height="1" x="12" y="8" fill="#000" fill-opacity="1" fill-rule="nonzero" stroke="none" stroke-dasharray="none" stroke-dashoffset="0" stroke-linecap="butt" stroke-linejoin="miter" stroke-miterlimit="4" stroke-opacity="1" stroke-width=".4" marker-end="none" marker-mid="none" marker-start="none" color="#000" display="inline" opacity=".139" overflow="visible" rx=".5" ry=".5" visibility="visible" style="marker:none"/></g></svg>