<svg xmlns="http://www.w3.org/2000/svg" xmlns:svg="http://www.w3.org/2000/svg" id="svg1306" width="64" height="64" version="1.1"><metadata id="metadata1311"/><g id="layer1" transform="translate(0,48)"><g id="g2989" transform="matrix(4.7497799,0,0,4.7497799,-3.7219756,-54.025163)"><path id="path1316" fill="none" stroke="#172a04" stroke-linecap="round" stroke-linejoin="miter" stroke-opacity="1" stroke-width="1.263" d="m 5.3216464,5.2686995 c -3.485356,0 -3.485356,0 -3.485356,0 l 0,0"/><path id="path1318" fill="none" stroke="#172a04" stroke-linecap="round" stroke-linejoin="miter" stroke-opacity="1" stroke-width="1.263" d="m 5.3031397,7.3627233 c -3.485356,0 -3.485356,0 -3.485356,0 l 0,0"/><path id="path1320" fill="none" stroke="#172a04" stroke-linecap="round" stroke-linejoin="miter" stroke-opacity="1" stroke-width="1.263" d="m 5.3031397,9.468084 c -3.485356,0 -3.485356,0 -3.485356,0 l 0,0"/><path id="path1322" fill="none" stroke="#172a04" stroke-linecap="round" stroke-linejoin="miter" stroke-opacity="1" stroke-width="1.263" d="m 13.205238,3.5844109 c -3.4853557,0 -3.4853557,0 -3.4853557,0 l 0,0"/><path id="path1316-3" fill="none" stroke="#888a85" stroke-linecap="round" stroke-linejoin="miter" stroke-opacity="1" stroke-width=".421" d="m 5.3216466,5.2686995 c -3.4853561,0 -3.4853561,0 -3.4853561,0 l 0,0"/><path id="path1318-6" fill="none" stroke="#888a85" stroke-linecap="round" stroke-linejoin="miter" stroke-opacity="1" stroke-width=".421" d="m 5.3031399,7.3627233 c -3.4853561,0 -3.4853561,0 -3.4853561,0 l 0,0"/><path id="path1320-7" fill="none" stroke="#888a85" stroke-linecap="round" stroke-linejoin="miter" stroke-opacity="1" stroke-width=".421" d="m 5.3031399,9.468084 c -3.4853561,0 -3.4853561,0 -3.4853561,0 l 0,0"/><path id="path1322-5" fill="none" stroke="#888a85" stroke-linecap="round" stroke-linejoin="miter" stroke-opacity="1" stroke-width=".421" d="m 13.205238,3.5844109 c -3.4853556,0 -3.4853556,0 -3.4853556,0 l 0,0"/><rect id="rect1314" width="6.316" height="11.369" x="4.363" y="2.321" fill="#00fe00" fill-opacity="1" stroke="#172a04" stroke-dasharray="none" stroke-linejoin="round" stroke-miterlimit="4" stroke-opacity="1" stroke-width=".421"/></g></g></svg>