<svg xmlns="http://www.w3.org/2000/svg" xmlns:svg="http://www.w3.org/2000/svg" xmlns:xlink="http://www.w3.org/1999/xlink" id="svg4427" width="64" height="64" version="1.1"><defs id="defs4429"><linearGradient id="linearGradient4983"><stop id="stop4985" offset="0" stop-color="#000" stop-opacity="0"/><stop id="stop4987" offset="1" stop-color="#000" stop-opacity=".588"/></linearGradient><linearGradient id="linearGradient4965"><stop id="stop4967" offset="0" stop-color="#000078" stop-opacity="1"/><stop id="stop4969" offset="1" stop-color="#0000f0" stop-opacity="1"/></linearGradient><filter id="filter3850" width="1.305" height="1.295" x="-.153" y="-.147" color-interpolation-filters="sRGB"><feGaussianBlur id="feGaussianBlur3852" stdDeviation="3.487"/></filter><filter id="filter3890" width="1.266" height="1.344" x="-.133" y="-.172" color-interpolation-filters="sRGB"><feGaussianBlur id="feGaussianBlur3892" stdDeviation="7.175"/></filter><linearGradient id="linearGradient3864"><stop id="stop3866" offset="0" stop-color="#71b2f8" stop-opacity="1"/><stop id="stop3868" offset="1" stop-color="#002795" stop-opacity="1"/></linearGradient><linearGradient id="linearGradient3682"><stop id="stop3684" offset="0" stop-color="#ff6d0f" stop-opacity="1"/><stop id="stop3686" offset="1" stop-color="#ff1000" stop-opacity="1"/></linearGradient><linearGradient id="linearGradient3864-9"><stop id="stop3866-1" offset="0" stop-color="#316cab" stop-opacity="1"/><stop id="stop3868-1" offset="1" stop-color="#002ca8" stop-opacity="1"/></linearGradient><linearGradient id="linearGradient3682-0"><stop id="stop3684-0" offset="0" stop-color="#ff390f" stop-opacity="1"/><stop id="stop3686-0" offset="1" stop-color="#ff1000" stop-opacity="1"/></linearGradient><linearGradient id="linearGradient3806" x1="-206.699" x2="-211.402" y1="68.842" y2="7.711" gradientTransform="matrix(0.8506406,0,0,0.8506406,396.29269,205.05922)" gradientUnits="userSpaceOnUse" xlink:href="#linearGradient3682-0-3"/><linearGradient id="linearGradient3682-0-3"><stop id="stop3684-0-6" offset="0" stop-color="#a40000" stop-opacity="1"/><stop id="stop3686-0-7" offset="1" stop-color="#ef2929" stop-opacity="1"/></linearGradient><linearGradient id="linearGradient3808" x1="-146.745" x2="-157.325" y1="58.262" y2="26.521" gradientTransform="matrix(1.0094494,0,0,1.0094493,-20.307973,3.7260081)" gradientUnits="userSpaceOnUse" xlink:href="#linearGradient3864-9-5"/><linearGradient id="linearGradient3864-9-5"><stop id="stop3866-1-3" offset="0" stop-color="#204a87" stop-opacity="1"/><stop id="stop3868-1-5" offset="1" stop-color="#729fcf" stop-opacity="1"/></linearGradient><linearGradient id="linearGradient3093" x1="-146.745" x2="-157.325" y1="58.262" y2="26.521" gradientTransform="matrix(0.85867864,0,0,0.85867856,379.0179,208.22871)" gradientUnits="userSpaceOnUse" xlink:href="#linearGradient3864-9-5"/><linearGradient id="linearGradient3771" x1="98" x2="81" y1="1047.362" y2="993.362" gradientTransform="translate(-60,0)" gradientUnits="userSpaceOnUse" xlink:href="#linearGradient3765"/><linearGradient id="linearGradient3765"><stop id="stop3767" offset="0" stop-color="#d3d7cf" stop-opacity="1"/><stop id="stop3769" offset="1" stop-color="#fff" stop-opacity="1"/></linearGradient><linearGradient id="linearGradient3012" x1="98" x2="81" y1="1047.362" y2="993.362" gradientTransform="translate(-60,-540.36218)" gradientUnits="userSpaceOnUse" xlink:href="#linearGradient3765"/></defs><metadata id="metadata4432"/><g id="layer5" display="inline" transform="translate(0,-448)"><path id="path2991" fill="url(#linearGradient3012)" fill-opacity="1" stroke="#2e3436" stroke-linecap="butt" stroke-linejoin="round" stroke-opacity="1" stroke-width="2" d="m 11,451 0,58.00002 42,0 0,-48 L 43,451 z"/><path id="path3763" fill="none" stroke="#fff" stroke-linecap="butt" stroke-linejoin="miter" stroke-opacity="1" stroke-width="2" d="m 13,453 0,54.00002 38,0 0,-45.1861 L 41.99741,453 z"/><path id="path2993" fill="#2e3436" fill-opacity=".392" stroke="#2e3436" stroke-linecap="butt" stroke-linejoin="round" stroke-opacity="1" stroke-width="2" d="m 43,451 0,10.00002 10,0 z"/><g id="g3130" transform="matrix(0.59317225,0,0,0.59317225,-110.43276,341.05109)"><path id="path3659-5" fill="url(#linearGradient3093)" fill-opacity="1" fill-rule="evenodd" stroke="#000137" stroke-dasharray="none" stroke-dashoffset="0" stroke-linecap="round" stroke-linejoin="round" stroke-miterlimit="4" stroke-opacity="1" stroke-width="2" d="m 260.91595,228.67519 -6.181,3.54624 -2.72947,-0.9472 -2.60415,-6.65538 -4.09646,0.21527 -1.86851,6.88208 -2.61507,1.25231 -6.52245,-2.85323 -2.75491,3.06135 3.54626,6.18099 -0.96909,2.72147 -6.65539,2.60415 0.23715,4.10445 6.88209,1.8685 1.25231,2.61508 -2.87511,6.51446 3.06135,2.7549 6.18098,-3.54625 2.74337,0.97708 2.58226,6.64739 4.12633,-0.22917 1.84662,-6.89006 2.61509,-1.25231 6.53633,2.88311 2.75491,-3.06135 -3.54626,-6.18099 0.95519,-2.75135 6.6474,-2.58227 -0.20727,-4.11834 -6.89008,-1.84662 -1.25231,-2.61507 2.86122,-6.54434 -3.06133,-2.7549 z m -9.25724,10.13606 1.26882,0.73619 1.0993,0.9967 0.88009,1.18946 0.6331,1.32248 0.37223,1.42561 0.0617,1.46101 -0.21102,1.46063 -0.48158,1.38662 -0.76607,1.28273 -0.96682,1.0854 -1.18947,0.88009 -1.32247,0.63309 -1.42562,0.37222 -1.46899,0.0836 -1.46065,-0.211 -1.38661,-0.48159 -1.28272,-0.76607 -1.07743,-0.98871 -0.88806,-1.16758 -0.63311,-1.32247 -0.36423,-1.4475 -0.0835,-1.469 0.21101,-1.46063 0.4816,-1.38662 0.75807,-1.26084 0.97483,-1.10728 1.18945,-0.88009 1.32248,-0.6331 1.44749,-0.36423 1.46101,-0.0617 1.46063,0.211 1.38662,0.4816 z" display="inline" enable-background="accumulate" overflow="visible" visibility="visible" style="marker:none"/><path id="path3659-5-6" fill="none" stroke="#729fcf" stroke-dasharray="none" stroke-dashoffset="0" stroke-linecap="round" stroke-linejoin="round" stroke-miterlimit="4" stroke-opacity="1" stroke-width="2" d="m 260.69444,231.0924 -5.7691,3.30493 -4.34979,-1.5641 -2.53291,-6.13402 -1.2242,0.0662 -1.76208,6.45163 -4.24628,1.93657 -6.01376,-2.61364 -0.80512,0.92167 3.32102,5.83339 -1.66426,4.26219 -6.06975,2.42042 0.0699,1.30296 6.40343,1.75483 1.98479,4.24628 -2.6495,6.00653 0.88951,0.77298 5.70483,-3.25672 4.58734,1.6072 2.25597,6.09466 1.22634,-0.0145 1.78325,-6.41065 L 256,256 l 6.28344,2.68888 0.75692,-0.80918 -3.32102,-5.68874 1.4267,-4.46601 6.2393,-2.48097 -0.0429,-1.28339 -6.33031,-1.62253 -2.09729,-4.2945 2.65301,-6.14605 z" display="inline" enable-background="accumulate" overflow="visible" visibility="visible" style="marker:none"/><path id="path3898" fill="none" stroke="#729fcf" stroke-dasharray="none" stroke-dashoffset="6" stroke-linecap="round" stroke-linejoin="round" stroke-miterlimit="4" stroke-opacity="1" stroke-width="1.812" d="m 49.851029,40.103004 c 0,4.801674 -3.892525,8.6942 -8.694199,8.6942 -4.801674,0 -8.6942,-3.892526 -8.6942,-8.6942 0,-4.801673 3.892526,-8.694199 8.6942,-8.694199 4.801674,0 8.694199,3.892526 8.694199,8.694199 z" transform="matrix(1.1037731,0,0,1.1037731,203.02372,201.30784)"/><path id="rect3663-8" fill="url(#linearGradient3806)" fill-opacity="1" fill-rule="evenodd" stroke="#280000" stroke-dasharray="none" stroke-dashoffset="0" stroke-linecap="butt" stroke-linejoin="miter" stroke-miterlimit="4" stroke-opacity="1" stroke-width="2" d="m 211.46571,208.61885 1e-5,58 11.99999,0 0,-24 12,0 0,-12 -12,0 0,-10 20,0 0,-12 z" display="inline" enable-background="accumulate" overflow="visible" visibility="visible" style="marker:none"/><path id="rect3663-8-3" fill="none" stroke="#ef2929" stroke-dasharray="none" stroke-dashoffset="0" stroke-linecap="butt" stroke-linejoin="miter" stroke-miterlimit="4" stroke-opacity="1" stroke-width="2" d="m 213.46571,210.61885 0,54 8,0 0,-24 12,0 0,-8 -12,0 0,-14 20,0 0,-8 z" display="inline" enable-background="accumulate" overflow="visible" visibility="visible" style="marker:none"/></g></g><g id="layer2" display="none" transform="translate(0,-448)"><path id="path4991" fill="#000" fill-opacity="1" stroke="none" d="m 234.6,227.6 0,56.8 54.8,-28.4 z" filter="url(#filter3850)" transform="matrix(1.567,0,0,1.567,-145,-165.2)"/><path id="path4989" fill="#fff" fill-opacity="1" stroke="none" d="m 222.5,191.4 0,89 85.9,-44.5 z"/></g><g id="layer4" display="none" transform="translate(0,-448)"><g id="g3882" fill="#000" stroke="none" filter="url(#filter3890)"><path id="path3884" fill="#000" fill-opacity="1" stroke="none" stroke-width="11.1" d="m 209.9,185.9 c -10.2,0 -18.7,8.5 -18.7,18.7 l 0,62.6 c 0,10.3 8.5,18.7 18.7,18.7 l 92.3,0 c 10.2,0 18.6,-8.4 18.6,-18.7 l 0,-62.6 c 0,-10.2 -8.4,-18.7 -18.6,-18.7 l -92.3,0 z m 0,11.2 92.3,0 c 4.3,0 7.5,3.2 7.6,7.5 l 0,62.6 c 0,4.3 -3.3,7.6 -7.6,7.6 l -92.3,0 c -4.3,0 -7.6,-3.3 -7.6,-7.6 l 0,-62.6 c 0,-4.3 3.3,-7.5 7.6,-7.5 z" baseline-shift="baseline" color="#000" direction="ltr" display="inline" enable-background="accumulate" font-family="Sans" font-size="medium" font-stretch="normal" font-style="normal" font-variant="normal" font-weight="normal" letter-spacing="normal" overflow="visible" text-anchor="start" text-decoration="none" visibility="visible" word-spacing="normal" writing-mode="lr-tb" style="text-indent:0;text-align:start;line-height:normal;text-transform:none;block-progression:tb;marker:none;-inkscape-font-specification:Sans"/><path id="path3886" fill="#000" fill-opacity="1" stroke="none" stroke-width="8.88" d="m 214.3,256.4 0,8.8 83.4,0 0,-8.8 -83.4,0 z" baseline-shift="baseline" color="#000" direction="ltr" display="inline" enable-background="accumulate" font-family="Sans" font-size="medium" font-stretch="normal" font-style="normal" font-variant="normal" font-weight="normal" letter-spacing="normal" overflow="visible" text-anchor="start" text-decoration="none" visibility="visible" word-spacing="normal" writing-mode="lr-tb" style="text-indent:0;text-align:start;line-height:normal;text-transform:none;block-progression:tb;marker:none;-inkscape-font-specification:Sans"/><path id="path3888" fill="#000" fill-opacity="1" stroke="none" stroke-width="8.88" d="m 214.3,242.2 0,8.8 83.4,0 0,-8.8 -83.4,0 z" baseline-shift="baseline" color="#000" direction="ltr" display="inline" enable-background="accumulate" font-family="Sans" font-size="medium" font-stretch="normal" font-style="normal" font-variant="normal" font-weight="normal" letter-spacing="normal" overflow="visible" text-anchor="start" text-decoration="none" visibility="visible" word-spacing="normal" writing-mode="lr-tb" style="text-indent:0;text-align:start;line-height:normal;text-transform:none;block-progression:tb;marker:none;-inkscape-font-specification:Sans"/></g><g id="g3877" fill="#fff" stroke="none"><path id="rect3873" fill="#fff" fill-opacity="1" stroke="none" stroke-width="11.1" d="m 209.9,185.9 c -10.2,0 -18.7,8.5 -18.7,18.7 l 0,62.6 c 0,10.3 8.5,18.7 18.7,18.7 l 92.3,0 c 10.2,0 18.6,-8.4 18.6,-18.7 l 0,-62.6 c 0,-10.2 -8.4,-18.7 -18.6,-18.7 l -92.3,0 z m 0,11.2 92.3,0 c 4.3,0 7.5,3.2 7.6,7.5 l 0,62.6 c 0,4.3 -3.3,7.6 -7.6,7.6 l -92.3,0 c -4.3,0 -7.6,-3.3 -7.6,-7.6 l 0,-62.6 c 0,-4.3 3.3,-7.5 7.6,-7.5 z" baseline-shift="baseline" color="#000" direction="ltr" display="inline" enable-background="accumulate" font-family="Sans" font-size="medium" font-stretch="normal" font-style="normal" font-variant="normal" font-weight="normal" letter-spacing="normal" overflow="visible" text-anchor="start" text-decoration="none" visibility="visible" word-spacing="normal" writing-mode="lr-tb" style="text-indent:0;text-align:start;line-height:normal;text-transform:none;block-progression:tb;marker:none;-inkscape-font-specification:Sans"/><path id="path3875" fill="#fff" fill-opacity="1" stroke="none" stroke-width="8.88" d="m 214.3,256.4 0,8.8 83.4,0 0,-8.8 -83.4,0 z" baseline-shift="baseline" color="#000" direction="ltr" display="inline" enable-background="accumulate" font-family="Sans" font-size="medium" font-stretch="normal" font-style="normal" font-variant="normal" font-weight="normal" letter-spacing="normal" overflow="visible" text-anchor="start" text-decoration="none" visibility="visible" word-spacing="normal" writing-mode="lr-tb" style="text-indent:0;text-align:start;line-height:normal;text-transform:none;block-progression:tb;marker:none;-inkscape-font-specification:Sans"/><path id="path3877" fill="#fff" fill-opacity="1" stroke="none" stroke-width="8.88" d="m 214.3,242.2 0,8.8 83.4,0 0,-8.8 -83.4,0 z" baseline-shift="baseline" color="#000" direction="ltr" display="inline" enable-background="accumulate" font-family="Sans" font-size="medium" font-stretch="normal" font-style="normal" font-variant="normal" font-weight="normal" letter-spacing="normal" overflow="visible" text-anchor="start" text-decoration="none" visibility="visible" word-spacing="normal" writing-mode="lr-tb" style="text-indent:0;text-align:start;line-height:normal;text-transform:none;block-progression:tb;marker:none;-inkscape-font-specification:Sans"/></g></g></svg>