<svg xmlns="http://www.w3.org/2000/svg" xmlns:svg="http://www.w3.org/2000/svg" xmlns:xlink="http://www.w3.org/1999/xlink" id="svg6361" width="64" height="64" version="1.1"><defs id="defs3"><linearGradient id="linearGradient2431"><stop id="stop2433" offset="0" stop-color="#fff" stop-opacity="1"/><stop id="stop2435" offset="1" stop-color="#b8b8b8" stop-opacity="1"/></linearGradient><linearGradient id="linearGradient21644"><stop id="stop21646" offset="0" stop-color="#000" stop-opacity="1"/><stop id="stop21648" offset="1" stop-color="#000" stop-opacity="0"/></linearGradient><radialGradient id="radialGradient21650" cx="25.125" cy="36.75" r="15.75" fx="25.125" fy="36.75" gradientTransform="matrix(1,0,0,0.595238,0,14.875)" gradientUnits="userSpaceOnUse" xlink:href="#linearGradient21644"/><linearGradient id="linearGradient2933"><stop id="stop2935" offset="0" stop-color="#9cbcde" stop-opacity="1"/><stop id="stop2937" offset="1" stop-color="#204a87"/></linearGradient><radialGradient id="radialGradient2207" cx="26.544" cy="28.459" r="22.376" fx="26.544" fy="28.459" gradientTransform="matrix(1.238342,0.00595485,-0.00650776,1.351272,-6.992513,-9.744842)" gradientUnits="userSpaceOnUse" xlink:href="#linearGradient2933"/><radialGradient id="radialGradient2437" cx="-19.516" cy="16.856" r="8.754" fx="-19.516" fy="16.856" gradientTransform="matrix(4.445991,0,0,6.8665,67.25071,-104.6679)" gradientUnits="userSpaceOnUse" xlink:href="#linearGradient2431"/><linearGradient id="linearGradient3786" x1="41.643" x2="22.357" y1="58.786" y2="7.357" gradientUnits="userSpaceOnUse" xlink:href="#linearGradient3780"/><linearGradient id="linearGradient3780"><stop id="stop3782" offset="0" stop-color="#3465a4" stop-opacity="1"/><stop id="stop3784" offset="1" stop-color="#729fcf" stop-opacity="0"/></linearGradient></defs><metadata id="metadata4"/><g id="layer1" transform="translate(0,16)"><path id="path2992" fill="#729fcf" stroke="#0b1521" stroke-dasharray="none" stroke-linecap="round" stroke-linejoin="round" stroke-miterlimit="4" stroke-width="2.069" d="M 62,32 A 30,30 0 1 1 2,32 30,30 0 1 1 62,32 z" transform="matrix(0.96666667,0,0,0.96666667,1.0666666,-14.933333)"/><path id="path2992-3" fill="url(#linearGradient3786)" fill-opacity="1" stroke="#729fcf" stroke-dasharray="none" stroke-linecap="round" stroke-linejoin="round" stroke-miterlimit="4" stroke-width="2.222" d="M 62,32 A 30,30 0 1 1 2,32 30,30 0 1 1 62,32 z" transform="matrix(0.9,0,0,0.9,3.1999996,-12.8)"/><path id="path1554" fill="url(#radialGradient2437)" fill-opacity="1" stroke="#729fcf" stroke-linecap="butt" stroke-linejoin="round" stroke-opacity="1" stroke-width="1.197" d="m -20.25,5.6615838 c -1.059019,2.63e-5 -2.147637,0.1232356 -3.28125,0.34375 -1.132925,0.2204283 -2.009413,0.5375125 -3.379251,1 -0.01037,-0.00121 -0.02088,-0.00121 -0.03125,0 -0.01204,0.00861 -0.02264,0.019214 -0.03125,0.03125 -0.01204,0.00861 -0.02264,0.019214 -0.03125,0.03125 -0.0012,0.01037 -0.0012,0.02088 0,0.03125 -0.0012,0.01037 -0.0012,0.02088 0,0.03125 l 0,5.1562502 c -0.0012,0.01037 -0.0012,0.02088 0,0.03125 -0.0012,0.01037 -0.0012,0.02088 0,0.03125 0.0086,0.01204 0.01921,0.02264 0.03125,0.03125 0.0086,0.01204 0.01921,0.02264 0.03125,0.03125 0.01037,0.0012 0.02088,0.0012 0.03125,0 0.01037,0.0012 0.02088,0.0012 0.03125,0 0.01037,0.0012 0.02088,0.0012 0.03125,0 0.01037,0.0012 0.02088,0.0012 0.03125,0 1.142438,-0.719043 1.862603,-1.267138 2.910501,-1.625 1.048141,-0.368756 2.043116,-0.562479 2.9375,-0.5625 0.949218,2.1e-5 1.644925,0.210545 2.15625,0.625 0.508723,0.40209 0.781238,0.98304 0.78125,1.71875 -10e-6,0.480657 -0.144188,0.95141 -0.4375,1.4375 -0.282991,0.487016 -0.740265,1.243911 -1.375,1.807166 L -20.9375,16.75 c -1.201459,1.08049 -1.779516,1.991022 -2.165273,2.71875 -0.383113,0.711446 -0.359769,1.231656 -0.359769,2.149832 l 0,0.8125 c -0.0012,0.01037 -0.0012,0.02088 0,0.03125 -0.0012,0.01037 -0.0012,0.02088 0,0.03125 0.0086,0.01204 0.01921,0.02264 0.03125,0.03125 0.0086,0.01204 0.01921,0.02264 0.03125,0.03125 0.01037,0.0012 0.02088,0.0012 0.03125,0 0.01037,0.0012 0.02088,0.0012 0.03125,0 l 5.681292,-0.0283 c 0.01037,0.0012 0.02088,0.0012 0.03125,0 0.01037,0.0012 0.02088,0.0012 0.03125,0 0.01204,-0.0086 0.02264,-0.01921 0.03125,-0.03125 0.01204,-0.0086 0.02264,-0.01921 0.03125,-0.03125 0.0012,-0.01037 0.0012,-0.02088 0,-0.03125 0.0012,-0.01037 0.0012,-0.02088 0,-0.03125 l 0,-0.75 c -1.1e-5,-0.468196 0.14837,-0.576885 0.375,-0.965286 0.222295,-0.391284 0.708073,-0.950359 1.46875,-1.625 l 1.0625,-0.9375 c 1.066588,-0.98231 1.830659,-1.884654 2.28125,-2.75 0.449269,-0.874046 0.687482,-2.086836 0.6875,-3.182166 -1.8e-5,-2.126265 -0.743769,-3.7340278 -2.21875,-4.8437502 -1.475197,-1.1210252 -3.60624,-1.6874737 -6.375,-1.687496 z" font-family="Bitstream Vera Sans" font-size="34.153" font-stretch="normal" font-style="normal" font-variant="normal" font-weight="bold" text-anchor="start" transform="matrix(1.6857762,0,0,1.6566384,66.553764,-14.35579)" writing-mode="lr-tb" style="text-align:start;line-height:125%"/><path id="path3788" fill="#fff" stroke="#729fcf" stroke-linecap="butt" stroke-linejoin="round" stroke-opacity="1" stroke-width="2" d="m 27,27 10,0 0,10 -10,0 z"/></g></svg>