<svg xmlns="http://www.w3.org/2000/svg" xmlns:svg="http://www.w3.org/2000/svg" xmlns:xlink="http://www.w3.org/1999/xlink" id="svg2" width="64" height="64" version="1.1" viewBox="0 0 64 64"><defs id="defs4"><linearGradient id="linearGradient3798"><stop id="stop3800" offset="0" stop-color="#555753" stop-opacity="1"/><stop id="stop3802" offset="1" stop-color="#d3d7cf" stop-opacity="1"/></linearGradient><linearGradient id="linearGradient3804" x1="34" x2="14" y1="1046.362" y2="994.362" gradientUnits="userSpaceOnUse" xlink:href="#linearGradient3798"/></defs><metadata id="metadata7"/><g id="layer1" transform="translate(0,-988.36218)"><path id="path11871" fill="url(#linearGradient3804)" fill-opacity="1" stroke="#2e3436" stroke-width="2" d="m 17.031118,991.36218 0,34.92312 q 0,6.1539 2.385489,10.2309 3.53845,6.1536 11.927393,6.1536 10.058768,0 13.676752,-6.6539 1.948129,-3.6154 1.948129,-9.7306 l 0,-34.92312 8.031119,0 0,31.73082 q 0,10.423 -2.902334,16.0383 -5.327572,10.2309 -20.117534,10.2309 -14.789977,0 -20.077798,-10.2309 Q 9,1033.516 9,1023.093 l 0,-31.73082 8.031118,0 z m 14.988766,0 0,0 z" font-family="sans-serif" font-size="medium" font-style="normal" font-weight="normal" letter-spacing="0" text-anchor="middle" word-spacing="0" style="text-align:center;line-height:125%"/><path id="path11871-3" fill="none" stroke="#d3d7cf" stroke-width="2" d="m 15,993.36218 0,32.51462 c 0,3.8196 0.547963,7.9548 2,10.4854 3,6 7,8 15,8 8,0 13,-3 15,-8 1.185818,-2.244 2,-6.6897 2,-10.4854 l 0,-32.51462 4,0 0,29.54242 c 0,6.4695 -0.883319,11.4469 -2.649958,14.9323 -3.242869,6.3502 -8.350042,9.5253 -18.368182,9.5253 -9.98186,0 -15.11323,-3.1751 -18.331903,-9.5253 C 11.883319,1034.3515 11,1029.3741 11,1022.9046 l 0,-29.54242 z" font-family="sans-serif" font-size="medium" font-style="normal" font-weight="normal" letter-spacing="0" text-anchor="middle" word-spacing="0" style="text-align:center;line-height:125%"/></g></svg>