<svg xmlns="http://www.w3.org/2000/svg" xmlns:svg="http://www.w3.org/2000/svg" xmlns:xlink="http://www.w3.org/1999/xlink" id="svg4198" width="64" height="64" version="1.1"><defs id="defs4200"><linearGradient id="linearGradient15218"><stop id="stop15220" offset="0" stop-color="#f0f0ef" stop-opacity="1"/><stop id="stop2269" offset=".599" stop-color="#e8e8e8" stop-opacity="1"/><stop id="stop2267" offset=".828" stop-color="#fff" stop-opacity="1"/><stop id="stop15222" offset="1" stop-color="#d8d8d3" stop-opacity="1"/></linearGradient><linearGradient id="linearGradient2259"><stop id="stop2261" offset="0" stop-color="#fff" stop-opacity="1"/><stop id="stop2263" offset="1" stop-color="#fff" stop-opacity="0"/></linearGradient><linearGradient id="linearGradient2224"><stop id="stop2226" offset="0" stop-color="#7c7c7c" stop-opacity="1"/><stop id="stop2228" offset="1" stop-color="#b8b8b8" stop-opacity="1"/></linearGradient><linearGradient id="linearGradient2230" x1="35.997" x2="33.665" y1="40.458" y2="37.771" gradientTransform="translate(6.8427644,3.3318524)" gradientUnits="userSpaceOnUse" xlink:href="#linearGradient2224"/><linearGradient id="linearGradient2251"><stop id="stop2253" offset="0" stop-color="#fff" stop-opacity="1"/><stop id="stop2255" offset="1" stop-color="#fff" stop-opacity="0"/></linearGradient><linearGradient id="linearGradient2257" x1="33.396" x2="34.17" y1="36.921" y2="38.07" gradientTransform="translate(6.9388624,3.1297499)" gradientUnits="userSpaceOnUse" xlink:href="#linearGradient2251"/><linearGradient id="linearGradient4258" x1="22.308" x2="35.785" y1="18.992" y2="39.498" gradientTransform="matrix(1.084283,0,0,0.987595,-8.7244004,-4.891713)" gradientUnits="userSpaceOnUse" xlink:href="#linearGradient15218"/><linearGradient id="linearGradient4260" x1="26.076" x2="30.811" y1="26.697" y2="42.007" gradientTransform="matrix(0.9820092,0,0,0.9700232,-6.2978926,-4.1789139)" gradientUnits="userSpaceOnUse" xlink:href="#linearGradient2259"/><linearGradient id="linearGradient13651" x1="26.076" x2="30.811" y1="26.697" y2="42.007" gradientTransform="matrix(0.96778611,0,0,0.97062068,7.4392664,4.0539167)" gradientUnits="userSpaceOnUse" xlink:href="#linearGradient2259"/><linearGradient id="linearGradient13653" x1="22.308" x2="35.785" y1="18.992" y2="39.498" gradientTransform="matrix(1.067236,0,0,0.989276,5.0726124,3.3336684)" gradientUnits="userSpaceOnUse" xlink:href="#linearGradient15218"/><radialGradient id="radialGradient3817" cx="270.583" cy="33.9" r="19.571" fx="270.583" fy="33.9" gradientTransform="matrix(1.1149219,0.2722306,-0.7507171,3.0745639,-471.08629,-148.32863)" gradientUnits="userSpaceOnUse" xlink:href="#linearGradient3682"/><linearGradient id="linearGradient3682"><stop id="stop3684" offset="0" stop-color="#ff6d0f" stop-opacity="1"/><stop id="stop3686" offset="1" stop-color="#ff1000" stop-opacity="1"/></linearGradient><radialGradient id="radialGradient3661" cx="282.646" cy="29.149" r="19.571" fx="282.646" fy="29.149" gradientTransform="matrix(0.6186598,0.9666542,-1.0332462,0.6612786,-327.27568,-255.84136)" gradientUnits="userSpaceOnUse" xlink:href="#linearGradient3864"/><linearGradient id="linearGradient3864"><stop id="stop3866" offset="0" stop-color="#71b2f8" stop-opacity="1"/><stop id="stop3868" offset="1" stop-color="#002795" stop-opacity="1"/></linearGradient><linearGradient id="linearGradient2696" x1="32.648" x2="37.124" y1="30.749" y2="24.842" gradientUnits="userSpaceOnUse" xlink:href="#linearGradient2690"/><linearGradient id="linearGradient2688" x1="36.714" x2="37.124" y1="31.456" y2="24.842" gradientUnits="userSpaceOnUse" xlink:href="#linearGradient2682"/><linearGradient id="linearGradient2408" x1="18.936" x2="53.589" y1="23.668" y2="26.649" gradientUnits="userSpaceOnUse" xlink:href="#linearGradient2402"/><linearGradient id="linearGradient2386" x1="62.514" x2="15.985" y1="36.061" y2="20.609" gradientUnits="userSpaceOnUse" xlink:href="#linearGradient2380"/><radialGradient id="radialGradient1503" cx="24.837" cy="36.421" r="15.645" fx="24.837" fy="36.421" gradientTransform="matrix(1,0,0,0.536723,0,16.87306)" gradientUnits="userSpaceOnUse" xlink:href="#linearGradient8662"/><linearGradient id="linearGradient1501" x1="46.835" x2="45.38" y1="45.264" y2="50.94" gradientUnits="userSpaceOnUse" xlink:href="#linearGradient2871"/><linearGradient id="linearGradient1493" x1="5.965" x2="52.854" y1="26.048" y2="26.048" gradientUnits="userSpaceOnUse" xlink:href="#linearGradient2797"/><linearGradient id="linearGradient1491" x1="5.965" x2="52.854" y1="26.048" y2="26.048" gradientUnits="userSpaceOnUse" xlink:href="#linearGradient2797"/><linearGradient id="linearGradient1488" x1="37.128" x2="37.065" y1="29.73" y2="26.194" gradientTransform="matrix(-1,0,0,-1,47.52791,45.84741)" gradientUnits="userSpaceOnUse" xlink:href="#linearGradient2847"/><linearGradient id="linearGradient1486" x1="13.479" x2="15.419" y1="10.612" y2="19.115" gradientTransform="translate(0.465413,-0.277593)" gradientUnits="userSpaceOnUse" xlink:href="#linearGradient2831"/><linearGradient id="linearGradient8662"><stop id="stop8664" offset="0" stop-color="#000" stop-opacity="1"/><stop id="stop8666" offset="1" stop-color="#000" stop-opacity="0"/></linearGradient><linearGradient id="linearGradient2797"><stop id="stop2799" offset="0" stop-color="#fff" stop-opacity="1"/><stop id="stop2801" offset="1" stop-color="#fff" stop-opacity="0"/></linearGradient><linearGradient id="linearGradient2831"><stop id="stop2833" offset="0" stop-color="#3465a4" stop-opacity="1"/><stop id="stop2855" offset=".333" stop-color="#5b86be" stop-opacity="1"/><stop id="stop2835" offset="1" stop-color="#83a8d8" stop-opacity="0"/></linearGradient><linearGradient id="linearGradient2847"><stop id="stop2849" offset="0" stop-color="#3465a4" stop-opacity="1"/><stop id="stop2851" offset="1" stop-color="#3465a4" stop-opacity="0"/></linearGradient><linearGradient id="linearGradient2871"><stop id="stop2873" offset="0" stop-color="#3465a4" stop-opacity="1"/><stop id="stop2875" offset="1" stop-color="#3465a4" stop-opacity="1"/></linearGradient><linearGradient id="linearGradient2380"><stop id="stop2382" offset="0" stop-color="#b9cfe7" stop-opacity="1"/><stop id="stop2384" offset="1" stop-color="#729fcf" stop-opacity="1"/></linearGradient><linearGradient id="linearGradient2402"><stop id="stop2404" offset="0" stop-color="#729fcf" stop-opacity="1"/><stop id="stop2406" offset="1" stop-color="#528ac5" stop-opacity="1"/></linearGradient><linearGradient id="linearGradient2682"><stop id="stop2684" offset="0" stop-color="#3977c3" stop-opacity="1"/><stop id="stop2686" offset="1" stop-color="#89aedc" stop-opacity="0"/></linearGradient><linearGradient id="linearGradient2690"><stop id="stop2692" offset="0" stop-color="#c4d7eb" stop-opacity="1"/><stop id="stop2694" offset="1" stop-color="#c4d7eb" stop-opacity="0"/></linearGradient><linearGradient id="linearGradient3681" x1="62.514" x2="15.985" y1="36.061" y2="20.609" gradientUnits="userSpaceOnUse" xlink:href="#linearGradient2380"/><linearGradient id="linearGradient3683" x1="46.835" x2="45.38" y1="45.264" y2="50.94" gradientUnits="userSpaceOnUse" xlink:href="#linearGradient2871"/><linearGradient id="linearGradient3685" x1="18.936" x2="53.589" y1="23.668" y2="26.649" gradientUnits="userSpaceOnUse" xlink:href="#linearGradient2402"/><linearGradient id="linearGradient3687" x1="46.835" x2="45.38" y1="45.264" y2="50.94" gradientUnits="userSpaceOnUse" xlink:href="#linearGradient2871"/><linearGradient id="linearGradient3698" x1="32.648" x2="37.124" y1="30.749" y2="24.842" gradientTransform="translate(-64.247811,5.5825138)" gradientUnits="userSpaceOnUse" xlink:href="#linearGradient2690"/><linearGradient id="linearGradient3700" x1="36.714" x2="37.124" y1="31.456" y2="24.842" gradientTransform="translate(-64.247811,5.5825138)" gradientUnits="userSpaceOnUse" xlink:href="#linearGradient2682"/><linearGradient id="linearGradient3705" x1="13.479" x2="15.419" y1="10.612" y2="19.115" gradientTransform="translate(-63.782398,5.3049208)" gradientUnits="userSpaceOnUse" xlink:href="#linearGradient2831"/><linearGradient id="linearGradient3707" x1="37.128" x2="37.065" y1="29.73" y2="26.194" gradientTransform="matrix(-1,0,0,-1,-16.719901,51.429924)" gradientUnits="userSpaceOnUse" xlink:href="#linearGradient2847"/><linearGradient id="linearGradient3745" x1="13.479" x2="15.419" y1="10.612" y2="19.115" gradientTransform="translate(-63.782398,5.3049208)" gradientUnits="userSpaceOnUse" xlink:href="#linearGradient2831"/><linearGradient id="linearGradient3747" x1="37.128" x2="37.065" y1="29.73" y2="26.194" gradientTransform="matrix(-1,0,0,-1,-16.719901,51.429924)" gradientUnits="userSpaceOnUse" xlink:href="#linearGradient2847"/><linearGradient id="linearGradient3749" x1="62.514" x2="15.985" y1="36.061" y2="20.609" gradientUnits="userSpaceOnUse" xlink:href="#linearGradient2380"/><linearGradient id="linearGradient3751" x1="46.835" x2="45.38" y1="45.264" y2="50.94" gradientUnits="userSpaceOnUse" xlink:href="#linearGradient2871"/><linearGradient id="linearGradient3753" x1="62.514" x2="15.985" y1="36.061" y2="20.609" gradientUnits="userSpaceOnUse" xlink:href="#linearGradient2380"/><linearGradient id="linearGradient3755" x1="5.965" x2="52.854" y1="26.048" y2="26.048" gradientUnits="userSpaceOnUse" xlink:href="#linearGradient2797"/><radialGradient id="radialGradient3757" cx="24.837" cy="36.421" r="15.645" fx="24.837" fy="36.421" gradientTransform="matrix(1,0,0,0.536723,0,16.87306)" gradientUnits="userSpaceOnUse" xlink:href="#linearGradient8662"/><linearGradient id="linearGradient3759" x1="32.648" x2="37.124" y1="30.749" y2="24.842" gradientTransform="translate(-64.247811,5.5825138)" gradientUnits="userSpaceOnUse" xlink:href="#linearGradient2690"/><linearGradient id="linearGradient3761" x1="36.714" x2="37.124" y1="31.456" y2="24.842" gradientTransform="translate(-64.247811,5.5825138)" gradientUnits="userSpaceOnUse" xlink:href="#linearGradient2682"/><linearGradient id="linearGradient3763" x1="18.936" x2="53.589" y1="23.668" y2="26.649" gradientUnits="userSpaceOnUse" xlink:href="#linearGradient2402"/><linearGradient id="linearGradient3765" x1="46.835" x2="45.38" y1="45.264" y2="50.94" gradientUnits="userSpaceOnUse" xlink:href="#linearGradient2871"/><linearGradient id="linearGradient3767" x1="18.936" x2="53.589" y1="23.668" y2="26.649" gradientUnits="userSpaceOnUse" xlink:href="#linearGradient2402"/><linearGradient id="linearGradient3769" x1="46.835" x2="45.38" y1="45.264" y2="50.94" gradientUnits="userSpaceOnUse" xlink:href="#linearGradient2871"/><linearGradient id="linearGradient3771" x1="5.965" x2="52.854" y1="26.048" y2="26.048" gradientUnits="userSpaceOnUse" xlink:href="#linearGradient2797"/><linearGradient id="linearGradient3806" x1="-206.699" x2="-211.402" y1="68.842" y2="7.711" gradientTransform="matrix(0.8506406,0,0,0.8506406,98.197782,5.1873131)" gradientUnits="userSpaceOnUse" xlink:href="#linearGradient3682-0"/><linearGradient id="linearGradient3682-0"><stop id="stop3684-0" offset="0" stop-color="#a40000" stop-opacity="1"/><stop id="stop3686-0" offset="1" stop-color="#ef2929" stop-opacity="1"/></linearGradient><linearGradient id="linearGradient3808" x1="-146.745" x2="-157.325" y1="58.262" y2="26.521" gradientTransform="matrix(1.0094494,0,0,1.0094493,-20.307973,3.7260081)" gradientUnits="userSpaceOnUse" xlink:href="#linearGradient3864-9"/><linearGradient id="linearGradient3864-9"><stop id="stop3866-1" offset="0" stop-color="#204a87" stop-opacity="1"/><stop id="stop3868-1" offset="1" stop-color="#729fcf" stop-opacity="1"/></linearGradient><linearGradient id="linearGradient3168" x1="-146.745" x2="-157.325" y1="58.262" y2="26.521" gradientTransform="matrix(0.85867864,0,0,0.85867856,80.922992,8.356807)" gradientUnits="userSpaceOnUse" xlink:href="#linearGradient3864-9"/><linearGradient id="linearGradient3212" x1="-146.745" x2="-157.325" y1="58.262" y2="26.521" gradientTransform="matrix(0.85867864,0,0,0.85867856,80.922992,8.356807)" gradientUnits="userSpaceOnUse" xlink:href="#linearGradient3864-9"/><linearGradient id="linearGradient3214" x1="-206.699" x2="-211.402" y1="68.842" y2="7.711" gradientTransform="matrix(0.8506406,0,0,0.8506406,98.197782,5.1873131)" gradientUnits="userSpaceOnUse" xlink:href="#linearGradient3682-0"/></defs><metadata id="metadata4203"/><g id="layer1" transform="translate(0,16)"><g id="g4268" opacity=".5" transform="matrix(1.3337003,0,0,1.3325124,0.93484405,-15.082624)"><rect id="rect2279" width="13" height="2" x="20.162" y="34.033" fill="#000" fill-opacity="1" fill-rule="evenodd" stroke="none" stroke-width="1" color="#000" display="inline" opacity=".17" overflow="visible" visibility="visible" style="marker:none"/><rect id="rect4238" width="31.491" height="35.977" x="1.548" y="1.563" fill="url(#linearGradient4258)" fill-opacity="1" fill-rule="evenodd" stroke="#888a85" stroke-dasharray="none" stroke-dashoffset="0" stroke-linecap="butt" stroke-linejoin="miter" stroke-miterlimit="4" stroke-opacity="1" stroke-width="1.5" rx=".576" ry=".566"/><rect id="rect4240" width="28.492" height="33.02" x="3.048" y="3.064" fill="none" stroke="url(#linearGradient4260)" stroke-dasharray="none" stroke-dashoffset="0" stroke-linecap="butt" stroke-linejoin="miter" stroke-miterlimit="4" stroke-opacity="1" stroke-width="1.5" rx="0" ry="0"/><rect id="rect4248" width="21" height="2" x="7.016" y="10.033" fill="#000" fill-opacity="1" fill-rule="evenodd" stroke="none" stroke-width="1" color="#000" display="inline" opacity=".17" overflow="visible" visibility="visible" style="marker:none"/><rect id="rect4250" width="20" height="2" x="7.016" y="14.033" fill="#000" fill-opacity="1" fill-rule="evenodd" stroke="none" stroke-width="1" color="#000" display="inline" opacity=".17" overflow="visible" visibility="visible" style="marker:none"/><rect id="rect4252" width="18" height="2" x="7.016" y="18.033" fill="#000" fill-opacity="1" fill-rule="evenodd" stroke="none" stroke-width="1" color="#000" display="inline" opacity=".17" overflow="visible" visibility="visible" style="marker:none"/><rect id="rect4254" width="21" height="2" x="7.016" y="22.033" fill="#000" fill-opacity="1" fill-rule="evenodd" stroke="none" stroke-width="1" color="#000" display="inline" opacity=".17" overflow="visible" visibility="visible" style="marker:none"/><rect id="rect4256" width="13" height="2" x="7.016" y="26.033" fill="#000" fill-opacity="1" fill-rule="evenodd" stroke="none" stroke-width="1" color="#000" display="inline" opacity=".17" overflow="visible" visibility="visible" style="marker:none"/></g><g id="g12863" transform="matrix(1.3533009,0,0,1.3316921,-1.5322238,-16.049642)"><path id="rect12413" fill="url(#linearGradient13653)" fill-opacity="1" fill-rule="evenodd" stroke="#888a85" stroke-dashoffset="0" stroke-linecap="butt" stroke-linejoin="miter" stroke-miterlimit="4" stroke-opacity="1" stroke-width="1.49" d="m 15.753874,9.7992934 29.856385,0 c 0.31574,0 0.569926,0.2530926 0.569926,0.5674716 l 0,27.167362 c 0,2.476452 -6.87981,8.303087 -9.267932,8.303087 l -21.158379,0 c -0.31574,0 -0.569926,-0.253092 -0.569926,-0.567473 l 0,-34.902976 c 0,-0.314379 0.254186,-0.5674716 0.569926,-0.5674716 z"/><rect id="rect15244" width="28.079" height="33.041" x="16.65" y="11.301" fill="none" stroke="url(#linearGradient13651)" stroke-dasharray="none" stroke-dashoffset="0" stroke-linecap="butt" stroke-linejoin="miter" stroke-miterlimit="4" stroke-opacity="1" stroke-width="1.49" rx="0" ry="0"/><path stroke-miterlimit="4" style="marker:none" id="path2210" fill="url(#linearGradient2230)" fill-opacity="1" fill-rule="evenodd" stroke="#868a84" stroke-dasharray="none" stroke-dashoffset="0" stroke-linecap="butt" stroke-linejoin="miter" stroke-opacity="1" stroke-width="1.49" d="m 36.901846,45.835407 c 2.030418,0.329898 9.588793,-4.529929 9.284411,-8.497844 -1.563262,2.423097 -4.758522,1.286738 -8.86728,1.445748 0,0 0.395369,6.552096 -0.417131,7.052096 z" color="#000" display="inline" overflow="visible" visibility="visible"/><path id="path2247" fill="none" stroke="url(#linearGradient2257)" stroke-dasharray="none" stroke-dashoffset="0" stroke-linecap="butt" stroke-linejoin="miter" stroke-miterlimit="4" stroke-opacity="1" stroke-width=".745" d="m 38.448381,43.816801 c 1.369779,-0.683829 4.428249,-2.146465 5.72763,-4.027469 -1.596094,0.680055 -2.94781,0.209496 -5.702334,0.190405 0,0 0.162322,3.062094 -0.0253,3.837064 z" color="#000" display="inline" opacity=".369" overflow="visible" visibility="visible" style="marker:none"/></g><g id="g3205" transform="matrix(0.48144021,0,0,0.48144028,68.706783,0.7888651)"><path id="path3659-5" fill="url(#linearGradient3212)" fill-opacity="1" fill-rule="evenodd" stroke="#000137" stroke-dasharray="none" stroke-dashoffset="0" stroke-linecap="round" stroke-linejoin="round" stroke-miterlimit="4" stroke-opacity="1" stroke-width="4.154" d="m -37.178967,28.803284 -6.180993,3.546247 -2.729476,-0.947201 -2.604143,-6.655379 -4.096464,0.21527 -1.868508,6.882078 -2.615074,1.252306 -6.522448,-2.85323 -2.75491,3.061349 3.546261,6.180989 -0.969093,2.721475 -6.655386,2.60415 0.23715,4.104451 6.882091,1.868503 1.252304,2.615071 -2.875105,6.514464 3.061345,2.754904 6.180984,-3.546249 2.743367,0.977075 2.582264,6.647391 4.12633,-0.229167 1.846622,-6.890065 2.615081,-1.252307 6.536331,2.883105 2.75491,-3.06135 -3.546252,-6.180988 0.955184,-2.75135 6.647399,-2.58227 -0.207267,-4.11834 -6.890078,-1.846619 -1.252313,-2.615072 2.861223,-6.544338 -3.061336,-2.754903 z m -9.257241,10.136064 1.268824,0.736194 1.099299,0.996698 0.88009,1.189461 0.633098,1.322475 0.372232,1.425614 0.06167,1.46101 -0.211018,1.46063 -0.481582,1.38662 -0.76607,1.282723 -0.966821,1.085402 -1.189468,0.880088 -1.322473,0.633095 -1.425615,0.372223 -1.468996,0.08356 -1.460644,-0.211006 -1.386612,-0.481592 -1.282715,-0.766069 -1.07743,-0.988709 -0.88806,-1.167575 -0.633115,-1.322473 -0.364227,-1.447498 -0.08353,-1.469 0.21101,-1.460634 0.481598,-1.386617 0.758074,-1.260841 0.974826,-1.107284 1.189451,-0.880088 1.322474,-0.633098 1.447492,-0.36423 1.461009,-0.06167 1.460635,0.211004 1.386621,0.481593 z" display="inline" enable-background="accumulate" overflow="visible" visibility="visible" style="marker:none"/><path id="path3659-5-6" fill="none" stroke="#729fcf" stroke-dasharray="none" stroke-dashoffset="0" stroke-linecap="round" stroke-linejoin="round" stroke-miterlimit="4" stroke-opacity="1" stroke-width="4.154" d="m -37.400474,31.220497 -5.769096,3.304934 -4.349793,-1.564099 -2.53291,-6.134027 -1.224199,0.0662 -1.762085,6.451631 -4.246279,1.936568 -6.013757,-2.613635 -0.805123,0.921673 3.32102,5.833384 -1.664261,4.262195 -6.069746,2.420417 0.06992,1.30296 6.403427,1.754832 1.984791,4.24628 -2.649498,6.006532 0.889514,0.772979 5.704822,-3.256725 4.587343,1.607198 2.255975,6.094659 1.226335,-0.01449 1.783249,-6.410646 4.165927,-2.081205 6.283444,2.688876 0.756917,-0.809178 -3.321012,-5.688747 1.426695,-4.466002 6.239296,-2.480975 -0.04287,-1.283384 -6.330305,-1.622539 -2.097289,-4.294491 2.653012,-6.146057 z" display="inline" enable-background="accumulate" overflow="visible" visibility="visible" style="marker:none"/><path id="path3898" fill="none" stroke="#729fcf" stroke-dasharray="none" stroke-dashoffset="6" stroke-linecap="round" stroke-linejoin="round" stroke-miterlimit="4" stroke-opacity="1" stroke-width="3.764" d="m 49.851029,40.103004 c 0,4.801674 -3.892525,8.6942 -8.694199,8.6942 -4.801674,0 -8.6942,-3.892526 -8.6942,-8.6942 0,-4.801673 3.892526,-8.694199 8.6942,-8.694199 4.801674,0 8.694199,3.892526 8.694199,8.694199 z" transform="matrix(1.1037731,0,0,1.1037731,-95.071194,1.4359331)"/><path id="rect3663-8" fill="url(#linearGradient3214)" fill-opacity="1" fill-rule="evenodd" stroke="#280000" stroke-dasharray="none" stroke-dashoffset="0" stroke-linecap="butt" stroke-linejoin="miter" stroke-miterlimit="4" stroke-opacity="1" stroke-width="4.154" d="m -86.629206,8.7469513 8e-6,58.0000007 11.999996,-10e-7 0,-24 11.999995,0 0,-12 -11.999995,0 0,-9.999999 19.999998,0 0,-12.0000007 z" display="inline" enable-background="accumulate" overflow="visible" visibility="visible" style="marker:none"/><path id="rect3663-8-3" fill="none" stroke="#ef2929" stroke-dasharray="none" stroke-dashoffset="0" stroke-linecap="butt" stroke-linejoin="miter" stroke-miterlimit="4" stroke-opacity="1" stroke-width="4.154" d="m -84.629206,10.746951 0,54 8.000003,0 0,-24 11.999995,0 0,-8 -11.999995,0 0,-13.999999 19.999998,0 0,-8.000001 z" display="inline" enable-background="accumulate" overflow="visible" visibility="visible" style="marker:none"/></g><g id="g3736" stroke-dasharray="none" stroke-miterlimit="4" stroke-width="1.329" transform="matrix(0.75949461,0,0,0.75949461,58.001058,8.0837933)"><path id="path8660" fill="url(#radialGradient3757)" fill-opacity="1" fill-rule="evenodd" stroke="none" stroke-width="1.088" d="m 40.481863,36.421127 c 0,4.637477 -7.004387,8.396894 -15.644737,8.396894 -8.64035,0 -15.6447375,-3.759417 -15.6447375,-8.396894 0,-4.637476 7.0043875,-8.396893 15.6447375,-8.396893 8.64035,0 15.644737,3.759417 15.644737,8.396893 z" color="#000" display="inline" opacity=".383" overflow="visible" transform="matrix(-1.489736,0,0,-1.001252,-3.039161,80.864414)" visibility="visible" style="marker:none"/><path id="path2839" fill="url(#linearGradient3759)" fill-opacity="1" fill-rule="nonzero" stroke="url(#linearGradient3761)" stroke-dasharray="none" stroke-dashoffset="0" stroke-linecap="butt" stroke-linejoin="miter" stroke-miterlimit="4" stroke-opacity="1" stroke-width=".998" d="m -35.872811,39.020014 c 0,0 8.9375,0.625 6.1875,-9.875 l 7.775888,0 c 0,1.502602 -0.588388,11.875 -13.963388,9.875 z" color="#000" display="block" overflow="visible" visibility="visible" style="marker:none"/><g id="g2779" fill="url(#linearGradient3767)" fill-opacity="1" fill-rule="nonzero" stroke="url(#linearGradient3769)" stroke-dasharray="none" stroke-dashoffset="0" stroke-linecap="butt" stroke-linejoin="miter" stroke-miterlimit="4" stroke-opacity="1" stroke-width="1.317" color="#000" display="block" transform="matrix(0.579051,0.489228,0.489228,-0.579051,-72.168834,36.118504)" visibility="visible" style="marker:none"><path stroke-miterlimit="4" style="marker:none" id="path2781" fill="url(#linearGradient3763)" fill-opacity="1" fill-rule="nonzero" stroke="url(#linearGradient3765)" stroke-dasharray="none" stroke-dashoffset="0" stroke-linecap="butt" stroke-linejoin="miter" stroke-opacity="1" stroke-width="1.317" d="M 44.306783,50.229694 C 62.821497,35.818859 49.664587,13.411704 22.462411,12.49765 L 22.399432,3.0690297 7.793943,20.424005 22.462411,33.006349 c 0,0 0,-9.66838 0,-9.66838 18.82976,0.998977 32.981627,14.071729 21.844372,26.891725 z" color="#000" display="block" overflow="visible" visibility="visible"/></g><path d="m -57.185311,43.770014 0.0625,-14.875 12.9375,-0.375 -4.388873,5.178817 3.867225,2.373199 c -3,2.25 -4.549548,2.422128 -5.549548,4.984628 l -2.816858,-2.110272 -4.111946,4.823628 z" style="marker:none" id="path2791" fill="#fff" fill-opacity="1" fill-rule="nonzero" stroke="none" stroke-width="1.329" color="#000" display="inline" opacity=".272" overflow="visible" visibility="visible"/><g id="g2793" fill="none" stroke="#fff" stroke-dasharray="none" stroke-miterlimit="4" stroke-opacity="1" stroke-width="1.499" opacity=".5" transform="matrix(0.508536,0.429651,0.429651,-0.508536,-68.220999,36.123704)"><path id="path2795" fill="none" stroke="url(#linearGradient3771)" stroke-dasharray="none" stroke-dashoffset="0" stroke-linecap="butt" stroke-linejoin="miter" stroke-miterlimit="4" stroke-opacity="1" stroke-width="1.499" d="M 51.090265,45.943705 C 60.210465,30.723955 46.631614,12.20113 19.485058,11.948579 L 19.513464,3.7032834 6.5341979,19.296639 19.367661,30.26876 c 0,0 0.05562,-9.006878 0.05562,-9.006878 17.527815,-0.223909 35.195185,10.103372 31.666984,24.681823 z" color="#000" display="block" overflow="visible" visibility="visible" style="marker:none"/></g></g><g id="g3728" stroke-dasharray="none" stroke-miterlimit="4" stroke-width="1.213" transform="matrix(0.83232643,0,0,0.83232643,60.679451,-19.928729)"><path stroke-miterlimit="4" style="marker:none" id="path2865" fill="url(#linearGradient3745)" fill-opacity="1" fill-rule="nonzero" stroke="url(#linearGradient3747)" stroke-dasharray="none" stroke-dashoffset="0" stroke-linecap="butt" stroke-linejoin="miter" stroke-opacity="1" stroke-width=".911" d="m -44.094898,15.992418 c 0,0 -8.9375,-0.625 -6.1875,9.875 l -7.6875,0 c 0,0 0.5,-11.875 13.875,-9.875 z" color="#000" display="block" overflow="visible" visibility="visible"/><g id="g1878" fill="url(#linearGradient3753)" fill-opacity="1" stroke="#3465a4" stroke-dasharray="none" stroke-miterlimit="4" stroke-opacity="1" stroke-width="1.201" transform="matrix(-0.579051,-0.489228,-0.489228,0.579051,-7.331961,18.953884)"><path id="path1880" fill="url(#linearGradient3749)" fill-opacity="1" fill-rule="nonzero" stroke="url(#linearGradient3751)" stroke-dasharray="none" stroke-dashoffset="0" stroke-linecap="butt" stroke-linejoin="miter" stroke-miterlimit="4" stroke-opacity="1" stroke-width="1.201" d="M 44.306783,50.229694 C 62.821497,35.818859 49.664587,13.411704 22.462411,12.49765 L 22.113843,3.1515478 7.6245439,20.496754 22.714328,33.219189 c 0,0 -0.251917,-9.88122 -0.251917,-9.88122 18.82976,0.998977 32.981627,14.071729 21.844372,26.891725 z" color="#000" display="block" overflow="visible" visibility="visible" style="marker:none"/></g><g id="g2805" fill="none" stroke="#fff" stroke-dasharray="none" stroke-miterlimit="4" stroke-opacity="1" stroke-width="1.368" opacity=".5" transform="matrix(-0.508536,-0.429651,-0.429651,0.508536,-11.198811,18.947994)"><path stroke-opacity="1" style="marker:none" id="path2807" fill="none" stroke="url(#linearGradient3755)" stroke-dasharray="none" stroke-dashoffset="0" stroke-linecap="butt" stroke-linejoin="miter" stroke-miterlimit="4" stroke-width="1.368" d="M 51.389927,46.505946 C 60.510127,31.286196 47.050763,12.432359 19.628482,12.069755 L 19.342824,4.0507204 6.3413093,19.379475 19.809059,30.764589 c 0,0 -0.181765,-9.453243 -0.181765,-9.453243 18.244937,0.381972 34.783881,10.925246 31.762633,25.1946 z" color="#000" display="block" overflow="visible" visibility="visible"/></g><path d="m -57.435311,22.082514 c 3.593435,-10.441273 16.443782,-6.144607 20.1875,-4.5 4.175307,0.211475 5.674736,-2.835004 9,-3 -14.049736,-9.7899965 -28.8125,-6.5000002 -29.1875,7.5 z" style="marker:none" id="path2811" fill="#fff" fill-opacity="1" fill-rule="nonzero" stroke="none" stroke-width="1.213" color="#000" display="inline" opacity=".272" overflow="visible" visibility="visible"/></g></g></svg>