<svg xmlns="http://www.w3.org/2000/svg" xmlns:svg="http://www.w3.org/2000/svg" xmlns:xlink="http://www.w3.org/1999/xlink" id="svg2" width="64" height="64" version="1.1" viewBox="0 0 64 64"><defs id="defs4"><linearGradient id="linearGradient3815" x1="48.625" x2="43.313" y1="22.875" y2="11.187" gradientUnits="userSpaceOnUse" xlink:href="#linearGradient3809"/><linearGradient id="linearGradient3809"><stop id="stop3811" offset="0" stop-color="#888a85" stop-opacity="1"/><stop id="stop3813" offset="1" stop-color="#d3d7cf" stop-opacity="1"/></linearGradient><linearGradient id="linearGradient3841" x1="38.244" x2="35.803" y1="11.473" y2="6.653" gradientTransform="translate(0,986.36218)" gradientUnits="userSpaceOnUse" xlink:href="#linearGradient3835"/><linearGradient id="linearGradient3835"><stop id="stop3837" offset="0" stop-color="#888a85" stop-opacity="1"/><stop id="stop3839" offset="1" stop-color="#d3d7cf" stop-opacity="1"/></linearGradient><linearGradient id="linearGradient3867" x1="52.818" x2="51.8" y1="28.469" y2="20.9" gradientTransform="translate(0,986.36218)" gradientUnits="userSpaceOnUse" xlink:href="#linearGradient3861"/><linearGradient id="linearGradient3861"><stop id="stop3863" offset="0" stop-color="#555753" stop-opacity="1"/><stop id="stop3865" offset="1" stop-color="#babdb6" stop-opacity="1"/></linearGradient><linearGradient id="linearGradient3789" x1="34.949" x2="29.677" y1="56.069" y2="18.185" gradientUnits="userSpaceOnUse" xlink:href="#linearGradient3783"/><linearGradient id="linearGradient3783"><stop id="stop3785" offset="0" stop-color="#8f5902" stop-opacity="1"/><stop id="stop3787" offset="1" stop-color="#e9b96e" stop-opacity="1"/></linearGradient><linearGradient id="linearGradient3041" x1="34.949" x2="29.677" y1="56.069" y2="18.185" gradientTransform="translate(0,986.36218)" gradientUnits="userSpaceOnUse" xlink:href="#linearGradient3783"/></defs><metadata id="metadata7"/><g id="layer1" transform="translate(0,-988.36218)"><path id="path3763" fill="url(#linearGradient3041)" fill-opacity="1" stroke="#271903" stroke-linecap="butt" stroke-linejoin="round" stroke-opacity="1" stroke-width="2" d="m 3,1039.3622 36,-36 6,6 -36,36 z"/><path id="path3763-1" fill="none" stroke="#e9b96e" stroke-linecap="butt" stroke-linejoin="miter" stroke-opacity="1" stroke-width="2" d="m 5.8481613,1039.3622 33.2277577,-33.2657 3.392646,2.981 -33.4495852,33.4555 z"/><path id="path2991" fill="url(#linearGradient3867)" fill-opacity="1" stroke="#2e3436" stroke-linecap="butt" stroke-linejoin="round" stroke-opacity="1" stroke-width="2" d="m 53,1005.3622 c 1,1 3,1 4,0 l 4,4 -10,10 -4,-4 c 1,-1 1,-3 0,-4 z"/><path id="path3761" fill="url(#linearGradient3841)" fill-opacity="1" stroke="#2e3436" stroke-linecap="butt" stroke-linejoin="round" stroke-opacity="1" stroke-width="2" d="m 49,996.36218 c -13,-7 -19,-7 -32,3.00002 11,-3.00002 15,-3.00002 20,1 z"/><path id="path3761-4" fill="none" stroke="#d3d7cf" stroke-dasharray="none" stroke-linecap="butt" stroke-linejoin="miter" stroke-miterlimit="58.8" stroke-opacity="1" stroke-width="2" d="m 46,997.36218 c -7.177936,-4.84816 -15.442467,-4.8363 -19.734282,-1.92408 8.810201,-1.5694 12.213523,4.8719 15.163701,5.5563 z"/><path id="path2991-0" fill="none" stroke="#d3d7cf" stroke-linecap="butt" stroke-linejoin="miter" stroke-opacity="1" stroke-width="2" d="m 51.993137,1007.0401 c 1.187891,0.9195 2.745311,1.4563 4.631081,0.7784 l 1.536831,1.5303 -7.134207,7.161 -1.530274,-1.4766 c 0.610798,-1.3489 -0.01342,-3.5973 -0.812109,-4.6376 z"/><path id="path2989" fill="url(#linearGradient3815)" fill-opacity="1" stroke="#2e3436" stroke-dasharray="none" stroke-dashoffset="2.04" stroke-linecap="round" stroke-linejoin="round" stroke-miterlimit="4" stroke-opacity="1" stroke-width="2.125" d="m 55,16.5 a 8.5,8.5 0 1 1 -17,0 8.5,8.5 0 1 1 17,0 z" transform="matrix(0.94117647,0,0,0.94117647,1.2352942,987.83277)"/><path id="path2989-7" fill="none" stroke="#d3d7cf" stroke-dasharray="none" stroke-dashoffset="2.04" stroke-linecap="round" stroke-linejoin="round" stroke-miterlimit="4" stroke-opacity="1" stroke-width="2.833" d="m 55,16.5 a 8.5,8.5 0 1 1 -17,0 8.5,8.5 0 1 1 17,0 z" transform="matrix(0.70588237,0,0,0.70588253,12.17647,991.71512)"/><g id="text3133" fill="#d3d7cf" fill-opacity="1" stroke="#2e3436" stroke-width="1.798" font-family="Sans" font-size="40" font-style="normal" font-weight="normal" letter-spacing="0" transform="matrix(1.1138614,0,0,1.111111,-18.240868,993.78872)" word-spacing="0" style="line-height:125%"><path id="path3138" fill="#d3d7cf" stroke="#2e3436" stroke-width="1.798" d="m 63.02069,50.016117 6.32,0 c 1.039999,0 1.56,-0.480001 1.56,-1.4 0,-1.079999 -0.640002,-1.36 -2.2,-1.36 -0.2,0 -0.440001,0 -0.68,0 l 0,-3.28 1.64,0 c 0.839999,0 1.08,-0.360001 1.24,-1.2 l 0.16,-0.8 c 0.08,-0.32 0.08,-0.56 0.08,-0.68 0,-0.559999 -0.400001,-0.96 -0.92,-0.96 -0.64,0 -0.400001,0.68 -1.2,0.68 l -1,0 0,-14.84 c 0,-0.599999 -0.200001,-0.92 -0.6,-1 l -2,-0.32 c -0.2,-0.04 -0.360001,-0.04 -0.52,-0.04 -0.44,0 -0.640001,0.160001 -0.96,0.72 l -8.24,14 c -0.32,0.52 -0.72,0.960001 -0.72,1.88 l 0,1.36 c 0,0.799999 0.4,1.2 1.04,1.2 l 9.12,0 0,3.28 -2.28,0 c -0.999999,0 -1.44,0.400001 -1.44,1.36 0,1.119999 0.440001,1.4 1.6,1.4 m 2.12,-9 -7.4,0 7.4,-13.24 0,13.24" font-family="Courier 10 Pitch" font-stretch="normal" font-variant="normal" style="-inkscape-font-specification:Courier 10 Pitch"/></g></g></svg>