<svg xmlns="http://www.w3.org/2000/svg" xmlns:svg="http://www.w3.org/2000/svg" xmlns:xlink="http://www.w3.org/1999/xlink" id="svg2" width="64" height="64" version="1.1" viewBox="0 0 64 64"><defs id="defs4"><linearGradient id="linearGradient3815" x1="48.625" x2="43.313" y1="22.875" y2="11.187" gradientUnits="userSpaceOnUse" xlink:href="#linearGradient3809"/><linearGradient id="linearGradient3809"><stop id="stop3811" offset="0" stop-color="#888a85" stop-opacity="1"/><stop id="stop3813" offset="1" stop-color="#d3d7cf" stop-opacity="1"/></linearGradient><linearGradient id="linearGradient3841" x1="38.244" x2="35.803" y1="11.473" y2="6.653" gradientTransform="translate(0,986.36218)" gradientUnits="userSpaceOnUse" xlink:href="#linearGradient3835"/><linearGradient id="linearGradient3835"><stop id="stop3837" offset="0" stop-color="#888a85" stop-opacity="1"/><stop id="stop3839" offset="1" stop-color="#d3d7cf" stop-opacity="1"/></linearGradient><linearGradient id="linearGradient3867" x1="52.818" x2="51.8" y1="28.469" y2="20.9" gradientTransform="translate(0,986.36218)" gradientUnits="userSpaceOnUse" xlink:href="#linearGradient3861"/><linearGradient id="linearGradient3861"><stop id="stop3863" offset="0" stop-color="#555753" stop-opacity="1"/><stop id="stop3865" offset="1" stop-color="#babdb6" stop-opacity="1"/></linearGradient><linearGradient id="linearGradient3789" x1="34.949" x2="29.677" y1="56.069" y2="18.185" gradientUnits="userSpaceOnUse" xlink:href="#linearGradient3783"/><linearGradient id="linearGradient3783"><stop id="stop3785" offset="0" stop-color="#8f5902" stop-opacity="1"/><stop id="stop3787" offset="1" stop-color="#e9b96e" stop-opacity="1"/></linearGradient><linearGradient id="linearGradient3041" x1="34.949" x2="29.677" y1="56.069" y2="18.185" gradientTransform="translate(0,986.36218)" gradientUnits="userSpaceOnUse" xlink:href="#linearGradient3783"/></defs><metadata id="metadata7"/><g id="layer1" transform="translate(0,-988.36218)"><path id="path3763" fill="url(#linearGradient3041)" fill-opacity="1" stroke="#271903" stroke-linecap="butt" stroke-linejoin="round" stroke-opacity="1" stroke-width="2" d="m 3,1039.3622 36,-36 6,6 -36,36 z"/><path id="path3763-1" fill="none" stroke="#e9b96e" stroke-linecap="butt" stroke-linejoin="miter" stroke-opacity="1" stroke-width="2" d="m 5.8481613,1039.3622 33.2277577,-33.2657 3.392646,2.981 -33.4495852,33.4555 z"/><path id="path2991" fill="url(#linearGradient3867)" fill-opacity="1" stroke="#2e3436" stroke-linecap="butt" stroke-linejoin="round" stroke-opacity="1" stroke-width="2" d="m 53,1005.3622 c 1,1 3,1 4,0 l 4,4 -10,10 -4,-4 c 1,-1 1,-3 0,-4 z"/><path id="path3761" fill="url(#linearGradient3841)" fill-opacity="1" stroke="#2e3436" stroke-linecap="butt" stroke-linejoin="round" stroke-opacity="1" stroke-width="2" d="m 49,996.36218 c -13,-7 -19,-7 -32,3.00002 11,-3.00002 15,-3.00002 20,1 z"/><path id="path3761-4" fill="none" stroke="#d3d7cf" stroke-dasharray="none" stroke-linecap="butt" stroke-linejoin="miter" stroke-miterlimit="58.8" stroke-opacity="1" stroke-width="2" d="m 46,997.36218 c -7.177936,-4.84816 -15.442467,-4.8363 -19.734282,-1.92408 8.810201,-1.5694 12.213523,4.8719 15.163701,5.5563 z"/><path id="path2991-0" fill="none" stroke="#d3d7cf" stroke-linecap="butt" stroke-linejoin="miter" stroke-opacity="1" stroke-width="2" d="m 51.993137,1007.0401 c 1.187891,0.9195 2.745311,1.4563 4.631081,0.7784 l 1.536831,1.5303 -7.134207,7.161 -1.530274,-1.4766 c 0.610798,-1.3489 -0.01342,-3.5973 -0.812109,-4.6376 z"/><path id="path2989" fill="url(#linearGradient3815)" fill-opacity="1" stroke="#2e3436" stroke-dasharray="none" stroke-dashoffset="2.04" stroke-linecap="round" stroke-linejoin="round" stroke-miterlimit="4" stroke-opacity="1" stroke-width="2.125" d="m 55,16.5 a 8.5,8.5 0 1 1 -17,0 8.5,8.5 0 1 1 17,0 z" transform="matrix(0.94117647,0,0,0.94117647,1.2352942,987.83277)"/><path id="path2989-7" fill="none" stroke="#d3d7cf" stroke-dasharray="none" stroke-dashoffset="2.04" stroke-linecap="round" stroke-linejoin="round" stroke-miterlimit="4" stroke-opacity="1" stroke-width="2.833" d="m 55,16.5 a 8.5,8.5 0 1 1 -17,0 8.5,8.5 0 1 1 17,0 z" transform="matrix(0.70588237,0,0,0.70588253,12.17647,991.71512)"/><g id="text3370" fill="#d3d7cf" fill-opacity="1" stroke="#2e3436" stroke-width="1.81" font-family="Sans" font-size="40" font-style="normal" font-weight="normal" letter-spacing="0" transform="matrix(1.1306533,0,0,1.0802452,-21.400786,999.6261)" word-spacing="0" style="line-height:125%"><path id="path3375" fill="#d3d7cf" stroke="#2e3436" stroke-width="1.81" d="m 69.078917,28.361436 c 0,2.999997 -1.960003,5.08 -4.4,5.08 -2.559998,0 -4.4,-2.160003 -4.4,-5.36 0,-3.159997 1.800002,-5.16 4.24,-5.16 2.559997,0 4.56,2.120003 4.56,5.44 m 0.4,5.24 c -0.68,5.519994 -3.360004,8.840001 -7.44,9.64 -2.719998,0.519999 -4.76,-0.359998 -4.76,1.52 0,1.079999 0.840002,1.28 3,1.28 7.679992,0 12.6,-5.760009 12.6,-14.68 0,-6.919993 -3.480005,-11.24 -8.52,-11.24 -4.319996,0 -7.4,3.400005 -7.4,8.16 0,4.639995 3.400004,8 7.4,8 2.039998,0 3.680001,-0.880002 5.12,-2.68" font-family="Courier 10 Pitch" font-stretch="normal" font-variant="normal" style="-inkscape-font-specification:Courier 10 Pitch"/></g></g></svg>