<svg xmlns="http://www.w3.org/2000/svg" xmlns:svg="http://www.w3.org/2000/svg" xmlns:xlink="http://www.w3.org/1999/xlink" id="svg16168" width="64" height="64" version="1.1" xml:space="preserve"><metadata id="metadata16236"/><defs id="defs16234"><radialGradient id="radialGradient6719" cx="605.714" cy="486.648" r="117.143" fx="605.714" fy="486.648" gradientTransform="matrix(-2.774389,0,0,1.969706,112.7623,-872.8854)" gradientUnits="userSpaceOnUse" xlink:href="#linearGradient5060"/><linearGradient id="linearGradient5060"><stop id="stop5062" offset="0" stop-color="#000" stop-opacity="1"/><stop id="stop5064" offset="1" stop-color="#000" stop-opacity="0"/></linearGradient><radialGradient id="radialGradient6717" cx="605.714" cy="486.648" r="117.143" fx="605.714" fy="486.648" gradientTransform="matrix(2.774389,0,0,1.969706,-1891.633,-872.8854)" gradientUnits="userSpaceOnUse" xlink:href="#linearGradient5060"/><linearGradient id="linearGradient5048"><stop id="stop5050" offset="0" stop-color="#000" stop-opacity="0"/><stop id="stop5056" offset=".5" stop-color="#000" stop-opacity="1"/><stop id="stop5052" offset="1" stop-color="#000" stop-opacity="0"/></linearGradient><linearGradient id="linearGradient6715" x1="302.857" x2="302.857" y1="366.648" y2="609.505" gradientTransform="matrix(2.774389,0,0,1.969706,-1892.179,-872.8854)" gradientUnits="userSpaceOnUse" xlink:href="#linearGradient5048"/><linearGradient id="linearGradient8171"><stop id="stop8173" offset="0" stop-color="#bbbdba" stop-opacity="1"/><stop id="stop8175" offset="1" stop-color="#70746e" stop-opacity="1"/></linearGradient><linearGradient id="linearGradient8155"><stop id="stop8157" offset="0" stop-color="#fff" stop-opacity="1"/><stop id="stop8159" offset="1" stop-color="#fff" stop-opacity="0"/></linearGradient><linearGradient id="linearGradient2224"><stop id="stop2226" offset="0" stop-color="#7c7c7c" stop-opacity="1"/><stop id="stop2228" offset="1" stop-color="#b8b8b8" stop-opacity="1"/></linearGradient><linearGradient id="linearGradient2251"><stop id="stop2253" offset="0" stop-color="#fff" stop-opacity="1"/><stop id="stop2255" offset="1" stop-color="#fff" stop-opacity="0"/></linearGradient><linearGradient id="linearGradient7648" x1="21.933" x2="21.933" y1="24.627" y2="7.109" gradientUnits="userSpaceOnUse"><stop id="stop7650" offset="0" stop-color="#3465a4" stop-opacity="1"/><stop id="stop7652" offset="1" stop-color="#0b1521" stop-opacity="1"/></linearGradient><linearGradient id="linearGradient2392"><stop id="stop2394" offset="0" stop-color="#715b26" stop-opacity="1"/><stop id="stop2396" offset="1" stop-color="#312710" stop-opacity="1"/></linearGradient><linearGradient id="linearGradient12129"><stop id="stop12131" offset="0" stop-color="#000" stop-opacity="1"/><stop id="stop12133" offset="1" stop-color="#000" stop-opacity="0"/></linearGradient><linearGradient id="aigrd1" x1="12.487" x2="31.081" y1="3.732" y2="36.033" gradientUnits="userSpaceOnUse"><stop id="stop16177" stroke-dasharray="none" stroke-miterlimit="4" stroke-width="1.217" offset="0" stop-color="#D2D2D2"/><stop id="stop16179" stroke-dasharray="none" stroke-miterlimit="4" stroke-width="1.217" offset="1" stop-color="#EDEDED"/></linearGradient><linearGradient id="aigrd2" x1="21.877" x2="21.917" y1="30.341" y2="22.577" gradientUnits="userSpaceOnUse"><stop id="stop16184" offset="0" stop-color="#5e4f07" stop-opacity="1"/><stop id="stop16186" offset="1" stop-color="#348a31" stop-opacity="1"/></linearGradient><linearGradient id="aigrd3" x1="21.933" x2="21.933" y1="24.627" y2="7.109" gradientUnits="userSpaceOnUse"><stop id="stop16199" stroke-dasharray="none" stroke-miterlimit="4" stroke-width="1.217" offset="0" stop-color="#729fcf" stop-opacity="1"/><stop id="stop16201" stroke-dasharray="none" stroke-miterlimit="4" stroke-width="1.217" offset="1" stop-color="#3465a4" stop-opacity="1"/></linearGradient><radialGradient id="radialGradient12135" cx="24.218" cy="41.636" r="22.097" fx="24.218" fy="41.636" gradientTransform="matrix(1,0,0,0.184,0,33.97501)" gradientUnits="userSpaceOnUse" xlink:href="#linearGradient12129"/><linearGradient id="linearGradient7671" x1="21.933" x2="21.933" y1="24.627" y2="7.109" gradientTransform="matrix(1.098989,0,0,-0.797757,-1.953865,37.324)" gradientUnits="userSpaceOnUse" xlink:href="#linearGradient7648"/><linearGradient id="linearGradient7673" x1="21.933" x2="21.933" y1="24.627" y2="7.109" gradientTransform="matrix(1.098989,0,0,1.106697,-1.953865,-4.922453)" gradientUnits="userSpaceOnUse" xlink:href="#aigrd3"/><linearGradient id="linearGradient8148" x1="12.487" x2="31.081" y1="3.732" y2="36.033" gradientTransform="matrix(1.9382135,0,0,1.3782377,71.56571,3.9665926)" gradientUnits="userSpaceOnUse" xlink:href="#aigrd1"/><radialGradient id="radialGradient8161" cx="12.7" cy="10.405" r="19.969" fx="12.7" fy="10.405" gradientTransform="matrix(2.3398829,0,0,1.5408896,-15.402755,3.1271307)" gradientUnits="userSpaceOnUse" xlink:href="#linearGradient8155"/><linearGradient id="linearGradient8166" x1="33.396" x2="34.17" y1="36.921" y2="38.07" gradientTransform="matrix(1.3679278,0,0,1.3698635,7.1540293,-4.1898864)" gradientUnits="userSpaceOnUse" xlink:href="#linearGradient2251"/><linearGradient id="linearGradient8169" x1="35.997" x2="33.665" y1="40.458" y2="37.771" gradientTransform="matrix(1.390022,0,0,1.4583697,6.7992589,-6.5091254)" gradientUnits="userSpaceOnUse" xlink:href="#linearGradient2224"/></defs><g id="g6707" display="inline" transform="matrix(0.02975396,0,0,0.0341543,58.436371,46.974527)"><rect id="rect6709" width="1339.633" height="478.357" x="-1559.252" y="-150.697" fill="url(#linearGradient6715)" fill-opacity="1" fill-rule="nonzero" stroke="none" stroke-width="1" color="#000" display="inline" opacity=".402" overflow="visible" visibility="visible" style="marker:none"/><path id="path6711" fill="url(#radialGradient6717)" fill-opacity="1" fill-rule="nonzero" stroke="none" stroke-width="1" d="m -219.61876,-150.68038 c 0,0 0,478.33079 0,478.33079 142.874166,0.90045 345.40022,-107.16966 345.40014,-239.196175 0,-132.026537 -159.436816,-239.134595 -345.40014,-239.134615 z" color="#000" display="inline" opacity=".402" overflow="visible" visibility="visible" style="marker:none"/><path d="m -1559.2523,-150.68038 c 0,0 0,478.33079 0,478.33079 -142.8742,0.90045 -345.4002,-107.16966 -345.4002,-239.196175 0,-132.026537 159.4368,-239.134595 345.4002,-239.134615 z" style="marker:none" id="path6713" fill="url(#radialGradient6719)" fill-opacity="1" fill-rule="nonzero" stroke="none" stroke-width="1" color="#000" display="inline" opacity=".402" overflow="visible" visibility="visible"/></g><path id="rect7603" fill="url(#linearGradient8148)" fill-opacity="1" fill-rule="nonzero" stroke="#2e3436" stroke-dashoffset="0" stroke-linecap="butt" stroke-linejoin="miter" stroke-miterlimit="4" stroke-opacity="1" stroke-width="2" d="m 4.5205602,8.9999995 54.9588798,0 C 60.321829,8.9999995 61,9.6984544 61,10.56604 l 0,33.270808 c 0,0.867587 -11.430166,11.16315 -12.272556,11.16315 l -44.2068838,0 C 3.6781698,54.999998 3,54.301544 3,53.433956 L 3,10.566041 C 3,9.6984544 3.6781698,8.9999995 4.5205602,8.9999995 z" color="#000" display="inline" overflow="visible" visibility="visible" style="marker:none"/><g id="g7654" transform="matrix(1.4058329,0,0,1.4542495,0.26298191,6.3780388)"><path id="path7644" fill="url(#linearGradient7671)" fill-opacity="1" fill-rule="nonzero" stroke="none" d="m 5.512695,30 34.130539,0 0,-10.372625 -34.130539,0 0,10.372625 z"/><path id="path16203" fill="url(#linearGradient7673)" fill-rule="nonzero" stroke="none" d="m 5.512695,5.237844 34.130539,0 0,14.389531 -34.130539,0 0,-14.389531 z"/><g id="g16205" fill-rule="nonzero" stroke="#000" stroke-miterlimit="4" stroke-width=".851" transform="matrix(1.189217,0,0,1.189217,-3.525355,-6.535408)"><g id="g16207" stroke-width=".851"><path id="path16209" fill="#e8f52f" stroke="none" d="m 18.4,15.4 c 0,2.2 -1.8,4.1 -4.1,4.1 -2.2,0 -4.1,-1.8 -4.1,-4.1 0,-2.2 1.8,-4.1 4.1,-4.1 2.2,0 4.1,1.8 4.1,4.1 z" opacity=".05"/><path id="path16211" fill="#ecf751" stroke="none" d="m 18,15.4 c 0,2 -1.6,3.7 -3.7,3.7 -2,0 -3.7,-1.6 -3.7,-3.7 0,-2 1.6,-3.7 3.7,-3.7 2,0 3.7,1.6 3.7,3.7 l 0,0 z" opacity=".208"/><path id="path16213" fill="#f0f972" stroke="none" d="m 17.6,15.4 c 0,1.8 -1.5,3.3 -3.3,3.3 -1.8,0 -3.3,-1.5 -3.3,-3.3 0,-1.8 1.5,-3.3 3.3,-3.3 1.8,0 3.3,1.5 3.3,3.3 l 0,0 z" opacity=".367"/><path id="path16215" fill="#f4fa95" stroke="none" d="m 17.2,15.4 c 0,1.6 -1.3,2.9 -2.9,2.9 -1.6,0 -2.9,-1.3 -2.9,-2.9 0,-1.6 1.3,-2.9 2.9,-2.9 1.6,0 2.9,1.3 2.9,2.9 z" opacity=".525"/><path id="path16217" fill="#f7fcb7" stroke="none" d="m 16.8,15.4 c 0,1.4 -1.1,2.5 -2.5,2.5 -1.4,0 -2.5,-1.1 -2.5,-2.5 0,-1.4 1.1,-2.5 2.5,-2.5 1.4,0 2.5,1.1 2.5,2.5 l 0,0 z" opacity=".683"/><path id="path16219" fill="#fbfddb" stroke="none" d="m 16.4,15.4 c 0,1.2 -1,2.1 -2.1,2.1 -1.1,0 -2.1,-1 -2.1,-2.1 0,-1.1 1,-2.1 2.1,-2.1 1.1,0 2.1,1 2.1,2.1 z" opacity=".842"/><path id="path16221" fill="#fff" stroke="none" d="m 16,15.4 c 0,1 -0.8,1.8 -1.8,1.8 -1,0 -1.8,-0.8 -1.8,-1.8 0,-1 0.8,-1.8 1.8,-1.8 1,0 1.8,0.8 1.8,1.8 l 0,0 z"/></g></g><path id="path16223" fill-rule="nonzero" stroke="none" d="m 25.015859,21.649044 8.681289,0 1.664904,0.475688 -2.854121,0 c 0,0 2.854121,0.237842 4.281184,2.021669 1.427059,1.664904 -1.664905,3.686575 -1.664905,3.686575 0,0 0,0 0,0 -0.118922,-0.356766 -0.832454,-3.210889 -2.259514,-4.400106 -1.070297,-0.951374 -2.259514,-1.189218 -2.259514,-1.189218 l -5.589323,0 0,-0.475686 0,-0.118922 z" opacity=".3"/><path id="path16225" fill-rule="nonzero" stroke="none" d="m 30.724106,22.362574 -4.994715,0 9.275897,5.232557 -4.281182,-5.232557 0,0 z" opacity=".3"/><path id="path16227" fill="#2e3436" fill-rule="nonzero" stroke="none" d="m 25.015859,21.767966 8.681289,0 1.30814,-0.832453 -2.854121,0 c 0,0 2.616276,-0.475686 2.973043,-3.448731 0.356763,-2.973043 -4.043341,-6.302851 -4.043341,-6.302851 0,0 0,0 0,0.118922 0.118921,0.71353 1.308138,5.708243 0.475688,7.610993 -0.356767,1.664901 -1.427062,2.021667 -1.427062,2.021667 l -5.470401,0 0.237844,0.832453 0.118921,0 z"/><path id="path16229" fill="#2e3436" fill-rule="nonzero" stroke="none" d="m 30.248418,20.459827 -4.994714,0 5.946086,-9.038054 -0.951372,9.038054 z"/></g><path id="rect7675" fill="none" stroke="#fff" stroke-dashoffset="0" stroke-linecap="butt" stroke-linejoin="miter" stroke-miterlimit="4" stroke-opacity="1" stroke-width="2" d="M 5.3577527,11 58.642247,11 C 58.840443,11 59,11.163775 59,11.367207 l 0,32.058686 C 59,44.705457 49.637603,53 49.439408,53 L 5.3577527,53 C 5.1595577,53 5,52.836225 5,52.632793 L 5,11.367208 c 0,-0.203433 0.1595577,-0.367206 0.3577527,-0.367206 z" color="#000" display="inline" overflow="visible" visibility="visible" style="marker:none"/><rect id="rect8163" width="46.732" height="34.712" x="8.679" y="14.709" fill="none" stroke="#4f4f4f" stroke-dasharray="none" stroke-dashoffset="0" stroke-linecap="butt" stroke-linejoin="miter" stroke-miterlimit="4" stroke-opacity="1" stroke-width="1" color="#000" display="inline" opacity=".847" overflow="visible" visibility="visible" style="marker:none"/><path id="path2210" fill="url(#linearGradient8169)" fill-opacity="1" fill-rule="evenodd" stroke="#2e3436" stroke-dasharray="none" stroke-dashoffset="0" stroke-linecap="butt" stroke-linejoin="miter" stroke-miterlimit="4" stroke-opacity="1" stroke-width="1" d="m 48.582044,55.476771 c 2.822327,0.481113 13.328634,-6.606311 12.905536,-12.392998 -2.172968,3.533772 -6.61445,1.87654 -12.325714,2.108435 0,0 0.549572,9.555378 -0.579822,10.284563 z" color="#000" display="inline" overflow="visible" visibility="visible" style="marker:none"/><path id="path2247" fill="none" stroke="url(#linearGradient8166)" stroke-dasharray="none" stroke-dashoffset="0" stroke-linecap="butt" stroke-linejoin="miter" stroke-miterlimit="4" stroke-opacity="1" stroke-width="1" d="m 50.256778,51.545823 c 1.873758,-0.936752 6.057524,-2.940364 7.834984,-5.517083 -2.183342,0.931583 -4.032391,0.286981 -7.800381,0.260829 0,0 0.222044,4.194651 -0.03461,5.256254 z" color="#000" display="inline" opacity=".369" overflow="visible" visibility="visible" style="marker:none"/><path id="rect8150" fill="url(#radialGradient8161)" fill-opacity="1" fill-rule="nonzero" stroke="none" stroke-width="1" d="m 4.6111633,11.616747 0,30.222613 C 35.151627,43.056294 38.56605,23.945519 59.242778,23.945519 l 0,-12.328772 -54.6316147,0 z" color="#000" display="inline" opacity=".301" overflow="visible" visibility="visible" style="marker:none"/></svg>