<svg xmlns="http://www.w3.org/2000/svg" xmlns:svg="http://www.w3.org/2000/svg" xmlns:xlink="http://www.w3.org/1999/xlink" id="svg2" width="64" height="64" version="1.1"><defs id="defs4"><linearGradient id="linearGradient3870"><stop id="stop3872" offset="0" stop-color="#555753" stop-opacity="1"/><stop id="stop3874" offset="1" stop-color="#888a85" stop-opacity="1"/></linearGradient><linearGradient id="linearGradient3825"><stop id="stop3827" offset="0" stop-color="#3465a4" stop-opacity="1"/><stop id="stop3829" offset="1" stop-color="#729fcf" stop-opacity="1"/></linearGradient><linearGradient id="linearGradient3817"><stop id="stop3819" offset="0" stop-color="#204a87" stop-opacity="1"/><stop id="stop3821" offset="1" stop-color="#729fcf" stop-opacity="1"/></linearGradient><linearGradient id="linearGradient3823" x1="45" x2="40" y1="1029.362" y2="993.362" gradientTransform="translate(2,0)" gradientUnits="userSpaceOnUse" xlink:href="#linearGradient3817"/><linearGradient id="linearGradient3831" x1="44" x2="43" y1="1046.362" y2="1039.362" gradientTransform="translate(2,0)" gradientUnits="userSpaceOnUse" xlink:href="#linearGradient3825"/><linearGradient id="linearGradient3771" x1="35" x2="31" y1="51" y2="18" gradientUnits="userSpaceOnUse" xlink:href="#linearGradient3765"/><linearGradient id="linearGradient3765"><stop id="stop3767" offset="0" stop-color="#d3d7cf" stop-opacity="1"/><stop id="stop3769" offset="1" stop-color="#fff" stop-opacity="1"/></linearGradient><linearGradient id="linearGradient3849" x1="10.862" x2="49.929" y1="47.315" y2="19.247" gradientTransform="matrix(0.25881905,-0.96592583,0.96592583,0.25881905,-18.514167,1044.6082)" gradientUnits="userSpaceOnUse" xlink:href="#linearGradient3870"/></defs><metadata id="metadata7"/><g id="layer1" transform="translate(0,-988.36218)"><path id="path4479" fill="none" stroke="#0b1521" stroke-dasharray="none" stroke-linecap="round" stroke-linejoin="miter" stroke-miterlimit="4" stroke-opacity="1" stroke-width="8" d="m 34,1000.4737 c 4.063356,-4.35208 5.945884,-5.86192 12.441368,-6.11149 10.077279,0.5307 11.683617,7.03199 11.551427,12.07709 -0.351392,6.7038 -6.753894,8.6997 -12.020912,10.2707 l 0,10.9925"/><path id="path4479-3" fill="none" stroke="#0b1521" stroke-dasharray="none" stroke-linecap="round" stroke-linejoin="miter" stroke-miterlimit="4" stroke-opacity="1" stroke-width="8" d="m 46,1040.8004 0,3.507"/><path id="path4479-36" fill="none" stroke="url(#linearGradient3823)" stroke-dasharray="none" stroke-linecap="round" stroke-linejoin="miter" stroke-miterlimit="4" stroke-opacity="1" stroke-width="4" d="m 34,1000.4737 c 4.063356,-4.35211 5.945884,-5.86195 12.441368,-6.11152 10.077279,0.5307 11.683617,7.03202 11.551427,12.07712 -0.351392,6.7038 -6.753894,8.6997 -12.020912,10.2707 l 0,10.9925"/><path id="path4479-3-7" fill="none" stroke="url(#linearGradient3831)" stroke-dasharray="none" stroke-linecap="round" stroke-linejoin="miter" stroke-miterlimit="4" stroke-opacity="1" stroke-width="4" d="m 46,1040.8004 0,3.507"/><path id="path4479-36-5" fill="none" stroke="#729fcf" stroke-dasharray="none" stroke-linecap="round" stroke-linejoin="miter" stroke-miterlimit="4" stroke-opacity="1" stroke-width="2" d="m 33.111112,999.74646 c 4.063356,-4.35216 5.945884,-5.862 12.441368,-6.11157 10.077279,0.5307 11.683617,7.03211 11.551427,12.07721 -0.351392,6.7038 -6.753894,8.6997 -12.020912,10.2707 l 0,10.9925"/><path id="path4479-3-7-3" fill="none" stroke="#729fcf" stroke-dasharray="none" stroke-linecap="round" stroke-linejoin="miter" stroke-miterlimit="4" stroke-opacity="1" stroke-width="2" d="m 45.111112,1040.0732 0,3.507"/><path id="path3761" fill="url(#linearGradient3849)" fill-opacity="1" stroke="#2e3436" stroke-dasharray="none" stroke-linecap="butt" stroke-linejoin="round" stroke-miterlimit="4" stroke-opacity="1" stroke-width="2" d="m 30.627952,1050.5289 9.797959,-5.6569 -14.142136,-24.4949 13.144024,-2.6897 L 3,991.36218 7.5844325,1036.0722 16.485816,1026.034 z"/><path id="path3763" fill="none" stroke="#888a85" stroke-dasharray="none" stroke-linecap="butt" stroke-linejoin="miter" stroke-miterlimit="4" stroke-opacity="1" stroke-width="2" d="m 31.357351,1047.8067 -14.615677,-25.1865 -7.5997383,8.6929 -3.6991987,-35.71999 29.084846,21.06359 -11.32819,2.2351 14.504345,25.2508 z"/></g></svg>