<svg xmlns="http://www.w3.org/2000/svg" xmlns:svg="http://www.w3.org/2000/svg" xmlns:xlink="http://www.w3.org/1999/xlink" id="svg2913" width="64" height="64" version="1.1"><defs id="defs3"><radialGradient id="radialGradient5031" cx="605.714" cy="486.648" r="117.143" fx="605.714" fy="486.648" gradientTransform="matrix(-2.774389,0,0,1.969706,112.7623,-872.8854)" gradientUnits="userSpaceOnUse" xlink:href="#linearGradient5060"/><linearGradient id="linearGradient5060"><stop id="stop5062" offset="0" stop-color="#000" stop-opacity="1"/><stop id="stop5064" offset="1" stop-color="#000" stop-opacity="0"/></linearGradient><radialGradient id="radialGradient5029" cx="605.714" cy="486.648" r="117.143" fx="605.714" fy="486.648" gradientTransform="matrix(2.774389,0,0,1.969706,-1891.633,-872.8854)" gradientUnits="userSpaceOnUse" xlink:href="#linearGradient5060"/><linearGradient id="linearGradient5048"><stop id="stop5050" offset="0" stop-color="#000" stop-opacity="0"/><stop id="stop5056" offset=".5" stop-color="#000" stop-opacity="1"/><stop id="stop5052" offset="1" stop-color="#000" stop-opacity="0"/></linearGradient><linearGradient id="linearGradient5027" x1="302.857" x2="302.857" y1="366.648" y2="609.505" gradientTransform="matrix(2.774389,0,0,1.969706,-1892.179,-872.8854)" gradientUnits="userSpaceOnUse" xlink:href="#linearGradient5048"/><linearGradient id="linearGradient6925"><stop id="stop6927" offset="0" stop-color="#204a87" stop-opacity="1"/><stop id="stop6929" offset="1" stop-color="#204a87" stop-opacity="0"/></linearGradient><linearGradient id="linearGradient6901"><stop id="stop6903" offset="0" stop-color="#3465a4" stop-opacity="1"/><stop id="stop6905" offset="1" stop-color="#3465a4" stop-opacity="0"/></linearGradient><linearGradient id="linearGradient4991"><stop id="stop4993" offset="0" stop-color="#fff" stop-opacity="1"/><stop id="stop4995" offset="1" stop-color="#fff" stop-opacity="0"/></linearGradient><radialGradient id="radialGradient4997" cx="23.447" cy="6.458" r="19.063" fx="23.447" fy="6.458" gradientTransform="matrix(-1.7188124,-0.01315862,-0.01337635,1.7472529,61.013553,-21.628528)" gradientUnits="userSpaceOnUse" xlink:href="#linearGradient4991"/><linearGradient id="linearGradient2187"><stop id="stop2189" offset="0" stop-color="#fff" stop-opacity="1"/><stop id="stop2191" offset="1" stop-color="#fff" stop-opacity="0"/></linearGradient><linearGradient id="linearGradient1764" x1="33.06" x2="12.624" y1="27.394" y2="12.584" gradientTransform="matrix(1.1953026,0,0,1.1953026,-4.4842284,-18.747889)" gradientUnits="userSpaceOnUse" xlink:href="#linearGradient2187"/><linearGradient id="linearGradient8662"><stop id="stop8664" offset="0" stop-color="#000" stop-opacity="1"/><stop id="stop8666" offset="1" stop-color="#000" stop-opacity="0"/></linearGradient><radialGradient id="radialGradient8668" cx="24.837" cy="36.421" r="15.645" fx="24.837" fy="36.421" gradientTransform="matrix(1,0,0,0.536723,0,16.87306)" gradientUnits="userSpaceOnUse" xlink:href="#linearGradient8662"/><linearGradient id="linearGradient2555"><stop id="stop2557" offset="0" stop-color="#fff" stop-opacity="1"/><stop id="stop2561" offset=".5" stop-color="#e6e6e6" stop-opacity="1"/><stop id="stop2563" offset=".75" stop-color="#fff" stop-opacity="1"/><stop id="stop2565" offset=".842" stop-color="#e1e1e1" stop-opacity="1"/><stop id="stop2559" offset="1" stop-color="#fff" stop-opacity="1"/></linearGradient><linearGradient id="linearGradient4274"><stop id="stop4276" offset="0" stop-color="#fff" stop-opacity=".255"/><stop id="stop4278" offset="1" stop-color="#fff" stop-opacity="1"/></linearGradient><linearGradient id="linearGradient4264"><stop id="stop4266" offset="0" stop-color="#000" stop-opacity="1"/><stop id="stop4268" offset="1" stop-color="#000" stop-opacity="0"/></linearGradient><linearGradient id="linearGradient4254"><stop id="stop4256" offset="0" stop-color="#fff" stop-opacity="1"/><stop id="stop4258" offset="1" stop-color="#fff" stop-opacity="0"/></linearGradient><linearGradient id="linearGradient4244"><stop id="stop4246" offset="0" stop-color="#e4e4e4" stop-opacity="1"/><stop id="stop4248" offset="1" stop-color="#d3d3d3" stop-opacity="1"/></linearGradient><linearGradient id="linearGradient4236"><stop id="stop4238" offset="0" stop-color="#eee" stop-opacity="1"/><stop id="stop4240" offset="1" stop-color="#eee" stop-opacity="0"/></linearGradient><linearGradient id="linearGradient4228"><stop id="stop4230" offset="0" stop-color="#bbb" stop-opacity="1"/><stop id="stop4232" offset="1" stop-color="#9f9f9f" stop-opacity="1"/></linearGradient><linearGradient id="linearGradient4184"><stop id="stop4186" offset="0" stop-color="#838383" stop-opacity="1"/><stop id="stop4188" offset="1" stop-color="#bbb" stop-opacity="0"/></linearGradient><linearGradient id="linearGradient4209" x1="7.063" x2="24.688" y1="35.281" y2="35.281" gradientTransform="matrix(1.3076078,0,0,1.3076078,1.614704,-10.240486)" gradientUnits="userSpaceOnUse" xlink:href="#linearGradient4184"/><linearGradient id="linearGradient4234" x1="7.605" x2="36.183" y1="28.481" y2="40.944" gradientTransform="matrix(1.3180992,0,0,1.2724029,0.54016679,-7.5807812)" gradientUnits="userSpaceOnUse" xlink:href="#linearGradient4228"/><linearGradient id="linearGradient4242" x1="12.277" x2="12.222" y1="37.206" y2="33.759" gradientTransform="matrix(1.3076078,0,0,1.3076078,0.57451123,-8.5068326)" gradientUnits="userSpaceOnUse" xlink:href="#linearGradient4236"/><radialGradient id="radialGradient4250" cx="15.571" cy="2.959" r="20.936" fx="15.571" fy="2.959" gradientTransform="matrix(1.6819,1.0221543,-0.92942404,1.5293153,-2.5040524,-14.883852)" gradientUnits="userSpaceOnUse" xlink:href="#linearGradient4244"/><linearGradient id="linearGradient4260" x1="12.378" x2="44.096" y1="4.433" y2="47.621" gradientTransform="matrix(1.3091485,0,0,1.2651979,0.77121668,-7.647555)" gradientUnits="userSpaceOnUse" xlink:href="#linearGradient4254"/><radialGradient id="radialGradient4270" cx="23.202" cy="27.096" r="23.555" fx="23.202" fy="27.096" gradientTransform="matrix(1,0,0,0.651032,0,9.455693)" gradientUnits="userSpaceOnUse" xlink:href="#linearGradient4264"/><linearGradient id="linearGradient4272" x1="23.688" x2="23.688" y1="11.319" y2="26.357" gradientTransform="matrix(1.3076078,0,0,1.3076078,0.57451123,-8.5068326)" gradientUnits="userSpaceOnUse" xlink:href="#linearGradient4274"/><linearGradient id="linearGradient2553" x1="33.431" x2="21.748" y1="31.965" y2="11.781" gradientUnits="userSpaceOnUse" xlink:href="#linearGradient2555"/><linearGradient id="linearGradient6907" x1="14.752" x2="8.895" y1="15.868" y2="16.743" gradientTransform="matrix(1.3076078,0,0,1.3076078,0.57451122,-15.429204)" gradientUnits="userSpaceOnUse" xlink:href="#linearGradient6901"/><linearGradient id="linearGradient6931" x1="12.25" x2="7" y1="18.25" y2="21.118" gradientTransform="matrix(1.3076078,0,0,1.3076078,0.57451122,-15.429204)" gradientUnits="userSpaceOnUse" xlink:href="#linearGradient6925"/></defs><metadata id="metadata4"/><g id="layer2" transform="translate(0,16)"><g id="g5022" display="inline" transform="matrix(0.03153172,0,0,0.02522639,60.056973,39.387282)"><rect id="rect4173" width="1339.633" height="478.357" x="-1559.252" y="-150.697" fill="url(#linearGradient5027)" fill-opacity="1" fill-rule="nonzero" stroke="none" stroke-width="1" color="#000" display="inline" opacity=".402" overflow="visible" visibility="visible" style="marker:none"/><path d="m -219.61876,-150.68038 c 0,0 0,478.33079 0,478.33079 142.874166,0.90045 345.40022,-107.16966 345.40014,-239.196175 0,-132.026537 -159.436816,-239.134595 -345.40014,-239.134615 z" style="marker:none" id="path5058" fill="url(#radialGradient5029)" fill-opacity="1" fill-rule="nonzero" stroke="none" stroke-width="1" color="#000" display="inline" opacity=".402" overflow="visible" visibility="visible"/><path id="path5018" fill="url(#radialGradient5031)" fill-opacity="1" fill-rule="nonzero" stroke="none" stroke-width="1" d="m -1559.2523,-150.68038 c 0,0 0,478.33079 0,478.33079 -142.8742,0.90045 -345.4002,-107.16966 -345.4002,-239.196175 0,-132.026537 159.4368,-239.134595 345.4002,-239.134615 z" color="#000" display="inline" opacity=".402" overflow="visible" visibility="visible" style="marker:none"/></g><path id="path4196" fill="none" stroke="#535353" stroke-dasharray="none" stroke-linecap="round" stroke-linejoin="round" stroke-miterlimit="4" stroke-opacity="1" stroke-width="2" d="m 14.930335,0.99999992 c -0.853933,0 -1.408987,0.39462248 -1.75056,1.14743958 L 4.341573,25.406971 c 0,0 -0.3415731,0.913268 -0.3415731,2.422362 l 0,13.123221 c 0,1.472271 0.8987273,2.209878 2.2629214,2.209875 L 59,43 c 1,0 2,-1 2,-2 l 0,-13 c 0,0 0.03925,-1.886432 -0.23362,-2.623616 L 51.820223,2.3599275 C 51.568108,1.6637745 50.950024,1.0161899 50.283144,0.99999992 z"/><path id="path4170" fill="url(#linearGradient4234)" fill-opacity="1" fill-rule="evenodd" stroke="none" d="M 4.8550848,26.770038 5.8629061,25.889262 55.436205,25.968792 60,26 60,41 c 0,1 0,1 -1,1 L 7.091125,42.113926 c -1.3160754,0 -2.0081879,-0.758063 -2.0081879,-2.135583 z"/><path id="path3093" fill="url(#radialGradient4250)" fill-opacity="1" fill-rule="evenodd" stroke="none" d="m 5.2153212,25.379042 c -0.9340055,1.914713 -8.049e-4,3.128919 1.354308,3.128919 l 50.9966998,0 c 1.463275,-0.03114 2.815637,-1.37151 2.2708,-2.850353 L 50.976919,2.927203 C 50.735634,2.2578308 50.644374,1.9896135 50.006138,1.9740464 L 15.34928,1.8934884 c -0.817255,0 -1.354308,0.3969544 -1.681209,1.1208108 z"/><rect id="rect4174" width="23.047" height="7.274" x="10.85" y="32.257" fill="url(#linearGradient4209)" fill-opacity="1" fill-rule="evenodd" stroke="none" stroke-width="2.409" color="#000" display="inline" overflow="visible" visibility="visible" style="marker:none"/><path id="path4194" fill="url(#linearGradient4242)" fill-opacity="1" fill-rule="evenodd" stroke="none" d="m 10.849685,39.530334 c 0,0 0,-5.245448 0,-5.245448 2.40015,4.15718 10.848556,5.245448 16.917172,5.245448 0,0 -16.917172,0 -16.917172,0 z" opacity=".811"/><path id="path4201" fill="#fff" fill-opacity="1" fill-rule="evenodd" stroke="none" d="m 59.545054,24.949047 c 0.08306,1.634476 -0.936088,3.084601 -2.123543,3.121097 l -49.8443293,0 c -1.6858095,0 -2.442266,-0.424904 -2.7251208,-1.135077 0.1199874,1.234816 1.0798453,2.156645 2.7251208,2.156645 l 49.8443293,0 c 1.406994,-0.04324 3.000891,-1.112875 2.477009,-3.166822 z"/><path d="m 14.917334,4.7735585 c -0.06026,0.2619412 -0.245176,0.5057788 -0.245176,0.7763921 0,1.2404033 0.772769,2.33993 1.757097,3.3916076 C 16.743431,8.7400885 16.906685,8.4781315 17.24651,8.2877543 16.016955,7.2207411 15.215277,6.0431384 14.917334,4.7735585 z m 34.855918,0 c -0.299085,1.2678773 -1.101021,2.4483988 -2.329176,3.5141958 0.358473,0.200825 0.528258,0.4815134 0.858117,0.6946666 0.990202,-1.0547896 1.716236,-2.1876853 1.716236,-3.4324703 0,-0.2706133 -0.18515,-0.5144509 -0.245177,-0.7763921 z m 2.860393,11.0329405 c -0.802598,5.28288 -9.543724,9.480155 -20.308783,9.480155 -10.738407,2e-6 -19.431247,-4.174911 -20.26792,-9.439293 -0.04231,0.257772 -0.163452,0.512429 -0.163452,0.776393 10e-7,5.646181 9.139007,10.256549 20.431372,10.256548 11.292364,0 20.472232,-4.610366 20.472233,-10.256548 0,-0.278421 -0.116442,-0.545739 -0.16345,-0.817255 z" style="marker:none" id="path4211" fill="url(#linearGradient4272)" fill-opacity="1" fill-rule="evenodd" stroke="none" stroke-width="2" color="#000" display="inline" opacity=".691" overflow="visible" visibility="visible"/><path id="path4224" fill="#fff" fill-opacity=".458" fill-rule="evenodd" stroke="none" stroke-width="2" d="m 8.5736699,25.593554 c 0,0.561378 -0.6133786,1.016466 -1.3700194,1.016466 -0.7566409,0 -1.3700195,-0.455088 -1.3700195,-1.016466 0,-0.561379 0.6133786,-1.016466 1.3700195,-1.016466 0.7566408,0 1.3700194,0.455087 1.3700194,1.016466 z" color="#000" display="inline" overflow="visible" transform="matrix(1.3076078,0,0,1.3076078,0.69008862,-8.2756737)" visibility="visible" style="marker:none"/><path id="path4226" fill="#fff" fill-opacity=".458" fill-rule="evenodd" stroke="none" stroke-width="2" d="m 8.5736699,25.593554 c 0,0.561378 -0.6133786,1.016466 -1.3700194,1.016466 -0.7566409,0 -1.3700195,-0.455088 -1.3700195,-1.016466 0,-0.561379 0.6133786,-1.016466 1.3700195,-1.016466 0.7566408,0 1.3700194,0.455087 1.3700194,1.016466 z" color="#000" display="inline" overflow="visible" transform="matrix(1.3076078,0,0,1.3076078,44.990089,-8.3912532)" visibility="visible" style="marker:none"/><path id="path4252" fill="none" stroke="url(#linearGradient4260)" stroke-dasharray="none" stroke-linecap="round" stroke-linejoin="round" stroke-miterlimit="4" stroke-opacity="1" stroke-width="2" d="m 16.012996,3.0000001 c -0.787705,0 -1.29971,0.3534432 -1.61479,1.0277038 L 6.3786224,25.203534 c 0,0 -0.361804,1.055962 -0.3634166,2.298484 L 5.9990942,39.916402 C 5.9990942,41.630416 6.2662537,41 7.7723346,41 L 58,41 c 1,0 1,0 1,-1 l 0.0059,-13.110823 c 0,0 -0.108128,-0.865885 -0.359824,-1.526143 L 50.103268,3.3590161 C 49.991543,3.0980159 49.833507,3.0386679 49.427799,3.0161117 z"/><path id="path4282" fill="none" stroke="#fff" stroke-linecap="square" stroke-linejoin="miter" stroke-opacity=".424" stroke-width="1" d="m 53.532626,32.590189 0,6.565414"/><path id="path4284" fill="none" stroke="#fff" stroke-linecap="square" stroke-linejoin="miter" stroke-opacity=".424" stroke-width="1" d="m 50.917411,32.668354 0,6.565414"/><path id="path4286" fill="none" stroke="#fff" stroke-linecap="square" stroke-linejoin="miter" stroke-opacity=".424" stroke-width="1" d="m 48.302195,32.668354 0,6.565414"/><path id="path4288" fill="none" stroke="#fff" stroke-linecap="square" stroke-linejoin="miter" stroke-opacity=".424" stroke-width="1" d="m 45.68698,32.668354 0,6.565414"/><path id="path4290" fill="none" stroke="#fff" stroke-linecap="square" stroke-linejoin="miter" stroke-opacity=".424" stroke-width="1" d="m 43.071764,32.668354 0,6.565414"/><path id="path4292" fill="none" stroke="#fff" stroke-linecap="square" stroke-linejoin="miter" stroke-opacity=".424" stroke-width="1" d="m 40.456548,32.668354 0,6.565414"/><path id="path4294" fill="none" stroke="#000" stroke-linecap="square" stroke-linejoin="miter" stroke-opacity="1" stroke-width="1" d="m 52.225018,32.655437 0,6.565414" opacity=".097"/><path id="path4296" fill="none" stroke="#000" stroke-linecap="square" stroke-linejoin="miter" stroke-opacity="1" stroke-width="1" d="m 49.609803,32.733602 0,6.565414" opacity=".097"/><path id="path4298" fill="none" stroke="#000" stroke-linecap="square" stroke-linejoin="miter" stroke-opacity="1" stroke-width="1" d="m 46.994587,32.733602 0,6.565414" opacity=".097"/><path id="path4300" fill="none" stroke="#000" stroke-linecap="square" stroke-linejoin="miter" stroke-opacity="1" stroke-width="1" d="m 44.379371,32.733602 0,6.565414" opacity=".097"/><path id="path4302" fill="none" stroke="#000" stroke-linecap="square" stroke-linejoin="miter" stroke-opacity="1" stroke-width="1" d="m 41.764156,32.733602 0,6.565414" opacity=".097"/><path id="path4572" fill="#fff" fill-opacity="1" fill-rule="evenodd" stroke="none" d="m 10.871922,32.274184 0,7.232705 16.426823,0 -15.977333,-0.44949 -0.44949,-6.783215 z" opacity=".44"/><path id="path2545" fill="url(#linearGradient2553)" fill-opacity="1" fill-rule="evenodd" stroke="none" stroke-width=".934" d="m 39.875,19.5625 c 0,3.693404 -6.659764,6.6875 -14.875,6.6875 -8.215236,0 -14.875,-2.994096 -14.875,-6.6875 0,-3.693404 6.659764,-6.6875 14.875,-6.6875 8.215236,0 14.875,2.994096 14.875,6.6875 z" color="#000" display="inline" opacity=".206" overflow="visible" transform="matrix(1.3570549,0,0,1.387041,-1.5606526,-11.245787)" visibility="visible" style="marker:none"/><rect id="rect3231" width="28" height="24" x="3" y="-13" fill="#fff" fill-opacity="1" fill-rule="evenodd" stroke="#2e3436" stroke-linecap="butt" stroke-linejoin="round" stroke-opacity="1" stroke-width="2"/><path id="path4003" fill="none" stroke="#2e3436" stroke-linecap="butt" stroke-linejoin="round" stroke-opacity="1" stroke-width="2" d="M 30,-7 3,-7"/><path id="path4005" fill="none" stroke="#2e3436" stroke-linecap="butt" stroke-linejoin="round" stroke-opacity="1" stroke-width="2" d="m 3,-1 28,0"/><path id="path4009" fill="none" stroke="#2e3436" stroke-linecap="butt" stroke-linejoin="round" stroke-opacity="1" stroke-width="2" d="M 3,5 31,5"/></g><g id="layer1" transform="translate(0,16)"><path id="path4011" fill="none" stroke="#2e3436" stroke-linecap="butt" stroke-linejoin="round" stroke-opacity="1" stroke-width="2" d="m 17,-13 0,24"/><path id="path8660" fill="url(#radialGradient8668)" fill-opacity="1" fill-rule="evenodd" stroke="none" stroke-width="1" d="m 40.481863,36.421127 c 0,4.637477 -7.004387,8.396894 -15.644737,8.396894 -8.64035,0 -15.6447375,-3.759417 -15.6447375,-8.396894 0,-4.637476 7.0043875,-8.396893 15.6447375,-8.396893 8.64035,0 15.644737,3.759417 15.644737,8.396893 z" color="#000" display="inline" opacity=".141" overflow="visible" transform="matrix(1.4778452,0,0,-0.99326019,-4.5378755,54.965153)" visibility="visible" style="marker:none"/><path id="path1432" fill="url(#linearGradient6907)" fill-opacity="1" fill-rule="nonzero" stroke="url(#linearGradient6931)" stroke-dasharray="none" stroke-dashoffset="0" stroke-linecap="butt" stroke-linejoin="miter" stroke-miterlimit="4" stroke-opacity="1" stroke-width="2" d="M 4.7633675,18.353096 C 3.4158746,-22.471112 38.157272,-16.019086 37.9491,5.2162088 l 9.562424,0 L 32.633984,22.19678 17.031312,5.2162088 c 0,0 9.861237,0 9.861237,0 C 27.490206,-9.12742 5.03245,-13.323909 4.7633675,18.353096 z" color="#000" display="block" overflow="visible" visibility="visible" style="marker:none"/><path id="path2177" fill="none" stroke="url(#linearGradient1764)" stroke-dasharray="none" stroke-dashoffset="0" stroke-linecap="butt" stroke-linejoin="miter" stroke-miterlimit="10" stroke-opacity="1" stroke-width="2" d="M 10.596292,-3.3037245 C 18.665579,-14.075835 36.527228,-10.925713 36.055532,7.200148 L 43.268056,7.1545775 32.589866,19.182282 21.385404,7.0178661 28.962318,7.1090071 C 29.317535,-8.0268555 17.256988,-10.777016 10.596292,-3.3037245 z" color="#000" display="block" opacity=".472" overflow="visible" visibility="visible" style="marker:none"/><path id="path4989" fill="url(#radialGradient4997)" fill-opacity="1" fill-rule="nonzero" stroke="none" stroke-width="2" d="m 45.580607,6.1268198 -3.004658,3.1920774 c -7.0742,-1.9827165 -8.39803,3.3866268 -18.581084,2.0822198 L 19.26481,6.0915336 27.835707,6.1230684 C 27.899454,-9.3673888 12.898926,-10.525605 7.1508188,2.6115324 12.084558,-16.492811 36.556275,-13.834213 37.066247,6.1822539 z" color="#000" display="inline" opacity=".494" overflow="visible" visibility="visible" style="marker:none"/></g></svg>