<svg xmlns="http://www.w3.org/2000/svg" xmlns:svg="http://www.w3.org/2000/svg" xmlns:xlink="http://www.w3.org/1999/xlink" id="svg2860" width="64" height="64" version="1.1"><defs id="defs2862"><linearGradient id="linearGradient3790"><stop id="stop3792" offset="0" stop-color="#d3d7cf" stop-opacity="1"/><stop id="stop3794" offset="1" stop-color="#fff" stop-opacity="1"/></linearGradient><radialGradient id="radialGradient3692" cx="45.883" cy="28.87" r="19.467" fx="45.883" fy="28.87" gradientUnits="userSpaceOnUse" xlink:href="#linearGradient3377"/><radialGradient id="radialGradient3703" cx="135.383" cy="97.37" r="19.467" fx="135.383" fy="97.37" gradientTransform="matrix(0.97435,0.2250379,-0.4623105,2.0016728,48.487554,-127.99883)" gradientUnits="userSpaceOnUse" xlink:href="#linearGradient3377"/><linearGradient id="linearGradient3377"><stop id="stop3379" offset="0" stop-color="#faff2b" stop-opacity="1"/><stop id="stop3381" offset="1" stop-color="#fa0" stop-opacity="1"/></linearGradient><radialGradient id="radialGradient3705" cx="148.883" cy="81.87" r="19.467" fx="148.883" fy="81.87" gradientTransform="matrix(1.3852588,-0.05136783,0.03705629,0.9993132,-60.392403,7.7040438)" gradientUnits="userSpaceOnUse" xlink:href="#linearGradient3377"/><radialGradient id="radialGradient4160" cx="16.192" cy="-8.256" r="24.568" fx="16.192" fy="-8.256" gradientTransform="matrix(-0.64879807,1.5256071,-1.4159262,-0.58281661,2.2505901,-36.277567)" gradientUnits="userSpaceOnUse" xlink:href="#linearGradient4150"/><linearGradient id="linearGradient4150"><stop id="stop4152" offset="0" stop-color="red" stop-opacity=".078"/><stop id="stop4154" offset="1" stop-color="red" stop-opacity="1"/></linearGradient><linearGradient id="linearGradient3796" x1="43.886" x2="16.081" y1="53.375" y2="5.151" gradientUnits="userSpaceOnUse" xlink:href="#linearGradient3790"/></defs><metadata id="metadata2865"/><g id="layer1"><path id="path3086" fill="url(#linearGradient3796)" fill-opacity="1" stroke="#2e3436" stroke-dasharray="none" stroke-linecap="butt" stroke-linejoin="round" stroke-miterlimit="4" stroke-opacity="1" stroke-width="2" d="M 3 3 L 3 23 L 41 61 L 61 41 L 23 3 L 3 3 z M 12.6875 9 C 14.889845 8.832767 16.828285 10.484805 17 12.6875 C 17.171715 14.890195 15.514845 16.832767 13.3125 17 C 11.110155 17.167233 9.1717146 15.515195 9 13.3125 C 8.8282854 11.109805 10.485155 9.167233 12.6875 9 z"/><path id="path5152" fill="none" stroke="#2e3436" stroke-linecap="round" stroke-linejoin="miter" stroke-opacity="1" stroke-width="2" d="M 35,25 50,40"/><path id="path5152-7" fill="none" stroke="#2e3436" stroke-linecap="round" stroke-linejoin="miter" stroke-opacity="1" stroke-width="2" d="M 31,29 46,44"/><path id="path5152-3" fill="none" stroke="#2e3436" stroke-linecap="round" stroke-linejoin="miter" stroke-opacity="1" stroke-width="2" d="M 27,33 42,48"/><path id="path3086-3" fill="none" stroke="#fff" stroke-dasharray="none" stroke-linecap="butt" stroke-linejoin="miter" stroke-miterlimit="4" stroke-opacity="1" stroke-width="2" d="M 5,5 5,22.2 41.028808,58.230461 58.401827,41 22.200173,5 z"/></g></svg>