<svg xmlns="http://www.w3.org/2000/svg" xmlns:svg="http://www.w3.org/2000/svg" xmlns:xlink="http://www.w3.org/1999/xlink" id="svg97" width="64" height="64" version="1.1"><defs id="defs3"><radialGradient id="radialGradient5031" cx="605.714" cy="486.648" r="117.143" fx="605.714" fy="486.648" gradientTransform="matrix(-2.774389,0,0,1.969706,112.7623,-872.8854)" gradientUnits="userSpaceOnUse" xlink:href="#linearGradient5060"/><linearGradient id="linearGradient5060"><stop id="stop5062" offset="0" stop-color="#000" stop-opacity="1"/><stop id="stop5064" offset="1" stop-color="#000" stop-opacity="0"/></linearGradient><radialGradient id="radialGradient5029" cx="605.714" cy="486.648" r="117.143" fx="605.714" fy="486.648" gradientTransform="matrix(2.774389,0,0,1.969706,-1891.633,-872.8854)" gradientUnits="userSpaceOnUse" xlink:href="#linearGradient5060"/><linearGradient id="linearGradient5048"><stop id="stop5050" offset="0" stop-color="#000" stop-opacity="0"/><stop id="stop5056" offset=".5" stop-color="#000" stop-opacity="1"/><stop id="stop5052" offset="1" stop-color="#000" stop-opacity="0"/></linearGradient><linearGradient id="linearGradient5027" x1="302.857" x2="302.857" y1="366.648" y2="609.505" gradientTransform="matrix(2.774389,0,0,1.969706,-1892.179,-872.8854)" gradientUnits="userSpaceOnUse" xlink:href="#linearGradient5048"/><linearGradient id="linearGradient269"><stop id="stop270" offset="0" stop-color="#a3a3a3" stop-opacity="1"/><stop id="stop271" offset="1" stop-color="#4c4c4c" stop-opacity="1"/></linearGradient><radialGradient id="radialGradient8234" cx="8.824" cy="3.756" r="37.752" fx="8.824" fy="3.756" gradientTransform="matrix(1.2347626,0,0,1.3347566,57.512787,-35.36895)" gradientUnits="userSpaceOnUse" xlink:href="#linearGradient269"/><linearGradient id="linearGradient259"><stop id="stop260" offset="0" stop-color="#fafafa" stop-opacity="1"/><stop id="stop8238" offset=".5" stop-color="#a8a8a8" stop-opacity="1"/><stop id="stop261" offset="1" stop-color="#cdcdcd" stop-opacity="1"/></linearGradient><linearGradient id="linearGradient8236" x1="25.875" x2="25.25" y1="10.625" y2="30.875" gradientTransform="matrix(1.2752216,0,0,1.5797522,0.93818069,-23.730548)" gradientUnits="userSpaceOnUse" xlink:href="#linearGradient259"/><linearGradient id="linearGradient13842"><stop id="stop13844" offset="0" stop-color="#000" stop-opacity="1"/><stop id="stop13846" offset="1" stop-color="#000" stop-opacity="0"/></linearGradient><linearGradient id="linearGradient9766"><stop id="stop9768" offset="0" stop-color="#6194cb" stop-opacity="1"/><stop id="stop9770" offset="1" stop-color="#729fcf" stop-opacity="1"/></linearGradient><linearGradient id="linearGradient148"><stop id="stop149" offset="0" stop-color="#fff" stop-opacity=".134"/><stop id="stop150" offset="1" stop-color="#fff" stop-opacity=".052"/></linearGradient><linearGradient id="linearGradient335"><stop id="stop336" offset="0" stop-color="#fff" stop-opacity="1"/><stop id="stop337" offset="1" stop-color="#fff" stop-opacity="0"/></linearGradient><linearGradient id="linearGradient1789"><stop id="stop1790" offset="0" stop-color="#a0a0a0" stop-opacity="1"/><stop id="stop1791" offset="1" stop-color="#a8a8a8" stop-opacity="1"/></linearGradient><linearGradient id="linearGradient137"><stop id="stop138" offset="0" stop-color="#fff" stop-opacity=".701"/><stop id="stop139" offset="1" stop-color="#fff" stop-opacity="0"/></linearGradient><linearGradient id="linearGradient155" x1="19.116" x2="19.427" y1="28.946" y2="51.913" gradientTransform="matrix(1.8127747,0,0,0.89707247,0.93818069,-13.68104)" gradientUnits="userSpaceOnUse" xlink:href="#linearGradient335"/><linearGradient id="linearGradient156" x1="14.899" x2="22.715" y1="27.06" y2="41.837" gradientTransform="matrix(1.9578465,0,0,0.8306016,5.3395037,-10.559298)" gradientUnits="userSpaceOnUse" xlink:href="#linearGradient148"/><linearGradient id="linearGradient158" x1="5.266" x2="8.212" y1="18.726" y2="52.626" gradientTransform="matrix(1.8652617,0,0.08809114,0.87182952,0.93818063,-13.681041)" gradientUnits="userSpaceOnUse" xlink:href="#linearGradient137"/><radialGradient id="radialGradient159" cx="26.107" cy="38.195" r="32.26" fx="26.107" fy="38.195" gradientTransform="matrix(1.2951596,0,0.13148172,1.2758744,0.93818069,-13.787769)" gradientUnits="userSpaceOnUse" xlink:href="#linearGradient1789"/><linearGradient id="linearGradient13162" x1="22.176" x2="22.065" y1="36.988" y2="32.05" gradientTransform="matrix(1.2752216,0,0,1.3034269,67.322313,-15.368191)" gradientUnits="userSpaceOnUse" xlink:href="#linearGradient9766"/><linearGradient id="linearGradient13848" x1="22.25" x2="19.75" y1="37.625" y2="14.875" gradientTransform="matrix(1.2752216,0,0,1.2752216,0.93818063,-13.681041)" gradientUnits="userSpaceOnUse" xlink:href="#linearGradient13842"/></defs><metadata id="metadata4"/><g id="layer3" transform="translate(0,16)"><path id="path2375" fill="url(#radialGradient159)" fill-opacity="1" fill-rule="nonzero" stroke="#5a5a5a" stroke-dashoffset="0" stroke-linecap="round" stroke-linejoin="round" stroke-miterlimit="4" stroke-opacity="1" stroke-width="1.894" d="m 6.829741,35.607571 c 0.053314,0.536173 0.6342769,1.072346 1.1619251,1.072346 l 39.7055089,0 c 0.527648,0 1.001982,-0.536173 0.948668,-1.072346 L 45.207059,1.0244686 C 45.153746,0.4882965 44.57278,-0.04787554 44.045133,-0.04787554 l -16.225175,0 c -0.753077,0 -1.54185,-0.48401295 -1.78896,-1.22464016 L 24.624426,-5.488241 c -0.215832,-0.6468914 -0.697737,-0.9383012 -1.676244,-0.9383012 l -19.0484026,0 c -0.527648,0 -1.0019814,0.5361724 -0.948667,1.0723444 L 6.829741,35.607571 z" color="#000" display="inline" overflow="visible" visibility="visible" style="marker:none"/><path id="path13113" fill="#729fcf" fill-opacity="1" fill-rule="nonzero" stroke="#000" stroke-dasharray="none" stroke-dashoffset="0" stroke-linecap="round" stroke-linejoin="round" stroke-miterlimit="4" stroke-opacity="1" stroke-width="1.894" d="m 5.1956381,8.6780417 39.7229759,0" color="#000" display="inline" opacity=".114" overflow="visible" visibility="visible" style="marker:none"/><path id="path13160" fill="#729fcf" fill-opacity="1" fill-rule="nonzero" stroke="#000" stroke-dasharray="none" stroke-dashoffset="0" stroke-linecap="round" stroke-linejoin="round" stroke-miterlimit="4" stroke-opacity="1" stroke-width="1.894" d="m 7.7353065,34.182474 38.2410335,0" color="#000" display="inline" opacity=".114" overflow="visible" visibility="visible" style="marker:none"/><path id="path13139" fill="#729fcf" fill-opacity="1" fill-rule="nonzero" stroke="#000" stroke-dasharray="none" stroke-dashoffset="0" stroke-linecap="round" stroke-linejoin="round" stroke-miterlimit="4" stroke-opacity="1" stroke-width="1.894" d="m 7.7353065,31.632033 38.2410335,0" color="#000" display="inline" opacity=".114" overflow="visible" visibility="visible" style="marker:none"/><g id="g5022" stroke-width="73.154" display="inline" transform="matrix(0.02761048,0,0,0.0242782,55.027191,33.417639)"><rect id="rect4173" width="1339.633" height="478.357" x="-1559.252" y="-150.697" fill="url(#linearGradient5027)" fill-opacity="1" fill-rule="nonzero" stroke="none" stroke-width="73.154" color="#000" display="inline" opacity=".402" overflow="visible" visibility="visible" style="marker:none"/><path d="m -219.61876,-150.68038 c 0,0 0,478.33079 0,478.33079 142.874166,0.90045 345.40022,-107.16966 345.40014,-239.196175 0,-132.026537 -159.436816,-239.134595 -345.40014,-239.134615 z" style="marker:none" id="path5058" fill="url(#radialGradient5029)" fill-opacity="1" fill-rule="nonzero" stroke="none" stroke-width="73.154" color="#000" display="inline" opacity=".402" overflow="visible" visibility="visible"/><path id="path5018" fill="url(#radialGradient5031)" fill-opacity="1" fill-rule="nonzero" stroke="none" stroke-width="73.154" d="m -1559.2523,-150.68038 c 0,0 0,478.33079 0,478.33079 -142.8742,0.90045 -345.4002,-107.16966 -345.4002,-239.196175 0,-132.026537 159.4368,-239.134595 345.4002,-239.134615 z" color="#000" display="inline" opacity=".402" overflow="visible" visibility="visible" style="marker:none"/></g><path d="m 8.8085323,35.311285 c 0.039986,0.395735 -0.197181,0.65956 -0.6062455,0.527647 l 0,0 C 7.7932221,35.70702 7.5027411,35.443195 7.462755,35.04746 L 3.5993861,-4.952666 c -0.039986,-0.395736 0.199692,-0.6347072 0.5954281,-0.6347072 L 23.004018,-5.7039873 c 0.677505,-0.00419 0.942937,0.067977 1.121939,0.6595601 0,0 1.384093,3.9695072 1.589226,4.71590339 L 23.731452,-4.0483911 c -0.338163,-0.6341202 -0.763532,-0.527648 -1.240522,-0.527648 l -16.742897,0 c -0.395736,0 -0.6329028,0.2638239 -0.5929168,0.6595599 L 8.9537728,35.443195 8.8085323,35.311285 z" style="marker:none" id="path2380" fill="url(#linearGradient158)" fill-opacity="1" fill-rule="nonzero" stroke="none" stroke-width="2" color="#000" display="block" overflow="visible" visibility="visible"/><path id="path13145" fill="#729fcf" fill-opacity="1" fill-rule="nonzero" stroke="#000" stroke-dasharray="none" stroke-dashoffset="0" stroke-linecap="round" stroke-linejoin="round" stroke-miterlimit="4" stroke-opacity="1" stroke-width="1.894" d="m 3.8778641,-4.0741749 18.8525369,0" color="#000" display="inline" opacity=".114" overflow="visible" visibility="visible" style="marker:none"/><path id="path13115" fill="#729fcf" fill-opacity="1" fill-rule="nonzero" stroke="#000" stroke-dasharray="none" stroke-dashoffset="0" stroke-linecap="round" stroke-linejoin="round" stroke-miterlimit="4" stroke-opacity="1" stroke-width="1.894" d="m 4.4543918,1.0267117 39.1988872,0" color="#000" display="inline" opacity=".114" overflow="visible" visibility="visible" style="marker:none"/><path id="path13123" fill="#729fcf" fill-opacity="1" fill-rule="nonzero" stroke="#000" stroke-dasharray="none" stroke-dashoffset="0" stroke-linecap="round" stroke-linejoin="round" stroke-miterlimit="4" stroke-opacity="1" stroke-width="1.894" d="m 4.9715734,6.1275983 39.3157936,0" color="#000" display="inline" opacity=".114" overflow="visible" visibility="visible" style="marker:none"/><path id="path13121" fill="#729fcf" fill-opacity="1" fill-rule="nonzero" stroke="#000" stroke-dasharray="none" stroke-dashoffset="0" stroke-linecap="round" stroke-linejoin="round" stroke-miterlimit="4" stroke-opacity="1" stroke-width="1.894" d="m 7.5176506,29.081589 38.2410334,0" color="#000" display="inline" opacity=".114" overflow="visible" visibility="visible" style="marker:none"/><path id="path13119" fill="#729fcf" fill-opacity="1" fill-rule="nonzero" stroke="#000" stroke-dasharray="none" stroke-dashoffset="0" stroke-linecap="round" stroke-linejoin="round" stroke-miterlimit="4" stroke-opacity="1" stroke-width="1.894" d="m 7.1431651,26.531145 38.3952969,0" color="#000" display="inline" opacity=".114" overflow="visible" visibility="visible" style="marker:none"/><path id="path13135" fill="#729fcf" fill-opacity="1" fill-rule="nonzero" stroke="#000" stroke-dasharray="none" stroke-dashoffset="0" stroke-linecap="round" stroke-linejoin="round" stroke-miterlimit="4" stroke-opacity="1" stroke-width="1.894" d="m 6.8470945,23.980702 38.4724305,0" color="#000" display="inline" opacity=".114" overflow="visible" visibility="visible" style="marker:none"/><path id="path13137" fill="#729fcf" fill-opacity="1" fill-rule="nonzero" stroke="#000" stroke-dasharray="none" stroke-dashoffset="0" stroke-linecap="round" stroke-linejoin="round" stroke-miterlimit="4" stroke-opacity="1" stroke-width="1.894" d="m 6.6294384,21.430258 38.4724306,0" color="#000" display="inline" opacity=".114" overflow="visible" visibility="visible" style="marker:none"/><path id="path13143" fill="#729fcf" fill-opacity="1" fill-rule="nonzero" stroke="#000" stroke-dasharray="none" stroke-dashoffset="0" stroke-linecap="round" stroke-linejoin="round" stroke-miterlimit="4" stroke-opacity="1" stroke-width="1.894" d="m 6.3651056,18.879815 38.5182244,0" color="#000" display="inline" opacity=".114" overflow="visible" visibility="visible" style="marker:none"/><path id="path13133" fill="#729fcf" fill-opacity="1" fill-rule="nonzero" stroke="#000" stroke-dasharray="none" stroke-dashoffset="0" stroke-linecap="round" stroke-linejoin="round" stroke-miterlimit="4" stroke-opacity="1" stroke-width="1.894" d="m 6.0690603,16.329372 38.5953237,0" color="#000" display="inline" opacity=".114" overflow="visible" visibility="visible" style="marker:none"/><path id="path13117" fill="#729fcf" fill-opacity="1" fill-rule="nonzero" stroke="#000" stroke-dasharray="none" stroke-dashoffset="0" stroke-linecap="round" stroke-linejoin="round" stroke-miterlimit="4" stroke-opacity="1" stroke-width="1.894" d="m 5.8514042,13.778929 38.5953248,0" color="#000" display="inline" opacity=".114" overflow="visible" visibility="visible" style="marker:none"/><path id="path13127" fill="#729fcf" fill-opacity="1" fill-rule="nonzero" stroke="#000" stroke-dasharray="none" stroke-dashoffset="0" stroke-linecap="round" stroke-linejoin="round" stroke-miterlimit="4" stroke-opacity="1" stroke-width="1.894" d="m 4.7182326,3.5771551 39.5656694,0" color="#000" display="inline" opacity=".114" overflow="visible" visibility="visible" style="marker:none"/><path id="path13125" fill="#729fcf" fill-opacity="1" fill-rule="nonzero" stroke="#000" stroke-dasharray="none" stroke-dashoffset="0" stroke-linecap="round" stroke-linejoin="round" stroke-miterlimit="4" stroke-opacity="1" stroke-width="1.894" d="m 5.5945492,11.228485 38.6338548,0" color="#000" display="inline" opacity=".114" overflow="visible" visibility="visible" style="marker:none"/><path id="path13147" fill="#729fcf" fill-opacity="1" fill-rule="nonzero" stroke="#000" stroke-dasharray="none" stroke-dashoffset="0" stroke-linecap="round" stroke-linejoin="round" stroke-miterlimit="4" stroke-opacity="1" stroke-width="1.894" d="m 4.1571681,-1.5237316 19.4864269,0" color="#000" display="inline" opacity=".114" overflow="visible" visibility="visible" style="marker:none"/><path id="path13840" fill="url(#linearGradient13848)" fill-opacity="1" fill-rule="nonzero" stroke="none" stroke-width="2" d="M 44.773924,4.3314652 48.121383,35.733799 8.5895106,35.893201 c 0,0 -2.3910406,-31.5617358 -2.3910406,-31.5617358 0,0 38.734859,0 38.575454,0 z" color="#000" display="block" opacity=".392" overflow="visible" visibility="visible" style="marker:none"/><path id="path8230" fill="url(#linearGradient8236)" fill-opacity="1" fill-rule="nonzero" stroke="url(#radialGradient8234)" stroke-dasharray="none" stroke-dashoffset="0" stroke-linecap="butt" stroke-linejoin="miter" stroke-miterlimit="4" stroke-opacity="1" stroke-width="1.894" d="M 57,-11 C 57.637611,10.524124 44.678203,13.127791 48.583569,26.481633 L 8.4301079,27.611399 C 6.0390674,11.22147 19.110088,0.55814166 15.284424,-10.302655 z" color="#000" display="block" overflow="visible" visibility="visible" style="marker:none"/><g id="g2381" fill="#fff" fill-opacity=".58" fill-rule="nonzero" stroke="#000" stroke-miterlimit="4" stroke-width="1.436" display="block" transform="matrix(1.3191199,0,0.13328617,1.3191199,-11.855456,-10.324767)"><path id="path2382" stroke="none" d="m 41.785743,9.0363862 c 0.0096,-0.4745828 0.01519,-0.7245056 -0.423393,-0.7242032 l -12.55582,0.00866 c -0.3,0 -0.324614,-0.1432061 0,0 0.324614,0.1432061 1.247098,0.6582712 2.182697,0.7009947 0,0 10.796477,0.016463 10.796516,0.014551 z"/></g><g id="g1853" fill="#fff" fill-opacity=".58" fill-rule="nonzero" stroke="#000" stroke-miterlimit="4" stroke-width="1.436" display="block" transform="matrix(1.3191199,0,0.13328617,1.3191199,-11.855456,-10.324767)"><path id="path1855" stroke="none" d="m 41.785743,9.0363862 c 0.0096,-0.4745828 0.01519,-0.7245056 -0.423393,-0.7242032 l -12.55582,0.00866 c -0.3,0 -0.324614,-0.1432061 0,0 0.324614,0.1432061 1.247098,0.6582712 2.182697,0.7009947 0,0 10.796477,0.016463 10.796516,0.014551 z"/></g><path id="path323" fill="url(#linearGradient156)" fill-opacity="1" fill-rule="evenodd" stroke="none" d="m 17.687549,12.000191 c -0.985424,6.364321 -1.914493,11.488781 -3.46349,17.233171 3.043298,-0.901717 9.074626,-4.086453 21.826842,-4.086453 12.752217,0 21.326262,-11.794142 22.509768,-13.203075 l -40.87312,0.05635 z"/><path id="path324" fill="none" stroke="url(#linearGradient155)" stroke-dashoffset="0" stroke-linecap="round" stroke-linejoin="miter" stroke-miterlimit="4" stroke-opacity="1" stroke-width="1.894" d="m 59.368944,11.424886 -42.284402,0 c 0,0 -2.738855,20.42855 -6.021943,23.26078 10.356173,0 40.260242,-0.06203 40.285515,-0.06203 2.233754,0 6.25833,-16.11395 8.02083,-23.19876 z" color="#000" display="inline" opacity=".523" overflow="visible" visibility="visible" style="marker:none"/><path id="path8289" fill="#fff" fill-opacity="1" fill-rule="nonzero" stroke="none" stroke-width="2" d="M 9.268,26.807247 C 7.6849836,11.201034 18.592535,2.9537091 16.6,-9.4 L 55,-9 19,-8 C 20.594026,4.1943077 9.6551783,9.6191043 9.268,26.807247 z" color="#000" display="block" overflow="visible" visibility="visible" style="marker:none"/><path id="path3512" fill="none" stroke="#000" stroke-linecap="butt" stroke-linejoin="miter" stroke-opacity="1" stroke-width="1.894" d="M 20.138126,-6.577803 C 36.592817,-6.5639181 53,-7 53,-7 53.942005,3.4676557 46.13265,7.840453 44.180901,21.573697 L 12.986642,21.844253 C 12.13632,14.034465 21.185892,2.058556 20.138126,-6.577803 z"/><path id="path3534" fill="none" stroke="#000" stroke-linecap="butt" stroke-linejoin="miter" stroke-opacity="1" stroke-width="1.894" d="M 22.950829,21.956081 C 23.615168,10.662715 29.512932,7.7927419 30.396283,-6.1262307"/><path id="path3534-3" fill="none" stroke="#000" stroke-linecap="butt" stroke-linejoin="miter" stroke-opacity="1" stroke-width="1.894" d="M 33.795294,21.106328 C 34.459632,9.8129622 40.357397,6.9429891 41.240749,-6.9759834"/><path id="path3554-6" fill="none" stroke="#000" stroke-linecap="butt" stroke-linejoin="miter" stroke-opacity="1" stroke-width="1.894" d="M 19.511352,1.4001527 51.154533,1.0764377"/><path id="path3554-2" fill="none" stroke="#000" stroke-linecap="butt" stroke-linejoin="miter" stroke-opacity="1" stroke-width="1.894" d="M 16.274199,8.9265351 47.91738,8.6028201"/><path id="path3554-3" fill="none" stroke="#000" stroke-linecap="butt" stroke-linejoin="miter" stroke-opacity="1" stroke-width="1.894" d="M 14.574693,13.053907 46.217874,12.730192"/><path id="path3554-5" fill="none" stroke="#000" stroke-linecap="butt" stroke-linejoin="miter" stroke-opacity="1" stroke-width="1.894" d="M 13.684477,16.776634 45.327658,16.452921"/><path stroke-miterlimit="4" style="marker:none" id="path2401" fill="url(#linearGradient13162)" fill-opacity="1" fill-rule="nonzero" stroke="#3465a4" stroke-dasharray="none" stroke-dashoffset="0" stroke-linecap="butt" stroke-linejoin="round" stroke-opacity="1" stroke-width="1.894" d="m 8.3071324,36.136765 c 0.1319115,0.26967 0.3957343,0.539327 0.7914688,0.539327 l 42.4756608,0 c 0.263833,0 0.664599,-0.161066 0.903078,-0.337106 0.67638,-0.499294 0.835092,-0.780927 1.138495,-1.241387 3.121903,-4.738034 7.402842,-24.582311 7.402842,-24.582311 0.131912,-0.269659 -0.131909,-0.5393169 -0.527645,-0.5393169 l -44.535384,0 c -0.395735,0 -2.111723,20.5404159 -6.201402,24.5952299 l -1.579025,1.565564 0.1319114,0 z" color="#000" display="block" overflow="visible" visibility="visible"/></g></svg>