<svg xmlns="http://www.w3.org/2000/svg" xmlns:osb="http://www.openswatchbook.org/uri/2009/osb" xmlns:xlink="http://www.w3.org/1999/xlink" id="svg4199" width="64" height="64" version="1.1" viewBox="0 0 64 64"><defs id="defs4201"><radialGradient id="radialGradient4373" cx="33.81" cy="1026.8" r="11.356" gradientTransform="matrix(.90441 -.42666 .78339 1.6606 -802.48 -664.03)" gradientUnits="userSpaceOnUse"><stop id="stop4367" offset="0" stop-color="#8ae234"/><stop id="stop4369" offset="1" stop-color="#8ae234" stop-opacity="0"/></radialGradient></defs><metadata id="metadata4204"/><g id="layer1" transform="translate(0 -988.36)"><rect id="rect4140-5" width="56" height="56" x="4" y="992.36" fill="#eeeeec" fill-rule="evenodd" color="#000" ry="10"/><g id="g4383" transform="translate(1.5573 1.0572)"><path id="path4317" fill="none" stroke="url(#radialGradient4373)" stroke-width="10" d="m23.562 1007.7s2.5537 8.4857 4.7478 12.29c2.5316 4.3896 9.5304 11.844 9.5304 11.844"/><g id="g4348" fill="#729fcf" transform="translate(49.333 10.148)"><g id="g4350" transform="translate(-43.493 1.3512)"><g id="g4352" fill="#729fcf" transform="matrix(0.5 0 0 0.5 20.237 506.39)"><ellipse id="ellipse4354" cx="15.714" cy="88.839" fill="#729fcf" rx="5.714" ry="5.625" transform="matrix(2.625 0 0 2.6667 -17.723 791.04)"/></g></g><g id="g4356" stroke="#eeeeec" stroke-width="2.857" transform="matrix(.56104 0 0 -.55886 -29.446 1592)"><g id="g4358" fill="#729fcf" stroke="#eeeeec" stroke-width="5.715" transform="matrix(0.5 0 0 0.5 20.237 506.39)"><ellipse id="ellipse4360" cx="15.714" cy="88.839" fill="#729fcf" stroke="#eeeeec" stroke-width="2.16" rx="5.714" ry="5.625" transform="matrix(2.625 0 0 2.6667 -17.723 791.04)"/></g></g></g></g><g id="g4393" fill="none" stroke="#2e3436" stroke-width="1.6" transform="translate(2.0142 2.8894)"><path id="path4375" d="m13.593 1017.9s2.0583 5.1195 3.5166 7.4444c2.507 4 8.89 11.1 8.89 11.1"/><path id="path4381" d="m24 1029.4 2 7-7-3"/></g><g><circle id="path8939" cx="24" cy="1007.4" r="6.3" fill="none" stroke="#729fcf" stroke-dasharray="2 2" stroke-width="2"/><circle id="path5274" cx="46" cy="1007.4" r="7.5" fill="#fff" stroke="#2e3436" stroke-linecap="round" stroke-linejoin="bevel" stroke-width="1.2"/><path id="path4350" fill="none" stroke="#2e3436" stroke-linejoin="round" stroke-width="1.6" d="m46 1001.4v6l3.8648-2.9168"/></g></g></svg>