<svg xmlns="http://www.w3.org/2000/svg" id="svg4199" width="64" height="64" version="1.1" viewBox="0 0 64 64"><metadata id="metadata4204"/><g id="layer1" transform="translate(0 -988.36)"><g fill-rule="evenodd"><rect id="rect4140" width="56" height="56" x="4" y="992.36" fill="#eeeeec" color="#000" ry="10"/><g stroke="#2e3436"><path id="path4144" fill="#fff" stroke-width="2" d="m16 1027.9v-20c0-8.0001 4-12.5 16-12.5s16 4.5 16 12.5v20c0 8-4 17.5-16 17.5s-16-9.5-16-17.5z"/><path id="path4195" fill="#729fcf" stroke-width=".5" d="m17 1010.9c-0.13863-10 1.4688-14.5 15-14.5v14.5z"/><path id="path4197" fill="#fff" stroke-width=".5" d="m47 1010.9c0.13863-10-1.4688-14.5-15-14.5v14.5z"/></g></g><g stroke="#2e3436"><path id="path4169" fill="none" stroke-width="2" d="m32 1011.9v-16.5"/><path id="path4167" fill="none" stroke-width="2" d="m16 1011.9h32"/><rect id="rect4139" width="8" height="18" x="28" y="1002.9" fill="#fff" fill-rule="evenodd" stroke-linecap="round" stroke-width="1.6" color="#000" ry="3.5"/></g><g id="g4259" transform="translate(-13.321 -65.064)"><g id="g4262" fill="none" transform="translate(-50.679 57.278)"><path id="path4170-6" stroke="#2e3436" stroke-width="4" d="m102 1009.1-6-6.0001-6 6.0001"/><path id="path4145" stroke="#729fcf" stroke-width="2" d="m101 1008.1-5-5.0001-5 5.0001"/></g><g id="g4280" transform="translate(-50.679 72.85)"><g id="g4260" transform="translate(64 7.1285)"><path id="path4214" fill="none" stroke="#2e3436" stroke-width="4" d="m38 1024.4-6 6-6-6"/></g><path id="path4220" fill="none" stroke="#729fcf" stroke-width="2" d="m101 1032.5-5 5-5-5"/></g><g id="g4271" fill="none" transform="translate(-50.679 65.064)"><path id="path4215" stroke="#2e3436" stroke-width="4" d="m107.21 1026.4 6-6-6-6"/><path id="path4217" stroke="#729fcf" stroke-width="2" d="m108.21 1025.4 5-5-5-5"/></g><g id="g4276" fill="none" transform="translate(-50.679 65.064)"><path id="path4221" stroke="#2e3436" stroke-width="4" d="m38 1024.4-6 6-6-6" transform="matrix(0 1 -1 0 1109.2 988.36)"/><path id="path4223" stroke="#729fcf" stroke-width="2" d="m83.872 1025.4-5-5 5-5"/></g></g></g></svg>