<svg xmlns="http://www.w3.org/2000/svg" xmlns:xlink="http://www.w3.org/1999/xlink" id="svg4199" width="64" height="64" version="1.1" viewBox="0 0 64 64"><defs id="defs4201"><radialGradient id="radialGradient4373" cx="33.81" cy="1026.8" r="11.356" gradientTransform="matrix(.17804 -.98402 -1.8068 -.32690 1875.4 1403.9)" gradientUnits="userSpaceOnUse" xlink:href="#linearGradient4365"/><linearGradient id="linearGradient4365"><stop id="stop4367" offset="0" stop-color="#8ae234"/><stop id="stop4369" offset="1" stop-color="#8ae234" stop-opacity="0"/></linearGradient><radialGradient id="radialGradient4607" cx="33.81" cy="1026.8" r="11.356" gradientTransform="matrix(-.17804 .98402 1.8068 .32690 -1811.4 636.83)" gradientUnits="userSpaceOnUse" xlink:href="#linearGradient4365"/></defs><metadata id="metadata4204"/><g id="layer1" transform="translate(0 -988.36)"><rect id="rect4140" width="56" height="56" x="4" y="992.36" fill="#eeeeec" fill-rule="evenodd" color="#000" ry="10"/><g id="g4197" transform="translate(0 -1.0001)"><path id="path4317" fill="none" stroke="url(#radialGradient4373)" stroke-width="10" d="m46.81 1038.7s-8.8575-0.2705-13.1-1.4051c-4.8952-1.3092-13.907-6.1404-13.907-6.1404"/><g id="g4348" fill="#729fcf" transform="matrix(-.25882 -.96593 -.96593 .25882 1003.7 755.59)"><g id="g4350" transform="translate(-43.493 1.3512)"><g id="g4352" fill="#729fcf" transform="matrix(0.5 0 0 0.5 20.237 506.39)"><ellipse id="ellipse4354" cx="15.714" cy="88.839" fill="#729fcf" rx="5.714" ry="5.625" transform="matrix(2.625 0 0 2.6667 -17.723 791.04)"/></g></g><g id="g4356" stroke="#eeeeec" stroke-width="2.857" transform="matrix(.56104 0 0 -.55886 -29.446 1592)"><g id="g4358" fill="#729fcf" stroke="#eeeeec" stroke-width="5.715" transform="matrix(0.5 0 0 0.5 20.237 506.39)"><ellipse id="ellipse4360" cx="15.714" cy="88.839" fill="#729fcf" stroke="#eeeeec" stroke-width="2.16" rx="5.714" ry="5.625" transform="matrix(2.625 0 0 2.6667 -17.723 791.04)"/></g></g></g></g><g id="g4393" fill="none" stroke="#2e3436" stroke-width="1.6" transform="matrix(-.12795 -.99178 -.99178 .12795 1048.2 932.48)"><path id="path4375" d="m15.117 1021.8s2.3055 4.7927 3.8552 6.9364c2.0252 2.8016 7.0278 7.6265 7.0278 7.6265"/><path id="path4381" d="m24 1029.4 2 7-7-3"/></g><g id="g4207" transform="translate(0 .99980)"><path id="path4585" fill="none" stroke="url(#radialGradient4607)" stroke-width="10" d="m17.189 1002s8.8575 0.2704 13.1 1.4051c4.8952 1.3091 13.907 6.1403 13.907 6.1403"/><g id="g4587" fill="#729fcf" transform="matrix(.25882 .96593 .96593 -.25882 -939.73 1285.1)"><g id="g4589" transform="translate(-43.493 1.3512)"><g id="g4591" fill="#729fcf" transform="matrix(0.5 0 0 0.5 20.237 506.39)"><ellipse id="ellipse4593" cx="15.714" cy="88.839" fill="#729fcf" rx="5.714" ry="5.625" transform="matrix(2.625 0 0 2.6667 -17.723 791.04)"/></g></g><g id="g4595" stroke="#eeeeec" stroke-width="2.857" transform="matrix(.56104 0 0 -.55886 -29.446 1592)"><g id="g4597" fill="#729fcf" stroke="#eeeeec" stroke-width="5.715" transform="matrix(0.5 0 0 0.5 20.237 506.39)"><ellipse id="ellipse4599" cx="15.714" cy="88.839" fill="#729fcf" stroke="#eeeeec" stroke-width="2.16" rx="5.714" ry="5.625" transform="matrix(2.625 0 0 2.6667 -17.723 791.04)"/></g></g></g></g><g id="g4601" fill="none" stroke="#2e3436" stroke-width="1.6" transform="matrix(.12795 .99178 .99178 -.12795 -984.21 1108.2)"><path id="path4603" d="m15.117 1021.8s2.3055 4.7927 3.8552 6.9364c2.0252 2.8016 7.0278 7.6265 7.0278 7.6265"/><path id="path4605" d="m24 1029.4 2 7-7-3"/></g></g></svg>