<svg xmlns="http://www.w3.org/2000/svg" xmlns:xlink="http://www.w3.org/1999/xlink" id="svg4199" width="64" height="64" version="1.1" viewBox="0 0 64 64"><defs id="defs4201"><linearGradient id="linearGradient5152"><stop id="stop5154" offset="0" stop-color="#8ae234"/><stop id="stop5156" offset="1" stop-color="#8ae234" stop-opacity="0"/></linearGradient><radialGradient id="radialGradient5160" cx="25.241" cy="1030.8" r="11.036" gradientTransform="matrix(.78044 .78045 -.66064 .66063 684.06 328.91)" gradientUnits="userSpaceOnUse" xlink:href="#linearGradient5152"/><radialGradient id="radialGradient5164" cx="25.241" cy="1030.8" r="11.036" gradientTransform="matrix(-.78044 -.78045 .68896 -.68895 -647.9 1739.7)" gradientUnits="userSpaceOnUse" xlink:href="#linearGradient5152"/></defs><metadata id="metadata4204"/><g id="layer1" transform="translate(0 -988.36)"><rect id="rect4140" width="56" height="56" x="3.973" y="991.69" fill="#eeeeec" fill-rule="evenodd" color="#000" ry="10"/><path id="path5162" fill="#8ae234" fill-rule="evenodd" stroke="url(#radialGradient5164)" stroke-width="10" d="m47.5 1004.9-15 15"/><g id="g4340" fill="#729fcf" transform="translate(58.993 -16.851)"><g id="layer1-7" transform="translate(-43.493 1.3512)"><g id="g4281" fill="#729fcf" transform="matrix(0.5 0 0 0.5 20.237 506.39)"><ellipse id="path3059" cx="15.714" cy="88.839" fill="#729fcf" rx="5.714" ry="5.625" transform="matrix(2.625 0 0 2.6667 -17.723 791.04)"/></g></g><g id="g4138" stroke="#eeeeec" stroke-width="2.857" transform="matrix(.56104 0 0 -.55886 -29.446 1592)"><g id="g4140" fill="#729fcf" stroke="#eeeeec" stroke-width="5.715" transform="matrix(0.5 0 0 0.5 20.237 506.39)"><ellipse id="ellipse4142" cx="15.714" cy="88.839" fill="#729fcf" stroke="#eeeeec" stroke-width="2.16" rx="5.714" ry="5.625" transform="matrix(2.625 0 0 2.6667 -17.723 791.04)"/></g></g></g><path id="path5130" fill="#8ae234" fill-rule="evenodd" stroke="url(#radialGradient5160)" stroke-width="10" d="m17.854 1034.5 15-15"/><g id="g4348" fill="#729fcf" transform="translate(29.318 12.824)"><g id="g4350" transform="translate(-43.493 1.3512)"><g id="g4352" fill="#729fcf" transform="matrix(0.5 0 0 0.5 20.237 506.39)"><ellipse id="ellipse4354" cx="15.714" cy="88.839" fill="#729fcf" rx="5.714" ry="5.625" transform="matrix(2.625 0 0 2.6667 -17.723 791.04)"/></g></g><g id="g4356" stroke="#eeeeec" stroke-width="2.857" transform="matrix(.56104 0 0 -.55886 -29.446 1592)"><g id="g4358" fill="#729fcf" stroke="#eeeeec" stroke-width="5.715" transform="matrix(0.5 0 0 0.5 20.237 506.39)"><ellipse id="ellipse4360" cx="15.714" cy="88.839" fill="#729fcf" stroke="#eeeeec" stroke-width="2.16" rx="5.714" ry="5.625" transform="matrix(2.625 0 0 2.6667 -17.723 791.04)"/></g></g></g><g id="g4368" fill="none" stroke="#2e3436" transform="matrix(.70711 -.70711 .70711 .70711 -717.57 323.11)"><path id="path4364" stroke-width="2" d="m30 1042.4h20"/><path id="path4366" stroke-width="1.8" d="m44 1039.4 6 3-6 3"/></g><g id="g4378" fill="none" stroke="#2e3436" transform="matrix(-.70711 .70711 .70711 .70711 -672.03 269.44)"><path id="path4380" stroke-width="2" d="m30 1042.4h20"/><path id="path4383" stroke-width="1.8" d="m44 1039.4 6 3-6 3"/></g></g></svg>