<svg xmlns="http://www.w3.org/2000/svg" id="svg4199" width="64" height="64" version="1.1" viewBox="0 0 64 64"><metadata id="metadata4204"/><g id="layer1"><g fill-rule="evenodd" transform="translate(0 -988.36)"><rect id="rect4140" width="56" height="56" x="4" y="992.36" fill="#eeeeec" color="#000" ry="10"/><path id="path4144" fill="#fff" stroke="#2e3436" stroke-width="2" d="m12 1002.4v35c0 4 0 4 20 4 21 0 21 0 21-4v-35c0-3 0-3-21-3-20-0.00004-20-0.00004-20 3z"/><path id="path4195" fill="#729fcf" stroke="#2e3436" stroke-width=".5" d="m13 1028.4c0 9-1 12 2 12h16v-12z"/></g><g stroke="#2e3436" transform="translate(0 -988.36)"><path id="path4169" fill="none" stroke-width="2" d="m32 1027.4v14"/><path id="path4167" fill="none" stroke-width="2" d="m12 1027.4h41"/><path id="path4154" fill="#fff" fill-rule="evenodd" stroke-width=".5" d="m52 1028.4c0 10 1 12-2 12h-17v-12z"/></g></g></svg>