<svg xmlns="http://www.w3.org/2000/svg" xmlns:osb="http://www.openswatchbook.org/uri/2009/osb" id="svg4199" width="64" height="64" version="1.1" viewBox="0 0 64 64"><metadata id="metadata4204"/><g id="layer1" transform="translate(0 -988.36)"><rect id="rect4151" width="56" height="56" x="4" y="992.36" fill="#eeeeec" fill-rule="evenodd" color="#000" ry="10"/><g id="g4311" transform="matrix(.72726 0 0 .72726 8.7275 286.29)"><g stroke="#2e3436"><path id="path4144" fill="#fff" fill-rule="evenodd" stroke-width="2" d="m11.5 1002.4v35c0 4 0 4 20 4 21 0 21 0 21-4v-35c0-3.0001 0-3.0001-21-3-20-0.00004-20-0.00004-20 3z"/><path id="path4195" fill="#fff" fill-rule="evenodd" stroke-width=".5" d="m12.5 1028.4c0 9-1 12 2 12h16v-12z"/><path id="path4169" fill="none" stroke-width="2" d="m31.5 1027.4v14"/><path id="path4167" fill="none" stroke-width="2" d="m11.5 1027.4h41"/><path id="path4154" fill="#fff" fill-rule="evenodd" stroke-width=".5" d="m51.5 1028.4c0 10 1 12-2 12h-17v-12z"/></g><g id="g4356" fill="#729fcf" stroke="#eeeeec" stroke-width="2.857" transform="matrix(.56104 0 0 -.55886 14.047 1583.6)"><g id="g4358" fill="#729fcf" stroke="#eeeeec" stroke-width="5.715" transform="matrix(0.5 0 0 0.5 20.237 506.39)"><ellipse id="ellipse4360" cx="15.714" cy="88.839" fill="#729fcf" stroke="#eeeeec" stroke-width="2.16" rx="5.714" ry="5.625" transform="matrix(2.625 0 0 2.6667 -17.723 791.04)"/></g></g><g id="g4262" fill="none" transform="matrix(.67438 0 0 .67438 -32.74 326.31)"><path id="path4170-6" stroke="#2e3436" stroke-width="4" d="m102 1009.1-6-6.0001-6 6.0001"/><path id="path4145" stroke="#729fcf" stroke-width="2" d="m101 1008.1-5-5.0001-5 5.0001"/></g><g id="g4477" fill="none" transform="matrix(.67438 0 0 -.67438 -32.74 1700.4)"><path id="path4479" stroke="#2e3436" stroke-width="4" d="m102 1009.1-6-6.0001-6 6.0001"/><path id="path4481" stroke="#729fcf" stroke-width="2" d="m101 1008.1-5-5.0001-5 5.0001"/></g><g id="g4493" fill="none" transform="matrix(0 .67438 -.67438 0 721.05 948.62)"><path id="path4495" stroke="#2e3436" stroke-width="4" d="m102 1009.1-6-6.0001-6 6.0001"/><path id="path4497" stroke="#729fcf" stroke-width="2" d="m101 1008.1-5-5.0001-5 5.0001"/></g><g id="g4499" fill="none" transform="matrix(0 .67438 .67438 0 -657.05 948.62)"><path id="path4501" stroke="#2e3436" stroke-width="4" d="m102 1009.1-6-6.0001-6 6.0001"/><path id="path4503" stroke="#729fcf" stroke-width="2" d="m101 1008.1-5-5.0001-5 5.0001"/></g></g><g id="g5846" fill="none" stroke="#2e3436" stroke-linecap="round" stroke-width="1.3" transform="translate(-.50298 -.65930)"><path id="path5814" stroke-linejoin="round" d="m19 1005.4 3-8 3 8"/><path id="path5816" d="m20 1003.4h4"/><path id="path5818" stroke-linejoin="round" d="m32 1005.4h-4v-8"/><g><path id="path5820" d="m33 997.36h6"/><path id="path5822" d="m36 997.36v8"/><path id="path5826" d="m40 1002.4h6"/><path id="path5828" d="m43 999.36v6"/></g></g></g></svg>