<svg xmlns="http://www.w3.org/2000/svg" id="svg4199" width="64" height="64" version="1.1" viewBox="0 0 64 64"><metadata id="metadata4204"/><g id="layer1" transform="translate(0 -988.36)"><g fill-rule="evenodd"><rect id="rect4151" width="58" height="56" x="3" y="992.36" fill="#eeeeec" color="#000" ry="10"/><g stroke="#2e3436"><path id="path4153" fill="#fff" stroke-width="1.385" d="m20.923 1033.6v-13.846c0-5.5385 2.7692-8.6538 11.077-8.6538 8.3077 0 11.077 3.1153 11.077 8.6538v13.846c0 5.5384-2.7692 12.115-11.077 12.115-8.3077 0-11.077-6.577-11.077-12.115z"/><path id="path4155" fill="#729fcf" stroke-width=".346" d="m21.615 1021.8c-0.096-6.9 1.017-10.1 10.385-10.1v10.038z"/><path id="path4157" fill="#729fcf" stroke-width=".346" d="m42.385 1021.8c0.096-6.9-1.017-10.1-10.385-10.1v10.038z"/></g></g><g stroke="#2e3436"><path id="path4159" fill="none" stroke-width="1.385" d="m32 1022.5v-11.423"/><path id="path4161" fill="none" stroke-width="1.385" d="m20.923 1022.5h22.154"/><rect id="rect4163" width="5.538" height="12.462" x="29.231" y="1016.2" fill="#fff" fill-rule="evenodd" stroke-linecap="round" stroke-width="1.108" color="#000" ry="2.423"/></g><g id="g5846" fill="none" stroke="#2e3436" stroke-linecap="round" stroke-width="1.3" transform="translate(-.50298 .34070)"><path id="path5814" stroke-linejoin="round" d="m19 1005.4 3-8 3 8"/><path id="path5816" d="m20 1003.4h4"/><path id="path5818" stroke-linejoin="round" d="m32 1005.4h-4v-8"/><g><path id="path5820" d="m33 997.36h6"/><path id="path5822" d="m36 997.36v8"/><path id="path5826" d="m40 1002.4h6"/><path id="path5828" d="m43 999.36v6"/></g></g></g></svg>