<svg xmlns="http://www.w3.org/2000/svg" xmlns:osb="http://www.openswatchbook.org/uri/2009/osb" xmlns:xlink="http://www.w3.org/1999/xlink" id="svg4199" width="64" height="64" version="1.1" viewBox="0 0 64 64"><defs id="defs4201"><radialGradient id="radialGradient4373" cx="33.81" cy="1026.8" r="11.356" gradientTransform="matrix(.90441 -.42666 .78339 1.6606 -802.48 -664.03)" gradientUnits="userSpaceOnUse" xlink:href="#linearGradient4365"/><linearGradient id="linearGradient4365"><stop id="stop4367" offset="0" stop-color="#8ae234"/><stop id="stop4369" offset="1" stop-color="#8ae234" stop-opacity="0"/></linearGradient></defs><metadata id="metadata4204"/><g id="layer1" transform="translate(0 -988.36)"><rect id="rect4140-2" width="56" height="56" x="4" y="992.36" fill="#eeeeec" fill-rule="evenodd" color="#000" ry="10"/><g id="g4676" transform="translate(1.2485 -1.2519)"><g id="g4383" transform="translate(-5.291 3.75)"><path id="path4317" fill="none" stroke="url(#radialGradient4373)" stroke-width="10" d="m23.562 1007.7s2.5537 8.4857 4.7478 12.29c2.5316 4.3896 9.5304 11.844 9.5304 11.844"/><g id="g4348" fill="#729fcf" transform="translate(49.333 10.148)"><g id="g4350" transform="translate(-43.493 1.3512)"><g id="g4352" fill="#729fcf" transform="matrix(0.5 0 0 0.5 20.237 506.39)"><ellipse id="ellipse4354" cx="15.714" cy="88.839" fill="#729fcf" rx="5.714" ry="5.625" transform="matrix(2.625 0 0 2.6667 -17.723 791.04)"/></g></g><g id="g4356" stroke="#eeeeec" stroke-width="2.857" transform="matrix(.56104 0 0 -.55886 -29.446 1592)"><g id="g4358" fill="#729fcf" stroke="#eeeeec" stroke-width="5.715" transform="matrix(0.5 0 0 0.5 20.237 506.39)"><ellipse id="ellipse4360" cx="15.714" cy="88.839" fill="#729fcf" stroke="#eeeeec" stroke-width="2.16" rx="5.714" ry="5.625" transform="matrix(2.625 0 0 2.6667 -17.723 791.04)"/></g></g></g></g><g id="g4393" fill="none" stroke="#2e3436" stroke-width="1.6" transform="translate(-2.1827 7.9275)"><path id="path4375" d="m13.593 1017.9s2.0583 5.1195 3.5166 7.4444c2.507 4 8.89 11.1 8.89 11.1"/><path id="path4381" d="m24 1029.4 2 7-7-3"/></g><g id="g4552" transform="translate(5.495 -8.7462)"><path id="path4554" fill="none" stroke="url(#radialGradient4373)" stroke-width="10" d="m23.562 1007.7s2.5537 8.4857 4.7478 12.29c2.5316 4.3896 9.5304 11.844 9.5304 11.844"/><g id="g4556" fill="#729fcf" transform="translate(49.333 10.148)"><g id="g4558" transform="translate(-43.493 1.3512)"><g id="g4560" fill="#729fcf" transform="matrix(0.5 0 0 0.5 20.237 506.39)"><ellipse id="ellipse4562" cx="15.714" cy="88.839" fill="#729fcf" rx="5.714" ry="5.625" transform="matrix(2.625 0 0 2.6667 -17.723 791.04)"/></g></g><g id="g4564" stroke="#eeeeec" stroke-width="2.857" transform="matrix(.56104 0 0 -.55886 -29.446 1592)"><g id="g4566" fill="#729fcf" stroke="#eeeeec" stroke-width="5.715" transform="matrix(0.5 0 0 0.5 20.237 506.39)"><ellipse id="ellipse4568" cx="15.714" cy="88.839" fill="#729fcf" stroke="#eeeeec" stroke-width="2.16" rx="5.714" ry="5.625" transform="matrix(2.625 0 0 2.6667 -17.723 791.04)"/></g></g></g></g></g></g></svg>