<svg xmlns="http://www.w3.org/2000/svg" id="svg4199" width="64" height="64" version="1.1" viewBox="0 0 64 64"><metadata id="metadata4204"/><g id="layer1" transform="translate(0 -988.36)"><rect id="rect4151-2" width="58" height="56" x="3" y="992.36" fill="#eeeeec" fill-rule="evenodd" color="#000" ry="10"/><g fill="#fff" fill-rule="evenodd" stroke="#2e3436"><path id="path4153-9" stroke-width="1.385" d="m20.923 1033.6v-13.846c0-5.5385 2.7692-8.6538 11.077-8.6538 8.3077 0 11.077 3.1153 11.077 8.6538v13.846c0 5.5384-2.7692 12.115-11.077 12.115-8.3077 0-11.077-6.577-11.077-12.115z"/><path id="path4155-1" stroke-width=".346" d="m21.615 1021.8c-0.096-6.9 1.017-10.1 10.385-10.1v10.038z"/><path id="path4157-2" stroke-width=".346" d="m42.385 1021.8c0.096-6.9-1.017-10.1-10.385-10.1v10.038z"/></g><g stroke="#2e3436"><path id="path4159-7" fill="none" stroke-width="1.385" d="m32 1022.5v-11.423"/><path id="path4161-0" fill="none" stroke-width="1.385" d="m20.923 1022.5h22.154"/><rect id="rect4163-9" width="5.538" height="12.462" x="29.231" y="1016.2" fill="#fff" fill-rule="evenodd" stroke-linecap="round" stroke-width="1.108" color="#000" ry="2.423"/></g><g id="g5846" fill="none" stroke="#2e3436" stroke-linecap="round" stroke-width="1.3" transform="translate(-.50298 .34068)"><path id="path5814" stroke-linejoin="round" d="m19 1005.4 3-8 3 8"/><path id="path5816" d="m20 1003.4h4"/><path id="path5818" stroke-linejoin="round" d="m32 1005.4h-4v-8"/><g><path id="path5820" d="m33 997.36h6"/><path id="path5822" d="m36 997.36v8"/><path id="path5826" d="m40 1002.4h6"/><path id="path5828" d="m43 999.36v6"/></g></g><g id="g4278" transform="matrix(.68275 0 0 .68275 -33.544 331.71)"><g id="g4262" fill="none" transform="translate(5e-6,-7.78576)"><path id="path4170-6" stroke="#2e3436" stroke-width="4" d="m102 1009.1-6-6.0001-6 6.0001"/><path id="path4145" stroke="#729fcf" stroke-width="2" d="m101 1008.1-5-5.0001-5 5.0001"/></g><g id="g4280" transform="translate(5e-6,7.785796)"><g id="g4260" transform="translate(64 7.1285)"><path id="path4214" fill="none" stroke="#2e3436" stroke-width="4" d="m38 1024.4-6 6-6-6"/></g><path id="path4220" fill="none" stroke="#729fcf" stroke-width="2" d="m101 1032.5-5 5-5-5"/></g><g id="g4271" fill="none"><path id="path4215" stroke="#2e3436" stroke-width="4" d="m107.21 1026.4 6-6-6-6"/><path id="path4217" stroke="#729fcf" stroke-width="2" d="m108.21 1025.4 5-5-5-5"/></g><g id="g4276" fill="none"><path id="path4221" stroke="#2e3436" stroke-width="4" d="m38 1024.4-6 6-6-6" transform="matrix(0 1 -1 0 1109.2 988.36)"/><path id="path4223" stroke="#729fcf" stroke-width="2" d="m83.872 1025.4-5-5 5-5"/></g></g></g></svg>