<svg xmlns="http://www.w3.org/2000/svg" id="svg2" width="64" height="64" version="1.1" viewBox="0 0 64 64"><metadata id="metadata7"/><g id="layer1-7" fill="none" stroke="#2e3436" stroke-width="6" transform="translate(0 -988.86)"><path id="path4144" d="m16 1028.4v-20c0-8 4-12 16-12s16 4 16 12v20c0 8-4 17-16 17s-16-9-16-17z"/><path id="path4209" d="m32 1004.4v12"/></g><g id="Ortho_0_-1" stroke="#2e3436" stroke-linecap="round" stroke-linejoin="round" stroke-width="5.752" transform="matrix(-1.0445 0 0 -1.0419 30.547 32.04)"><g id="g4192" fill="none" stroke="#2e3436" stroke-linecap="round" stroke-linejoin="round" stroke-width="5.752" transform="scale(1,-1)"><path id="path4194" stroke="#2e3436" stroke-linecap="round" stroke-linejoin="round" stroke-width="5.752" d="m13.917 7.4999c-0.454-2.6666-1.713-5.2777-3.917-7.4999 2.2038-2.2224 3.4631-4.8335 3.9168-7.5001"/></g></g><g id="g4153" stroke="#2e3436" stroke-linecap="round" stroke-linejoin="round" stroke-width="5.752" transform="matrix(1.0445 0 0 -1.0419 33.453 32.04)"><g id="g4155" fill="none" stroke="#2e3436" stroke-linecap="round" stroke-linejoin="round" stroke-width="5.752" transform="scale(1,-1)"><path id="path4157" stroke="#2e3436" stroke-linecap="round" stroke-linejoin="round" stroke-width="5.752" d="m13.917 7.4999c-0.454-2.6666-1.713-5.2777-3.917-7.4999 2.2038-2.2224 3.4631-4.8335 3.9168-7.5001"/></g></g></svg>