<svg xmlns="http://www.w3.org/2000/svg" xmlns:svg="http://www.w3.org/2000/svg" xmlns:xlink="http://www.w3.org/1999/xlink" id="svg2816" width="64" height="64" version="1.1"><defs id="defs2818"><linearGradient id="linearGradient3902"><stop id="stop3904" offset="0" stop-color="#ef2929" stop-opacity="1"/><stop id="stop3906" offset="1" stop-color="#a40000" stop-opacity="1"/></linearGradient><linearGradient id="linearGradient3602"><stop id="stop3604" offset="0" stop-color="#ff2600" stop-opacity="1"/><stop id="stop3606" offset="1" stop-color="#ff5f00" stop-opacity="1"/></linearGradient><linearGradient id="linearGradient3608-5" x1="3.909" x2="24.818" y1="14.364" y2="14.364" gradientUnits="userSpaceOnUse" xlink:href="#linearGradient3602-7"/><linearGradient id="linearGradient3602-7"><stop id="stop3604-1" offset="0" stop-color="#c51900" stop-opacity="1"/><stop id="stop3606-3" offset="1" stop-color="#ff5f00" stop-opacity="1"/></linearGradient><linearGradient id="linearGradient3608-1" x1="3.909" x2="24.818" y1="14.364" y2="14.364" gradientUnits="userSpaceOnUse" xlink:href="#linearGradient3602-5"/><linearGradient id="linearGradient3602-5"><stop id="stop3604-9" offset="0" stop-color="#c51900" stop-opacity="1"/><stop id="stop3606-9" offset="1" stop-color="#ff5f00" stop-opacity="1"/></linearGradient><linearGradient id="linearGradient3686" x1="3.909" x2="24.818" y1="14.364" y2="14.364" gradientUnits="userSpaceOnUse" xlink:href="#linearGradient3602-5"/><linearGradient id="linearGradient3608-8" x1="3.909" x2="24.818" y1="14.364" y2="14.364" gradientUnits="userSpaceOnUse" xlink:href="#linearGradient3602-58"/><linearGradient id="linearGradient3602-58"><stop id="stop3604-2" offset="0" stop-color="#c51900" stop-opacity="1"/><stop id="stop3606-2" offset="1" stop-color="#ff5f00" stop-opacity="1"/></linearGradient><linearGradient id="linearGradient3726" x1="3.909" x2="24.818" y1="14.364" y2="14.364" gradientUnits="userSpaceOnUse" xlink:href="#linearGradient3602-58"/><linearGradient id="linearGradient3608" x1="3.909" x2="24.818" y1="14.364" y2="14.364" gradientUnits="userSpaceOnUse" xlink:href="#linearGradient3602-1"/><linearGradient id="linearGradient3602-1"><stop id="stop3604-22" offset="0" stop-color="#ff2600" stop-opacity="1"/><stop id="stop3606-1" offset="1" stop-color="#ff5f00" stop-opacity="1"/></linearGradient><linearGradient id="linearGradient8355" x1="3.909" x2="24.818" y1="14.364" y2="14.364" gradientUnits="userSpaceOnUse" xlink:href="#linearGradient3602-1"/><linearGradient id="linearGradient3602-1-9"><stop id="stop3604-22-5" offset="0" stop-color="#ff2600" stop-opacity="1"/><stop id="stop3606-1-4" offset="1" stop-color="#ff5f00" stop-opacity="1"/></linearGradient><linearGradient id="linearGradient8395" x1="3.909" x2="24.818" y1="14.364" y2="14.364" gradientUnits="userSpaceOnUse" xlink:href="#linearGradient3602-1-9"/><linearGradient id="linearGradient3602-1-2"><stop id="stop3604-22-55" offset="0" stop-color="#ff2600" stop-opacity="1"/><stop id="stop3606-1-8" offset="1" stop-color="#ff5f00" stop-opacity="1"/></linearGradient><filter id="filter8655"><feGaussianBlur id="feGaussianBlur8657" stdDeviation="1.113"/></filter><linearGradient id="linearGradient3908" x1="35.6" x2="28.4" y1="60.8" y2="2" gradientUnits="userSpaceOnUse" xlink:href="#linearGradient3902"/></defs><metadata id="metadata2821"/><g id="layer1"><path id="path3060" fill="none" stroke="#280000" stroke-dasharray="none" stroke-dashoffset="10.8" stroke-linecap="round" stroke-linejoin="round" stroke-miterlimit="4" stroke-opacity="1" stroke-width="9.231" d="M 62,32 A 30,30 0 1 1 2,32 30,30 0 1 1 62,32 z" transform="matrix(0.86666667,0,0,0.86666667,4.266667,4.2666666)"/><path id="path3060-3" fill="none" stroke="#c00" stroke-dasharray="none" stroke-dashoffset="10.8" stroke-linecap="round" stroke-linejoin="round" stroke-miterlimit="4" stroke-opacity="1" stroke-width="4.615" d="M 62,32 A 30,30 0 1 1 2,32 30,30 0 1 1 62,32 z" transform="matrix(0.86666667,0,0,0.86666667,4.266667,4.2666666)"/><path id="path3060-3-7" fill="none" stroke="#ef2929" stroke-dasharray="none" stroke-dashoffset="10.8" stroke-linecap="round" stroke-linejoin="round" stroke-miterlimit="4" stroke-opacity="1" stroke-width="2.222" d="M 62,32 A 30,30 0 1 1 2,32 30,30 0 1 1 62,32 z" transform="matrix(0.9,0,0,0.9,3.2,3.1999999)"/><path id="path3060-0" fill="none" stroke="#280000" stroke-dasharray="none" stroke-dashoffset="10.8" stroke-linecap="round" stroke-linejoin="round" stroke-miterlimit="4" stroke-opacity="1" stroke-width="20" d="M 62,32 A 30,30 0 1 1 2,32 30,30 0 1 1 62,32 z" transform="matrix(0.40000002,0,0,0.40000001,19.2,19.2)"/><path id="path3060-3-76" fill="none" stroke="#c00" stroke-dasharray="none" stroke-dashoffset="10.8" stroke-linecap="round" stroke-linejoin="round" stroke-miterlimit="4" stroke-opacity="1" stroke-width="10" d="M 62,32 A 30,30 0 1 1 2,32 30,30 0 1 1 62,32 z" transform="matrix(0.40000002,0,0,0.4,19.2,19.2)"/><path id="path3060-3-7-0" fill="none" stroke="#ef2929" stroke-dasharray="none" stroke-dashoffset="10.8" stroke-linecap="round" stroke-linejoin="round" stroke-miterlimit="4" stroke-opacity="1" stroke-width="4.615" d="M 62,32 A 30,30 0 1 1 2,32 30,30 0 1 1 62,32 z" transform="matrix(0.43333334,0,0,0.43333333,18.133333,18.133334)"/></g></svg>