<svg xmlns="http://www.w3.org/2000/svg" xmlns:svg="http://www.w3.org/2000/svg" xmlns:xlink="http://www.w3.org/1999/xlink" id="svg2816" width="64" height="64" version="1.1"><defs id="defs2818"><linearGradient id="linearGradient3602"><stop id="stop3604" offset="0" stop-color="#ff2600" stop-opacity="1"/><stop id="stop3606" offset="1" stop-color="#ff5f00" stop-opacity="1"/></linearGradient><linearGradient id="linearGradient3608-5" x1="3.909" x2="24.818" y1="14.364" y2="14.364" gradientUnits="userSpaceOnUse" xlink:href="#linearGradient3602-7"/><linearGradient id="linearGradient3602-7"><stop id="stop3604-1" offset="0" stop-color="#c51900" stop-opacity="1"/><stop id="stop3606-3" offset="1" stop-color="#ff5f00" stop-opacity="1"/></linearGradient><linearGradient id="linearGradient3608-1" x1="3.909" x2="24.818" y1="14.364" y2="14.364" gradientUnits="userSpaceOnUse" xlink:href="#linearGradient3602-5"/><linearGradient id="linearGradient3602-5"><stop id="stop3604-9" offset="0" stop-color="#c51900" stop-opacity="1"/><stop id="stop3606-9" offset="1" stop-color="#ff5f00" stop-opacity="1"/></linearGradient><linearGradient id="linearGradient3686" x1="3.909" x2="24.818" y1="14.364" y2="14.364" gradientUnits="userSpaceOnUse" xlink:href="#linearGradient3602-5"/><linearGradient id="linearGradient3608-8" x1="3.909" x2="24.818" y1="14.364" y2="14.364" gradientUnits="userSpaceOnUse" xlink:href="#linearGradient3602-58"/><linearGradient id="linearGradient3602-58"><stop id="stop3604-2" offset="0" stop-color="#c51900" stop-opacity="1"/><stop id="stop3606-2" offset="1" stop-color="#ff5f00" stop-opacity="1"/></linearGradient><linearGradient id="linearGradient3726" x1="3.909" x2="24.818" y1="14.364" y2="14.364" gradientUnits="userSpaceOnUse" xlink:href="#linearGradient3602-58"/><filter id="filter3702"><feGaussianBlur id="feGaussianBlur3704" stdDeviation=".945"/></filter></defs><metadata id="metadata2821"/><g id="layer1"><g id="g3894" transform="matrix(0.70710678,-0.70710678,0.70710678,0.70710678,-16.79899,35.544156)"><path id="path3034" fill="#3465a4" stroke="#0b1521" stroke-linecap="butt" stroke-linejoin="round" stroke-opacity="1" stroke-width="2" d="m 17,27 0,-8 -21,13 21,13 0,-8 40,0 0,8 21,-13 -21,-13 0,8 z"/><path id="path3034-3" fill="none" stroke="#729fcf" stroke-linecap="butt" stroke-linejoin="miter" stroke-opacity="1" stroke-width="2" d="M 15,29 15,22.6 -0.2,32 15,41.4 15,35 59,35 59,41.4 74.2,32 59,22.6 59,29 z"/></g></g></svg>