<svg xmlns="http://www.w3.org/2000/svg" xmlns:svg="http://www.w3.org/2000/svg" xmlns:xlink="http://www.w3.org/1999/xlink" id="svg2816" width="64" height="64" version="1.1"><defs id="defs2818"><linearGradient id="linearGradient3602"><stop id="stop3604" offset="0" stop-color="#ff2600" stop-opacity="1"/><stop id="stop3606" offset="1" stop-color="#ff5f00" stop-opacity="1"/></linearGradient><linearGradient id="linearGradient3608" x1="3.909" x2="24.818" y1="14.364" y2="14.364" gradientUnits="userSpaceOnUse" xlink:href="#linearGradient3602"/><linearGradient id="linearGradient3608-5" x1="3.909" x2="24.818" y1="14.364" y2="14.364" gradientUnits="userSpaceOnUse" xlink:href="#linearGradient3602-7"/><linearGradient id="linearGradient3602-7"><stop id="stop3604-1" offset="0" stop-color="#c51900" stop-opacity="1"/><stop id="stop3606-3" offset="1" stop-color="#ff5f00" stop-opacity="1"/></linearGradient><linearGradient id="linearGradient3608-1" x1="3.909" x2="24.818" y1="14.364" y2="14.364" gradientUnits="userSpaceOnUse" xlink:href="#linearGradient3602-5"/><linearGradient id="linearGradient3602-5"><stop id="stop3604-9" offset="0" stop-color="#c51900" stop-opacity="1"/><stop id="stop3606-9" offset="1" stop-color="#ff5f00" stop-opacity="1"/></linearGradient><linearGradient id="linearGradient3686" x1="3.909" x2="24.818" y1="14.364" y2="14.364" gradientUnits="userSpaceOnUse" xlink:href="#linearGradient3602-5"/><linearGradient id="linearGradient3608-8" x1="3.909" x2="24.818" y1="14.364" y2="14.364" gradientUnits="userSpaceOnUse" xlink:href="#linearGradient3602-58"/><linearGradient id="linearGradient3602-58"><stop id="stop3604-2" offset="0" stop-color="#c51900" stop-opacity="1"/><stop id="stop3606-2" offset="1" stop-color="#ff5f00" stop-opacity="1"/></linearGradient><linearGradient id="linearGradient3726" x1="3.909" x2="24.818" y1="14.364" y2="14.364" gradientUnits="userSpaceOnUse" xlink:href="#linearGradient3602-58"/><linearGradient id="linearGradient3608-54" x1="3.909" x2="24.818" y1="14.364" y2="14.364" gradientUnits="userSpaceOnUse" xlink:href="#linearGradient3602-59"/><linearGradient id="linearGradient3602-59"><stop id="stop3604-3" offset="0" stop-color="#ff2600" stop-opacity="1"/><stop id="stop3606-37" offset="1" stop-color="#ff5f00" stop-opacity="1"/></linearGradient><filter id="filter6327"><feGaussianBlur id="feGaussianBlur6329" stdDeviation="1.014"/></filter></defs><metadata id="metadata2821"/><g id="layer1"><g id="g3894" transform="matrix(0.70710678,-0.70710678,0.70710678,0.70710678,-16.79899,35.544156)"><path id="path3034" fill="#c00" stroke="#280000" stroke-linecap="butt" stroke-linejoin="round" stroke-opacity="1" stroke-width="2" d="m 17,27 0,-8 -21,13 21,13 0,-8 40,0 0,8 21,-13 -21,-13 0,8 z"/><path id="path3034-3" fill="none" stroke="#ef2929" stroke-linecap="butt" stroke-linejoin="miter" stroke-opacity="1" stroke-width="2" d="M 15,29 15,22.6 -0.2,32 15,41.4 15,35 59,35 59,41.4 74.2,32 59,22.6 59,29 z"/></g><g id="g3813" transform="translate(-33.999999,1.9999999)"><path id="path3025" fill="#c00" fill-opacity="1" stroke="#280000" stroke-dasharray="none" stroke-linecap="round" stroke-linejoin="miter" stroke-miterlimit="4.5" stroke-opacity="1" stroke-width="2" d="m 43,31 c 0,6.627417 -5.372583,12 -12,12 -6.627417,0 -12,-5.372583 -12,-12 0,-6.627417 5.372583,-12 12,-12 6.627417,0 12,5.372583 12,12 z" transform="translate(35,-1)"/><path id="path3025-3" fill="none" stroke="#ef2929" stroke-dasharray="none" stroke-linecap="round" stroke-linejoin="miter" stroke-miterlimit="4.5" stroke-opacity="1" stroke-width="2.4" d="m 43,31 c 0,6.627417 -5.372583,12 -12,12 -6.627417,0 -12,-5.372583 -12,-12 0,-6.627417 5.372583,-12 12,-12 6.627417,0 12,5.372583 12,12 z" transform="matrix(0.83333337,0,0,0.83333333,40.166665,4.1666669)"/></g></g></svg>