<svg xmlns="http://www.w3.org/2000/svg" xmlns:svg="http://www.w3.org/2000/svg" xmlns:xlink="http://www.w3.org/1999/xlink" id="svg2816" width="64" height="64" version="1.1"><defs id="defs2818"><linearGradient id="linearGradient3602"><stop id="stop3604" offset="0" stop-color="#ff2600" stop-opacity="1"/><stop id="stop3606" offset="1" stop-color="#ff5f00" stop-opacity="1"/></linearGradient><linearGradient id="linearGradient3608-5" x1="3.909" x2="24.818" y1="14.364" y2="14.364" gradientUnits="userSpaceOnUse" xlink:href="#linearGradient3602-7"/><linearGradient id="linearGradient3602-7"><stop id="stop3604-1" offset="0" stop-color="#c51900" stop-opacity="1"/><stop id="stop3606-3" offset="1" stop-color="#ff5f00" stop-opacity="1"/></linearGradient><linearGradient id="linearGradient3608-1" x1="3.909" x2="24.818" y1="14.364" y2="14.364" gradientUnits="userSpaceOnUse" xlink:href="#linearGradient3602-5"/><linearGradient id="linearGradient3602-5"><stop id="stop3604-9" offset="0" stop-color="#c51900" stop-opacity="1"/><stop id="stop3606-9" offset="1" stop-color="#ff5f00" stop-opacity="1"/></linearGradient><linearGradient id="linearGradient3686" x1="3.909" x2="24.818" y1="14.364" y2="14.364" gradientUnits="userSpaceOnUse" xlink:href="#linearGradient3602-5"/><linearGradient id="linearGradient3608-8" x1="3.909" x2="24.818" y1="14.364" y2="14.364" gradientUnits="userSpaceOnUse" xlink:href="#linearGradient3602-58"/><linearGradient id="linearGradient3602-58"><stop id="stop3604-2" offset="0" stop-color="#c51900" stop-opacity="1"/><stop id="stop3606-2" offset="1" stop-color="#ff5f00" stop-opacity="1"/></linearGradient><linearGradient id="linearGradient3726" x1="3.909" x2="24.818" y1="14.364" y2="14.364" gradientUnits="userSpaceOnUse" xlink:href="#linearGradient3602-58"/><linearGradient id="linearGradient3608" x1="3.909" x2="24.818" y1="14.364" y2="14.364" gradientUnits="userSpaceOnUse" xlink:href="#linearGradient3602-1"/><linearGradient id="linearGradient3602-1"><stop id="stop3604-22" offset="0" stop-color="#ff2600" stop-opacity="1"/><stop id="stop3606-1" offset="1" stop-color="#ff5f00" stop-opacity="1"/></linearGradient><linearGradient id="linearGradient8355" x1="3.909" x2="24.818" y1="14.364" y2="14.364" gradientUnits="userSpaceOnUse" xlink:href="#linearGradient3602-1"/><linearGradient id="linearGradient3602-1-9"><stop id="stop3604-22-5" offset="0" stop-color="#ff2600" stop-opacity="1"/><stop id="stop3606-1-4" offset="1" stop-color="#ff5f00" stop-opacity="1"/></linearGradient><linearGradient id="linearGradient8395" x1="3.909" x2="24.818" y1="14.364" y2="14.364" gradientUnits="userSpaceOnUse" xlink:href="#linearGradient3602-1-9"/><linearGradient id="linearGradient8355-2" x1="3.909" x2="24.818" y1="14.364" y2="14.364" gradientUnits="userSpaceOnUse" xlink:href="#linearGradient3602-1-2"/><linearGradient id="linearGradient3602-1-2"><stop id="stop3604-22-55" offset="0" stop-color="#ff2600" stop-opacity="1"/><stop id="stop3606-1-8" offset="1" stop-color="#ff5f00" stop-opacity="1"/></linearGradient><filter id="filter8482"><feGaussianBlur id="feGaussianBlur8484" stdDeviation="1.013"/></filter></defs><metadata id="metadata2821"/><g id="layer1"><path id="path3054" fill="none" stroke="#280000" stroke-dasharray="none" stroke-linecap="round" stroke-linejoin="miter" stroke-miterlimit="4.5" stroke-opacity="1" stroke-width="8" d="M 5.0607299,52.033924 A 39,39 0 0 1 52.983396,5.2994456" transform="translate(5.0166037,4.0000002)"/><path id="path3054-3" fill="none" stroke="#c00" stroke-dasharray="none" stroke-linecap="round" stroke-linejoin="miter" stroke-miterlimit="4.5" stroke-opacity="1" stroke-width="4" d="M 5.0607299,52.033924 A 39,39 0 0 1 52.983396,5.2994456" transform="translate(5.0166037,4)"/><path id="path3054-3-6" fill="none" stroke="#ef2929" stroke-dasharray="none" stroke-linecap="round" stroke-linejoin="miter" stroke-miterlimit="4.5" stroke-opacity="1" stroke-width="1.96" d="M 5.0607299,52.033924 A 39,39 0 0 1 52.983396,5.2994456" transform="matrix(1.0204114,0,0,1.0201124,3.9351394,2.9195508)"/><g id="g3813" transform="translate(-47,-11)"><path id="path3025" fill="#c00" fill-opacity="1" stroke="#280000" stroke-dasharray="none" stroke-linecap="round" stroke-linejoin="miter" stroke-miterlimit="4.5" stroke-opacity="1" stroke-width="2" d="m 43,31 a 12,12 0 1 1 -24,0 12,12 0 1 1 24,0 z" transform="translate(35,-1)"/><path id="path3025-3" fill="none" stroke="#ef2929" stroke-dasharray="none" stroke-linecap="round" stroke-linejoin="miter" stroke-miterlimit="4.5" stroke-opacity="1" stroke-width="2.4" d="m 43,31 a 12,12 0 1 1 -24,0 12,12 0 1 1 24,0 z" transform="matrix(0.83333337,0,0,0.83333333,40.166665,4.1666669)"/></g></g></svg>