<svg xmlns="http://www.w3.org/2000/svg" xmlns:svg="http://www.w3.org/2000/svg" xmlns:xlink="http://www.w3.org/1999/xlink" id="svg2816" width="64" height="64" version="1.1"><defs id="defs2818"><linearGradient id="linearGradient3602"><stop id="stop3604" offset="0" stop-color="#ff2600" stop-opacity="1"/><stop id="stop3606" offset="1" stop-color="#ff5f00" stop-opacity="1"/></linearGradient><linearGradient id="linearGradient3608" x1="3.909" x2="24.818" y1="14.364" y2="14.364" gradientUnits="userSpaceOnUse" xlink:href="#linearGradient3602"/><linearGradient id="linearGradient3608-5" x1="3.909" x2="24.818" y1="14.364" y2="14.364" gradientUnits="userSpaceOnUse" xlink:href="#linearGradient3602-7"/><linearGradient id="linearGradient3602-7"><stop id="stop3604-1" offset="0" stop-color="#c51900" stop-opacity="1"/><stop id="stop3606-3" offset="1" stop-color="#ff5f00" stop-opacity="1"/></linearGradient><linearGradient id="linearGradient3608-1" x1="3.909" x2="24.818" y1="14.364" y2="14.364" gradientUnits="userSpaceOnUse" xlink:href="#linearGradient3602-5"/><linearGradient id="linearGradient3602-5"><stop id="stop3604-9" offset="0" stop-color="#c51900" stop-opacity="1"/><stop id="stop3606-9" offset="1" stop-color="#ff5f00" stop-opacity="1"/></linearGradient><linearGradient id="linearGradient3686" x1="3.909" x2="24.818" y1="14.364" y2="14.364" gradientUnits="userSpaceOnUse" xlink:href="#linearGradient3602-5"/><linearGradient id="linearGradient3608-8" x1="3.909" x2="24.818" y1="14.364" y2="14.364" gradientUnits="userSpaceOnUse" xlink:href="#linearGradient3602-58"/><linearGradient id="linearGradient3602-58"><stop id="stop3604-2" offset="0" stop-color="#c51900" stop-opacity="1"/><stop id="stop3606-2" offset="1" stop-color="#ff5f00" stop-opacity="1"/></linearGradient><linearGradient id="linearGradient3726" x1="3.909" x2="24.818" y1="14.364" y2="14.364" gradientUnits="userSpaceOnUse" xlink:href="#linearGradient3602-58"/></defs><metadata id="metadata2821"/><g id="layer1"><path id="path3018" fill="#c00" stroke="#280000" stroke-linecap="butt" stroke-linejoin="round" stroke-opacity="1" stroke-width="2" d="m 15,61 0,-8 12,0 0,-42 -12,0 0,-8 32,0 0,8 -12,0 0,42 12,0 0,8 z"/><path id="path3018-3" fill="none" stroke="#ef2929" stroke-linecap="butt" stroke-linejoin="miter" stroke-opacity="1" stroke-width="2" d="m 17,59 0,-4 12,0 0,-46 -12,0 0,-4 28,0 0,4 -12,0 0,46 12,0 0,4 z"/></g></svg>