<svg xmlns="http://www.w3.org/2000/svg" xmlns:svg="http://www.w3.org/2000/svg" xmlns:xlink="http://www.w3.org/1999/xlink" id="svg2816" width="64" height="64" version="1.1"><defs id="defs2818"><linearGradient id="linearGradient3602"><stop id="stop3604" offset="0" stop-color="#ff2600" stop-opacity="1"/><stop id="stop3606" offset="1" stop-color="#ff5f00" stop-opacity="1"/></linearGradient><linearGradient id="linearGradient3608" x1="3.909" x2="24.818" y1="14.364" y2="14.364" gradientUnits="userSpaceOnUse" xlink:href="#linearGradient3602"/><linearGradient id="linearGradient3608-5" x1="3.909" x2="24.818" y1="14.364" y2="14.364" gradientUnits="userSpaceOnUse" xlink:href="#linearGradient3602-7"/><linearGradient id="linearGradient3602-7"><stop id="stop3604-1" offset="0" stop-color="#c51900" stop-opacity="1"/><stop id="stop3606-3" offset="1" stop-color="#ff5f00" stop-opacity="1"/></linearGradient><linearGradient id="linearGradient3608-1" x1="3.909" x2="24.818" y1="14.364" y2="14.364" gradientUnits="userSpaceOnUse" xlink:href="#linearGradient3602-5"/><linearGradient id="linearGradient3602-5"><stop id="stop3604-9" offset="0" stop-color="#c51900" stop-opacity="1"/><stop id="stop3606-9" offset="1" stop-color="#ff5f00" stop-opacity="1"/></linearGradient><linearGradient id="linearGradient3686" x1="3.909" x2="24.818" y1="14.364" y2="14.364" gradientUnits="userSpaceOnUse" xlink:href="#linearGradient3602-5"/><linearGradient id="linearGradient3608-8" x1="3.909" x2="24.818" y1="14.364" y2="14.364" gradientUnits="userSpaceOnUse" xlink:href="#linearGradient3602-58"/><linearGradient id="linearGradient3602-58"><stop id="stop3604-2" offset="0" stop-color="#c51900" stop-opacity="1"/><stop id="stop3606-2" offset="1" stop-color="#ff5f00" stop-opacity="1"/></linearGradient><linearGradient id="linearGradient3726" x1="3.909" x2="24.818" y1="14.364" y2="14.364" gradientUnits="userSpaceOnUse" xlink:href="#linearGradient3602-58"/><linearGradient id="linearGradient3608-88" x1="3.909" x2="24.818" y1="14.364" y2="14.364" gradientUnits="userSpaceOnUse" xlink:href="#linearGradient3602-6"/><linearGradient id="linearGradient3602-6"><stop id="stop3604-0" offset="0" stop-color="#ff2600" stop-opacity="1"/><stop id="stop3606-4" offset="1" stop-color="#ff5f00" stop-opacity="1"/></linearGradient><linearGradient id="linearGradient5061" x1="3.909" x2="24.818" y1="14.364" y2="14.364" gradientUnits="userSpaceOnUse" xlink:href="#linearGradient3602-6"/><linearGradient id="linearGradient5061-2" x1="3.909" x2="24.818" y1="14.364" y2="14.364" gradientUnits="userSpaceOnUse" xlink:href="#linearGradient3602-6-6"/><linearGradient id="linearGradient3602-6-6"><stop id="stop3604-0-4" offset="0" stop-color="#ff2600" stop-opacity="1"/><stop id="stop3606-4-7" offset="1" stop-color="#ff5f00" stop-opacity="1"/></linearGradient></defs><metadata id="metadata2821"/><g id="layer1"><g id="g3813" transform="matrix(0.76131688,0,0,0.75952158,-18.203518,9.2360918)"><path id="path3025" fill="#ef2929" fill-opacity="1" stroke="#280000" stroke-dasharray="none" stroke-linecap="round" stroke-linejoin="miter" stroke-miterlimit="4.5" stroke-opacity="1" stroke-width="2.63" d="m 43,31 c 0,6.627417 -5.372583,12 -12,12 -6.627417,0 -12,-5.372583 -12,-12 0,-6.627417 5.372583,-12 12,-12 6.627417,0 12,5.372583 12,12 z" transform="translate(35,-1)"/><path id="path3025-3" fill="#c00" stroke="#ef2929" stroke-dasharray="none" stroke-linecap="round" stroke-linejoin="miter" stroke-miterlimit="4.5" stroke-opacity="1" stroke-width="3.429" d="m 43,31 a 12,12 0 1 1 -24,0 12,12 0 1 1 24,0 z" transform="matrix(0.76621621,0,0,0.76802732,42.190296,6.1625307)"/></g></g></svg>