<svg xmlns="http://www.w3.org/2000/svg" xmlns:svg="http://www.w3.org/2000/svg" xmlns:xlink="http://www.w3.org/1999/xlink" id="svg2816" width="64" height="64" version="1.1"><defs id="defs2818"><linearGradient id="linearGradient3602"><stop id="stop3604" offset="0" stop-color="#ff2600" stop-opacity="1"/><stop id="stop3606" offset="1" stop-color="#ff5f00" stop-opacity="1"/></linearGradient><linearGradient id="linearGradient3608-5" x1="3.909" x2="24.818" y1="14.364" y2="14.364" gradientUnits="userSpaceOnUse" xlink:href="#linearGradient3602-7"/><linearGradient id="linearGradient3602-7"><stop id="stop3604-1" offset="0" stop-color="#c51900" stop-opacity="1"/><stop id="stop3606-3" offset="1" stop-color="#ff5f00" stop-opacity="1"/></linearGradient><linearGradient id="linearGradient3608-1" x1="3.909" x2="24.818" y1="14.364" y2="14.364" gradientUnits="userSpaceOnUse" xlink:href="#linearGradient3602-5"/><linearGradient id="linearGradient3602-5"><stop id="stop3604-9" offset="0" stop-color="#c51900" stop-opacity="1"/><stop id="stop3606-9" offset="1" stop-color="#ff5f00" stop-opacity="1"/></linearGradient><linearGradient id="linearGradient3686" x1="3.909" x2="24.818" y1="14.364" y2="14.364" gradientUnits="userSpaceOnUse" xlink:href="#linearGradient3602-5"/><linearGradient id="linearGradient3608-8" x1="3.909" x2="24.818" y1="14.364" y2="14.364" gradientUnits="userSpaceOnUse" xlink:href="#linearGradient3602-58"/><linearGradient id="linearGradient3602-58"><stop id="stop3604-2" offset="0" stop-color="#c51900" stop-opacity="1"/><stop id="stop3606-2" offset="1" stop-color="#ff5f00" stop-opacity="1"/></linearGradient><linearGradient id="linearGradient3726" x1="3.909" x2="24.818" y1="14.364" y2="14.364" gradientUnits="userSpaceOnUse" xlink:href="#linearGradient3602-58"/><filter id="filter3656"><feGaussianBlur id="feGaussianBlur3658" stdDeviation="1.091"/></filter></defs><metadata id="metadata2821"/><g id="layer1"><g id="g3063" transform="translate(0.99999935,-1)"><path id="path3025" fill="none" stroke="#280000" stroke-dasharray="none" stroke-linecap="round" stroke-linejoin="miter" stroke-miterlimit="4.5" stroke-opacity="1" stroke-width="10" d="M 11.000001,18 C 29.225397,18 44,32.774603 44,51" transform="translate(-4,6)"/><path id="path3025-3" fill="none" stroke="#ef2929" stroke-dasharray="none" stroke-linecap="round" stroke-linejoin="miter" stroke-miterlimit="4.5" stroke-opacity="1" stroke-width="6" d="M 11.000001,18 C 29.225397,18 44,32.774603 44,51" transform="translate(-4,6)"/><path id="path3025-3-6" fill="none" stroke="#c00" stroke-dasharray="none" stroke-linecap="round" stroke-linejoin="miter" stroke-miterlimit="4.5" stroke-opacity="1" stroke-width="2" d="M 11.000001,18 C 29.225397,18 44,32.774603 44,51" transform="translate(-4,6)"/></g><g id="g3894" transform="matrix(0,1,-1,0,79,8)"><path id="path3034" fill="#c00" stroke="#280000" stroke-linecap="butt" stroke-linejoin="round" stroke-opacity="1" stroke-width="2" d="m 15,27 0,-8 -20,13 20,13 0,-8 38,0 c 0,2.2e-5 0,0 0,0 l 0,-10 z"/><path id="path3034-3" fill="none" stroke="#ef2929" stroke-linecap="butt" stroke-linejoin="miter" stroke-opacity="1" stroke-width="2" d="M 13,29 13,22.6 -1.2,32 13,41.4 13,35 l 38,0 0,-6 0,0 z"/></g></g></svg>