<svg xmlns="http://www.w3.org/2000/svg" xmlns:svg="http://www.w3.org/2000/svg" xmlns:xlink="http://www.w3.org/1999/xlink" id="svg2816" width="64" height="64" version="1.1"><defs id="defs2818"><linearGradient id="linearGradient3602"><stop id="stop3604" offset="0" stop-color="#ff2600" stop-opacity="1"/><stop id="stop3606" offset="1" stop-color="#ff5f00" stop-opacity="1"/></linearGradient><linearGradient id="linearGradient3608-5" x1="3.909" x2="24.818" y1="14.364" y2="14.364" gradientUnits="userSpaceOnUse" xlink:href="#linearGradient3602-7"/><linearGradient id="linearGradient3602-7"><stop id="stop3604-1" offset="0" stop-color="#c51900" stop-opacity="1"/><stop id="stop3606-3" offset="1" stop-color="#ff5f00" stop-opacity="1"/></linearGradient><linearGradient id="linearGradient3608-1" x1="3.909" x2="24.818" y1="14.364" y2="14.364" gradientUnits="userSpaceOnUse" xlink:href="#linearGradient3602-5"/><linearGradient id="linearGradient3602-5"><stop id="stop3604-9" offset="0" stop-color="#c51900" stop-opacity="1"/><stop id="stop3606-9" offset="1" stop-color="#ff5f00" stop-opacity="1"/></linearGradient><linearGradient id="linearGradient3686" x1="3.909" x2="24.818" y1="14.364" y2="14.364" gradientUnits="userSpaceOnUse" xlink:href="#linearGradient3602-5"/><linearGradient id="linearGradient3608-8" x1="3.909" x2="24.818" y1="14.364" y2="14.364" gradientUnits="userSpaceOnUse" xlink:href="#linearGradient3602-58"/><linearGradient id="linearGradient3602-58"><stop id="stop3604-2" offset="0" stop-color="#c51900" stop-opacity="1"/><stop id="stop3606-2" offset="1" stop-color="#ff5f00" stop-opacity="1"/></linearGradient><linearGradient id="linearGradient3726" x1="3.909" x2="24.818" y1="14.364" y2="14.364" gradientUnits="userSpaceOnUse" xlink:href="#linearGradient3602-58"/><linearGradient id="linearGradient3602-1"><stop id="stop3604-8" offset="0" stop-color="#ff2600" stop-opacity="1"/><stop id="stop3606-96" offset="1" stop-color="#ff5f00" stop-opacity="1"/></linearGradient><linearGradient id="linearGradient2875" x1="3.909" x2="24.818" y1="14.364" y2="14.364" gradientUnits="userSpaceOnUse" xlink:href="#linearGradient3602-1"/><linearGradient id="linearGradient3602-1-5"><stop id="stop3604-8-3" offset="0" stop-color="#ff2600" stop-opacity="1"/><stop id="stop3606-96-8" offset="1" stop-color="#ff5f00" stop-opacity="1"/></linearGradient><linearGradient id="linearGradient2875-3" x1="3.909" x2="24.818" y1="14.364" y2="14.364" gradientUnits="userSpaceOnUse" xlink:href="#linearGradient3602-1-8"/><linearGradient id="linearGradient3602-1-8"><stop id="stop3604-8-5" offset="0" stop-color="#ff2600" stop-opacity="1"/><stop id="stop3606-96-2" offset="1" stop-color="#ff5f00" stop-opacity="1"/></linearGradient><linearGradient id="linearGradient2875-5" x1="3.909" x2="24.818" y1="14.364" y2="14.364" gradientUnits="userSpaceOnUse" xlink:href="#linearGradient3602-1-3"/><linearGradient id="linearGradient3602-1-3"><stop id="stop3604-8-8" offset="0" stop-color="#ff2600" stop-opacity="1"/><stop id="stop3606-96-83" offset="1" stop-color="#ff5f00" stop-opacity="1"/></linearGradient><filter id="filter3683"><feGaussianBlur id="feGaussianBlur3685" stdDeviation=".865"/></filter></defs><metadata id="metadata2821"/><g id="layer1"><path id="path3892" fill="#c00" stroke="#280000" stroke-linecap="butt" stroke-linejoin="round" stroke-opacity="1" stroke-width="2" d="m 37,33 0,8 -11,-13 11,-13 0,8 c 14,0 24,10 24,26 L 51,49 C 51,41 47,33 37,33 z"/><path id="path3918" fill="none" stroke="#ef2929" stroke-linecap="butt" stroke-linejoin="miter" stroke-opacity="1" stroke-width="2" d="M 35,20.5 28.6,28 35,35.5 35,31 c 9,-1 17,5 18,16 l 6,0 C 59,36 51,24 35,25 z"/><g id="g3813" transform="translate(-50.999999,-1.0000001)"><path id="path3025" fill="#c00" fill-opacity="1" stroke="#280000" stroke-dasharray="none" stroke-linecap="round" stroke-linejoin="miter" stroke-miterlimit="4.5" stroke-opacity="1" stroke-width="2" d="m 43,31 c 0,6.627417 -5.372583,12 -12,12 -6.627417,0 -12,-5.372583 -12,-12 0,-6.627417 5.372583,-12 12,-12 6.627417,0 12,5.372583 12,12 z" transform="translate(35,-1)"/><path id="path3025-3" fill="none" stroke="#ef2929" stroke-dasharray="none" stroke-linecap="round" stroke-linejoin="miter" stroke-miterlimit="4.5" stroke-opacity="1" stroke-width="2.4" d="m 43,31 c 0,6.627417 -5.372583,12 -12,12 -6.627417,0 -12,-5.372583 -12,-12 0,-6.627417 5.372583,-12 12,-12 6.627417,0 12,5.372583 12,12 z" transform="matrix(0.83333337,0,0,0.83333333,40.166665,4.1666669)"/></g></g></svg>