<svg xmlns="http://www.w3.org/2000/svg" xmlns:svg="http://www.w3.org/2000/svg" xmlns:xlink="http://www.w3.org/1999/xlink" id="svg2816" width="64" height="64" version="1.1"><defs id="defs2818"><linearGradient id="linearGradient3602"><stop id="stop3604" offset="0" stop-color="#ff2600" stop-opacity="1"/><stop id="stop3606" offset="1" stop-color="#ff5f00" stop-opacity="1"/></linearGradient><linearGradient id="linearGradient3608-5" x1="3.909" x2="24.818" y1="14.364" y2="14.364" gradientUnits="userSpaceOnUse" xlink:href="#linearGradient3602-7"/><linearGradient id="linearGradient3602-7"><stop id="stop3604-1" offset="0" stop-color="#c51900" stop-opacity="1"/><stop id="stop3606-3" offset="1" stop-color="#ff5f00" stop-opacity="1"/></linearGradient><linearGradient id="linearGradient3608-1" x1="3.909" x2="24.818" y1="14.364" y2="14.364" gradientUnits="userSpaceOnUse" xlink:href="#linearGradient3602-5"/><linearGradient id="linearGradient3602-5"><stop id="stop3604-9" offset="0" stop-color="#c51900" stop-opacity="1"/><stop id="stop3606-9" offset="1" stop-color="#ff5f00" stop-opacity="1"/></linearGradient><linearGradient id="linearGradient3686" x1="3.909" x2="24.818" y1="14.364" y2="14.364" gradientUnits="userSpaceOnUse" xlink:href="#linearGradient3602-5"/><linearGradient id="linearGradient3608-8" x1="3.909" x2="24.818" y1="14.364" y2="14.364" gradientUnits="userSpaceOnUse" xlink:href="#linearGradient3602-58"/><linearGradient id="linearGradient3602-58"><stop id="stop3604-2" offset="0" stop-color="#c51900" stop-opacity="1"/><stop id="stop3606-2" offset="1" stop-color="#ff5f00" stop-opacity="1"/></linearGradient><linearGradient id="linearGradient3726" x1="3.909" x2="24.818" y1="14.364" y2="14.364" gradientUnits="userSpaceOnUse" xlink:href="#linearGradient3602-58"/><filter id="filter7861"><feGaussianBlur id="feGaussianBlur7863" stdDeviation="1.093"/></filter></defs><metadata id="metadata2821"/><g id="layer1"><path id="path3037" fill="none" stroke="#280000" stroke-linecap="round" stroke-linejoin="miter" stroke-opacity="1" stroke-width="8" d="m 31.973909,32.845958 -11,-11"/><path id="path3025" fill="none" stroke="#280000" stroke-dasharray="none" stroke-dashoffset="10.8" stroke-linecap="round" stroke-linejoin="round" stroke-miterlimit="4" stroke-opacity="1" stroke-width="8.481" d="M 61,31 A 27.5,17 0 1 1 6,31 27.5,17 0 1 1 61,31 z" transform="matrix(0.66853732,-0.66853732,0.66551226,0.66551226,-11.462903,34.201144)"/><path id="path3037-3" fill="none" stroke="#c00" stroke-linecap="round" stroke-linejoin="miter" stroke-opacity="1" stroke-width="4" d="m 31.973909,32.845958 -11,-11"/><path id="path3025-3" fill="none" stroke="#c00" stroke-dasharray="none" stroke-dashoffset="10.8" stroke-linecap="round" stroke-linejoin="round" stroke-miterlimit="4" stroke-opacity="1" stroke-width="4.24" d="M 61,31 A 27.5,17 0 1 1 6,31 27.5,17 0 1 1 61,31 z" transform="matrix(0.66853732,-0.66853732,0.66551226,0.66551226,-11.462903,34.201144)"/><path id="path3025-3-6" fill="none" stroke="#ef2929" stroke-dasharray="none" stroke-dashoffset="10.8" stroke-linecap="round" stroke-linejoin="round" stroke-miterlimit="4" stroke-opacity="1" stroke-width="2.018" d="M 61,31 A 27.5,17 0 1 1 6,31 27.5,17 0 1 1 61,31 z" transform="matrix(0.69425029,-0.69425029,0.70710678,0.70710678,-13.613718,33.773098)"/><path id="path3037-3-6" fill="none" stroke="#ef2929" stroke-linecap="round" stroke-linejoin="miter" stroke-opacity="1" stroke-width="2" d="m 32.770125,32.182445 -12,-12"/></g></svg>