<svg xmlns="http://www.w3.org/2000/svg" xmlns:svg="http://www.w3.org/2000/svg" xmlns:xlink="http://www.w3.org/1999/xlink" id="svg2816" width="64" height="64" version="1.1"><defs id="defs2818"><linearGradient id="linearGradient3602"><stop id="stop3604" offset="0" stop-color="#ff2600" stop-opacity="1"/><stop id="stop3606" offset="1" stop-color="#ff5f00" stop-opacity="1"/></linearGradient><linearGradient id="linearGradient3608-5" x1="3.909" x2="24.818" y1="14.364" y2="14.364" gradientUnits="userSpaceOnUse" xlink:href="#linearGradient3602-7"/><linearGradient id="linearGradient3602-7"><stop id="stop3604-1" offset="0" stop-color="#c51900" stop-opacity="1"/><stop id="stop3606-3" offset="1" stop-color="#ff5f00" stop-opacity="1"/></linearGradient><linearGradient id="linearGradient3608-1" x1="3.909" x2="24.818" y1="14.364" y2="14.364" gradientUnits="userSpaceOnUse" xlink:href="#linearGradient3602-5"/><linearGradient id="linearGradient3602-5"><stop id="stop3604-9" offset="0" stop-color="#c51900" stop-opacity="1"/><stop id="stop3606-9" offset="1" stop-color="#ff5f00" stop-opacity="1"/></linearGradient><linearGradient id="linearGradient3686" x1="3.909" x2="24.818" y1="14.364" y2="14.364" gradientUnits="userSpaceOnUse" xlink:href="#linearGradient3602-5"/><linearGradient id="linearGradient3608-8" x1="3.909" x2="24.818" y1="14.364" y2="14.364" gradientUnits="userSpaceOnUse" xlink:href="#linearGradient3602-58"/><linearGradient id="linearGradient3602-58"><stop id="stop3604-2" offset="0" stop-color="#c51900" stop-opacity="1"/><stop id="stop3606-2" offset="1" stop-color="#ff5f00" stop-opacity="1"/></linearGradient><linearGradient id="linearGradient3726" x1="3.909" x2="24.818" y1="14.364" y2="14.364" gradientUnits="userSpaceOnUse" xlink:href="#linearGradient3602-58"/><filter id="filter7861"><feGaussianBlur id="feGaussianBlur7863" stdDeviation="1.093"/></filter></defs><metadata id="metadata2821"/><g id="layer1"><path id="path3874" fill="none" stroke="#280000" stroke-dasharray="none" stroke-dashoffset="10.8" stroke-linecap="round" stroke-linejoin="round" stroke-miterlimit="4" stroke-opacity="1" stroke-width="5.459" d="m 37.957086,114.44994 a 28.797932,28.797932 0 0 1 8.429825,19.8323" transform="matrix(1.4653651,0,0,1.4653651,-19.781449,-139.35101)"/><path id="path3068" fill="none" stroke="#280000" stroke-linecap="round" stroke-linejoin="round" stroke-opacity="1" stroke-width="8" d="M 58,58 6,58 58,6"/><path id="path3068-7" fill="none" stroke="#c00" stroke-linecap="round" stroke-linejoin="round" stroke-opacity="1" stroke-width="4" d="M 58,58 6,58 58,6"/><path id="path3874-3" fill="none" stroke="#c00" stroke-dasharray="none" stroke-dashoffset="10.8" stroke-linecap="round" stroke-linejoin="round" stroke-miterlimit="4" stroke-opacity="1" stroke-width="2.73" d="m 37.957086,114.44994 a 28.797932,28.797932 0 0 1 8.426307,19.66719" transform="matrix(1.4653651,0,0,1.4653651,-19.781449,-139.35101)"/><path id="path3068-7-5" fill="none" stroke="#ef2929" stroke-linecap="round" stroke-linejoin="round" stroke-opacity="1" stroke-width="2" d="m 58.299779,57.10253 -52.7736777,0 L 57.526101,5.102533"/><path id="path3874-3-5" fill="none" stroke="#ef2929" stroke-dasharray="none" stroke-dashoffset="10.8" stroke-linecap="round" stroke-linejoin="round" stroke-miterlimit="4" stroke-opacity="1" stroke-width="1.365" d="m 37.957086,114.44994 a 28.797932,28.797932 0 0 1 8.43472,20.36322" transform="matrix(1.4653651,0,0,1.4653651,-18.980933,-140.55049)"/><g id="g3063" transform="matrix(0.70710678,-0.70710678,0.70710678,0.70710678,48.727922,-27.154329)"><path id="path3025" fill="none" stroke="#280000" stroke-dasharray="none" stroke-dashoffset="10.8" stroke-linecap="round" stroke-linejoin="round" stroke-miterlimit="4" stroke-opacity="1" stroke-width="8.481" d="M 61,31 C 61,40.388841 48.687831,48 33.5,48 18.312169,48 6,40.388841 6,31 6,21.611159 18.312169,14 33.5,14 48.687831,14 61,21.611159 61,31 z" transform="matrix(0.94545455,0,0,0.94117647,-79.672727,0.82352941)"/><path id="path3025-3" fill="none" stroke="#c00" stroke-dasharray="none" stroke-dashoffset="10.8" stroke-linecap="round" stroke-linejoin="round" stroke-miterlimit="4" stroke-opacity="1" stroke-width="4.24" d="M 61,31 C 61,40.388841 48.687831,48 33.5,48 18.312169,48 6,40.388841 6,31 6,21.611159 18.312169,14 33.5,14 48.687831,14 61,21.611159 61,31 z" transform="matrix(0.94545455,0,0,0.94117647,-79.672727,0.82352933)"/><path id="path3025-3-6" fill="none" stroke="#ef2929" stroke-dasharray="none" stroke-dashoffset="10.8" stroke-linecap="round" stroke-linejoin="round" stroke-miterlimit="4" stroke-opacity="1" stroke-width="2.018" d="M 61,31 C 61,40.388841 48.687831,48 33.5,48 18.312169,48 6,40.388841 6,31 6,21.611159 18.312169,14 33.5,14 48.687831,14 61,21.611159 61,31 z" transform="matrix(0.98181818,0,0,1,-80.890909,-1.0000001)"/></g></g></svg>