<svg xmlns="http://www.w3.org/2000/svg" xmlns:svg="http://www.w3.org/2000/svg" xmlns:xlink="http://www.w3.org/1999/xlink" id="svg2816" width="64" height="64" version="1.1"><defs id="defs2818"><linearGradient id="linearGradient3602"><stop id="stop3604" offset="0" stop-color="#ff2600" stop-opacity="1"/><stop id="stop3606" offset="1" stop-color="#ff5f00" stop-opacity="1"/></linearGradient><linearGradient id="linearGradient3608" x1="3.909" x2="24.818" y1="14.364" y2="14.364" gradientUnits="userSpaceOnUse" xlink:href="#linearGradient3602"/><linearGradient id="linearGradient3608-5" x1="3.909" x2="24.818" y1="14.364" y2="14.364" gradientUnits="userSpaceOnUse" xlink:href="#linearGradient3602-7"/><linearGradient id="linearGradient3602-7"><stop id="stop3604-1" offset="0" stop-color="#c51900" stop-opacity="1"/><stop id="stop3606-3" offset="1" stop-color="#ff5f00" stop-opacity="1"/></linearGradient><linearGradient id="linearGradient3608-1" x1="3.909" x2="24.818" y1="14.364" y2="14.364" gradientUnits="userSpaceOnUse" xlink:href="#linearGradient3602-5"/><linearGradient id="linearGradient3602-5"><stop id="stop3604-9" offset="0" stop-color="#c51900" stop-opacity="1"/><stop id="stop3606-9" offset="1" stop-color="#ff5f00" stop-opacity="1"/></linearGradient><linearGradient id="linearGradient3686" x1="3.909" x2="24.818" y1="14.364" y2="14.364" gradientUnits="userSpaceOnUse" xlink:href="#linearGradient3602-5"/><linearGradient id="linearGradient3608-8" x1="3.909" x2="24.818" y1="14.364" y2="14.364" gradientUnits="userSpaceOnUse" xlink:href="#linearGradient3602-58"/><linearGradient id="linearGradient3602-58"><stop id="stop3604-2" offset="0" stop-color="#c51900" stop-opacity="1"/><stop id="stop3606-2" offset="1" stop-color="#ff5f00" stop-opacity="1"/></linearGradient><linearGradient id="linearGradient3726" x1="3.909" x2="24.818" y1="14.364" y2="14.364" gradientUnits="userSpaceOnUse" xlink:href="#linearGradient3602-58"/><filter id="filter3651"><feGaussianBlur id="feGaussianBlur3653" stdDeviation=".756"/></filter></defs><metadata id="metadata2821"/><g id="layer1" display="none"><path id="path2845" fill="#000" fill-opacity="1" fill-rule="nonzero" stroke="none" stroke-width="2.191" d="m 9.2298766,21.579936 c -0.080714,-1.77e-4 -0.1567867,0.137412 -0.1568273,0.309354 l 0,27.403601 c -4.05e-5,0.171941 0.076113,0.309177 0.1568273,0.309354 l 6.1631444,0.02578 0,-11.189297 c 3.2e-5,-0.118391 0.03042,-0.206358 0.0941,-0.206236 l 40.775434,0.07734 c 0.06368,1.22e-4 0.09413,0.08785 0.0941,0.206236 l 0,11.189298 6.163145,0.02578 c 0.08071,1.77e-4 0.156787,-0.137412 0.156827,-0.309354 l 0,-27.403601 c 4e-5,-0.171941 -0.07611,-0.309177 -0.156827,-0.309354 l -6.163145,-0.02578 0,11.189297 c -3.2e-5,0.118391 -0.03042,0.206358 -0.0941,0.206236 L 15.487121,33.00125 c -0.06368,-1.22e-4 -0.09413,-0.08784 -0.0941,-0.206236 l 0,-11.189298 -6.1631444,-0.02578 z" color="#000" display="inline" enable-background="accumulate" filter="url(#filter3651)" opacity=".6" overflow="visible" transform="matrix(0,-1,1,0,0.21929715,71.530379)" visibility="visible" style="marker:none"/><path id="rect3770" fill="#ff2600" fill-opacity="1" fill-rule="nonzero" stroke="#731200" stroke-dasharray="none" stroke-dashoffset="0" stroke-linecap="square" stroke-linejoin="round" stroke-miterlimit="4" stroke-opacity="1" stroke-width="2.191" d="m 18.065024,58.738714 c -1.77e-4,0.08071 0.137412,0.156786 0.309354,0.156827 l 27.403601,0 c 0.171941,4.1e-5 0.309177,-0.07611 0.309354,-0.156827 l 0.02578,-6.163145 -11.189297,0 c -0.118391,-3.2e-5 -0.206358,-0.03042 -0.206236,-0.0941 l 0.07734,-40.775434 c 1.22e-4,-0.06368 0.08785,-0.09413 0.206236,-0.0941 l 11.189298,0 0.02578,-6.1631451 c 1.77e-4,-0.08071 -0.137412,-0.156787 -0.309354,-0.156827 l -27.403601,0 c -0.171941,-4e-5 -0.309177,0.07611 -0.309354,0.156827 l -0.02578,6.1631451 11.189297,0 c 0.118391,3.2e-5 0.206358,0.03042 0.206236,0.0941 l -0.07734,40.775434 c -1.22e-4,0.06368 -0.08784,0.09413 -0.206236,0.0941 l -11.189298,0 -0.02578,6.163145 z" color="#000" display="inline" enable-background="accumulate" overflow="visible" visibility="visible" style="marker:none"/></g><g id="g12536"><path id="path3018" fill="#888a85" stroke="#280000" stroke-linecap="butt" stroke-linejoin="round" stroke-opacity="1" stroke-width="2" d="m 37,61 0,-8 8,0 0,-42 -8,0 0,-8 24,0 0,8 -8,0 0,42 8,0 0,8 z"/><path id="path3018-3" fill="none" stroke="#eeeeec" stroke-linecap="butt" stroke-linejoin="miter" stroke-opacity="1" stroke-width="2" d="m 39,59 0,-4 8,0 0,-46 -8,0 0,-4 20,0 0,4 -8,0 0,46 8,0 0,4 z"/><path id="path3018-36" fill="#c00" stroke="#280000" stroke-linecap="butt" stroke-linejoin="round" stroke-opacity="1" stroke-width="2" d="m 3,61 0,-8 8,0 0,-42 -8,0 0,-8 24,0 0,8 -8,0 0,42 8,0 0,8 z"/><path id="path3018-3-7" fill="none" stroke="#ef2929" stroke-linecap="butt" stroke-linejoin="miter" stroke-opacity="1" stroke-width="2" d="m 5,59 0,-4 8,0 0,-46 -8,0 0,-4 20,0 0,4 -8,0 0,46 8,0 0,4 z"/></g></svg>