<svg xmlns="http://www.w3.org/2000/svg" xmlns:svg="http://www.w3.org/2000/svg" xmlns:xlink="http://www.w3.org/1999/xlink" id="svg2918" width="64" height="64" version="1.1"><defs id="defs2920"><linearGradient id="linearGradient3144"><stop id="stop3146" offset="0" stop-color="#fff" stop-opacity="1"/><stop id="stop3148" offset="1" stop-color="#fff" stop-opacity="0"/></linearGradient><linearGradient id="linearGradient3144-3"><stop id="stop3146-1" offset="0" stop-color="#fff" stop-opacity="1"/><stop id="stop3148-5" offset="1" stop-color="#fff" stop-opacity="0"/></linearGradient><radialGradient id="radialGradient3958" cx="225.264" cy="672.797" r="34.345" fx="225.264" fy="672.797" gradientTransform="matrix(1,0,0,0.6985294,0,202.82863)" gradientUnits="userSpaceOnUse" xlink:href="#linearGradient3144"/><radialGradient id="radialGradient3960" cx="225.264" cy="672.797" r="34.345" fx="225.264" fy="672.797" gradientTransform="matrix(1,0,0,0.6985294,0,202.82863)" gradientUnits="userSpaceOnUse" xlink:href="#linearGradient3144-3"/><radialGradient id="radialGradient3042" cx="225.264" cy="672.797" r="34.345" fx="225.264" fy="672.797" gradientTransform="matrix(1,0,0,0.6985294,0,202.82863)" gradientUnits="userSpaceOnUse" xlink:href="#linearGradient3144"/><radialGradient id="radialGradient3068" cx="225.264" cy="672.797" r="34.345" fx="225.264" fy="672.797" gradientTransform="matrix(1,0,0,0.6985294,0,202.82863)" gradientUnits="userSpaceOnUse" xlink:href="#linearGradient3144"/><radialGradient id="radialGradient3880" cx="225.264" cy="672.797" r="34.345" fx="225.264" fy="672.797" gradientTransform="matrix(1,0,0,0.6985294,0,202.82863)" gradientUnits="userSpaceOnUse" xlink:href="#linearGradient3144"/><radialGradient id="radialGradient4654" cx="225.264" cy="672.797" r="34.345" fx="225.264" fy="672.797" gradientTransform="matrix(1,0,0,0.6985294,0,202.82863)" gradientUnits="userSpaceOnUse" xlink:href="#linearGradient3144"/><radialGradient id="radialGradient4693" cx="225.264" cy="672.797" r="34.345" fx="225.264" fy="672.797" gradientTransform="matrix(1,0,0,0.6985294,0,202.82863)" gradientUnits="userSpaceOnUse" xlink:href="#linearGradient3144"/><linearGradient id="linearGradient3082" x1="-18" x2="-22" y1="18" y2="5" gradientUnits="userSpaceOnUse" xlink:href="#linearGradient3836-9-3"/><linearGradient id="linearGradient3836-9-3"><stop id="stop3838-8-5" offset="0" stop-color="#a40000" stop-opacity="1"/><stop id="stop3840-1-6" offset="1" stop-color="#ef2929" stop-opacity="1"/></linearGradient><linearGradient id="linearGradient3131-3" x1="-18" x2="-22" y1="18" y2="5" gradientUnits="userSpaceOnUse" xlink:href="#linearGradient3836-9-3-6"/><linearGradient id="linearGradient3836-9-3-6"><stop id="stop3838-8-5-7" offset="0" stop-color="#a40000" stop-opacity="1"/><stop id="stop3840-1-6-5" offset="1" stop-color="#ef2929" stop-opacity="1"/></linearGradient><linearGradient id="linearGradient3131-2" x1="-18" x2="-22" y1="18" y2="5" gradientUnits="userSpaceOnUse" xlink:href="#linearGradient3836-9-3-9"/><linearGradient id="linearGradient3836-9-3-9"><stop id="stop3838-8-5-1" offset="0" stop-color="#a40000" stop-opacity="1"/><stop id="stop3840-1-6-2" offset="1" stop-color="#ef2929" stop-opacity="1"/></linearGradient><linearGradient id="linearGradient3171-7" x1="-18" x2="-22" y1="18" y2="5" gradientUnits="userSpaceOnUse" xlink:href="#linearGradient3836-9-3-6-0"/><linearGradient id="linearGradient3836-9-3-6-0"><stop id="stop3838-8-5-7-9" offset="0" stop-color="#a40000" stop-opacity="1"/><stop id="stop3840-1-6-5-3" offset="1" stop-color="#ef2929" stop-opacity="1"/></linearGradient><linearGradient id="linearGradient3262" x1="-18" x2="-22" y1="18" y2="5" gradientUnits="userSpaceOnUse" xlink:href="#linearGradient3836-9-3"/><linearGradient id="linearGradient3264" x1="-18" x2="-22" y1="18" y2="5" gradientUnits="userSpaceOnUse" xlink:href="#linearGradient3836-9-3-6"/><linearGradient id="linearGradient3086" x1="-18" x2="-22" y1="18" y2="5" gradientTransform="matrix(0.84380872,0,0,0.84381766,-3.1731496,1.9131584)" gradientUnits="userSpaceOnUse" xlink:href="#linearGradient3836-9-3-6"/><linearGradient id="linearGradient3103" x1="-18" x2="-22" y1="18" y2="5" gradientTransform="matrix(0.84380872,0,0,0.84381766,-3.1731496,1.9131584)" gradientUnits="userSpaceOnUse" xlink:href="#linearGradient3836-9-3-6"/><linearGradient id="linearGradient3103-3" x1="-18" x2="-22" y1="18" y2="5" gradientTransform="matrix(0.84380872,0,0,0.84381766,-3.1731496,1.9131584)" gradientUnits="userSpaceOnUse" xlink:href="#linearGradient3836-9-3-6-6"/><linearGradient id="linearGradient3836-9-3-6-6"><stop id="stop3838-8-5-7-7" offset="0" stop-color="#a40000" stop-opacity="1"/><stop id="stop3840-1-6-5-5" offset="1" stop-color="#ef2929" stop-opacity="1"/></linearGradient><linearGradient id="linearGradient3122" x1="-18" x2="-22" y1="18" y2="5" gradientTransform="matrix(0.84380872,0,0,0.84381766,-3.1731496,1.9131584)" gradientUnits="userSpaceOnUse" xlink:href="#linearGradient3836-9-3-6-6"/><linearGradient id="linearGradient3103-2" x1="-18" x2="-22" y1="18" y2="5" gradientTransform="matrix(0.84380872,0,0,0.84381766,-3.1731496,1.9131584)" gradientUnits="userSpaceOnUse" xlink:href="#linearGradient3836-9-3-6-9"/><linearGradient id="linearGradient3836-9-3-6-9"><stop id="stop3838-8-5-7-1" offset="0" stop-color="#a40000" stop-opacity="1"/><stop id="stop3840-1-6-5-2" offset="1" stop-color="#ef2929" stop-opacity="1"/></linearGradient><linearGradient id="linearGradient3122-7" x1="-18" x2="-22" y1="18" y2="5" gradientTransform="matrix(0.84380872,0,0,0.84381766,-3.1731496,1.9131584)" gradientUnits="userSpaceOnUse" xlink:href="#linearGradient3836-9-3-6-9"/><linearGradient id="linearGradient3103-6" x1="-18" x2="-22" y1="18" y2="5" gradientTransform="matrix(0.84380872,0,0,0.84381766,-3.1731496,1.9131584)" gradientUnits="userSpaceOnUse" xlink:href="#linearGradient3836-9-3-6-06"/><linearGradient id="linearGradient3836-9-3-6-06"><stop id="stop3838-8-5-7-2" offset="0" stop-color="#a40000" stop-opacity="1"/><stop id="stop3840-1-6-5-6" offset="1" stop-color="#ef2929" stop-opacity="1"/></linearGradient><linearGradient id="linearGradient3122-1" x1="-18" x2="-22" y1="18" y2="5" gradientTransform="matrix(0.84380872,0,0,0.84381766,-3.1731496,1.9131584)" gradientUnits="userSpaceOnUse" xlink:href="#linearGradient3836-9-3-6-06"/></defs><metadata id="metadata2923"/><g id="layer1"><path id="path3156" fill="none" stroke="#172a04" stroke-linecap="butt" stroke-linejoin="miter" stroke-opacity="1" stroke-width="6" d="M 11,59 C 51,59 13,5 53,5"/><path id="path3187-9" fill="none" stroke="#172a04" stroke-linecap="round" stroke-linejoin="miter" stroke-opacity="1" stroke-width="6" d="M 53,9 39,9"/><path id="path3187-3-1" fill="none" stroke="#8ae234" stroke-linecap="round" stroke-linejoin="miter" stroke-opacity="1" stroke-width="2" d="M 53,9 39,9"/><path id="path3187-6-2" fill="none" stroke="#172a04" stroke-linecap="round" stroke-linejoin="miter" stroke-opacity="1" stroke-width="6" d="M 51,15 35,15"/><path id="path3187-3-7-7" fill="none" stroke="#8ae234" stroke-linecap="round" stroke-linejoin="miter" stroke-opacity="1" stroke-width="2" d="M 51,15 35,15"/><path id="path3187-5-0" fill="none" stroke="#172a04" stroke-linecap="round" stroke-linejoin="miter" stroke-opacity="1" stroke-width="6" d="M 49,21 33,21"/><path id="path3187-3-3-9" fill="none" stroke="#8ae234" stroke-linecap="round" stroke-linejoin="miter" stroke-opacity="1" stroke-width="2" d="M 49,21 33,21"/><path id="path3187-56-3" fill="none" stroke="#172a04" stroke-linecap="round" stroke-linejoin="miter" stroke-opacity="1" stroke-width="6" d="M 47,27 33,27"/><path id="path3187-3-2-6" fill="none" stroke="#8ae234" stroke-linecap="round" stroke-linejoin="miter" stroke-opacity="1" stroke-width="2" d="M 47,27 33,27"/><path id="path3187" fill="none" stroke="#172a04" stroke-linecap="round" stroke-linejoin="miter" stroke-opacity="1" stroke-width="6" d="m 11,55 14,0"/><path id="path3187-3" fill="none" stroke="#8ae234" stroke-linecap="round" stroke-linejoin="miter" stroke-opacity="1" stroke-width="2" d="m 11,55 14,0"/><path id="path3187-6" fill="none" stroke="#172a04" stroke-linecap="round" stroke-linejoin="miter" stroke-opacity="1" stroke-width="6" d="m 13,49 16,0"/><path id="path3187-3-7" fill="none" stroke="#8ae234" stroke-linecap="round" stroke-linejoin="miter" stroke-opacity="1" stroke-width="2" d="m 13,49 16,0"/><path id="path3187-5" fill="none" stroke="#172a04" stroke-linecap="round" stroke-linejoin="miter" stroke-opacity="1" stroke-width="6" d="m 15,43 16,0"/><path id="path3187-3-3" fill="none" stroke="#8ae234" stroke-linecap="round" stroke-linejoin="miter" stroke-opacity="1" stroke-width="2" d="m 15,43 16,0"/><path id="path3187-56" fill="none" stroke="#172a04" stroke-linecap="round" stroke-linejoin="miter" stroke-opacity="1" stroke-width="6" d="m 17,37 14,0"/><path id="path3187-3-2" fill="none" stroke="#8ae234" stroke-linecap="round" stroke-linejoin="miter" stroke-opacity="1" stroke-width="2" d="m 17,37 14,0"/><g id="g3797-7-2-3-3" transform="matrix(0.67724523,0,0,0.67724523,62.187035,43.163793)"><path id="path4250-6-9-5-5" fill="#ef2929" stroke="#280000" stroke-dasharray="none" stroke-miterlimit="4" stroke-opacity="1" stroke-width="2.953" d="M -26.190381,5.8101146 A 8.8556097,8.8519023 89.997775 1 1 -12.743552,17.330467 8.8556097,8.8519023 89.997775 1 1 -26.190381,5.8101146 z"/><path id="path4250-7-0-1-6-6" fill="url(#linearGradient3122)" fill-opacity="1" stroke="#ef2929" stroke-dasharray="none" stroke-miterlimit="4" stroke-opacity="1" stroke-width="2.953" d="m -23.959187,7.7300897 a 5.9066608,5.9067237 0 1 1 8.972716,7.6841513 5.9066608,5.9067237 0 0 1 -8.972716,-7.6841513 z"/></g><g id="g3797-7-2-3-8" transform="matrix(0.67724523,0,0,0.67724523,26.180786,5.1637927)"><path id="path4250-6-9-5-7" fill="#ef2929" stroke="#280000" stroke-dasharray="none" stroke-miterlimit="4" stroke-opacity="1" stroke-width="2.953" d="M -26.190381,5.8101146 A 8.8556097,8.8519023 89.997775 1 1 -12.743552,17.330467 8.8556097,8.8519023 89.997775 1 1 -26.190381,5.8101146 z"/><path id="path4250-7-0-1-6-9" fill="url(#linearGradient3122-1)" fill-opacity="1" stroke="#ef2929" stroke-dasharray="none" stroke-miterlimit="4" stroke-opacity="1" stroke-width="2.953" d="m -23.959187,7.7300897 a 5.9066608,5.9067237 0 1 1 8.972716,7.6841513 5.9066608,5.9067237 0 0 1 -8.972716,-7.6841513 z"/></g><path id="path3156-0" fill="none" stroke="#8ae234" stroke-linecap="butt" stroke-linejoin="miter" stroke-opacity="1" stroke-width="2" d="M 11,59 C 51,59 13,5 53,5"/><path id="path3266" fill="none" stroke="#2e3436" stroke-linecap="butt" stroke-linejoin="miter" stroke-opacity="1" stroke-width="8" d="M 51.999975,12 C 49.999973,50.000001 13.999976,13.999999 11.999974,52"/><path id="path3266-9" fill="none" stroke="#d3d7cf" stroke-linecap="butt" stroke-linejoin="miter" stroke-opacity="1" stroke-width="4" d="M 51.999975,12 C 49.999973,50.000001 13.999976,13.999999 11.999974,52"/><path id="path3266-9-2" fill="none" stroke="#fff" stroke-linecap="butt" stroke-linejoin="miter" stroke-opacity="1" stroke-width="2" d="M 50.999974,12 C 48.999972,49.000001 13.999976,12 10.999973,52"/><g id="g3797-7-2-3-0" transform="matrix(0.67724523,0,0,0.67724523,66.180786,1.1637927)"><path id="path4250-6-9-5-9" fill="#ef2929" stroke="#280000" stroke-dasharray="none" stroke-miterlimit="4" stroke-opacity="1" stroke-width="2.953" d="M -26.190381,5.8101146 A 8.8556097,8.8519023 89.997775 1 1 -12.743552,17.330467 8.8556097,8.8519023 89.997775 1 1 -26.190381,5.8101146 z"/><path id="path4250-7-0-1-6-3" fill="url(#linearGradient3122-7)" fill-opacity="1" stroke="#ef2929" stroke-dasharray="none" stroke-miterlimit="4" stroke-opacity="1" stroke-width="2.953" d="m -23.959187,7.7300897 a 5.9066608,5.9067237 0 1 1 8.972716,7.6841513 5.9066608,5.9067237 0 0 1 -8.972716,-7.6841513 z"/></g><g id="g3797-7-2-3" transform="matrix(0.67724523,0,0,0.67724523,24.186793,47.164076)"><path id="path4250-6-9-5" fill="#ef2929" stroke="#280000" stroke-dasharray="none" stroke-miterlimit="4" stroke-opacity="1" stroke-width="2.953" d="M -26.190381,5.8101146 A 8.8556097,8.8519023 89.997775 1 1 -12.743552,17.330467 8.8556097,8.8519023 89.997775 1 1 -26.190381,5.8101146 z"/><path id="path4250-7-0-1-6" fill="url(#linearGradient3103)" fill-opacity="1" stroke="#ef2929" stroke-dasharray="none" stroke-miterlimit="4" stroke-opacity="1" stroke-width="2.953" d="m -23.959187,7.7300897 a 5.9066608,5.9067237 0 1 1 8.972716,7.6841513 5.9066608,5.9067237 0 0 1 -8.972716,-7.6841513 z"/></g></g></svg>