<svg xmlns="http://www.w3.org/2000/svg" xmlns:svg="http://www.w3.org/2000/svg" xmlns:xlink="http://www.w3.org/1999/xlink" id="svg3230" width="64" height="64" version="1.1"><defs id="defs3232"><linearGradient id="linearGradient3780"><stop id="stop3782" offset="0" stop-color="#fce94f" stop-opacity="1"/><stop id="stop3784" offset="1" stop-color="#c4a000" stop-opacity="1"/></linearGradient><linearGradient id="linearGradient3273"><stop id="stop3275" offset="0" stop-color="#fff" stop-opacity="1"/><stop id="stop3277" offset="1" stop-color="#fff" stop-opacity="0"/></linearGradient><radialGradient id="radialGradient2411" cx="2787.599" cy="552.897" r="38.829" fx="2787.599" fy="552.897" gradientTransform="matrix(1,0,0,1.0807499,0,-44.646407)" gradientUnits="userSpaceOnUse" xlink:href="#linearGradient3273"/><linearGradient id="linearGradient2409" x1="2754.686" x2="2900.148" y1="671.111" y2="671.111" gradientTransform="matrix(-1,0,0,-1,5656.8338,1408.2216)" gradientUnits="userSpaceOnUse" xlink:href="#linearGradient3293"/><linearGradient id="linearGradient2407" x1="2754.686" x2="2900.148" y1="671.111" y2="671.111" gradientTransform="matrix(-1,0,0,-1,5656.8338,1376.2216)" gradientUnits="userSpaceOnUse" xlink:href="#linearGradient3293"/><linearGradient id="linearGradient3293"><stop id="stop3295" offset="0" stop-color="olive" stop-opacity="1"/><stop id="stop3297" offset="1" stop-color="olive" stop-opacity="0"/></linearGradient><linearGradient id="linearGradient2405" x1="2754.686" x2="2900.148" y1="671.111" y2="671.111" gradientTransform="matrix(-1,0,0,-1,5656.8338,1344.2216)" gradientUnits="userSpaceOnUse" xlink:href="#linearGradient3293"/><linearGradient id="linearGradient3255"><stop id="stop3257" offset="0" stop-color="#fff" stop-opacity="1"/><stop id="stop3259" offset="1" stop-color="#fff" stop-opacity="0"/></linearGradient><linearGradient id="linearGradient2403" x1="2732.357" x2="2839.071" y1="711.112" y2="711.112" gradientTransform="matrix(0.7802234,0,0,1,599.85156,0)" gradientUnits="userSpaceOnUse" xlink:href="#linearGradient3255"/><radialGradient id="radialGradient2417" cx="2787.599" cy="552.897" r="38.829" fx="2787.599" fy="552.897" gradientTransform="matrix(1.39911,0,0,1.5521852,-1121.8074,-398.3053)" gradientUnits="userSpaceOnUse" xlink:href="#linearGradient3273"/><linearGradient id="linearGradient3786" x1="28" x2="37" y1="5" y2="59" gradientUnits="userSpaceOnUse" xlink:href="#linearGradient3780"/><linearGradient id="linearGradient3786-3" x1="28" x2="37" y1="5" y2="59" gradientUnits="userSpaceOnUse" xlink:href="#linearGradient3780-6"/><linearGradient id="linearGradient3780-6"><stop id="stop3782-7" offset="0" stop-color="#fce94f" stop-opacity="1"/><stop id="stop3784-5" offset="1" stop-color="#c4a000" stop-opacity="1"/></linearGradient></defs><metadata id="metadata3235"/><g id="layer1"><g id="g2383" transform="matrix(0.1937875,0,0,0.1937875,-515.01651,-93.777617)"><g id="g3788"><path id="path3008" fill="url(#linearGradient3786)" fill-opacity="1" stroke="#302b00" stroke-linecap="butt" stroke-linejoin="round" stroke-opacity="1" stroke-width="2" d="M 3,61 3,31 c 9.3e-6,-37.0000009 58.000009,-37.0000009 58,0 l 0,30 -12,0 0,-28 c 9e-6,-22.000001 -33.999991,-22.000001 -33.999991,-10e-7 l 0,28 z" transform="matrix(5.1602916,0,0,5.1602916,2657.6353,483.91985)"/><path id="path3778" fill="none" stroke="#fce94f" stroke-linecap="butt" stroke-linejoin="miter" stroke-opacity="1" stroke-width="2" d="m 5,59 8,0 9e-6,-25.000001 c 0,-26 38,-26 38,0 L 51,59 l 8,0 9e-6,-28.000001 c 9e-6,-35.0000011 -53.9999909,-35.0000011 -54.0000002,0 z" transform="matrix(5.1602916,0,0,5.1602916,2657.6353,483.91985)"/></g><path id="path3828" fill="none" stroke="#302b00" stroke-linecap="butt" stroke-linejoin="miter" stroke-opacity="1" stroke-width="41.282" d="m 2781.4823,747.09471 0,-92.88524 c 0,-51.60292 82.5647,-51.60292 82.5647,0 l 0,92.88524"/><path id="path3828-2" fill="none" stroke="#edd400" stroke-linecap="butt" stroke-linejoin="miter" stroke-opacity="1" stroke-width="20.641" d="m 2781.4823,736.77413 0,-82.56466 c 0,-51.60292 82.5647,-51.60292 82.5647,0 l 0,82.56466"/><path id="path3828-2-9" fill="none" stroke="#fce94f" stroke-linecap="butt" stroke-linejoin="miter" stroke-opacity="1" stroke-width="10.321" d="m 2776.3221,736.77413 0,-82.56466 c 0,-61.9235 92.8852,-61.9235 92.8852,0 l 0,82.56466"/></g></g></svg>