<svg xmlns="http://www.w3.org/2000/svg" xmlns:svg="http://www.w3.org/2000/svg" xmlns:xlink="http://www.w3.org/1999/xlink" id="svg5821" width="64" height="64" version="1.1"><defs id="defs5823"><marker id="Arrow2Mend" orient="auto" overflow="visible" refX="0" refY="0"><path id="path4003" fill-rule="evenodd" stroke-linejoin="round" stroke-width=".625" d="M 8.7185878,4.0337352 L -2.2072895,0.016013256 L 8.7185884,-4.0017078 C 6.9730900,-1.6296469 6.9831476,1.6157441 8.7185878,4.0337352 z" transform="scale(0.6) rotate(180) translate(0,0)"/></marker><marker id="Arrow1Mend" orient="auto" overflow="visible" refX="0" refY="0"><path id="path3985" fill-rule="evenodd" stroke="#000" stroke-width="1pt" d="M 0.0,0.0 L 5.0,-5.0 L -12.5,0.0 L 5.0,5.0 L 0.0,0.0 z" transform="scale(0.4) rotate(180) translate(10,0)"/></marker><linearGradient id="linearGradient6349"><stop id="stop6351" offset="0" stop-color="#000" stop-opacity="1"/><stop id="stop6353" offset="1" stop-color="#000" stop-opacity="0"/></linearGradient><linearGradient id="linearGradient3377"><stop id="stop3379" offset="0" stop-color="#0019a3" stop-opacity="1"/><stop id="stop3381" offset="1" stop-color="#0069ff" stop-opacity="1"/></linearGradient><linearGradient id="linearGradient3383" x1="901.188" x2="1267.906" y1="1190.875" y2="1190.875" gradientTransform="matrix(-1,0,0,1,2199.356,0)" gradientUnits="userSpaceOnUse" xlink:href="#linearGradient3377"/><radialGradient id="radialGradient6355" cx="1103.64" cy="1424.447" r="194.406" fx="1103.64" fy="1424.447" gradientTransform="matrix(-1.4307499,-1.3605156e-7,-1.202713e-8,0.1264801,2674.7488,1244.2826)" gradientUnits="userSpaceOnUse" xlink:href="#linearGradient6349"/><linearGradient id="linearGradient3774" x1="1178.153" x2="1105.046" y1="1453.871" y2="1059.094" gradientTransform="matrix(0.70270076,0,0,0.78787889,315.88365,269.84952)" gradientUnits="userSpaceOnUse" xlink:href="#linearGradient3768"/><linearGradient id="linearGradient3768"><stop id="stop3770" offset="0" stop-color="#c00" stop-opacity="1"/><stop id="stop3772" offset="1" stop-color="#ef2929" stop-opacity="1"/></linearGradient><linearGradient id="linearGradient3054-3" x1="1178.153" x2="1105.046" y1="1453.871" y2="1059.094" gradientTransform="matrix(0.69497956,0,0,0.78924205,-531.38841,136.64219)" gradientUnits="userSpaceOnUse" xlink:href="#linearGradient3768-5"/><linearGradient id="linearGradient3768-5"><stop id="stop3770-6" offset="0" stop-color="#c00" stop-opacity="1"/><stop id="stop3772-2" offset="1" stop-color="#ef2929" stop-opacity="1"/></linearGradient></defs><metadata id="metadata5826"/><g id="layer1"><g id="g3360" transform="matrix(0.1367863,0,0,0.1367863,-119.15519,-134.86962)"><g id="g3047" transform="matrix(0.62222324,0,0,0.61432167,842.63789,423.10469)"><rect id="rect3860-3-2" width="187.988" height="190.406" x="456.975" y="1059.073" fill="none" stroke="#a40000" stroke-dasharray="none" stroke-dashoffset="0" stroke-linecap="round" stroke-linejoin="round" stroke-miterlimit="4" stroke-opacity="1" stroke-width="70.948" color="#000" display="inline" enable-background="accumulate" overflow="visible" visibility="visible" style="marker:none"/><path id="path3862-6-6" fill="none" stroke="#a40000" stroke-dasharray="none" stroke-dashoffset="0" stroke-linecap="round" stroke-linejoin="round" stroke-miterlimit="4" stroke-opacity="1" stroke-width="13.618" d="M 48.363636,33.272728 A 18.181818,18.181818 0 0 1 30.181818,51.454546 18.181818,18.181818 0 0 1 12,33.272728 18.181818,18.181818 0 0 1 30.181818,15.09091 18.181818,18.181818 0 0 1 48.363636,33.272728 Z" color="#000" display="inline" enable-background="accumulate" overflow="visible" transform="matrix(5.1840059,0,0,5.236176,488.24021,896.75107)" visibility="visible" style="marker:none"/><rect id="rect3860-3-9-1" width="187.988" height="190.406" x="456.975" y="1059.073" fill="none" stroke="#ef2929" stroke-dasharray="none" stroke-dashoffset="0" stroke-linecap="round" stroke-linejoin="round" stroke-miterlimit="4" stroke-opacity="1" stroke-width="23.649" color="#000" display="inline" enable-background="accumulate" overflow="visible" visibility="visible" style="marker:none"/><path id="path3862-6-1-8" fill="none" stroke="#fff" stroke-dasharray="none" stroke-dashoffset="0" stroke-linecap="round" stroke-linejoin="round" stroke-miterlimit="4" stroke-opacity="1" stroke-width="4.539" d="M 48.363636,33.272728 A 18.181818,18.181818 0 0 1 30.181818,51.454546 18.181818,18.181818 0 0 1 12,33.272728 18.181818,18.181818 0 0 1 30.181818,15.09091 18.181818,18.181818 0 0 1 48.363636,33.272728 Z" color="#000" display="inline" enable-background="accumulate" overflow="visible" transform="matrix(5.1840059,0,0,5.236176,488.24022,896.75106)" visibility="visible" style="marker:none"/><rect id="rect3860-3-8" width="187.988" height="190.406" x="127.995" y="1404.184" fill="none" stroke="#a40000" stroke-dasharray="none" stroke-dashoffset="0" stroke-linecap="round" stroke-linejoin="round" stroke-miterlimit="4" stroke-opacity="1" stroke-width="70.948" color="#000" display="inline" enable-background="accumulate" overflow="visible" visibility="visible" style="marker:none"/><ellipse id="path3862-6-9" cx="315.723" cy="1416.084" fill="none" stroke="#a40000" stroke-dasharray="none" stroke-dashoffset="0" stroke-linecap="round" stroke-linejoin="round" stroke-miterlimit="4" stroke-opacity="1" stroke-width="70.948" color="#000" display="inline" enable-background="accumulate" overflow="visible" rx="94.255" ry="95.203" visibility="visible" style="marker:none"/><rect id="rect3860-3-9-7" width="187.988" height="190.406" x="127.995" y="1404.184" fill="none" stroke="#fff" stroke-dasharray="none" stroke-dashoffset="0" stroke-linecap="round" stroke-linejoin="round" stroke-miterlimit="4" stroke-opacity="1" stroke-width="23.649" color="#000" display="inline" enable-background="accumulate" overflow="visible" visibility="visible" style="marker:none"/><ellipse id="path3862-6-1-3" cx="315.723" cy="1416.084" fill="none" stroke="#ef2929" stroke-dasharray="none" stroke-dashoffset="0" stroke-linecap="round" stroke-linejoin="round" stroke-miterlimit="4" stroke-opacity="1" stroke-width="23.649" color="#000" display="inline" enable-background="accumulate" overflow="visible" rx="94.255" ry="95.203" visibility="visible" style="marker:none"/><g id="g4560" transform="matrix(0,1.0128623,-0.98730107,0,1620.0911,929.43105)"><path id="path3202" fill="none" stroke="#2e3436" stroke-linecap="round" stroke-linejoin="miter" stroke-opacity="1" stroke-width="6" marker-end="none" d="m 6.9999999,35.000001 c 0,6 0.9999999,8 7.0000001,8" transform="matrix(11.749278,0,0,11.9004,45.750169,916.26767)"/><path id="path3012-6-3" fill="#d3d7cf" stroke="#2e3436" stroke-linecap="butt" stroke-linejoin="round" stroke-opacity="1" stroke-width="23.649" d="m 198.49078,1475.5865 v -95.2032 l 70.49567,47.6016 z"/><path id="path4804" fill="none" stroke="#d3d7cf" stroke-linecap="round" stroke-linejoin="miter" stroke-opacity="1" stroke-width="2" d="m 6.9999999,35.000001 c 0,6 0.9999999,8 7.0000001,8" transform="matrix(11.749278,0,0,11.9004,45.750169,916.26767)"/></g><g id="g4830" transform="matrix(-1,0,0,1,1360.4223,71.402379)"><path id="path3202-1" fill="none" stroke="#2e3436" stroke-linecap="round" stroke-linejoin="miter" stroke-opacity="1" stroke-width="70.948" marker-end="none" d="m 715.459,1344.6821 c 0,71.4024 11.74928,95.2032 82.24495,95.2032"/><path id="path3012-6-3-9" fill="#d3d7cf" stroke="#2e3436" stroke-linecap="butt" stroke-linejoin="round" stroke-opacity="1" stroke-width="23.649" d="m 785.95466,1487.4869 v -95.2032 l 70.49566,47.6016 z"/><path id="path4804-4" fill="none" stroke="#d3d7cf" stroke-linecap="round" stroke-linejoin="miter" stroke-opacity="1" stroke-width="23.649" d="m 715.459,1344.6821 c 0,71.4024 11.74928,95.2032 82.24495,95.2032"/></g></g></g></g></svg>