<svg xmlns="http://www.w3.org/2000/svg" xmlns:svg="http://www.w3.org/2000/svg" xmlns:xlink="http://www.w3.org/1999/xlink" id="svg4564" width="64" height="64" version="1.1"><defs id="defs4566"><linearGradient id="linearGradient3838"><stop id="stop3840" offset="0" stop-color="#3465a4" stop-opacity="1"/><stop id="stop3842" offset="1" stop-color="#729fcf" stop-opacity="1"/></linearGradient><linearGradient id="linearGradient3830"><stop id="stop3832" offset="0" stop-color="#729fcf" stop-opacity="1"/><stop id="stop3834" offset="1" stop-color="#3465a4" stop-opacity="1"/></linearGradient><radialGradient id="radialGradient4572" cx="225.264" cy="672.797" r="34.345" fx="225.264" fy="672.797" gradientTransform="matrix(1,0,0,0.6985294,0,202.82863)" gradientUnits="userSpaceOnUse" xlink:href="#linearGradient3144-3"/><linearGradient id="linearGradient3144-3"><stop id="stop3146-7" offset="0" stop-color="#fff" stop-opacity="1"/><stop id="stop3148-0" offset="1" stop-color="#fff" stop-opacity="0"/></linearGradient><radialGradient id="radialGradient4574" cx="225.264" cy="672.797" r="34.345" fx="225.264" fy="672.797" gradientTransform="matrix(1,0,0,0.6985294,0,202.82863)" gradientUnits="userSpaceOnUse" xlink:href="#linearGradient3144-0"/><linearGradient id="linearGradient3144-0"><stop id="stop3146-2" offset="0" stop-color="#fff" stop-opacity="1"/><stop id="stop3148-9" offset="1" stop-color="#fff" stop-opacity="0"/></linearGradient><linearGradient id="linearGradient3836" x1="36" x2="32" y1="1037.362" y2="1005.362" gradientUnits="userSpaceOnUse" xlink:href="#linearGradient3830"/><linearGradient id="linearGradient3844" x1="36" x2="32" y1="1039.362" y2="1003.362" gradientUnits="userSpaceOnUse" xlink:href="#linearGradient3838"/><radialGradient id="radialGradient3846" cx="225.264" cy="672.797" r="34.345" fx="225.264" fy="672.797" gradientTransform="matrix(1,0,0,0.6985294,0,202.82863)" gradientUnits="userSpaceOnUse" xlink:href="#linearGradient3144-3"/><radialGradient id="radialGradient3848" cx="225.264" cy="672.797" r="34.345" fx="225.264" fy="672.797" gradientTransform="matrix(1,0,0,0.6985294,0,202.82863)" gradientUnits="userSpaceOnUse" xlink:href="#linearGradient3144-0"/><linearGradient id="linearGradient3801-1-3-7" x1="-18" x2="-22" y1="18" y2="5" gradientUnits="userSpaceOnUse" xlink:href="#linearGradient3836-0-6-4"/><linearGradient id="linearGradient3836-0-6-4"><stop id="stop3838-2-7-0" offset="0" stop-color="#a40000" stop-opacity="1"/><stop id="stop3840-5-5-9" offset="1" stop-color="#ef2929" stop-opacity="1"/></linearGradient><linearGradient id="linearGradient3801-1-3" x1="-18" x2="-22" y1="18" y2="5" gradientUnits="userSpaceOnUse" xlink:href="#linearGradient3836-0-6"/><linearGradient id="linearGradient3836-0-6"><stop id="stop3838-2-7" offset="0" stop-color="#a40000" stop-opacity="1"/><stop id="stop3840-5-5" offset="1" stop-color="#ef2929" stop-opacity="1"/></linearGradient></defs><metadata id="metadata4569"/><g id="layer1" transform="translate(0,-988.36218)"><path id="path3016" fill="none" stroke="#0b1521" stroke-linecap="round" stroke-linejoin="miter" stroke-miterlimit="1.9" stroke-opacity="1" stroke-width="9.412" d="m 42.176471,11 c 11.045695,0 20,8.954305 20,20 0,11.045695 -8.954305,20 -20,20 m 0,-40 L 21,11 C 9.954305,11 1,19.954305 1,31 1,42.045695 9.954305,51 21,51 l 21.176471,0" transform="matrix(0.84999999,0,0,0.85,5.1500002,995.01218)"/><path id="path3016-3" fill="none" stroke="#3465a4" stroke-linecap="round" stroke-linejoin="miter" stroke-miterlimit="1.9" stroke-opacity="1" stroke-width="4" d="m 41,1004.3622 c 9.388841,0 17,7.6111 17,17 0,9.3888 -7.611159,17 -17,17 m 0,-34 -18,0 c -9.388841,0 -17,7.6111 -17,17 0,9.3888 7.611159,17 17,17 l 18,0"/><path id="path3016-3-6" fill="none" stroke="url(#linearGradient3844)" stroke-linecap="round" stroke-linejoin="miter" stroke-miterlimit="1.9" stroke-opacity="1" stroke-width="2" d="m 41.346154,1003.3622 c 9.749951,0 17.653847,8.0588 17.653847,17.9999 0,9.9411 -7.903896,18 -17.653847,18 m 0,-35.9999 -18.692307,0 c -9.749951,0 -17.6538467,8.0588 -17.6538467,17.9999 0,9.9411 7.9038957,18 17.6538467,18 l 18.692307,0"/><path id="path3016-3-7" fill="none" stroke="url(#linearGradient3836)" stroke-linecap="round" stroke-linejoin="miter" stroke-miterlimit="1.9" stroke-opacity="1" stroke-width="2" d="m 40.653846,1005.3622 c 9.027732,0 16.346154,7.1634 16.346154,16 0,8.8365 -7.318422,16 -16.346154,16 m 0,-32 -17.307692,0 c -9.027732,0 -16.346154,7.1634 -16.346154,16 0,8.8365 7.318422,16 16.346154,16 l 17.307692,0"/><g id="g3827-1-3-4" transform="translate(12,969.36218)"><g id="g3797-9-5-8" transform="translate(31.322131,40.570289)"><path id="path4250-71-6-8" fill="#ef2929" stroke="#280000" stroke-dasharray="none" stroke-miterlimit="4" stroke-opacity="1" stroke-width="2" d="M -26.156204,5.582626 A 8.993818,8.9934077 0.02042283 1 1 -12.493793,17.282241 8.993818,8.9934077 0.02042283 1 1 -26.156204,5.582626 z"/><path id="path4250-7-3-2-2" fill="url(#linearGradient3801-1-3-7)" fill-opacity="1" stroke="#ef2929" stroke-dasharray="none" stroke-miterlimit="4" stroke-opacity="1" stroke-width="2" d="M -24.633588,6.893588 A 6.9999997,7.0000001 0 1 1 -14,16 6.9999997,7.0000001 0 0 1 -24.633588,6.893588 z"/></g></g><g id="g3827-1-3" transform="translate(34.005735,952.36218)"><g id="g3797-9-5" transform="translate(31.322131,40.570289)"><path id="path4250-71-6" fill="#ef2929" stroke="#280000" stroke-dasharray="none" stroke-miterlimit="4" stroke-opacity="1" stroke-width="2" d="M -26.156204,5.582626 A 8.993818,8.9934077 0.02042283 1 1 -12.493793,17.282241 8.993818,8.9934077 0.02042283 1 1 -26.156204,5.582626 z"/><path id="path4250-7-3-2" fill="url(#linearGradient3801-1-3)" fill-opacity="1" stroke="#ef2929" stroke-dasharray="none" stroke-miterlimit="4" stroke-opacity="1" stroke-width="2" d="M -24.633588,6.893588 A 6.9999997,7.0000001 0 1 1 -14,16 6.9999997,7.0000001 0 0 1 -24.633588,6.893588 z"/></g></g></g></svg>