<svg xmlns="http://www.w3.org/2000/svg" xmlns:svg="http://www.w3.org/2000/svg" xmlns:xlink="http://www.w3.org/1999/xlink" id="svg4594" width="64" height="64" version="1.1"><defs id="defs4596"><linearGradient id="linearGradient3010"><stop id="stop3012" offset="0" stop-color="#ef2929" stop-opacity="1"/><stop id="stop3014" offset="1" stop-color="#a40000" stop-opacity="1"/></linearGradient><linearGradient id="linearGradient3806" x1="4115.423" x2="4157.868" y1="1473.526" y2="1734.258" gradientUnits="userSpaceOnUse" xlink:href="#linearGradient3792"/><linearGradient id="linearGradient3792"><stop id="stop3794" offset="0" stop-color="#fce94f" stop-opacity="1"/><stop id="stop3796" offset="1" stop-color="#c4a000" stop-opacity="1"/></linearGradient><linearGradient id="linearGradient3009" x1="4115.423" x2="4157.868" y1="1473.526" y2="1734.258" gradientTransform="translate(12.126952,12.126971)" gradientUnits="userSpaceOnUse" xlink:href="#linearGradient3010"/></defs><metadata id="metadata4599"/><g id="layer1"><g id="g3491" transform="matrix(0.1649204,0,0,0.1649204,-643.71716,-232.01446)"><path id="text2714" fill="url(#linearGradient3009)" fill-opacity="1" stroke="#302b00" stroke-dasharray="none" stroke-linecap="round" stroke-linejoin="round" stroke-miterlimit="4" stroke-opacity="1" stroke-width="12.127" d="m 4163.931,1667.5588 -109.1436,0 -33.4751,40.7475 c -3.5156,5.2084 -2.3852,4.766 -2.9061,7.7608 0,6.0635 3.9239,9.9135 12.1271,12.127 l 0,12.1271 -97.0165,0 0,-12.1271 c 5.4688,-1.0416 14.9354,-3.4593 18.1906,-6.0635 3.2552,-2.6042 6.0635,-6.0635 12.1271,-12.1271 l 139.4611,-200.0965 c 4.4269,-6.5102 5.2821,-8.2206 6.0636,-12.1271 1.3019,-5.9893 0.9676,-9.5226 -6.0636,-12.127 l 0,-12.1271 97.0165,0 0,12.1271 c -12.127,0 -17.1492,0.595 -18.1906,6.0635 -0.7814,3.7763 -0.6531,6.3037 0.9097,11.1211 l 60.3514,205.4688 c 2.6039,8.724 2.8333,10.5692 5.4378,13.8243 2.6038,3.1251 6.9183,5.0219 12.1271,6.0635 l 0,12.1271 -97.0165,0 0,-12.1271 c 8.984,-1.4322 10.8247,-5.4864 12.127,-12.127 0.5207,-2.7344 1.5623,-6.7885 0,-12.1271 l -12.127,-36.3812 m 0,-36.3812 -24.2542,-97.0165 -72.7623,97.0165 97.0165,0" font-family="Copperplate Gothic Bold" font-size="40" font-stretch="normal" font-style="normal" font-variant="normal" font-weight="bold" style="-inkscape-font-specification:'Copperplate Gothic Bold, Bold'"/><path id="text2714-1" fill="none" stroke="#ef2929" stroke-dasharray="none" stroke-linecap="round" stroke-linejoin="round" stroke-miterlimit="4" stroke-opacity="1" stroke-width="12.127" d="m 4171.6736,1655.4317 -122.0514,0 -36.1634,43.7572 c -8.9781,11.6058 -6.5744,17.6706 -7.5981,18.9453 0,5.6501 9.2106,8.5485 16.6543,10.6111 l 1.2403,-0.1379 -78.1114,-0.4134 -3.7208,2.894 c 4.9624,-0.9706 23.3368,-5.4284 26.2906,-7.855 2.9538,-2.4267 7.4313,-8.4063 12.2445,-15.4346 l 117.1771,-168.125 c 4.017,-6.0664 15.8176,-22.4055 19.0072,-28.5262 3.3863,-5.5809 9.1466,-22.5163 2.7664,-24.9431 l -10.1979,-0.5513 85.1396,0 -13.0918,-0.6889 c -11.004,0 -10.7379,5.2398 -11.5452,9.233 -0.7089,3.5189 0.6477,7.8032 2.0659,12.2922 l 55.59,189.1168 c 2.3628,8.1291 2.4331,9.7107 3.832,14.9489 3.6029,9.9401 1.3166,12.3967 6.043,13.3673 l 17.6394,4.272 -84.8894,0 12.5404,-6.2013 c 4.9827,-8.914 5.1626,-6.4905 6.3444,-12.6783 0.4724,-2.548 -2.579,-12.6647 -3.9966,-17.6393 l -12.9335,-35.4166 m 4.4614,-18.4109 -33.3601,-122.5662 -89.8152,122.4284 122.0295,0.024" font-family="Copperplate Gothic Bold" font-size="40" font-stretch="normal" font-style="normal" font-variant="normal" font-weight="bold" style="-inkscape-font-specification:'Copperplate Gothic Bold, Bold'"/><path id="text2714-7" fill="none" stroke="#280000" stroke-dasharray="none" stroke-linecap="round" stroke-linejoin="round" stroke-miterlimit="4" stroke-opacity="1" stroke-width="12.127" d="m 4163.931,1667.5588 -109.1436,0 -33.4751,40.7475 c -3.5156,5.2084 -2.3852,4.766 -2.9061,7.7608 0,6.0635 3.9239,9.9135 12.1271,12.127 l 0,12.1271 -97.0165,0 0,-12.1271 c 5.4688,-1.0416 14.9354,-3.4593 18.1906,-6.0635 3.2552,-2.6042 6.0635,-6.0635 12.1271,-12.1271 l 139.4611,-200.0965 c 4.4269,-6.5102 5.2821,-8.2206 6.0636,-12.1271 1.3019,-5.9893 0.9676,-9.5226 -6.0636,-12.127 l 0,-12.1271 97.0165,0 0,12.1271 c -12.127,0 -17.1492,0.595 -18.1906,6.0635 -0.7814,3.7763 -0.6531,6.3037 0.9097,11.1211 l 60.3514,205.4688 c 2.6039,8.724 2.8333,10.5692 5.4378,13.8243 2.6038,3.1251 6.9183,5.0219 12.1271,6.0635 l 0,12.1271 -97.0165,0 0,-12.1271 c 8.984,-1.4322 10.8247,-5.4864 12.127,-12.127 0.5206,-2.7344 1.5623,-6.7885 0,-12.1271 l -12.127,-36.3812 m 0,-36.3812 -24.2542,-97.0165 -72.7623,97.0165 97.0165,0" font-family="Copperplate Gothic Bold" font-size="40" font-stretch="normal" font-style="normal" font-variant="normal" font-weight="bold" style="-inkscape-font-specification:'Copperplate Gothic Bold, Bold'"/></g></g></svg>