<svg xmlns="http://www.w3.org/2000/svg" xmlns:svg="http://www.w3.org/2000/svg" xmlns:xlink="http://www.w3.org/1999/xlink" id="svg5821" width="64" height="64" version="1.1"><defs id="defs5823"><linearGradient id="linearGradient3857"><stop id="stop3859" offset="0" stop-color="#34e0e2" stop-opacity="1"/><stop id="stop3861" offset="1" stop-color="#06989a" stop-opacity="1"/></linearGradient><linearGradient id="linearGradient3776"><stop id="stop3778" offset="0" stop-color="#c00" stop-opacity="1"/><stop id="stop3780" offset="1" stop-color="#ef2929" stop-opacity="1"/></linearGradient><linearGradient id="linearGradient3768"><stop id="stop3770" offset="0" stop-color="#c00" stop-opacity="1"/><stop id="stop3772" offset="1" stop-color="#ef2929" stop-opacity="1"/></linearGradient><linearGradient id="linearGradient6349"><stop id="stop6351" offset="0" stop-color="#000" stop-opacity="1"/><stop id="stop6353" offset="1" stop-color="#000" stop-opacity="0"/></linearGradient><linearGradient id="linearGradient3377"><stop id="stop3379" offset="0" stop-color="#0019a3" stop-opacity="1"/><stop id="stop3381" offset="1" stop-color="#0069ff" stop-opacity="1"/></linearGradient><linearGradient id="linearGradient3383" x1="901.188" x2="1267.906" y1="1190.875" y2="1190.875" gradientTransform="matrix(-1,0,0,1,2199.356,0)" gradientUnits="userSpaceOnUse" xlink:href="#linearGradient3377"/><radialGradient id="radialGradient6355" cx="1103.64" cy="1424.447" r="194.406" fx="1103.64" fy="1424.447" gradientTransform="matrix(-1.4307499,-1.3605156e-7,-1.202713e-8,0.1264801,2674.7488,1244.2826)" gradientUnits="userSpaceOnUse" xlink:href="#linearGradient6349"/><linearGradient id="linearGradient3774" x1="1178.153" x2="1105.046" y1="1453.871" y2="1059.094" gradientTransform="matrix(0.70270076,0,0,0.78787889,315.88365,269.84952)" gradientUnits="userSpaceOnUse" xlink:href="#linearGradient3768"/><linearGradient id="linearGradient3782" x1="33.053" x2="23.483" y1="73.677" y2="19.131" gradientUnits="userSpaceOnUse" xlink:href="#linearGradient3776"/><linearGradient id="linearGradient3880" x1="56" x2="53" y1="47" y2="39" gradientTransform="matrix(7.3106737,0,0,7.3106737,841.86203,1044.4732)" gradientUnits="userSpaceOnUse" xlink:href="#linearGradient3874"/><linearGradient id="linearGradient3874"><stop id="stop3876" offset="0" stop-color="#555753" stop-opacity="1"/><stop id="stop3878" offset="1" stop-color="#babdb6" stop-opacity="1"/></linearGradient><linearGradient id="linearGradient3872" x1="35" x2="24" y1="53" y2="9" gradientUnits="userSpaceOnUse" xlink:href="#linearGradient3866"/><linearGradient id="linearGradient3866"><stop id="stop3868" offset="0" stop-color="#d3d7cf" stop-opacity="1"/><stop id="stop3870" offset="1" stop-color="#fff" stop-opacity="1"/></linearGradient><linearGradient id="linearGradient3127" x1="58" x2="6" y1="38" y2="20" gradientTransform="matrix(0,7.3106737,7.3106737,0,900.34735,985.98777)" gradientUnits="userSpaceOnUse" xlink:href="#linearGradient3866"/><radialGradient id="radialGradient3863" cx="43.783" cy="41.446" r="12.458" fx="43.783" fy="41.446" gradientTransform="matrix(0.38461542,0.38461546,-0.84615388,0.84615382,61.897077,-11.243146)" gradientUnits="userSpaceOnUse" xlink:href="#linearGradient3857"/></defs><metadata id="metadata5826"/><g id="layer1"><g id="g3360" transform="matrix(0.1367863,0,0,0.1367863,-119.15519,-134.86962)"><path id="rect3005" fill="url(#linearGradient3127)" fill-opacity="1" fill-rule="evenodd" stroke="#3f3f3f" stroke-dasharray="none" stroke-dashoffset="0" stroke-linecap="butt" stroke-linejoin="round" stroke-miterlimit="4" stroke-opacity="1" stroke-width="14.621" d="m 922.27941,1007.9198 365.53359,0 0,350.9123 -73.1067,73.1069 -292.42689,0 z" color="#000" display="inline" enable-background="accumulate" overflow="visible" visibility="visible" style="marker:none"/><path id="path3096" fill="none" stroke="#fff" stroke-linecap="butt" stroke-linejoin="miter" stroke-opacity="1" stroke-width="14.621" d="m 1273.1917,1022.5412 -336.29092,0 0,394.7763 271.22592,0 65.065,-66.5271 z"/><path id="path3778" fill="url(#linearGradient3880)" fill-opacity="1" fill-rule="evenodd" stroke="#3f3f3f" stroke-dasharray="none" stroke-dashoffset="0" stroke-linecap="butt" stroke-linejoin="round" stroke-miterlimit="4" stroke-opacity="1" stroke-width="14.265" d="m 1287.8132,1358.8322 c 0,-7.3107 -29.2428,-29.2427 -58.4855,-29.2427 0,0 14.6213,73.1067 -14.6214,102.3494 z" color="#000" display="inline" enable-background="accumulate" overflow="visible" visibility="visible" style="marker:none"/><path id="path3125" fill="none" stroke="#babdb6" stroke-linecap="butt" stroke-linejoin="miter" stroke-opacity="1" stroke-width="14.621" d="m 1229.9528,1396.295 48.6777,-47.1803"/><path id="path3778-3" fill="none" stroke="#3f3f3f" stroke-dasharray="none" stroke-dashoffset="0" stroke-linecap="butt" stroke-linejoin="round" stroke-miterlimit="4" stroke-opacity="1" stroke-width="14.265" d="m 1287.8132,1358.8322 c 0,-7.3107 -29.2428,-29.2427 -58.4855,-29.2427 0,0 14.6213,73.1067 -14.6214,102.3494 z" color="#000" display="inline" enable-background="accumulate" overflow="visible" visibility="visible" style="marker:none"/><rect id="rect3860-3" width="190.077" height="190.078" x="958.833" y="1190.687" fill="none" stroke="url(#linearGradient3774)" stroke-dasharray="none" stroke-dashoffset="0" stroke-linecap="round" stroke-linejoin="round" stroke-miterlimit="4" stroke-opacity="1" stroke-width="29.243" color="#000" display="inline" enable-background="accumulate" overflow="visible" visibility="visible" style="marker:none"/><path id="path3862-6" fill="none" stroke="url(#linearGradient3782)" stroke-dasharray="none" stroke-dashoffset="0" stroke-linecap="round" stroke-linejoin="round" stroke-miterlimit="4" stroke-opacity="1" stroke-width="5.535" d="m 48.363636,33.272728 c 0,10.041541 -8.140277,18.181818 -18.181818,18.181818 C 20.140277,51.454546 12,43.314269 12,33.272728 12,23.231187 20.140277,15.09091 30.181818,15.09091 c 10.041541,0 18.181818,8.140277 18.181818,18.181818 z" color="#000" display="inline" enable-background="accumulate" overflow="visible" transform="matrix(5.4281292,0,0,5.1424383,996.04635,999.19155)" visibility="visible" style="marker:none"/><path id="rect3057" fill="#16d0d2" fill-opacity="1" stroke="#042a2a" stroke-dashoffset="2.04" stroke-linecap="round" stroke-linejoin="round" stroke-miterlimit="4" stroke-opacity="1" stroke-width="14.621" d="m 1200.085,1329.5894 29.2427,-29.2427 87.7281,87.7282 -29.2427,29.2426 z"/><path id="path3865" fill="none" stroke="#34e0e2" stroke-linecap="butt" stroke-linejoin="miter" stroke-opacity="1" stroke-width="14.621" d="m 1301.7035,1393.1923 -73.1068,-73.1067"/><path id="path3055" fill="url(#radialGradient3863)" fill-opacity="1" stroke="#042a2a" stroke-dasharray="none" stroke-dashoffset="2.04" stroke-linecap="round" stroke-linejoin="round" stroke-miterlimit="4" stroke-opacity="1" stroke-width="1.917" d="M 59,44.5 C 59,50.851275 53.851275,56 47.5,56 41.148725,56 36,50.851275 36,44.5 36,38.148725 41.148725,33 47.5,33 53.851275,33 59,38.148725 59,44.5 z" transform="matrix(7.6285292,0,0,7.6285292,808.48719,931.6345)"/><path id="path3055-1" fill="none" stroke="#34e0e2" stroke-dasharray="none" stroke-dashoffset="2.04" stroke-linecap="round" stroke-linejoin="round" stroke-miterlimit="4" stroke-opacity="1" stroke-width="2.3" d="M 59,44.5 C 59,50.851275 53.851275,56 47.5,56 41.148725,56 36,50.851275 36,44.5 36,38.148725 41.148725,33 47.5,33 53.851275,33 59,38.148725 59,44.5 z" transform="matrix(6.3571078,0,0,6.3571075,868.87971,988.21276)"/></g></g></svg>