<svg xmlns="http://www.w3.org/2000/svg" xmlns:svg="http://www.w3.org/2000/svg" xmlns:xlink="http://www.w3.org/1999/xlink" id="svg2918" width="64" height="64" version="1.1"><defs id="defs2920"><linearGradient id="linearGradient3144"><stop id="stop3146" offset="0" stop-color="#fff" stop-opacity="1"/><stop id="stop3148" offset="1" stop-color="#fff" stop-opacity="0"/></linearGradient><linearGradient id="linearGradient3144-3"><stop id="stop3146-1" offset="0" stop-color="#fff" stop-opacity="1"/><stop id="stop3148-5" offset="1" stop-color="#fff" stop-opacity="0"/></linearGradient><radialGradient id="radialGradient3958" cx="225.264" cy="672.797" r="34.345" fx="225.264" fy="672.797" gradientTransform="matrix(1,0,0,0.6985294,0,202.82863)" gradientUnits="userSpaceOnUse" xlink:href="#linearGradient3144"/><radialGradient id="radialGradient3960" cx="225.264" cy="672.797" r="34.345" fx="225.264" fy="672.797" gradientTransform="matrix(1,0,0,0.6985294,0,202.82863)" gradientUnits="userSpaceOnUse" xlink:href="#linearGradient3144-3"/><radialGradient id="radialGradient3042" cx="225.264" cy="672.797" r="34.345" fx="225.264" fy="672.797" gradientTransform="matrix(1,0,0,0.6985294,0,202.82863)" gradientUnits="userSpaceOnUse" xlink:href="#linearGradient3144"/><radialGradient id="radialGradient3068" cx="225.264" cy="672.797" r="34.345" fx="225.264" fy="672.797" gradientTransform="matrix(1,0,0,0.6985294,0,202.82863)" gradientUnits="userSpaceOnUse" xlink:href="#linearGradient3144"/><radialGradient id="radialGradient3880" cx="225.264" cy="672.797" r="34.345" fx="225.264" fy="672.797" gradientTransform="matrix(1,0,0,0.6985294,0,202.82863)" gradientUnits="userSpaceOnUse" xlink:href="#linearGradient3144"/><radialGradient id="radialGradient4654" cx="225.264" cy="672.797" r="34.345" fx="225.264" fy="672.797" gradientTransform="matrix(1,0,0,0.6985294,0,202.82863)" gradientUnits="userSpaceOnUse" xlink:href="#linearGradient3144"/><radialGradient id="radialGradient4693" cx="225.264" cy="672.797" r="34.345" fx="225.264" fy="672.797" gradientTransform="matrix(1,0,0,0.6985294,0,202.82863)" gradientUnits="userSpaceOnUse" xlink:href="#linearGradient3144"/><linearGradient id="linearGradient3131-2" x1="-18" x2="-22" y1="18" y2="5" gradientUnits="userSpaceOnUse" xlink:href="#linearGradient3836-9-3-9"/><linearGradient id="linearGradient3836-9-3-9"><stop id="stop3838-8-5-1" offset="0" stop-color="#a40000" stop-opacity="1"/><stop id="stop3840-1-6-2" offset="1" stop-color="#ef2929" stop-opacity="1"/></linearGradient><linearGradient id="linearGradient3171-7" x1="-18" x2="-22" y1="18" y2="5" gradientUnits="userSpaceOnUse" xlink:href="#linearGradient3836-9-3-6-0"/><linearGradient id="linearGradient3836-9-3-6-0"><stop id="stop3838-8-5-7-9" offset="0" stop-color="#a40000" stop-opacity="1"/><stop id="stop3840-1-6-5-3" offset="1" stop-color="#ef2929" stop-opacity="1"/></linearGradient><linearGradient id="linearGradient3262" x1="-18" x2="-22" y1="18" y2="5" gradientUnits="userSpaceOnUse" xlink:href="#linearGradient3836-9-3"/><linearGradient id="linearGradient3836-9-3"><stop id="stop3838-8-5" offset="0" stop-color="#a40000" stop-opacity="1"/><stop id="stop3840-1-6" offset="1" stop-color="#ef2929" stop-opacity="1"/></linearGradient><linearGradient id="linearGradient3836-9-3-6"><stop id="stop3838-8-5-7" offset="0" stop-color="#a40000" stop-opacity="1"/><stop id="stop3840-1-6-5" offset="1" stop-color="#ef2929" stop-opacity="1"/></linearGradient><linearGradient id="linearGradient3264-1" x1="-18" x2="-22" y1="18" y2="5" gradientTransform="matrix(0.93724177,0,0,0.93725692,-1.2227671,0.70650014)" gradientUnits="userSpaceOnUse" xlink:href="#linearGradient3836-9-3-6-7"/><linearGradient id="linearGradient3836-9-3-6-7"><stop id="stop3838-8-5-7-4" offset="0" stop-color="#a40000" stop-opacity="1"/><stop id="stop3840-1-6-5-0" offset="1" stop-color="#ef2929" stop-opacity="1"/></linearGradient><linearGradient id="linearGradient3148" x1="-18" x2="-22" y1="18" y2="5" gradientTransform="matrix(0.93724177,0,0,0.93725692,-1.2227671,0.70650014)" gradientUnits="userSpaceOnUse" xlink:href="#linearGradient3836-9-3-6-7"/><linearGradient id="linearGradient3264-9" x1="-18" x2="-22" y1="18" y2="5" gradientTransform="matrix(0.93724177,0,0,0.93725692,-1.2227671,0.70650014)" gradientUnits="userSpaceOnUse" xlink:href="#linearGradient3836-9-3-6-4"/><linearGradient id="linearGradient3836-9-3-6-4"><stop id="stop3838-8-5-7-8" offset="0" stop-color="#a40000" stop-opacity="1"/><stop id="stop3840-1-6-5-8" offset="1" stop-color="#ef2929" stop-opacity="1"/></linearGradient><linearGradient id="linearGradient3148-2" x1="-18" x2="-22" y1="18" y2="5" gradientTransform="matrix(0.93724177,0,0,0.93725692,-1.2227671,0.70650014)" gradientUnits="userSpaceOnUse" xlink:href="#linearGradient3836-9-3-6-4"/><linearGradient id="linearGradient3264-17" x1="-18" x2="-22" y1="18" y2="5" gradientTransform="matrix(0.93724177,0,0,0.93725692,-1.2227671,0.70650014)" gradientUnits="userSpaceOnUse" xlink:href="#linearGradient3836-9-3-6-1"/><linearGradient id="linearGradient3836-9-3-6-1"><stop id="stop3838-8-5-7-1" offset="0" stop-color="#a40000" stop-opacity="1"/><stop id="stop3840-1-6-5-5" offset="1" stop-color="#ef2929" stop-opacity="1"/></linearGradient><linearGradient id="linearGradient3148-27" x1="-18" x2="-22" y1="18" y2="5" gradientTransform="matrix(0.93724177,0,0,0.93725692,-1.2227671,0.70650014)" gradientUnits="userSpaceOnUse" xlink:href="#linearGradient3836-9-3-6-1"/><linearGradient id="linearGradient3264-3" x1="-18" x2="-22" y1="18" y2="5" gradientTransform="matrix(0.93724177,0,0,0.93725692,-1.2227671,0.70650014)" gradientUnits="userSpaceOnUse" xlink:href="#linearGradient3836-9-3-6-2"/><linearGradient id="linearGradient3836-9-3-6-2"><stop id="stop3838-8-5-7-2" offset="0" stop-color="#a40000" stop-opacity="1"/><stop id="stop3840-1-6-5-1" offset="1" stop-color="#ef2929" stop-opacity="1"/></linearGradient><linearGradient id="linearGradient3148-6" x1="-18" x2="-22" y1="18" y2="5" gradientTransform="matrix(0.93724177,0,0,0.93725692,-1.2227671,0.70650014)" gradientUnits="userSpaceOnUse" xlink:href="#linearGradient3836-9-3-6-2"/></defs><metadata id="metadata2923"/><g id="layer1"><g id="g3797-7-2-3" transform="matrix(0.80022917,0,0,0.80021784,25.46442,44.851557)"><path id="path4250-6-9-5" fill="#ef2929" stroke="#280000" stroke-dasharray="none" stroke-miterlimit="4" stroke-opacity="1" stroke-width="2" d="M -26.156204,5.582626 A 8.993818,8.9934077 0.02042283 1 1 -12.493793,17.282241 8.993818,8.9934077 0.02042283 1 1 -26.156204,5.582626 z"/><path id="path4250-7-0-1-6" fill="url(#linearGradient3148)" fill-opacity="1" stroke="#ef2929" stroke-dasharray="none" stroke-miterlimit="4" stroke-opacity="1" stroke-width="1.874" d="m -24.310395,7.1675632 a 6.5606921,6.5607986 0 1 1 9.966243,8.5350468 6.5606921,6.5607986 0 0 1 -9.966243,-8.5350468 z"/></g><g id="g3797-7-2-3-4" transform="matrix(0.80022917,0,0,0.80021784,65.46443,38.851563)"><path id="path4250-6-9-5-5" fill="#ef2929" stroke="#280000" stroke-dasharray="none" stroke-miterlimit="4" stroke-opacity="1" stroke-width="2" d="M -26.156204,5.582626 A 8.993818,8.9934077 0.02042283 1 1 -12.493793,17.282241 8.993818,8.9934077 0.02042283 1 1 -26.156204,5.582626 z"/><path id="path4250-7-0-1-6-5" fill="url(#linearGradient3148-2)" fill-opacity="1" stroke="#ef2929" stroke-dasharray="none" stroke-miterlimit="4" stroke-opacity="1" stroke-width="1.874" d="m -24.310395,7.1675632 a 6.5606921,6.5607986 0 1 1 9.966243,8.5350468 6.5606921,6.5607986 0 0 1 -9.966243,-8.5350468 z"/></g><g id="g3797-7-2-3-61" transform="matrix(0.80022917,0,0,0.80021784,69.46444,0.85155725)"><path id="path4250-6-9-5-4" fill="#ef2929" stroke="#280000" stroke-dasharray="none" stroke-miterlimit="4" stroke-opacity="1" stroke-width="2" d="M -26.156204,5.582626 A 8.993818,8.9934077 0.02042283 1 1 -12.493793,17.282241 8.993818,8.9934077 0.02042283 1 1 -26.156204,5.582626 z"/><path id="path4250-7-0-1-6-2" fill="url(#linearGradient3148-27)" fill-opacity="1" stroke="#ef2929" stroke-dasharray="none" stroke-miterlimit="4" stroke-opacity="1" stroke-width="1.874" d="m -24.310395,7.1675632 a 6.5606921,6.5607986 0 1 1 9.966243,8.5350468 6.5606921,6.5607986 0 0 1 -9.966243,-8.5350468 z"/></g><g id="g3797-7-2-3-8" transform="matrix(0.80022917,0,0,0.80021784,29.46443,6.8515633)"><path id="path4250-6-9-5-57" fill="#ef2929" stroke="#280000" stroke-dasharray="none" stroke-miterlimit="4" stroke-opacity="1" stroke-width="2" d="M -26.156204,5.582626 A 8.993818,8.9934077 0.02042283 1 1 -12.493793,17.282241 8.993818,8.9934077 0.02042283 1 1 -26.156204,5.582626 z"/><path id="path4250-7-0-1-6-6" fill="url(#linearGradient3148-6)" fill-opacity="1" stroke="#ef2929" stroke-dasharray="none" stroke-miterlimit="4" stroke-opacity="1" stroke-width="1.874" d="m -24.310395,7.1675632 a 6.5606921,6.5607986 0 1 1 9.966243,8.5350468 6.5606921,6.5607986 0 0 1 -9.966243,-8.5350468 z"/></g><path id="path3234" fill="none" stroke="#0b1521" stroke-linecap="butt" stroke-linejoin="round" stroke-opacity="1" stroke-width="8" d="M 18.03683,43.097253 C 7.277747,32.892933 20.57411,32.375692 26.13296,26.610578 31.69181,20.845465 40.2819,7.5075263 43.65006,17.778432 47.01821,28.049338 52.82174,28.55336 40.5588,36.914749 28.29587,45.276138 28.79591,53.301572 18.03683,43.097253 z"/><path id="path3234-1" fill="none" stroke="#3465a4" stroke-linecap="butt" stroke-linejoin="round" stroke-opacity="1" stroke-width="4" d="M 18.03683,43.097253 C 7.277747,32.892933 20.57411,32.375692 26.13296,26.610578 31.69181,20.845465 40.2819,7.5075265 43.65006,17.778432 47.01821,28.049338 52.82174,28.55336 40.5588,36.914749 28.29587,45.276138 28.79591,53.301572 18.03683,43.097253 z"/><path id="path3234-1-8" fill="none" stroke="#729fcf" stroke-linecap="butt" stroke-linejoin="round" stroke-opacity="1" stroke-width="2.053" d="M 18.491345,42.043833 C 7.133576,31.855558 20.48062,31.367001 25.88039,25.610953 31.28016,19.854905 40.17426,6.3907366 44.24134,17.056613 48.30842,27.72249 52.29783,27.799354 40.64055,35.742789 28.98327,43.686224 29.84911,52.232107 18.491345,42.043833 z"/></g></svg>