<svg xmlns="http://www.w3.org/2000/svg" xmlns:svg="http://www.w3.org/2000/svg" xmlns:xlink="http://www.w3.org/1999/xlink" id="svg2918" width="64" height="64" version="1.1"><defs id="defs2920"><linearGradient id="linearGradient3144"><stop id="stop3146" offset="0" stop-color="#fff" stop-opacity="1"/><stop id="stop3148" offset="1" stop-color="#fff" stop-opacity="0"/></linearGradient><linearGradient id="linearGradient3144-3"><stop id="stop3146-1" offset="0" stop-color="#fff" stop-opacity="1"/><stop id="stop3148-5" offset="1" stop-color="#fff" stop-opacity="0"/></linearGradient><radialGradient id="radialGradient3958" cx="225.264" cy="672.797" r="34.345" fx="225.264" fy="672.797" gradientTransform="matrix(1,0,0,0.6985294,0,202.82863)" gradientUnits="userSpaceOnUse" xlink:href="#linearGradient3144"/><radialGradient id="radialGradient3960" cx="225.264" cy="672.797" r="34.345" fx="225.264" fy="672.797" gradientTransform="matrix(1,0,0,0.6985294,0,202.82863)" gradientUnits="userSpaceOnUse" xlink:href="#linearGradient3144-3"/><radialGradient id="radialGradient4041" cx="225.264" cy="672.797" r="34.345" fx="225.264" fy="672.797" gradientTransform="matrix(1,0,0,0.6985294,0,202.82863)" gradientUnits="userSpaceOnUse" xlink:href="#linearGradient3144-3"/><radialGradient id="radialGradient4043" cx="225.264" cy="672.797" r="34.345" fx="225.264" fy="672.797" gradientTransform="matrix(1,0,0,0.6985294,0,202.82863)" gradientUnits="userSpaceOnUse" xlink:href="#linearGradient3144"/><radialGradient id="radialGradient3033" cx="225.264" cy="672.797" r="34.345" fx="225.264" fy="672.797" gradientTransform="matrix(1,0,0,0.6985294,0,202.82863)" gradientUnits="userSpaceOnUse" xlink:href="#linearGradient3144"/><radialGradient id="radialGradient3056" cx="225.264" cy="672.797" r="34.345" fx="225.264" fy="672.797" gradientTransform="matrix(1,0,0,0.6985294,0,202.82863)" gradientUnits="userSpaceOnUse" xlink:href="#linearGradient3144"/><radialGradient id="radialGradient3068" cx="225.264" cy="672.797" r="34.345" fx="225.264" fy="672.797" gradientTransform="matrix(1,0,0,0.6985294,0,202.82863)" gradientUnits="userSpaceOnUse" xlink:href="#linearGradient3144"/><radialGradient id="radialGradient3855" cx="225.264" cy="672.797" r="34.345" fx="225.264" fy="672.797" gradientTransform="matrix(1,0,0,0.6985294,0,202.82863)" gradientUnits="userSpaceOnUse" xlink:href="#linearGradient3144-3"/><radialGradient id="radialGradient3877" cx="225.264" cy="672.797" r="34.345" fx="225.264" fy="672.797" gradientTransform="matrix(0.91892149,0,0,0.63996913,366.5326,-2218.0799)" gradientUnits="userSpaceOnUse" xlink:href="#linearGradient3144"/><linearGradient id="linearGradient3203" x1="-18" x2="-22" y1="18" y2="5" gradientUnits="userSpaceOnUse" xlink:href="#linearGradient3836-9-3-7-2-7"/><linearGradient id="linearGradient3836-9-3-7-2-7"><stop id="stop3838-8-5-4-4-6" offset="0" stop-color="#a40000" stop-opacity="1"/><stop id="stop3840-1-6-0-5-1" offset="1" stop-color="#ef2929" stop-opacity="1"/></linearGradient><linearGradient id="linearGradient3075" x1="-18" x2="-22" y1="18" y2="5" gradientUnits="userSpaceOnUse" xlink:href="#linearGradient3186"/><linearGradient id="linearGradient3186"><stop id="stop3188" offset="0" stop-color="#4e9a06" stop-opacity="1"/><stop id="stop3190" offset="1" stop-color="#8ae234" stop-opacity="1"/></linearGradient><linearGradient id="linearGradient3292" x1="-18" x2="-22" y1="18" y2="5" gradientUnits="userSpaceOnUse" xlink:href="#linearGradient3186"/><linearGradient id="linearGradient3203-1" x1="-18" x2="-22" y1="18" y2="5" gradientUnits="userSpaceOnUse" xlink:href="#linearGradient3836-9-3-7-2-7-7"/><linearGradient id="linearGradient3836-9-3-7-2-7-7"><stop id="stop3838-8-5-4-4-6-4" offset="0" stop-color="#a40000" stop-opacity="1"/><stop id="stop3840-1-6-0-5-1-0" offset="1" stop-color="#ef2929" stop-opacity="1"/></linearGradient><linearGradient id="linearGradient3079" x1="-18" x2="-22" y1="18" y2="5" gradientUnits="userSpaceOnUse" xlink:href="#linearGradient3836-9-3-7-2-7-7"/></defs><metadata id="metadata2923"/><g id="layer1"><g id="g4470" transform="matrix(0.1460346,0,0,0.1460346,-220.10298,-56.296235)"><g id="g3797-7-2-3" transform="matrix(6.8476923,0,0,6.8476923,1851.8272,663.27486)"><path id="path4250-6-9-5" fill="#8ae234" stroke="#172a04" stroke-dasharray="none" stroke-miterlimit="4" stroke-opacity="1" stroke-width="2" d="M -26.156204,5.582626 A 8.993818,8.9934077 0.02042283 1 1 -12.493793,17.282241 8.993818,8.9934077 0.02042283 1 1 -26.156204,5.582626 z"/><path id="path4250-7-0-1-6" fill="url(#linearGradient3292)" fill-opacity="1" stroke="#8ae234" stroke-dasharray="none" stroke-miterlimit="4" stroke-opacity="1" stroke-width="2" d="M -24.633588,6.893588 A 6.9999997,7.0000001 0 1 1 -14,16 6.9999997,7.0000001 0 0 1 -24.633588,6.893588 z"/></g><path id="path3102" fill="none" stroke="#2e3436" stroke-linecap="butt" stroke-linejoin="miter" stroke-opacity="1" stroke-width="54.782" d="m 1589.3698,467.6716 c 0,0 13.6953,164.34461 130.1061,164.34461 116.4108,0 143.8016,-164.34461 143.8016,-164.34461"/><path id="path3102-8" fill="none" stroke="#d3d7cf" stroke-linecap="butt" stroke-linejoin="miter" stroke-opacity="1" stroke-width="27.391" d="m 1589.3698,467.6716 c 0,0 13.6954,164.34462 130.1062,164.34462 116.4107,0 143.8015,-164.34462 143.8015,-164.34462"/><path id="path3102-2" fill="none" stroke="#fff" stroke-linecap="butt" stroke-linejoin="miter" stroke-opacity="1" stroke-width="13.695" d="m 1596.2175,460.82391 c 0,0 6.8476,164.34461 123.2584,164.34461 116.4107,0 136.9539,-164.34461 136.9539,-164.34461"/><g id="g3797-7-2-9-5-4" transform="matrix(6.8476923,0,0,6.8476923,1721.6818,389.36717)"><path id="path4250-6-9-4-1-2" fill="#ef2929" stroke="#280000" stroke-dasharray="none" stroke-miterlimit="4" stroke-opacity="1" stroke-width="2" d="M -26.156204,5.582626 A 8.993818,8.9934077 0.02042283 1 1 -12.493793,17.282241 8.993818,8.9934077 0.02042283 1 1 -26.156204,5.582626 z"/><path id="path4250-7-0-1-8-7-3" fill="url(#linearGradient3203)" fill-opacity="1" stroke="#ef2929" stroke-dasharray="none" stroke-miterlimit="4" stroke-opacity="1" stroke-width="2" d="M -24.633588,6.893588 A 6.9999997,7.0000001 0 1 1 -14,16 6.9999997,7.0000001 0 0 1 -24.633588,6.893588 z"/></g><g id="g3797-7-2-9-5-4-9" transform="matrix(6.8476923,0,0,6.8476923,1995.5895,389.40446)"><path id="path4250-6-9-4-1-2-4" fill="#ef2929" stroke="#280000" stroke-dasharray="none" stroke-miterlimit="4" stroke-opacity="1" stroke-width="2" d="M -26.156204,5.582626 A 8.993818,8.9934077 0.02042283 1 1 -12.493793,17.282241 8.993818,8.9934077 0.02042283 1 1 -26.156204,5.582626 z"/><path id="path4250-7-0-1-8-7-3-8" fill="url(#linearGradient3079)" fill-opacity="1" stroke="#ef2929" stroke-dasharray="none" stroke-miterlimit="4" stroke-opacity="1" stroke-width="2" d="M -24.633588,6.893588 A 6.9999997,7.0000001 0 1 1 -14,16 6.9999997,7.0000001 0 0 1 -24.633588,6.893588 z"/></g></g></g></svg>