<svg xmlns="http://www.w3.org/2000/svg" xmlns:svg="http://www.w3.org/2000/svg" xmlns:xlink="http://www.w3.org/1999/xlink" id="svg2726" width="64" height="64" version="1.1"><defs id="defs2728"><marker id="Arrow2Lend" orient="auto" overflow="visible" refX="0" refY="0"><path id="path3837" fill-rule="evenodd" stroke-linejoin="round" stroke-width=".625" d="M 8.7185878,4.0337352 L -2.2072895,0.016013256 L 8.7185884,-4.0017078 C 6.9730900,-1.6296469 6.9831476,1.6157441 8.7185878,4.0337352 z" font-size="12" transform="scale(1.1) rotate(180) translate(1,0)"/></marker><linearGradient id="linearGradient3801-1-3" x1="-18" x2="-22" y1="18" y2="5" gradientTransform="matrix(0.76342439,0,0,0.75750425,-4.596389,2.7525637)" gradientUnits="userSpaceOnUse" xlink:href="#linearGradient3836-0-6"/><linearGradient id="linearGradient3836-0-6"><stop id="stop3838-2-7" offset="0" stop-color="#a40000" stop-opacity="1"/><stop id="stop3840-5-5" offset="1" stop-color="#ef2929" stop-opacity="1"/></linearGradient><linearGradient id="linearGradient3836-0-6-6"><stop id="stop3838-2-7-7" offset="0" stop-color="#a40000" stop-opacity="1"/><stop id="stop3840-5-5-5" offset="1" stop-color="#ef2929" stop-opacity="1"/></linearGradient><linearGradient id="linearGradient3836-0-6-7"><stop id="stop3838-2-7-5" offset="0" stop-color="#a40000" stop-opacity="1"/><stop id="stop3840-5-5-3" offset="1" stop-color="#ef2929" stop-opacity="1"/></linearGradient><linearGradient id="linearGradient3836-0-6-2"><stop id="stop3838-2-7-70" offset="0" stop-color="#a40000" stop-opacity="1"/><stop id="stop3840-5-5-9" offset="1" stop-color="#ef2929" stop-opacity="1"/></linearGradient><linearGradient id="linearGradient3836-0-6-7-7"><stop id="stop3838-2-7-5-9" offset="0" stop-color="#a40000" stop-opacity="1"/><stop id="stop3840-5-5-3-2" offset="1" stop-color="#ef2929" stop-opacity="1"/></linearGradient><linearGradient id="linearGradient3836-0-6-7-9"><stop id="stop3838-2-7-5-2" offset="0" stop-color="#a40000" stop-opacity="1"/><stop id="stop3840-5-5-3-28" offset="1" stop-color="#ef2929" stop-opacity="1"/></linearGradient><linearGradient id="linearGradient3801-1-3-2" x1="-18" x2="-22" y1="18" y2="5" gradientTransform="matrix(0.84956703,0,0,0.84301394,-2.927337,1.7790378)" gradientUnits="userSpaceOnUse" xlink:href="#linearGradient3836-0-6-9"/><linearGradient id="linearGradient3836-0-6-9"><stop id="stop3838-2-7-3" offset="0" stop-color="#a40000" stop-opacity="1"/><stop id="stop3840-5-5-1" offset="1" stop-color="#ef2929" stop-opacity="1"/></linearGradient><linearGradient id="linearGradient3836-0-6-5"><stop id="stop3838-2-7-0" offset="0" stop-color="#a40000" stop-opacity="1"/><stop id="stop3840-5-5-36" offset="1" stop-color="#ef2929" stop-opacity="1"/></linearGradient><linearGradient id="linearGradient3836-0-6-61"><stop id="stop3838-2-7-55" offset="0" stop-color="#a40000" stop-opacity="1"/><stop id="stop3840-5-5-4" offset="1" stop-color="#ef2929" stop-opacity="1"/></linearGradient><linearGradient id="linearGradient3836-0-6-3"><stop id="stop3838-2-7-74" offset="0" stop-color="#a40000" stop-opacity="1"/><stop id="stop3840-5-5-52" offset="1" stop-color="#ef2929" stop-opacity="1"/></linearGradient><linearGradient id="linearGradient3801-1-3-2-0" x1="-18" x2="-22" y1="18" y2="5" gradientTransform="matrix(0.84956703,0,0,0.84301394,-2.927337,1.7790378)" gradientUnits="userSpaceOnUse" xlink:href="#linearGradient3836-0-6-9-7"/><linearGradient id="linearGradient3836-0-6-9-7"><stop id="stop3838-2-7-3-8" offset="0" stop-color="#a40000" stop-opacity="1"/><stop id="stop3840-5-5-1-6" offset="1" stop-color="#ef2929" stop-opacity="1"/></linearGradient><linearGradient id="linearGradient3801-1-3-14" x1="-18" x2="-22" y1="18" y2="5" gradientTransform="matrix(0.76342439,0,0,0.75750425,-4.596389,2.7525637)" gradientUnits="userSpaceOnUse" xlink:href="#linearGradient3836-0-6-92"/><linearGradient id="linearGradient3836-0-6-92"><stop id="stop3838-2-7-06" offset="0" stop-color="#a40000" stop-opacity="1"/><stop id="stop3840-5-5-8" offset="1" stop-color="#ef2929" stop-opacity="1"/></linearGradient><linearGradient id="linearGradient3801-1-3-14-0" x1="-18" x2="-22" y1="18" y2="5" gradientTransform="matrix(0.76342439,0,0,0.75750425,-4.596389,2.7525637)" gradientUnits="userSpaceOnUse" xlink:href="#linearGradient3836-0-6-92-4"/><linearGradient id="linearGradient3836-0-6-92-4"><stop id="stop3838-2-7-06-8" offset="0" stop-color="#a40000" stop-opacity="1"/><stop id="stop3840-5-5-8-7" offset="1" stop-color="#ef2929" stop-opacity="1"/></linearGradient><linearGradient id="linearGradient3801-1-3-14-2" x1="-18" x2="-22" y1="18" y2="5" gradientTransform="matrix(0.76342439,0,0,0.75750425,-4.596389,2.7525637)" gradientUnits="userSpaceOnUse" xlink:href="#linearGradient3836-0-6-92-2"/><linearGradient id="linearGradient3836-0-6-92-2"><stop id="stop3838-2-7-06-6" offset="0" stop-color="#a40000" stop-opacity="1"/><stop id="stop3840-5-5-8-1" offset="1" stop-color="#ef2929" stop-opacity="1"/></linearGradient></defs><metadata id="metadata2731"/><g id="layer1"><g id="g3401" transform="matrix(0.0544775,-0.0359434,0.02142365,0.09139929,29.04045,-32.878566)"><path id="path3061-3" fill="#d3d7cf" stroke="#2e3436" stroke-linecap="butt" stroke-linejoin="miter" stroke-opacity="1" stroke-width="26.377" d="m 104.82037,809.42022 83.25743,-13.6772 -248.6155,-321.25493 -83.25742,13.67719 z"/><path id="path3063-6" fill="none" stroke="#fff" stroke-linecap="butt" stroke-linejoin="miter" stroke-opacity="1" stroke-width="26.377" d="M 124.75712,754.34163 -77.06462,493.55268"/><path id="path3061" fill="#d3d7cf" stroke="#2e3436" stroke-linecap="butt" stroke-linejoin="miter" stroke-opacity="1" stroke-width="26.377" d="m -534.00119,558.20193 -51.6384,-66.72587 400.84702,-65.84956 51.6383,66.72587 z"/><path id="path3063" fill="none" stroke="#fff" stroke-linecap="butt" stroke-linejoin="miter" stroke-opacity="1" stroke-width="26.377" d="m -511.07947,504.29716 325.4004,-53.45537"/><g id="g3827-1-3" transform="matrix(8.9245851,3.5096547,-2.1082516,5.3610043,-588.47306,200.34875)"><g id="g3797-9-5" transform="translate(31.322131,40.570289)"><path id="path4250-71-6" fill="#ef2929" stroke="#280000" stroke-dasharray="none" stroke-miterlimit="4" stroke-opacity="1" stroke-width="3.549" d="M -26.118221,5.6643347 A 8.9379793,8.8680774 0 1 1 -12.540634,17.200906 8.9379793,8.8680774 0 1 1 -26.118221,5.6643347 z"/><path id="path4250-7-3-2" fill="url(#linearGradient3801-1-3)" fill-opacity="1" stroke="#ef2929" stroke-dasharray="none" stroke-miterlimit="4" stroke-opacity="1" stroke-width="3.549" d="m -23.40227,7.9744858 a 5.3439706,5.3025298 0 1 1 8.11794,6.8981452 5.3439706,5.3025298 0 0 1 -8.11794,-6.8981452 z"/></g></g><g id="g3827-1-3-9" transform="matrix(10.692662,4.2049633,-2.5259361,6.4231205,-113.06345,49.783413)"><g id="g3797-9-5-4" transform="translate(31.322131,40.570289)"><path id="path4250-71-6-7" fill="#ef2929" stroke="#280000" stroke-dasharray="none" stroke-miterlimit="4" stroke-opacity="1" stroke-width="2.962" d="M -26.118221,5.6643347 A 8.9379793,8.8680774 0 1 1 -12.540634,17.200906 8.9379793,8.8680774 0 1 1 -26.118221,5.6643347 z"/><path id="path4250-7-3-2-8" fill="url(#linearGradient3801-1-3-2)" fill-opacity="1" stroke="#ef2929" stroke-dasharray="none" stroke-miterlimit="4" stroke-opacity="1" stroke-width="2.962" d="m -23.855221,7.5904285 a 5.9469691,5.9010977 0 1 1 9.033946,7.6768315 5.9469691,5.9010977 0 0 1 -9.033946,-7.6768315 z"/></g></g><g id="g3827-1-3-9-8" transform="matrix(10.692662,4.2049633,-2.5259361,6.4231204,-262.11704,428.80723)"><g id="g3797-9-5-4-8" transform="translate(31.322131,40.570289)"><path id="path4250-71-6-7-4" fill="#ef2929" stroke="#280000" stroke-dasharray="none" stroke-miterlimit="4" stroke-opacity="1" stroke-width="2.962" d="M -26.118221,5.6643347 A 8.9379793,8.8680774 0 1 1 -12.540634,17.200906 8.9379793,8.8680774 0 1 1 -26.118221,5.6643347 z"/><path id="path4250-7-3-2-8-3" fill="url(#linearGradient3801-1-3-2-0)" fill-opacity="1" stroke="#ef2929" stroke-dasharray="none" stroke-miterlimit="4" stroke-opacity="1" stroke-width="2.962" d="m -23.855221,7.5904285 a 5.9469691,5.9010977 0 1 1 9.033946,7.6768315 5.9469691,5.9010977 0 0 1 -9.033946,-7.6768315 z"/></g></g><g id="g3827-1-3-92" transform="matrix(8.9245851,3.5096547,-2.1082517,5.3610043,174.29666,500.02902)"><g id="g3797-9-5-66" transform="translate(31.322131,40.570289)"><path id="path4250-71-6-49" fill="#ef2929" stroke="#280000" stroke-dasharray="none" stroke-miterlimit="4" stroke-opacity="1" stroke-width="3.549" d="M -26.118221,5.6643347 A 8.9379793,8.8680774 0 1 1 -12.540634,17.200906 8.9379793,8.8680774 0 1 1 -26.118221,5.6643347 z"/><path id="path4250-7-3-2-5" fill="url(#linearGradient3801-1-3-14)" fill-opacity="1" stroke="#ef2929" stroke-dasharray="none" stroke-miterlimit="4" stroke-opacity="1" stroke-width="3.549" d="m -23.40227,7.9744858 a 5.3439706,5.3025298 0 1 1 8.11794,6.8981452 5.3439706,5.3025298 0 0 1 -8.11794,-6.8981452 z"/></g></g><g id="g3523" transform="matrix(0.96303858,-0.01453533,-0.01453533,0.99428388,14.253648,-38.158671)"><path id="path3347" fill="none" stroke="#2e3436" stroke-dasharray="none" stroke-linecap="butt" stroke-linejoin="miter" stroke-miterlimit="0" stroke-opacity="1" stroke-width="107.834" d="m -464.5106,538.94735 c 173.77747,7.74279 377.963123,88.04019 535.987387,210.78068"/><path id="path3347-3" fill="none" stroke="#d3d7cf" stroke-linecap="butt" stroke-linejoin="miter" stroke-opacity="1" stroke-width="53.917" d="m -464.51065,538.94727 c 173.77749,7.74283 377.96312,88.04017 535.987421,210.78076"/><path id="path3347-3-9" fill="none" stroke="#fff" stroke-linecap="butt" stroke-linejoin="miter" stroke-opacity="1" stroke-width="26.958" d="m -461.01114,530.22413 c 173.7775,7.74283 377.963119,88.04017 535.987427,210.78076"/></g><g id="g3827-1-3-92-1" transform="matrix(8.9245851,3.5096547,-2.1082517,5.3610043,45.131207,361.70579)"><g id="g3797-9-5-66-7" transform="translate(31.322131,40.570289)"><path id="path4250-71-6-49-2" fill="#ef2929" stroke="#280000" stroke-dasharray="none" stroke-miterlimit="4" stroke-opacity="1" stroke-width="3.549" d="M -26.118221,5.6643347 A 8.9379793,8.8680774 0 1 1 -12.540634,17.200906 8.9379793,8.8680774 0 1 1 -26.118221,5.6643347 z"/><path id="path4250-7-3-2-5-7" fill="url(#linearGradient3801-1-3-14-0)" fill-opacity="1" stroke="#ef2929" stroke-dasharray="none" stroke-miterlimit="4" stroke-opacity="1" stroke-width="3.549" d="m -23.40227,7.9744858 a 5.3439706,5.3025298 0 1 1 8.11794,6.8981452 5.3439706,5.3025298 0 0 1 -8.11794,-6.8981452 z"/></g></g><g id="g3827-1-3-92-0" transform="matrix(8.9245851,3.5096547,-2.1082517,5.3610043,-400.00216,186.65402)"><g id="g3797-9-5-66-6" transform="translate(31.322131,40.570289)"><path id="path4250-71-6-49-1" fill="#ef2929" stroke="#280000" stroke-dasharray="none" stroke-miterlimit="4" stroke-opacity="1" stroke-width="3.549" d="M -26.118221,5.6643347 A 8.9379793,8.8680774 0 1 1 -12.540634,17.200906 8.9379793,8.8680774 0 1 1 -26.118221,5.6643347 z"/><path id="path4250-7-3-2-5-5" fill="url(#linearGradient3801-1-3-14-2)" fill-opacity="1" stroke="#ef2929" stroke-dasharray="none" stroke-miterlimit="4" stroke-opacity="1" stroke-width="3.549" d="m -23.40227,7.9744858 a 5.3439706,5.3025298 0 1 1 8.11794,6.8981452 5.3439706,5.3025298 0 0 1 -8.11794,-6.8981452 z"/></g></g></g></g></svg>