<svg xmlns="http://www.w3.org/2000/svg" xmlns:svg="http://www.w3.org/2000/svg" xmlns:xlink="http://www.w3.org/1999/xlink" id="svg2726" width="64" height="64" version="1.1"><defs id="defs2728"><radialGradient id="radialGradient4274" cx="225.264" cy="672.797" r="34.345" fx="225.264" fy="672.797" gradientTransform="matrix(1,0,0,0.6985294,0,202.82863)" gradientUnits="userSpaceOnUse" xlink:href="#linearGradient3144"/><linearGradient id="linearGradient3144"><stop id="stop3146" offset="0" stop-color="#fff" stop-opacity="1"/><stop id="stop3148" offset="1" stop-color="#fff" stop-opacity="0"/></linearGradient><radialGradient id="radialGradient4272" cx="225.264" cy="672.797" r="34.345" fx="225.264" fy="672.797" gradientTransform="matrix(1,0,0,0.6985294,0,202.82863)" gradientUnits="userSpaceOnUse" xlink:href="#linearGradient3144"/><linearGradient id="linearGradient3801-1" x1="-18" x2="-22" y1="18" y2="5" gradientUnits="userSpaceOnUse" xlink:href="#linearGradient3836-0"/><linearGradient id="linearGradient3836-0"><stop id="stop3838-2" offset="0" stop-color="#c4a000" stop-opacity="1"/><stop id="stop3840-5" offset="1" stop-color="#fce94f" stop-opacity="1"/></linearGradient><linearGradient id="linearGradient3801-1-3" x1="-18" x2="-22" y1="18" y2="5" gradientUnits="userSpaceOnUse" xlink:href="#linearGradient3836-0-6"/><linearGradient id="linearGradient3836-0-6"><stop id="stop3838-2-7" offset="0" stop-color="#a40000" stop-opacity="1"/><stop id="stop3840-5-5" offset="1" stop-color="#ef2929" stop-opacity="1"/></linearGradient><linearGradient id="linearGradient3801-1-3-3" x1="-18" x2="-22" y1="18" y2="5" gradientUnits="userSpaceOnUse" xlink:href="#linearGradient3836-0-6-6"/><linearGradient id="linearGradient3836-0-6-6"><stop id="stop3838-2-7-7" offset="0" stop-color="#a40000" stop-opacity="1"/><stop id="stop3840-5-5-5" offset="1" stop-color="#ef2929" stop-opacity="1"/></linearGradient></defs><metadata id="metadata2731"/><g id="layer1"><g id="g4289" transform="matrix(0.1621282,0,0,0.1621282,6.3605986,-66.108806)"><g id="g3242"><g id="g3154" transform="matrix(-0.9996417,2.6765153e-2,-2.6765153e-2,-0.9996417,238.03783,1359.7845)"><path id="path3061" fill="#3465a4" stroke="#0b1521" stroke-linecap="butt" stroke-linejoin="miter" stroke-opacity="1" stroke-width="12.336" d="M 162.40856,627.63483 187.86722,654.49428 -80.727347,909.08082 -106.186,882.22137 z"/><path id="path3063" fill="none" stroke="#729fcf" stroke-linecap="butt" stroke-linejoin="miter" stroke-opacity="1" stroke-width="12.336" d="M 173.54199,651.07562 -83.374613,894.59322"/><g id="g3827-1-3" transform="matrix(-6.1657491,-0.16508637,0.16508637,-6.1657491,251.65298,959.14094)"><g id="g3797-9-5" transform="translate(31.322131,40.570289)"><path id="path4250-71-6" fill="none" stroke="#280000" stroke-dasharray="none" stroke-miterlimit="4" stroke-opacity="1" stroke-width="2" d="M -26.156204,5.582626 A 8.993818,8.9934077 0.02042283 1 1 -12.493793,17.282241 8.993818,8.9934077 0.02042283 1 1 -26.156204,5.582626 z"/><path id="path4250-7-3-2" fill="url(#linearGradient3801-1-3)" fill-opacity="1" stroke="#ef2929" stroke-dasharray="none" stroke-miterlimit="4" stroke-opacity="1" stroke-width="2" d="M -24.633588,6.893588 A 6.9999997,7.0000001 0 1 1 -14,16 6.9999997,7.0000001 0 0 1 -24.633588,6.893588 z"/></g></g><g id="g3827-1-3-3" transform="matrix(-6.1657491,-0.16508637,0.16508637,-6.1657491,-1.5804401,1199.1674)"><g id="g3797-9-5-5" transform="translate(31.322131,40.570289)"><path id="path4250-71-6-6" fill="none" stroke="#280000" stroke-dasharray="none" stroke-miterlimit="4" stroke-opacity="1" stroke-width="2" d="M -26.156204,5.582626 A 8.993818,8.9934077 0.02042283 1 1 -12.493793,17.282241 8.993818,8.9934077 0.02042283 1 1 -26.156204,5.582626 z"/><path id="path4250-7-3-2-2" fill="url(#linearGradient3801-1-3-3)" fill-opacity="1" stroke="#ef2929" stroke-dasharray="none" stroke-miterlimit="4" stroke-opacity="1" stroke-width="2" d="M -24.633588,6.893588 A 6.9999997,7.0000001 0 1 1 -14,16 6.9999997,7.0000001 0 0 1 -24.633588,6.893588 z"/></g></g></g></g></g></g></svg>