<svg xmlns="http://www.w3.org/2000/svg" xmlns:svg="http://www.w3.org/2000/svg" xmlns:xlink="http://www.w3.org/1999/xlink" id="svg2327" width="64" height="64" version="1.1"><defs id="defs2329"><linearGradient id="linearGradient12512"><stop id="stop12513" offset="0" stop-color="#fff" stop-opacity="1"/><stop id="stop12517" offset=".5" stop-color="#fff520" stop-opacity=".891"/><stop id="stop12514" offset="1" stop-color="#fff300" stop-opacity="0"/></linearGradient><linearGradient id="linearGradient3175-7-9-9" x1="-24.89" x2="-12.869" y1="10.114" y2="13.65" gradientTransform="matrix(0.71407942,-2.2117406e-4,-2.2117406e-4,0.71407942,-7.298935,3.2580261)" gradientUnits="userSpaceOnUse" xlink:href="#linearGradient3836-9-9-1-1"/><linearGradient id="linearGradient3836-9-9-1-1"><stop id="stop3838-8-20-2-2" offset="0" stop-color="#4e9a06" stop-opacity="1"/><stop id="stop3840-1-2-7-7" offset="1" stop-color="#8ae234" stop-opacity="1"/></linearGradient><linearGradient id="linearGradient3175-7-9-3" x1="-24.89" x2="-12.869" y1="10.114" y2="13.65" gradientTransform="matrix(0.71407942,-2.2117406e-4,-2.2117406e-4,0.71407942,-7.298935,3.2580261)" gradientUnits="userSpaceOnUse" xlink:href="#linearGradient3836-9-9-1-6"/><linearGradient id="linearGradient3836-9-9-1-6"><stop id="stop3838-8-20-2-7" offset="0" stop-color="#4e9a06" stop-opacity="1"/><stop id="stop3840-1-2-7-5" offset="1" stop-color="#8ae234" stop-opacity="1"/></linearGradient><linearGradient id="linearGradient3175-7-0" x1="-24.89" x2="-12.869" y1="10.114" y2="13.65" gradientTransform="matrix(0.71407942,-2.2117406e-4,-2.2117406e-4,0.71407942,-7.298935,3.2580261)" gradientUnits="userSpaceOnUse" xlink:href="#linearGradient3836-9-9-62"/><linearGradient id="linearGradient3836-9-9-62"><stop id="stop3838-8-20-6" offset="0" stop-color="#204a87" stop-opacity="1"/><stop id="stop3840-1-2-1" offset="1" stop-color="#729fcf" stop-opacity="1"/></linearGradient><linearGradient id="linearGradient3175-7-9" x1="-24.89" x2="-12.869" y1="10.114" y2="13.65" gradientTransform="matrix(0.71407942,-2.2117406e-4,-2.2117406e-4,0.71407942,-7.298935,3.2580261)" gradientUnits="userSpaceOnUse" xlink:href="#linearGradient3836-9-9-1"/><linearGradient id="linearGradient3836-9-9-1"><stop id="stop3838-8-20-2" offset="0" stop-color="#4e9a06" stop-opacity="1"/><stop id="stop3840-1-2-7" offset="1" stop-color="#8ae234" stop-opacity="1"/></linearGradient><linearGradient id="linearGradient3933" x1="27" x2="33" y1="-41.392" y2="-31" gradientTransform="translate(-12,3)" gradientUnits="userSpaceOnUse" xlink:href="#linearGradient3927"/><linearGradient id="linearGradient3927"><stop id="stop3929" offset="0" stop-color="#fff" stop-opacity="1"/><stop id="stop3931" offset="1" stop-color="#d3d7cf" stop-opacity="1"/></linearGradient><linearGradient id="linearGradient3925" x1="-24" x2="-12" y1="-18" y2="-18" gradientUnits="userSpaceOnUse" xlink:href="#linearGradient3919"/><linearGradient id="linearGradient3919"><stop id="stop3921" offset="0" stop-color="#fff" stop-opacity="1"/><stop id="stop3923" offset="1" stop-color="#d3d7cf" stop-opacity="1"/></linearGradient><linearGradient id="linearGradient3917" x1="-24" x2="-12" y1="-18" y2="-18" gradientUnits="userSpaceOnUse" xlink:href="#linearGradient3911"/><linearGradient id="linearGradient3911"><stop id="stop3913" offset="0" stop-color="#fff" stop-opacity="1"/><stop id="stop3915" offset="1" stop-color="#d3d7cf" stop-opacity="1"/></linearGradient><linearGradient id="linearGradient3126" x1="-24" x2="-12" y1="-18" y2="-18" gradientUnits="userSpaceOnUse" xlink:href="#linearGradient3919"/><linearGradient id="linearGradient3128" x1="-24" x2="-12" y1="-18" y2="-18" gradientUnits="userSpaceOnUse" xlink:href="#linearGradient3911"/><linearGradient id="linearGradient3130" x1="27" x2="33" y1="-41.392" y2="-31" gradientTransform="translate(-12,3)" gradientUnits="userSpaceOnUse" xlink:href="#linearGradient3927"/></defs><metadata id="metadata2332"/><g id="layer1" transform="translate(0,48)"><g id="g3827-0-6" transform="matrix(-0.70710678,-0.70710678,0.70710678,-0.70710678,15.710469,41.260726)"><g id="g3797-7-26" transform="translate(31.322131,40.570289)"><path id="path3098" fill="none" stroke="#2e3436" stroke-linecap="butt" stroke-linejoin="miter" stroke-opacity="1" stroke-width="6" d="m -71,55 12,-20 24,10 10,-24" transform="matrix(-0.70710678,0.70710678,-0.70710678,-0.70710678,-13.66483,68.006139)"/><path id="path3098-2" fill="none" stroke="#d3d7cf" stroke-linecap="butt" stroke-linejoin="miter" stroke-opacity="1" stroke-width="2" d="M -2.3511211,-21.089315 3.3057332,1.5381016 -20.735897,11.437597 -10.836402,35.479228"/></g></g><g id="g3827-0-3-0" transform="matrix(-0.56566693,-0.56602472,0.56566693,-0.56602472,31.369045,8.2255155)"><g id="g3797-7-7-9" transform="translate(31.322131,40.570289)"><path id="path4250-6-5-3" fill="#8ae234" stroke="#172a04" stroke-dasharray="none" stroke-miterlimit="4" stroke-opacity="1" stroke-width="2.499" d="M -26.786446,6.5589777 A 7.4951344,7.4959705 57.071167 1 1 -15.40027,16.309215 7.4951344,7.4959705 57.071167 1 1 -26.786446,6.5589777 z"/><path id="path4250-7-0-9-6" fill="url(#linearGradient3175-7-9)" fill-opacity="1" stroke="#8ae234" stroke-dasharray="none" stroke-miterlimit="4" stroke-opacity="1" stroke-width="2.499" d="m -24.890798,8.1860437 a 4.9970076,5.0001041 44.997358 1 1 7.591212,6.5003493 4.9970076,5.0001041 44.997358 0 1 -7.591212,-6.5003493 z"/></g></g><g id="g3827-0-3-8" transform="matrix(-0.56566693,-0.56602472,0.56566693,-0.56602472,21.369045,32.225516)"><g id="g3797-7-7-7" transform="translate(31.322131,40.570289)"><path id="path4250-6-5-9" fill="#729fcf" stroke="#0b1521" stroke-dasharray="none" stroke-miterlimit="4" stroke-opacity="1" stroke-width="2.499" d="M -26.786446,6.5589777 A 7.4951344,7.4959705 57.071167 1 1 -15.40027,16.309215 7.4951344,7.4959705 57.071167 1 1 -26.786446,6.5589777 z"/><path id="path4250-7-0-9-20" fill="url(#linearGradient3175-7-0)" fill-opacity="1" stroke="#729fcf" stroke-dasharray="none" stroke-miterlimit="4" stroke-opacity="1" stroke-width="2.499" d="m -24.890798,8.1860437 a 4.9970076,5.0001041 44.997358 1 1 7.591212,6.5003493 4.9970076,5.0001041 44.997358 0 1 -7.591212,-6.5003493 z"/></g></g><g id="g3827-0-3-0-3" transform="matrix(-0.56566693,-0.56602472,0.56566693,-0.56602472,-14.630955,42.225516)"><g id="g3797-7-7-9-5" transform="translate(31.322131,40.570289)"><path id="path4250-6-5-3-6" fill="#8ae234" stroke="#172a04" stroke-dasharray="none" stroke-miterlimit="4" stroke-opacity="1" stroke-width="2.499" d="M -26.786446,6.5589777 A 7.4951344,7.4959705 57.071167 1 1 -15.40027,16.309215 7.4951344,7.4959705 57.071167 1 1 -26.786446,6.5589777 z"/><path id="path4250-7-0-9-6-2" fill="url(#linearGradient3175-7-9-3)" fill-opacity="1" stroke="#8ae234" stroke-dasharray="none" stroke-miterlimit="4" stroke-opacity="1" stroke-width="2.499" d="m -24.890798,8.1860437 a 4.9970076,5.0001041 44.997358 1 1 7.591212,6.5003493 4.9970076,5.0001041 44.997358 0 1 -7.591212,-6.5003493 z"/></g></g><g id="g3827-0-3-0-0" transform="matrix(-0.56566693,-0.56602472,0.56566693,-0.56602472,-2.6309552,22.225516)"><g id="g3797-7-7-9-9" transform="translate(31.322131,40.570289)"><path id="path4250-6-5-3-3" fill="#8ae234" stroke="#172a04" stroke-dasharray="none" stroke-miterlimit="4" stroke-opacity="1" stroke-width="2.499" d="M -26.786446,6.5589777 A 7.4951344,7.4959705 57.071167 1 1 -15.40027,16.309215 7.4951344,7.4959705 57.071167 1 1 -26.786446,6.5589777 z"/><path id="path4250-7-0-9-6-6" fill="url(#linearGradient3175-7-9-9)" fill-opacity="1" stroke="#8ae234" stroke-dasharray="none" stroke-miterlimit="4" stroke-opacity="1" stroke-width="2.499" d="m -24.890798,8.1860437 a 4.9970076,5.0001041 44.997358 1 1 7.591212,6.5003493 4.9970076,5.0001041 44.997358 0 1 -7.591212,-6.5003493 z"/></g></g><path id="path3132" fill="none" stroke="#2e3436" stroke-linecap="round" stroke-linejoin="miter" stroke-opacity="1" stroke-width="6" d="m 19,-25 24,0"/><path id="path3132-3" fill="none" stroke="#2e3436" stroke-linecap="round" stroke-linejoin="miter" stroke-opacity="1" stroke-width="6" d="m 22.999999,-32.909091 0,-6.037007"/><path id="path3132-3-6" fill="none" stroke="#2e3436" stroke-linecap="round" stroke-linejoin="miter" stroke-opacity="1" stroke-width="6" d="M 39,-32.962993 39,-39"/><path id="path3132-3-7" fill="none" stroke="#2e3436" stroke-linecap="butt" stroke-linejoin="miter" stroke-opacity="1" stroke-width="6" d="m 22.999999,-32.909091 0,-10.181818"/><path id="path3132-3-6-5" fill="none" stroke="#2e3436" stroke-linecap="butt" stroke-linejoin="miter" stroke-opacity="1" stroke-width="6" d="m 39,-33 0,-10.181818"/><path id="path3132-5" fill="none" stroke="#d3d7cf" stroke-linecap="round" stroke-linejoin="miter" stroke-opacity="1" stroke-width="2" d="m 19,-25 24,0"/><path id="path3959" fill="#d3d7cf" stroke="#2e3436" stroke-linecap="butt" stroke-linejoin="round" stroke-opacity="1" stroke-width="2" d="m 17,-39 6,-6 6,6 z"/><path id="path3959-3" fill="#d3d7cf" stroke="#2e3436" stroke-linecap="butt" stroke-linejoin="round" stroke-opacity="1" stroke-width="2" d="m 33,-39 6,-6 6,6 z"/><path id="path3132-3-7-6" fill="none" stroke="#d3d7cf" stroke-linecap="round" stroke-linejoin="miter" stroke-opacity="1" stroke-width="2" d="m 22.999999,-32.909091 0,-8.019308"/><path id="path3132-3-6-5-2" fill="none" stroke="#d3d7cf" stroke-linecap="round" stroke-linejoin="miter" stroke-opacity="1" stroke-width="2" d="M 39,-32.980692 39,-41"/></g></svg>