<svg xmlns="http://www.w3.org/2000/svg" xmlns:svg="http://www.w3.org/2000/svg" xmlns:xlink="http://www.w3.org/1999/xlink" id="svg2289" width="64" height="64" version="1.1"><defs id="defs2291"><linearGradient id="linearGradient3909"><stop id="stop3911" offset="0" stop-color="#d3d7cf" stop-opacity="1"/><stop id="stop3913" offset="1" stop-color="#fff" stop-opacity="1"/></linearGradient><linearGradient id="linearGradient7936" x1="36.434" x2="42.91" y1="40.36" y2="40.36" gradientTransform="translate(5.9082,-2.36328)" gradientUnits="userSpaceOnUse" xlink:href="#linearGradient6241"/><linearGradient id="linearGradient6255" x1="36.618" x2="42.403" y1="34.248" y2="34.248" gradientTransform="translate(-1.21351,-3.2481)" gradientUnits="userSpaceOnUse" xlink:href="#linearGradient6249"/><linearGradient id="linearGradient6247" x1="36.434" x2="42.91" y1="40.36" y2="40.36" gradientTransform="translate(-1.21351,-3.2481)" gradientUnits="userSpaceOnUse" xlink:href="#linearGradient6241"/><linearGradient id="linearGradient6093" x1="-7.138" x2="31.763" y1="4.431" y2="4.431" gradientUnits="userSpaceOnUse" xlink:href="#linearGradient6087"/><linearGradient id="linearGradient6069" x1="-7.247" x2="31.872" y1="4.431" y2="4.431" gradientUnits="userSpaceOnUse" xlink:href="#linearGradient6063"/><radialGradient id="radialGradient6049" cx="46.635" cy="13.19" r="4.263" fx="46.635" fy="13.19" gradientTransform="matrix(1,0,0,1.57309,-8.16831,13.2984)" gradientUnits="userSpaceOnUse" xlink:href="#linearGradient6015"/><radialGradient id="radialGradient6021" cx="46.635" cy="13.19" r="4.263" fx="46.635" fy="13.19" gradientTransform="matrix(1,0,0,1.57309,-7.8307,-10.2669)" gradientUnits="userSpaceOnUse" xlink:href="#linearGradient6015"/><linearGradient id="linearGradient6013" x1="-7.247" x2="31.872" y1="4.431" y2="4.431" gradientUnits="userSpaceOnUse" xlink:href="#linearGradient5989"/><linearGradient id="linearGradient6011" x1="41.515" x2="51.621" y1="6.674" y2="6.674" gradientTransform="translate(-7.76318,10.9991)" gradientUnits="userSpaceOnUse" xlink:href="#linearGradient5999"/><linearGradient id="linearGradient6005" x1="41.515" x2="51.621" y1="6.674" y2="6.674" gradientTransform="translate(-7.8307,-2.70792)" gradientUnits="userSpaceOnUse" xlink:href="#linearGradient5999"/><linearGradient id="linearGradient5997" x1="-7.247" x2="31.872" y1="4.431" y2="4.431" gradientUnits="userSpaceOnUse" xlink:href="#linearGradient5989"/><linearGradient id="linearGradient4228" x1="15.984" x2="15.984" y1="43.559" y2="39.109" gradientTransform="matrix(0.287401,0,0,-0.287401,-12.0652,11.6227)" gradientUnits="userSpaceOnUse" xlink:href="#linearGradient3304"/><linearGradient id="linearGradient4186" x1="15.984" x2="15.984" y1="46.034" y2="39.463" gradientTransform="matrix(0.297884,0,0,0.287401,17.1309,2.89566)" gradientUnits="userSpaceOnUse" xlink:href="#linearGradient3304"/><linearGradient id="linearGradient4182" x1="15.984" x2="15.984" y1="43.559" y2="39.109" gradientTransform="matrix(0.287401,0,0,-0.287401,17.1048,18.0973)" gradientUnits="userSpaceOnUse" xlink:href="#linearGradient3304"/><linearGradient id="linearGradient4171" x1="-2.196" x2="33.342" y1="3.313" y2="3.313" gradientTransform="matrix(-1,0,0,1,31.3232,0)" gradientUnits="userSpaceOnUse" xlink:href="#linearGradient3265"/><linearGradient id="linearGradient4169" x1="15.984" x2="15.984" y1="43.559" y2="39.109" gradientTransform="matrix(1,0,0,-1,-0.625,53.1922)" gradientUnits="userSpaceOnUse" xlink:href="#linearGradient3304"/><linearGradient id="linearGradient4167" x1="15.984" x2="15.984" y1="46.034" y2="39.463" gradientTransform="matrix(1.03647,0,0,1,-0.534385,0.298859)" gradientUnits="userSpaceOnUse" xlink:href="#linearGradient3304"/><linearGradient id="linearGradient4165" x1="-2.196" x2="33.342" y1="3.313" y2="3.313" gradientTransform="matrix(-1,0,0,1,31.3232,47.9065)" gradientUnits="userSpaceOnUse" xlink:href="#linearGradient3265"/><linearGradient id="linearGradient4155" x1="15.984" x2="15.984" y1="43.559" y2="39.109" gradientTransform="matrix(1,0,0,-1,-53.8348,50.187)" gradientUnits="userSpaceOnUse" xlink:href="#linearGradient3304"/><linearGradient id="rect1512_1_" x1="-317.259" x2="-316.716" y1="542.41" y2="542.41" gradientTransform="matrix(29.4937,0,0,-4.0625,9368.05,2251.38)" gradientUnits="userSpaceOnUse"><stop id="stop17" offset="0" stop-color="#A7873D"/><stop id="stop19" offset="1" stop-color="#663624"/></linearGradient><linearGradient id="rect1511_1_" x1="-317.258" x2="-316.715" y1="542.412" y2="542.412" gradientTransform="matrix(29.4937,0,0,-4.0625,9368.05,2205.97)" gradientUnits="userSpaceOnUse"><stop id="stop11" offset="0" stop-color="#A7873D"/><stop id="stop13" offset="1" stop-color="#663624"/></linearGradient><linearGradient id="linearGradient3265"><stop id="stop3267" offset="0" stop-color="#663624" stop-opacity="1"/><stop id="stop3269" offset="1" stop-color="#68655B" stop-opacity="1"/></linearGradient><linearGradient id="linearGradient3304"><stop id="stop3306" offset="0" stop-color="#F1F1F1" stop-opacity="1"/><stop id="stop3308" offset="1" stop-color="#F1F1F1" stop-opacity="0"/></linearGradient><linearGradient id="linearGradient3473"><stop id="stop3475" offset="0" stop-color="#EEEEEC" stop-opacity="1"/><stop id="stop3477" offset="1" stop-color="#EEEEEC" stop-opacity="0"/></linearGradient><linearGradient id="linearGradient5989"><stop id="stop5991" offset="0" stop-color="#8F5902" stop-opacity="1"/><stop id="stop5993" offset="1" stop-color="#8F5902" stop-opacity="0"/></linearGradient><linearGradient id="linearGradient5999"><stop id="stop6001" offset="0" stop-color="#8F5902" stop-opacity="1"/><stop id="stop6003" offset="1" stop-color="#8F5902" stop-opacity="0"/></linearGradient><linearGradient id="linearGradient6015"><stop id="stop6017" offset="0" stop-color="#DDDEDF" stop-opacity="1"/><stop id="stop6019" offset="1" stop-color="#DDDEDF" stop-opacity="0"/></linearGradient><linearGradient id="linearGradient6055"><stop id="stop6057" offset="0" stop-color="#FFF" stop-opacity="1"/><stop id="stop6059" offset="1" stop-color="#FFF" stop-opacity="0"/></linearGradient><linearGradient id="linearGradient6063"><stop id="stop6065" offset="0" stop-color="#FFF" stop-opacity="1"/><stop id="stop6067" offset="1" stop-color="#FFF" stop-opacity="0"/></linearGradient><linearGradient id="linearGradient6087"><stop id="stop6089" offset="0" stop-color="#FFF" stop-opacity="1"/><stop id="stop6091" offset="1" stop-color="#AFB0B0" stop-opacity="0"/></linearGradient><linearGradient id="linearGradient6241"><stop id="stop6243" offset="0" stop-color="#FFF" stop-opacity="1"/><stop id="stop6245" offset="1" stop-color="#FFF" stop-opacity="0"/></linearGradient><linearGradient id="linearGradient6249"><stop id="stop6251" offset="0" stop-color="#FFF" stop-opacity="1"/><stop id="stop6253" offset="1" stop-color="#FFF" stop-opacity="0"/></linearGradient><radialGradient id="radialGradient2940" cx="73.759" cy="8.295" r="17.035" fx="73.759" fy="8.295" gradientTransform="matrix(1.68491,-0.0726424,0.0138836,0.322023,-50.8098,55.0491)" gradientUnits="userSpaceOnUse" xlink:href="#linearGradient3473"/><linearGradient id="linearGradient2942" x1="15.984" x2="15.984" y1="46.034" y2="39.463" gradientTransform="matrix(1.03647,0,0,1,50.0238,0.298859)" gradientUnits="userSpaceOnUse" xlink:href="#linearGradient3304"/><radialGradient id="radialGradient2946" cx="73.759" cy="8.295" r="17.035" fx="73.759" fy="8.295" gradientTransform="matrix(1.68491,-0.0726424,0.0138836,0.322023,-50.633,8.38001)" gradientUnits="userSpaceOnUse" xlink:href="#linearGradient3473"/><linearGradient id="linearGradient3815" x1="41.859" x2="35.427" y1="43.577" y2="24.274" gradientTransform="matrix(1.6879511,0,0,1.6832902,121.97245,-127.47016)" gradientUnits="userSpaceOnUse" xlink:href="#linearGradient3809"/><linearGradient id="linearGradient3809"><stop id="stop3811" offset="0" stop-color="#204a87" stop-opacity="1"/><stop id="stop3813" offset="1" stop-color="#729fcf" stop-opacity="1"/></linearGradient><linearGradient id="linearGradient3916" x1="-19.244" x2="-22.46" y1="72.532" y2="50.011" gradientTransform="matrix(1.6879511,0,0,1.6832902,121.97245,-127.47016)" gradientUnits="userSpaceOnUse" xlink:href="#linearGradient3910"/><linearGradient id="linearGradient3910"><stop id="stop3912" offset="0" stop-color="#000" stop-opacity="1"/><stop id="stop3914" offset="1" stop-color="#888a85" stop-opacity="1"/></linearGradient><linearGradient id="linearGradient3789" x1="-25.676" x2="-28.892" y1="-62.591" y2="-72.242" gradientTransform="matrix(1.6879511,0,0,1.6832902,121.97245,-127.47016)" gradientUnits="userSpaceOnUse" xlink:href="#linearGradient3783"/><linearGradient id="linearGradient3783"><stop id="stop3785" offset="0" stop-color="#2e3436" stop-opacity="1"/><stop id="stop3787" offset="1" stop-color="#888a85" stop-opacity="1"/></linearGradient><linearGradient id="linearGradient3872" x1="34.119" x2="23.695" y1="-4.132" y2="-30.484" gradientUnits="userSpaceOnUse" xlink:href="#linearGradient3866"/><linearGradient id="linearGradient3866"><stop id="stop3868" offset="0" stop-color="#000" stop-opacity="1"/><stop id="stop3870" offset="1" stop-color="#888a85" stop-opacity="1"/></linearGradient><linearGradient id="linearGradient3050" x1="34.119" x2="23.695" y1="-4.132" y2="-30.484" gradientTransform="matrix(1.6879511,0,0,1.6832902,121.97245,-127.47016)" gradientUnits="userSpaceOnUse" xlink:href="#linearGradient3866"/><linearGradient id="linearGradient3915" x1="295.769" x2="274.055" y1=".037" y2="-129.934" gradientUnits="userSpaceOnUse" xlink:href="#linearGradient3909"/></defs><metadata id="metadata2294"/><g id="layer1" transform="translate(0,48)"><g id="g4108" transform="matrix(0.1842158,0,0,0.1846561,-0.4852667,3.9931431)"><path id="path30-36" fill="url(#linearGradient3050)" fill-opacity="1" fill-rule="nonzero" stroke="#2e3436" stroke-linejoin="round" stroke-width="10.844" d="m 187.8544,-124.25775 c 9.52851,0 19.54906,5.14137 26.48805,10.56996 -5.29761,-21.13991 -5.19938,-30.52176 -26.48805,-58.13477 -21.28868,-27.613 -45.29294,-33.50657 -52.97611,-36.99485 0,0 -10.59522,-5.28498 -15.89283,0 -5.29761,5.28498 0,10.56995 0,10.56995 2.61,4.59907 19.19748,10.69321 32.26484,38.46412 11.48319,24.38205 9.26625,44.38889 10.11604,46.09555 7.82485,-6.28886 17.28697,-10.56996 26.48806,-10.56996 z" class="ps03"/><path id="path50-75" fill="#3465a4" fill-rule="nonzero" stroke="#0b1521" stroke-width="10.844" d="m 219.76302,-70.364013 c 0,17.954945 -14.57319,32.492834 -32.56265,32.492834 -17.98935,0 -32.57834,-14.537889 -32.57834,-32.492834 0,-17.923534 14.58899,-32.492837 32.57834,-32.492837 17.98946,0 32.56265,14.569303 32.56265,32.492837" class="ps03"/><path id="path52-35" fill="url(#linearGradient3789)" fill-opacity="1" fill-rule="nonzero" stroke="#2e3436" stroke-linejoin="round" stroke-width="10.844" d="m 55.307703,-211.16629 c 0,0 42.76961,-19.31973 101.000237,-24.47829 57.11527,-5.09096 106.89025,-1.14673 106.89025,-1.14673 l 0,-16.4196 c 0,0 -61.28731,-11.73329 -121.59208,-11.73329 -60.34179,0 -122.686632,8.02443 -122.686632,8.02443 0,0 29.115316,11.63254 36.388225,45.75348" class="ps03"/><path id="path54-6" fill="#888a85" fill-rule="nonzero" stroke="#2e3436" stroke-linejoin="round" stroke-width="10.844" d="m 192.62879,48.776384 -10.85683,-21.661895 -151.99565,0 -10.856832,21.661895 z" class="ps03"/><path id="path56-2" fill="url(#linearGradient3916)" fill-opacity="1" fill-rule="nonzero" stroke="#2e3436" stroke-linejoin="round" stroke-width="10.844" d="m 138.34463,-81.194957 c 0,-1.854534 -0.24059,1.786743 0,0 -4.9141,1.517285 -25.68234,17.009089 -43.427328,21.661889 -18.788921,4.923206 -75.997824,0 -75.997824,0 0,0 10.052825,17.994418 16.285247,32.492834 6.235848,14.464142 -5.428415,32.4928343 -5.428415,32.4928343 l 151.99565,0 c 0,0 0,0 0,-10.830945 0,-10.8309443 0,-10.8309443 0,-10.8309443 -32.5705,-5.415473 -54.28416,-37.908307 -43.42733,-64.985668" class="ps03"/><path id="path50-7" fill="url(#linearGradient3815)" fill-opacity="1" fill-rule="nonzero" stroke="#729fcf" stroke-width="10.844" d="m 208.91404,-70.364013 c 0,11.969965 -9.71546,21.66189 -21.70843,21.66189 -11.99291,0 -21.7189,-9.691925 -21.7189,-21.66189 0,-11.949023 9.72599,-21.661888 21.7189,-21.661888 11.99297,0 21.70843,9.712865 21.70843,21.661888" class="ps03"/><path id="path30-5" fill="none" stroke="#888a85" stroke-linejoin="miter" stroke-width="10.844" d="m 131.8093,-199.71157 c -5.3983,-4.05792 -5.735,-2.95072 -1.71191,2.4866 19.98958,12.42463 35.46729,29.16296 40.81773,66.20767 10.85684,-3.79083 17.02357,-4.93031 27.88039,-1.68103 -9.24533,-20.82274 -21.8507,-39.25657 -40.06532,-52.66108 -8.66376,-4.9793 -17.03037,-13.13858 -26.92089,-14.35216 z"/><path id="path30-3" fill="none" stroke="#2e3436" stroke-linejoin="round" stroke-width="10.844" d="m 188.053,-124.41836 c 9.52851,0 19.54906,5.14136 26.48806,10.56995 -5.29762,-21.13991 -5.19938,-30.52176 -26.48806,-58.13477 -21.28868,-27.613 -45.29294,-33.50657 -52.97611,-36.99485 0,0 -10.59522,-5.28498 -15.89283,0 -5.29761,5.28498 0,10.56996 0,10.56996 2.61,4.59906 19.19749,10.69321 32.26485,38.46411 11.48319,24.38205 9.26624,44.38889 10.11603,46.09555 7.82485,-6.28886 17.28698,-10.56995 26.48806,-10.56995 z" class="ps03"/><path id="path56-5" fill="none" stroke="#888a85" stroke-linejoin="miter" stroke-width="10.844" d="m 92.236837,-48.130948 c -17.881648,3.114953 -57.249935,0.623781 -57.249935,0.623781 0,0 9.687291,17.555775 11.265426,28.445808 1.578133,10.8900333 -0.397203,13.8216343 -0.397203,13.8216343 l 125.059995,-0.13862 0,-2.389328 c 0,0 -21.59604,-7.3020493 -33.90359,-23.8750843 -12.30754,-16.573035 -10.85315,-30.246816 -10.85315,-30.246816 0,0 -16.80568,11.468996 -33.921543,13.758625 z" class="ps03"/><path id="path56-6" fill="none" stroke="#2e3436" stroke-linejoin="round" stroke-width="10.844" d="m 138.34463,-81.194957 c 0,-1.854534 -0.24059,1.786743 0,0 -4.9141,1.517285 -25.68234,17.009089 -43.427328,21.661889 -18.788921,4.923206 -75.997824,0 -75.997824,0 0,0 10.052825,17.994418 16.285249,32.492834 6.235848,14.464142 -5.428415,32.4928343 -5.428415,32.4928343 l 151.995648,0 c 0,0 0,0 0,-10.830945 0,-10.8309443 0,-10.8309443 0,-10.8309443 -32.5705,-5.415473 -54.28416,-37.908307 -43.42733,-64.985668" class="ps03"/><path id="path52-3" fill="none" stroke="#888a85" stroke-linejoin="miter" stroke-width="10.844" d="m 153.07666,-246.07452 c 52.03836,-3.07598 100.02892,1.03987 100.02892,1.03987 l 5.41902,0.75278 c 0,0 -62.31337,-11.66347 -117.24503,-10.48544 -58.17391,1.24756 -95.6481,5.86425 -95.6481,5.86425 0,0 5.461534,4.84044 16.048015,24.10187 0,0 37.231003,-16.49309 91.397175,-21.27333 z" class="ps03"/><path id="path52-6" fill="none" stroke="#2e3436" stroke-linejoin="round" stroke-width="10.844" d="m 55.307703,-211.54311 c 0,0 42.76961,-19.31973 101.000237,-24.47829 57.11527,-5.09095 106.89025,-1.14672 106.89025,-1.14672 l 0,-16.4196 c 0,0 -61.28731,-11.7333 -121.59208,-11.7333 -60.34179,0 -122.686632,8.02443 -122.686632,8.02443 0,0 29.115314,11.63255 36.388225,45.75348" class="ps03"/><rect id="rect3121" width="18" height="30" x="43" y="25" fill="#d3d7cf" stroke="#2e3436" stroke-dasharray="none" stroke-linecap="round" stroke-linejoin="round" stroke-miterlimit="7.9" stroke-width="2" transform="matrix(5.428416,0,0,5.4154723,2.6342295,-281.56743)"/><rect id="rect3121-9" width="75.998" height="140.802" x="246.913" y="-135.35" fill="url(#linearGradient3915)" fill-opacity="1" stroke="#fff" stroke-dasharray="none" stroke-linecap="round" stroke-linejoin="miter" stroke-miterlimit="7.9" stroke-width="10.844"/><rect id="rect3917" width="6" height="12" x="49" y="29" fill="#fff" stroke="#2e3436" stroke-dasharray="none" stroke-linecap="round" stroke-linejoin="miter" stroke-miterlimit="7.9" stroke-width="2" transform="matrix(5.428416,0,0,5.4154723,2.6342295,-281.56743)"/><path id="path3919" fill="#fff" stroke="#2e3436" stroke-dasharray="none" stroke-linecap="round" stroke-linejoin="miter" stroke-miterlimit="7.9" stroke-width="2.667" d="m 56,48 a 4,4 0 1 1 -8,0 4,4 0 1 1 8,0 z" transform="matrix(4.0713118,0,0,4.0616044,73.20365,-216.58176)"/></g></g></svg>