<svg xmlns="http://www.w3.org/2000/svg" xmlns:svg="http://www.w3.org/2000/svg" xmlns:xlink="http://www.w3.org/1999/xlink" id="svg2327" width="64" height="64" version="1.1"><defs id="defs2329"><linearGradient id="linearGradient12512"><stop id="stop12513" offset="0" stop-color="#fff" stop-opacity="1"/><stop id="stop12517" offset=".5" stop-color="#fff520" stop-opacity=".891"/><stop id="stop12514" offset="1" stop-color="#fff300" stop-opacity="0"/></linearGradient><radialGradient id="radialGradient5243" cx="22.938" cy="16.305" r="15.563" fx="22.938" fy="16.305" gradientTransform="matrix(10.966097,0,0,11.427507,-117.95667,-80.766317)" gradientUnits="userSpaceOnUse" xlink:href="#linearGradient5237"/><radialGradient id="radialGradient5233" cx="29.393" cy="18.898" r="29.7" fx="29.393" fy="18.898" gradientTransform="matrix(11.004199,0,0,10.568053,-136.75962,-53.056208)" gradientUnits="userSpaceOnUse" xlink:href="#linearGradient5226"/><radialGradient id="radialGradient5330" cx="14.5" cy="26.688" r="10" fx="14.5" fy="26.688" gradientTransform="matrix(7.1668192,0,0,2.0046411,-5.0823874,156.05033)" gradientUnits="userSpaceOnUse" xlink:href="#linearGradient5224"/><radialGradient id="radialGradient5306" cx="29.774" cy="7.092" r="25.38" fx="29.774" fy="7.092" gradientTransform="matrix(16.103768,0,0,15.334152,-311.97921,-71.581441)" gradientUnits="userSpaceOnUse" xlink:href="#linearGradient5300"/><filter id="filter5296" width="1.196" height="1.668" x="-.098" y="-.334" color-interpolation-filters="sRGB"><feGaussianBlur id="feGaussianBlur5298" stdDeviation=".818"/></filter><radialGradient id="radialGradient5230" cx="14.5" cy="26.688" r="10" fx="14.5" fy="26.688" gradientTransform="matrix(7.1668192,0,0,2.0046411,-36.717824,84.079406)" gradientUnits="userSpaceOnUse" xlink:href="#linearGradient5224"/><linearGradient id="linearGradient5224"><stop id="stop5226" offset="0" stop-color="#000" stop-opacity="1"/><stop id="stop5228" offset="1" stop-color="#000" stop-opacity="0"/></linearGradient><linearGradient id="linearGradient5300"><stop id="stop5302" offset="0" stop-color="#fff" stop-opacity="1"/><stop id="stop5304" offset="1" stop-color="#fff" stop-opacity="0"/></linearGradient><linearGradient id="linearGradient5226"><stop id="stop5229" offset="0" stop-color="#63b512" stop-opacity="1"/><stop id="stop5245" offset=".16" stop-color="#58a30e" stop-opacity="1"/><stop id="stop5235" offset=".66" stop-color="#366b04" stop-opacity="1"/><stop id="stop5231" offset="1" stop-color="#87ea25" stop-opacity="1"/></linearGradient><linearGradient id="linearGradient5237"><stop id="stop5239" offset="0" stop-color="#fff" stop-opacity="1"/><stop id="stop5247" offset=".5" stop-color="#fff" stop-opacity="1"/><stop id="stop5241" offset="1" stop-color="#9c9c9c" stop-opacity="1"/></linearGradient><linearGradient id="linearGradient3811" x1="49.059" x2="34.941" y1="60.824" y2="23.176" gradientUnits="userSpaceOnUse" xlink:href="#linearGradient3805"/><linearGradient id="linearGradient3805"><stop id="stop3807" offset="0" stop-color="#4e9a06" stop-opacity="1"/><stop id="stop3809" offset="1" stop-color="#8ae234" stop-opacity="1"/></linearGradient><linearGradient id="linearGradient3175-7-9-9" x1="-24.89" x2="-12.869" y1="10.114" y2="13.65" gradientTransform="matrix(0.71407942,-2.2117406e-4,-2.2117406e-4,0.71407942,-7.298935,3.2580261)" gradientUnits="userSpaceOnUse" xlink:href="#linearGradient3836-9-9-1-1"/><linearGradient id="linearGradient3836-9-9-1-1"><stop id="stop3838-8-20-2-2" offset="0" stop-color="#4e9a06" stop-opacity="1"/><stop id="stop3840-1-2-7-7" offset="1" stop-color="#8ae234" stop-opacity="1"/></linearGradient><linearGradient id="linearGradient3175-7-9-3" x1="-24.89" x2="-12.869" y1="10.114" y2="13.65" gradientTransform="matrix(0.71407942,-2.2117406e-4,-2.2117406e-4,0.71407942,-7.298935,3.2580261)" gradientUnits="userSpaceOnUse" xlink:href="#linearGradient3836-9-9-1-6"/><linearGradient id="linearGradient3836-9-9-1-6"><stop id="stop3838-8-20-2-7" offset="0" stop-color="#4e9a06" stop-opacity="1"/><stop id="stop3840-1-2-7-5" offset="1" stop-color="#8ae234" stop-opacity="1"/></linearGradient><linearGradient id="linearGradient3175-7-0" x1="-24.89" x2="-12.869" y1="10.114" y2="13.65" gradientTransform="matrix(0.71407942,-2.2117406e-4,-2.2117406e-4,0.71407942,-7.298935,3.2580261)" gradientUnits="userSpaceOnUse" xlink:href="#linearGradient3836-9-9-62"/><linearGradient id="linearGradient3836-9-9-62"><stop id="stop3838-8-20-6" offset="0" stop-color="#204a87" stop-opacity="1"/><stop id="stop3840-1-2-1" offset="1" stop-color="#729fcf" stop-opacity="1"/></linearGradient><linearGradient id="linearGradient3175-7-9" x1="-24.89" x2="-12.869" y1="10.114" y2="13.65" gradientTransform="matrix(0.71407942,-2.2117406e-4,-2.2117406e-4,0.71407942,-7.298935,3.2580261)" gradientUnits="userSpaceOnUse" xlink:href="#linearGradient3836-9-9-1"/><linearGradient id="linearGradient3836-9-9-1"><stop id="stop3838-8-20-2" offset="0" stop-color="#4e9a06" stop-opacity="1"/><stop id="stop3840-1-2-7" offset="1" stop-color="#8ae234" stop-opacity="1"/></linearGradient></defs><metadata id="metadata2332"/><g id="layer1" transform="translate(0,48)"><path id="path3785" fill="#73d216" fill-opacity="1" stroke="#172a04" stroke-dasharray="none" stroke-dashoffset=".6" stroke-linecap="square" stroke-linejoin="round" stroke-miterlimit="4" stroke-opacity="1" stroke-width="3.077" d="m 62,42 a 20,20 0 1 1 -40,0 20,20 0 1 1 40,0 z" transform="matrix(0.65,0,0,0.65,6.7,-59.3)"/><path id="path3785-3" fill="url(#linearGradient3811)" fill-opacity="1" stroke="#8ae234" stroke-dasharray="none" stroke-dashoffset=".6" stroke-linecap="square" stroke-linejoin="round" stroke-miterlimit="4" stroke-opacity="1" stroke-width="3.636" d="m 62,42 a 20,20 0 1 1 -40,0 20,20 0 1 1 40,0 z" transform="matrix(0.55,0,0,0.55,10.9,-55.1)"/><path id="path3813" fill="#fff" stroke="#172a04" stroke-linecap="butt" stroke-linejoin="round" stroke-opacity="1" stroke-width="2" d="m 25,-31 3,-3 3,3 8,-8 3,3 -11,11 z"/><g id="g3827-0-6" transform="matrix(-0.70710678,-0.70710678,0.70710678,-0.70710678,15.710469,41.260726)"><g id="g3797-7-26" transform="translate(31.322131,40.570289)"><path id="path3098" fill="none" stroke="#2e3436" stroke-linecap="butt" stroke-linejoin="miter" stroke-opacity="1" stroke-width="6" d="m -71,55 12,-20 24,10 10,-24" transform="matrix(-0.70710678,0.70710678,-0.70710678,-0.70710678,-13.66483,68.006139)"/><path id="path3098-2" fill="none" stroke="#d3d7cf" stroke-linecap="butt" stroke-linejoin="miter" stroke-opacity="1" stroke-width="2" d="M -2.3511211,-21.089315 3.3057332,1.5381016 -20.735897,11.437597 -10.836402,35.479228"/></g></g><g id="g3827-0-3-0" transform="matrix(-0.56566693,-0.56602472,0.56566693,-0.56602472,31.369045,8.2255148)"><g id="g3797-7-7-9" transform="translate(31.322131,40.570289)"><path id="path4250-6-5-3" fill="#8ae234" stroke="#172a04" stroke-dasharray="none" stroke-miterlimit="4" stroke-opacity="1" stroke-width="2.499" d="M -26.786446,6.5589777 A 7.4951344,7.4959705 57.071167 1 1 -15.40027,16.309215 7.4951344,7.4959705 57.071167 1 1 -26.786446,6.5589777 z"/><path id="path4250-7-0-9-6" fill="url(#linearGradient3175-7-9)" fill-opacity="1" stroke="#8ae234" stroke-dasharray="none" stroke-miterlimit="4" stroke-opacity="1" stroke-width="2.499" d="m -24.890798,8.1860437 a 4.9970076,5.0001041 44.997358 1 1 7.591212,6.5003493 4.9970076,5.0001041 44.997358 0 1 -7.591212,-6.5003493 z"/></g></g><g id="g3827-0-3-8" transform="matrix(-0.56566693,-0.56602472,0.56566693,-0.56602472,21.369045,32.225516)"><g id="g3797-7-7-7" transform="translate(31.322131,40.570289)"><path id="path4250-6-5-9" fill="#729fcf" stroke="#0b1521" stroke-dasharray="none" stroke-miterlimit="4" stroke-opacity="1" stroke-width="2.499" d="M -26.786446,6.5589777 A 7.4951344,7.4959705 57.071167 1 1 -15.40027,16.309215 7.4951344,7.4959705 57.071167 1 1 -26.786446,6.5589777 z"/><path id="path4250-7-0-9-20" fill="url(#linearGradient3175-7-0)" fill-opacity="1" stroke="#729fcf" stroke-dasharray="none" stroke-miterlimit="4" stroke-opacity="1" stroke-width="2.499" d="m -24.890798,8.1860437 a 4.9970076,5.0001041 44.997358 1 1 7.591212,6.5003493 4.9970076,5.0001041 44.997358 0 1 -7.591212,-6.5003493 z"/></g></g><g id="g3827-0-3-0-3" transform="matrix(-0.56566693,-0.56602472,0.56566693,-0.56602472,-14.630955,42.225516)"><g id="g3797-7-7-9-5" transform="translate(31.322131,40.570289)"><path id="path4250-6-5-3-6" fill="#8ae234" stroke="#172a04" stroke-dasharray="none" stroke-miterlimit="4" stroke-opacity="1" stroke-width="2.499" d="M -26.786446,6.5589777 A 7.4951344,7.4959705 57.071167 1 1 -15.40027,16.309215 7.4951344,7.4959705 57.071167 1 1 -26.786446,6.5589777 z"/><path id="path4250-7-0-9-6-2" fill="url(#linearGradient3175-7-9-3)" fill-opacity="1" stroke="#8ae234" stroke-dasharray="none" stroke-miterlimit="4" stroke-opacity="1" stroke-width="2.499" d="m -24.890798,8.1860437 a 4.9970076,5.0001041 44.997358 1 1 7.591212,6.5003493 4.9970076,5.0001041 44.997358 0 1 -7.591212,-6.5003493 z"/></g></g><g id="g3827-0-3-0-0" transform="matrix(-0.56566693,-0.56602472,0.56566693,-0.56602472,-2.6309557,22.225516)"><g id="g3797-7-7-9-9" transform="translate(31.322131,40.570289)"><path id="path4250-6-5-3-3" fill="#8ae234" stroke="#172a04" stroke-dasharray="none" stroke-miterlimit="4" stroke-opacity="1" stroke-width="2.499" d="M -26.786446,6.5589777 A 7.4951344,7.4959705 57.071167 1 1 -15.40027,16.309215 7.4951344,7.4959705 57.071167 1 1 -26.786446,6.5589777 z"/><path id="path4250-7-0-9-6-6" fill="url(#linearGradient3175-7-9-9)" fill-opacity="1" stroke="#8ae234" stroke-dasharray="none" stroke-miterlimit="4" stroke-opacity="1" stroke-width="2.499" d="m -24.890798,8.1860437 a 4.9970076,5.0001041 44.997358 1 1 7.591212,6.5003493 4.9970076,5.0001041 44.997358 0 1 -7.591212,-6.5003493 z"/></g></g></g></svg>