<svg xmlns="http://www.w3.org/2000/svg" xmlns:svg="http://www.w3.org/2000/svg" xmlns:xlink="http://www.w3.org/1999/xlink" id="svg2" width="64" height="64" version="1.1"><defs id="defs4"><linearGradient id="linearGradient3936"><stop id="stop3939" offset="0" stop-color="#c4a000" stop-opacity="1"/><stop id="stop3941" offset="1" stop-color="#fce94f" stop-opacity="1"/></linearGradient><linearGradient id="linearGradient3833"><stop id="stop3835" offset="0" stop-color="#3465a4" stop-opacity="1"/><stop id="stop3837" offset="1" stop-color="#729fcf" stop-opacity="1"/></linearGradient><linearGradient id="linearGradient3805"><stop id="stop3807" offset="0" stop-color="#d3d7cf" stop-opacity="1"/><stop id="stop3809" offset="1" stop-color="#fff" stop-opacity="1"/></linearGradient><linearGradient id="linearGradient3934"><stop id="stop3936" offset="0" stop-color="#c9a70a" stop-opacity="1"/><stop id="stop3938" offset="1" stop-color="#c9830a" stop-opacity="0"/></linearGradient><linearGradient id="linearGradient3781" x1="52.716" x2="36.134" y1="26.491" y2="13.441" gradientTransform="matrix(0.84821031,0,0,0.80134799,9.4347167,988.8022)" gradientUnits="userSpaceOnUse" xlink:href="#linearGradient3775"/><linearGradient id="linearGradient3775"><stop id="stop3777" offset="0" stop-color="#0061e6" stop-opacity="1"/><stop id="stop3779" offset="1" stop-color="#0061e6" stop-opacity="0"/></linearGradient><linearGradient id="linearGradient3854-9" x1="48.094" x2="38.033" y1="1008.943" y2="999.644" gradientTransform="matrix(0.77529578,-0.06923186,0.06310961,0.72219207,-48.394623,284.99564)" gradientUnits="userSpaceOnUse" xlink:href="#linearGradient3848-3"/><linearGradient id="linearGradient3848-3"><stop id="stop3850-0" offset="0" stop-color="#bf3995" stop-opacity="1"/><stop id="stop3852-2" offset="1" stop-color="#bf3995" stop-opacity="0"/></linearGradient><linearGradient id="linearGradient3915-0" x1="50.374" x2="28.313" y1="1002.338" y2="1008.66" gradientTransform="matrix(0.78470302,0.96586477,-1.1251621,0.98423851,1142.128,-26.309059)" gradientUnits="userSpaceOnUse" xlink:href="#linearGradient3934-7"/><linearGradient id="linearGradient3934-7"><stop id="stop3936-8" offset="0" stop-color="#c9a70a" stop-opacity="1"/><stop id="stop3938-7" offset="1" stop-color="#c9830a" stop-opacity="0"/></linearGradient><linearGradient id="linearGradient3811" x1="-33" x2="-38" y1="1046.362" y2="1021.362" gradientTransform="translate(60,0)" gradientUnits="userSpaceOnUse" xlink:href="#linearGradient3805"/><linearGradient id="linearGradient3839" x1="-35" x2="-36" y1="1019.362" y2="1012.362" gradientTransform="translate(60,0)" gradientUnits="userSpaceOnUse" xlink:href="#linearGradient3833"/><linearGradient id="linearGradient3943" x1="50" x2="42" y1="19" y2="9" gradientTransform="translate(-1.087911,988.00806)" gradientUnits="userSpaceOnUse" xlink:href="#linearGradient3936"/></defs><metadata id="metadata7"/><g id="layer1" transform="translate(0,-988.36218)"><path id="path4103" fill="#fce94f" fill-opacity="1" stroke="#302b00" stroke-linecap="butt" stroke-linejoin="miter" stroke-opacity="1" stroke-width="2" d="m 25.449865,1003.1031 -2.537776,-2.0951 c -3,-3.00006 0.58068,-4.72879 5.346997,-2.68665 l 1.98207,1.04201 c -2.1509,1.51154 -4.621433,2.63404 -4.791291,3.73974 z"/><rect id="rect3017" width="46" height="40" x="3" y="1009.362" fill="#d3d7cf" fill-opacity="1" stroke="#2e3436" stroke-dasharray="none" stroke-dashoffset="6" stroke-linecap="round" stroke-linejoin="round" stroke-miterlimit="4" stroke-opacity="1" stroke-width="2"/><rect id="rect3017-3" width="42" height="24" x="5" y="1023.362" fill="url(#linearGradient3811)" fill-opacity="1" stroke="#fff" stroke-dasharray="none" stroke-dashoffset="6" stroke-linecap="round" stroke-linejoin="miter" stroke-miterlimit="4" stroke-opacity="1" stroke-width="2"/><rect id="rect3813" width="46" height="12" x="3" y="1009.362" fill="#729fcf" fill-opacity="1" stroke="#0b1521" stroke-dasharray="none" stroke-dashoffset="6" stroke-linecap="round" stroke-linejoin="round" stroke-miterlimit="4" stroke-opacity="1" stroke-width="2"/><rect id="rect3813-6" width="42" height="8" x="5" y="1011.362" fill="url(#linearGradient3839)" fill-opacity="1" stroke="#729fcf" stroke-dasharray="none" stroke-dashoffset="6" stroke-linecap="round" stroke-linejoin="miter" stroke-miterlimit="4" stroke-opacity="1" stroke-width="2"/><path id="path3841" fill="none" stroke="#204a87" stroke-linecap="round" stroke-linejoin="miter" stroke-opacity="1" stroke-width="6" d="m 9,1033.3622 4,0"/><path id="path3841-7" fill="none" stroke="#204a87" stroke-linecap="round" stroke-linejoin="miter" stroke-opacity="1" stroke-width="6" d="m 9,1041.3622 4,0"/><path id="path3841-3" fill="none" stroke="#204a87" stroke-linecap="round" stroke-linejoin="miter" stroke-opacity="1" stroke-width="6" d="m 23.999998,1033.3622 17.000001,0"/><path id="path3841-7-5" fill="none" stroke="#204a87" stroke-linecap="round" stroke-linejoin="miter" stroke-opacity="1" stroke-width="6" d="m 23.999998,1041.3622 17.000001,0"/><path id="path3841-6" fill="none" stroke="#729fcf" stroke-linecap="round" stroke-linejoin="miter" stroke-opacity="1" stroke-width="2" d="m 9,1033.3622 4,0"/><path id="path3841-7-2" fill="none" stroke="#729fcf" stroke-linecap="round" stroke-linejoin="miter" stroke-opacity="1" stroke-width="2" d="m 9,1041.3622 4,0"/><path id="path3841-3-9" fill="none" stroke="#729fcf" stroke-linecap="round" stroke-linejoin="miter" stroke-opacity="1" stroke-width="2" d="m 23.999998,1033.3622 17.000001,0"/><path id="path3841-7-5-1" fill="none" stroke="#729fcf" stroke-linecap="round" stroke-linejoin="miter" stroke-opacity="1" stroke-width="2" d="m 23.999998,1041.3622 17.000001,0"/><path id="path4101" fill="#fce94f" fill-opacity="1" stroke="#302b00" stroke-linecap="butt" stroke-linejoin="round" stroke-opacity="1" stroke-width="2" d="m 53.65446,1006.3158 -9.76801,7.58 c 0,0 -3.95999,6.8139 -6.407814,7.4628 -2.447824,0.6489 -4.532356,-0.8206 -4.532356,-0.8206 l 6.79853,-8.8302 1.64103,-0.8596 -0.39072,-0.2345 -1.56288,0.8596 -6.64225,9.0647 -3.750916,-1.68 6.095236,-9.8071 1.17216,-0.547 -0.46886,-0.2345 -1.17216,0.7815 -5.78266,9.768 -4.37607,-1.641 4.21978,-10.3932 1.2503,-0.7815 -0.39072,-0.3125 -0.93773,1.0158 -7.736261,19.3016 c -0.664225,2.1172 -5.960928,1.3358 -5.235653,-1.1721 l 7.267399,-20.2393 10.158735,-6.48604 7.18925,-3.04762 8.67399,-1.87546 C 54.90397,994.18454 61.0756,996.93673 61,1004.3622 z"/><path id="path3916" fill="url(#linearGradient3943)" fill-opacity="1" stroke="#fce94f" stroke-linecap="butt" stroke-linejoin="miter" stroke-opacity="1" stroke-width="2" d="m 48.924299,994.84567 c 5.314083,2.06164 8.586261,2.02501 10.080586,8.00973 0,0 -4.414195,0.9177 -6.32967,2.0318 -4.584894,2.6667 -10.197802,7.8925 -10.197802,7.8925 -3.565324,7.2284 -19.565324,9.2284 -15.12088,-8.713 5.413582,-3.5101 10.464133,-7.03187 21.567766,-9.22103 z"/><path id="path4101-7" fill="none" stroke="#302b00" stroke-linecap="butt" stroke-linejoin="round" stroke-opacity="1" stroke-width="2" d="m 53.65446,1006.3158 -9.76801,7.58 c 0,0 -3.95999,6.8139 -6.407814,7.4628 -2.447824,0.6489 -4.532356,-0.8206 -4.532356,-0.8206 l 6.79853,-8.8302 1.64103,-0.8596 -0.39072,-0.2345 -1.56288,0.8596 -6.64225,9.0647 -3.750916,-1.68 6.095236,-9.8071 1.17216,-0.547 -0.46886,-0.2345 -1.17216,0.7815 -5.78266,9.768 -4.37607,-1.641 4.21978,-10.3932 1.2503,-0.7815 -0.39072,-0.3125 -0.93773,1.0158 -7.736261,19.3016 c -0.664225,2.1172 -5.960928,1.3358 -5.235653,-1.1721 l 7.267399,-20.2393 10.158735,-6.48609 7.18925,-3.04762 8.67399,-1.87546 C 54.90397,994.18449 61.0756,996.93668 61,1004.3622 z"/></g></svg>