<svg xmlns="http://www.w3.org/2000/svg" xmlns:svg="http://www.w3.org/2000/svg" xmlns:xlink="http://www.w3.org/1999/xlink" id="svg2568" width="64" height="64" version="1.1"><defs id="defs2570"><linearGradient id="linearGradient3864"><stop id="stop3866" offset="0" stop-color="#71f873" stop-opacity="1"/><stop id="stop3868" offset="1" stop-color="#009520" stop-opacity="1"/></linearGradient><radialGradient id="radialGradient3552" cx="48.646" cy="25.149" r="19.571" fx="48.646" fy="25.149" gradientUnits="userSpaceOnUse" xlink:href="#linearGradient3864"/><linearGradient id="linearGradient3593"><stop id="stop3595" offset="0" stop-color="#c8f9d7" stop-opacity="1"/><stop id="stop3597" offset="1" stop-color="#63ca72" stop-opacity="1"/></linearGradient><radialGradient id="radialGradient3599" cx="51.638" cy="24.963" r="19.571" fx="51.638" fy="24.963" gradientUnits="userSpaceOnUse" xlink:href="#linearGradient3593"/><radialGradient id="radialGradient3026" cx="25.188" cy="41.625" r="18.063" fx="25.188" fy="41.625" gradientTransform="matrix(1,0,0,0.32526,0,28.08607)" gradientUnits="userSpaceOnUse" xlink:href="#linearGradient2269-0"/><linearGradient id="linearGradient2269-0"><stop id="stop2271-4" offset="0" stop-color="#000" stop-opacity="1"/><stop id="stop2273-87" offset="1" stop-color="#000" stop-opacity="0"/></linearGradient><radialGradient id="radialGradient3118" cx="25.188" cy="41.625" r="18.063" fx="25.188" fy="41.625" gradientTransform="matrix(1,0,0,0.32526,0,28.08607)" gradientUnits="userSpaceOnUse" xlink:href="#linearGradient2269-0"/><radialGradient id="radialGradient3026-3" cx="25.188" cy="41.625" r="18.063" fx="25.188" fy="41.625" gradientTransform="matrix(1,0,0,0.32526,0,28.08607)" gradientUnits="userSpaceOnUse" xlink:href="#linearGradient2269-0-6"/><linearGradient id="linearGradient2269-0-6"><stop id="stop2271-4-1" offset="0" stop-color="#000" stop-opacity="1"/><stop id="stop2273-87-2" offset="1" stop-color="#000" stop-opacity="0"/></linearGradient><radialGradient id="radialGradient3118-9" cx="25.188" cy="41.625" r="18.063" fx="25.188" fy="41.625" gradientTransform="matrix(1,0,0,0.32526,0,28.08607)" gradientUnits="userSpaceOnUse" xlink:href="#linearGradient2269-0-6"/><radialGradient id="radialGradient3257" cx="25.188" cy="41.625" r="18.063" fx="25.188" fy="41.625" gradientTransform="matrix(1,0,0,0.32526,0,28.08607)" gradientUnits="userSpaceOnUse" xlink:href="#linearGradient2269-0"/><radialGradient id="radialGradient3291" cx="25.188" cy="41.625" r="18.063" fx="25.188" fy="41.625" gradientTransform="matrix(1,0,0,0.32526,0,28.08607)" gradientUnits="userSpaceOnUse" xlink:href="#linearGradient2269-0-6"/></defs><metadata id="metadata2573"/><g id="layer1"><g id="g3225" transform="matrix(0.84654453,0,0,0.84654453,-48.634481,-2.7423655)"><path id="path2267" fill="url(#radialGradient3257)" fill-opacity="1" fill-rule="evenodd" stroke="none" stroke-width="1" d="m 43.25,41.625 a 18.0625,5.875 0 1 1 -36.125,0 18.0625,5.875 0 1 1 36.125,0 z" color="#000" display="inline" opacity=".267" overflow="visible" transform="matrix(1.6349796,0,0,1.0662685,65.882996,14.135546)" visibility="visible" style="marker:none"/><path id="path3007-3" fill="#8ae234" stroke="none" d="m 105.7015,6.7833 18,8 -32.000001,-4 14.000001,-4"/><path id="path3009-6" fill="#8ae234" stroke="none" d="m 91.701499,10.7833 -10,10 42.000001,-6 z"/><path id="path3011-7" fill="#73d216" stroke="none" d="m 123.7015,14.7833 6,20 -48.000001,-14 42.000001,-6"/><path id="path3851" fill="none" stroke="#8ae234" stroke-linecap="butt" stroke-linejoin="miter" stroke-opacity="1" stroke-width="2.363" d="m 84.701499,19.7833 44.000001,13"/><path id="path3013-5" fill="#73d216" stroke="none" d="m 129.7015,34.7833 -50.000001,0 2,-14 z"/><path id="path3853" fill="none" stroke="#8ae234" stroke-linecap="butt" stroke-linejoin="miter" stroke-opacity="1" stroke-width="2.363" d="m 127.7015,33.7833 -6,-19"/><path id="path3845" fill="none" stroke="#8ae234" stroke-linecap="butt" stroke-linejoin="miter" stroke-opacity="1" stroke-width="2.363" d="m 80.701499,32.7833 42.000001,0"/><path id="path3855" fill="none" stroke="#8ae234" stroke-linecap="butt" stroke-linejoin="miter" stroke-opacity="1" stroke-width="2.363" d="m 88.701499,21.7833 35.000001,-5"/><path id="path3015-3" fill="#73d216" stroke="none" d="m 79.701499,34.7833 42.000001,16 8,-16 z"/><path id="path3847" fill="none" stroke="#8ae234" stroke-linecap="butt" stroke-linejoin="miter" stroke-opacity="1" stroke-width="2.363" d="m 121.7015,34.7833 -40.000001,-12"/><path id="path3839" fill="none" stroke="#8ae234" stroke-linecap="butt" stroke-linejoin="miter" stroke-opacity="1" stroke-width="2.363" d="m 120.7015,48.7833 7,-14"/><path id="path3849" fill="none" stroke="#8ae234" stroke-linecap="butt" stroke-linejoin="miter" stroke-opacity="1" stroke-width="2.363" d="m 83.701499,21.7833 -2,13"/><path id="path3017-5" fill="#73d216" stroke="none" d="m 121.7015,50.7833 -36.000001,-2 -6,-14 z"/><path id="path3841" fill="none" stroke="#8ae234" stroke-linecap="butt" stroke-linejoin="miter" stroke-opacity="1" stroke-width="2.363" d="m 128.7015,36.7833 -43.000001,0"/><path id="path3833" fill="none" stroke="#8ae234" stroke-linecap="butt" stroke-linejoin="miter" stroke-opacity="1" stroke-width="2.363" d="m 115.7015,48.7833 -31.000001,-2"/><path id="path3843" fill="none" stroke="#8ae234" stroke-linecap="butt" stroke-linejoin="miter" stroke-opacity="1" stroke-width="2.363" d="m 85.701499,35.7833 36.000001,13"/><path id="path3019-6" fill="#73d216" stroke="none" d="m 121.7015,50.7833 -16,6 -20.000001,-8 z"/><path id="path3835" fill="none" stroke="#8ae234" stroke-linecap="butt" stroke-linejoin="miter" stroke-opacity="1" stroke-width="2.363" d="m 87.701499,48.7833 -6,-13"/><path id="path3827" fill="none" stroke="#8ae234" stroke-linecap="butt" stroke-linejoin="miter" stroke-opacity="1" stroke-width="2.363" d="m 91.701499,49.7833 16.000001,6"/><path id="path3837" fill="none" stroke="#8ae234" stroke-linecap="butt" stroke-linejoin="miter" stroke-opacity="1" stroke-width="2.363" d="m 80.701499,36.7833 33.000001,13"/><path id="path3007" fill="none" stroke="#4e9a06" stroke-linecap="round" stroke-linejoin="round" stroke-opacity="1" stroke-width="2.363" d="m 105.7015,6.7833 18,8 -32.000001,-4 14.000001,-4"/><path id="path3009" fill="none" stroke="#4e9a06" stroke-linecap="round" stroke-linejoin="round" stroke-opacity="1" stroke-width="2.363" d="m 91.701499,10.7833 -10,10 42.000001,-6 z"/><path id="path3011" fill="none" stroke="#4e9a06" stroke-linecap="round" stroke-linejoin="round" stroke-opacity="1" stroke-width="2.363" d="m 123.7015,14.7833 6,20 -48.000001,-14 42.000001,-6"/><path id="path3013" fill="none" stroke="#4e9a06" stroke-linecap="round" stroke-linejoin="round" stroke-opacity="1" stroke-width="2.363" d="m 129.7015,34.7833 -50.000001,0 2,-14 z"/><path id="path3015" fill="none" stroke="#4e9a06" stroke-linecap="round" stroke-linejoin="round" stroke-opacity="1" stroke-width="2.363" d="m 79.7015,34.7833 42,16 8,-16 z"/><path id="path3829" fill="none" stroke="#8ae234" stroke-linecap="butt" stroke-linejoin="miter" stroke-opacity="1" stroke-width="2.363" d="m 103.7015,55.7833 14,-5"/><path id="path3017" fill="none" stroke="#4e9a06" stroke-linecap="round" stroke-linejoin="round" stroke-opacity="1" stroke-width="2.363" d="m 121.7015,50.7833 -36.000001,-2 -6,-14 z"/><path id="path3831" fill="none" stroke="#8ae234" stroke-linecap="butt" stroke-linejoin="miter" stroke-opacity="1" stroke-width="2.363" d="m 91.701499,50.7833 26.000001,1"/><path id="path3019" fill="none" stroke="#4e9a06" stroke-linecap="round" stroke-linejoin="round" stroke-opacity="1" stroke-width="2.363" d="m 121.7015,50.7833 -16,6 -20,-8 z"/></g><g id="g3259" transform="matrix(0.82684352,0,0,0.82684352,-38.399227,-64.38779)"><path id="path2267-3" fill="url(#radialGradient3291)" fill-opacity="1" fill-rule="evenodd" stroke="none" stroke-width="1" d="m 43.25,41.625 a 18.0625,5.875 0 1 1 -36.125,0 18.0625,5.875 0 1 1 36.125,0 z" color="#000" display="inline" opacity=".267" overflow="visible" transform="matrix(1.6349796,0,0,1.0662685,41.144461,104.39137)" visibility="visible" style="marker:none"/><path id="path3007-3-1" fill="#8ae234" stroke="none" d="m 76.068999,101.8768 18,8 -32,-4 14,-4"/><path id="path3009-6-9" fill="#8ae234" stroke="none" d="m 62.068999,105.8768 -10,10 42,-6 z"/><path id="path3011-7-4" fill="#73d216" stroke="none" d="m 94.068999,109.8768 6.000001,20 -48.000001,-14 42,-6"/><path id="path3851-7" fill="none" stroke="#8ae234" stroke-linecap="butt" stroke-linejoin="miter" stroke-opacity="1" stroke-width="2.419" d="m 55.068999,114.8768 44,13"/><path id="path3013-5-8" fill="#73d216" stroke="none" d="m 100.069,129.8768 -50.000001,0 2,-14 z"/><path id="path3853-4" fill="none" stroke="#8ae234" stroke-linecap="butt" stroke-linejoin="miter" stroke-opacity="1" stroke-width="2.419" d="m 98.068999,128.8768 -6,-19"/><path id="path3845-5" fill="none" stroke="#8ae234" stroke-linecap="butt" stroke-linejoin="miter" stroke-opacity="1" stroke-width="2.419" d="m 51.068999,127.8768 42,0"/><path id="path3855-0" fill="none" stroke="#8ae234" stroke-linecap="butt" stroke-linejoin="miter" stroke-opacity="1" stroke-width="2.419" d="m 59.068999,116.8768 35,-5"/><path id="path3015-3-3" fill="#4e9a06" stroke="none" d="m 50.068999,129.8768 42,16 8.000001,-16 z"/><path id="path3847-6" fill="none" stroke="#8ae234" stroke-linecap="butt" stroke-linejoin="miter" stroke-opacity="1" stroke-width="2.419" d="m 92.068999,129.8768 -40,-12"/><path id="path3839-1" fill="none" stroke="#73d216" stroke-linecap="butt" stroke-linejoin="miter" stroke-opacity="1" stroke-width="2.419" d="m 91.068999,143.8768 7,-14"/><path id="path3849-0" fill="none" stroke="#8ae234" stroke-linecap="butt" stroke-linejoin="miter" stroke-opacity="1" stroke-width="2.419" d="m 54.068999,116.8768 -2,13"/><path id="path3017-5-6" fill="#4e9a06" stroke="none" d="m 92.068999,145.8768 -36,-2 -6,-14 z"/><path id="path3841-3" fill="none" stroke="#73d216" stroke-linecap="butt" stroke-linejoin="miter" stroke-opacity="1" stroke-width="2.419" d="m 99.068999,131.8768 -43,0"/><path id="path3833-2" fill="none" stroke="#73d216" stroke-linecap="butt" stroke-linejoin="miter" stroke-opacity="1" stroke-width="2.419" d="m 86.068999,143.8768 -31,-2"/><path id="path3843-0" fill="none" stroke="#73d216" stroke-linecap="butt" stroke-linejoin="miter" stroke-opacity="1" stroke-width="2.419" d="m 56.068999,130.8768 36,13"/><path id="path3019-6-6" fill="#4e9a06" stroke="none" d="m 92.068999,145.8768 -16,6 -20,-8 z"/><path id="path3835-1" fill="none" stroke="#73d216" stroke-linecap="butt" stroke-linejoin="miter" stroke-opacity="1" stroke-width="2.419" d="m 58.068999,143.8768 -6,-13"/><path id="path3827-5" fill="none" stroke="#73d216" stroke-linecap="butt" stroke-linejoin="miter" stroke-opacity="1" stroke-width="2.419" d="m 62.068999,144.8768 16,6"/><path id="path3837-5" fill="none" stroke="#73d216" stroke-linecap="butt" stroke-linejoin="miter" stroke-opacity="1" stroke-width="2.419" d="m 51.068999,131.8768 33,13"/><path id="path3007-4" fill="none" stroke="#172a04" stroke-linecap="round" stroke-linejoin="round" stroke-opacity="1" stroke-width="2.419" d="m 76.068999,101.8768 18,8 -32,-4 14,-4"/><path id="path3009-7" fill="none" stroke="#172a04" stroke-linecap="round" stroke-linejoin="round" stroke-opacity="1" stroke-width="2.419" d="m 62.068999,105.8768 -10,10 42,-6 z"/><path id="path3011-6" fill="none" stroke="#172a04" stroke-linecap="round" stroke-linejoin="round" stroke-opacity="1" stroke-width="2.419" d="m 94.068999,109.8768 6.000001,20 -48.000001,-14 42,-6"/><path id="path3013-56" fill="none" stroke="#172a04" stroke-linecap="round" stroke-linejoin="round" stroke-opacity="1" stroke-width="2.419" d="m 100.069,129.8768 -50.000001,0 2,-14 z"/><path id="path3015-9" fill="none" stroke="#172a04" stroke-linecap="round" stroke-linejoin="round" stroke-opacity="1" stroke-width="2.419" d="m 50.068999,129.8768 42,16 8.000001,-16 z"/><path id="path3829-3" fill="none" stroke="#73d216" stroke-linecap="butt" stroke-linejoin="miter" stroke-opacity="1" stroke-width="2.419" d="m 74.068999,150.8768 14,-5"/><path id="path3017-7" fill="none" stroke="#172a04" stroke-linecap="round" stroke-linejoin="round" stroke-opacity="1" stroke-width="2.419" d="m 92.068999,145.8768 -36,-2 -6,-14 z"/><path id="path3831-4" fill="none" stroke="#73d216" stroke-linecap="butt" stroke-linejoin="miter" stroke-opacity="1" stroke-width="2.419" d="m 62.068999,145.8768 26,1"/><path id="path3019-5" fill="none" stroke="#172a04" stroke-linecap="round" stroke-linejoin="round" stroke-opacity="1" stroke-width="2.419" d="m 92.068999,145.8768 -16,6 -20,-8 z"/></g></g></svg>