<svg xmlns="http://www.w3.org/2000/svg" xmlns:svg="http://www.w3.org/2000/svg" id="svg4526" width="64" height="64" version="1.1" viewBox="0 0 16.933 16.933"><metadata id="metadata4523"/><g id="layer1" transform="translate(0,-280.06667)"><g id="g56" transform="matrix(0.03906056,0,0,-0.03906056,8.4531576,281.04755)"><path id="path58" fill="#fff" fill-opacity="1" fill-rule="nonzero" stroke="none" d="m 0,0 c -106.512,0 -192.826,-86.347 -192.826,-192.843 0,-106.496 86.314,-192.843 192.826,-192.843 106.512,0 192.843,86.347 192.843,192.843 C 192.843,-86.347 106.512,0 0,0"/></g><g id="g60" transform="matrix(0.03906056,0,0,-0.03906056,12.491566,291.36405)"><path id="path62" fill="#1caad9" fill-opacity="1" fill-rule="nonzero" stroke="none" d="M 0,0 -88.744,-51.24 V 55.405 L 0,103.355 Z m -105.471,80.231 -105.388,55.868 105.388,60.86 105.405,-60.86 z m -15.868,-131.454 -89.074,51.421 v 103.736 l 89.074,-48.116 z m 17.951,329.587 C -217.504,278.364 -310,185.851 -310,71.736 c 0,-114.116 92.496,-206.629 206.612,-206.629 114.115,0 206.611,92.513 206.611,206.629 0.017,114.115 -92.479,206.628 -206.611,206.628"/></g></g></svg>