<svg xmlns="http://www.w3.org/2000/svg" xmlns:svg="http://www.w3.org/2000/svg" xmlns:xlink="http://www.w3.org/1999/xlink" id="svg2" width="64" height="64" enable-background="new 0 0 128 129.396" overflow="visible" version="1.0" xml:space="preserve"><metadata id="metadata367"/><defs id="defs365"><linearGradient id="linearGradient5060"><stop id="stop5062" offset="0" stop-color="#000" stop-opacity="1"/><stop id="stop5064" offset="1" stop-color="#000" stop-opacity="0"/></linearGradient><linearGradient id="linearGradient5048"><stop id="stop5050" offset="0" stop-color="#000" stop-opacity="0"/><stop id="stop5056" offset=".5" stop-color="#000" stop-opacity="1"/><stop id="stop5052" offset="1" stop-color="#000" stop-opacity="0"/></linearGradient><linearGradient id="linearGradient2406"><stop id="stop2408" offset="0" stop-color="#7c7e79" stop-opacity="1"/><stop id="stop2414" offset=".172" stop-color="#848681" stop-opacity="1"/><stop id="stop2410" offset="1" stop-color="#898c86" stop-opacity="1"/></linearGradient><linearGradient id="linearGradient2390"><stop id="stop2392" offset="0" stop-color="#919191" stop-opacity="1"/><stop id="stop2394" offset="1" stop-color="#919191" stop-opacity="0"/></linearGradient><linearGradient id="linearGradient2378"><stop id="stop2380" offset="0" stop-color="#575757" stop-opacity="1"/><stop id="stop2382" offset="1" stop-color="#575757" stop-opacity="0"/></linearGradient><linearGradient id="linearGradient2368"><stop id="stop2370" offset="0" stop-color="#fff" stop-opacity="1"/><stop id="stop2372" offset="1" stop-color="#fff" stop-opacity="0"/></linearGradient><linearGradient id="linearGradient2349"><stop id="stop2351" offset="0" stop-color="#000" stop-opacity="1"/><stop id="stop2353" offset="1" stop-color="#000" stop-opacity="0"/></linearGradient><linearGradient id="linearGradient2341"><stop id="stop2343" offset="0" stop-color="#000" stop-opacity="1"/><stop id="stop2345" offset="1" stop-color="#000" stop-opacity="0"/></linearGradient><linearGradient id="linearGradient2329"><stop id="stop2331" offset="0" stop-color="#000" stop-opacity=".186"/><stop id="stop2333" offset="1" stop-color="#fff" stop-opacity="1"/></linearGradient><linearGradient id="linearGradient2319"><stop id="stop2321" offset="0" stop-color="#000" stop-opacity="1"/><stop id="stop2323" offset="1" stop-color="#000" stop-opacity="0"/></linearGradient><linearGradient id="linearGradient2307"><stop id="stop2309" offset="0" stop-color="#fce94f" stop-opacity="1"/><stop id="stop2311" offset="1" stop-color="#c4a000" stop-opacity="1"/></linearGradient><linearGradient id="linearGradient2299"><stop id="stop2301" offset="0" stop-color="#fff" stop-opacity="1"/><stop id="stop2303" offset="1" stop-color="#fff" stop-opacity="0"/></linearGradient><linearGradient id="XMLID_2_" x1="80.224" x2="48.046" y1="117.52" y2="59.8" gradientTransform="matrix(0.314683,0,0,0.314683,4.128264,3.742874)" gradientUnits="userSpaceOnUse"><stop id="stop17" offset="0" stop-color="#CCC"/><stop id="stop19" offset=".983" stop-color="#FFF"/><midPointStop id="midPointStop48" offset="0" stop-color="#CCC"/><midPointStop id="midPointStop50" offset=".5" stop-color="#CCC"/><midPointStop id="midPointStop52" offset=".983" stop-color="#FFF"/></linearGradient><linearGradient id="XMLID_39_" x1="64.388" x2="64.388" y1="65.124" y2="35.569" gradientTransform="matrix(0.354101,0,0,0.354101,1.638679,15.916351)" gradientUnits="userSpaceOnUse"><stop id="stop336" offset="0" stop-color="#FFF"/><stop id="stop338" offset=".854" stop-color="#FF6200"/><stop id="stop340" offset="1" stop-color="#F25D00"/><midPointStop id="midPointStop335" offset="0" stop-color="#FFF"/><midPointStop id="midPointStop337" offset=".5" stop-color="#FFF"/><midPointStop id="midPointStop339" offset=".854" stop-color="#FF6200"/><midPointStop id="midPointStop341" offset=".5" stop-color="#FF6200"/><midPointStop id="midPointStop343" offset="1" stop-color="#F25D00"/></linearGradient><radialGradient id="radialGradient2355" cx="24.023" cy="40.569" r="16.287" fx="24.023" fy="40.569" gradientTransform="matrix(1,0,0,0.43125,0,23.07369)" gradientUnits="userSpaceOnUse" xlink:href="#linearGradient2349"/><linearGradient id="linearGradient2396" x1="30.604" x2="30.604" y1="37.338" y2="36.112" gradientTransform="matrix(1.263867,0,0,0.859794,-6.499556,8.390924)" gradientUnits="userSpaceOnUse" xlink:href="#linearGradient2390"/><linearGradient id="linearGradient3091" x1="302.857" x2="302.857" y1="366.648" y2="609.505" gradientTransform="matrix(2.774389,0,0,1.969706,-1892.179,-872.8854)" gradientUnits="userSpaceOnUse" xlink:href="#linearGradient5048"/><radialGradient id="radialGradient3093" cx="605.714" cy="486.648" r="117.143" fx="605.714" fy="486.648" gradientTransform="matrix(2.774389,0,0,1.969706,-1891.633,-872.8854)" gradientUnits="userSpaceOnUse" xlink:href="#linearGradient5060"/><radialGradient id="radialGradient3095" cx="605.714" cy="486.648" r="117.143" fx="605.714" fy="486.648" gradientTransform="matrix(-2.774389,0,0,1.969706,112.7623,-872.8854)" gradientUnits="userSpaceOnUse" xlink:href="#linearGradient5060"/><linearGradient id="linearGradient3097" x1="52.006" x2="14.049" y1="166.133" y2="-42.219" gradientTransform="matrix(0.33695771,0,0,0.16845237,18.359216,31.823531)" gradientUnits="userSpaceOnUse" xlink:href="#XMLID_2_"/><linearGradient id="linearGradient3099" x1="17.603" x2="17.683" y1="26.057" y2="32.654" gradientTransform="matrix(0.96608282,0,0,1.0643583,0.37271614,14.16537)" gradientUnits="userSpaceOnUse" xlink:href="#linearGradient2329"/><radialGradient id="radialGradient3101" cx="24.195" cy="10.578" r="15.243" fx="24.195" fy="10.578" gradientTransform="matrix(1.1253822,-3.6190261e-8,4.2702714e-8,1.3526205,-2.6325921,17.585188)" gradientUnits="userSpaceOnUse" xlink:href="#linearGradient2378"/><linearGradient id="linearGradient3103" x1="17.85" x2="19.04" y1="28.939" y2="41.032" gradientTransform="matrix(0.87665579,0,0,1.0385625,3.7418033,16.52189)" gradientUnits="userSpaceOnUse" xlink:href="#linearGradient2406"/><radialGradient id="radialGradient3105" cx="20.444" cy="37.426" r="1.082" fx="20.444" fy="37.426" gradientTransform="matrix(1.1253822,0,0,0.99195607,-2.3107622,16.891784)" gradientUnits="userSpaceOnUse" xlink:href="#linearGradient2319"/><radialGradient id="radialGradient3107" cx="19.986" cy="36.778" r="1.082" fx="19.986" fy="36.778" gradientTransform="matrix(1.0517474,0,0,1.0932347,-0.98659432,12.782363)" gradientUnits="userSpaceOnUse" xlink:href="#linearGradient2307"/><linearGradient id="linearGradient3109" x1="64.388" x2="64.388" y1="65.124" y2="35.569" gradientTransform="matrix(0.35413852,0,0,0.35742028,2.0132831,16.132655)" gradientUnits="userSpaceOnUse" xlink:href="#XMLID_39_"/><radialGradient id="radialGradient3111" cx="7.533" cy="24.203" r="8.245" fx="7.533" fy="24.203" gradientTransform="matrix(4.1005204,0,0,4.2407044,-25.043323,-63.058799)" gradientUnits="userSpaceOnUse" xlink:href="#linearGradient2299"/><radialGradient id="radialGradient3113" cx="11.681" cy="19.554" r="8.245" fx="11.681" fy="19.554" gradientTransform="matrix(4.1005204,0,0,-4.2407044,-4.8242293,122.55815)" gradientUnits="userSpaceOnUse" xlink:href="#linearGradient2341"/><radialGradient id="radialGradient3115" cx="29.913" cy="30.443" r="4.002" fx="29.913" fy="30.443" gradientTransform="matrix(3.7518925,0,0,3.1773251,-81.64333,-50.105878)" gradientUnits="userSpaceOnUse" xlink:href="#linearGradient2368"/></defs><g id="g3070" transform="matrix(1.3179866,0,0,1.267971,0.10263805,-18.808262)"><g id="g5022" display="inline" transform="matrix(0.02158196,0,0,0.01859457,43.501876,57.862304)"><rect id="rect4173" width="1339.633" height="478.357" x="-1559.252" y="-150.697" fill="url(#linearGradient3091)" fill-opacity="1" fill-rule="nonzero" stroke="none" stroke-width="1" color="#000" display="inline" opacity=".402" overflow="visible" visibility="visible" style="marker:none"/><path id="path5058" fill="url(#radialGradient3093)" fill-opacity="1" fill-rule="nonzero" stroke="none" stroke-width="1" d="m -219.61876,-150.68038 c 0,0 0,478.33079 0,478.33079 142.874166,0.90045 345.40022,-107.16966 345.40014,-239.196175 0,-132.026537 -159.436816,-239.134595 -345.40014,-239.134615 z" color="#000" display="inline" opacity=".402" overflow="visible" visibility="visible" style="marker:none"/><path d="m -1559.2523,-150.68038 c 0,0 0,478.33079 0,478.33079 -142.8742,0.90045 -345.4002,-107.16966 -345.4002,-239.196175 0,-132.026537 159.4368,-239.134595 345.4002,-239.134615 z" style="marker:none" id="path5018" fill="url(#radialGradient3095)" fill-opacity="1" fill-rule="nonzero" stroke="none" stroke-width="1" color="#000" display="inline" opacity=".402" overflow="visible" visibility="visible"/></g><path id="rect1512" fill="url(#linearGradient3097)" fill-opacity="1" fill-rule="nonzero" stroke="#757575" stroke-dashoffset="0" stroke-linecap="butt" stroke-linejoin="miter" stroke-miterlimit="4" stroke-opacity="1" stroke-width="1.547" d="m 21.996298,24.47717 5.95809,0 c 0.839821,0 14.077421,15.692832 14.077421,16.606649 l 0,18.927878 c 0,0.913819 -0.677645,1.577323 -1.517466,1.577323 l -31.8667878,0 c -0.8398219,0 -1.5174661,-0.663504 -1.5174661,-1.577323 l 0,-18.927878 c 0,-0.913817 14.0263879,-16.606649 14.8662089,-16.606649 z" color="#000" display="inline" overflow="visible" visibility="visible" style="marker:none"/><path id="path5" fill="none" d="m 47.342981,62.381378 -45.3297007,0 0,-45.749764 45.3297007,0 0,45.749764 z"/><path id="path2327" fill="url(#linearGradient3099)" fill-opacity="1" fill-rule="evenodd" d="m 24.580949,45.027127 0,15.773232 -13.657195,0 0,-15.773232 z" clip-rule="evenodd"/><path id="path2357" fill="none" stroke="#fff" stroke-dashoffset="0" stroke-linecap="butt" stroke-linejoin="miter" stroke-miterlimit="4" stroke-opacity="1" stroke-width="1.547" d="m 22.157198,25.710838 5.559686,0 c 0.783665,0 12.797459,13.731819 12.797459,14.58432 l 0,18.139216 c 0,1.577323 0,1.577323 -1.517466,1.577323 l -29.5905887,0 c -0.7587331,0 -0.7587331,0 -0.7587331,-1.577323 l 0,-18.139216 c 0,-0.852501 12.7259808,-14.58432 13.5096428,-14.58432 z" color="#000" display="inline" opacity=".313" overflow="visible" visibility="visible" style="marker:none"/><path id="path23" fill="url(#radialGradient3101)" fill-opacity="1" fill-rule="evenodd" d="M 7.5827237,44.422074 7.5284612,47.041595 25.898571,33.738801 41.186586,44.997789 41.257903,44.683153 24.885713,28.629939 7.5827237,44.422074 z" clip-rule="evenodd" opacity=".2"/><path id="path188" fill="url(#linearGradient3103)" fill-opacity="1" fill-rule="evenodd" d="m 23.063483,46.60445 0,14.195909 -10.622263,0 0,-14.195909 z" clip-rule="evenodd"/><path id="path2315" fill="url(#radialGradient3105)" fill-opacity="1" fill-rule="evenodd" d="m 20.697209,52.943149 c 0.672862,0 1.216745,0.479054 1.216745,1.068429 0,0.59534 -0.543883,1.07837 -1.216745,1.07837 -0.672343,0 -1.218815,-0.48303 -1.218815,-1.07837 5.15e-4,-0.589375 0.546472,-1.068429 1.218815,-1.068429 z" clip-rule="evenodd" opacity=".409"/><path id="path217" fill="url(#radialGradient3107)" fill-opacity="1" fill-rule="evenodd" d="m 20.408886,52.125081 c 0.628834,0 1.137131,0.527966 1.137131,1.177517 0,0.656121 -0.508297,1.188468 -1.137131,1.188468 -0.628352,0 -1.139068,-0.532347 -1.139068,-1.188468 4.81e-4,-0.649551 0.510716,-1.177517 1.139068,-1.177517 z" clip-rule="evenodd"/><path id="path342" fill="url(#linearGradient3109)" d="m 24.824768,27.88478 18.929066,17.330815 0.494731,0.395666 0.403719,-0.172992 L 44.279375,44.669457 44.001731,44.443926 24.824768,28.725648 5.4331992,44.616558 5.1955722,44.762029 4.9788393,45.475441 5.412305,45.6059 5.7968998,45.294586 24.824768,27.88478 z"/><path id="path362" fill="#ef2929" stroke="#a40000" stroke-linejoin="round" stroke-width="1.547" d="m 24.707177,18.509717 -21.8840576,18.271015 -0.6247951,7.2331 2.0001482,2.083674 c 0,0 20.4095435,-17.318114 20.6262785,-17.490392 L 44.459373,46.314821 46.357998,43.969039 44.742035,36.791004 24.706199,18.509023 z"/><path d="M 3.5717323,37.220606 2.9244901,43.708892 24.746231,25.281341 24.699606,19.529932 z" style="marker:none" id="path1536" fill="url(#radialGradient3111)" fill-opacity="1" fill-rule="nonzero" stroke="none" stroke-width="1.547" color="#000" display="inline" opacity=".409" overflow="visible" visibility="visible"/><path id="path2337" fill="url(#radialGradient3113)" fill-opacity="1" fill-rule="nonzero" stroke="none" stroke-width="1" d="m 24.743426,25.241804 -0.01789,-5.791291 19.339394,17.773851 1.458438,6.561749 z" color="#000" display="inline" opacity=".136" overflow="visible" visibility="visible" style="marker:none"/><path id="rect2361" fill="none" stroke="#fff" stroke-dashoffset="0" stroke-linecap="butt" stroke-linejoin="miter" stroke-miterlimit="4" stroke-opacity="1" stroke-width=".774" d="m 27.375975,44.179325 8.912749,0 c 0.759748,0 1.371388,0.618816 1.371388,1.387481 l -0.0079,9.056474 c 0,0.768666 -0.587929,1.262797 -1.347677,1.262797 l -8.928611,0 c -0.75975,0 -1.371388,-0.618818 -1.371388,-1.387484 l 0,-8.931787 c 0,-0.768665 0.611638,-1.387481 1.371388,-1.387481 z" color="#000" display="inline" opacity=".318" overflow="visible" visibility="visible" style="marker:none"/><rect id="rect3263" width="10.002" height="10.056" x="26.885" y="44.999" fill="#3465a4" fill-opacity="1" fill-rule="nonzero" stroke="#757575" stroke-dasharray="none" stroke-dashoffset="0" stroke-linecap="butt" stroke-linejoin="miter" stroke-miterlimit="4" stroke-opacity="1" stroke-width=".774" color="#000" display="inline" overflow="visible" rx=".381" ry=".385" visibility="visible" style="marker:none"/><path d="m 27.48442,50.947886 c 3.618367,0.334281 5.52831,-1.459256 8.869092,-1.567295 l 0.02473,-3.885576 -8.912557,-0.0061 0.01873,5.458957 z" style="marker:none" id="rect2363" fill="url(#radialGradient3115)" fill-opacity="1" fill-rule="nonzero" stroke="none" stroke-width="1" color="#000" display="inline" opacity=".398" overflow="visible" visibility="visible"/></g></svg>