<svg xmlns="http://www.w3.org/2000/svg" xmlns:svg="http://www.w3.org/2000/svg" id="svg2" width="100%" height="100%" version="1.0" viewBox="0 0 64 64"><metadata id="metadata56"/><path id="path3035" fill="#d3d7cf" fill-opacity="1" stroke="#2e3436" stroke-dasharray="none" stroke-dashoffset=".6" stroke-linecap="round" stroke-linejoin="miter" stroke-miterlimit="4" stroke-opacity="1" stroke-width="2" d="m -4,8 a 4,4 0 1 1 -8,0 4,4 0 1 1 8,0 z" transform="translate(15,3)"/><path id="path3035-1" fill="#d3d7cf" fill-opacity="1" stroke="#2e3436" stroke-dasharray="none" stroke-dashoffset=".6" stroke-linecap="round" stroke-linejoin="miter" stroke-miterlimit="4" stroke-opacity="1" stroke-width="2" d="m -4,8 a 4,4 0 1 1 -8,0 4,4 0 1 1 8,0 z" transform="translate(33,-1)"/><path id="path3035-2" fill="#d3d7cf" fill-opacity="1" stroke="#2e3436" stroke-dasharray="none" stroke-dashoffset=".6" stroke-linecap="round" stroke-linejoin="miter" stroke-miterlimit="4" stroke-opacity="1" stroke-width="2" d="m -4,8 a 4,4 0 1 1 -8,0 4,4 0 1 1 8,0 z" transform="translate(59,-1)"/><path id="path3035-7" fill="#d3d7cf" fill-opacity="1" stroke="#2e3436" stroke-dasharray="none" stroke-dashoffset=".6" stroke-linecap="round" stroke-linejoin="miter" stroke-miterlimit="4" stroke-opacity="1" stroke-width="2" d="m -4,8 a 4,4 0 1 1 -8,0 4,4 0 1 1 8,0 z" transform="translate(49,11)"/><path id="path3035-0" fill="#d3d7cf" fill-opacity="1" stroke="#2e3436" stroke-dasharray="none" stroke-dashoffset=".6" stroke-linecap="round" stroke-linejoin="miter" stroke-miterlimit="4" stroke-opacity="1" stroke-width="2" d="m -4,8 a 4,4 0 1 1 -8,0 4,4 0 1 1 8,0 z" transform="translate(61,23)"/><path id="path3035-9" fill="#d3d7cf" fill-opacity="1" stroke="#2e3436" stroke-dasharray="none" stroke-dashoffset=".6" stroke-linecap="round" stroke-linejoin="miter" stroke-miterlimit="4" stroke-opacity="1" stroke-width="2" d="m -4,8 a 4,4 0 1 1 -8,0 4,4 0 1 1 8,0 z" transform="translate(23,13)"/><path id="path3035-3" fill="#d3d7cf" fill-opacity="1" stroke="#2e3436" stroke-dasharray="none" stroke-dashoffset=".6" stroke-linecap="round" stroke-linejoin="miter" stroke-miterlimit="4" stroke-opacity="1" stroke-width="2" d="m -4,8 a 4,4 0 1 1 -8,0 4,4 0 1 1 8,0 z" transform="translate(29,27)"/><path id="path3035-6" fill="#d3d7cf" fill-opacity="1" stroke="#2e3436" stroke-dasharray="none" stroke-dashoffset=".6" stroke-linecap="round" stroke-linejoin="miter" stroke-miterlimit="4" stroke-opacity="1" stroke-width="2" d="m -4,8 a 4,4 0 1 1 -8,0 4,4 0 1 1 8,0 z" transform="translate(25,43)"/><path id="path3035-06" fill="#d3d7cf" fill-opacity="1" stroke="#2e3436" stroke-dasharray="none" stroke-dashoffset=".6" stroke-linecap="round" stroke-linejoin="miter" stroke-miterlimit="4" stroke-opacity="1" stroke-width="2" d="m -4,8 a 4,4 0 1 1 -8,0 4,4 0 1 1 8,0 z" transform="translate(49,43)"/><path id="path3035-26" fill="#d3d7cf" fill-opacity="1" stroke="#2e3436" stroke-dasharray="none" stroke-dashoffset=".6" stroke-linecap="round" stroke-linejoin="miter" stroke-miterlimit="4" stroke-opacity="1" stroke-width="2" d="m -4,8 a 4,4 0 1 1 -8,0 4,4 0 1 1 8,0 z" transform="translate(45,27)"/><path id="path3035-18" fill="#d3d7cf" fill-opacity="1" stroke="#2e3436" stroke-dasharray="none" stroke-dashoffset=".6" stroke-linecap="round" stroke-linejoin="miter" stroke-miterlimit="4" stroke-opacity="1" stroke-width="2" d="m -4,8 a 4,4 0 1 1 -8,0 4,4 0 1 1 8,0 z" transform="translate(63,47)"/></svg>