<svg xmlns="http://www.w3.org/2000/svg" xmlns:svg="http://www.w3.org/2000/svg" xmlns:xlink="http://www.w3.org/1999/xlink" id="svg2985" width="64" height="64" version="1.1"><defs id="defs2987"><linearGradient id="linearGradient3981"><stop id="stop3983" offset="0" stop-color="#d3d7cf" stop-opacity="1"/><stop id="stop3985" offset="1" stop-color="#888a85" stop-opacity="1"/></linearGradient><linearGradient id="linearGradient3975"><stop id="stop3977" offset="0" stop-color="#d3d7cf" stop-opacity="1"/><stop id="stop3979" offset="1" stop-color="#888a85" stop-opacity="1"/></linearGradient><linearGradient id="linearGradient3932"><stop id="stop3934" offset="0" stop-color="#d3d7cf" stop-opacity="1"/><stop id="stop3936" offset="1" stop-color="#888a85" stop-opacity="1"/></linearGradient><linearGradient id="linearGradient3924"><stop id="stop3926" offset="0" stop-color="#d3d7cf" stop-opacity="1"/><stop id="stop3928" offset="1" stop-color="#555753" stop-opacity="1"/></linearGradient><linearGradient id="linearGradient3859"><stop id="stop3861" offset="0" stop-color="#a40000" stop-opacity="1"/><stop id="stop3863" offset="1" stop-color="#960000" stop-opacity="1"/></linearGradient><linearGradient id="linearGradient3851"><stop id="stop3853" offset="0" stop-color="#ef2929" stop-opacity="1"/><stop id="stop3855" offset="1" stop-color="#a40000" stop-opacity="1"/></linearGradient><marker id="Arrow1Send" orient="auto" overflow="visible" refX="0" refY="0"><path id="path4031" fill-rule="evenodd" stroke="#000" stroke-width="1pt" d="M 0.0,0.0 L 5.0,-5.0 L -12.5,0.0 L 5.0,5.0 L 0.0,0.0 z" transform="scale(0.2) rotate(180) translate(6,0)"/></marker><marker id="Arrow2Send" orient="auto" overflow="visible" refX="0" refY="0"><path id="path4049" fill-rule="evenodd" stroke-linejoin="round" stroke-width=".625" d="M 8.7185878,4.0337352 L -2.2072895,0.016013256 L 8.7185884,-4.0017078 C 6.9730900,-1.6296469 6.9831476,1.6157441 8.7185878,4.0337352 z" transform="scale(0.3) rotate(180) translate(-2.3,0)"/></marker><marker id="Arrow2Sstart" orient="auto" overflow="visible" refX="0" refY="0"><path id="path4046" fill-rule="evenodd" stroke-linejoin="round" stroke-width=".625" d="M 8.7185878,4.0337352 L -2.2072895,0.016013256 L 8.7185884,-4.0017078 C 6.9730900,-1.6296469 6.9831476,1.6157441 8.7185878,4.0337352 z" transform="scale(0.3) translate(-2.3,0)"/></marker><marker id="Arrow2Mstart" orient="auto" overflow="visible" refX="0" refY="0"><path id="path4040" fill-rule="evenodd" stroke-linejoin="round" stroke-width=".625" d="M 8.7185878,4.0337352 L -2.2072895,0.016013256 L 8.7185884,-4.0017078 C 6.9730900,-1.6296469 6.9831476,1.6157441 8.7185878,4.0337352 z" transform="scale(0.6) translate(0,0)"/></marker><linearGradient id="linearGradient3900"><stop id="stop3902" offset="0" stop-color="#fff" stop-opacity="1"/><stop id="stop3904" offset="1" stop-color="#a0a0a0" stop-opacity="1"/></linearGradient><linearGradient id="linearGradient3882"><stop id="stop3884" offset="0" stop-color="#fff" stop-opacity="1"/><stop id="stop3886" offset="1" stop-color="#960000" stop-opacity="1"/></linearGradient><linearGradient id="linearGradient3860"><stop id="stop3862" offset="0" stop-color="#1e76e3" stop-opacity="1"/><stop id="stop3864" offset="1" stop-color="#fff" stop-opacity="1"/></linearGradient><linearGradient id="linearGradient3866-5" x1="31.125" x2="30.114" y1="61.411" y2="12.161" gradientUnits="userSpaceOnUse" xlink:href="#linearGradient3860-6"/><linearGradient id="linearGradient3860-6"><stop id="stop3862-4" offset="0" stop-color="#5a9ff5" stop-opacity="1"/><stop id="stop3864-4" offset="1" stop-color="#fff" stop-opacity="1"/></linearGradient><radialGradient id="radialGradient3820" cx="20.411" cy="18.774" r="15.993" fx="20.411" fy="18.774" gradientTransform="matrix(1.3726149,0.04592581,-0.03076687,0.9195501,-5.1349354,6.7943334)" gradientUnits="userSpaceOnUse" xlink:href="#linearGradient3932"/><radialGradient id="radialGradient3823" cx="49.533" cy="27.881" r="5.074" fx="49.533" fy="27.881" gradientTransform="matrix(0.93577853,-2.137982,0.77852437,0.34075422,-18.5252,123.82161)" gradientUnits="userSpaceOnUse" xlink:href="#linearGradient3924"/><radialGradient id="radialGradient3829" cx="19.609" cy="43.434" r="11.77" fx="19.609" fy="43.434" gradientTransform="matrix(-1.4218404,0.23214624,-0.04364718,-0.26732865,66.338604,41.167)" gradientUnits="userSpaceOnUse" xlink:href="#linearGradient3851"/><radialGradient id="radialGradient3946-6" cx="16.275" cy="23.719" r="3.682" fx="16.275" fy="23.719" gradientTransform="matrix(1.1622967,-0.42417542,0.71241125,1.9521011,-19.727075,-16.498215)" gradientUnits="userSpaceOnUse" xlink:href="#linearGradient3882-7"/><linearGradient id="linearGradient3882-7"><stop id="stop3884-5" offset="0" stop-color="#fff" stop-opacity="1"/><stop id="stop3886-3" offset="1" stop-color="#960000" stop-opacity="1"/></linearGradient><radialGradient id="radialGradient3909" cx="20.197" cy="25.416" r="2.5" fx="20.197" fy="25.416" gradientTransform="matrix(0.24349825,1.4609914,-2.6633664,0.44389381,83.603295,-17.065868)" gradientUnits="userSpaceOnUse" xlink:href="#linearGradient3981"/><radialGradient id="radialGradient3911" cx="17.915" cy="24.185" r="2.5" fx="17.915" fy="24.185" gradientTransform="matrix(1.1875159,0.30002561,-0.66139805,2.6178455,13.656265,-48.87061)" gradientUnits="userSpaceOnUse" xlink:href="#linearGradient3900"/><radialGradient id="radialGradient3913" cx="19.3" cy="23.917" r="2.5" fx="19.3" fy="23.917" gradientTransform="matrix(1.7044888,2.6784819,-2.2779738,1.4496199,44.850209,-66.292918)" gradientUnits="userSpaceOnUse" xlink:href="#linearGradient3975"/><radialGradient id="radialGradient3911-6" cx="17.915" cy="24.185" r="2.5" fx="17.915" fy="24.185" gradientTransform="matrix(1.1875159,0.30002561,-0.66139805,2.6178455,13.656265,-48.87061)" gradientUnits="userSpaceOnUse" xlink:href="#linearGradient3900-2"/><linearGradient id="linearGradient3900-2"><stop id="stop3902-9" offset="0" stop-color="#fff" stop-opacity="1"/><stop id="stop3904-1" offset="1" stop-color="#a0a0a0" stop-opacity="1"/></linearGradient></defs><metadata id="metadata2990"/><g id="layer1"><g id="g3977" transform="matrix(1.6428611,0,0,1.6428611,-22.221039,-15.973411)"><path id="path3938-5" fill="#a40000" fill-opacity="1" stroke="#ef2929" stroke-linecap="butt" stroke-linejoin="miter" stroke-opacity="1" stroke-width="1.217" d="m 17.687737,31.259214 0.707107,-7.778175 c 0,0 0.903098,-1.364256 2.670865,-1.364256 1.767767,0 1.925329,0.657149 1.925329,0.657149 l 1.06066,8.220117 z"/><path id="path3938" fill="none" fill-opacity="1" stroke="#a40000" stroke-linecap="butt" stroke-linejoin="miter" stroke-opacity="1" stroke-width="1.217" d="m 16.528621,30.942758 0.707107,-7.778175 c 0,0 0.795495,-1.767767 2.563262,-1.767767 1.767767,0 2.032932,1.06066 2.032932,1.06066 l 1.06066,8.220117 z"/><g id="g3948" stroke="#2e3436" stroke-width="1.217"><path id="path3918" fill="url(#radialGradient3909)" fill-opacity="1" stroke="#2e3436" stroke-linecap="round" stroke-linejoin="round" stroke-opacity="1" stroke-width="1.217" d="m 19.004065,21.288112 2.434777,-1.217388 c 0,0 1.299061,2.033199 1.299061,4.088228 0,2.055029 0,7.159456 0,7.159456 l -3.733838,1.534893 0,-7.30433 0.861219,-2.472776 c 0,0 0.243635,-1.125171 -0.861219,-1.788083 z"/><path id="path3932" fill="url(#radialGradient3913)" fill-opacity="1" stroke="#2e3436" stroke-linecap="round" stroke-linejoin="round" stroke-opacity="1" stroke-width="1.217" d="m 22.737903,31.318408 c 0,0 0,-5.104427 0,-7.159456 0,-2.055029 -1.299061,-4.088228 -1.299061,-4.088228 0,-0.927244 0,-2.434777 0,-2.434777 l 14.078923,4.745678 0,2.108783 c 0,0 -1.930193,-0.176776 -1.930193,1.502602 0,1.679379 0,7.51301 0,7.51301 z"/></g><path id="path3939" fill="none" stroke="#d3d7cf" stroke-linecap="round" stroke-linejoin="miter" stroke-opacity="1" stroke-width="2" d="m 31,21 -18,-6 -2,1 0,2 c 2.625,3.53125 1,5 0,8 l 0,8" transform="matrix(0.60869419,0,0,0.60869419,13.525817,9.7229224)"/><path id="path3966" fill="none" stroke="#0b1521" stroke-dasharray="none" stroke-linecap="round" stroke-linejoin="miter" stroke-miterlimit="4" stroke-opacity="1" stroke-width="3.652" d="m 26.308395,23.722889 13.391272,3.652165"/><path id="path3966-3" fill="none" stroke="#3465a4" stroke-dasharray="none" stroke-linecap="round" stroke-linejoin="miter" stroke-miterlimit="4" stroke-opacity="1" stroke-width="1.217" d="m 26.308395,23.722889 13.391272,3.652165"/><path id="path3874" fill="#a40000" fill-opacity="1" stroke="#280000" stroke-linecap="round" stroke-linejoin="round" stroke-opacity="1" stroke-width="1.217" d="m 37.786019,40.135146 c 0,0 3.756505,-4.375223 4.242641,-7.159456 1.723573,3.270369 1.931867,2.921082 1.931867,2.921082 0,0 -3.390275,3.66385 -6.174508,4.238374 z"/><path id="path3857" fill="none" stroke="#ef2929" stroke-linecap="butt" stroke-linejoin="miter" stroke-opacity="1" stroke-width="2" d="m 50,40.078125 c -2.651585,3.14687 -5.578377,5.310857 -8.515625,7.4375" transform="matrix(0.60869419,0,0,0.60869419,13.525817,9.7229224)"/><path id="path3870" fill="url(#radialGradient3829)" fill-opacity="1" stroke="#280000" stroke-linecap="round" stroke-linejoin="round" stroke-opacity="1" stroke-width="1.217" d="m 42.02866,32.97569 c 0,0 -1.237437,-1.149049 -4.596194,-1.149049 -3.358758,0 -9.678525,1.723573 -11.136932,2.165515 -1.458408,0.441941 -6.805903,2.872621 -6.805903,2.872621 0,0 1.458408,1.016466 1.767767,1.325825 0.309359,0.309359 1.281631,1.325825 1.281631,1.325825 0,0 5.170718,1.37002 7.51301,1.37002 2.342291,0 7.73398,-0.751301 7.73398,-0.751301 0,0 3.756505,-4.375223 4.242641,-7.159456 z"/><path id="path3876" fill="url(#radialGradient3823)" fill-opacity="1" stroke="#2e3436" stroke-linecap="round" stroke-linejoin="round" stroke-opacity="1" stroke-width="1.217" d="m 45.786609,21.288112 c 0,4.065864 -3.757949,11.687578 -3.757949,11.687578 1.723573,3.270369 1.931867,2.921082 1.931867,2.921082 2.695845,-1.325825 6.695636,-8.521718 6.695636,-8.521718 0,0 -1.466603,-5.821777 -4.869554,-6.086942"/><path id="path3878" fill="url(#radialGradient3820)" fill-opacity="1" stroke="#2e3436" stroke-linecap="round" stroke-linejoin="round" stroke-opacity="1" stroke-width="1.217" d="m 15.3519,33.461996 c 0.18566,-1.505743 3.3356,-4.618246 3.3356,-4.618246 L 20.34375,30.5 c 0,0 2.21875,-1.5 4.15625,-2.28125 C 26.4375,27.4375 30.53125,26.25 30.53125,26.25 l 0.9375,-4.4375 c 0,0 5.796141,-3.567859 14.317859,-0.524388 0,4.065864 -3.757949,11.687578 -3.757949,11.687578 0,0 -1.237437,-1.149049 -4.596194,-1.149049 -3.358758,0 -9.678525,1.723573 -11.136932,2.165515 -1.458408,0.441941 -6.805903,2.872621 -6.805903,2.872621 0,0 -3.262731,-3.090281 -4.137731,-3.402781"/><path id="path3849" fill="none" stroke="#ef2929" stroke-linecap="round" stroke-linejoin="miter" stroke-opacity="1" stroke-width="2" d="M 44.405631,39.168544 C 43.18756,42.605252 40.964948,45.258391 38.9375,48.0625 28.407612,50.108939 23.38826,49.102241 15.768956,47.150238 L 13.7,45.1" transform="matrix(0.60869419,0,0,0.60869419,13.525817,9.7229224)"/><path id="path3922" fill="none" stroke="#d3d7cf" stroke-linecap="round" stroke-linejoin="miter" stroke-opacity="1" stroke-width="2" d="M 50.309359,40.292893 C 53.63345,36.977959 55.720104,33.894434 58.911612,28.690641 57.763535,26.31208 57.744781,24.85314 54.823223,21.823223" transform="matrix(0.60869419,0,0,0.60869419,13.525817,9.7229224)"/><path id="path3930" fill="none" stroke="#d3d7cf" stroke-linecap="round" stroke-linejoin="miter" stroke-opacity="1" stroke-width="2" d="M 10.1875,42.1875 5.46875,38.21875 c 0.861745,-1.712591 1.8757945,-2.89985 3.125,-3.90625 l 2.4375,2.03125 c 4.793017,-3.195248 11.407215,-5.601318 18.6875,-7.71875 l 1.601333,-7.496859 c 5.861688,-2.799572 13.073611,-2.685861 19.591529,-0.712088" transform="matrix(0.60869419,0,0,0.60869419,13.525817,9.7229224)"/><path id="path3928-2" fill="#d3d7cf" fill-opacity="1" stroke="#2e3436" stroke-linecap="round" stroke-linejoin="round" stroke-opacity="1" stroke-width="1.217" d="m 19.004065,21.288112 2.434777,-1.217388 0,-2.434777 -2.434777,1.217388 z"/></g></g></svg>