<svg xmlns="http://www.w3.org/2000/svg" xmlns:svg="http://www.w3.org/2000/svg" xmlns:xlink="http://www.w3.org/1999/xlink" id="svg2985" width="64" height="64" version="1.1"><defs id="defs2987"><linearGradient id="linearGradient3926"><stop id="stop3928" offset="0" stop-color="#888a85" stop-opacity="1"/><stop id="stop3930" offset="1" stop-color="#d3d7cf" stop-opacity="1"/></linearGradient><linearGradient id="linearGradient3897"><stop id="stop3899" offset="0" stop-color="#888a85" stop-opacity="1"/><stop id="stop3901" offset="1" stop-color="#d3d7cf" stop-opacity="1"/></linearGradient><linearGradient id="linearGradient3968"><stop id="stop3970" offset="0" stop-color="#000" stop-opacity="1"/><stop id="stop3976" offset=".54" stop-color="#828282" stop-opacity="1"/><stop id="stop3974" offset=".771" stop-color="#606060" stop-opacity="1"/><stop id="stop3972" offset="1" stop-color="#000" stop-opacity="1"/></linearGradient><linearGradient id="linearGradient3911"><stop id="stop3913" offset="0" stop-color="#000" stop-opacity="1"/><stop id="stop3915" offset="1" stop-color="#000" stop-opacity="0"/></linearGradient><linearGradient id="linearGradient3903"><stop id="stop3905" offset="0" stop-color="#000" stop-opacity="1"/><stop id="stop3907" offset="1" stop-color="#000" stop-opacity="0"/></linearGradient><linearGradient id="linearGradient4722"><stop id="stop4724" offset="0" stop-color="#fff" stop-opacity="1"/><stop id="stop4726" offset="1" stop-color="#bebebe" stop-opacity="1"/></linearGradient><marker id="Arrow1Mend" orient="auto" overflow="visible" refX="0" refY="0"><path id="path3873" fill-rule="evenodd" stroke="#000" stroke-width="1pt" d="M 0.0,0.0 L 5.0,-5.0 L -12.5,0.0 L 5.0,5.0 L 0.0,0.0 z" transform="scale(0.4) rotate(180) translate(10,0)"/></marker><marker id="Arrow1Lend" orient="auto" overflow="visible" refX="0" refY="0"><path id="path3867" fill-rule="evenodd" stroke="#000" stroke-width="1pt" d="M 0.0,0.0 L 5.0,-5.0 L -12.5,0.0 L 5.0,5.0 L 0.0,0.0 z" transform="scale(0.8) rotate(180) translate(12.5,0)"/></marker><linearGradient id="linearGradient3937"><stop id="stop3939" offset="0" stop-color="#be7328" stop-opacity="1"/><stop id="stop3941" offset="1" stop-color="#dc962d" stop-opacity="1"/></linearGradient><linearGradient id="linearGradient3929"><stop id="stop3931" offset="0" stop-color="#c88c3c" stop-opacity="1"/><stop id="stop3933" offset="1" stop-color="#ffff96" stop-opacity="1"/></linearGradient><linearGradient id="linearGradient3893"><stop id="stop3895" offset="0" stop-color="#505050" stop-opacity="1"/><stop id="stop3897" offset="1" stop-color="#aaa" stop-opacity="1"/></linearGradient><linearGradient id="linearGradient3873"><stop id="stop3875" offset="0" stop-color="#f0be6e" stop-opacity="1"/><stop id="stop3877" offset="1" stop-color="#c88228" stop-opacity="1"/></linearGradient><linearGradient id="linearGradient3863"><stop id="stop3865" offset="0" stop-color="#6e4b18" stop-opacity="1"/><stop id="stop3867" offset="1" stop-color="#c88228" stop-opacity="1"/></linearGradient><linearGradient id="linearGradient3979"><stop id="stop3981" offset="0" stop-color="#fff" stop-opacity="1"/><stop id="stop3983" offset="1" stop-color="#ff9600" stop-opacity="1"/></linearGradient><linearGradient id="linearGradient3971"><stop id="stop3973" offset="0" stop-color="#fff" stop-opacity="1"/><stop id="stop3975" offset="1" stop-color="#be7300" stop-opacity="1"/></linearGradient><marker id="Arrow1Send" orient="auto" overflow="visible" refX="0" refY="0"><path id="path4031" fill-rule="evenodd" stroke="#000" stroke-width="1pt" d="M 0.0,0.0 L 5.0,-5.0 L -12.5,0.0 L 5.0,5.0 L 0.0,0.0 z" transform="scale(0.2) rotate(180) translate(6,0)"/></marker><marker id="Arrow2Send" orient="auto" overflow="visible" refX="0" refY="0"><path id="path4049" fill-rule="evenodd" stroke-linejoin="round" stroke-width=".625" d="M 8.7185878,4.0337352 L -2.2072895,0.016013256 L 8.7185884,-4.0017078 C 6.9730900,-1.6296469 6.9831476,1.6157441 8.7185878,4.0337352 z" transform="scale(0.3) rotate(180) translate(-2.3,0)"/></marker><marker id="Arrow2Sstart" orient="auto" overflow="visible" refX="0" refY="0"><path id="path4046" fill-rule="evenodd" stroke-linejoin="round" stroke-width=".625" d="M 8.7185878,4.0337352 L -2.2072895,0.016013256 L 8.7185884,-4.0017078 C 6.9730900,-1.6296469 6.9831476,1.6157441 8.7185878,4.0337352 z" transform="scale(0.3) translate(-2.3,0)"/></marker><marker id="Arrow2Mstart" orient="auto" overflow="visible" refX="0" refY="0"><path id="path4040" fill-rule="evenodd" stroke-linejoin="round" stroke-width=".625" d="M 8.7185878,4.0337352 L -2.2072895,0.016013256 L 8.7185884,-4.0017078 C 6.9730900,-1.6296469 6.9831476,1.6157441 8.7185878,4.0337352 z" transform="scale(0.6) translate(0,0)"/></marker><linearGradient id="linearGradient3900"><stop id="stop3902" offset="0" stop-color="#fff" stop-opacity="1"/><stop id="stop3904" offset="1" stop-color="#a0a0a0" stop-opacity="1"/></linearGradient><linearGradient id="linearGradient3882"><stop id="stop3884" offset="0" stop-color="#fff" stop-opacity="1"/><stop id="stop3886" offset="1" stop-color="#960000" stop-opacity="1"/></linearGradient><linearGradient id="linearGradient3860"><stop id="stop3862" offset="0" stop-color="#1e76e3" stop-opacity="1"/><stop id="stop3864" offset="1" stop-color="#fff" stop-opacity="1"/></linearGradient><linearGradient id="linearGradient3866-5" x1="31.125" x2="30.114" y1="61.411" y2="12.161" gradientUnits="userSpaceOnUse" xlink:href="#linearGradient3860-6"/><linearGradient id="linearGradient3860-6"><stop id="stop3862-4" offset="0" stop-color="#5a9ff5" stop-opacity="1"/><stop id="stop3864-4" offset="1" stop-color="#fff" stop-opacity="1"/></linearGradient><linearGradient id="linearGradient3871" x1="38.908" x2="45.302" y1="51.47" y2="54.091" gradientUnits="userSpaceOnUse" xlink:href="#linearGradient3873"/><linearGradient id="linearGradient3891" x1="51.658" x2="45.427" y1="34.47" y2="32.216" gradientUnits="userSpaceOnUse" xlink:href="#linearGradient3863"/><linearGradient id="linearGradient3899" x1="51.658" x2="45.427" y1="34.47" y2="32.216" gradientUnits="userSpaceOnUse" xlink:href="#linearGradient3893"/><radialGradient id="radialGradient3903" cx="53.749" cy="4.917" r="3.287" fx="53.749" fy="4.917" gradientTransform="matrix(2.3303929,-1.4921636,1.0936999,1.7080907,-77.643882,78.644487)" gradientUnits="userSpaceOnUse" xlink:href="#linearGradient3882"/><radialGradient id="radialGradient3927" cx="15.125" cy="48.035" r="18.875" fx="15.125" fy="48.035" gradientTransform="matrix(2.7636523,-0.71644256,0.733044,2.8276918,-61.887066,-71.992203)" gradientUnits="userSpaceOnUse" xlink:href="#linearGradient3929"/><radialGradient id="radialGradient3943" cx="-14.308" cy="14.91" r="18.875" fx="-14.308" fy="14.91" gradientTransform="matrix(0.40097726,-0.37931652,0.11734116,0.12404187,14.422507,4.6205505)" gradientUnits="userSpaceOnUse" xlink:href="#linearGradient3937"/><radialGradient id="radialGradient3949" cx="15.125" cy="48.035" r="18.875" fx="15.125" fy="48.035" gradientTransform="matrix(2.7636523,-0.71644256,0.733044,2.8276918,-61.887066,-71.992203)" gradientUnits="userSpaceOnUse" xlink:href="#linearGradient3929"/><radialGradient id="radialGradient3951" cx="-14.308" cy="14.91" r="18.875" fx="-14.308" fy="14.91" gradientTransform="matrix(0.40097726,-0.37931652,0.11734116,0.12404187,14.422507,4.6205505)" gradientUnits="userSpaceOnUse" xlink:href="#linearGradient3937"/><marker id="Arrow1Mend-3" orient="auto" overflow="visible" refX="0" refY="0"><path id="path3873-0" fill-rule="evenodd" stroke="#000" stroke-width="1pt" d="M 0,0 5,-5 -12.5,0 5,5 0,0 z" transform="matrix(-0.4,0,0,-0.4,-4,0)"/></marker><radialGradient id="radialGradient4730" cx="22.399" cy="27.921" r="25.563" fx="22.399" fy="27.921" gradientTransform="matrix(0.61346721,-0.22517965,0.21191717,0.57733561,2.1543769,16.986575)" gradientUnits="userSpaceOnUse" xlink:href="#linearGradient4722"/><linearGradient id="linearGradient3909" x1="33.268" x2="33.268" y1="23.616" y2="63.063" gradientUnits="userSpaceOnUse" xlink:href="#linearGradient3903"/><linearGradient id="linearGradient3917" x1="39.647" x2="39.647" y1="67.479" y2="15.295" gradientUnits="userSpaceOnUse" xlink:href="#linearGradient3911"/><linearGradient id="linearGradient3928" x1="39.647" x2="39.647" y1="67.479" y2="15.295" gradientUnits="userSpaceOnUse" xlink:href="#linearGradient3911"/><linearGradient id="linearGradient3930" x1="33.268" x2="33.268" y1="23.616" y2="63.063" gradientUnits="userSpaceOnUse" xlink:href="#linearGradient3903"/><linearGradient id="linearGradient3935" x1="39.647" x2="39.647" y1="67.479" y2="15.295" gradientUnits="userSpaceOnUse" xlink:href="#linearGradient3911"/><linearGradient id="linearGradient3938" x1="33.268" x2="33.268" y1="23.616" y2="63.063" gradientUnits="userSpaceOnUse" xlink:href="#linearGradient3903"/><radialGradient id="radialGradient3952" cx="30.229" cy="20.071" r="3.448" fx="30.229" fy="20.071" gradientTransform="matrix(1.2238696,-8.502217e-5,8.5302128e-5,1.2278995,-6.7690238,-4.5715991)" gradientUnits="userSpaceOnUse" xlink:href="#linearGradient3968"/><linearGradient id="linearGradient3904" x1="34" x2="30" y1="48" y2="26" gradientUnits="userSpaceOnUse" xlink:href="#linearGradient3897"/><linearGradient id="linearGradient3932" x1="32" x2="31" y1="25" y2="11" gradientUnits="userSpaceOnUse" xlink:href="#linearGradient3926"/><linearGradient id="linearGradient3939" x1="32" x2="31" y1="25" y2="11" gradientUnits="userSpaceOnUse" xlink:href="#linearGradient3926"/></defs><metadata id="metadata2990"/><g id="layer1"><g id="g3934"><path id="path3906" fill="none" stroke="#2e3436" stroke-dasharray="none" stroke-dashoffset="2.04" stroke-linecap="round" stroke-linejoin="miter" stroke-miterlimit="4" stroke-opacity="1" stroke-width="6" d="m 38,18 c 0,3.313708 -2.686292,6 -6,6 -3.313708,0 -6,-2.686292 -6,-6 0,-3.313708 2.686292,-6 6,-6 3.313708,0 6,2.686292 6,6 z" transform="translate(0.99999749,-2.0000012)"/><path id="path3906-7" fill="none" stroke="url(#linearGradient3939)" stroke-dasharray="none" stroke-dashoffset="2.04" stroke-linecap="round" stroke-linejoin="miter" stroke-miterlimit="4" stroke-opacity="1" stroke-width="2" d="m 38,18 c 0,3.313708 -2.686292,6 -6,6 -3.313708,0 -6,-2.686292 -6,-6 0,-3.313708 2.686292,-6 6,-6 3.313708,0 6,2.686292 6,6 z" transform="translate(0.99999728,-2.0000007)"/></g><path id="path3067" fill="url(#linearGradient3904)" fill-opacity="1" stroke="#2e3436" stroke-linecap="butt" stroke-linejoin="round" stroke-opacity="1" stroke-width="2" d="M 17,23 5,51 61,51 49,23 z"/><path id="path3067-1" fill="none" stroke="#d3d7cf" stroke-linecap="butt" stroke-linejoin="miter" stroke-opacity="1" stroke-width="2" d="M 18,25 8,49 58,49 48,25 z"/><g id="text3919" fill="#2e3436" fill-opacity="1" stroke="#2e3436" font-family="Arial" font-size="20" font-stretch="normal" font-style="normal" font-variant="normal" font-weight="normal" letter-spacing="0" transform="translate(80,0)" word-spacing="0" style="line-height:125%;-inkscape-font-specification:Arial"><path id="path3963" stroke="none" d="M -58,42 -58.0625,26.0625 -56,26 l 0,8 4,-5 2,0 -4,5 4,8 -2,0 -3,-7 -1,1 0,6 z"/><path id="path3965" stroke="none" d="m -47.615384,42.382333 1.869657,0.274226 c 0.07835,0.569543 0.295581,0.984397 0.65171,1.244561 0.477203,0.351568 1.128913,0.527354 1.955129,0.527357 0.890307,-3e-6 1.577627,-0.175789 2.061965,-0.527357 0.484322,-0.351573 0.811957,-0.843771 0.982906,-1.476598 0.09971,-0.386729 0.146002,-1.198857 0.138889,-2.436388 -0.840464,0.977369 -1.887472,1.466051 -3.141026,1.466051 -1.559833,0 -2.767096,-0.555481 -3.621794,-1.666446 C -47.572651,38.676777 -48,37.344325 -48,35.790376 c 0,-1.068769 0.195869,-2.054925 0.587608,-2.95847 0.391735,-0.903528 0.959755,-1.601396 1.704059,-2.093606 0.744298,-0.492189 1.618585,-0.738288 2.622864,-0.7383 1.339024,1.2e-5 2.443011,0.5344 3.311965,1.603164 l 0,-1.350033 1.773504,0 0,9.682268 c -1.1e-5,1.743791 -0.179854,2.979563 -0.53953,3.707316 -0.359696,0.72775 -0.929496,1.302568 -1.709402,1.724456 -0.779921,0.421882 -1.739679,0.632824 -2.879273,0.632829 -1.353281,-5e-6 -2.446585,-0.300598 -3.279914,-0.90178 -0.833335,-0.60119 -1.235757,-1.506484 -1.207265,-2.715887 z m 1.591881,-6.72907 c -4e-6,1.469573 0.29558,2.541862 0.886751,3.216876 0.591164,0.675018 1.331903,1.012526 2.222222,1.012524 0.883184,2e-6 1.623924,-0.335748 2.222223,-1.007251 0.598281,-0.671497 0.897427,-1.724452 0.897436,-3.158866 -9e-6,-1.371119 -0.308057,-2.404738 -0.924145,-3.100857 -0.616105,-0.6961 -1.358625,-1.044156 -2.227564,-1.044165 -0.854707,9e-6 -1.581201,0.342791 -2.179489,1.028345 -0.598292,0.685571 -0.897438,1.703369 -0.897434,3.053394 z"/><path id="path3967" stroke-width="1" d="m -35.501953,41.501953 0,-1.001953 1.001953,0 0,1.001953 z"/></g></g></svg>