<svg xmlns="http://www.w3.org/2000/svg" xmlns:svg="http://www.w3.org/2000/svg" xmlns:xlink="http://www.w3.org/1999/xlink" id="svg2985" width="64" height="64" version="1.1"><defs id="defs2987"><linearGradient id="linearGradient3316"><stop id="stop3318" offset="0" stop-color="#d3d7cf" stop-opacity="1"/><stop id="stop3320" offset="1" stop-color="#fff" stop-opacity="1"/></linearGradient><linearGradient id="linearGradient4113"><stop id="stop4115" offset="0" stop-color="#6f6f6f" stop-opacity=".502"/><stop id="stop4117" offset="1" stop-color="#fff" stop-opacity=".502"/></linearGradient><linearGradient id="linearGradient4081"><stop id="stop4083" offset="0" stop-color="gray" stop-opacity=".502"/><stop id="stop4085" offset="1" stop-color="#fff" stop-opacity=".502"/></linearGradient><linearGradient id="linearGradient4049"><stop id="stop4051" offset="0" stop-color="#c1c1c1" stop-opacity=".502"/><stop id="stop4053" offset="1" stop-color="#fff" stop-opacity=".502"/></linearGradient><linearGradient id="linearGradient4015"><stop id="stop4017" offset="0" stop-color="#585858" stop-opacity=".502"/><stop id="stop4019" offset="1" stop-color="#fff" stop-opacity=".502"/></linearGradient><linearGradient id="linearGradient3968"><stop id="stop3970" offset="0" stop-color="#000" stop-opacity="1"/><stop id="stop3976" offset=".54" stop-color="#828282" stop-opacity="1"/><stop id="stop3974" offset=".771" stop-color="#606060" stop-opacity="1"/><stop id="stop3972" offset="1" stop-color="#000" stop-opacity="1"/></linearGradient><linearGradient id="linearGradient3911"><stop id="stop3913" offset="0" stop-color="#000" stop-opacity="1"/><stop id="stop3915" offset="1" stop-color="#000" stop-opacity="0"/></linearGradient><linearGradient id="linearGradient3903"><stop id="stop3905" offset="0" stop-color="#000" stop-opacity="1"/><stop id="stop3907" offset="1" stop-color="#000" stop-opacity="0"/></linearGradient><linearGradient id="linearGradient4722"><stop id="stop4724" offset="0" stop-color="#fff" stop-opacity="1"/><stop id="stop4726" offset="1" stop-color="#bebebe" stop-opacity="1"/></linearGradient><marker id="Arrow1Mend" orient="auto" overflow="visible" refX="0" refY="0"><path id="path3873" fill-rule="evenodd" stroke="#000" stroke-width="1pt" d="M 0.0,0.0 L 5.0,-5.0 L -12.5,0.0 L 5.0,5.0 L 0.0,0.0 z" transform="scale(0.4) rotate(180) translate(10,0)"/></marker><marker id="Arrow1Lend" orient="auto" overflow="visible" refX="0" refY="0"><path id="path3867" fill-rule="evenodd" stroke="#000" stroke-width="1pt" d="M 0.0,0.0 L 5.0,-5.0 L -12.5,0.0 L 5.0,5.0 L 0.0,0.0 z" transform="scale(0.8) rotate(180) translate(12.5,0)"/></marker><linearGradient id="linearGradient3937"><stop id="stop3939" offset="0" stop-color="#be7328" stop-opacity="1"/><stop id="stop3941" offset="1" stop-color="#dc962d" stop-opacity="1"/></linearGradient><linearGradient id="linearGradient3929"><stop id="stop3931" offset="0" stop-color="#c88c3c" stop-opacity="1"/><stop id="stop3933" offset="1" stop-color="#ffff96" stop-opacity="1"/></linearGradient><linearGradient id="linearGradient3893"><stop id="stop3895" offset="0" stop-color="#505050" stop-opacity="1"/><stop id="stop3897" offset="1" stop-color="#aaa" stop-opacity="1"/></linearGradient><linearGradient id="linearGradient3873"><stop id="stop3875" offset="0" stop-color="#f0be6e" stop-opacity="1"/><stop id="stop3877" offset="1" stop-color="#c88228" stop-opacity="1"/></linearGradient><linearGradient id="linearGradient3863"><stop id="stop3865" offset="0" stop-color="#6e4b18" stop-opacity="1"/><stop id="stop3867" offset="1" stop-color="#c88228" stop-opacity="1"/></linearGradient><linearGradient id="linearGradient3979"><stop id="stop3981" offset="0" stop-color="#fff" stop-opacity="1"/><stop id="stop3983" offset="1" stop-color="#ff9600" stop-opacity="1"/></linearGradient><linearGradient id="linearGradient3971"><stop id="stop3973" offset="0" stop-color="#fff" stop-opacity="1"/><stop id="stop3975" offset="1" stop-color="#be7300" stop-opacity="1"/></linearGradient><marker id="Arrow1Send" orient="auto" overflow="visible" refX="0" refY="0"><path id="path4031" fill-rule="evenodd" stroke="#000" stroke-width="1pt" d="M 0.0,0.0 L 5.0,-5.0 L -12.5,0.0 L 5.0,5.0 L 0.0,0.0 z" transform="scale(0.2) rotate(180) translate(6,0)"/></marker><marker id="Arrow2Send" orient="auto" overflow="visible" refX="0" refY="0"><path id="path4049" fill-rule="evenodd" stroke-linejoin="round" stroke-width=".625" d="M 8.7185878,4.0337352 L -2.2072895,0.016013256 L 8.7185884,-4.0017078 C 6.9730900,-1.6296469 6.9831476,1.6157441 8.7185878,4.0337352 z" transform="scale(0.3) rotate(180) translate(-2.3,0)"/></marker><marker id="Arrow2Sstart" orient="auto" overflow="visible" refX="0" refY="0"><path id="path4046" fill-rule="evenodd" stroke-linejoin="round" stroke-width=".625" d="M 8.7185878,4.0337352 L -2.2072895,0.016013256 L 8.7185884,-4.0017078 C 6.9730900,-1.6296469 6.9831476,1.6157441 8.7185878,4.0337352 z" transform="scale(0.3) translate(-2.3,0)"/></marker><marker id="Arrow2Mstart" orient="auto" overflow="visible" refX="0" refY="0"><path id="path4040" fill-rule="evenodd" stroke-linejoin="round" stroke-width=".625" d="M 8.7185878,4.0337352 L -2.2072895,0.016013256 L 8.7185884,-4.0017078 C 6.9730900,-1.6296469 6.9831476,1.6157441 8.7185878,4.0337352 z" transform="scale(0.6) translate(0,0)"/></marker><linearGradient id="linearGradient3900"><stop id="stop3902" offset="0" stop-color="#fff" stop-opacity="1"/><stop id="stop3904" offset="1" stop-color="#a0a0a0" stop-opacity="1"/></linearGradient><linearGradient id="linearGradient3882"><stop id="stop3884" offset="0" stop-color="#fff" stop-opacity="1"/><stop id="stop3886" offset="1" stop-color="#960000" stop-opacity="1"/></linearGradient><linearGradient id="linearGradient3860"><stop id="stop3862" offset="0" stop-color="#1e76e3" stop-opacity="1"/><stop id="stop3864" offset="1" stop-color="#fff" stop-opacity="1"/></linearGradient><linearGradient id="linearGradient3866-5" x1="31.125" x2="30.114" y1="61.411" y2="12.161" gradientUnits="userSpaceOnUse" xlink:href="#linearGradient3860-6"/><linearGradient id="linearGradient3860-6"><stop id="stop3862-4" offset="0" stop-color="#5a9ff5" stop-opacity="1"/><stop id="stop3864-4" offset="1" stop-color="#fff" stop-opacity="1"/></linearGradient><linearGradient id="linearGradient3871" x1="38.908" x2="45.302" y1="51.47" y2="54.091" gradientUnits="userSpaceOnUse" xlink:href="#linearGradient3873"/><linearGradient id="linearGradient3891" x1="51.658" x2="45.427" y1="34.47" y2="32.216" gradientUnits="userSpaceOnUse" xlink:href="#linearGradient3863"/><linearGradient id="linearGradient3899" x1="51.658" x2="45.427" y1="34.47" y2="32.216" gradientUnits="userSpaceOnUse" xlink:href="#linearGradient3893"/><radialGradient id="radialGradient3903" cx="53.749" cy="4.917" r="3.287" fx="53.749" fy="4.917" gradientTransform="matrix(2.3303929,-1.4921636,1.0936999,1.7080907,-77.643882,78.644487)" gradientUnits="userSpaceOnUse" xlink:href="#linearGradient3882"/><radialGradient id="radialGradient3927" cx="15.125" cy="48.035" r="18.875" fx="15.125" fy="48.035" gradientTransform="matrix(2.7636523,-0.71644256,0.733044,2.8276918,-61.887066,-71.992203)" gradientUnits="userSpaceOnUse" xlink:href="#linearGradient3929"/><radialGradient id="radialGradient3943" cx="-14.308" cy="14.91" r="18.875" fx="-14.308" fy="14.91" gradientTransform="matrix(0.40097726,-0.37931652,0.11734116,0.12404187,14.422507,4.6205505)" gradientUnits="userSpaceOnUse" xlink:href="#linearGradient3937"/><radialGradient id="radialGradient3949" cx="15.125" cy="48.035" r="18.875" fx="15.125" fy="48.035" gradientTransform="matrix(2.7636523,-0.71644256,0.733044,2.8276918,-61.887066,-71.992203)" gradientUnits="userSpaceOnUse" xlink:href="#linearGradient3929"/><radialGradient id="radialGradient3951" cx="-14.308" cy="14.91" r="18.875" fx="-14.308" fy="14.91" gradientTransform="matrix(0.40097726,-0.37931652,0.11734116,0.12404187,14.422507,4.6205505)" gradientUnits="userSpaceOnUse" xlink:href="#linearGradient3937"/><marker id="Arrow1Mend-3" orient="auto" overflow="visible" refX="0" refY="0"><path id="path3873-0" fill-rule="evenodd" stroke="#000" stroke-width="1pt" d="M 0,0 5,-5 -12.5,0 5,5 0,0 z" transform="matrix(-0.4,0,0,-0.4,-4,0)"/></marker><radialGradient id="radialGradient4730" cx="22.399" cy="27.921" r="25.563" fx="22.399" fy="27.921" gradientTransform="matrix(0.61346721,-0.22517965,0.21191717,0.57733561,2.1543769,16.986575)" gradientUnits="userSpaceOnUse" xlink:href="#linearGradient4722"/><linearGradient id="linearGradient3909" x1="33.268" x2="33.268" y1="23.616" y2="63.063" gradientUnits="userSpaceOnUse" xlink:href="#linearGradient3903"/><linearGradient id="linearGradient3917" x1="39.647" x2="39.647" y1="67.479" y2="15.295" gradientUnits="userSpaceOnUse" xlink:href="#linearGradient3911"/><linearGradient id="linearGradient3928" x1="39.647" x2="39.647" y1="67.479" y2="15.295" gradientUnits="userSpaceOnUse" xlink:href="#linearGradient3911"/><linearGradient id="linearGradient3930" x1="33.268" x2="33.268" y1="23.616" y2="63.063" gradientUnits="userSpaceOnUse" xlink:href="#linearGradient3903"/><linearGradient id="linearGradient3935" x1="39.647" x2="39.647" y1="67.479" y2="15.295" gradientUnits="userSpaceOnUse" xlink:href="#linearGradient3911"/><linearGradient id="linearGradient3938" x1="33.268" x2="33.268" y1="23.616" y2="63.063" gradientUnits="userSpaceOnUse" xlink:href="#linearGradient3903"/><radialGradient id="radialGradient3952" cx="30.229" cy="20.071" r="3.448" fx="30.229" fy="20.071" gradientTransform="matrix(1.2238696,-8.502217e-5,8.5302128e-5,1.2278995,-6.7690238,-4.5715991)" gradientUnits="userSpaceOnUse" xlink:href="#linearGradient3968"/><linearGradient id="linearGradient4021" x1="53.411" x2="32.68" y1="58.64" y2="21.517" gradientUnits="userSpaceOnUse" xlink:href="#linearGradient4015"/><linearGradient id="linearGradient4047" x1="20.465" x2="33.356" y1="-8.879" y2="21.526" gradientUnits="userSpaceOnUse" xlink:href="#linearGradient4015"/><linearGradient id="linearGradient4079" x1="3.536" x2="33.157" y1="17.904" y2="22.147" gradientUnits="userSpaceOnUse" xlink:href="#linearGradient4015"/><linearGradient id="linearGradient4111" x1="11.667" x2="32.844" y1="37.694" y2="22.137" gradientUnits="userSpaceOnUse" xlink:href="#linearGradient4015"/><linearGradient id="linearGradient4143" x1="19.445" x2="32.639" y1="39.812" y2="21.604" gradientUnits="userSpaceOnUse" xlink:href="#linearGradient4015"/><linearGradient id="linearGradient4180" x1="53.411" x2="32.68" y1="58.64" y2="21.517" gradientUnits="userSpaceOnUse" xlink:href="#linearGradient4015"/><linearGradient id="linearGradient4182" x1="20.465" x2="33.356" y1="-8.879" y2="21.526" gradientUnits="userSpaceOnUse" xlink:href="#linearGradient4015"/><linearGradient id="linearGradient4184" x1="3.536" x2="33.157" y1="17.904" y2="22.147" gradientUnits="userSpaceOnUse" xlink:href="#linearGradient4015"/><linearGradient id="linearGradient4186" x1="11.667" x2="32.844" y1="37.694" y2="22.137" gradientUnits="userSpaceOnUse" xlink:href="#linearGradient4015"/><linearGradient id="linearGradient4188" x1="19.445" x2="32.639" y1="39.812" y2="21.604" gradientUnits="userSpaceOnUse" xlink:href="#linearGradient4015"/><linearGradient id="linearGradient4219" x1="53.411" x2="32.68" y1="58.64" y2="21.517" gradientUnits="userSpaceOnUse" xlink:href="#linearGradient4015"/><linearGradient id="linearGradient4221" x1="20.465" x2="33.356" y1="-8.879" y2="21.526" gradientUnits="userSpaceOnUse" xlink:href="#linearGradient4015"/><linearGradient id="linearGradient4223" x1="3.536" x2="33.157" y1="17.904" y2="22.147" gradientUnits="userSpaceOnUse" xlink:href="#linearGradient4015"/><linearGradient id="linearGradient4225" x1="11.667" x2="32.844" y1="37.694" y2="22.137" gradientUnits="userSpaceOnUse" xlink:href="#linearGradient4015"/><linearGradient id="linearGradient4227" x1="19.445" x2="32.639" y1="39.812" y2="21.604" gradientUnits="userSpaceOnUse" xlink:href="#linearGradient4015"/><linearGradient id="linearGradient4224" x1="-30" x2="-31" y1="29" y2="13" gradientUnits="userSpaceOnUse" xlink:href="#linearGradient4173"/><linearGradient id="linearGradient4173"><stop id="stop4175" offset="0" stop-color="#d3d7cf" stop-opacity="1"/><stop id="stop4177" offset="1" stop-color="#d3d7cf" stop-opacity="0"/></linearGradient><linearGradient id="linearGradient4226" x1="-48" x2="-53" y1="36" y2="7" gradientUnits="userSpaceOnUse" xlink:href="#linearGradient4165"/><linearGradient id="linearGradient4165"><stop id="stop4167" offset="0" stop-color="#888a85" stop-opacity="1"/><stop id="stop4169" offset="1" stop-color="#d3d7cf" stop-opacity="1"/></linearGradient><linearGradient id="linearGradient4228" x1="-55" x2="-56" y1="45" y2="37" gradientUnits="userSpaceOnUse" xlink:href="#linearGradient4050"/><linearGradient id="linearGradient4050"><stop id="stop4052" offset="0" stop-color="#3465a4" stop-opacity="1"/><stop id="stop4054" offset="1" stop-color="#729fcf" stop-opacity="1"/></linearGradient><linearGradient id="linearGradient4230" x1="-33" x2="-35" y1="45" y2="37" gradientUnits="userSpaceOnUse" xlink:href="#linearGradient4060"/><linearGradient id="linearGradient4060"><stop id="stop4062" offset="0" stop-color="#204a87" stop-opacity="1"/><stop id="stop4064" offset="1" stop-color="#3465a4" stop-opacity="1"/></linearGradient><linearGradient id="linearGradient3201" x1="-33" x2="-35" y1="45" y2="37" gradientTransform="translate(80,8)" gradientUnits="userSpaceOnUse" xlink:href="#linearGradient4060"/><linearGradient id="linearGradient3210" x1="-62" x2="-62" y1="42" y2="35" gradientTransform="translate(80,8)" gradientUnits="userSpaceOnUse" xlink:href="#linearGradient4050"/><linearGradient id="linearGradient3215" x1="-48" x2="-53" y1="36" y2="7" gradientTransform="translate(80,8)" gradientUnits="userSpaceOnUse" xlink:href="#linearGradient4165"/><linearGradient id="linearGradient3220" x1="-30" x2="-31" y1="29" y2="13" gradientTransform="translate(80,8)" gradientUnits="userSpaceOnUse" xlink:href="#linearGradient3316"/></defs><metadata id="metadata2990"/><g id="layer1"><path id="path4021" fill="#d3d7cf" stroke="#2e3436" stroke-linecap="butt" stroke-linejoin="round" stroke-opacity="1" stroke-width="2" d="m 31,39 -4,6 28,10 4,-6 z"/><path id="path4019" fill="url(#linearGradient3220)" fill-opacity="1" stroke="#2e3436" stroke-linecap="butt" stroke-linejoin="round" stroke-opacity="1" stroke-width="2" d="M 31,13 59,23 59,49 31,39 z"/><path id="path4017" fill="#d3d7cf" stroke="#2e3436" stroke-linecap="butt" stroke-linejoin="round" stroke-opacity="1" stroke-width="2" d="M 7,49 35,59 55,55 27,45 z"/><path id="path4015" fill="#d3d7cf" stroke="#2e3436" stroke-linecap="butt" stroke-linejoin="miter" stroke-opacity="1" stroke-width="2" d="M 25,7 53,17 59,23 31,13 z"/><path id="path3985-4" fill="url(#linearGradient3215)" fill-opacity="1" stroke="#2e3436" stroke-linecap="butt" stroke-linejoin="round" stroke-opacity="1" stroke-width="2" d="m 9,11 -6,6 0,28 4,4 20,-4 4,-6 0,-26 -6,-6 z"/><path id="path4011" fill="none" stroke="#2e3436" stroke-linecap="butt" stroke-linejoin="round" stroke-opacity="1" stroke-width="2" d="M 25,7 53,17 37,21 9,11 z"/><path id="path4009" fill="none" stroke="#2e3436" stroke-linecap="butt" stroke-linejoin="round" stroke-opacity="1" stroke-width="2" d="M 9,11 37,21 31,27 3,17 z"/><path id="path4041" fill="url(#linearGradient3210)" fill-opacity="1" stroke="#0b1521" stroke-linecap="butt" stroke-linejoin="miter" stroke-opacity="1" stroke-width="2" d="m 3,35 0,10 4,4 28,10 20,-4 4,-6 0,-8 -28,4 z"/><path id="path4045" fill="none" stroke="#729fcf" stroke-linecap="butt" stroke-linejoin="miter" stroke-opacity="1" stroke-width="2" d="M 5,37.8 29,46.4 29,55 8,48 5,44.7 z"/><path id="path4007" fill="none" stroke="#2e3436" stroke-linecap="butt" stroke-linejoin="round" stroke-opacity="1" stroke-width="2" d="M 3,17 31,27 31,55 3,45 z"/><path id="path4047" fill="none" stroke="#729fcf" stroke-linecap="butt" stroke-linejoin="miter" stroke-opacity="1" stroke-width="1" d="m 29,55 2,2"/><path id="path4005" fill="none" stroke="#2e3436" stroke-linecap="butt" stroke-linejoin="round" stroke-opacity="1" stroke-width="2" d="m 3,45 4,4 28,10 -4,-4 z"/><path id="path4013" fill="#729fcf" stroke="#204a87" stroke-linecap="butt" stroke-linejoin="round" stroke-opacity="1" stroke-width="2" d="M 3,35 31,45 59,39 31,29 z"/><path id="path3985" fill="none" stroke="#2e3436" stroke-linecap="butt" stroke-linejoin="round" stroke-opacity="1" stroke-width="2" d="m 37,21 -6,6 0,28 4,4 20,-4 4,-6 0,-26 -6,-6 z"/><path id="path4058" fill="url(#linearGradient3201)" fill-opacity="1" stroke="#3465a4" stroke-linecap="butt" stroke-linejoin="miter" stroke-opacity="1" stroke-width="2" d="m 33,46.7 0,7.5 2.7,2.7 18.1,-3.7 3.2,-4.8 0,-7.1 z"/><path id="path4085" fill="none" stroke="#fff" stroke-linecap="butt" stroke-linejoin="miter" stroke-opacity="1" stroke-width="2" d="M 5,34 5,17.8 10.8,12 25,9 l 26,9 6,5 0,16"/><path id="path4105" fill="none" stroke="#204a87" stroke-linecap="round" stroke-linejoin="round" stroke-opacity="1" stroke-width="2" d="M 3,35 31,29 59,39 31,45"/><path id="path4107" fill="none" stroke="#2e3436" stroke-linecap="butt" stroke-linejoin="miter" stroke-opacity="1" stroke-width="2" d="m 31,27 0,20"/><path id="path4107-9" fill="none" stroke="#2e3436" stroke-linecap="butt" stroke-linejoin="miter" stroke-opacity="1" stroke-width="2" d="M 3,21 3,41"/><path id="path4107-4" fill="none" stroke="#2e3436" stroke-linecap="butt" stroke-linejoin="miter" stroke-opacity="1" stroke-width="2" d="m 59,28 0,20"/><path id="path4134" fill="none" stroke="#2e3436" stroke-linecap="round" stroke-linejoin="miter" stroke-opacity="1" stroke-width="2" d="M 3,17 31,27"/><path id="path4134-8" fill="none" stroke="#2e3436" stroke-linecap="round" stroke-linejoin="miter" stroke-opacity="1" stroke-width="2" d="M 9,11 37,21"/><path id="path4134-82" fill="none" stroke="#2e3436" stroke-linecap="round" stroke-linejoin="miter" stroke-opacity="1" stroke-width="2" d="M 31,13 59,23"/><path id="path4161" fill="none" stroke="#2e3436" stroke-linecap="round" stroke-linejoin="miter" stroke-opacity="1" stroke-width="2" d="M 37,21 53,17"/><path id="path4163" fill="none" stroke="#2e3436" stroke-dasharray="none" stroke-linecap="butt" stroke-linejoin="miter" stroke-miterlimit="4" stroke-opacity="1" stroke-width="2" d="M 31,13 25,7"/></g></svg>