<svg xmlns="http://www.w3.org/2000/svg" xmlns:svg="http://www.w3.org/2000/svg" xmlns:xlink="http://www.w3.org/1999/xlink" id="svg249" width="64" height="64" version="1.1"><defs id="defs3"><radialGradient id="radialGradient5031" cx="605.714" cy="486.648" r="117.143" fx="605.714" fy="486.648" gradientTransform="matrix(-2.774389,0,0,1.969706,112.7623,-872.8854)" gradientUnits="userSpaceOnUse" xlink:href="#linearGradient5060"/><linearGradient id="linearGradient5060"><stop id="stop5062" offset="0" stop-color="#000" stop-opacity="1"/><stop id="stop5064" offset="1" stop-color="#000" stop-opacity="0"/></linearGradient><radialGradient id="radialGradient5029" cx="605.714" cy="486.648" r="117.143" fx="605.714" fy="486.648" gradientTransform="matrix(2.774389,0,0,1.969706,-1891.633,-872.8854)" gradientUnits="userSpaceOnUse" xlink:href="#linearGradient5060"/><linearGradient id="linearGradient5048"><stop id="stop5050" offset="0" stop-color="#000" stop-opacity="0"/><stop id="stop5056" offset=".5" stop-color="#000" stop-opacity="1"/><stop id="stop5052" offset="1" stop-color="#000" stop-opacity="0"/></linearGradient><linearGradient id="linearGradient5027" x1="302.857" x2="302.857" y1="366.648" y2="609.505" gradientTransform="matrix(2.774389,0,0,1.969706,-1892.179,-872.8854)" gradientUnits="userSpaceOnUse" xlink:href="#linearGradient5048"/><linearGradient id="linearGradient4542"><stop id="stop4544" offset="0" stop-color="#000" stop-opacity="1"/><stop id="stop4546" offset="1" stop-color="#000" stop-opacity="0"/></linearGradient><radialGradient id="radialGradient4548" cx="24.307" cy="42.078" r="15.822" fx="24.307" fy="42.078" gradientTransform="matrix(1,0,0,0.284916,0,30.08928)" gradientUnits="userSpaceOnUse" xlink:href="#linearGradient4542"/><linearGradient id="linearGradient15662"><stop id="stop15664" offset="0" stop-color="#fff" stop-opacity="1"/><stop id="stop15666" offset="1" stop-color="#f8f8f8" stop-opacity="1"/></linearGradient><radialGradient id="aigrd3" cx="20.892" cy="64.568" r="5.257" fx="20.892" fy="64.568" gradientUnits="userSpaceOnUse"><stop id="stop15573" offset="0" stop-color="#F0F0F0"/><stop id="stop15575" offset="1" stop-color="#9a9a9a" stop-opacity="1"/></radialGradient><radialGradient id="aigrd2" cx="20.892" cy="114.568" r="5.256" fx="20.892" fy="114.568" gradientUnits="userSpaceOnUse"><stop id="stop15566" offset="0" stop-color="#F0F0F0"/><stop id="stop15568" offset="1" stop-color="#9a9a9a" stop-opacity="1"/></radialGradient><linearGradient id="linearGradient269"><stop id="stop270" offset="0" stop-color="#a3a3a3" stop-opacity="1"/><stop id="stop271" offset="1" stop-color="#4c4c4c" stop-opacity="1"/></linearGradient><linearGradient id="linearGradient259"><stop id="stop260" offset="0" stop-color="#fafafa" stop-opacity="1"/><stop id="stop261" offset="1" stop-color="#bbb" stop-opacity="1"/></linearGradient><linearGradient id="linearGradient12512"><stop id="stop12513" offset="0" stop-color="#fff" stop-opacity="1"/><stop id="stop12517" offset=".5" stop-color="#fff520" stop-opacity=".891"/><stop id="stop12514" offset="1" stop-color="#fff300" stop-opacity="0"/></linearGradient><radialGradient id="radialGradient278" cx="55" cy="125" r="14.375" fx="55" fy="125" gradientUnits="userSpaceOnUse" xlink:href="#linearGradient12512"/><radialGradient id="radialGradient15656" cx="4.739" cy="33.647" r="37.752" fx="4.739" fy="33.647" gradientTransform="matrix(1.3247068,0,0,1.3619605,-15.444424,-62.94288)" gradientUnits="userSpaceOnUse" xlink:href="#linearGradient269"/><radialGradient id="radialGradient15658" cx="34.985" cy="36.04" r="86.708" fx="34.985" fy="36.04" gradientTransform="matrix(1.314063,0,0,1.3729918,-20.032465,-63.79538)" gradientUnits="userSpaceOnUse" xlink:href="#linearGradient259"/><radialGradient id="radialGradient15668" cx="7.527" cy="39.114" r="38.159" fx="7.527" fy="39.114" gradientTransform="matrix(1.3247068,0,0,1.3619605,-15.444424,-62.94288)" gradientUnits="userSpaceOnUse" xlink:href="#linearGradient15662"/><radialGradient id="radialGradient2283" cx="20.892" cy="114.568" r="5.256" fx="20.892" fy="114.568" gradientTransform="matrix(0.229703,0,0,0.229703,4.613529,3.979808)" gradientUnits="userSpaceOnUse" xlink:href="#aigrd2"/><radialGradient id="radialGradient2285" cx="20.892" cy="64.568" r="5.257" fx="20.892" fy="64.568" gradientTransform="matrix(0.229703,0,0,0.229703,4.613529,3.979808)" gradientUnits="userSpaceOnUse" xlink:href="#aigrd3"/></defs><metadata id="metadata4"/><g id="layer6" transform="translate(0,16)"><g id="g5022" display="inline" transform="matrix(0.03068766,0,0,0.02200111,58.892175,40.344687)"><rect id="rect4173" width="1339.633" height="478.357" x="-1559.252" y="-150.697" fill="url(#linearGradient5027)" fill-opacity="1" fill-rule="nonzero" stroke="none" stroke-width="1" color="#000" display="inline" opacity=".402" overflow="visible" visibility="visible" style="marker:none"/><path d="m -219.61876,-150.68038 c 0,0 0,478.33079 0,478.33079 142.874166,0.90045 345.40022,-107.16966 345.40014,-239.196175 0,-132.026537 -159.436816,-239.134595 -345.40014,-239.134615 z" style="marker:none" id="path5058" fill="url(#radialGradient5029)" fill-opacity="1" fill-rule="nonzero" stroke="none" stroke-width="1" color="#000" display="inline" opacity=".402" overflow="visible" visibility="visible"/><path id="path5018" fill="url(#radialGradient5031)" fill-opacity="1" fill-rule="nonzero" stroke="none" stroke-width="1" d="m -1559.2523,-150.68038 c 0,0 0,478.33079 0,478.33079 -142.8742,0.90045 -345.4002,-107.16966 -345.4002,-239.196175 0,-132.026537 159.4368,-239.134595 345.4002,-239.134615 z" color="#000" display="inline" opacity=".402" overflow="visible" visibility="visible" style="marker:none"/></g></g><g id="layer1" display="inline" transform="translate(0,16)"><rect stroke-linejoin="round" style="marker:none" id="rect15391" width="48.021" height="53.983" x="-10.998" y="-58.987" fill="url(#radialGradient15658)" fill-opacity="1" fill-rule="nonzero" stroke="url(#radialGradient15656)" stroke-dashoffset="0" stroke-linecap="round" stroke-miterlimit="4" stroke-opacity="1" stroke-width="2" color="#000" display="block" overflow="visible" rx="1.572" ry="1.515" transform="matrix(3.6092691e-4,0.99999993,-0.99999992,3.8845335e-4,0,0)" visibility="visible"/><rect id="rect15660" width="43.981" height="50.016" x="-8.978" y="-57.003" fill="none" stroke="url(#radialGradient15668)" stroke-dashoffset="0" stroke-linecap="round" stroke-linejoin="round" stroke-miterlimit="4" stroke-opacity="1" stroke-width="2" color="#000" display="block" overflow="visible" rx=".204" ry=".197" transform="matrix(3.6092691e-4,0.99999993,-0.99999992,3.8845335e-4,0,0)" visibility="visible" style="marker:none"/><g id="g2270" transform="matrix(4.937888e-4,1.3681128,-1.3187488,5.1227249e-4,63.838568,-19.172849)"><g id="g1440" fill="#fff" fill-opacity="1" fill-rule="nonzero" stroke="#000" stroke-miterlimit="4" stroke-width=".744" transform="matrix(0.229703,0,0,0.229703,4.967081,4.244972)"><radialGradient id="radialGradient1442" cx="20.892" cy="114.568" r="5.256" fx="20.892" fy="114.568" gradientUnits="userSpaceOnUse"><stop id="stop1444" offset="0" stop-color="#F0F0F0"/><stop id="stop1446" offset="1" stop-color="#474747"/></radialGradient><path id="path1448" stroke="none" d="m 23.428,113.07 c 0,1.973 -1.6,3.572 -3.573,3.572 -1.974,0 -3.573,-1.6 -3.573,-3.572 0,-1.974 1.6,-3.573 3.573,-3.573 1.973,0 3.573,1.6 3.573,3.573 z"/><radialGradient id="radialGradient1450" cx="20.892" cy="64.568" r="5.257" fx="20.892" fy="64.568" gradientUnits="userSpaceOnUse"><stop id="stop1452" offset="0" stop-color="#F0F0F0"/><stop id="stop1454" offset="1" stop-color="#474747"/></radialGradient><path id="path1456" stroke="none" d="m 23.428,63.07 c 0,1.973 -1.6,3.573 -3.573,3.573 -1.974,0 -3.573,-1.6 -3.573,-3.573 0,-1.974 1.6,-3.573 3.573,-3.573 1.973,0 3.573,1.6 3.573,3.573 z"/></g><path id="path15570" fill="url(#radialGradient2283)" fill-rule="nonzero" stroke="none" d="m 9.9950109,29.952326 c 0,0.453204 -0.3675248,0.820499 -0.8207288,0.820499 -0.4534338,0 -0.8207289,-0.367524 -0.8207289,-0.820499 0,-0.453434 0.3675248,-0.820729 0.8207289,-0.820729 0.453204,0 0.8207288,0.367525 0.8207288,0.820729 z"/><path id="path15577" fill="url(#radialGradient2285)" fill-rule="nonzero" stroke="none" d="m 9.9950109,18.467176 c 0,0.453204 -0.3675248,0.820729 -0.8207288,0.820729 -0.4534338,0 -0.8207289,-0.367525 -0.8207289,-0.820729 0,-0.453434 0.3675248,-0.820729 0.8207289,-0.820729 0.453204,0 0.8207288,0.367525 0.8207288,0.820729 z"/></g><path id="path15672" fill="none" stroke="#000" stroke-linecap="butt" stroke-linejoin="miter" stroke-miterlimit="4" stroke-opacity=".018" stroke-width=".989" d="M 56.54826,-4.3133003 6.5589783,-4.2938814"/><path id="path15674" fill="none" stroke="#fff" stroke-linecap="butt" stroke-linejoin="miter" stroke-miterlimit="4" stroke-opacity=".205" stroke-width="1" d="M 57.173525,-2.9532592 7.0377017,-2.9337842"/></g></svg>