<svg xmlns="http://www.w3.org/2000/svg" xmlns:svg="http://www.w3.org/2000/svg" xmlns:xlink="http://www.w3.org/1999/xlink" id="svg2160" width="64" height="64" version="1.1"><defs id="defs2162"><linearGradient id="linearGradient3833" x1="34" x2="28" y1="14" y2="-17" gradientTransform="translate(0,0.9999998)" gradientUnits="userSpaceOnUse" xlink:href="#linearGradient3827"/><linearGradient id="linearGradient3827"><stop id="stop3829" offset="0" stop-color="#d3d7cf" stop-opacity="1"/><stop id="stop3831" offset="1" stop-color="#fff" stop-opacity="1"/></linearGradient><linearGradient id="linearGradient3841" x1="24.012" x2="22.6" y1="22.427" y2="19.585" gradientUnits="userSpaceOnUse" xlink:href="#linearGradient3827"/></defs><metadata id="metadata2165"/><g id="layer1" transform="translate(0,32)"><rect id="rect4138" width="54" height="54" x="5" y="-27" fill="none" stroke="#2e3436" stroke-dasharray="6 12" stroke-dashoffset="7.8" stroke-linecap="round" stroke-linejoin="round" stroke-miterlimit="4" stroke-opacity="1" stroke-width="6"/><path id="path7047" fill="url(#linearGradient3833)" fill-opacity="1" fill-rule="evenodd" stroke="#2e3436" stroke-linecap="round" stroke-linejoin="round" stroke-opacity="1" stroke-width="2" d="m 13,-17 0,34 38,0 0,-25.000001 -24,0 c 0,0 0,-8.999999 -8,-8.999999 -4,0 -6,0 -6,0 z"/><path id="path7049" fill="url(#linearGradient3841)" fill-opacity="1" stroke="#2e3436" stroke-dasharray="none" stroke-dashoffset="0" stroke-linecap="round" stroke-linejoin="round" stroke-miterlimit="4" stroke-opacity="1" stroke-width=".708" d="m 25.423312,21.006134 a 2.4703476,2.4867074 0 1 1 -4.940695,0 2.4703476,2.4867074 0 1 1 4.940695,0 z" transform="matrix(2.8336091,0,0,2.8149673,-27.039729,-54.131581)"/><rect id="rect4138-7" width="54" height="54" x="5" y="-27" fill="none" stroke="#babdb6" stroke-dasharray="6 12" stroke-dashoffset="7.8" stroke-linecap="round" stroke-linejoin="round" stroke-miterlimit="4" stroke-opacity="1" stroke-width="2"/><path id="path7047-4" fill="none" stroke="#fff" stroke-linecap="round" stroke-linejoin="miter" stroke-opacity="1" stroke-width="2" d="m 15,-15 0,30 34,0 0,-21.0000002 -24,0 C 25,-6.0000002 25,-15 20,-15 c -4,0 -5,0 -5,0 z"/><path id="path7049-0" fill="none" stroke="#fff" stroke-dasharray="none" stroke-dashoffset="0" stroke-linecap="round" stroke-linejoin="round" stroke-miterlimit="4" stroke-opacity="1" stroke-width=".991" d="m 25.423312,21.006134 a 2.4703476,2.4867074 0 1 1 -4.940695,0 2.4703476,2.4867074 0 1 1 4.940695,0 z" transform="matrix(2.0240063,0,0,2.0106911,-8.4569448,-37.236847)"/></g></svg>