<svg xmlns="http://www.w3.org/2000/svg" xmlns:svg="http://www.w3.org/2000/svg" id="svg2" width="64" height="64" version="1.1" viewBox="0 0 64 64"><defs id="defs4"><clipPath id="clip1"><path id="path8148" d="M 12.539062,411 68,411 l 0,2 -55.460938,0 z m 0,0"/></clipPath><clipPath id="clip2"><path id="path8151" d="M 12.539062,468 124,468 l 0,2 -111.460938,0 z m 0,0"/></clipPath><clipPath id="clip3"><path id="path8154" d="M 12.539062,525 68,525 l 0,2 -55.460938,0 z m 0,0"/></clipPath><clipPath id="clip4"><path id="path8157" d="M 12.539062,408 124,408 l 0,2 -111.460938,0 z m 0,0"/></clipPath><clipPath id="clip5"><path id="path8160" d="M 12.539062,465 68,465 l 0,2 -55.460938,0 z m 0,0"/></clipPath><clipPath id="clip6"><path id="path8163" d="M 12.539062,522 124,522 l 0,2 -111.460938,0 z m 0,0"/></clipPath><clipPath id="clip7"><path id="path8166" d="M 12.539062,579 68,579 l 0,2 -55.460938,0 z m 0,0"/></clipPath><clipPath id="clip8"><path id="path8169" d="M 12.539062,354 241,354 l 0,228.5 -228.460938,0 z m 0,0"/></clipPath></defs><metadata id="metadata7"/><g id="layer2"><path id="path8461" fill="none" fill-rule="evenodd" stroke="#000" stroke-dasharray="none" stroke-linecap="butt" stroke-linejoin="miter" stroke-miterlimit="4" stroke-opacity="1" stroke-width=".378" d="m 31.2566,0 0,15.23976 L 0,15.23976 0,0 Z"/><path id="path8463" fill="none" fill-rule="evenodd" stroke="#000" stroke-dasharray="none" stroke-linecap="butt" stroke-linejoin="miter" stroke-miterlimit="4" stroke-opacity="1" stroke-width=".378" d="m 31.99908,0 0,15.23976 31.2566,0 0,-15.23976 z"/><path id="path8467" fill="none" fill-rule="evenodd" stroke="#000" stroke-dasharray="none" stroke-linecap="butt" stroke-linejoin="miter" stroke-miterlimit="4" stroke-opacity="1" stroke-width=".378" d="m 63.99926,31.25606 -16.00009,0 0,-15.25624 16.00009,0"/><path id="path8469" fill="none" fill-rule="evenodd" stroke="#000" stroke-dasharray="none" stroke-linecap="butt" stroke-linejoin="miter" stroke-miterlimit="4" stroke-opacity="1" stroke-width=".378" d="m 0,15.99982 15.23892,0 0,15.25624 -15.23892,0"/><path id="path8471" fill="none" fill-rule="evenodd" stroke="#000" stroke-dasharray="none" stroke-linecap="butt" stroke-linejoin="miter" stroke-miterlimit="4" stroke-opacity="1" stroke-width=".378" d="m 0,31.99963 31.2566,0 0,15.25625 -31.2566,0 z"/><path id="path8473" fill="none" fill-rule="evenodd" stroke="#000" stroke-dasharray="none" stroke-linecap="butt" stroke-linejoin="miter" stroke-miterlimit="4" stroke-opacity="1" stroke-width=".378" d="m 0,47.99944 15.23892,0 0,15.25625 -15.23892,0"/><path id="rect8477" fill="none" fill-opacity=".619" fill-rule="nonzero" stroke="#000" stroke-dasharray="none" stroke-linecap="butt" stroke-linejoin="miter" stroke-miterlimit="4" stroke-opacity="1" stroke-width=".378" d="m 16.00008,15.99982 31.256611,0 0,15.25624 -31.256611,0 z" opacity="1"/><path id="rect8479" fill="none" fill-opacity=".619" fill-rule="nonzero" stroke="#000" stroke-dasharray="none" stroke-linecap="butt" stroke-linejoin="miter" stroke-miterlimit="4" stroke-opacity="1" stroke-width=".378" d="m 31.999081,31.99963 31.256599,0 0,15.25625 -31.256599,0 z" opacity="1"/><path id="rect8481" fill="none" fill-opacity=".619" fill-rule="nonzero" stroke="#000" stroke-dasharray="none" stroke-linecap="butt" stroke-linejoin="miter" stroke-miterlimit="4" stroke-opacity="1" stroke-width=".378" d="m 16.00008,47.999439 31.256611,0 0,15.256251 -31.256611,0 z" opacity="1"/><path id="path8486" fill="none" fill-rule="evenodd" stroke="#000" stroke-dasharray="none" stroke-linecap="butt" stroke-linejoin="miter" stroke-miterlimit="4" stroke-opacity="1" stroke-width=".378" d="m 63.99926,63.25569 -16.00009,0 0,-15.25625 16.00009,0"/></g></svg>