<svg xmlns="http://www.w3.org/2000/svg" xmlns:svg="http://www.w3.org/2000/svg" id="svg2" width="64" height="64" version="1.1" viewBox="0 0 64 64"><defs id="defs4"><clipPath id="clip1"><path id="path8169" d="M 12.539062 12.5 L 13 12.5 L 13 13 L 12.539062 13 Z M 12.539062 12.5"/></clipPath><clipPath id="clip2"><path id="path8172" d="M 12.539062 12.5 L 298 12.5 L 298 298 L 12.539062 298 Z M 12.539062 12.5"/></clipPath><clipPath id="clip3"><path id="path8175" d="M 12.539062 154 L 441 154 L 441 582.5 L 12.539062 582.5 Z M 12.539062 154"/></clipPath><clipPath id="clip4"><path id="path8178" d="M 582 12.5 L 583 12.5 L 583 13 L 582 13 Z M 582 12.5"/></clipPath><clipPath id="clip5"><path id="path8181" d="M 581 12.5 L 584 12.5 L 584 14 L 581 14 Z M 581 12.5"/></clipPath><clipPath id="clip6"><path id="path8184" d="M 582 12.5 L 583 12.5 L 583 13 L 582 13 Z M 582 12.5"/></clipPath><clipPath id="clip7"><path id="path8187" d="M 581 12.5 L 584 12.5 L 584 14 L 581 14 Z M 581 12.5"/></clipPath><clipPath id="clip8"><path id="path8190" d="M 582 12.5 L 583 12.5 L 583 13 L 582 13 Z M 582 12.5"/></clipPath><clipPath id="clip9"><path id="path8193" d="M 581 12.5 L 584 12.5 L 584 14 L 581 14 Z M 581 12.5"/></clipPath><clipPath id="clip10"><path id="path8196" d="M 582 12.5 L 583 12.5 L 583 13 L 582 13 Z M 582 12.5"/></clipPath><clipPath id="clip11"><path id="path8199" d="M 581 12.5 L 584 12.5 L 584 14 L 581 14 Z M 581 12.5"/></clipPath><clipPath id="clip12"><path id="path8202" d="M 582 12.5 L 583 12.5 L 583 13 L 582 13 Z M 582 12.5"/></clipPath><clipPath id="clip13"><path id="path8205" d="M 581 12.5 L 584 12.5 L 584 14 L 581 14 Z M 581 12.5"/></clipPath><clipPath id="clip14"><path id="path8208" d="M 582 12.5 L 583 12.5 L 583 13 L 582 13 Z M 582 12.5"/></clipPath><clipPath id="clip15"><path id="path8211" d="M 297 439 L 441 439 L 441 582.5 L 297 582.5 Z M 297 439"/></clipPath><clipPath id="clip16"><path id="path8214" d="M 582 582 L 583 582 L 583 582.5 L 582 582.5 Z M 582 582"/></clipPath><clipPath id="clip17"><path id="path8217" d="M 581 581 L 584 581 L 584 582.5 L 581 582.5 Z M 581 581"/></clipPath><clipPath id="clip18"><path id="path8220" d="M 582 582 L 583 582 L 583 582.5 L 582 582.5 Z M 582 582"/></clipPath><clipPath id="clip19"><path id="path8223" d="M 581 581 L 584 581 L 584 582.5 L 581 582.5 Z M 581 581"/></clipPath><clipPath id="clip20"><path id="path8226" d="M 582 582 L 583 582 L 583 582.5 L 582 582.5 Z M 582 582"/></clipPath><clipPath id="clip21"><path id="path8229" d="M 581 581 L 584 581 L 584 582.5 L 581 582.5 Z M 581 581"/></clipPath><clipPath id="clip22"><path id="path8232" d="M 582 582 L 583 582 L 583 582.5 L 582 582.5 Z M 582 582"/></clipPath><clipPath id="clip23"><path id="path8235" d="M 581 581 L 584 581 L 584 582.5 L 581 582.5 Z M 581 581"/></clipPath><clipPath id="clip24"><path id="path8238" d="M 582 582 L 583 582 L 583 582.5 L 582 582.5 Z M 582 582"/></clipPath><clipPath id="clip25"><path id="path8241" d="M 297 582 L 298 582 L 298 582.5 L 297 582.5 Z M 297 582"/></clipPath><clipPath id="clip26"><path id="path8244" d="M 296 581 L 299 581 L 299 582.5 L 296 582.5 Z M 296 581"/></clipPath><clipPath id="clip27"><path id="path8247" d="M 297 582 L 298 582 L 298 582.5 L 297 582.5 Z M 297 582"/></clipPath><clipPath id="clip28"><path id="path8250" d="M 296 581 L 299 581 L 299 582.5 L 296 582.5 Z M 296 581"/></clipPath><clipPath id="clip29"><path id="path8253" d="M 297 582 L 298 582 L 298 582.5 L 297 582.5 Z M 297 582"/></clipPath><clipPath id="clip30"><path id="path8256" d="M 296 581 L 299 581 L 299 582.5 L 296 582.5 Z M 296 581"/></clipPath><clipPath id="clip31"><path id="path8259" d="M 297 582 L 298 582 L 298 582.5 L 297 582.5 Z M 297 582"/></clipPath><clipPath id="clip32"><path id="path8262" d="M 296 581 L 299 581 L 299 582.5 L 296 582.5 Z M 296 581"/></clipPath><clipPath id="clip33"><path id="path8265" d="M 297 582 L 298 582 L 298 582.5 L 297 582.5 Z M 297 582"/></clipPath><clipPath id="clip34"><path id="path8268" d="M 296 581 L 299 581 L 299 582.5 L 296 582.5 Z M 296 581"/></clipPath><clipPath id="clip35"><path id="path8271" d="M 297 582 L 298 582 L 298 582.5 L 297 582.5 Z M 297 582"/></clipPath><clipPath id="clip36"><path id="path8274" d="M 12.539062 297 L 156 297 L 156 441 L 12.539062 441 Z M 12.539062 297"/></clipPath><clipPath id="clip37"><path id="path8277" d="M 297 297 L 583 297 L 583 582.5 L 297 582.5 Z M 297 297"/></clipPath><clipPath id="clip38"><path id="path8280" d="M 12.539062 12.5 L 156 12.5 L 156 156 L 12.539062 156 Z M 12.539062 12.5"/></clipPath><clipPath id="clip39"><path id="path8283" d="M 297 12.5 L 583 12.5 L 583 298 L 297 298 Z M 297 12.5"/></clipPath><clipPath id="clip40"><path id="path8286" d="M 12.539062 12.5 L 583 12.5 L 583 582.5 L 12.539062 582.5 Z M 12.539062 12.5"/></clipPath><clipPath id="clip41"><path id="path8289" d="M 12.539062 12.5 L 13 12.5 L 13 582.5 L 12.539062 582.5 Z M 12.539062 12.5"/></clipPath></defs><metadata id="metadata7"/><g id="layer1" transform="translate(-240.06625,-450.59799)"><path id="path8652" fill="none" fill-rule="evenodd" stroke="#000" stroke-linecap="butt" stroke-linejoin="miter" stroke-opacity="1" stroke-width="1" d="m 240.06625,450.59799 16,16"/><path id="path8654" fill="none" fill-rule="evenodd" stroke="#000" stroke-linecap="butt" stroke-linejoin="miter" stroke-opacity="1" stroke-width="1" d="m 240.06625,482.59799 32,-32 16,16 -32,32 z"/><path id="path8656" fill="none" fill-rule="evenodd" stroke="#000" stroke-linecap="butt" stroke-linejoin="miter" stroke-opacity="1" stroke-width="1" d="m 304.06625,482.59799 -16,-16"/><path id="path8658" fill="none" fill-rule="evenodd" stroke="#000" stroke-linecap="butt" stroke-linejoin="miter" stroke-opacity="1" stroke-width="1" d="m 304.06625,514.59799 -32,-32"/><path id="path8660" fill="none" fill-rule="evenodd" stroke="#000" stroke-linecap="butt" stroke-linejoin="miter" stroke-opacity="1" stroke-width="1" d="m 288.06625,498.59799 -16,16"/><path id="path8662" fill="none" fill-rule="evenodd" stroke="#000" stroke-linecap="butt" stroke-linejoin="miter" stroke-opacity="1" stroke-width="1" d="m 240.06625,514.59799 16,-16"/></g></svg>