<svg xmlns="http://www.w3.org/2000/svg" xmlns:svg="http://www.w3.org/2000/svg" xmlns:xlink="http://www.w3.org/1999/xlink" id="svg2160" width="64" height="64" version="1.1"><defs id="defs2162"><linearGradient id="linearGradient3876"><stop id="stop3878" offset="0" stop-color="#d3d7cf" stop-opacity="1"/><stop id="stop3880" offset="1" stop-color="#fff" stop-opacity="1"/></linearGradient><linearGradient id="linearGradient3882" x1="11.296" x2="8.688" y1="11.562" y2="5.303" gradientUnits="userSpaceOnUse" xlink:href="#linearGradient3876"/><linearGradient id="linearGradient3890" x1="23.293" x2="20.685" y1="21.473" y2="14.17" gradientUnits="userSpaceOnUse" xlink:href="#linearGradient3876"/><linearGradient id="linearGradient3898" x1="22.893" x2="17.941" y1="53.857" y2="36.42" gradientUnits="userSpaceOnUse" xlink:href="#linearGradient3876"/></defs><metadata id="metadata2165"/><g id="layer1" stroke="#2e3436" stroke-width="3.13" transform="matrix(1.917183,0,0,1.917183,0.34307953,3.8330625)"><rect id="rect3063" width="9.389" height="9.389" x="5.559" y="3.738" fill="#d3d7cf" fill-opacity="1" fill-rule="nonzero" stroke="#2e3436" stroke-dasharray="none" stroke-dashoffset="0" stroke-linecap="round" stroke-linejoin="round" stroke-miterlimit="4" stroke-opacity="1" stroke-width="1.043" color="#000" display="inline" enable-background="accumulate" overflow="visible" rx="0" ry=".086" visibility="visible" style="marker:none"/><path id="path3833" fill="#d3d7cf" fill-opacity="1" fill-rule="evenodd" stroke="#2e3436" stroke-dasharray="none" stroke-dashoffset="0" stroke-linecap="round" stroke-linejoin="round" stroke-miterlimit="4" stroke-opacity="1" stroke-width="1.043" d="m 22.252525,11.572035 5.74306,4.168486 -2.189763,6.750107 -7.096408,0.0033 -2.196059,-6.748062 z" color="#000" display="inline" enable-background="accumulate" overflow="visible" visibility="visible" style="marker:none"/><path id="path2998" fill="#d3d7cf" fill-opacity="1" stroke="#2e3436" stroke-dasharray="none" stroke-dashoffset="0" stroke-linecap="round" stroke-linejoin="miter" stroke-miterlimit="4" stroke-opacity="1" stroke-width="2.167" d="m 31.25,45.5 c 0,5.384776 -4.365224,9.75 -9.75,9.75 -5.384776,0 -9.75,-4.365224 -9.75,-9.75 0,-5.384776 4.365224,-9.75 9.75,-9.75 5.384776,0 9.75,4.365224 9.75,9.75 z" transform="matrix(0.48147564,0,0,0.48147565,-0.09870372,-0.95612288)"/><rect id="rect3063-9" width="7.302" height="7.302" x="6.602" y="4.781" fill="url(#linearGradient3882)" fill-opacity="1" fill-rule="nonzero" stroke="#fff" stroke-dasharray="none" stroke-dashoffset="0" stroke-linecap="round" stroke-linejoin="miter" stroke-miterlimit="4" stroke-opacity="1" stroke-width="1.043" color="#000" display="inline" enable-background="accumulate" overflow="visible" rx="0" ry=".067" visibility="visible" style="marker:none"/><path id="path3833-4" fill="url(#linearGradient3890)" fill-opacity="1" fill-rule="evenodd" stroke="#fff" stroke-dasharray="none" stroke-dashoffset="0" stroke-linecap="round" stroke-linejoin="miter" stroke-miterlimit="4" stroke-opacity="1" stroke-width="1.043" d="m 22.262359,12.853347 4.484607,3.293062 -1.684691,5.289449 -5.578908,0.02761 -1.727923,-5.319306 z" color="#000" display="inline" enable-background="accumulate" overflow="visible" visibility="visible" style="marker:none"/><path id="path2998-8" fill="url(#linearGradient3898)" fill-opacity="1" stroke="#fff" stroke-dasharray="none" stroke-dashoffset="0" stroke-linecap="round" stroke-linejoin="miter" stroke-miterlimit="4" stroke-opacity="1" stroke-width="2.786" d="m 31.25,45.5 c 0,5.384776 -4.365224,9.75 -9.75,9.75 -5.384776,0 -9.75,-4.365224 -9.75,-9.75 0,-5.384776 4.365224,-9.75 9.75,-9.75 5.384776,0 9.75,4.365224 9.75,9.75 z" transform="matrix(0.37448106,0,0,0.37448107,2.2016797,3.9121302)"/></g><rect id="rect4138-1" width="54" height="54" x="5" y="5" fill="none" stroke="#2e3436" stroke-dasharray="6 12" stroke-dashoffset="7.8" stroke-linecap="round" stroke-linejoin="round" stroke-miterlimit="4" stroke-opacity="1" stroke-width="6"/><rect id="rect4138-7" width="54" height="54" x="5" y="5" fill="none" stroke="#babdb6" stroke-dasharray="6 12" stroke-dashoffset="7.8" stroke-linecap="round" stroke-linejoin="round" stroke-miterlimit="4" stroke-opacity="1" stroke-width="2"/></svg>