<svg xmlns="http://www.w3.org/2000/svg" xmlns:svg="http://www.w3.org/2000/svg" xmlns:xlink="http://www.w3.org/1999/xlink" id="svg5821" width="64" height="64" version="1.1"><defs id="defs5823"><linearGradient id="linearGradient3029"><stop id="stop3031" offset="0" stop-color="#c4a000" stop-opacity="1"/><stop id="stop3033" offset="1" stop-color="#fce94f" stop-opacity="1"/></linearGradient><linearGradient id="linearGradient3023"><stop id="stop3025" offset="0" stop-color="#c4a000" stop-opacity="1"/><stop id="stop3027" offset="1" stop-color="#fce94f" stop-opacity="1"/></linearGradient><linearGradient id="linearGradient3810"><stop id="stop3812" offset="0" stop-color="#c4a000" stop-opacity="1"/><stop id="stop3814" offset="1" stop-color="#fce94f" stop-opacity="1"/></linearGradient><linearGradient id="linearGradient6349"><stop id="stop6351" offset="0" stop-color="#000" stop-opacity="1"/><stop id="stop6353" offset="1" stop-color="#000" stop-opacity="0"/></linearGradient><linearGradient id="linearGradient3377"><stop id="stop3379" offset="0" stop-color="#0019a3" stop-opacity="1"/><stop id="stop3381" offset="1" stop-color="#0069ff" stop-opacity="1"/></linearGradient><linearGradient id="linearGradient3383" x1="901.188" x2="1267.906" y1="1190.875" y2="1190.875" gradientTransform="matrix(-1,0,0,1,2199.356,0)" gradientUnits="userSpaceOnUse" xlink:href="#linearGradient3377"/><radialGradient id="radialGradient6355" cx="1103.64" cy="1424.447" r="194.406" fx="1103.64" fy="1424.447" gradientTransform="matrix(-1.4307499,-1.3605156e-7,-1.202713e-8,0.1264801,2674.7488,1244.2826)" gradientUnits="userSpaceOnUse" xlink:href="#linearGradient6349"/><linearGradient id="linearGradient3816" x1="36.465" x2="26.233" y1="41.999" y2="-.791" gradientUnits="userSpaceOnUse" xlink:href="#linearGradient3810"/><linearGradient id="linearGradient4075" x1="43.289" x2="25.445" y1="40.228" y2="28.399" gradientTransform="matrix(0.66496604,0.67403632,-0.66496604,0.67403632,31.964285,-11.293087)" gradientUnits="userSpaceOnUse" xlink:href="#linearGradient3893"/><linearGradient id="linearGradient3893"><stop id="stop3895" offset="0" stop-color="#d3d7cf" stop-opacity="1"/><stop id="stop3897" offset="1" stop-color="#fff" stop-opacity="1"/></linearGradient><linearGradient id="linearGradient3107" x1="43.289" x2="25.445" y1="40.228" y2="28.399" gradientTransform="matrix(0.66496604,0.67403632,-0.66496604,0.67403632,24.97449,-5.900796)" gradientUnits="userSpaceOnUse" xlink:href="#linearGradient3893"/><linearGradient id="linearGradient3919" x1="9" x2="5" y1="50" y2="38" gradientUnits="userSpaceOnUse" xlink:href="#linearGradient3905"/><linearGradient id="linearGradient3905"><stop id="stop3907" offset="0" stop-color="#d3d7cf" stop-opacity="1"/><stop id="stop3909" offset="1" stop-color="#fff" stop-opacity="1"/></linearGradient><linearGradient id="linearGradient3911" x1="8.5" x2="5.5" y1="48.5" y2="39.5" gradientUnits="userSpaceOnUse" xlink:href="#linearGradient3905"/><linearGradient id="linearGradient3047" x1="8.5" x2="5.5" y1="48.5" y2="39.5" gradientUnits="userSpaceOnUse" xlink:href="#linearGradient3905"/><linearGradient id="linearGradient3885" x1="8.5" x2="5.5" y1="48.5" y2="39.5" gradientUnits="userSpaceOnUse" xlink:href="#linearGradient3905"/><linearGradient id="linearGradient3887" x1="43.289" x2="25.445" y1="40.228" y2="28.399" gradientTransform="matrix(0.66496604,0.67403632,-0.66496604,0.67403632,24.97449,-5.900796)" gradientUnits="userSpaceOnUse" xlink:href="#linearGradient3029"/><linearGradient id="linearGradient3889" x1="9" x2="5" y1="50" y2="38" gradientUnits="userSpaceOnUse" xlink:href="#linearGradient3023"/></defs><metadata id="metadata5826"/><g id="layer1"><path id="path3765" fill="none" stroke="#302b00" stroke-dasharray="none" stroke-dashoffset="0" stroke-linecap="round" stroke-linejoin="miter" stroke-miterlimit="4" stroke-opacity="1" stroke-width="7.442" d="M 13.259681,2.0939773 A 40,40 0 0 1 56,42.00286" transform="matrix(1.075014,0,0,1.075014,-4.2007839,6.8463378)"/><path id="path3765-1" fill="none" stroke="url(#linearGradient3816)" stroke-dasharray="none" stroke-dashoffset="0" stroke-linecap="round" stroke-linejoin="miter" stroke-miterlimit="4" stroke-opacity="1" stroke-width="3.721" d="M 13.301045,2.0911584 A 40,40 0 0 1 56,42.00286" transform="matrix(1.075014,0,0,1.075014,-4.2019855,6.8494337)"/><path id="path3765-1-7" fill="none" stroke="#fce94f" stroke-dasharray="none" stroke-dashoffset="0" stroke-linecap="round" stroke-linejoin="miter" stroke-miterlimit="4" stroke-opacity="1" stroke-width="1.86" d="M 12.65826,2.1398347 A 40,40 0 0 1 55.983487,43.149238" transform="matrix(1.075014,0,0,1.075014,-3.2019855,5.8494337)"/><g id="g3874" transform="translate(-1.010205,1.607709)"><path id="path3037" fill="url(#linearGradient3885)" fill-opacity="1" stroke="#302b00" stroke-dasharray="none" stroke-dashoffset="0" stroke-linecap="round" stroke-linejoin="miter" stroke-miterlimit="4" stroke-opacity="1" stroke-width="1.5" d="m 13,44 c 0,3.313708 -2.686292,6 -6,6 -3.3137085,0 -6,-2.686292 -6,-6 0,-3.313708 2.6862915,-6 6,-6 3.313708,0 6,2.686292 6,6 z" transform="matrix(1.3333333,0,0,1.3333331,5.6768719,-11.274364)"/><path id="path3864-4" fill="none" stroke="#fff" stroke-linecap="butt" stroke-linejoin="miter" stroke-opacity="1" stroke-width="2" d="m 13.005102,48.022109 1.329932,-6.740362"/><path id="path3770-1" fill="url(#linearGradient3887)" fill-opacity="1" fill-rule="nonzero" stroke="none" d="m 27.634355,25.104874 2.659865,2.696146 -14.629254,14.8288 -2.654761,0.762471 c 0,4.044219 -0.670068,3.955782 -1.335035,5.977892 l -0.664965,2.022108 1.994897,-0.674035 C 15,50.044219 16.020408,48.392291 20.010205,48.392291 l -0.355442,-1.718254 14.629252,-14.828799 2.659865,2.696146 c 0,-4.044219 0.664965,-7.4144 1.329932,-9.43651 l 0.664965,-2.022108 -1.994897,0.674035 c -1.994899,0.674037 -5.319728,1.348073 -9.309525,1.348073 z" baseline-shift="baseline" color="#000" direction="ltr" display="inline" enable-background="accumulate" font-family="sans-serif" font-size="medium" font-stretch="normal" font-style="normal" font-variant="normal" font-weight="normal" letter-spacing="normal" overflow="visible" text-anchor="start" text-decoration="none" visibility="visible" word-spacing="normal" writing-mode="lr-tb" style="text-indent:0;text-align:start;line-height:normal;text-transform:none;block-progression:tb"/><path id="path3864" fill="none" stroke="#fce94f" stroke-linecap="butt" stroke-linejoin="miter" stroke-opacity="1" stroke-width="2" d="m 35.613947,25.104874 -5.603742,1.287417"/><path id="path3866" fill="none" stroke="#fce94f" stroke-linecap="round" stroke-linejoin="miter" stroke-opacity="1" stroke-width="2" d="M 36.94388,23.756801 11.029901,49.972434"/><path id="path3868" fill="none" stroke="#fce94f" stroke-linecap="butt" stroke-linejoin="miter" stroke-opacity="1" stroke-width="2" d="m 31.010205,27.392291 2.608844,-0.265307"/><path id="path3868-8" fill="none" stroke="#fff" stroke-linecap="butt" stroke-linejoin="miter" stroke-opacity="1" stroke-width="2" d="M 15.664966,42.62982 15,46"/><path enable-background="accumulate" style="text-indent:0;text-align:start;line-height:normal;text-transform:none;block-progression:tb" id="path3770-9" fill="none" stroke="#302b00" stroke-dasharray="none" stroke-dashoffset="0" stroke-linecap="butt" stroke-linejoin="round" stroke-miterlimit="4" stroke-opacity="1" stroke-width="2" d="m 27.867349,24.535147 2.857144,2.857144 -15.714289,15.714287 10e-7,0.285713 c 0,4.285716 -3.571428,4.714286 -4.285715,6.857144 l 2.285715,0.142856 -0.857143,1.285716 c 2.142857,-0.714287 1.571427,-4.285716 5.857143,-4.285716 l 1.285715,0 15.714286,-15.714286 2.857144,2.857144 c 0,-4.285716 0.714285,-7.857144 1.428571,-10.000002 l 0.714285,-2.142856 -2.142856,0.714284 c -2.142858,0.714287 -5.714286,1.428572 -10.000001,1.428572 z" baseline-shift="baseline" color="#000" direction="ltr" display="inline" font-family="sans-serif" font-size="medium" font-stretch="normal" font-style="normal" font-variant="normal" font-weight="normal" letter-spacing="normal" overflow="visible" text-anchor="start" text-decoration="none" visibility="visible" word-spacing="normal" writing-mode="lr-tb"/><path id="path3037-8" fill="url(#linearGradient3889)" fill-opacity="1" stroke="#fce94f" stroke-dasharray="none" stroke-dashoffset="0" stroke-linecap="round" stroke-linejoin="miter" stroke-miterlimit="4" stroke-opacity="1" stroke-width="2" d="m 13,44 c 0,3.313708 -2.686292,6 -6,6 -3.3137085,0 -6,-2.686292 -6,-6 0,-3.313708 2.6862915,-6 6,-6 3.313708,0 6,2.686292 6,6 z" transform="translate(8.010205,3.392291)"/></g></g></svg>