<svg xmlns="http://www.w3.org/2000/svg" xmlns:svg="http://www.w3.org/2000/svg" xmlns:xlink="http://www.w3.org/1999/xlink" id="svg5821" width="64" height="64" version="1.1"><defs id="defs5823"><linearGradient id="linearGradient3042"><stop id="stop3044" offset="0" stop-color="#c4a000" stop-opacity="1"/><stop id="stop3046" offset="1" stop-color="#fce94f" stop-opacity="1"/></linearGradient><linearGradient id="linearGradient3036"><stop id="stop3038" offset="0" stop-color="#c4a000" stop-opacity="1"/><stop id="stop3040" offset="1" stop-color="#fce94f" stop-opacity="1"/></linearGradient><linearGradient id="linearGradient3030"><stop id="stop3032" offset="0" stop-color="#c4a000" stop-opacity="1"/><stop id="stop3034" offset="1" stop-color="#fce94f" stop-opacity="1"/></linearGradient><linearGradient id="linearGradient3024"><stop id="stop3026" offset="0" stop-color="#c4a000" stop-opacity="1"/><stop id="stop3028" offset="1" stop-color="#fce94f" stop-opacity="1"/></linearGradient><linearGradient id="linearGradient3929"><stop id="stop3931" offset="0" stop-color="#c4a000" stop-opacity="1"/><stop id="stop3933" offset="1" stop-color="#fce94f" stop-opacity="1"/></linearGradient><linearGradient id="linearGradient3905"><stop id="stop3907" offset="0" stop-color="#d3d7cf" stop-opacity="1"/><stop id="stop3909" offset="1" stop-color="#fff" stop-opacity="1"/></linearGradient><linearGradient id="linearGradient6349"><stop id="stop6351" offset="0" stop-color="#000" stop-opacity="1"/><stop id="stop6353" offset="1" stop-color="#000" stop-opacity="0"/></linearGradient><linearGradient id="linearGradient3377"><stop id="stop3379" offset="0" stop-color="#0019a3" stop-opacity="1"/><stop id="stop3381" offset="1" stop-color="#0069ff" stop-opacity="1"/></linearGradient><linearGradient id="linearGradient3383" x1="901.188" x2="1267.906" y1="1190.875" y2="1190.875" gradientTransform="matrix(-1,0,0,1,2199.356,0)" gradientUnits="userSpaceOnUse" xlink:href="#linearGradient3377"/><radialGradient id="radialGradient6355" cx="1103.64" cy="1424.447" r="194.406" fx="1103.64" fy="1424.447" gradientTransform="matrix(-1.4307499,-1.3605156e-7,-1.202713e-8,0.1264801,2674.7488,1244.2826)" gradientUnits="userSpaceOnUse" xlink:href="#linearGradient6349"/><linearGradient id="linearGradient3899" x1="35" x2="31" y1="50" y2="16" gradientUnits="userSpaceOnUse" xlink:href="#linearGradient3893"/><linearGradient id="linearGradient3893"><stop id="stop3895" offset="0" stop-color="#d3d7cf" stop-opacity="1"/><stop id="stop3897" offset="1" stop-color="#fff" stop-opacity="1"/></linearGradient><linearGradient id="linearGradient3033" x1="34.094" x2="33.892" y1="49.73" y2="16.104" gradientTransform="matrix(0.9621488,-0.27252465,0.27252465,0.9621488,48.644281,19.443802)" gradientUnits="userSpaceOnUse" xlink:href="#linearGradient3024"/><linearGradient id="linearGradient3911" x1="8.5" x2="5.5" y1="48.5" y2="39.5" gradientUnits="userSpaceOnUse" xlink:href="#linearGradient3905"/><linearGradient id="linearGradient3919" x1="9" x2="5" y1="50" y2="38" gradientUnits="userSpaceOnUse" xlink:href="#linearGradient3036"/><linearGradient id="linearGradient3927" x1="19" x2="28" y1="39" y2="9" gradientUnits="userSpaceOnUse" xlink:href="#linearGradient3929"/><linearGradient id="linearGradient3941" x1="19" x2="28" y1="39" y2="9" gradientUnits="userSpaceOnUse" xlink:href="#linearGradient3042"/><linearGradient id="linearGradient3949" x1="26" x2="22" y1="53" y2="40" gradientUnits="userSpaceOnUse" xlink:href="#linearGradient3030"/></defs><metadata id="metadata5826"/><g id="layer1"><g id="g3024" stroke="#302b00" transform="matrix(1.0698613,0,0,0.99404165,-49.402756,-8.4391559)"><path display="inline" style="text-indent:0;text-align:start;line-height:normal;text-transform:none;block-progression:tb" id="path3770-1" fill="url(#linearGradient3033)" fill-opacity="1" fill-rule="nonzero" stroke="#302b00" stroke-dasharray="none" stroke-dashoffset="0" stroke-linecap="butt" stroke-linejoin="round" stroke-miterlimit="4" stroke-opacity="1" stroke-width="1.939" d="m 84.507061,34.690068 2.04692,-3.436585 C 92,34 97,43 91.825155,50.852457 l -3.607584,-1.727811 c 1.409829,4.001548 1.917761,7.571141 1.955751,9.806886 l 0.03799,2.235745 1.765803,-1.371839 c 1.765802,-1.371838 4.865454,-3.213621 8.866995,-4.62345 L 97.236531,53.444176 C 105,46 98,30 89.624358,26.098604 l 2.046919,-3.436586 c -4.112628,1.042249 -7.713527,1.225354 -9.94355,1.061041 l -2.230023,-0.164314 1.206563,1.882607 c 1.206564,1.882605 2.760544,5.136088 3.802794,9.248716 z" baseline-shift="baseline" color="#000" direction="ltr" enable-background="accumulate" font-family="sans-serif" font-size="medium" font-stretch="normal" font-style="normal" font-variant="normal" font-weight="normal" letter-spacing="normal" overflow="visible" text-anchor="start" text-decoration="none" visibility="visible" word-spacing="normal" writing-mode="lr-tb"/><path id="path3864" fill="none" stroke="#fce94f" stroke-linecap="butt" stroke-linejoin="miter" stroke-opacity="1" stroke-width="1.939" d="m 82.42256,26.464811 3.10796,6.506965"/><path id="path3864-4" fill="none" stroke="#fce94f" stroke-linecap="butt" stroke-linejoin="miter" stroke-opacity="1" stroke-width="1.939" d="M 91.228661,56.049545 90.744642,50.322929"/><path id="path3866" fill="none" stroke="#fce94f" stroke-linecap="round" stroke-linejoin="miter" stroke-opacity="1" stroke-width="1.939" d="M 82.121673,26.608365 C 100,35 97.513308,48 91.936325,53.148856"/><path id="path3868" fill="none" stroke="#fce94f" stroke-linecap="butt" stroke-linejoin="miter" stroke-opacity="1" stroke-width="1.939" d="M 86.55398,31.253483 85,28"/><path id="path3868-8" fill="none" stroke="#fce94f" stroke-linecap="butt" stroke-linejoin="miter" stroke-opacity="1" stroke-width="1.939" d="M 94.626431,49.541142 90.166916,58.93721"/><path enable-background="accumulate" style="text-indent:0;text-align:start;line-height:normal;text-transform:none;block-progression:tb" id="path3770-9" fill="none" stroke="#302b00" stroke-dasharray="none" stroke-dashoffset="0" stroke-linecap="butt" stroke-linejoin="round" stroke-miterlimit="4" stroke-opacity="1" stroke-width="1.939" d="m 84.507061,34.690068 2.04692,-3.436585 C 92,34 97,43 91.825155,50.852457 l -3.607584,-1.727811 c 1.409829,4.001548 1.917761,7.571141 1.955751,9.806886 l 0.03799,2.235745 1.765803,-1.371839 c 1.765802,-1.371838 4.865454,-3.213621 8.866995,-4.62345 L 97.236531,53.444176 C 105,46 98,30 89.624358,26.098604 l 2.046919,-3.436586 c -4.112628,1.042249 -7.713527,1.225354 -9.94355,1.061041 l -2.230023,-0.164314 1.206563,1.882607 c 1.206564,1.882605 2.760544,5.136088 3.802794,9.248716 z" baseline-shift="baseline" color="#000" direction="ltr" display="inline" font-family="sans-serif" font-size="medium" font-stretch="normal" font-style="normal" font-variant="normal" font-weight="normal" letter-spacing="normal" overflow="visible" text-anchor="start" text-decoration="none" visibility="visible" word-spacing="normal" writing-mode="lr-tb"/></g><path id="path3039-7" fill="none" stroke="#302b00" stroke-linecap="round" stroke-linejoin="miter" stroke-opacity="1" stroke-width="8" d="M 9,44 48.959843,58.114211"/><path id="path3039-7-4" fill="none" stroke="#302b00" stroke-linecap="round" stroke-linejoin="miter" stroke-opacity="1" stroke-width="8" d="M 9,44 33.465679,9.3960895"/><path id="path3037" fill="url(#linearGradient3911)" fill-opacity="1" stroke="#302b00" stroke-dasharray="none" stroke-dashoffset="0" stroke-linecap="round" stroke-linejoin="miter" stroke-miterlimit="4" stroke-opacity="1" stroke-width="1.5" d="M 13,44 A 6,6 0 1 1 1,44 6,6 0 1 1 13,44 z" transform="matrix(1.3333333,0,0,1.3333331,1.6666669,-14.666655)"/><path id="path3039-7-0" fill="none" stroke="url(#linearGradient3949)" stroke-linecap="round" stroke-linejoin="miter" stroke-opacity="1" stroke-width="4" d="M 9,44 48.959843,58.114211"/><path id="path3039-7-4-9" fill="url(#linearGradient3927)" fill-opacity="1" stroke="url(#linearGradient3941)" stroke-linecap="round" stroke-linejoin="miter" stroke-opacity="1" stroke-width="4" d="M 9,44 33.465679,9.39609"/><path id="path3039-7-0-4" fill="none" stroke="#fce94f" stroke-linecap="round" stroke-linejoin="miter" stroke-opacity="1" stroke-width="2" d="M 9,43 49.487093,57.276442"/><path id="path3039-7-4-9-8" fill="none" stroke="#fce94f" stroke-linecap="round" stroke-linejoin="miter" stroke-opacity="1" stroke-width="2" d="M 10,41 32.741893,8.713214"/><path id="path3037-8" fill="url(#linearGradient3919)" fill-opacity="1" stroke="#fce94f" stroke-dasharray="none" stroke-dashoffset="0" stroke-linecap="round" stroke-linejoin="miter" stroke-miterlimit="4" stroke-opacity="1" stroke-width="2" d="M 13,44 A 6,6 0 1 1 1,44 6,6 0 1 1 13,44 z" transform="translate(4,0)"/></g></svg>