<svg xmlns="http://www.w3.org/2000/svg" xmlns:svg="http://www.w3.org/2000/svg" xmlns:xlink="http://www.w3.org/1999/xlink" id="svg5821" width="64" height="64" version="1.1"><defs id="defs5823"><linearGradient id="linearGradient3042"><stop id="stop3044" offset="0" stop-color="#c4a000" stop-opacity="1"/><stop id="stop3046" offset="1" stop-color="#fce94f" stop-opacity="1"/></linearGradient><linearGradient id="linearGradient3036"><stop id="stop3038" offset="0" stop-color="#c4a000" stop-opacity="1"/><stop id="stop3040" offset="1" stop-color="#fce94f" stop-opacity="1"/></linearGradient><linearGradient id="linearGradient3030"><stop id="stop3032" offset="0" stop-color="#c4a000" stop-opacity="1"/><stop id="stop3034" offset="1" stop-color="#fce94f" stop-opacity="1"/></linearGradient><linearGradient id="linearGradient3018"><stop id="stop3020" offset="0" stop-color="#c4a000" stop-opacity="1"/><stop id="stop3022" offset="1" stop-color="#fce94f" stop-opacity="1"/></linearGradient><linearGradient id="linearGradient3915"><stop id="stop3917" offset="0" stop-color="#c4a000" stop-opacity="1"/><stop id="stop3919" offset="1" stop-color="#fce94f" stop-opacity="1"/></linearGradient><linearGradient id="linearGradient6349"><stop id="stop6351" offset="0" stop-color="#000" stop-opacity="1"/><stop id="stop6353" offset="1" stop-color="#000" stop-opacity="0"/></linearGradient><linearGradient id="linearGradient3377"><stop id="stop3379" offset="0" stop-color="#0019a3" stop-opacity="1"/><stop id="stop3381" offset="1" stop-color="#0069ff" stop-opacity="1"/></linearGradient><linearGradient id="linearGradient3383" x1="901.188" x2="1267.906" y1="1190.875" y2="1190.875" gradientTransform="matrix(-1,0,0,1,2199.356,0)" gradientUnits="userSpaceOnUse" xlink:href="#linearGradient3377"/><radialGradient id="radialGradient6355" cx="1103.64" cy="1424.447" r="194.406" fx="1103.64" fy="1424.447" gradientTransform="matrix(-1.4307499,-1.3605156e-7,-1.202713e-8,0.1264801,2674.7488,1244.2826)" gradientUnits="userSpaceOnUse" xlink:href="#linearGradient6349"/><linearGradient id="linearGradient3921" x1="-6.176" x2="29.975" y1="60.096" y2="78.423" gradientUnits="userSpaceOnUse" xlink:href="#linearGradient3915"/><linearGradient id="linearGradient3929" x1="36.247" x2="-15.172" y1="75.57" y2="65.776" gradientUnits="userSpaceOnUse" xlink:href="#linearGradient3030"/><linearGradient id="linearGradient3921-2" x1="-6.176" x2="29.975" y1="60.096" y2="78.423" gradientUnits="userSpaceOnUse" xlink:href="#linearGradient3036"/><linearGradient id="linearGradient3915-6"><stop id="stop3917-0" offset="0" stop-color="#d3d7cf" stop-opacity="1"/><stop id="stop3919-4" offset="1" stop-color="#fff" stop-opacity="1"/></linearGradient><linearGradient id="linearGradient3929-9" x1="36.247" x2="-15.172" y1="75.57" y2="65.776" gradientUnits="userSpaceOnUse" xlink:href="#linearGradient3915-6"/><linearGradient id="linearGradient3954" x1="36.247" x2="-15.172" y1="75.57" y2="65.776" gradientUnits="userSpaceOnUse" xlink:href="#linearGradient3018"/><linearGradient id="linearGradient3921-2-6" x1="-6.176" x2="29.975" y1="60.096" y2="78.423" gradientUnits="userSpaceOnUse" xlink:href="#linearGradient3042"/><linearGradient id="linearGradient3915-6-2"><stop id="stop3917-0-4" offset="0" stop-color="#c4a000" stop-opacity="1"/><stop id="stop3919-4-5" offset="1" stop-color="#fce94f" stop-opacity="1"/></linearGradient><linearGradient id="linearGradient3954-8" x1="36.247" x2="-15.172" y1="75.57" y2="65.776" gradientUnits="userSpaceOnUse" xlink:href="#linearGradient3915-6-2"/></defs><metadata id="metadata5826"/><g id="g3053" transform="matrix(0.69276793,0.68688244,-0.67712587,0.70274988,-107.59325,-37.915999)"><path id="path3012-7-0" fill="none" stroke="#302b00" stroke-dasharray="none" stroke-dashoffset="0" stroke-linecap="round" stroke-linejoin="miter" stroke-miterlimit="4" stroke-opacity="1" stroke-width="10.431" d="m 35.525422,70.644066 c 0,8.012809 -10.987994,14.508474 -24.542372,14.508474 -13.5543773,0 -24.542371,-6.495665 -24.542371,-14.508474 0,-8.012809 10.9879937,-14.508474 24.542371,-14.508474 13.554378,0 24.542372,6.495665 24.542372,14.508474 z" transform="matrix(0.81491721,0,0,0.75817757,158.6906,-103.36454)"/><path id="path3012-4" fill="none" stroke="#302b00" stroke-dasharray="none" stroke-dashoffset="0" stroke-linecap="round" stroke-linejoin="miter" stroke-miterlimit="4" stroke-opacity="1" stroke-width="10.431" d="m 35.525422,70.644066 c 0,8.012809 -10.987994,14.508474 -24.542372,14.508474 -13.5543773,0 -24.542371,-6.495665 -24.542371,-14.508474 0,-8.012809 10.9879937,-14.508474 24.542371,-14.508474 13.554378,0 24.542372,6.495665 24.542372,14.508474 z" transform="matrix(0.81491721,0,0,0.75817757,128.97386,-103.44425)"/><path id="path3012-7-0-4-8-4" fill="none" stroke="url(#linearGradient3954)" stroke-dasharray="none" stroke-dashoffset="0" stroke-linecap="round" stroke-linejoin="miter" stroke-miterlimit="4" stroke-opacity="1" stroke-width="2.608" d="m 36.722392,70.644066 c 0,8.763268 -11.523896,15.867301 -25.739342,15.867301 -14.2154456,0 -25.739341,-7.104033 -25.739341,-15.867301 0,-8.763268 11.5238954,-15.867301 25.739341,-15.867301 14.215446,0 25.739342,7.104033 25.739342,15.867301 z" transform="matrix(0.81491721,0,0,0.75817758,128.8929,-103.36985)"/><path id="path3012-7-0-4-8-2-6" fill="none" stroke="url(#linearGradient3921-2)" stroke-dasharray="none" stroke-dashoffset="0" stroke-linecap="round" stroke-linejoin="miter" stroke-miterlimit="4" stroke-opacity="1" stroke-width="2.608" d="m 34.222831,70.644066 c 0,7.437062 -10.404804,13.465993 -23.239781,13.465993 -12.834976,0 -23.23978,-6.028931 -23.23978,-13.465993 0,-7.437063 10.404804,-13.465993 23.23978,-13.465993 12.834977,0 23.239781,6.02893 23.239781,13.465993 z" transform="matrix(0.81491721,0,0,0.75817758,128.8902,-103.38055)"/><path id="path3012-7-0-4" fill="none" stroke="#d3d7cf" stroke-dasharray="none" stroke-dashoffset="0" stroke-linecap="round" stroke-linejoin="miter" stroke-miterlimit="4" stroke-opacity="1" stroke-width="5.216" d="m 35.525422,70.644066 c 0,8.012809 -10.987994,14.508474 -24.542372,14.508474 -13.5543773,0 -24.542371,-6.495665 -24.542371,-14.508474 0,-8.012809 10.9879937,-14.508474 24.542371,-14.508474 13.554378,0 24.542372,6.495665 24.542372,14.508474 z" transform="matrix(0.81491721,0,0,0.75817758,158.6906,-103.36454)"/><path id="path3012-7-0-3" fill="none" stroke="#302b00" stroke-dasharray="none" stroke-dashoffset="0" stroke-linecap="butt" stroke-linejoin="miter" stroke-miterlimit="4" stroke-opacity="1" stroke-width="10.431" d="m -1.2031843,83.237634 c -5.727681,-1.936912 -9.8946987,-5.155703 -11.5608667,-8.93013" transform="matrix(0.81491721,0,0,0.75817758,158.6906,-103.36454)"/><path id="path3012-7-0-4-8" fill="none" stroke="url(#linearGradient3929)" stroke-dasharray="none" stroke-dashoffset="0" stroke-linecap="round" stroke-linejoin="miter" stroke-miterlimit="4" stroke-opacity="1" stroke-width="2.608" d="m 36.722392,70.644066 c 0,8.763268 -11.523896,15.867301 -25.739342,15.867301 -14.2154456,0 -25.739341,-7.104033 -25.739341,-15.867301 0,-8.763268 11.5238954,-15.867301 25.739341,-15.867301 14.215446,0 25.739342,7.104033 25.739342,15.867301 z" transform="matrix(0.81491721,0,0,0.75817758,158.6906,-103.36454)"/><path id="path3012-7-0-4-8-2" fill="none" stroke="url(#linearGradient3921)" stroke-dasharray="none" stroke-dashoffset="0" stroke-linecap="round" stroke-linejoin="miter" stroke-miterlimit="4" stroke-opacity="1" stroke-width="2.608" d="m 34.180987,70.644066 c 0,7.259602 -10.38607,13.144672 -23.197937,13.144672 -12.8118665,0 -23.197937,-5.88507 -23.197937,-13.144672 0,-7.259602 10.3860705,-13.144673 23.197937,-13.144673 12.811867,0 23.197937,5.885071 23.197937,13.144673 z" transform="matrix(0.81491721,0,0,0.75817758,158.6879,-103.37524)"/><path id="path3012-4-8" fill="none" stroke="#302b00" stroke-dasharray="none" stroke-dashoffset="0" stroke-linecap="round" stroke-linejoin="miter" stroke-miterlimit="4" stroke-opacity="1" stroke-width="10.431" d="m 24.010072,58.34815 c 4.024412,1.490037 7.231187,3.638255 9.231532,6.184199" transform="matrix(0.81491721,0,0,0.75817758,128.97386,-103.44426)"/><path id="path3012-7-0-4-8-4-1" fill="none" stroke="url(#linearGradient3954-8)" stroke-dasharray="none" stroke-dashoffset="0" stroke-linecap="round" stroke-linejoin="miter" stroke-miterlimit="4" stroke-opacity="1" stroke-width="2.608" d="m 19.427669,55.655033 c 9.417174,2.016221 16.098946,7.203362 17.150992,13.314523" transform="matrix(0.81491721,0,0,0.75817758,128.8929,-103.36986)"/><path id="path3012-7-0-4-8-2-6-2" fill="none" stroke="url(#linearGradient3921-2-6)" stroke-dasharray="none" stroke-dashoffset="0" stroke-linecap="round" stroke-linejoin="miter" stroke-miterlimit="4" stroke-opacity="1" stroke-width="2.608" d="m 19.075511,58.020851 c 8.468366,1.822732 14.346478,6.32385 15.072207,11.541421" transform="matrix(0.81491721,0,0,0.75817758,128.8902,-103.38056)"/></g></svg>