<svg xmlns="http://www.w3.org/2000/svg" xmlns:svg="http://www.w3.org/2000/svg" xmlns:xlink="http://www.w3.org/1999/xlink" id="svg2735" width="64" height="64" version="1.1"><defs id="defs2737"><linearGradient id="linearGradient5192"><stop id="stop5194" offset="0" stop-color="#204a87" stop-opacity="1"/><stop id="stop5196" offset="1" stop-color="#729fcf" stop-opacity="1"/></linearGradient><linearGradient id="linearGradient5127"><stop id="stop5129" offset="0" stop-color="#fce94f" stop-opacity="1"/><stop id="stop5131" offset="1" stop-color="#c4a000" stop-opacity="1"/></linearGradient><linearGradient id="linearGradient5133" x1="499.985" x2="540.147" y1="19.714" y2="4.389" gradientUnits="userSpaceOnUse" xlink:href="#linearGradient5127"/><linearGradient id="linearGradient5133-1" x1="499.985" x2="540.147" y1="19.714" y2="4.389" gradientUnits="userSpaceOnUse" xlink:href="#linearGradient5127-2"/><linearGradient id="linearGradient5127-2"><stop id="stop5129-0" offset="0" stop-color="#fce94f" stop-opacity="1"/><stop id="stop5131-6" offset="1" stop-color="#c4a000" stop-opacity="1"/></linearGradient><linearGradient id="linearGradient5151" x1="499.985" x2="540.147" y1="19.714" y2="4.389" gradientTransform="matrix(0,0.59069326,0.37332419,0,17.504326,-286.6532)" gradientUnits="userSpaceOnUse" xlink:href="#linearGradient5127-2"/><linearGradient id="linearGradient5198" x1="33.634" x2="29.08" y1="60.706" y2="38.658" gradientUnits="userSpaceOnUse" xlink:href="#linearGradient5192"/></defs><g id="layer1"><path id="path2644-2" fill="url(#linearGradient5133)" fill-opacity="1" fill-rule="evenodd" stroke="#302b00" stroke-dashoffset="0" stroke-linecap="butt" stroke-linejoin="round" stroke-miterlimit="4" stroke-opacity="1" stroke-width="4.259" d="m 519.14119,-20.101366 28.77974,45.53683 -57.55949,0 z" display="inline" enable-background="accumulate" overflow="visible" transform="matrix(0,0.59069326,-0.37332419,0,46.495674,-286.6532)" visibility="visible" style="marker:none"/><path id="path3009" fill="url(#linearGradient5198)" fill-opacity="1" stroke="#0b1521" stroke-dasharray="none" stroke-linecap="round" stroke-linejoin="round" stroke-miterlimit="4" stroke-opacity="1" stroke-width="2" d="m 59,37 -18,2 4,4 c 0,0 -2,5 -13,5 C 21,48 13,34 13,34 l -8,7 c 0,0 10,18 27,18 17,0 21,-8 21,-8 l 4,4 z"/><path id="path2644-2-3" fill="none" stroke="#fce94f" stroke-dashoffset="0" stroke-linecap="butt" stroke-linejoin="miter" stroke-miterlimit="4" stroke-opacity="1" stroke-width="2" d="M 51.159091,20 39,32.160706 39,7.8392939 z" display="inline" enable-background="accumulate" overflow="visible" visibility="visible" style="marker:none"/><path id="path2644-2-8" fill="url(#linearGradient5151)" fill-opacity="1" fill-rule="evenodd" stroke="#302b00" stroke-dashoffset="0" stroke-linecap="butt" stroke-linejoin="round" stroke-miterlimit="4" stroke-opacity="1" stroke-width="2" d="M 10,20.000002 27,37 27,2.9999977 z" display="inline" enable-background="accumulate" overflow="visible" visibility="visible" style="marker:none"/><path id="path2644-2-3-7" fill="none" stroke="#fce94f" stroke-dashoffset="0" stroke-linecap="butt" stroke-linejoin="miter" stroke-miterlimit="4" stroke-opacity="1" stroke-width="2" d="M 12.840909,20.000002 25,32.160708 25,7.8392967 z" display="inline" enable-background="accumulate" overflow="visible" visibility="visible" style="marker:none"/><path id="path3009-4" fill="none" stroke="#729fcf" stroke-dasharray="none" stroke-linecap="round" stroke-linejoin="miter" stroke-miterlimit="4" stroke-opacity="1" stroke-width="2" d="m 56.749324,39.265165 -11.467298,1.276823 2.344728,2.42508 C 47.626754,42.967068 43,50 32,50 21,50 12.568182,37.022727 12.568182,37.022727 l -4.9886365,4.375 c 0,0 8.5490195,15.791498 25.3525495,15.698697 16.803531,-0.0928 19.930065,-8.924354 19.930065,-8.924354 l 2.607821,2.600333 z"/></g><metadata id="metadata4610"/></svg>