<svg xmlns="http://www.w3.org/2000/svg" xmlns:svg="http://www.w3.org/2000/svg" xmlns:xlink="http://www.w3.org/1999/xlink" id="svg3612" width="64" height="64" version="1.1"><defs id="defs3614"><linearGradient id="linearGradient3801-1-3" x1="-18" x2="-22" y1="18" y2="5" gradientUnits="userSpaceOnUse" xlink:href="#linearGradient3836-0-6"/><linearGradient id="linearGradient3836-0-6"><stop id="stop3838-2-7" offset="0" stop-color="#c4a000" stop-opacity="1"/><stop id="stop3840-5-5" offset="1" stop-color="#fce94f" stop-opacity="1"/></linearGradient><linearGradient id="linearGradient3801-1-3-7" x1="-18" x2="-22" y1="18" y2="5" gradientUnits="userSpaceOnUse" xlink:href="#linearGradient3836-0-6-4"/><linearGradient id="linearGradient3836-0-6-4"><stop id="stop3838-2-7-0" offset="0" stop-color="#c4a000" stop-opacity="1"/><stop id="stop3840-5-5-9" offset="1" stop-color="#fce94f" stop-opacity="1"/></linearGradient></defs><g id="layer1"><g id="g3448" transform="translate(0.86678264,-132.17127)"><path id="path3002" fill="none" stroke="#2e3436" stroke-dasharray="none" stroke-linecap="round" stroke-linejoin="round" stroke-miterlimit="4" stroke-opacity="1" stroke-width="7.808" d="M 30,34.000001 0.78496017,30.211053 -4.6394802,1.255049 21.223072,-12.851798 42.631448,7.3856954 z" transform="matrix(1.0301416,0.03861457,-0.03908769,1.0176726,9.8173932,151.7708)"/><path id="path3002-1" fill="none" stroke="#d3d7cf" stroke-dasharray="none" stroke-linecap="round" stroke-linejoin="round" stroke-miterlimit="4" stroke-opacity="1" stroke-width="3.904" d="M 30,34.000001 0.78496017,30.211053 -4.6394802,1.255049 21.223072,-12.851798 42.631448,7.3856954 z" transform="matrix(1.0301416,0.03861457,-0.03908769,1.0176726,9.8173932,151.7708)"/><path id="path3790" fill="none" stroke="#fff" stroke-dasharray="none" stroke-linecap="round" stroke-linejoin="round" stroke-miterlimit="18.9" stroke-opacity="1" stroke-width="2" d="M 4.1332167,152.17127 32.372817,138.27734 54.551723,160.646"/><path id="path3792" fill="none" stroke="#fff" stroke-linecap="round" stroke-linejoin="miter" stroke-opacity="1" stroke-width="2" d="m 6.3487101,155.16038 3.9758949,26.52229 28.522295,4.74287 12.598235,-23.87947"/><g id="g3827-1-3" transform="translate(39.138953,108.17127)"><g id="g3797-9-5" transform="translate(31.322131,40.570289)"><path id="path4250-71-6" fill="none" stroke="#2e2900" stroke-dasharray="none" stroke-miterlimit="4" stroke-opacity="1" stroke-width="2" d="M -26.156204,5.582626 A 8.993818,8.9934077 0.02042283 1 1 -12.493793,17.282241 8.993818,8.9934077 0.02042283 1 1 -26.156204,5.582626 z"/><path id="path4250-7-3-2" fill="url(#linearGradient3801-1-3)" fill-opacity="1" stroke="#fce94f" stroke-dasharray="none" stroke-miterlimit="4" stroke-opacity="1" stroke-width="2" d="M -24.633588,6.893588 A 6.9999997,7.0000001 0 1 1 -14,16 6.9999997,7.0000001 0 0 1 -24.633588,6.893588 z"/></g></g><g id="g3827-1-3-4" transform="translate(15.138953,113.17127)"><g id="g3797-9-5-8" transform="translate(31.322131,40.570289)"><path id="path4250-71-6-8" fill="none" stroke="#2e2900" stroke-dasharray="none" stroke-miterlimit="4" stroke-opacity="1" stroke-width="2" d="M -26.156204,5.582626 A 8.993818,8.9934077 0.02042283 1 1 -12.493793,17.282241 8.993818,8.9934077 0.02042283 1 1 -26.156204,5.582626 z"/><path id="path4250-7-3-2-2" fill="url(#linearGradient3801-1-3-7)" fill-opacity="1" stroke="#fce94f" stroke-dasharray="none" stroke-miterlimit="4" stroke-opacity="1" stroke-width="2" d="M -24.633588,6.893588 A 6.9999997,7.0000001 0 1 1 -14,16 6.9999997,7.0000001 0 0 1 -24.633588,6.893588 z"/></g></g></g></g><metadata id="metadata5277"/></svg>