<svg xmlns="http://www.w3.org/2000/svg" xmlns:svg="http://www.w3.org/2000/svg" xmlns:xlink="http://www.w3.org/1999/xlink" id="svg3612" width="64" height="64" version="1.1"><defs id="defs3614"><linearGradient id="linearGradient4280"><stop id="stop4282" offset="0" stop-color="#ff6000" stop-opacity="1"/><stop id="stop4284" offset="1" stop-color="#fe0" stop-opacity="1"/></linearGradient><radialGradient id="radialGradient3684" cx="225.264" cy="672.797" r="34.345" fx="225.264" fy="672.797" gradientTransform="matrix(1,0,0,0.6985294,0,202.82863)" gradientUnits="userSpaceOnUse" xlink:href="#linearGradient3144-6"/><linearGradient id="linearGradient3144-6"><stop id="stop3146-9" offset="0" stop-color="#fff" stop-opacity="1"/><stop id="stop3148-2" offset="1" stop-color="#fff" stop-opacity="0"/></linearGradient><radialGradient id="radialGradient3686" cx="225.264" cy="672.797" r="34.345" fx="225.264" fy="672.797" gradientTransform="matrix(1,0,0,0.6985294,0,202.82863)" gradientUnits="userSpaceOnUse" xlink:href="#linearGradient3144-6"/><linearGradient id="linearGradient3701"><stop id="stop3703" offset="0" stop-color="#fff" stop-opacity="1"/><stop id="stop3705" offset="1" stop-color="#fff" stop-opacity="0"/></linearGradient><radialGradient id="radialGradient3688" cx="225.264" cy="672.797" r="34.345" fx="225.264" fy="672.797" gradientTransform="matrix(1,0,0,0.6985294,0,202.82863)" gradientUnits="userSpaceOnUse" xlink:href="#linearGradient3144-6"/><linearGradient id="linearGradient3708"><stop id="stop3710" offset="0" stop-color="#fff" stop-opacity="1"/><stop id="stop3712" offset="1" stop-color="#fff" stop-opacity="0"/></linearGradient><radialGradient id="radialGradient3723" cx="225.264" cy="672.797" r="34.345" fx="225.264" fy="672.797" gradientTransform="matrix(1,0,0,0.6985294,0,202.82863)" gradientUnits="userSpaceOnUse" xlink:href="#linearGradient3144-6"/><linearGradient id="linearGradient3864-0-0"><stop id="stop3866-5-7" offset="0" stop-color="#0619c0" stop-opacity="1"/><stop id="stop3868-7-6" offset="1" stop-color="#379cfb" stop-opacity="1"/></linearGradient><linearGradient id="linearGradient3377"><stop id="stop3379" offset="0" stop-color="#fa0" stop-opacity="1"/><stop id="stop3381" offset="1" stop-color="#faff2b" stop-opacity="1"/></linearGradient><linearGradient id="linearGradient3864-0"><stop id="stop3866-5" offset="0" stop-color="#0619c0" stop-opacity="1"/><stop id="stop3868-7" offset="1" stop-color="#379cfb" stop-opacity="1"/></linearGradient><linearGradient id="linearGradient4331" x1="36.682" x2="66.773" y1="36.273" y2="36.273" gradientUnits="userSpaceOnUse" xlink:href="#linearGradient4280"/><linearGradient id="linearGradient4280-5"><stop id="stop4282-9" offset="0" stop-color="#007b09" stop-opacity="1"/><stop id="stop4284-5" offset="1" stop-color="#46ff00" stop-opacity="1"/></linearGradient><radialGradient id="radialGradient2411" cx="2787.599" cy="552.897" r="38.829" fx="2787.599" fy="552.897" gradientTransform="matrix(0.1937875,0,0,0.20943582,-425.95281,-115.26147)" gradientUnits="userSpaceOnUse" xlink:href="#linearGradient3273"/><linearGradient id="linearGradient3273"><stop id="stop3275" offset="0" stop-color="#fff" stop-opacity="1"/><stop id="stop3277" offset="1" stop-color="#fff" stop-opacity="0"/></linearGradient><linearGradient id="linearGradient2405" x1="2754.686" x2="2900.148" y1="671.111" y2="671.111" gradientTransform="matrix(-1,0,0,-1,5656.8338,1344.2216)" gradientUnits="userSpaceOnUse" xlink:href="#linearGradient3293"/><linearGradient id="linearGradient3293"><stop id="stop3295" offset="0" stop-color="olive" stop-opacity="1"/><stop id="stop3297" offset="1" stop-color="olive" stop-opacity="0"/></linearGradient><linearGradient id="linearGradient2407" x1="2754.686" x2="2900.148" y1="671.111" y2="671.111" gradientTransform="matrix(-1,0,0,-1,5656.8338,1376.2216)" gradientUnits="userSpaceOnUse" xlink:href="#linearGradient3293"/><linearGradient id="linearGradient2409" x1="2754.686" x2="2900.148" y1="671.111" y2="671.111" gradientTransform="matrix(-1,0,0,-1,5656.8338,1408.2216)" gradientUnits="userSpaceOnUse" xlink:href="#linearGradient3293"/><linearGradient id="linearGradient2403" x1="2732.357" x2="2839.071" y1="711.112" y2="711.112" gradientTransform="matrix(0.15119754,0,0,0.1937875,-309.70907,-106.60955)" gradientUnits="userSpaceOnUse" xlink:href="#linearGradient3255"/><linearGradient id="linearGradient3255"><stop id="stop3257" offset="0" stop-color="#fff" stop-opacity="1"/><stop id="stop3259" offset="1" stop-color="#fff" stop-opacity="0"/></linearGradient><linearGradient id="linearGradient4673" x1="2754.686" x2="2900.148" y1="671.111" y2="671.111" gradientTransform="matrix(-0.1937875,0,0,-0.1937875,670.27087,167.83649)" gradientUnits="userSpaceOnUse" xlink:href="#linearGradient3293"/><linearGradient id="linearGradient4676" x1="2754.686" x2="2900.148" y1="671.111" y2="671.111" gradientTransform="matrix(-0.1937875,0,0,-0.1937875,670.27087,161.63529)" gradientUnits="userSpaceOnUse" xlink:href="#linearGradient3293"/><linearGradient id="linearGradient4679" x1="2754.686" x2="2900.148" y1="671.111" y2="671.111" gradientTransform="matrix(-0.1937875,0,0,-0.1937875,670.27087,155.43409)" gradientUnits="userSpaceOnUse" xlink:href="#linearGradient3293"/><linearGradient id="linearGradient4331-8" x1="36.682" x2="66.773" y1="36.273" y2="36.273" gradientUnits="userSpaceOnUse" xlink:href="#linearGradient4280-8"/><linearGradient id="linearGradient4280-8"><stop id="stop4282-94" offset="0" stop-color="#ff6000" stop-opacity="1"/><stop id="stop4284-7" offset="1" stop-color="#fe0" stop-opacity="1"/></linearGradient><linearGradient id="linearGradient3922" x1="11.39" x2="54.51" y1="453.55" y2="485.54" gradientTransform="matrix(0.98353665,0.01809546,0.01809547,0.98917081,-277.8307,253.19027)" gradientUnits="userSpaceOnUse" xlink:href="#linearGradient3836"/><linearGradient id="linearGradient3836"><stop id="stop3838" offset="0" stop-color="#3465a4" stop-opacity="1"/><stop id="stop3840" offset="1" stop-color="#729fcf" stop-opacity="1"/></linearGradient><linearGradient id="linearGradient3922-3" x1="11.39" x2="54.51" y1="453.55" y2="485.54" gradientTransform="matrix(0.98353663,0.01809542,0.01809549,0.98917077,-58.285859,270.17568)" gradientUnits="userSpaceOnUse" xlink:href="#linearGradient3836-6"/><linearGradient id="linearGradient3836-6"><stop id="stop3838-7" offset="0" stop-color="#3465a4" stop-opacity="1"/><stop id="stop3840-5" offset="1" stop-color="#729fcf" stop-opacity="1"/></linearGradient><linearGradient id="linearGradient3922-6" x1="11.39" x2="54.51" y1="453.55" y2="485.54" gradientTransform="matrix(0.98353663,0.01809542,0.01809549,0.98917077,-75.27572,489.72902)" gradientUnits="userSpaceOnUse" xlink:href="#linearGradient3836-2"/><linearGradient id="linearGradient3836-2"><stop id="stop3838-9" offset="0" stop-color="#3465a4" stop-opacity="1"/><stop id="stop3840-1" offset="1" stop-color="#729fcf" stop-opacity="1"/></linearGradient><linearGradient id="linearGradient3922-0" x1="10.387" x2="56.319" y1="453.779" y2="483.995" gradientTransform="matrix(-0.24930482,-0.22162964,0.21349852,-0.2587998,-46.291565,159.73992)" gradientUnits="userSpaceOnUse" xlink:href="#linearGradient3836-9"/><linearGradient id="linearGradient3836-9"><stop id="stop3838-3" offset="0" stop-color="#c4a000" stop-opacity="1"/><stop id="stop3840-6" offset="1" stop-color="#fce94f" stop-opacity="1"/></linearGradient><linearGradient id="linearGradient3979" x1="89" x2="84" y1="67" y2="49" gradientTransform="translate(0,-1)" gradientUnits="userSpaceOnUse" xlink:href="#linearGradient3836-9"/></defs><g id="layer1"><path id="path3981" fill="none" stroke="#2e3436" stroke-linecap="butt" stroke-linejoin="miter" stroke-opacity="1" stroke-width="6" d="M 10,32 32,10 54,32 32,54 z"/><path id="path3981-1" fill="none" stroke="#d3d7cf" stroke-linecap="butt" stroke-linejoin="miter" stroke-opacity="1" stroke-width="2" d="M 10,32 32,10 54,32 32,54 z"/><g id="g4312" stroke="#3465a4" stroke-width="2.122" transform="matrix(0.94235513,0.01446014,-0.01446079,0.94231206,-148.41745,-195.06938)"><g id="g4248" stroke="#3465a4" stroke-width="14.155" transform="matrix(-0.1153544,-0.09575809,0.09575809,-0.1153544,98.667777,319.83687)"><g id="g3906" stroke-width="14.155" transform="translate(-3.7314339,-3.2817175)"><path id="path4250" fill="#3465a4" fill-opacity="1" stroke="#0b1521" stroke-dasharray="none" stroke-miterlimit="4" stroke-opacity="1" stroke-width="14.155" d="m -194.20237,715.99918 a 49.534277,49.533378 49.435534 1 1 -99.06751,-8.9e-4 49.534277,49.533378 49.435534 1 1 99.06751,8.9e-4 z"/><path id="path4250-7" fill="url(#linearGradient3922)" fill-opacity="1" stroke="#729fcf" stroke-dasharray="none" stroke-miterlimit="4" stroke-opacity="1" stroke-width="14.155" d="m -208.35,715.9935 a 35.38115,35.392822 49.405722 0 1 -70.77576,0.0116 35.38115,35.392822 49.405722 0 1 70.77576,-0.0116 z"/><path id="path4250-3" fill="#3465a4" fill-opacity="1" stroke="#0b1521" stroke-dasharray="none" stroke-miterlimit="4" stroke-opacity="1" stroke-width="14.155" d="m 25.342481,732.98458 a 49.534277,49.533376 49.485683 1 1 -99.06751,-8.9e-4 49.534277,49.533376 49.485683 1 1 99.06751,8.9e-4 z"/><path id="path4250-7-5" fill="url(#linearGradient3922-3)" fill-opacity="1" stroke="#729fcf" stroke-dasharray="none" stroke-miterlimit="4" stroke-opacity="1" stroke-width="14.155" d="m 11.194851,732.9789 a 35.381151,35.392823 49.402956 1 1 -70.77576,0.0116 35.381151,35.392823 49.402956 0 1 70.77576,-0.0116 z"/><path id="path4250-2" fill="#3465a4" fill-opacity="1" stroke="#0b1521" stroke-dasharray="none" stroke-miterlimit="4" stroke-opacity="1" stroke-width="14.155" d="m 8.3526097,952.53792 a 49.534277,49.533376 49.485683 1 1 -99.0674997,-8.9e-4 49.534277,49.533376 49.485683 1 1 99.0674997,8.9e-4 z"/><path id="path4250-7-7" fill="url(#linearGradient3922-6)" fill-opacity="1" stroke="#729fcf" stroke-dasharray="none" stroke-miterlimit="4" stroke-opacity="1" stroke-width="14.155" d="m -5.7950203,952.53224 a 35.381151,35.392823 49.402956 1 1 -70.7757597,0.0116 35.381151,35.392823 49.402956 0 1 70.7757597,-0.0116 z"/></g></g></g><path id="path4250-0" fill="#3465a4" fill-opacity="1" stroke="#302b00" stroke-dasharray="none" stroke-miterlimit="4" stroke-opacity="1" stroke-width="2" d="M 36.368516,23.900386 A 13.995767,13.996164 89.972205 1 1 57.629937,42.107623 13.995767,13.996164 89.972205 1 1 36.368516,23.900386 z"/><path id="path4250-7-6" fill="url(#linearGradient3922-0)" fill-opacity="1" stroke="#fce94f" stroke-dasharray="none" stroke-miterlimit="4" stroke-opacity="1" stroke-width="2" d="M 37.884589,25.1955 A 11.999423,12.000495 89.925918 1 1 56.114427,40.805652 11.999423,12.000495 89.925918 0 1 37.884589,25.1955 z"/><g id="g3201" fill="#eeeeec" stroke="#000" stroke-linejoin="round" transform="translate(-41,-27)"><path id="path3195" fill="#eeeeec" stroke="#000" stroke-linecap="butt" stroke-linejoin="round" stroke-opacity="1" stroke-width="2" d="m 97,68 0,-10 -2,0 0,-3 c 0,0 0,-6 -7,-6 -7,0 -7,6 -7,6 l 0,3 -2,0 0,10 z"/><path id="path3199" fill="url(#linearGradient3979)" fill-opacity="1" stroke="#000" stroke-linecap="butt" stroke-linejoin="round" stroke-opacity="1" stroke-width="2" d="m 85,58 6,0 0,-3 c 0,0 0,-2 -3,-2 -3,0 -3,2 -3,2 z"/></g></g><metadata id="metadata4818"/></svg>