<svg xmlns="http://www.w3.org/2000/svg" xmlns:svg="http://www.w3.org/2000/svg" xmlns:xlink="http://www.w3.org/1999/xlink" id="svg2985" width="64" height="64" version="1.1"><defs id="defs2987"><linearGradient id="linearGradient3793"><stop id="stop3795" offset="0" stop-color="#a40000" stop-opacity="1"/><stop id="stop3797" offset="1" stop-color="#ef2929" stop-opacity="1"/></linearGradient><linearGradient id="linearGradient3799" x1="29" x2="15" y1="47" y2="17" gradientUnits="userSpaceOnUse" xlink:href="#linearGradient3793"/></defs><g id="layer1"><rect id="rect3801" width="36" height="8" x="25" y="27" fill="#3465a4" fill-opacity="1" stroke="#0b1521" stroke-dasharray="none" stroke-linecap="round" stroke-linejoin="round" stroke-miterlimit="4" stroke-opacity="1" stroke-width="2"/><rect id="rect3784" width="22" height="8" x="3" y="27" fill="#d3d7cf" fill-opacity="1" fill-rule="evenodd" stroke="#2e3436" stroke-dasharray="none" stroke-dashoffset="0" stroke-linecap="round" stroke-linejoin="round" stroke-miterlimit="4" stroke-opacity="1" stroke-width="2" color="#000" display="inline" enable-background="accumulate" overflow="visible" visibility="visible" style="marker:none"/><rect id="rect3801-6" width="36" height="4" x="23" y="29" fill="#3465a4" fill-opacity="1" stroke="#729fcf" stroke-dasharray="none" stroke-linecap="round" stroke-linejoin="miter" stroke-miterlimit="4" stroke-opacity="1" stroke-width="2"/><rect id="rect3784-3" width="19" height="4" x="5" y="29" fill="none" stroke="#fff" stroke-dasharray="none" stroke-dashoffset="0" stroke-linecap="round" stroke-linejoin="miter" stroke-miterlimit="4" stroke-opacity="1" stroke-width="2" color="#000" display="inline" enable-background="accumulate" overflow="visible" visibility="visible" style="marker:none"/><path id="rect3761" fill="url(#linearGradient3799)" fill-opacity="1" fill-rule="evenodd" stroke="#280000" stroke-dasharray="none" stroke-dashoffset="0" stroke-linecap="round" stroke-linejoin="round" stroke-miterlimit="4" stroke-opacity="1" stroke-width="2" d="M 15,15 9,21 19,31 9,41 15,47 25,37 35,47 41,41 31,31 41,21 35,15 25,25 z" color="#000" display="inline" enable-background="accumulate" overflow="visible" visibility="visible" style="marker:none"/><path id="rect3761-3" fill="none" stroke="#ef2929" stroke-dasharray="none" stroke-dashoffset="0" stroke-linecap="round" stroke-linejoin="miter" stroke-miterlimit="4" stroke-opacity="1" stroke-width="2" d="M 15,18 12,21 22,31 12,41 15,44 25,34 35,44 38,41 28,31 38,21 35,18 25,28 z" color="#000" display="inline" enable-background="accumulate" overflow="visible" visibility="visible" style="marker:none"/></g><metadata id="metadata5843"/></svg>