<svg xmlns="http://www.w3.org/2000/svg" xmlns:svg="http://www.w3.org/2000/svg" xmlns:xlink="http://www.w3.org/1999/xlink" id="svg2963" width="64" height="64" version="1.1"><defs id="defs2965"><linearGradient id="linearGradient3354"><stop id="stop3356" offset="0" stop-color="#2157c7" stop-opacity="1"/><stop id="stop3358" offset="1" stop-color="#6daaff" stop-opacity="1"/></linearGradient><linearGradient id="linearGradient3036" x1="56.172" x2="21.69" y1="29.28" y2="36.08" gradientTransform="matrix(0,-1.4500001,1.4705882,0,-15.05882,91.45)" gradientUnits="userSpaceOnUse" xlink:href="#linearGradient3895"/><linearGradient id="linearGradient3895"><stop id="stop3897" offset="0" stop-color="#729fcf" stop-opacity="1"/><stop id="stop3899" offset="1" stop-color="#204a87" stop-opacity="1"/></linearGradient><linearGradient id="linearGradient3918-3" x1="56.172" x2="21.69" y1="29.28" y2="36.08" gradientTransform="matrix(0,-0.58000003,0.58823527,0,13.176471,38.379999)" gradientUnits="userSpaceOnUse" xlink:href="#linearGradient3895-6"/><linearGradient id="linearGradient3895-6"><stop id="stop3897-7" offset="0" stop-color="#729fcf" stop-opacity="1"/><stop id="stop3899-5" offset="1" stop-color="#204a87" stop-opacity="1"/></linearGradient><linearGradient id="linearGradient3029-6" x1="56.172" x2="21.69" y1="29.28" y2="36.08" gradientTransform="matrix(0.58000003,0,0,0.58823527,25.620001,13.176471)" gradientUnits="userSpaceOnUse" xlink:href="#linearGradient3895-6-2"/><linearGradient id="linearGradient3895-6-2"><stop id="stop3897-7-9" offset="0" stop-color="#729fcf" stop-opacity="1"/><stop id="stop3899-5-1" offset="1" stop-color="#204a87" stop-opacity="1"/></linearGradient><linearGradient id="linearGradient3918-0" x1="56.172" x2="21.69" y1="29.28" y2="36.08" gradientTransform="matrix(0,-0.58000003,0.58823527,0,13.176471,38.379999)" gradientUnits="userSpaceOnUse" xlink:href="#linearGradient3895-9"/><linearGradient id="linearGradient3895-9"><stop id="stop3897-3" offset="0" stop-color="#729fcf" stop-opacity="1"/><stop id="stop3899-6" offset="1" stop-color="#204a87" stop-opacity="1"/></linearGradient><linearGradient id="linearGradient3154" x1="45.483" x2="-23.483" y1="11.6" y2="52.4" gradientTransform="matrix(0,-0.58000003,0.58823527,0,13.176471,38.379999)" gradientUnits="userSpaceOnUse" xlink:href="#linearGradient3895"/><linearGradient id="linearGradient3156" x1="31.69" x2="-9.69" y1="-2" y2="66" gradientTransform="matrix(-0.58000003,0,0,0.58823527,38.379999,13.176471)" gradientUnits="userSpaceOnUse" xlink:href="#linearGradient3895-6-2"/><linearGradient id="linearGradient3158" x1="-9.69" x2="31.69" y1="-2" y2="66" gradientTransform="matrix(0.58000003,0,0,0.58823527,25.620001,13.176471)" gradientUnits="userSpaceOnUse" xlink:href="#linearGradient3895-6"/><linearGradient id="linearGradient3160" x1="-23.483" x2="45.483" y1="11.6" y2="52.4" gradientTransform="matrix(0,0.58000003,0.58823527,0,13.176471,25.620001)" gradientUnits="userSpaceOnUse" xlink:href="#linearGradient3895-9"/><linearGradient id="linearGradient3936" x1="20" x2="44" y1="12" y2="52" gradientUnits="userSpaceOnUse" xlink:href="#linearGradient3895-9"/><linearGradient id="linearGradient3944" x1="20" x2="44" y1="12" y2="52" gradientUnits="userSpaceOnUse" xlink:href="#linearGradient3895-9"/></defs><g id="layer1"><rect id="rect3126" width="12" height="6" x="26" y="29" fill="url(#linearGradient3936)" fill-opacity="1" stroke="none"/><rect id="rect3126-2" width="6" height="12" x="29" y="26" fill="url(#linearGradient3944)" fill-opacity="1" stroke="none"/><path id="path3343" fill="url(#linearGradient3154)" fill-opacity="1" fill-rule="evenodd" stroke="#0b1521" stroke-dasharray="none" stroke-linecap="butt" stroke-linejoin="round" stroke-miterlimit="4" stroke-opacity="1" stroke-width="2" d="m 37,28 0,-15 6,0 -11,-10 -11,10 6,0 0,15"/><path id="path3343-2" fill="none" stroke="#729fcf" stroke-dasharray="none" stroke-linecap="butt" stroke-linejoin="miter" stroke-miterlimit="4" stroke-opacity="1" stroke-width="2" d="M 35,29 35,11 37.831259,11 32,5.7026937 26.168741,11 29,11 29,29"/><path id="path3343-3" fill="url(#linearGradient3158)" fill-opacity="1" fill-rule="evenodd" stroke="#0b1521" stroke-dasharray="none" stroke-linecap="butt" stroke-linejoin="round" stroke-miterlimit="4" stroke-opacity="1" stroke-width="2" d="m 37,37 14,0 0,6 10,-11 -10,-11 0,6 -14,0"/><path id="path3343-2-5" fill="none" stroke="#729fcf" stroke-dasharray="none" stroke-linecap="butt" stroke-linejoin="miter" stroke-miterlimit="4" stroke-opacity="1" stroke-width="2" d="m 35,35 18,0 0,2.831259 L 58.297306,32 53,26.168741 53,29 34,29"/><path id="path3343-3-2" fill="url(#linearGradient3156)" fill-opacity="1" fill-rule="evenodd" stroke="#0b1521" stroke-dasharray="none" stroke-linecap="butt" stroke-linejoin="round" stroke-miterlimit="4" stroke-opacity="1" stroke-width="2" d="m 27,37 -14,0 0,6 -10,-11 10,-11 0,6 14,0"/><path id="path3343-2-5-7" fill="none" stroke="#729fcf" stroke-dasharray="none" stroke-linecap="butt" stroke-linejoin="miter" stroke-miterlimit="4" stroke-opacity="1" stroke-width="2" d="M 29,35 11,35 11,37.831259 5.702694,32 11,26.168741 11,29 30,29"/><path id="path3343-0" fill="url(#linearGradient3160)" fill-opacity="1" fill-rule="evenodd" stroke="#0b1521" stroke-dasharray="none" stroke-linecap="butt" stroke-linejoin="round" stroke-miterlimit="4" stroke-opacity="1" stroke-width="2" d="m 37,36 0,15 6,0 -11,10 -11,-10 6,0 0,-15"/><path id="path3343-2-6" fill="none" stroke="#729fcf" stroke-dasharray="none" stroke-linecap="butt" stroke-linejoin="miter" stroke-miterlimit="4" stroke-opacity="1" stroke-width="2" d="m 35,34 0,19 2.831259,0 L 32,58.297306 26.168741,53 29,53 29,34"/></g><metadata id="metadata5006"/></svg>