<svg xmlns="http://www.w3.org/2000/svg" xmlns:svg="http://www.w3.org/2000/svg" xmlns:xlink="http://www.w3.org/1999/xlink" id="svg2766" width="64" height="64" version="1.1"><defs id="defs2768"><linearGradient id="linearGradient3856"><stop id="stop3858" offset="0" stop-color="#3465a4" stop-opacity="1"/><stop id="stop3860" offset="1" stop-color="#729fcf" stop-opacity="1"/></linearGradient><linearGradient id="linearGradient3824"><stop id="stop3826" offset="0" stop-color="#729fcf" stop-opacity="1"/><stop id="stop3828" offset="1" stop-color="#204a87" stop-opacity="1"/></linearGradient><linearGradient id="linearGradient3787"><stop id="stop3789" offset="0" stop-color="#0619c0" stop-opacity="1"/><stop id="stop3791" offset="1" stop-color="#379cfb" stop-opacity="1"/></linearGradient><linearGradient id="linearGradient3864"><stop id="stop3866" offset="0" stop-color="#0619c0" stop-opacity="1"/><stop id="stop3868" offset="1" stop-color="#379cfb" stop-opacity="1"/></linearGradient><linearGradient id="linearGradient3036" x1="56.172" x2="21.69" y1="29.28" y2="36.08" gradientTransform="matrix(0,-1.4500001,1.4705882,0,-15.05882,91.45)" gradientUnits="userSpaceOnUse" xlink:href="#linearGradient3895"/><linearGradient id="linearGradient3895"><stop id="stop3897" offset="0" stop-color="#729fcf" stop-opacity="1"/><stop id="stop3899" offset="1" stop-color="#204a87" stop-opacity="1"/></linearGradient><linearGradient id="linearGradient3830-3" x1="591.591" x2="599.127" y1="103.195" y2="128.195" gradientTransform="matrix(1.1400105,0,0,2.3311849,-82.179086,-167.4987)" gradientUnits="userSpaceOnUse" xlink:href="#linearGradient3824"/><linearGradient id="linearGradient3862-9" x1="613.258" x2="595.359" y1="135.195" y2="68.195" gradientTransform="matrix(1.0614931,0,0,1,-614.9391,-71.223999)" gradientUnits="userSpaceOnUse" xlink:href="#linearGradient3856"/><linearGradient id="linearGradient4383" x1="48" x2="52" y1="88" y2="6" gradientTransform="matrix(0.95385159,0,0,1.0280131,576.7393,67.974913)" gradientUnits="userSpaceOnUse" xlink:href="#linearGradient3856"/></defs><g id="layer1"><g id="g3518" transform="matrix(1.0614931,0,0,1,-612.96941,-69.194602)"><path display="inline" style="text-indent:0;text-align:start;line-height:normal;text-transform:none;block-progression:tb;marker:none" id="path4267" fill="url(#linearGradient4383)" fill-opacity="1" fill-rule="nonzero" stroke="#204a87" stroke-dasharray="none" stroke-dashoffset="0" stroke-linecap="butt" stroke-linejoin="round" stroke-miterlimit="4" stroke-opacity="1" stroke-width="1.941" d="m 609.86837,74.194602 -5.08872,1.851433 3.45586,7.284437 4.5298,-3.030034 z m 4.24202,8.942911 -4.5298,3.028026 2.66221,5.611907 4.5298,-3.028026 z m 4.00729,8.446975 -4.5298,3.030033 2.77772,5.854859 4.5298,-3.028029 z m 4.12281,8.691942 -4.52982,3.03003 2.76655,5.83277 4.52981,-3.02803 z m 4.11347,8.66984 -4.53165,3.02802 2.84414,5.44815 4.43049,-2.59358 -4.4644,2.551 4.50101,-2.57271 z m 4.12281,8.69595 -4.52981,3.03003 0.76755,2.59958 -2.11683,0.85572 0,6.06705 7.3141,0 c 2.89746,-4e-5 3.86363,-2.31781 2.60581,-4.96798 z m -23.21423,6.48533 0.3433,6.06705 4.71035,0 0,-6.06705 z m 8.82193,0.067 0,6 5.65241,5e-5 3e-5,-6.00005 z" baseline-shift="baseline" color="#000" direction="ltr" enable-background="accumulate" font-family="sans-serif" font-size="medium" font-stretch="normal" font-style="normal" font-variant="normal" font-weight="normal" letter-spacing="normal" overflow="visible" text-anchor="start" text-decoration="none" visibility="visible" word-spacing="normal" writing-mode="lr-tb"/><path id="path3834" fill="none" stroke="#729fcf" stroke-linecap="butt" stroke-linejoin="round" stroke-opacity="1" stroke-width="1.941" d="m 617.02654,126.1946 3.76827,0"/><path id="path3834-6" fill="none" stroke="#729fcf" stroke-linecap="butt" stroke-linejoin="round" stroke-opacity="1" stroke-width="1.941" d="m 607.60763,126.19124 3.80887,0"/><path id="path3018-5" fill="none" stroke="#0b1521" stroke-dasharray="none" stroke-linecap="round" stroke-linejoin="round" stroke-miterlimit="4" stroke-opacity="1" stroke-width="7.765" d="m 583.11204,75.194602 0,51.999998 24.4938,0 0,-51.999998 z"/><path id="path3018-1-3" fill="none" stroke="url(#linearGradient3830-3)" stroke-dasharray="none" stroke-linecap="round" stroke-linejoin="round" stroke-miterlimit="4" stroke-opacity="1" stroke-width="3.882" d="m 583.11204,75.194602 0,45.999998 0,6 24.4938,0 0,-51.999998 z"/><path id="path3018-1-7-5" fill="none" stroke="#729fcf" stroke-dasharray="none" stroke-linecap="round" stroke-linejoin="round" stroke-miterlimit="4" stroke-opacity="1" stroke-width="1.941" d="m 585.93825,126.1946 20.72552,0 0,-47.999998 m 0.94207,-4 -25.43587,0 0,52.999998"/><path id="path3834-2" fill="none" stroke="#729fcf" stroke-linecap="butt" stroke-linejoin="round" stroke-opacity="1" stroke-width="1.941" d="m 625.10479,110.9921 2.05437,3.81019"/><path id="path3834-2-6" fill="none" stroke="#729fcf" stroke-linecap="butt" stroke-linejoin="round" stroke-opacity="1" stroke-width="1.941" d="m 621.00676,102.235 2.10423,3.91605"/><path id="path3834-2-1" fill="none" stroke="#729fcf" stroke-linecap="butt" stroke-linejoin="round" stroke-opacity="1" stroke-width="1.941" d="m 616.89977,93.53055 2.05436,4.02191"/><path id="path3834-2-8" fill="none" stroke="#729fcf" stroke-linecap="butt" stroke-linejoin="round" stroke-opacity="1" stroke-width="1.941" d="m 612.81382,85.229516 1.92181,3.728232"/><path id="path3834-2-7" fill="none" stroke="#729fcf" stroke-linecap="butt" stroke-linejoin="round" stroke-opacity="1" stroke-width="1.941" d="m 625.6855,125.52981 c 0,0 1.91811,-0.40021 2.46967,-0.86591 0.27577,-0.23286 0.82382,-0.84479 0.70224,-1.8277 -0.12158,-0.98291 -0.86646,-2.3859 -0.86646,-2.3859"/></g></g><metadata id="metadata5370"/></svg>