<svg xmlns="http://www.w3.org/2000/svg" xmlns:svg="http://www.w3.org/2000/svg" xmlns:xlink="http://www.w3.org/1999/xlink" id="svg3111" width="64" height="64" version="1.1"><defs id="defs3113"><linearGradient id="linearGradient3841"><stop id="stop3843" offset="0" stop-color="#0619c0" stop-opacity="1"/><stop id="stop3845" offset="1" stop-color="#379cfb" stop-opacity="1"/></linearGradient><linearGradient id="linearGradient6655" x1="155.469" x2="713.063" y1="2545.219" y2="2545.219" gradientTransform="translate(2,-2)" gradientUnits="userSpaceOnUse" xlink:href="#linearGradient3841"/><linearGradient id="linearGradient3036" x1="56.172" x2="21.69" y1="29.28" y2="36.08" gradientTransform="matrix(0,-1.4500001,1.4705882,0,-15.05882,91.45)" gradientUnits="userSpaceOnUse" xlink:href="#linearGradient3895"/><linearGradient id="linearGradient3895"><stop id="stop3897" offset="0" stop-color="#729fcf" stop-opacity="1"/><stop id="stop3899" offset="1" stop-color="#204a87" stop-opacity="1"/></linearGradient><linearGradient id="linearGradient3025" x1="42.758" x2="45.615" y1="23.527" y2="39.514" gradientTransform="matrix(0.82726526,0,0,0.85294121,12.536816,6.205883)" gradientUnits="userSpaceOnUse" xlink:href="#linearGradient3895"/><linearGradient id="linearGradient3025-3" x1="42.758" x2="45.615" y1="23.527" y2="39.514" gradientTransform="matrix(0.82726526,0,0,0.85294121,12.536816,35.205883)" gradientUnits="userSpaceOnUse" xlink:href="#linearGradient3895-6"/><linearGradient id="linearGradient3895-6"><stop id="stop3897-7" offset="0" stop-color="#729fcf" stop-opacity="1"/><stop id="stop3899-5" offset="1" stop-color="#204a87" stop-opacity="1"/></linearGradient><linearGradient id="linearGradient3066" x1="50.121" x2="45.615" y1="24.379" y2="39.514" gradientTransform="matrix(-0.82726526,0,0,0.85294121,51.46318,6.205883)" gradientUnits="userSpaceOnUse" xlink:href="#linearGradient3895-6"/><linearGradient id="linearGradient3900" x1="30" x2="34" y1="6" y2="57" gradientUnits="userSpaceOnUse" xlink:href="#linearGradient3895-6"/></defs><g id="layer1"><path id="path3343" fill="url(#linearGradient3025)" fill-opacity="1" fill-rule="evenodd" stroke="#0b1521" stroke-dasharray="none" stroke-linecap="butt" stroke-linejoin="round" stroke-miterlimit="4" stroke-opacity="1" stroke-width="2" d="m 49,19 0,8 -8,0 0,10 8,0 0,8 12,-13 z"/><path id="path3343-2" fill="none" stroke="#729fcf" stroke-dasharray="none" stroke-linecap="butt" stroke-linejoin="miter" stroke-miterlimit="4" stroke-opacity="1" stroke-width="2" d="M 51.040748,24.487021 51,29 l -8,0 0,6 8,0 0.01705,5.130682 7.264191,-8.106576 z"/><path id="path3343-3" fill="url(#linearGradient3066)" fill-opacity="1" fill-rule="evenodd" stroke="#0b1521" stroke-dasharray="none" stroke-linecap="butt" stroke-linejoin="round" stroke-miterlimit="4" stroke-opacity="1" stroke-width="2" d="m 15,19 0,8 8,0 0,10 -8,0 0,8 L 3,32 z"/><path id="path3343-2-5" fill="none" stroke="#729fcf" stroke-dasharray="none" stroke-linecap="butt" stroke-linejoin="miter" stroke-miterlimit="4" stroke-opacity="1" stroke-width="2" d="M 12.959252,24.487021 13,29 l 8,0 0,6 -8,0 -0.01705,5.130682 -7.264191,-8.106576 z"/><path id="path3087" fill="none" stroke="#0b1521" stroke-linecap="round" stroke-linejoin="miter" stroke-opacity="1" stroke-width="8" d="M 32,56 32,8"/><path id="path3087-6" fill="none" stroke="url(#linearGradient3900)" stroke-linecap="round" stroke-linejoin="miter" stroke-opacity="1" stroke-width="4" d="M 32,56 32,8"/><path id="path3087-6-2" fill="none" stroke="#729fcf" stroke-linecap="round" stroke-linejoin="miter" stroke-opacity="1" stroke-width="2" d="M 31,56 31,8"/></g><metadata id="metadata5781"/></svg>