<svg xmlns="http://www.w3.org/2000/svg" xmlns:svg="http://www.w3.org/2000/svg" xmlns:xlink="http://www.w3.org/1999/xlink" id="svg5821" width="64" height="64" version="1.1"><defs id="defs5823"><linearGradient id="linearGradient6349"><stop id="stop6351" offset="0" stop-color="#000" stop-opacity="1"/><stop id="stop6353" offset="1" stop-color="#000" stop-opacity="0"/></linearGradient><linearGradient id="linearGradient3377"><stop id="stop3379" offset="0" stop-color="#0019a3" stop-opacity="1"/><stop id="stop3381" offset="1" stop-color="#0069ff" stop-opacity="1"/></linearGradient><linearGradient id="linearGradient3383" x1="901.188" x2="1267.906" y1="1190.875" y2="1190.875" gradientTransform="matrix(-1,0,0,1,2199.356,0)" gradientUnits="userSpaceOnUse" xlink:href="#linearGradient3377"/><radialGradient id="radialGradient6355" cx="1103.64" cy="1424.447" r="194.406" fx="1103.64" fy="1424.447" gradientTransform="matrix(-1.4307499,-1.3605156e-7,-1.202713e-8,0.1264801,2674.7488,1244.2826)" gradientUnits="userSpaceOnUse" xlink:href="#linearGradient6349"/><linearGradient id="linearGradient3909" x1="43" x2="48" y1="22" y2="44" gradientUnits="userSpaceOnUse" xlink:href="#linearGradient3895"/><linearGradient id="linearGradient3895"><stop id="stop3897" offset="0" stop-color="#729fcf" stop-opacity="1"/><stop id="stop3899" offset="1" stop-color="#204a87" stop-opacity="1"/></linearGradient><linearGradient id="linearGradient3023" x1="53.195" x2="30.199" y1="30.717" y2="33.576" gradientTransform="matrix(0,-4.7685352,5.1148865,0,860.20335,1428.5537)" gradientUnits="userSpaceOnUse" xlink:href="#linearGradient3895"/><linearGradient id="linearGradient3023-8" x1="43" x2="48" y1="22" y2="44" gradientTransform="matrix(0,-7.3106737,7.3106737,0,1160.2086,1701.7691)" gradientUnits="userSpaceOnUse" xlink:href="#linearGradient3895-2"/><linearGradient id="linearGradient3895-2"><stop id="stop3897-4" offset="0" stop-color="#729fcf" stop-opacity="1"/><stop id="stop3899-5" offset="1" stop-color="#204a87" stop-opacity="1"/></linearGradient><linearGradient id="linearGradient3023-7" x1="43" x2="48" y1="22" y2="44" gradientTransform="matrix(0,-4.7685352,5.1148865,0,1320.7758,1575.9421)" gradientUnits="userSpaceOnUse" xlink:href="#linearGradient3895-1"/><linearGradient id="linearGradient3895-1"><stop id="stop3897-1" offset="0" stop-color="#729fcf" stop-opacity="1"/><stop id="stop3899-52" offset="1" stop-color="#204a87" stop-opacity="1"/></linearGradient><linearGradient id="linearGradient3140" x1="27.132" x2="50.129" y1="35.005" y2="29.288" gradientTransform="matrix(0,4.7685353,-5.1148865,0,1357.1998,1038.1977)" gradientUnits="userSpaceOnUse" xlink:href="#linearGradient3895-1"/></defs><g id="layer1"><g id="g3360" transform="matrix(0.1367863,0,0,0.1367863,-119.15519,-134.86962)"><path id="path3931-2" fill="none" stroke="#a40000" stroke-linecap="round" stroke-linejoin="round" stroke-opacity="1" stroke-width="43.864" d="m 907.65811,1329.5894 153.52409,-102.3494 160.8348,87.7281 -160.8348,102.3494 z"/><path id="path3951-3" fill="none" stroke="#a40000" stroke-dasharray="none" stroke-linecap="round" stroke-linejoin="round" stroke-miterlimit="4" stroke-opacity="1" stroke-width="6.733" d="m 102,18 c 0,5.522847 -7.611159,10 -17,10 -9.388841,0 -17,-4.477153 -17,-10 0,-5.522847 7.611159,-10 17,-10 9.388841,0 17,4.477153 17,10 z" transform="matrix(6.4505944,0,0,6.5796065,644.47383,1203.8458)"/><path id="path3951-4-2" fill="none" stroke="#ef2929" stroke-dasharray="none" stroke-linecap="round" stroke-linejoin="round" stroke-miterlimit="4" stroke-opacity="1" stroke-width="2.244" d="m 102,18 c 0,5.522847 -7.611159,10 -17,10 -9.388841,0 -17,-4.477153 -17,-10 0,-5.522847 7.611159,-10 17,-10 9.388841,0 17,4.477153 17,10 z" transform="matrix(6.4505944,0,0,6.5796065,644.47383,1203.8458)"/><path id="path3931-1-2" fill="none" stroke="#ef2929" stroke-linecap="round" stroke-linejoin="round" stroke-opacity="1" stroke-width="14.621" d="m 907.65812,1329.5895 153.52418,-102.3495 160.8348,87.7281 -160.8348,102.3494 z"/><path id="path3931" fill="none" stroke="#204a87" stroke-linecap="round" stroke-linejoin="round" stroke-opacity="1" stroke-width="43.864" d="m 907.65808,1124.8906 153.52412,-102.3494 160.8348,87.7281 -160.8348,102.3494 z"/><path id="path3951" fill="none" stroke="#204a87" stroke-dasharray="none" stroke-linecap="round" stroke-linejoin="round" stroke-miterlimit="4" stroke-opacity="1" stroke-width="6.733" d="m 102,18 c 0,5.522847 -7.611159,10 -17,10 -9.388841,0 -17,-4.477153 -17,-10 0,-5.522847 7.611159,-10 17,-10 9.388841,0 17,4.477153 17,10 z" transform="matrix(6.4505944,0,0,6.5796065,644.4738,999.14701)"/><path id="path3951-4" fill="none" stroke="#729fcf" stroke-dasharray="none" stroke-linecap="round" stroke-linejoin="round" stroke-miterlimit="4" stroke-opacity="1" stroke-width="2.244" d="m 102,18 c 0,5.522847 -7.611159,10 -17,10 -9.388841,0 -17,-4.477153 -17,-10 0,-5.522847 7.611159,-10 17,-10 9.388841,0 17,4.477153 17,10 z" transform="matrix(6.4505944,0,0,6.5796065,644.4738,999.14701)"/><path id="path3931-1" fill="none" stroke="#729fcf" stroke-linecap="round" stroke-linejoin="round" stroke-opacity="1" stroke-width="14.621" d="m 907.65809,1124.8907 153.52421,-102.3495 160.8348,87.7281 -160.8348,102.3494 z"/><path id="path3343" fill="url(#linearGradient3023)" fill-opacity="1" fill-rule="evenodd" stroke="#0b1521" stroke-dasharray="none" stroke-linecap="butt" stroke-linejoin="round" stroke-miterlimit="4" stroke-opacity="1" stroke-width="14.621" d="m 936.90075,1226.0651 51.1747,0 0,87.7281 73.10675,0 0,-87.7281 51.1747,0 -87.7281,-87.7281 z"/><path id="path3343-2" fill="none" stroke="#729fcf" stroke-dasharray="none" stroke-linecap="butt" stroke-linejoin="miter" stroke-miterlimit="4" stroke-opacity="1" stroke-width="14.621" d="m 973.19265,1211.2087 29.50415,0.235 0,87.7282 43.864,0 0,-87.7282 30.1826,0 -52.1146,-52.3496 z"/><path id="path3343-7" fill="url(#linearGradient3140)" fill-opacity="1" fill-rule="evenodd" stroke="#0b1521" stroke-dasharray="none" stroke-linecap="butt" stroke-linejoin="round" stroke-miterlimit="4" stroke-opacity="1" stroke-width="14.621" d="m 1280.5024,1240.6863 -51.1747,0 0,-87.7281 -73.1068,0 0,87.7281 -51.1747,0 87.7281,87.7282 z"/><path id="path3343-2-6" fill="none" stroke="#729fcf" stroke-dasharray="none" stroke-linecap="butt" stroke-linejoin="miter" stroke-miterlimit="4" stroke-opacity="1" stroke-width="14.621" d="m 1244.2105,1255.5427 -29.5042,-0.2349 0,-87.7282 -43.864,0 0,87.7282 -30.1826,0 52.1146,52.3496 z"/></g></g><metadata id="metadata4132"/></svg>