<svg xmlns="http://www.w3.org/2000/svg" xmlns:svg="http://www.w3.org/2000/svg" xmlns:xlink="http://www.w3.org/1999/xlink" id="svg2766" width="64" height="64" version="1.1"><defs id="defs2768"><linearGradient id="linearGradient3856"><stop id="stop3858" offset="0" stop-color="#3465a4" stop-opacity="1"/><stop id="stop3860" offset="1" stop-color="#729fcf" stop-opacity="1"/></linearGradient><linearGradient id="linearGradient3824"><stop id="stop3826" offset="0" stop-color="#729fcf" stop-opacity="1"/><stop id="stop3828" offset="1" stop-color="#204a87" stop-opacity="1"/></linearGradient><linearGradient id="linearGradient3787"><stop id="stop3789" offset="0" stop-color="#0619c0" stop-opacity="1"/><stop id="stop3791" offset="1" stop-color="#379cfb" stop-opacity="1"/></linearGradient><linearGradient id="linearGradient3864"><stop id="stop3866" offset="0" stop-color="#0619c0" stop-opacity="1"/><stop id="stop3868" offset="1" stop-color="#379cfb" stop-opacity="1"/></linearGradient><linearGradient id="linearGradient3036" x1="56.172" x2="21.69" y1="29.28" y2="36.08" gradientTransform="matrix(0,-1.4500001,1.4705882,0,-15.05882,91.45)" gradientUnits="userSpaceOnUse" xlink:href="#linearGradient3895"/><linearGradient id="linearGradient3895"><stop id="stop3897" offset="0" stop-color="#729fcf" stop-opacity="1"/><stop id="stop3899" offset="1" stop-color="#204a87" stop-opacity="1"/></linearGradient><linearGradient id="linearGradient3012" x1="44.058" x2="32.329" y1="18.866" y2="43.94" gradientTransform="matrix(0.38366341,-0.38366341,0.41875298,0.41875298,12.196434,25.003375)" gradientUnits="userSpaceOnUse" xlink:href="#linearGradient3895"/><linearGradient id="linearGradient3830" x1="591.591" x2="599.127" y1="103.195" y2="128.195" gradientTransform="translate(-0.9420628,1.000004)" gradientUnits="userSpaceOnUse" xlink:href="#linearGradient3824"/><linearGradient id="linearGradient3862" x1="613.258" x2="595.359" y1="135.195" y2="68.195" gradientUnits="userSpaceOnUse" xlink:href="#linearGradient3856"/></defs><g id="layer1"><g id="g3518" transform="matrix(1.0614931,0,0,1,-612.96941,-69.194602)"><path id="rect3446" fill="url(#linearGradient3862)" fill-opacity="1" fill-rule="nonzero" stroke="#204a87" stroke-dasharray="none" stroke-dashoffset="0" stroke-linecap="butt" stroke-linejoin="round" stroke-miterlimit="4" stroke-opacity="1" stroke-width="1.941" d="m 580.28581,72.194602 3e-5,14 5.65241,0 0,-8 1.88414,0 0,-6 z m 11.30486,0 0,6 7.53655,0 0,-6 z m 11.30483,0 0,6 7.53655,0 0,-6 z m 11.30483,0 0,6 7.53655,0 0,-6 z m 11.30483,0 0,6 3.76828,0 0,4 5.65241,0 0,-10 z m 3.76828,14 0,8 5.65241,0 0,-8 z m -48.9876,4 0,8 5.65241,0 0,-8 z m 48.9876,8 0,7.999998 5.65241,0 0,-7.999998 z m 0,11.999998 0,8 5.65241,0 0,-8 z m 0,12 0,2 -3.76828,0 0,6 9.42069,0 0,-8 z m -18.84139,2 0,6 11.30483,0 0,-6 z" display="inline" enable-background="accumulate" overflow="visible" visibility="visible" style="marker:none"/><path id="path3018" fill="none" stroke="#0b1521" stroke-linecap="round" stroke-linejoin="round" stroke-opacity="1" stroke-width="7.765" d="m 583.11204,105.1946 0,22 20.72553,0 0,-22 z"/><path id="path3018-1" fill="none" stroke="url(#linearGradient3830)" stroke-linecap="round" stroke-linejoin="round" stroke-opacity="1" stroke-width="3.882" d="m 583.11204,105.1946 0,19.93618 0,2.06382 20.72553,0 0,-22 z"/><path id="path3018-1-7" fill="none" stroke="#729fcf" stroke-linecap="round" stroke-linejoin="round" stroke-opacity="1" stroke-width="1.941" d="m 586.88032,126.1946 16.01518,0 0,-17 m 1.88413,-5 -22.60966,0 0,24"/><path id="path3832" fill="none" stroke="#729fcf" stroke-linecap="butt" stroke-linejoin="miter" stroke-opacity="1" stroke-width="2" d="m 36,57 10,0" transform="matrix(0.94206924,0,0,1,577.45963,69.194602)"/><path id="path3834" fill="none" stroke="#729fcf" stroke-linecap="butt" stroke-linejoin="round" stroke-opacity="1" stroke-width="2" d="m 52,57 5,0 0,-2 3,0" transform="matrix(0.94206924,0,0,1,577.45963,69.194602)"/><path id="path3836" fill="none" stroke="#729fcf" stroke-linecap="butt" stroke-linejoin="miter" stroke-opacity="1" stroke-width="2" d="m 57,48 0,-6" transform="matrix(0.94206924,0,0,1,577.45963,69.194602)"/><path id="path3838" fill="none" stroke="#729fcf" stroke-linecap="butt" stroke-linejoin="miter" stroke-opacity="1" stroke-width="2" d="m 57,36 0,-6" transform="matrix(0.94206924,0,0,1,577.45963,69.194602)"/><path id="path3840" fill="none" stroke="#729fcf" stroke-linecap="butt" stroke-linejoin="miter" stroke-opacity="1" stroke-width="2" d="m 57,24 0,-6" transform="matrix(0.94206924,0,0,1,577.45963,69.194602)"/><path id="path3842" fill="none" stroke="#729fcf" stroke-linecap="butt" stroke-linejoin="miter" stroke-opacity="1" stroke-width="2" d="m 53,8 0,-3 7,0" transform="matrix(0.94206924,0,0,1,577.45963,69.194602)"/><path id="path3844" fill="none" stroke="#729fcf" stroke-linecap="butt" stroke-linejoin="miter" stroke-opacity="1" stroke-width="2" d="M 46,5 40,5" transform="matrix(0.94206924,0,0,1,577.45963,69.194602)"/><path id="path3846" fill="none" stroke="#729fcf" stroke-linecap="butt" stroke-linejoin="miter" stroke-opacity="1" stroke-width="2" d="M 34,5 28,5" transform="matrix(0.94206924,0,0,1,577.45963,69.194602)"/><path id="path3848" fill="none" stroke="#729fcf" stroke-linecap="butt" stroke-linejoin="miter" stroke-opacity="1" stroke-width="2" d="M 22,5 16,5" transform="matrix(0.94206924,0,0,1,577.45963,69.194602)"/><path id="path3850" fill="none" stroke="#729fcf" stroke-linecap="butt" stroke-linejoin="miter" stroke-opacity="1" stroke-width="2" d="M 10,5 5,5 5,16" transform="matrix(0.94206924,0,0,1,577.45963,69.194602)"/><path id="path3852" fill="none" stroke="#729fcf" stroke-linecap="butt" stroke-linejoin="miter" stroke-opacity="1" stroke-width="2" d="m 5,22 0,6" transform="matrix(0.94206924,0,0,1,577.45963,69.194602)"/><path id="path3854" fill="none" stroke="#729fcf" stroke-linecap="butt" stroke-linejoin="miter" stroke-opacity="1" stroke-width="2" d="M 57,12 57,9" transform="matrix(0.94206924,0,0,1,577.45963,69.194602)"/></g><path id="path3343" fill="url(#linearGradient3012)" fill-opacity="1" fill-rule="evenodd" stroke="#0b1521" stroke-dasharray="none" stroke-linecap="butt" stroke-linejoin="round" stroke-miterlimit="4" stroke-opacity="1" stroke-width="2" d="M 35,15 39.062816,19.37832 31,27 l 6,6 7.71967,-7.964826 4.24264,4.242641 L 49,15 z"/><path id="path3343-2" fill="none" stroke="#729fcf" stroke-dasharray="none" stroke-linecap="butt" stroke-linejoin="miter" stroke-miterlimit="4" stroke-opacity="1" stroke-width="2" d="m 39.550023,17 2.32515,2.37832 -7.987667,7.653821 3.080353,3.112494 7.751811,-7.937888 2.221642,2.240472 L 47.000002,17 z"/></g><metadata id="metadata5370"/></svg>