<svg xmlns="http://www.w3.org/2000/svg" xmlns:svg="http://www.w3.org/2000/svg" xmlns:xlink="http://www.w3.org/1999/xlink" id="svg3612" width="64" height="64" version="1.1"><defs id="defs3614"><linearGradient id="linearGradient3814"><stop id="stop3816" offset="0" stop-color="#4e9a06" stop-opacity="1"/><stop id="stop3818" offset="1" stop-color="#8ae234" stop-opacity="1"/></linearGradient><linearGradient id="linearGradient3144-6"><stop id="stop3146-9" offset="0" stop-color="#fff" stop-opacity="1"/><stop id="stop3148-2" offset="1" stop-color="#fff" stop-opacity="0"/></linearGradient><linearGradient id="linearGradient3701"><stop id="stop3703" offset="0" stop-color="#fff" stop-opacity="1"/><stop id="stop3705" offset="1" stop-color="#fff" stop-opacity="0"/></linearGradient><radialGradient id="radialGradient3688" cx="225.264" cy="672.797" r="34.345" fx="225.264" fy="672.797" gradientTransform="matrix(1,0,0,0.6985294,0,202.82863)" gradientUnits="userSpaceOnUse" xlink:href="#linearGradient3144-6"/><linearGradient id="linearGradient3708"><stop id="stop3710" offset="0" stop-color="#fff" stop-opacity="1"/><stop id="stop3712" offset="1" stop-color="#fff" stop-opacity="0"/></linearGradient><linearGradient id="linearGradient3864-0-0"><stop id="stop3866-5-7" offset="0" stop-color="#0619c0" stop-opacity="1"/><stop id="stop3868-7-6" offset="1" stop-color="#379cfb" stop-opacity="1"/></linearGradient><linearGradient id="linearGradient3377"><stop id="stop3379" offset="0" stop-color="#fa0" stop-opacity="1"/><stop id="stop3381" offset="1" stop-color="#faff2b" stop-opacity="1"/></linearGradient><linearGradient id="linearGradient3864-0"><stop id="stop3866-5" offset="0" stop-color="#0619c0" stop-opacity="1"/><stop id="stop3868-7" offset="1" stop-color="#379cfb" stop-opacity="1"/></linearGradient><linearGradient id="linearGradient5048"><stop id="stop5050" offset="0" stop-color="#000" stop-opacity="0"/><stop id="stop5056" offset=".5" stop-color="#000" stop-opacity="1"/><stop id="stop5052" offset="1" stop-color="#000" stop-opacity="0"/></linearGradient><linearGradient id="linearGradient3841-0-3"><stop id="stop3843-1-3" offset="0" stop-color="#0619c0" stop-opacity="1"/><stop id="stop3845-0-8" offset="1" stop-color="#379cfb" stop-opacity="1"/></linearGradient><radialGradient id="aigrd2" cx="20.892" cy="114.568" r="5.256" fx="20.892" fy="114.568" gradientUnits="userSpaceOnUse"><stop id="stop15566" offset="0" stop-color="#F0F0F0"/><stop id="stop15568" offset="1" stop-color="#9a9a9a" stop-opacity="1"/></radialGradient><radialGradient id="aigrd3" cx="20.892" cy="64.568" r="5.257" fx="20.892" fy="64.568" gradientUnits="userSpaceOnUse"><stop id="stop15573" offset="0" stop-color="#F0F0F0"/><stop id="stop15575" offset="1" stop-color="#9a9a9a" stop-opacity="1"/></radialGradient><linearGradient id="linearGradient15662"><stop id="stop15664" offset="0" stop-color="#fff" stop-opacity="1"/><stop id="stop15666" offset="1" stop-color="#f8f8f8" stop-opacity="1"/></linearGradient><radialGradient id="radialGradient4452" cx="33.967" cy="35.737" r="86.708" fx="33.967" fy="35.737" gradientTransform="matrix(0.96049297,0,0,1.041132,-52.144249,-702.33158)" gradientUnits="userSpaceOnUse" xlink:href="#linearGradient259"/><linearGradient id="linearGradient259"><stop id="stop260" offset="0" stop-color="#fafafa" stop-opacity="1"/><stop id="stop261" offset="1" stop-color="#bbb" stop-opacity="1"/></linearGradient><radialGradient id="radialGradient4454" cx="8.824" cy="3.756" r="37.752" fx="8.824" fy="3.756" gradientTransform="matrix(0.96827297,0,0,1.032767,-48.790699,-701.68513)" gradientUnits="userSpaceOnUse" xlink:href="#linearGradient269"/><linearGradient id="linearGradient269"><stop id="stop270" offset="0" stop-color="#a3a3a3" stop-opacity="1"/><stop id="stop271" offset="1" stop-color="#4c4c4c" stop-opacity="1"/></linearGradient><linearGradient id="linearGradient4095"><stop id="stop4097" offset="0" stop-color="#005bff" stop-opacity="1"/><stop id="stop4099" offset="1" stop-color="#c1e3f7" stop-opacity="1"/></linearGradient><linearGradient id="linearGradient4253" x1="394.158" x2="434.739" y1="185.13" y2="140.227" gradientTransform="matrix(0.94231826,0,0,0.94231826,23.727549,8.8262536)" gradientUnits="userSpaceOnUse" xlink:href="#linearGradient4247"/><linearGradient id="linearGradient4247"><stop id="stop4249" offset="0" stop-color="#2e8207" stop-opacity="1"/><stop id="stop4251" offset="1" stop-color="#52ff00" stop-opacity="1"/></linearGradient><linearGradient id="linearGradient5087" x1="416.495" x2="408.874" y1="187.257" y2="140.564" gradientTransform="matrix(0.94231826,0,0,0.94231826,23.727549,8.8262536)" gradientUnits="userSpaceOnUse" xlink:href="#linearGradient3814"/><linearGradient id="linearGradient5087-1" x1="424.985" x2="399.516" y1="186.582" y2="135.644" gradientTransform="matrix(0.94231826,0,0,0.94231826,23.727549,8.8262536)" gradientUnits="userSpaceOnUse" xlink:href="#linearGradient3814-7"/><linearGradient id="linearGradient3814-7"><stop id="stop3816-4" offset="0" stop-color="#4e9a06" stop-opacity="1"/><stop id="stop3818-0" offset="1" stop-color="#8ae234" stop-opacity="1"/></linearGradient></defs><g id="layer1"><g id="g4293" transform="translate(-384.19864,-132.64563)"><path id="path3464" fill="url(#linearGradient5087)" fill-opacity="1" stroke="#154b00" stroke-dasharray="none" stroke-linecap="round" stroke-linejoin="round" stroke-miterlimit="4" stroke-opacity="1" stroke-width="2" d="m 413.19864,187.64563 c -2,0 -2,-3 -2,-6 0,-5 0,-12.3466 0,-18 -3,-1 -7,0 -10,-4 -3,-4 -2.91333,-15.06859 -1,-20 1.91333,-4.93141 5,-3 6,0 1,3 2,5 4,0 2,-5 6,-5 8,0 2,5 3,3 4,0 1,-3 4,-5 6,0 2,5 2,16 -1,20 -3,4 -7,3 -10,4 0,4 0,9 0,12 0,3 1.58716,3.47898 4.79358,-0.26051 3.20642,-3.73949 10.20642,-10.73949 16.15617,-15.63645 0.0503,5.89696 2.05025,11.89696 -0.70226,18.0314 -2.75251,6.13444 -15.24749,9.86556 -24.24749,9.86556 z m -24,-10 c -2,-6 -1.25901,-12.80532 -0.9387,-18.6331 5.68341,1.92851 14.47111,12.14309 18.9387,16.6331 0.0613,3.3669 0,8 0,12 -7.13975,0.0454 -16,-4 -18,-10 z"/><path id="path3464-9" fill="none" stroke="#8ae234" stroke-dasharray="none" stroke-linecap="round" stroke-linejoin="miter" stroke-miterlimit="4" stroke-opacity="1" stroke-width="2" d="m 414.585,185.6229 c -1.86363,0.13637 -1.11363,0.70455 -1.43181,-5.43182 0,-5 0.0227,-12.36932 0.0227,-18.02272 -3,-1 -8.88636,-1.06818 -10.56818,-3.93182 -1.68182,-2.86364 -2.82242,-11.52314 -0.90909,-16.45455 1.91333,-4.93141 2.19789,-1.96234 3.59091,0.90909 1.39302,2.87144 4.7461,2.98898 6.58539,-1.78604 1.8393,-4.77501 2.86364,-4.06381 4.96006,0.69514 2.09643,4.75894 5.54451,3.43666 6.81771,0.003 1.2732,-3.4339 1.81314,-4.52387 3.22223,0.88522 1.40909,5.4091 0.61431,12.64834 -1.61296,16.51198 -2.22728,3.86364 -7.04061,2.07732 -10.04061,3.07732 0,4 0.008,11.72136 -0.0147,14.22136 -0.0227,2.5 2.86044,6.0348 6.86231,1.86349 4.00188,-4.17131 8.30848,-9.30255 14.25823,-14.19951 0.62884,5.7684 1.08601,9.83992 -1.24866,13.98161 -2.33468,4.14168 -12.7792,7.16424 -20.49355,7.6785 z m -23.84091,-9.93182 c -1.50021,-6.34153 -0.6834,-8.97396 -0.5909,-13.40909 3.86523,2.15578 10.57786,9.64636 15.04545,14.13637 0.0613,3.3669 0.0455,5.13637 0.0455,9.13637 -5.54884,-0.63642 -13.09069,-3.70394 -14.5,-9.86365 z"/></g></g><metadata id="metadata4894"/></svg>