<svg xmlns="http://www.w3.org/2000/svg" xmlns:svg="http://www.w3.org/2000/svg" xmlns:xlink="http://www.w3.org/1999/xlink" id="svg3611" width="64" height="64" version="1.1"><defs id="defs3613"><linearGradient id="linearGradient3825"><stop id="stop3827" offset="0" stop-color="#34e0e2" stop-opacity="1"/><stop id="stop3829" offset="1" stop-color="#34e0e2" stop-opacity="0"/></linearGradient><linearGradient id="linearGradient3817"><stop id="stop3819" offset="0" stop-color="#06989a" stop-opacity="1"/><stop id="stop3821" offset="1" stop-color="#06989a" stop-opacity="0"/></linearGradient><linearGradient id="linearGradient4125" x1="657.429" x2="696.532" y1="92.117" y2="92.117" gradientUnits="userSpaceOnUse" xlink:href="#linearGradient4292"/><linearGradient id="linearGradient4292"><stop id="stop4294" offset="0" stop-color="#62d9c5" stop-opacity="1"/><stop id="stop4296" offset="1" stop-color="#fff" stop-opacity="1"/></linearGradient><linearGradient id="linearGradient4127" x1="651.694" x2="677.377" y1="108.379" y2="108.379" gradientTransform="matrix(0.99534433,0.09638295,-0.09638295,0.99534433,12.979471,-62.75841)" gradientUnits="userSpaceOnUse" xlink:href="#linearGradient4300"/><linearGradient id="linearGradient4300"><stop id="stop4302" offset="0" stop-color="#dd4100" stop-opacity="1"/><stop id="stop4304" offset="1" stop-color="#a80101" stop-opacity="1"/></linearGradient><linearGradient id="linearGradient3609" x1="651.694" x2="677.377" y1="108.379" y2="108.379" gradientTransform="matrix(0.99534433,0.09638295,-0.09638295,0.99534433,12.979471,-62.75841)" gradientUnits="userSpaceOnUse" xlink:href="#linearGradient4300"/><linearGradient id="linearGradient3001-0" x1="657.429" x2="696.532" y1="92.117" y2="92.117" gradientTransform="matrix(0.93342445,0.4455918,-0.45023909,0.92378981,-552.52671,-364.08327)" gradientUnits="userSpaceOnUse" xlink:href="#linearGradient4292-4"/><linearGradient id="linearGradient4292-4"><stop id="stop4294-4" offset="0" stop-color="#62d9c5" stop-opacity="1"/><stop id="stop4296-4" offset="1" stop-color="#fff" stop-opacity="1"/></linearGradient><linearGradient id="linearGradient3807" x1="657.429" x2="696.532" y1="92.117" y2="92.117" gradientTransform="matrix(0.93342445,0.4455918,-0.45023909,0.92378981,-527.86118,-368.62645)" gradientUnits="userSpaceOnUse" xlink:href="#linearGradient4292-4"/><linearGradient id="linearGradient3823" x1="17" x2="15" y1="37" y2="32" gradientUnits="userSpaceOnUse" xlink:href="#linearGradient3817"/><linearGradient id="linearGradient3831" x1="40" x2="47" y1="21" y2="38" gradientUnits="userSpaceOnUse" xlink:href="#linearGradient3825"/></defs><g id="layer1"><path id="path3498" fill="#06989a" fill-opacity="1" stroke="#042a2a" stroke-dasharray="none" stroke-linecap="butt" stroke-linejoin="round" stroke-miterlimit="4" stroke-opacity="1" stroke-width="2" d="M 59.662253,17.123968 C 54.202538,10.619145 19,23 19,23 l 20,22 c 0,0 27.92132,-19.227416 20.662253,-27.876032 z"/><path id="path3498-3" fill="url(#linearGradient3831)" fill-opacity="1" stroke="#34e0e2" stroke-dasharray="none" stroke-linecap="butt" stroke-linejoin="miter" stroke-miterlimit="4" stroke-opacity="1" stroke-width="2" d="M 58,18 C 54.434171,13.753987 22.586852,23.947813 22.586852,23.947813 L 39.287029,42.334868 C 39.287029,42.334868 63.5322,24.58747 58,18 z"/><rect id="rect3772" width="3" height="8" x="30" y="25" fill="#16d0d2" fill-opacity="1" fill-rule="nonzero" stroke="#042a2a" stroke-dasharray="none" stroke-dashoffset="0" stroke-linecap="butt" stroke-linejoin="round" stroke-miterlimit="4" stroke-opacity="1" stroke-width="2" color="#000" display="inline" enable-background="accumulate" overflow="visible" visibility="visible" style="marker:none"/><path id="path3500" fill="#34e0e2" fill-opacity="1" stroke="#042a2a" stroke-dasharray="none" stroke-linecap="butt" stroke-linejoin="round" stroke-miterlimit="4" stroke-opacity="1" stroke-width="2" d="m 33,25 c -3,-1 -20,4 -24,6 -4,2 -6,5 -6,8 0,3 4,4 10,2 6,-2 20,-11 20,-16 z"/><path id="path3500-6" fill="url(#linearGradient3823)" fill-opacity="1" stroke="#34e0e2" stroke-dasharray="none" stroke-linecap="butt" stroke-linejoin="miter" stroke-miterlimit="4" stroke-opacity="1" stroke-width="2" d="m 29.98637,26.883398 c -4.889547,0.05412 -16.07494,4.168831 -19.314168,5.536675 -3.2392271,1.367845 -5.7198849,4.18225 -5.7198849,6.234016 0,2.051766 3.2515281,1.923846 7.8889579,0.285389 4.637429,-1.638458 15.312301,-8.882481 17.145095,-12.05608 z"/></g><metadata id="metadata3867"/></svg>