<svg xmlns="http://www.w3.org/2000/svg" xmlns:svg="http://www.w3.org/2000/svg" xmlns:xlink="http://www.w3.org/1999/xlink" id="svg3612" width="64" height="64" version="1.1"><defs id="defs3614"><linearGradient id="linearGradient3144-6"><stop id="stop3146-9" offset="0" stop-color="#fff" stop-opacity="1"/><stop id="stop3148-2" offset="1" stop-color="#fff" stop-opacity="0"/></linearGradient><linearGradient id="linearGradient3701"><stop id="stop3703" offset="0" stop-color="#fff" stop-opacity="1"/><stop id="stop3705" offset="1" stop-color="#fff" stop-opacity="0"/></linearGradient><radialGradient id="radialGradient3688" cx="225.264" cy="672.797" r="34.345" fx="225.264" fy="672.797" gradientTransform="matrix(1,0,0,0.6985294,0,202.82863)" gradientUnits="userSpaceOnUse" xlink:href="#linearGradient3144-6"/><linearGradient id="linearGradient3708"><stop id="stop3710" offset="0" stop-color="#fff" stop-opacity="1"/><stop id="stop3712" offset="1" stop-color="#fff" stop-opacity="0"/></linearGradient><linearGradient id="linearGradient3934" x1="696.673" x2="654.8" y1="77.046" y2="115.02" gradientTransform="matrix(0.2210246,-0.5789261,-0.71699693,-0.35346705,519.98085,464.19243)" gradientUnits="userSpaceOnUse" xlink:href="#linearGradient3864-0-0"/><linearGradient id="linearGradient3864-0-0"><stop id="stop3866-5-7" offset="0" stop-color="#0619c0" stop-opacity="1"/><stop id="stop3868-7-6" offset="1" stop-color="#379cfb" stop-opacity="1"/></linearGradient><linearGradient id="linearGradient3942" x1="597.773" x2="619.303" y1="44.024" y2="30.274" gradientUnits="userSpaceOnUse" xlink:href="#linearGradient3377"/><linearGradient id="linearGradient3377"><stop id="stop3379" offset="0" stop-color="#fa0" stop-opacity="1"/><stop id="stop3381" offset="1" stop-color="#faff2b" stop-opacity="1"/></linearGradient><linearGradient id="linearGradient3657" x1="696.673" x2="650.705" y1="77.046" y2="139.41" gradientTransform="matrix(0.2210246,-0.5789261,-0.71699693,-0.35346705,536.41251,472.3612)" gradientUnits="userSpaceOnUse" xlink:href="#linearGradient3864-0"/><linearGradient id="linearGradient3864-0"><stop id="stop3866-5" offset="0" stop-color="#0619c0" stop-opacity="1"/><stop id="stop3868-7" offset="1" stop-color="#379cfb" stop-opacity="1"/></linearGradient><linearGradient id="linearGradient5048"><stop id="stop5050" offset="0" stop-color="#000" stop-opacity="0"/><stop id="stop5056" offset=".5" stop-color="#000" stop-opacity="1"/><stop id="stop5052" offset="1" stop-color="#000" stop-opacity="0"/></linearGradient><linearGradient id="linearGradient5060"><stop id="stop5062" offset="0" stop-color="#000" stop-opacity="1"/><stop id="stop5064" offset="1" stop-color="#000" stop-opacity="0"/></linearGradient><linearGradient id="linearGradient3841-0-3"><stop id="stop3843-1-3" offset="0" stop-color="#0619c0" stop-opacity="1"/><stop id="stop3845-0-8" offset="1" stop-color="#379cfb" stop-opacity="1"/></linearGradient><radialGradient id="radialGradient2283" cx="20.892" cy="114.568" r="5.256" fx="20.892" fy="114.568" gradientTransform="matrix(0.229703,0,0,0.229703,4.613529,3.979808)" gradientUnits="userSpaceOnUse" xlink:href="#aigrd2"/><radialGradient id="aigrd2" cx="20.892" cy="114.568" r="5.256" fx="20.892" fy="114.568" gradientUnits="userSpaceOnUse"><stop id="stop15566" offset="0" stop-color="#F0F0F0"/><stop id="stop15568" offset="1" stop-color="#9a9a9a" stop-opacity="1"/></radialGradient><radialGradient id="radialGradient2285" cx="20.892" cy="64.568" r="5.257" fx="20.892" fy="64.568" gradientTransform="matrix(0.229703,0,0,0.229703,4.613529,3.979808)" gradientUnits="userSpaceOnUse" xlink:href="#aigrd3"/><radialGradient id="aigrd3" cx="20.892" cy="64.568" r="5.257" fx="20.892" fy="64.568" gradientUnits="userSpaceOnUse"><stop id="stop15573" offset="0" stop-color="#F0F0F0"/><stop id="stop15575" offset="1" stop-color="#9a9a9a" stop-opacity="1"/></radialGradient><radialGradient id="radialGradient15668" cx="8.144" cy="7.268" r="38.159" fx="8.144" fy="7.268" gradientTransform="matrix(0.93578701,0,0,0.95695492,14.882422,-58.630722)" gradientUnits="userSpaceOnUse" xlink:href="#linearGradient15662"/><linearGradient id="linearGradient15662"><stop id="stop15664" offset="0" stop-color="#fff" stop-opacity="1"/><stop id="stop15666" offset="1" stop-color="#f8f8f8" stop-opacity="1"/></linearGradient><radialGradient id="radialGradient4452" cx="33.967" cy="35.737" r="86.708" fx="33.967" fy="35.737" gradientTransform="matrix(0.96049297,0,0,1.041132,-52.144249,-702.33158)" gradientUnits="userSpaceOnUse" xlink:href="#linearGradient259"/><linearGradient id="linearGradient259"><stop id="stop260" offset="0" stop-color="#fafafa" stop-opacity="1"/><stop id="stop261" offset="1" stop-color="#bbb" stop-opacity="1"/></linearGradient><radialGradient id="radialGradient4454" cx="8.824" cy="3.756" r="37.752" fx="8.824" fy="3.756" gradientTransform="matrix(0.96827297,0,0,1.032767,-48.790699,-701.68513)" gradientUnits="userSpaceOnUse" xlink:href="#linearGradient269"/><linearGradient id="linearGradient269"><stop id="stop270" offset="0" stop-color="#a3a3a3" stop-opacity="1"/><stop id="stop271" offset="1" stop-color="#4c4c4c" stop-opacity="1"/></linearGradient><radialGradient id="radialGradient3972" cx="3.775" cy="43.718" r="86.708" fx="3.775" fy="43.718" gradientTransform="matrix(0.9839807,0,0,1.0179698,10.292146,-60.498192)" gradientUnits="userSpaceOnUse" xlink:href="#linearGradient259"/><radialGradient id="radialGradient3974" cx=".281" cy="43.446" r="37.752" fx=".281" fy="43.446" gradientTransform="matrix(0.99195094,0,0,1.009791,13.727702,-59.866123)" gradientUnits="userSpaceOnUse" xlink:href="#linearGradient269"/><linearGradient id="linearGradient3909" x1="43" x2="48" y1="22" y2="44" gradientUnits="userSpaceOnUse" xlink:href="#linearGradient3895"/><linearGradient id="linearGradient3895"><stop id="stop3897" offset="0" stop-color="#729fcf" stop-opacity="1"/><stop id="stop3899" offset="1" stop-color="#204a87" stop-opacity="1"/></linearGradient><linearGradient id="linearGradient3023" x1="43" x2="48" y1="22" y2="44" gradientTransform="translate(-27,-6)" gradientUnits="userSpaceOnUse" xlink:href="#linearGradient3895"/><linearGradient id="linearGradient3092" x1="302.857" x2="302.857" y1="366.648" y2="609.505" gradientTransform="matrix(2.774389,0,0,1.969706,-1892.179,-872.8854)" gradientUnits="userSpaceOnUse" xlink:href="#linearGradient5048"/><radialGradient id="radialGradient3094" cx="605.714" cy="486.648" r="117.143" fx="605.714" fy="486.648" gradientTransform="matrix(2.774389,0,0,1.969706,-1891.633,-872.8854)" gradientUnits="userSpaceOnUse" xlink:href="#linearGradient5060"/><radialGradient id="radialGradient3096" cx="605.714" cy="486.648" r="117.143" fx="605.714" fy="486.648" gradientTransform="matrix(-2.774389,0,0,1.969706,112.7623,-872.8854)" gradientUnits="userSpaceOnUse" xlink:href="#linearGradient5060"/></defs><g id="layer1"><rect stroke-linejoin="round" style="marker:none" id="rect15391" width="35.728" height="40.01" x="17.057" y="-56.932" fill="url(#radialGradient3972)" fill-opacity="1" fill-rule="nonzero" stroke="url(#radialGradient3974)" stroke-dasharray="none" stroke-dashoffset="0" stroke-linecap="round" stroke-miterlimit="4" stroke-opacity="1" stroke-width="2" color="#000" display="block" overflow="visible" rx="1.177" ry="1.123" transform="matrix(3.5736813e-4,0.99999994,-0.99999992,3.9232174e-4,0,0)" visibility="visible"/><rect id="rect15660" width="31.676" height="36.087" x="19.05" y="-54.982" fill="none" stroke="url(#radialGradient15668)" stroke-dashoffset="0" stroke-linecap="round" stroke-linejoin="miter" stroke-miterlimit="4" stroke-opacity="1" stroke-width="2" color="#000" display="block" overflow="visible" rx=".144" ry=".138" transform="matrix(3.5899548e-4,0.99999994,-0.99999992,3.9054332e-4,0,0)" visibility="visible" style="marker:none"/><g id="g2270" stroke-width="2.02" display="inline" transform="matrix(3.6610713e-4,1.0244539,-0.97775283,3.8359374e-4,60.539218,10.930654)"><g id="g1440" fill="#fff" fill-opacity="1" fill-rule="nonzero" stroke="#000" stroke-miterlimit="4" stroke-width="8.7" transform="matrix(0.229703,0,0,0.229703,4.967081,4.244972)"><radialGradient id="radialGradient1442" cx="20.892" cy="114.568" r="5.256" fx="20.892" fy="114.568" gradientUnits="userSpaceOnUse"><stop id="stop1444" offset="0" stop-color="#F0F0F0"/><stop id="stop1446" offset="1" stop-color="#474747"/></radialGradient><path id="path1448" stroke="none" d="m 23.428,113.07 c 0,1.973 -1.6,3.572 -3.573,3.572 -1.974,0 -3.573,-1.6 -3.573,-3.572 0,-1.974 1.6,-3.573 3.573,-3.573 1.973,0 3.573,1.6 3.573,3.573 z"/><radialGradient id="radialGradient1450" cx="20.892" cy="64.568" r="5.257" fx="20.892" fy="64.568" gradientUnits="userSpaceOnUse"><stop id="stop1452" offset="0" stop-color="#F0F0F0"/><stop id="stop1454" offset="1" stop-color="#474747"/></radialGradient><path id="path1456" stroke="none" d="m 23.428,63.07 c 0,1.973 -1.6,3.573 -3.573,3.573 -1.974,0 -3.573,-1.6 -3.573,-3.573 0,-1.974 1.6,-3.573 3.573,-3.573 1.973,0 3.573,1.6 3.573,3.573 z"/></g><path id="path15570" fill="url(#radialGradient2283)" fill-rule="nonzero" stroke="none" d="m 9.9950109,29.952326 c 0,0.453204 -0.3675248,0.820499 -0.8207288,0.820499 -0.4534338,0 -0.8207289,-0.367524 -0.8207289,-0.820499 0,-0.453434 0.3675248,-0.820729 0.8207289,-0.820729 0.453204,0 0.8207288,0.367525 0.8207288,0.820729 z"/><path id="path15577" fill="url(#radialGradient2285)" fill-rule="nonzero" stroke="none" d="m 9.9950109,18.467176 c 0,0.453204 -0.3675248,0.820729 -0.8207288,0.820729 -0.4534338,0 -0.8207289,-0.367525 -0.8207289,-0.820729 0,-0.453434 0.3675248,-0.820729 0.8207289,-0.820729 0.453204,0 0.8207288,0.367525 0.8207288,0.820729 z"/></g><path id="path15672" fill="none" stroke="#000" stroke-linecap="butt" stroke-linejoin="miter" stroke-miterlimit="4" stroke-opacity=".018" stroke-width="2" d="m 55.134004,22.057604 -37.063279,0.01454" display="inline"/><path id="path4012" fill="none" stroke="#2e3436" stroke-dasharray="none" stroke-linecap="butt" stroke-linejoin="round" stroke-miterlimit="4" stroke-opacity="1" stroke-width="2" d="m 52.524227,25.481953 c 0,0 0,7.218203 0,10.517728 0,3.299525 0,9.279423 0,9.279423 0,0 -5.2823,0 -8.11927,0 -2.83698,0 -8.902579,0 -8.902579,0 0,0 5.371499,-6.247282 8.208469,-9.546808 2.83698,-3.299525 8.81338,-10.250343 8.81338,-10.250343 z"/><path id="path15674" fill="none" stroke="#fff" stroke-linecap="butt" stroke-linejoin="miter" stroke-miterlimit="4" stroke-opacity=".205" stroke-width="2" d="M 55.597596,23.076014 18.42567,23.090595" display="inline"/><path id="path4014" fill="none" stroke="#204a87" stroke-dasharray="none" stroke-dashoffset="0" stroke-linecap="butt" stroke-linejoin="round" stroke-miterlimit="4" stroke-opacity="1" stroke-width="2.934" d="m 673.51919,30.587521 a 8.8388348,8.8388348 0 1 1 -17.67767,0 8.8388348,8.8388348 0 1 1 17.67767,0 z" color="#000" display="inline" enable-background="accumulate" overflow="visible" transform="matrix(0.68171292,0,0,0.68171292,-411.28568,14.442144)" visibility="visible" style="marker:none"/><g id="g5022" stroke-width="112.626" display="inline" transform="matrix(0.02116984,0,0,0.01522076,55.649294,54.012912)"><rect id="rect4173" width="1339.633" height="478.357" x="-1559.252" y="-150.697" fill="url(#linearGradient3092)" fill-opacity="1" fill-rule="nonzero" stroke="none" stroke-width="112.626" color="#000" display="inline" opacity=".402" overflow="visible" visibility="visible" style="marker:none"/><path d="m -219.61876,-150.68038 c 0,0 0,478.33079 0,478.33079 142.874166,0.90045 345.40022,-107.16966 345.40014,-239.196175 0,-132.026537 -159.436816,-239.134595 -345.40014,-239.134615 z" style="marker:none" id="path5058" fill="url(#radialGradient3094)" fill-opacity="1" fill-rule="nonzero" stroke="none" stroke-width="112.626" color="#000" display="inline" opacity=".402" overflow="visible" visibility="visible"/><path id="path5018" fill="url(#radialGradient3096)" fill-opacity="1" fill-rule="nonzero" stroke="none" stroke-width="112.626" d="m -1559.2523,-150.68038 c 0,0 0,478.33079 0,478.33079 -142.8742,0.90045 -345.4002,-107.16966 -345.4002,-239.196175 0,-132.026537 159.4368,-239.134595 345.4002,-239.134615 z" color="#000" display="inline" opacity=".402" overflow="visible" visibility="visible" style="marker:none"/></g><path id="path3343" fill="url(#linearGradient3023)" fill-opacity="1" fill-rule="evenodd" stroke="#0b1521" stroke-dasharray="none" stroke-linecap="butt" stroke-linejoin="round" stroke-miterlimit="4" stroke-opacity="1" stroke-width="2" d="m 20,9 0,10 -17,0 0,14 17,0 0,10 18,-17 z"/><path id="path3343-2" fill="none" stroke="#729fcf" stroke-dasharray="none" stroke-linecap="butt" stroke-linejoin="miter" stroke-miterlimit="4" stroke-opacity="1" stroke-width="2" d="M 22.006611,13.642998 22,21 5,21 5,31 22,31 21.9934,38.357002 35,26 z"/></g><metadata id="metadata4251"/></svg>