<svg xmlns="http://www.w3.org/2000/svg" xmlns:svg="http://www.w3.org/2000/svg" xmlns:xlink="http://www.w3.org/1999/xlink" id="svg2726" width="64" height="64" version="1.1"><defs id="defs2728"><linearGradient id="linearGradient3144"><stop id="stop3146" offset="0" stop-color="#fff" stop-opacity="1"/><stop id="stop3148" offset="1" stop-color="#fff" stop-opacity="0"/></linearGradient><radialGradient id="radialGradient3850" cx="225.264" cy="672.797" r="34.345" fx="225.264" fy="672.797" gradientTransform="matrix(1,0,0,0.6985294,0,202.82863)" gradientUnits="userSpaceOnUse" xlink:href="#linearGradient3144"/><radialGradient id="radialGradient3850-2" cx="225.264" cy="672.797" r="34.345" fx="225.264" fy="672.797" gradientTransform="matrix(1,0,0,0.6985294,0,202.82863)" gradientUnits="userSpaceOnUse" xlink:href="#linearGradient3144-7"/><linearGradient id="linearGradient3144-7"><stop id="stop3146-4" offset="0" stop-color="#fff" stop-opacity="1"/><stop id="stop3148-4" offset="1" stop-color="#fff" stop-opacity="0"/></linearGradient><radialGradient id="radialGradient3850-7" cx="225.264" cy="672.797" r="34.345" fx="225.264" fy="672.797" gradientTransform="matrix(1,0,0,0.6985294,0,202.82863)" gradientUnits="userSpaceOnUse" xlink:href="#linearGradient3144-5"/><linearGradient id="linearGradient3144-5"><stop id="stop3146-6" offset="0" stop-color="#fff" stop-opacity="1"/><stop id="stop3148-5" offset="1" stop-color="#fff" stop-opacity="0"/></linearGradient><radialGradient id="radialGradient4501" cx="225.264" cy="672.797" r="34.345" fx="225.264" fy="672.797" gradientTransform="matrix(1,0,0,0.6985294,0,202.82863)" gradientUnits="userSpaceOnUse" xlink:href="#linearGradient3144-5"/><radialGradient id="radialGradient3850-70" cx="225.264" cy="672.797" r="34.345" fx="225.264" fy="672.797" gradientTransform="matrix(1,0,0,0.6985294,0,202.82863)" gradientUnits="userSpaceOnUse" xlink:href="#linearGradient3144-3"/><linearGradient id="linearGradient3144-3"><stop id="stop3146-2" offset="0" stop-color="#fff" stop-opacity="1"/><stop id="stop3148-3" offset="1" stop-color="#fff" stop-opacity="0"/></linearGradient><radialGradient id="radialGradient4501-8" cx="225.264" cy="672.797" r="34.345" fx="225.264" fy="672.797" gradientTransform="matrix(1,0,0,0.6985294,0,202.82863)" gradientUnits="userSpaceOnUse" xlink:href="#linearGradient3144-3"/><radialGradient id="radialGradient3850-5" cx="225.264" cy="672.797" r="34.345" fx="225.264" fy="672.797" gradientTransform="matrix(1,0,0,0.6985294,0,202.82863)" gradientUnits="userSpaceOnUse" xlink:href="#linearGradient3144-1"/><linearGradient id="linearGradient3144-1"><stop id="stop3146-5" offset="0" stop-color="#fff" stop-opacity="1"/><stop id="stop3148-1" offset="1" stop-color="#fff" stop-opacity="0"/></linearGradient><radialGradient id="radialGradient4501-1" cx="225.264" cy="672.797" r="34.345" fx="225.264" fy="672.797" gradientTransform="matrix(1,0,0,0.6985294,0,202.82863)" gradientUnits="userSpaceOnUse" xlink:href="#linearGradient3144-1"/><radialGradient id="radialGradient3850-3" cx="225.264" cy="672.797" r="34.345" fx="225.264" fy="672.797" gradientTransform="matrix(1,0,0,0.6985294,0,202.82863)" gradientUnits="userSpaceOnUse" xlink:href="#linearGradient3144-9"/><linearGradient id="linearGradient3144-9"><stop id="stop3146-9" offset="0" stop-color="#fff" stop-opacity="1"/><stop id="stop3148-12" offset="1" stop-color="#fff" stop-opacity="0"/></linearGradient><radialGradient id="radialGradient3850-6" cx="225.264" cy="672.797" r="34.345" fx="225.264" fy="672.797" gradientTransform="matrix(1,0,0,0.6985294,0,202.82863)" gradientUnits="userSpaceOnUse" xlink:href="#linearGradient3144-2"/><linearGradient id="linearGradient3144-2"><stop id="stop3146-0" offset="0" stop-color="#fff" stop-opacity="1"/><stop id="stop3148-2" offset="1" stop-color="#fff" stop-opacity="0"/></linearGradient><radialGradient id="radialGradient4815" cx="225.264" cy="672.797" r="34.345" fx="225.264" fy="672.797" gradientTransform="matrix(1,0,0,0.6985294,0,202.82863)" gradientUnits="userSpaceOnUse" xlink:href="#linearGradient3144-2"/><linearGradient id="linearGradient3803" x1="34.97" x2="29.056" y1="34.473" y2="18.702" gradientUnits="userSpaceOnUse" xlink:href="#linearGradient3770"/><linearGradient id="linearGradient3770"><stop id="stop3772" offset="0" stop-color="#06989a" stop-opacity="1"/><stop id="stop3774" offset="1" stop-color="#34e0e2" stop-opacity="1"/></linearGradient><linearGradient id="linearGradient3015" x1="34.97" x2="29.056" y1="34.473" y2="18.702" gradientUnits="userSpaceOnUse" xlink:href="#linearGradient3770"/><linearGradient id="linearGradient3803-1" x1="34.97" x2="29.056" y1="34.473" y2="18.702" gradientUnits="userSpaceOnUse" xlink:href="#linearGradient3770-7"/><linearGradient id="linearGradient3770-7"><stop id="stop3772-4" offset="0" stop-color="#06989a" stop-opacity="1"/><stop id="stop3774-0" offset="1" stop-color="#34e0e2" stop-opacity="1"/></linearGradient><linearGradient id="linearGradient3015-9" x1="34.97" x2="29.056" y1="34.473" y2="18.702" gradientUnits="userSpaceOnUse" xlink:href="#linearGradient3770-7"/><linearGradient id="linearGradient3803-8" x1="34.97" x2="29.056" y1="34.473" y2="18.702" gradientUnits="userSpaceOnUse" xlink:href="#linearGradient3770-2"/><linearGradient id="linearGradient3770-2"><stop id="stop3772-45" offset="0" stop-color="#06989a" stop-opacity="1"/><stop id="stop3774-5" offset="1" stop-color="#34e0e2" stop-opacity="1"/></linearGradient><linearGradient id="linearGradient3015-1" x1="34.97" x2="29.056" y1="34.473" y2="18.702" gradientUnits="userSpaceOnUse" xlink:href="#linearGradient3770-2"/><linearGradient id="linearGradient3015-1-1" x1="34.97" x2="29.056" y1="34.473" y2="18.702" gradientUnits="userSpaceOnUse" xlink:href="#linearGradient3770-2-5"/><linearGradient id="linearGradient3770-2-5"><stop id="stop3772-45-2" offset="0" stop-color="#06989a" stop-opacity="1"/><stop id="stop3774-5-7" offset="1" stop-color="#34e0e2" stop-opacity="1"/></linearGradient><linearGradient id="linearGradient3094" x1="34.97" x2="29.056" y1="34.473" y2="18.702" gradientUnits="userSpaceOnUse" xlink:href="#linearGradient3770-2-5"/><linearGradient id="linearGradient3015-1-4" x1="34.97" x2="29.056" y1="34.473" y2="18.702" gradientUnits="userSpaceOnUse" xlink:href="#linearGradient3770-2-2"/><linearGradient id="linearGradient3770-2-2"><stop id="stop3772-45-3" offset="0" stop-color="#06989a" stop-opacity="1"/><stop id="stop3774-5-2" offset="1" stop-color="#34e0e2" stop-opacity="1"/></linearGradient><linearGradient id="linearGradient3094-2" x1="34.97" x2="29.056" y1="34.473" y2="18.702" gradientUnits="userSpaceOnUse" xlink:href="#linearGradient3770-2-2"/></defs><g id="layer1"><g id="g4289" transform="matrix(0.1621282,0,0,0.1621282,6.3605986,-66.108806)"><path id="path2998-7" fill="url(#linearGradient3015-1)" fill-opacity="1" fill-rule="nonzero" stroke="#042a2a" stroke-dasharray="none" stroke-dashoffset="0" stroke-linecap="butt" stroke-linejoin="round" stroke-miterlimit="4" stroke-opacity="1" stroke-width="2.535" d="m 40.88363,26.587624 c 0,4.899305 -3.971672,8.870976 -8.870977,8.870976 -4.899305,0 -8.870976,-3.971671 -8.870976,-8.870976 0,-4.899305 3.971671,-8.870977 8.870976,-8.870977 4.899305,0 8.870977,3.971672 8.870977,8.870977 z" color="#000" display="inline" enable-background="accumulate" overflow="visible" transform="matrix(4.8670752,0,0,4.867076,125.00861,475.72705)" visibility="visible" style="marker:none"/><path id="path2998-1-1" fill="none" stroke="#34e0e2" stroke-dasharray="none" stroke-dashoffset="0" stroke-linecap="butt" stroke-linejoin="round" stroke-miterlimit="4" stroke-opacity="1" stroke-width="3.588" d="m 40.88363,26.587624 c 0,4.899305 -3.971672,8.870976 -8.870977,8.870976 -4.899305,0 -8.870976,-3.971671 -8.870976,-8.870976 0,-4.899305 3.971671,-8.870977 8.870976,-8.870977 4.899305,0 8.870977,3.971672 8.870977,8.870977 z" color="#000" display="inline" enable-background="accumulate" overflow="visible" transform="matrix(3.4378549,0,0,3.4378554,171.1044,514.06929)" visibility="visible" style="marker:none"/><path id="path2998-7-6" fill="url(#linearGradient3094)" fill-opacity="1" fill-rule="nonzero" stroke="#042a2a" stroke-dasharray="none" stroke-dashoffset="0" stroke-linecap="butt" stroke-linejoin="round" stroke-miterlimit="4" stroke-opacity="1" stroke-width="2.535" d="m 40.88363,26.587624 c 0,4.899305 -3.971672,8.870976 -8.870977,8.870976 -4.899305,0 -8.870976,-3.971671 -8.870976,-8.870976 0,-4.899305 3.971671,-8.870977 8.870976,-8.870977 4.899305,0 8.870977,3.971672 8.870977,8.870977 z" color="#000" display="inline" enable-background="accumulate" overflow="visible" transform="matrix(4.8670752,0,0,4.867076,2.3347765,475.72705)" visibility="visible" style="marker:none"/><path id="path2998-1-1-1" fill="none" stroke="#34e0e2" stroke-dasharray="none" stroke-dashoffset="0" stroke-linecap="butt" stroke-linejoin="round" stroke-miterlimit="4" stroke-opacity="1" stroke-width="3.588" d="m 40.88363,26.587624 c 0,4.899305 -3.971672,8.870976 -8.870977,8.870976 -4.899305,0 -8.870976,-3.971671 -8.870976,-8.870976 0,-4.899305 3.971671,-8.870977 8.870976,-8.870977 4.899305,0 8.870977,3.971672 8.870977,8.870977 z" color="#000" display="inline" enable-background="accumulate" overflow="visible" transform="matrix(3.4378549,0,0,3.4378554,48.430568,514.06929)" visibility="visible" style="marker:none"/><path id="path2998-7-1" fill="url(#linearGradient3094-2)" fill-opacity="1" fill-rule="nonzero" stroke="#042a2a" stroke-dasharray="none" stroke-dashoffset="0" stroke-linecap="butt" stroke-linejoin="round" stroke-miterlimit="4" stroke-opacity="1" stroke-width="2.535" d="m 40.88363,26.587624 c 0,4.899305 -3.971672,8.870976 -8.870977,8.870976 -4.899305,0 -8.870976,-3.971671 -8.870976,-8.870976 0,-4.899305 3.971671,-8.870977 8.870976,-8.870977 4.899305,0 8.870977,3.971672 8.870977,8.870977 z" color="#000" display="inline" enable-background="accumulate" overflow="visible" transform="matrix(4.8670752,0,0,4.867076,-121.0244,475.72705)" visibility="visible" style="marker:none"/><path id="path2998-1-1-6" fill="none" stroke="#34e0e2" stroke-dasharray="none" stroke-dashoffset="0" stroke-linecap="butt" stroke-linejoin="round" stroke-miterlimit="4" stroke-opacity="1" stroke-width="3.588" d="m 40.88363,26.587624 c 0,4.899305 -3.971672,8.870976 -8.870977,8.870976 -4.899305,0 -8.870976,-3.971671 -8.870976,-8.870976 0,-4.899305 3.971671,-8.870977 8.870976,-8.870977 4.899305,0 8.870977,3.971672 8.870977,8.870977 z" color="#000" display="inline" enable-background="accumulate" overflow="visible" transform="matrix(3.4378549,0,0,3.4378554,-74.928601,514.06929)" visibility="visible" style="marker:none"/></g></g><metadata id="metadata6378"/></svg>