<svg xmlns="http://www.w3.org/2000/svg" xmlns:svg="http://www.w3.org/2000/svg" xmlns:xlink="http://www.w3.org/1999/xlink" id="svg2726" width="64" height="64" version="1.1"><defs id="defs2728"><radialGradient id="radialGradient3850-9" cx="225.264" cy="672.797" r="34.345" fx="225.264" fy="672.797" gradientTransform="matrix(1,0,0,0.6985294,0,202.82863)" gradientUnits="userSpaceOnUse" xlink:href="#linearGradient3144-4"/><linearGradient id="linearGradient3144-4"><stop id="stop3146-2" offset="0" stop-color="#fff" stop-opacity="1"/><stop id="stop3148-0" offset="1" stop-color="#fff" stop-opacity="0"/></linearGradient><linearGradient id="linearGradient3768" x1="-506.277" x2="-385.552" y1="-559.675" y2="-461.801" gradientUnits="userSpaceOnUse" xlink:href="#linearGradient3770"/><linearGradient id="linearGradient3770"><stop id="stop3772" offset="0" stop-color="#06989a" stop-opacity="1"/><stop id="stop3774" offset="1" stop-color="#34e0e2" stop-opacity="1"/></linearGradient><linearGradient id="linearGradient3021" x1="-506.277" x2="-385.552" y1="-559.675" y2="-461.801" gradientTransform="translate(1.3659092,13.421127)" gradientUnits="userSpaceOnUse" xlink:href="#linearGradient3770"/><linearGradient id="linearGradient3803" x1="34.97" x2="29.056" y1="34.473" y2="18.702" gradientUnits="userSpaceOnUse" xlink:href="#linearGradient3770"/></defs><g id="layer1"><g id="g4289" transform="matrix(0.1621282,0,0,0.1621282,6.3605986,-66.108806)"><path id="path2998" fill="url(#linearGradient3803)" fill-opacity="1" fill-rule="nonzero" stroke="#042a2a" stroke-dasharray="none" stroke-dashoffset="0" stroke-linecap="butt" stroke-linejoin="round" stroke-miterlimit="4" stroke-opacity="1" stroke-width="1.971" d="m 40.88363,26.587624 c 0,4.899305 -3.971672,8.870976 -8.870977,8.870976 -4.899305,0 -8.870976,-3.971671 -8.870976,-8.870976 0,-4.899305 3.971671,-8.870977 8.870976,-8.870977 4.899305,0 8.870977,3.971672 8.870977,8.870977 z" color="#000" display="inline" enable-background="accumulate" overflow="visible" transform="matrix(6.2576679,0,0,6.2576679,19.497793,340.06718)" visibility="visible" style="marker:none"/><rect id="rect3942-4-9-9" width="285.733" height="62.081" x="-598.252" y="-508.477" fill="url(#linearGradient3021)" fill-opacity="1" fill-rule="nonzero" stroke="#042a2a" stroke-dasharray="none" stroke-dashoffset="0" stroke-linecap="butt" stroke-linejoin="round" stroke-miterlimit="4" stroke-opacity="1" stroke-width="12.336" color="#000" display="inline" enable-background="accumulate" overflow="visible" transform="matrix(-0.84132761,-0.54052553,0.53359908,-0.84573756,0,0)" visibility="visible" style="marker:none"/><path id="path3810" fill="none" stroke="#34e0e2" stroke-linecap="butt" stroke-linejoin="miter" stroke-opacity="1" stroke-width="12.336" d="M 28.55913,563.39166 248.26361,704.69604 228.35792,736.44701 8.5460597,595.24502 z"/><path id="path2998-1" fill="none" stroke="#34e0e2" stroke-dasharray="none" stroke-dashoffset="0" stroke-linecap="butt" stroke-linejoin="round" stroke-miterlimit="4" stroke-opacity="1" stroke-width="2.535" d="m 40.88363,26.587624 c 0,4.899305 -3.971672,8.870976 -8.870977,8.870976 -4.899305,0 -8.870976,-3.971671 -8.870976,-8.870976 0,-4.899305 3.971671,-8.870977 8.870976,-8.870977 4.899305,0 8.870977,3.971672 8.870977,8.870977 z" color="#000" display="inline" enable-background="accumulate" overflow="visible" transform="matrix(4.8670752,0,0,4.867075,64.014356,377.03975)" visibility="visible" style="marker:none"/></g></g><metadata id="metadata6518"/></svg>