<svg xmlns="http://www.w3.org/2000/svg" xmlns:svg="http://www.w3.org/2000/svg" xmlns:xlink="http://www.w3.org/1999/xlink" id="svg2726" width="64" height="64" version="1.1"><defs id="defs2728"><linearGradient id="linearGradient3782"><stop id="stop3784" offset="0" stop-color="#06989a" stop-opacity="1"/><stop id="stop3786" offset="1" stop-color="#34e0e2" stop-opacity="1"/></linearGradient><linearGradient id="linearGradient3144"><stop id="stop3146" offset="0" stop-color="#fff" stop-opacity="1"/><stop id="stop3148" offset="1" stop-color="#fff" stop-opacity="0"/></linearGradient><radialGradient id="radialGradient3850" cx="225.264" cy="672.797" r="34.345" fx="225.264" fy="672.797" gradientTransform="matrix(1,0,0,0.6985294,0,202.82863)" gradientUnits="userSpaceOnUse" xlink:href="#linearGradient3144"/><radialGradient id="radialGradient3850-4" cx="225.264" cy="672.797" r="34.345" fx="225.264" fy="672.797" gradientTransform="matrix(1,0,0,0.6985294,0,202.82863)" gradientUnits="userSpaceOnUse" xlink:href="#linearGradient3144-1"/><linearGradient id="linearGradient3144-1"><stop id="stop3146-2" offset="0" stop-color="#fff" stop-opacity="1"/><stop id="stop3148-2" offset="1" stop-color="#fff" stop-opacity="0"/></linearGradient><radialGradient id="radialGradient4247" cx="225.264" cy="672.797" r="34.345" fx="225.264" fy="672.797" gradientTransform="matrix(1,0,0,0.6985294,0,202.82863)" gradientUnits="userSpaceOnUse" xlink:href="#linearGradient3144-1"/><linearGradient id="linearGradient3788" x1="36" x2="30" y1="56" y2="13" gradientUnits="userSpaceOnUse" xlink:href="#linearGradient3782"/></defs><g id="layer1"><g id="g4289" transform="matrix(0.1621282,0,0,0.1621282,6.3605986,-66.108806)"><path id="rect3942-4-9" fill="url(#linearGradient3788)" fill-opacity="1" fill-rule="nonzero" stroke="#042a2a" stroke-dasharray="none" stroke-dashoffset="0" stroke-linecap="butt" stroke-linejoin="round" stroke-miterlimit="4" stroke-opacity="1" stroke-width="2" d="M 15,4.9999997 5.0000001,15 22,32 5.0000001,49 15,59 32,42 49,59 59,49 42,32 59,15 49,4.9999997 32,22 z" color="#000" display="inline" enable-background="accumulate" overflow="visible" transform="matrix(6.1679584,0,0,6.1679584,-39.231908,407.75637)" visibility="visible" style="marker:none"/><path id="rect3942-4-9-1" fill="none" stroke="#34e0e2" stroke-dasharray="none" stroke-dashoffset="0" stroke-linecap="butt" stroke-linejoin="miter" stroke-miterlimit="4" stroke-opacity="1" stroke-width="12.336" d="m 53.287469,457.10004 -43.175709,43.1757 104.85529,104.8553 -104.85529,104.85529 43.175709,43.17571 104.855291,-104.85529 104.8553,104.85529 43.1757,-43.17571 -104.85529,-104.85529 104.85529,-104.8553 -43.1757,-43.1757 -104.8553,104.85529 z" color="#000" display="inline" enable-background="accumulate" overflow="visible" visibility="visible" style="marker:none"/></g></g><metadata id="metadata6439"/></svg>