<svg xmlns="http://www.w3.org/2000/svg" xmlns:svg="http://www.w3.org/2000/svg" xmlns:xlink="http://www.w3.org/1999/xlink" id="svg2726" width="64" height="64" version="1.1"><defs id="defs2728"><linearGradient id="linearGradient3782"><stop id="stop3784" offset="0" stop-color="#06989a" stop-opacity="1"/><stop id="stop3786" offset="1" stop-color="#34e0e2" stop-opacity="1"/></linearGradient><radialGradient id="radialGradient4274" cx="225.264" cy="672.797" r="34.345" fx="225.264" fy="672.797" gradientTransform="matrix(1,0,0,0.6985294,0,202.82863)" gradientUnits="userSpaceOnUse" xlink:href="#linearGradient3144"/><linearGradient id="linearGradient3144"><stop id="stop3146" offset="0" stop-color="#fff" stop-opacity="1"/><stop id="stop3148" offset="1" stop-color="#fff" stop-opacity="0"/></linearGradient><radialGradient id="radialGradient4272" cx="225.264" cy="672.797" r="34.345" fx="225.264" fy="672.797" gradientTransform="matrix(1,0,0,0.6985294,0,202.82863)" gradientUnits="userSpaceOnUse" xlink:href="#linearGradient3144"/><radialGradient id="radialGradient3850-9" cx="225.264" cy="672.797" r="34.345" fx="225.264" fy="672.797" gradientTransform="matrix(1,0,0,0.6985294,0,202.82863)" gradientUnits="userSpaceOnUse" xlink:href="#linearGradient3144-7"/><linearGradient id="linearGradient3144-7"><stop id="stop3146-0" offset="0" stop-color="#fff" stop-opacity="1"/><stop id="stop3148-3" offset="1" stop-color="#fff" stop-opacity="0"/></linearGradient><linearGradient id="linearGradient3788" x1="170.479" x2="145.807" y1="740.826" y2="481.772" gradientUnits="userSpaceOnUse" xlink:href="#linearGradient3782"/></defs><g id="layer1"><g id="g4289" transform="matrix(0.1621282,0,0,0.1621282,6.3605986,-66.108806)"><path id="rect2269" fill="url(#linearGradient3788)" fill-opacity="1" fill-rule="nonzero" stroke="#042a2a" stroke-dasharray="none" stroke-dashoffset="0" stroke-linecap="butt" stroke-linejoin="round" stroke-miterlimit="4" stroke-opacity="1" stroke-width="12.336" d="m 286.05557,438.59616 -97.2637,89.49573 c -9.47407,-4.02615 -19.86033,-6.45475 -30.73458,-6.70738 -46.96422,-1.09111 -85.889394,37.06283 -86.956391,85.08801 -0.206698,9.30353 1.102026,18.17235 3.560714,26.63792 l -95.389647,87.77097 44.602625,50.78451 93.515589,-86.04621 c 11.08528,5.82478 23.43483,9.4647 36.73158,9.77362 46.96421,1.09111 86.07678,-37.06283 87.14377,-85.08801 0.26056,-11.72758 -1.9207,-22.84946 -5.80958,-33.15367 l 95.38965,-87.77097 -44.79003,-50.78452 z" color="#000" display="inline" enable-background="accumulate" overflow="visible" visibility="visible" style="marker:none"/><path id="rect2269-1" fill="none" stroke="#34e0e2" stroke-dasharray="none" stroke-dashoffset="0" stroke-linecap="butt" stroke-linejoin="round" stroke-miterlimit="4" stroke-opacity="1" stroke-width="12.336" d="m 285.31157,456.45719 -93.99584,85.85152 c -7.97816,-3.42968 -24.01391,-8.30211 -33.17116,-8.51729 -39.54881,-0.92948 -73.650032,31.3621 -74.548551,72.27243 -0.174054,7.92523 2.630113,24.25109 4.70059,31.4625 l -91.381778,84.35166 27.715843,32.27526 90.876996,-83.85376 c 9.33495,4.96187 25.8826,12.29955 37.07987,12.56271 39.54881,0.92945 75.00897,-29.60952 76.18784,-73.88419 0.26597,-9.98902 -4.7014,-26.47341 -7.97623,-35.25105 l 92.66402,-85.14125 z" color="#000" display="inline" enable-background="accumulate" overflow="visible" visibility="visible" style="marker:none"/></g></g><metadata id="metadata6495"/></svg>