<svg xmlns="http://www.w3.org/2000/svg" xmlns:svg="http://www.w3.org/2000/svg" xmlns:xlink="http://www.w3.org/1999/xlink" id="svg3230" width="64" height="64" version="1.1"><defs id="defs3232"><linearGradient id="linearGradient3838"><stop id="stop3840" offset="0" stop-color="#34e0e2" stop-opacity="1"/><stop id="stop3842" offset="1" stop-color="#06989a" stop-opacity="1"/></linearGradient><linearGradient id="linearGradient2409" x1="2754.686" x2="2900.148" y1="671.111" y2="671.111" gradientTransform="matrix(-1,0,0,-1,5656.8338,1408.2216)" gradientUnits="userSpaceOnUse" xlink:href="#linearGradient3293"/><linearGradient id="linearGradient2407" x1="2754.686" x2="2900.148" y1="671.111" y2="671.111" gradientTransform="matrix(-1,0,0,-1,5656.8338,1376.2216)" gradientUnits="userSpaceOnUse" xlink:href="#linearGradient3293"/><linearGradient id="linearGradient3293"><stop id="stop3295" offset="0" stop-color="#002a2d" stop-opacity="1"/><stop id="stop3297" offset="1" stop-color="#008059" stop-opacity="0"/></linearGradient><linearGradient id="linearGradient2405" x1="2754.686" x2="2900.148" y1="671.111" y2="671.111" gradientTransform="matrix(-1,0,0,-1,5656.8338,1344.2216)" gradientUnits="userSpaceOnUse" xlink:href="#linearGradient3293"/><linearGradient id="linearGradient3844" x1="2802.963" x2="2859.726" y1="538.362" y2="786.056" gradientUnits="userSpaceOnUse" xlink:href="#linearGradient3838"/><linearGradient id="linearGradient3844-7" x1="2802.963" x2="2859.726" y1="538.362" y2="786.056" gradientUnits="userSpaceOnUse" xlink:href="#linearGradient3838-9"/><linearGradient id="linearGradient3838-9"><stop id="stop3840-8" offset="0" stop-color="#34e0e2" stop-opacity="1"/><stop id="stop3842-1" offset="1" stop-color="#06989a" stop-opacity="1"/></linearGradient><linearGradient id="linearGradient3880" x1="2802.963" x2="2849.406" y1="626.087" y2="822.179" gradientUnits="userSpaceOnUse" xlink:href="#linearGradient3838"/></defs><g id="layer1"><g id="g2383" transform="matrix(0.1937875,0,0,0.1937875,-515.01651,-93.777617)"><g id="g2385" fill="url(#linearGradient3844)" fill-opacity="1" stroke="#042a2a" stroke-dasharray="none" stroke-linecap="round" stroke-linejoin="round" stroke-miterlimit="4" stroke-width="10.321" transform="translate(-6,-8)"><path id="path2387" fill="url(#linearGradient3844)" fill-opacity="1" fill-rule="evenodd" stroke="#042a2a" stroke-dasharray="none" stroke-dashoffset="0" stroke-linecap="round" stroke-linejoin="round" stroke-miterlimit="4" stroke-opacity="1" stroke-width="10.321" d="m 2751.3603,595.12568 0,0 0,0 -2e-4,46.44262 30.9618,0 -0.2475,-47.17448 -0.05,0 c 0.2977,-25.0696 20.9388,-45.71077 46.7403,-45.71077 25.8014,0 46.4426,20.64117 46.4421,46.44263 l 0,0 0,46.44262 30.9618,0 0,-46.44262 0,0 c 5e-4,-41.28234 -25.801,-77.40438 -77.4039,-77.40438 -51.6029,0 -77.4044,36.12204 -77.4044,77.40438 z" display="inline" enable-background="accumulate" overflow="visible" visibility="visible" style="marker:none"/><rect id="rect2389" width="196.091" height="154.809" x="2730.719" y="641.568" fill="url(#linearGradient3880)" fill-opacity="1" fill-rule="evenodd" stroke="#042a2a" stroke-dasharray="none" stroke-dashoffset="0" stroke-linecap="round" stroke-linejoin="round" stroke-miterlimit="4" stroke-opacity="1" stroke-width="10.321" display="inline" enable-background="accumulate" overflow="visible" visibility="visible" style="marker:none"/><rect id="rect2389-0" width="175.45" height="134.168" x="2741.04" y="651.889" fill="none" stroke="#34e0e2" stroke-dasharray="none" stroke-dashoffset="0" stroke-linecap="round" stroke-linejoin="miter" stroke-miterlimit="4" stroke-opacity="1" stroke-width="10.321" display="inline" enable-background="accumulate" overflow="visible" visibility="visible" style="marker:none"/></g><path id="path3777-7" fill="none" stroke="#06989a" stroke-linecap="round" stroke-linejoin="miter" stroke-opacity="1" stroke-width="20.641" d="m 2755.6809,669.69034 134.1676,0"/><path id="path3777-3-5" fill="none" stroke="#06989a" stroke-linecap="round" stroke-linejoin="miter" stroke-opacity="1" stroke-width="20.641" d="m 2755.681,710.97267 134.1676,0"/><path id="path3777-6-3" fill="none" stroke="#06989a" stroke-linecap="round" stroke-linejoin="miter" stroke-opacity="1" stroke-width="20.641" d="m 2755.681,752.255 134.1676,0"/><path id="path3828" fill="none" stroke="#34e0e2" stroke-linecap="butt" stroke-linejoin="miter" stroke-opacity="1" stroke-width="2" d="m 19,28 0,-9 c 9e-6,-5.000001 3.999991,-11.999999 13,-12 9.000009,-1e-6 13.000009,6.999999 13,12 l 0,9" transform="matrix(5.1602916,0,0,5.1602916,2657.6353,483.91985)"/></g></g><metadata id="metadata6471"/></svg>