<svg xmlns="http://www.w3.org/2000/svg" xmlns:svg="http://www.w3.org/2000/svg" xmlns:xlink="http://www.w3.org/1999/xlink" id="svg2726" width="64" height="64" version="1.1"><defs id="defs2728"><linearGradient id="linearGradient3791"><stop id="stop3793" offset="0" stop-color="#06989a" stop-opacity="1"/><stop id="stop3795" offset="1" stop-color="#34e0e2" stop-opacity="1"/></linearGradient><linearGradient id="linearGradient3783"><stop id="stop3785" offset="0" stop-color="#06989a" stop-opacity="1"/><stop id="stop3787" offset="1" stop-color="#34e0e2" stop-opacity="1"/></linearGradient><radialGradient id="radialGradient4274" cx="225.264" cy="672.797" r="34.345" fx="225.264" fy="672.797" gradientTransform="matrix(1,0,0,0.6985294,0,202.82863)" gradientUnits="userSpaceOnUse" xlink:href="#linearGradient3144"/><linearGradient id="linearGradient3144"><stop id="stop3146" offset="0" stop-color="#fff" stop-opacity="1"/><stop id="stop3148" offset="1" stop-color="#fff" stop-opacity="0"/></linearGradient><radialGradient id="radialGradient4272" cx="225.264" cy="672.797" r="34.345" fx="225.264" fy="672.797" gradientTransform="matrix(1,0,0,0.6985294,0,202.82863)" gradientUnits="userSpaceOnUse" xlink:href="#linearGradient3144"/><radialGradient id="radialGradient3011" cx="225.264" cy="672.797" r="34.345" fx="225.264" fy="672.797" gradientTransform="matrix(1,0,0,0.6985294,0,202.82863)" gradientUnits="userSpaceOnUse" xlink:href="#linearGradient3144"/><linearGradient id="linearGradient3789" x1="93.348" x2="46.826" y1="767.216" y2="639.281" gradientUnits="userSpaceOnUse" xlink:href="#linearGradient3783"/><linearGradient id="linearGradient3797" x1="182.815" x2="121.135" y1="691.482" y2="531.116" gradientUnits="userSpaceOnUse" xlink:href="#linearGradient3791"/></defs><g id="layer1"><g id="g4289" transform="matrix(0.1621282,0,0,0.1621282,6.3605986,-66.108806)"><path id="path2996" fill="#06989a" stroke="#042a2a" stroke-linecap="round" stroke-linejoin="round" stroke-opacity="1" stroke-width="12.336" d="m 324.67764,438.59616 -74.01551,74.0155 0,197.37467 74.01551,-74.0155 z"/><path id="path3766" fill="url(#linearGradient3797)" fill-opacity="1" stroke="#042a2a" stroke-linecap="round" stroke-linejoin="round" stroke-opacity="1" stroke-width="12.336" d="m 77.959291,512.61166 0,197.37467 172.702829,0 0,-197.37467 z"/><path id="path3768" fill="#34e0e2" stroke="#042a2a" stroke-dasharray="none" stroke-linecap="butt" stroke-linejoin="round" stroke-miterlimit="4" stroke-opacity="1" stroke-width="12.336" d="m 77.959291,512.61166 74.015499,-74.0155 172.70284,0 -74.01551,74.0155 z"/><path id="path3766-3" fill="none" stroke="#34e0e2" stroke-linecap="round" stroke-linejoin="miter" stroke-opacity="1" stroke-width="12.336" d="m 90.295211,524.94757 0,172.70284 148.030999,0 0,-172.70284 z"/><path id="path2996-6" fill="none" stroke="#16d0d2" stroke-linecap="round" stroke-linejoin="miter" stroke-opacity="1" stroke-width="12.336" d="m 312.34171,468.20236 -49.34367,49.34366 0,162.83411 49.34367,-49.34367 z"/><circle id="path4161" cx="70.087" cy="697.433" r="69.782" fill="url(#linearGradient3789)" fill-opacity="1" fill-rule="nonzero" stroke="#042a2a" stroke-dasharray="none" stroke-dashoffset="0" stroke-linecap="butt" stroke-linejoin="round" stroke-miterlimit="4" stroke-opacity="1" stroke-width="11.63" d="m 139.86947,697.43347 c 0,38.5398 -31.24268,69.78249 -69.782487,69.78249 -38.539803,0 -69.78248623,-31.24269 -69.78248623,-69.78249 0,-38.5398 31.24268323,-69.78248 69.78248623,-69.78248 38.539807,0 69.782487,31.24268 69.782487,69.78248 z" color="#000" display="inline" enable-background="accumulate" overflow="visible" transform="matrix(1.0606601,0,0,1.0606601,-8.7150832,-42.089462)" visibility="visible" style="marker:none"/><circle id="path4161-1" cx="70.087" cy="697.433" r="69.782" fill="none" stroke="#34e0e2" stroke-dasharray="none" stroke-dashoffset="0" stroke-linecap="butt" stroke-linejoin="round" stroke-miterlimit="4" stroke-opacity="1" stroke-width="13.956" d="m 139.86947,697.43347 c 0,38.5398 -31.24268,69.78249 -69.782487,69.78249 -38.539803,0 -69.78248623,-31.24269 -69.78248623,-69.78249 0,-38.5398 31.24268323,-69.78248 69.78248623,-69.78248 38.539807,0 69.782487,31.24268 69.782487,69.78248 z" color="#000" display="inline" enable-background="accumulate" overflow="visible" transform="matrix(0.88388345,0,0,0.88388358,3.6746616,81.200412)" visibility="visible" style="marker:none"/></g></g><metadata id="metadata6640"/></svg>