<svg xmlns="http://www.w3.org/2000/svg" xmlns:svg="http://www.w3.org/2000/svg" xmlns:xlink="http://www.w3.org/1999/xlink" id="svg2726" width="64" height="64" version="1.1"><defs id="defs2728"><linearGradient id="linearGradient3779"><stop id="stop3781" offset="0" stop-color="#06989a" stop-opacity="1"/><stop id="stop3783" offset="1" stop-color="#34e0e2" stop-opacity="1"/></linearGradient><radialGradient id="radialGradient4274" cx="225.264" cy="672.797" r="34.345" fx="225.264" fy="672.797" gradientTransform="matrix(1,0,0,0.6985294,0,202.82863)" gradientUnits="userSpaceOnUse" xlink:href="#linearGradient3144"/><linearGradient id="linearGradient3144"><stop id="stop3146" offset="0" stop-color="#fff" stop-opacity="1"/><stop id="stop3148" offset="1" stop-color="#fff" stop-opacity="0"/></linearGradient><radialGradient id="radialGradient4272" cx="225.264" cy="672.797" r="34.345" fx="225.264" fy="672.797" gradientTransform="matrix(1,0,0,0.6985294,0,202.82863)" gradientUnits="userSpaceOnUse" xlink:href="#linearGradient3144"/><radialGradient id="radialGradient3011" cx="225.264" cy="672.797" r="34.345" fx="225.264" fy="672.797" gradientTransform="matrix(1,0,0,0.6985294,0,202.82863)" gradientUnits="userSpaceOnUse" xlink:href="#linearGradient3144"/><linearGradient id="linearGradient3785" x1="170.205" x2="146.081" y1="728.836" y2="508.387" gradientUnits="userSpaceOnUse" xlink:href="#linearGradient3779"/></defs><g id="layer1"><g id="g4289" transform="matrix(0.1621282,0,0,0.1621282,6.3605986,-66.108806)"><path id="rect2269" fill="url(#linearGradient3785)" fill-opacity="1" fill-rule="nonzero" stroke="#042a2a" stroke-dasharray="none" stroke-dashoffset="0" stroke-linecap="butt" stroke-linejoin="round" stroke-miterlimit="4" stroke-opacity="1" stroke-width="12.336" d="M 277.8342,450.93208 91.251015,618.75727 c -8.918335,-3.55647 -18.650534,-5.41282 -28.857145,-5.13952 -40.206815,1.07665 -71.8358285,34.50943 -70.759301,74.72077 1.0765272,40.21135 34.505519,72.0416 74.712334,70.96496 40.206817,-1.07665 72.033487,-34.7071 70.956957,-74.91845 -0.10549,-3.93995 -0.6803,-7.71094 -1.38356,-11.46508 L 324.67764,503.11801 277.8342,450.93208 z" color="#000" display="inline" enable-background="accumulate" overflow="visible" visibility="visible" style="marker:none"/><path id="rect2269-1" fill="none" stroke="#34e0e2" stroke-dasharray="none" stroke-dashoffset="0" stroke-linecap="butt" stroke-linejoin="round" stroke-miterlimit="4" stroke-opacity="1" stroke-width="12.336" d="M 276.74385,468.64297 94.08423,632.57831 c -8.91833,-3.55647 -25.263569,-7.19772 -36.016523,-5.77147 -35.913836,4.76357 -53.8623972,30.41905 -54.1239057,64.67562 -0.2495862,32.69478 36.3906717,55.11513 55.5116257,55.51162 26.648562,0.55259 62.860723,-13.7279 65.072103,-62.27432 0.24957,-5.47877 -0.90505,-11.37956 -2.99603,-15.53019 l 185.73261,-167.0305 z" color="#000" display="inline" enable-background="accumulate" overflow="visible" visibility="visible" style="marker:none"/></g></g><metadata id="metadata6305"/></svg>