<svg xmlns="http://www.w3.org/2000/svg" xmlns:svg="http://www.w3.org/2000/svg" xmlns:xlink="http://www.w3.org/1999/xlink" id="svg2726" width="64" height="64" version="1.1"><defs id="defs2728"><linearGradient id="linearGradient3823"><stop id="stop3825" offset="0" stop-color="#06989a" stop-opacity="1"/><stop id="stop3827" offset="1" stop-color="#34e0e2" stop-opacity="1"/></linearGradient><linearGradient id="linearGradient3144"><stop id="stop3146" offset="0" stop-color="#fff" stop-opacity="1"/><stop id="stop3148" offset="1" stop-color="#fff" stop-opacity="0"/></linearGradient><radialGradient id="radialGradient3850" cx="225.264" cy="672.797" r="34.345" fx="225.264" fy="672.797" gradientTransform="matrix(1,0,0,0.6985294,0,202.82863)" gradientUnits="userSpaceOnUse" xlink:href="#linearGradient3144"/><radialGradient id="radialGradient3850-2" cx="225.264" cy="672.797" r="34.345" fx="225.264" fy="672.797" gradientTransform="matrix(1,0,0,0.6985294,0,202.82863)" gradientUnits="userSpaceOnUse" xlink:href="#linearGradient3144-7"/><linearGradient id="linearGradient3144-7"><stop id="stop3146-4" offset="0" stop-color="#fff" stop-opacity="1"/><stop id="stop3148-4" offset="1" stop-color="#fff" stop-opacity="0"/></linearGradient><radialGradient id="radialGradient3850-7" cx="225.264" cy="672.797" r="34.345" fx="225.264" fy="672.797" gradientTransform="matrix(1,0,0,0.6985294,0,202.82863)" gradientUnits="userSpaceOnUse" xlink:href="#linearGradient3144-5"/><linearGradient id="linearGradient3144-5"><stop id="stop3146-6" offset="0" stop-color="#fff" stop-opacity="1"/><stop id="stop3148-5" offset="1" stop-color="#fff" stop-opacity="0"/></linearGradient><radialGradient id="radialGradient4501" cx="225.264" cy="672.797" r="34.345" fx="225.264" fy="672.797" gradientTransform="matrix(1,0,0,0.6985294,0,202.82863)" gradientUnits="userSpaceOnUse" xlink:href="#linearGradient3144-5"/><radialGradient id="radialGradient3850-70" cx="225.264" cy="672.797" r="34.345" fx="225.264" fy="672.797" gradientTransform="matrix(1,0,0,0.6985294,0,202.82863)" gradientUnits="userSpaceOnUse" xlink:href="#linearGradient3144-3"/><linearGradient id="linearGradient3144-3"><stop id="stop3146-2" offset="0" stop-color="#fff" stop-opacity="1"/><stop id="stop3148-3" offset="1" stop-color="#fff" stop-opacity="0"/></linearGradient><radialGradient id="radialGradient4501-8" cx="225.264" cy="672.797" r="34.345" fx="225.264" fy="672.797" gradientTransform="matrix(1,0,0,0.6985294,0,202.82863)" gradientUnits="userSpaceOnUse" xlink:href="#linearGradient3144-3"/><radialGradient id="radialGradient3850-5" cx="225.264" cy="672.797" r="34.345" fx="225.264" fy="672.797" gradientTransform="matrix(1,0,0,0.6985294,0,202.82863)" gradientUnits="userSpaceOnUse" xlink:href="#linearGradient3144-1"/><linearGradient id="linearGradient3144-1"><stop id="stop3146-5" offset="0" stop-color="#fff" stop-opacity="1"/><stop id="stop3148-1" offset="1" stop-color="#fff" stop-opacity="0"/></linearGradient><radialGradient id="radialGradient4501-1" cx="225.264" cy="672.797" r="34.345" fx="225.264" fy="672.797" gradientTransform="matrix(1,0,0,0.6985294,0,202.82863)" gradientUnits="userSpaceOnUse" xlink:href="#linearGradient3144-1"/><radialGradient id="radialGradient3850-3" cx="225.264" cy="672.797" r="34.345" fx="225.264" fy="672.797" gradientTransform="matrix(1,0,0,0.6985294,0,202.82863)" gradientUnits="userSpaceOnUse" xlink:href="#linearGradient3144-9"/><linearGradient id="linearGradient3144-9"><stop id="stop3146-9" offset="0" stop-color="#fff" stop-opacity="1"/><stop id="stop3148-12" offset="1" stop-color="#fff" stop-opacity="0"/></linearGradient><radialGradient id="radialGradient4583" cx="225.264" cy="672.797" r="34.345" fx="225.264" fy="672.797" gradientTransform="matrix(1,0,0,0.6985294,0,202.82863)" gradientUnits="userSpaceOnUse" xlink:href="#linearGradient3144-9"/><radialGradient id="radialGradient4501-1-6" cx="225.264" cy="672.797" r="34.345" fx="225.264" fy="672.797" gradientTransform="matrix(1,0,0,0.6985294,0,202.82863)" gradientUnits="userSpaceOnUse" xlink:href="#linearGradient3144-1-3"/><linearGradient id="linearGradient3144-1-3"><stop id="stop3146-5-4" offset="0" stop-color="#fff" stop-opacity="1"/><stop id="stop3148-1-2" offset="1" stop-color="#fff" stop-opacity="0"/></linearGradient><radialGradient id="radialGradient4501-8-0" cx="225.264" cy="672.797" r="34.345" fx="225.264" fy="672.797" gradientTransform="matrix(1,0,0,0.6985294,0,202.82863)" gradientUnits="userSpaceOnUse" xlink:href="#linearGradient3144-3-5"/><linearGradient id="linearGradient3144-3-5"><stop id="stop3146-2-9" offset="0" stop-color="#fff" stop-opacity="1"/><stop id="stop3148-3-4" offset="1" stop-color="#fff" stop-opacity="0"/></linearGradient><radialGradient id="radialGradient4501-4" cx="225.264" cy="672.797" r="34.345" fx="225.264" fy="672.797" gradientTransform="matrix(1,0,0,0.6985294,0,202.82863)" gradientUnits="userSpaceOnUse" xlink:href="#linearGradient3144-5-9"/><linearGradient id="linearGradient3144-5-9"><stop id="stop3146-6-1" offset="0" stop-color="#fff" stop-opacity="1"/><stop id="stop3148-5-9" offset="1" stop-color="#fff" stop-opacity="0"/></linearGradient><radialGradient id="radialGradient3850-9" cx="225.264" cy="672.797" r="34.345" fx="225.264" fy="672.797" gradientTransform="matrix(1,0,0,0.6985294,0,202.82863)" gradientUnits="userSpaceOnUse" xlink:href="#linearGradient3144-34"/><linearGradient id="linearGradient3144-34"><stop id="stop3146-1" offset="0" stop-color="#fff" stop-opacity="1"/><stop id="stop3148-2" offset="1" stop-color="#fff" stop-opacity="0"/></linearGradient><linearGradient id="linearGradient3829" x1="252.19" x2="152.685" y1="655.128" y2="657.41" gradientUnits="userSpaceOnUse" xlink:href="#linearGradient3823"/><linearGradient id="linearGradient3829-7" x1="252.19" x2="152.685" y1="655.128" y2="657.41" gradientUnits="userSpaceOnUse" xlink:href="#linearGradient3823-4"/><linearGradient id="linearGradient3823-4"><stop id="stop3825-0" offset="0" stop-color="#06989a" stop-opacity="1"/><stop id="stop3827-9" offset="1" stop-color="#34e0e2" stop-opacity="1"/></linearGradient><linearGradient id="linearGradient3847" x1="252.19" x2="152.685" y1="655.128" y2="657.41" gradientUnits="userSpaceOnUse" xlink:href="#linearGradient3823-4"/><linearGradient id="linearGradient3829-8" x1="252.19" x2="152.685" y1="655.128" y2="657.41" gradientUnits="userSpaceOnUse" xlink:href="#linearGradient3823-2"/><linearGradient id="linearGradient3823-2"><stop id="stop3825-4" offset="0" stop-color="#06989a" stop-opacity="1"/><stop id="stop3827-5" offset="1" stop-color="#34e0e2" stop-opacity="1"/></linearGradient><linearGradient id="linearGradient3847-5" x1="252.19" x2="152.685" y1="655.128" y2="657.41" gradientUnits="userSpaceOnUse" xlink:href="#linearGradient3823-2"/><linearGradient id="linearGradient3829-1" x1="252.19" x2="152.685" y1="655.128" y2="657.41" gradientUnits="userSpaceOnUse" xlink:href="#linearGradient3823-5"/><linearGradient id="linearGradient3823-5"><stop id="stop3825-2" offset="0" stop-color="#06989a" stop-opacity="1"/><stop id="stop3827-7" offset="1" stop-color="#34e0e2" stop-opacity="1"/></linearGradient><linearGradient id="linearGradient3847-6" x1="252.19" x2="152.685" y1="655.128" y2="657.41" gradientUnits="userSpaceOnUse" xlink:href="#linearGradient3823-5"/><linearGradient id="linearGradient3829-12" x1="252.19" x2="152.685" y1="655.128" y2="657.41" gradientUnits="userSpaceOnUse" xlink:href="#linearGradient3823-1"/><linearGradient id="linearGradient3823-1"><stop id="stop3825-49" offset="0" stop-color="#06989a" stop-opacity="1"/><stop id="stop3827-8" offset="1" stop-color="#34e0e2" stop-opacity="1"/></linearGradient><linearGradient id="linearGradient3954" x1="252.19" x2="152.685" y1="655.128" y2="657.41" gradientUnits="userSpaceOnUse" xlink:href="#linearGradient3823-1"/><linearGradient id="linearGradient3829-5" x1="252.19" x2="152.685" y1="655.128" y2="657.41" gradientUnits="userSpaceOnUse" xlink:href="#linearGradient3823-29"/><linearGradient id="linearGradient3823-29"><stop id="stop3825-9" offset="0" stop-color="#06989a" stop-opacity="1"/><stop id="stop3827-83" offset="1" stop-color="#34e0e2" stop-opacity="1"/></linearGradient><linearGradient id="linearGradient3954-8" x1="252.19" x2="152.685" y1="655.128" y2="657.41" gradientUnits="userSpaceOnUse" xlink:href="#linearGradient3823-29"/><linearGradient id="linearGradient3829-86" x1="252.19" x2="152.685" y1="655.128" y2="657.41" gradientUnits="userSpaceOnUse" xlink:href="#linearGradient3823-6"/><linearGradient id="linearGradient3823-6"><stop id="stop3825-23" offset="0" stop-color="#06989a" stop-opacity="1"/><stop id="stop3827-82" offset="1" stop-color="#34e0e2" stop-opacity="1"/></linearGradient><linearGradient id="linearGradient3954-6" x1="252.19" x2="152.685" y1="655.128" y2="657.41" gradientUnits="userSpaceOnUse" xlink:href="#linearGradient3823-6"/></defs><g id="layer1"><g id="g4289" transform="matrix(0.1621282,0,0,0.1621282,6.3605986,-66.108806)"><path id="path4313" fill="none" stroke="#042a2a" stroke-dasharray="none" stroke-dashoffset="0" stroke-linecap="butt" stroke-linejoin="round" stroke-miterlimit="4" stroke-opacity="1" stroke-width="5.594" d="m 50.911688,31.858782 c 0,10.508654 -8.518947,19.027601 -19.027601,19.027601 -10.508654,0 -19.027602,-8.518947 -19.027602,-19.027601 0,-10.508654 8.518948,-19.027601 19.027602,-19.027601 10.508654,0 19.027601,8.518947 19.027601,19.027601 z" color="#000" display="inline" enable-background="accumulate" overflow="visible" transform="matrix(6.6152338,0,0,6.6152339,-52.777954,394.37776)" visibility="visible" style="marker:none"/><path id="path4313-3" fill="none" stroke="#34e0e2" stroke-dasharray="none" stroke-dashoffset="0" stroke-linecap="butt" stroke-linejoin="round" stroke-miterlimit="4" stroke-opacity="1" stroke-width="1.865" d="m 50.911688,31.858782 c 0,10.508654 -8.518947,19.027601 -19.027601,19.027601 -10.508654,0 -19.027602,-8.518947 -19.027602,-19.027601 0,-10.508654 8.518948,-19.027601 19.027602,-19.027601 10.508654,0 19.027601,8.518947 19.027601,19.027601 z" color="#000" display="inline" enable-background="accumulate" overflow="visible" transform="matrix(6.6152338,0,0,6.6152339,-52.777953,394.37777)" visibility="visible" style="marker:none"/><path id="path3162-6-7" fill="url(#linearGradient3829)" fill-opacity="1" fill-rule="nonzero" stroke="#042a2a" stroke-dasharray="none" stroke-dashoffset="0" stroke-linecap="butt" stroke-linejoin="round" stroke-miterlimit="4" stroke-opacity="1" stroke-width="10.796" d="m 245.71428,655.2193 c 0,26.82526 -21.74617,48.57143 -48.57143,48.57143 -26.82526,0 -48.57143,-21.74617 -48.57143,-48.57143 0,-26.82526 21.74617,-48.57143 48.57143,-48.57143 26.82526,0 48.57143,21.74617 48.57143,48.57143 z" color="#000" display="inline" enable-background="accumulate" overflow="visible" transform="matrix(0.22223428,1.1208489,-1.1208491,0.22223424,848.73281,361.9107)" visibility="visible" style="marker:none"/><path id="path3162-6-7-1" fill="none" stroke="#34e0e2" stroke-dasharray="none" stroke-dashoffset="0" stroke-linecap="butt" stroke-linejoin="round" stroke-miterlimit="4" stroke-opacity="1" stroke-width="13.88" d="m 245.71428,655.2193 c 0,26.82526 -21.74617,48.57143 -48.57143,48.57143 -26.82526,0 -48.57143,-21.74617 -48.57143,-48.57143 0,-26.82526 21.74617,-48.57143 48.57143,-48.57143 26.82526,0 48.57143,21.74617 48.57143,48.57143 z" color="#000" display="inline" enable-background="accumulate" overflow="visible" transform="matrix(0.17284887,0.87177139,-0.87177138,0.17284885,695.26827,443.37281)" visibility="visible" style="marker:none"/><path id="path3162-6-7-2" fill="url(#linearGradient3954)" fill-opacity="1" fill-rule="nonzero" stroke="#042a2a" stroke-dasharray="none" stroke-dashoffset="0" stroke-linecap="butt" stroke-linejoin="round" stroke-miterlimit="4" stroke-opacity="1" stroke-width="10.796" d="m 245.71428,655.2193 c 0,26.82526 -21.74617,48.57143 -48.57143,48.57143 -26.82526,0 -48.57143,-21.74617 -48.57143,-48.57143 0,-26.82526 21.74617,-48.57143 48.57143,-48.57143 26.82526,0 48.57143,21.74617 48.57143,48.57143 z" color="#000" display="inline" enable-background="accumulate" overflow="visible" transform="matrix(0.22223426,1.1208489,-1.1208491,0.22223426,972.092,238.55153)" visibility="visible" style="marker:none"/><path id="path3162-6-7-1-4" fill="none" stroke="#34e0e2" stroke-dasharray="none" stroke-dashoffset="0" stroke-linecap="butt" stroke-linejoin="round" stroke-miterlimit="4" stroke-opacity="1" stroke-width="13.88" d="m 245.71428,655.2193 c 0,26.82526 -21.74617,48.57143 -48.57143,48.57143 -26.82526,0 -48.57143,-21.74617 -48.57143,-48.57143 0,-26.82526 21.74617,-48.57143 48.57143,-48.57143 26.82526,0 48.57143,21.74617 48.57143,48.57143 z" color="#000" display="inline" enable-background="accumulate" overflow="visible" transform="matrix(0.17284889,0.87177141,-0.87177135,0.17284883,818.62742,320.01364)" visibility="visible" style="marker:none"/><path id="path3162-6-7-6" fill="url(#linearGradient3954-8)" fill-opacity="1" fill-rule="nonzero" stroke="#042a2a" stroke-dasharray="none" stroke-dashoffset="0" stroke-linecap="butt" stroke-linejoin="round" stroke-miterlimit="4" stroke-opacity="1" stroke-width="10.796" d="m 245.71428,655.2193 c 0,26.82526 -21.74617,48.57143 -48.57143,48.57143 -26.82526,0 -48.57143,-21.74617 -48.57143,-48.57143 0,-26.82526 21.74617,-48.57143 48.57143,-48.57143 26.82526,0 48.57143,21.74617 48.57143,48.57143 z" color="#000" display="inline" enable-background="accumulate" overflow="visible" transform="matrix(0.22223426,1.1208489,-1.1208491,0.22223426,848.73281,115.19236)" visibility="visible" style="marker:none"/><path id="path3162-6-7-1-9" fill="none" stroke="#34e0e2" stroke-dasharray="none" stroke-dashoffset="0" stroke-linecap="butt" stroke-linejoin="round" stroke-miterlimit="4" stroke-opacity="1" stroke-width="13.88" d="m 245.71428,655.2193 c 0,26.82526 -21.74617,48.57143 -48.57143,48.57143 -26.82526,0 -48.57143,-21.74617 -48.57143,-48.57143 0,-26.82526 21.74617,-48.57143 48.57143,-48.57143 26.82526,0 48.57143,21.74617 48.57143,48.57143 z" color="#000" display="inline" enable-background="accumulate" overflow="visible" transform="matrix(0.17284889,0.87177141,-0.87177135,0.17284883,695.26825,196.65448)" visibility="visible" style="marker:none"/><path id="path3162-6-7-27" fill="url(#linearGradient3954-6)" fill-opacity="1" fill-rule="nonzero" stroke="#042a2a" stroke-dasharray="none" stroke-dashoffset="0" stroke-linecap="butt" stroke-linejoin="round" stroke-miterlimit="4" stroke-opacity="1" stroke-width="10.796" d="m 245.71428,655.2193 c 0,26.82526 -21.74617,48.57143 -48.57143,48.57143 -26.82526,0 -48.57143,-21.74617 -48.57143,-48.57143 0,-26.82526 21.74617,-48.57143 48.57143,-48.57143 26.82526,0 48.57143,21.74617 48.57143,48.57143 z" color="#000" display="inline" enable-background="accumulate" overflow="visible" transform="matrix(0.22223426,1.1208489,-1.1208491,0.22223426,725.37364,238.55153)" visibility="visible" style="marker:none"/><path id="path3162-6-7-1-5" fill="none" stroke="#34e0e2" stroke-dasharray="none" stroke-dashoffset="0" stroke-linecap="butt" stroke-linejoin="round" stroke-miterlimit="4" stroke-opacity="1" stroke-width="13.88" d="m 245.71428,655.2193 c 0,26.82526 -21.74617,48.57143 -48.57143,48.57143 -26.82526,0 -48.57143,-21.74617 -48.57143,-48.57143 0,-26.82526 21.74617,-48.57143 48.57143,-48.57143 26.82526,0 48.57143,21.74617 48.57143,48.57143 z" color="#000" display="inline" enable-background="accumulate" overflow="visible" transform="matrix(0.17284889,0.87177141,-0.87177135,0.17284883,571.90908,320.01364)" visibility="visible" style="marker:none"/></g></g><metadata id="metadata6202"/></svg>