<svg xmlns="http://www.w3.org/2000/svg" xmlns:svg="http://www.w3.org/2000/svg" xmlns:xlink="http://www.w3.org/1999/xlink" id="svg2726" width="64" height="64" version="1.1"><defs id="defs2728"><linearGradient id="linearGradient3827"><stop id="stop3829" offset="0" stop-color="#06989a" stop-opacity="1"/><stop id="stop3831" offset="1" stop-color="#34e0e2" stop-opacity="1"/></linearGradient><linearGradient id="linearGradient3819"><stop id="stop3821" offset="0" stop-color="#06989a" stop-opacity="1"/><stop id="stop3823" offset="1" stop-color="#34e0e2" stop-opacity="1"/></linearGradient><linearGradient id="linearGradient3144"><stop id="stop3146" offset="0" stop-color="#fff" stop-opacity="1"/><stop id="stop3148" offset="1" stop-color="#fff" stop-opacity="0"/></linearGradient><radialGradient id="radialGradient3850" cx="225.264" cy="672.797" r="34.345" fx="225.264" fy="672.797" gradientTransform="matrix(1,0,0,0.6985294,0,202.82863)" gradientUnits="userSpaceOnUse" xlink:href="#linearGradient3144"/><radialGradient id="radialGradient3850-2" cx="225.264" cy="672.797" r="34.345" fx="225.264" fy="672.797" gradientTransform="matrix(1,0,0,0.6985294,0,202.82863)" gradientUnits="userSpaceOnUse" xlink:href="#linearGradient3144-7"/><linearGradient id="linearGradient3144-7"><stop id="stop3146-4" offset="0" stop-color="#fff" stop-opacity="1"/><stop id="stop3148-4" offset="1" stop-color="#fff" stop-opacity="0"/></linearGradient><radialGradient id="radialGradient4437" cx="225.264" cy="672.797" r="34.345" fx="225.264" fy="672.797" gradientTransform="matrix(1,0,0,0.6985294,0,202.82863)" gradientUnits="userSpaceOnUse" xlink:href="#linearGradient3144-7"/><linearGradient id="linearGradient3825" x1="188.607" x2="206.728" y1="615.006" y2="690.137" gradientUnits="userSpaceOnUse" xlink:href="#linearGradient3819"/><linearGradient id="linearGradient3833" x1="213.654" x2="102.631" y1="771.666" y2="450.932" gradientUnits="userSpaceOnUse" xlink:href="#linearGradient3827"/></defs><g id="layer1"><g id="g4289" transform="matrix(0.1621282,0,0,0.1621282,6.3605986,-66.108806)"><path id="path4364" fill="url(#linearGradient3833)" fill-opacity="1" fill-rule="nonzero" stroke="#042a2a" stroke-dasharray="none" stroke-dashoffset="0" stroke-linecap="butt" stroke-linejoin="round" stroke-miterlimit="4" stroke-opacity="1" stroke-width="12.336" d="m 158.04599,438.59616 c -92.004046,0 -166.4381056,74.62759 -166.4381056,166.63164 0,92.00406 74.4340596,166.43812 166.4381056,166.43812 92.00406,0 166.63165,-74.43406 166.63165,-166.43812 0,-92.00405 -74.62759,-166.63164 -166.63165,-166.63164 z m 0.0968,61.67958 c 60.62343,0 104.8553,44.23189 104.8553,104.8553 0,60.62344 -44.23187,104.85529 -104.8553,104.85529 -60.623416,0 -104.855291,-44.23185 -104.855291,-104.85529 0,-60.62341 44.231875,-104.8553 104.855291,-104.8553 z" color="#000" display="inline" enable-background="accumulate" overflow="visible" visibility="visible" style="marker:none"/><path id="path3162" fill="url(#linearGradient3825)" fill-opacity="1" fill-rule="nonzero" stroke="#042a2a" stroke-dasharray="none" stroke-dashoffset="0" stroke-linecap="butt" stroke-linejoin="round" stroke-miterlimit="4" stroke-opacity="1" stroke-width="10.796" d="m 245.71428,655.2193 c 0,26.82526 -21.74617,48.57143 -48.57143,48.57143 -26.82526,0 -48.57143,-21.74617 -48.57143,-48.57143 0,-26.82526 21.74617,-48.57143 48.57143,-48.57143 26.82526,0 48.57143,21.74617 48.57143,48.57143 z" color="#000" display="inline" enable-background="accumulate" overflow="visible" transform="matrix(-1.1208489,0.22223427,-0.22223425,-1.120849,524.72228,1295.721)" visibility="visible" style="marker:none"/><path id="path3162-1" fill="none" stroke="#34e0e2" stroke-dasharray="none" stroke-dashoffset="0" stroke-linecap="butt" stroke-linejoin="round" stroke-miterlimit="4" stroke-opacity="1" stroke-width="3.886" d="m 245.71428,655.2193 c 0,26.82526 -21.74617,48.57143 -48.57143,48.57143 -26.82526,0 -48.57143,-21.74617 -48.57143,-48.57143 0,-26.82526 21.74617,-48.57143 48.57143,-48.57143 26.82526,0 48.57143,21.74617 48.57143,48.57143 z" color="#000" display="inline" enable-background="accumulate" overflow="visible" transform="matrix(-3.1134692,0.61731735,-0.61731739,-3.1134692,1176.4192,2523.4365)" visibility="visible" style="marker:none"/><path id="path3162-1-7" fill="none" stroke="#34e0e2" stroke-dasharray="none" stroke-dashoffset="0" stroke-linecap="butt" stroke-linejoin="round" stroke-miterlimit="4" stroke-opacity="1" stroke-width="5.114" d="m 245.71428,655.2193 c 0,26.82526 -21.74617,48.57143 -48.57143,48.57143 -26.82526,0 -48.57143,-21.74617 -48.57143,-48.57143 0,-26.82526 21.74617,-48.57143 48.57143,-48.57143 26.82526,0 48.57143,21.74617 48.57143,48.57143 z" color="#000" display="inline" enable-background="accumulate" overflow="visible" transform="matrix(-2.3662365,0.46916121,-0.46916122,-2.3662368,932.03287,2063.0433)" visibility="visible" style="marker:none"/><path id="path3162-1-7-4" fill="none" stroke="#34e0e2" stroke-dasharray="none" stroke-dashoffset="0" stroke-linecap="butt" stroke-linejoin="round" stroke-miterlimit="4" stroke-opacity="1" stroke-width="13.88" d="m 245.71428,655.2193 c 0,26.82526 -21.74617,48.57143 -48.57143,48.57143 -26.82526,0 -48.57143,-21.74617 -48.57143,-48.57143 0,-26.82526 21.74617,-48.57143 48.57143,-48.57143 26.82526,0 48.57143,21.74617 48.57143,48.57143 z" color="#000" display="inline" enable-background="accumulate" overflow="visible" transform="matrix(-0.87177137,0.17284887,-0.17284887,-0.87177148,443.26017,1142.2566)" visibility="visible" style="marker:none"/></g></g><metadata id="metadata6233"/></svg>