<svg xmlns="http://www.w3.org/2000/svg" xmlns:svg="http://www.w3.org/2000/svg" xmlns:xlink="http://www.w3.org/1999/xlink" id="svg249" width="64" height="64" version="1.1"><defs id="defs3"><linearGradient id="linearGradient5048"><stop id="stop5050" offset="0" stop-color="#000" stop-opacity="0"/><stop id="stop5056" offset=".5" stop-color="#000" stop-opacity="1"/><stop id="stop5052" offset="1" stop-color="#000" stop-opacity="0"/></linearGradient><linearGradient id="linearGradient4542"><stop id="stop4544" offset="0" stop-color="#000" stop-opacity="1"/><stop id="stop4546" offset="1" stop-color="#000" stop-opacity="0"/></linearGradient><radialGradient id="radialGradient4548" cx="24.307" cy="42.078" r="15.822" fx="24.307" fy="42.078" gradientTransform="matrix(1,0,0,0.284916,0,30.08928)" gradientUnits="userSpaceOnUse" xlink:href="#linearGradient4542"/><linearGradient id="linearGradient15662"><stop id="stop15664" offset="0" stop-color="#fff" stop-opacity="1"/><stop id="stop15666" offset="1" stop-color="#f8f8f8" stop-opacity="1"/></linearGradient><radialGradient id="aigrd3" cx="20.892" cy="64.568" r="5.257" fx="20.892" fy="64.568" gradientUnits="userSpaceOnUse"><stop id="stop15573" offset="0" stop-color="#F0F0F0"/><stop id="stop15575" offset="1" stop-color="#9a9a9a" stop-opacity="1"/></radialGradient><radialGradient id="aigrd2" cx="20.892" cy="114.568" r="5.256" fx="20.892" fy="114.568" gradientUnits="userSpaceOnUse"><stop id="stop15566" offset="0" stop-color="#F0F0F0"/><stop id="stop15568" offset="1" stop-color="#9a9a9a" stop-opacity="1"/></radialGradient><linearGradient id="linearGradient269"><stop id="stop270" offset="0" stop-color="#a3a3a3" stop-opacity="1"/><stop id="stop271" offset="1" stop-color="#4c4c4c" stop-opacity="1"/></linearGradient><linearGradient id="linearGradient259"><stop id="stop260" offset="0" stop-color="#fafafa" stop-opacity="1"/><stop id="stop261" offset="1" stop-color="#bbb" stop-opacity="1"/></linearGradient><linearGradient id="linearGradient12512"><stop id="stop12513" offset="0" stop-color="#fff" stop-opacity="1"/><stop id="stop12517" offset=".5" stop-color="#fff520" stop-opacity=".891"/><stop id="stop12514" offset="1" stop-color="#fff300" stop-opacity="0"/></linearGradient><linearGradient id="linearGradient3781-9" x1="52" x2="12" y1="34" y2="44" gradientTransform="translate(-16.000004,-64)" gradientUnits="userSpaceOnUse" xlink:href="#linearGradient3775-1"/><linearGradient id="linearGradient3775-1"><stop id="stop3777-2" offset="0" stop-color="#d3d7cf" stop-opacity="1"/><stop id="stop3779-7" offset="1" stop-color="#fff" stop-opacity="1"/></linearGradient><radialGradient id="radialGradient278-3" cx="55" cy="125" r="14.375" fx="55" fy="125" gradientTransform="matrix(1.0434782,0,0,1.0434782,-8.391304,-131.43091)" gradientUnits="userSpaceOnUse" xlink:href="#linearGradient12512-6"/><linearGradient id="linearGradient12512-6"><stop id="stop12513-7" offset="0" stop-color="#fff" stop-opacity="1"/><stop id="stop12517-5" offset=".5" stop-color="#fff520" stop-opacity=".891"/><stop id="stop12514-3" offset="1" stop-color="#fff300" stop-opacity="0"/></linearGradient></defs><metadata id="metadata4"/><g id="layer6" transform="translate(0,16)"><rect id="rect2987" width="46" height="58" x="-7" y="-61" fill="#d3d7cf" fill-opacity="1" stroke="#2e3436" stroke-dasharray="none" stroke-dashoffset="0" stroke-linecap="round" stroke-linejoin="round" stroke-miterlimit="4" stroke-opacity="1" stroke-width="2" display="inline" transform="matrix(0,1,-1,0,0,0)"/><rect id="rect2987-1" width="42" height="54" x="-5" y="-59" fill="url(#linearGradient3781-9)" fill-opacity="1" stroke="#fff" stroke-dasharray="none" stroke-dashoffset="0" stroke-linecap="round" stroke-linejoin="miter" stroke-miterlimit="4" stroke-opacity="1" stroke-width="2" display="inline" transform="matrix(0,1,-1,0,0,0)"/><g id="text3093" fill="#2e3436" fill-opacity="1" stroke="none" font-family="Sans" font-size="40.167" font-stretch="normal" font-style="normal" font-variant="normal" font-weight="normal" letter-spacing="0" transform="matrix(0.87216211,0,0,1.25081,-0.5454545,0)" word-spacing="0" style="line-height:125%;-inkscape-font-specification:Clean"><path id="path3191" fill="#2e3436" d="m 20.920054,1.2345772 -5.420502,14.7550618 10.767458,0 -5.346956,-14.7550618 m -3.408714,-4.4325049 6.25405,0 11.25729,30.3803137 -5.00324,0 -2.50162,-7.99482 -13.199453,0 -1.810267,7.99482 -5.00324,0 10.00648,-30.3803137"/></g><g id="text3359" fill="#2e3436" fill-opacity="1" stroke="none" font-family="Sans" font-size="50.241" font-stretch="normal" font-style="normal" font-variant="normal" font-weight="normal" letter-spacing="0" transform="translate(60,0)" word-spacing="0" style="line-height:125%;-inkscape-font-specification:Clean"><path id="path3364" fill="#2e3436" d="m -11.44093,13.540351 c 2.3713997,0.507013 4.2194718,1.561886 5.5442219,3.164622 1.341053,1.602769 2.0115924,3.581678 2.0116203,5.936733 -2.79e-5,3.614382 -1.2429791,6.411022 -3.7288571,8.389928 C -10.099871,33.010546 -13.632469,34 -18.211749,34.000001 -19.749097,34 -21.335496,33.844631 -22.970949,33.533894 -24.590065,33.23951 -26.266415,32.605122 -28,32 l 0,-5 c 1.373784,0.801382 2.87841,1.807408 4.51388,2.21627 1.635454,0.408869 3.344512,0.613302 5.127179,0.613299 3.107364,3e-6 5.470607,-0.613295 7.089735,-1.839897 1.6354413,-1.226591 2.4531723,-3.009245 2.4531953,-5.347966 -2.3e-5,-2.158799 -0.7605129,-3.843325 -2.2814723,-5.053583 C -12.602128,16.361542 -15.033616,16.060314 -17.73144,16 L -22,16 l 0,-4 4.464816,0 c 2.436824,0 4.630495,-0.806518 5.92253,-1.771463 1.291995,-0.9812545 1.9380027,-2.3877519 1.9380249,-4.2194966 -2.22e-5,-1.8807541 -0.6705619,-3.3199607 -2.0116199,-4.3176241 -1.324745,-1.01395485 -3.230058,-1.52094808 -5.715946,-1.5209812 -1.357448,3.312e-5 -2.813009,0.1472247 -4.366688,0.44157519 C -23.322582,0.90642613 -24.135579,1.3785557 -26,2 l 0,-4.4157519 c 1.880776,-0.5233121 2.742837,-0.9300232 4.378309,-1.191734 1.651806,-0.2616371 3.205495,-0.392474 4.661071,-0.3925113 3.761548,3.73e-5 6.738089,0.8586548 8.9296318,2.5758552 2.1914954,1.70091525 3.2872549,4.0069167 3.287282,6.9180113 -2.71e-5,2.0280007 -0.5806161,3.7452358 -1.7417688,5.1517107 -1.1612034,1.390165 -2.81302,2.355088 -4.955455,2.894771"/></g><path id="path12511" fill="url(#radialGradient278-3)" fill-opacity="1" fill-rule="nonzero" stroke="none" stroke-width="1.25" d="m 64,-0.996127 a 15,15 0 0 1 -30,0 15,15 0 1 1 30,0 z" color="#000" display="block" visibility="visible" style="marker:none"/></g></svg>