<svg xmlns="http://www.w3.org/2000/svg" xmlns:svg="http://www.w3.org/2000/svg" xmlns:xlink="http://www.w3.org/1999/xlink" id="svg2160" width="64" height="64" version="1.0"><metadata id="metadata8"/><defs id="defs2162"><linearGradient id="linearGradient3900"><stop id="stop3902" offset="0" stop-color="#c4a000" stop-opacity="1"/><stop id="stop3904" offset="1" stop-color="#fce94f" stop-opacity="1"/></linearGradient><linearGradient id="linearGradient3775"><stop id="stop3777" offset="0" stop-color="#d3d7cf" stop-opacity="1"/><stop id="stop3779" offset="1" stop-color="#fff" stop-opacity="1"/></linearGradient><linearGradient id="linearGradient3781" x1="10" x2="53" y1="40" y2="26" gradientTransform="translate(-64,3.8146973e-6)" gradientUnits="userSpaceOnUse" xlink:href="#linearGradient3775"/><linearGradient id="linearGradient3895"><stop id="stop3897" offset="0" stop-color="#729fcf" stop-opacity="1"/><stop id="stop3899" offset="1" stop-color="#204a87" stop-opacity="1"/></linearGradient><linearGradient id="linearGradient3036" x1="56.172" x2="21.69" y1="29.28" y2="36.08" gradientTransform="matrix(0,-1.4500001,1.4705882,0,-15.05882,91.45)" gradientUnits="userSpaceOnUse" xlink:href="#linearGradient3895"/><linearGradient id="linearGradient3253-6-5"><stop id="stop3255-8-4" offset="0" stop-color="#89d5f8" stop-opacity="1"/><stop id="stop3257-7-9" offset="1" stop-color="#00899e" stop-opacity="1"/></linearGradient><radialGradient id="radialGradient3270-0-1" cx="83.59" cy="32.602" r="27.987" fx="83.59" fy="32.602" gradientTransform="matrix(1.2166851,1.0433407,-0.52714011,0.61472119,-73.012055,-80.803852)" gradientUnits="userSpaceOnUse" xlink:href="#linearGradient3253-6-5"/><radialGradient id="radialGradient3337" cx="10.328" cy="25.129" r="27.987" fx="10.328" fy="25.129" gradientTransform="matrix(0.9781457,0.0053484,-0.00460223,0.8416912,-2.1599239,-18.716253)" gradientUnits="userSpaceOnUse" xlink:href="#linearGradient3253-6"/><linearGradient id="linearGradient3253-6"><stop id="stop3255-8" offset="0" stop-color="#89d5f8" stop-opacity="1"/><stop id="stop3257-7" offset="1" stop-color="#00899e" stop-opacity="1"/></linearGradient><radialGradient id="radialGradient3293" cx="10.328" cy="25.129" r="27.987" fx="10.328" fy="25.129" gradientTransform="matrix(0.9781457,0.0053484,-0.00460223,0.8416912,-69.025653,-0.11788499)" gradientUnits="userSpaceOnUse" xlink:href="#linearGradient3253"/><linearGradient id="linearGradient3270" x1="1669.731" x2="2067.17" y1="1726.059" y2="1726.059" gradientTransform="matrix(0.9135837,0,0,0.9135837,138.63723,130.60625)" gradientUnits="userSpaceOnUse" xlink:href="#linearGradient3393"/><linearGradient id="linearGradient3393"><stop id="stop3395" offset="0" stop-color="#003ddd" stop-opacity="1"/><stop id="stop3397" offset="1" stop-color="#639ef0" stop-opacity="1"/></linearGradient><linearGradient id="linearGradient3399" x1="1669.731" x2="2067.17" y1="1726.059" y2="1726.059" gradientTransform="matrix(0.9135837,0,0,0.9135837,138.63723,130.60625)" gradientUnits="userSpaceOnUse" xlink:href="#linearGradient3393"/><radialGradient id="radialGradient6822" cx="33.37" cy="51.929" r="25.199" fx="33.37" fy="51.929" gradientTransform="matrix(1.1581633,0,0,0.6558985,-7.29237,16.126077)" gradientUnits="userSpaceOnUse" xlink:href="#linearGradient6816"/><linearGradient id="linearGradient6781"><stop id="stop6783" offset="0" stop-color="#fff" stop-opacity="1"/><stop id="stop6785" offset="1" stop-color="#3465a4" stop-opacity="0"/></linearGradient><linearGradient id="linearGradient6816"><stop id="stop6818" offset="0" stop-color="#000" stop-opacity="1"/><stop id="stop6820" offset="1" stop-color="#000" stop-opacity="0"/></linearGradient><radialGradient id="radialGradient3270" cx="10.328" cy="25.129" r="27.987" fx="10.328" fy="25.129" gradientTransform="matrix(0.9781457,0.0053484,-0.00460223,0.8416912,-69.025653,-0.11788499)" gradientUnits="userSpaceOnUse" xlink:href="#linearGradient3253"/><linearGradient id="linearGradient3253"><stop id="stop3255" offset="0" stop-color="#89d5f8" stop-opacity="1"/><stop id="stop3257" offset="1" stop-color="#00899e" stop-opacity="1"/></linearGradient><linearGradient id="linearGradient3806"><stop id="stop3808" offset="0" stop-color="#8ae234" stop-opacity="1"/><stop id="stop3810" offset="1" stop-color="#4e9a06" stop-opacity="1"/></linearGradient><linearGradient id="linearGradient3781-3" x1="10" x2="53" y1="40" y2="26" gradientTransform="translate(-64,3.7403954e-6)" gradientUnits="userSpaceOnUse" xlink:href="#linearGradient3775-6"/><linearGradient id="linearGradient3775-6"><stop id="stop3777-7" offset="0" stop-color="#d3d7cf" stop-opacity="1"/><stop id="stop3779-5" offset="1" stop-color="#fff" stop-opacity="1"/></linearGradient><linearGradient id="linearGradient3043" x1="22" x2="15" y1="33" y2="19" gradientUnits="userSpaceOnUse" xlink:href="#linearGradient3900"/></defs><rect id="rect2987" width="46" height="58" x="-55" y="3" fill="#d3d7cf" fill-opacity="1" stroke="#2e3436" stroke-dasharray="none" stroke-dashoffset="0" stroke-linecap="round" stroke-linejoin="round" stroke-miterlimit="4" stroke-opacity="1" stroke-width="2" transform="matrix(0,-1,1,0,0,0)"/><rect id="rect2987-1" width="42" height="54" x="-53" y="5" fill="url(#linearGradient3781-3)" fill-opacity="1" stroke="#fff" stroke-dasharray="none" stroke-dashoffset="0" stroke-linecap="round" stroke-linejoin="miter" stroke-miterlimit="4" stroke-opacity="1" stroke-width="2" transform="matrix(0,-1,1,0,0,0)"/><g id="g3039" transform="matrix(1.7272727,0,0,1.7272727,-9.5454545,-13.909091)"><path id="path3112" fill="url(#linearGradient3043)" fill-opacity="1" stroke="#302b00" stroke-dasharray="none" stroke-dashoffset=".6" stroke-linecap="round" stroke-linejoin="round" stroke-miterlimit="4" stroke-opacity="1" stroke-width="1.111" d="m 30,26 c 0,5.522847 -4.477153,10 -10,10 -5.522847,0 -10,-4.477153 -10,-10 0,-5.522847 4.477153,-10 10,-10 5.522847,0 10,4.477153 10,10 z" transform="matrix(1.0421053,0,0,1.0421053,-0.84210574,-1.0947374)"/><path id="path3112-3" fill="none" stroke="#fce94f" stroke-dasharray="none" stroke-dashoffset=".6" stroke-linecap="round" stroke-linejoin="round" stroke-miterlimit="4" stroke-opacity="1" stroke-width="1.25" d="m 30,26 c 0,5.522847 -4.477153,10 -10,10 -5.522847,0 -10,-4.477153 -10,-10 0,-5.522847 4.477153,-10 10,-10 5.522847,0 10,4.477153 10,10 z" transform="matrix(0.9263158,0,0,0.9263158,1.4736842,1.9157896)"/><path id="path3045" fill="#302b00" fill-opacity="1" stroke="none" d="m 20,24 c 0,1.104569 -0.895431,2 -2,2 -1.104569,0 -2,-0.895431 -2,-2 0,-1.104569 0.895431,-2 2,-2 1.104569,0 2,0.895431 2,2 z" transform="matrix(0.86842105,0,0,0.86842107,0.89473714,1.6842106)"/><path id="path3065" fill="none" stroke="#302b00" stroke-linecap="round" stroke-linejoin="miter" stroke-opacity="1" stroke-width="1.158" d="m 14.210527,28.31579 c 3.473684,4.631579 8.105263,4.631579 11.578947,0"/><path id="path3045-6" fill="#302b00" fill-opacity="1" stroke="none" d="m 20,24 c 0,1.104569 -0.895431,2 -2,2 -1.104569,0 -2,-0.895431 -2,-2 0,-1.104569 0.895431,-2 2,-2 1.104569,0 2,0.895431 2,2 z" transform="matrix(0.86842107,0,0,0.86842107,7.8421055,1.6842105)"/></g></svg>