<svg xmlns="http://www.w3.org/2000/svg" xmlns:svg="http://www.w3.org/2000/svg" xmlns:xlink="http://www.w3.org/1999/xlink" id="svg249" width="64" height="64" version="1.1"><defs id="defs3"><linearGradient id="linearGradient5048"><stop id="stop5050" offset="0" stop-color="#000" stop-opacity="0"/><stop id="stop5056" offset=".5" stop-color="#000" stop-opacity="1"/><stop id="stop5052" offset="1" stop-color="#000" stop-opacity="0"/></linearGradient><linearGradient id="linearGradient4542"><stop id="stop4544" offset="0" stop-color="#000" stop-opacity="1"/><stop id="stop4546" offset="1" stop-color="#000" stop-opacity="0"/></linearGradient><radialGradient id="radialGradient4548" cx="24.307" cy="42.078" r="15.822" fx="24.307" fy="42.078" gradientTransform="matrix(1,0,0,0.284916,0,30.08928)" gradientUnits="userSpaceOnUse" xlink:href="#linearGradient4542"/><linearGradient id="linearGradient15662"><stop id="stop15664" offset="0" stop-color="#fff" stop-opacity="1"/><stop id="stop15666" offset="1" stop-color="#f8f8f8" stop-opacity="1"/></linearGradient><radialGradient id="aigrd3" cx="20.892" cy="64.568" r="5.257" fx="20.892" fy="64.568" gradientUnits="userSpaceOnUse"><stop id="stop15573" offset="0" stop-color="#F0F0F0"/><stop id="stop15575" offset="1" stop-color="#9a9a9a" stop-opacity="1"/></radialGradient><radialGradient id="aigrd2" cx="20.892" cy="114.568" r="5.256" fx="20.892" fy="114.568" gradientUnits="userSpaceOnUse"><stop id="stop15566" offset="0" stop-color="#F0F0F0"/><stop id="stop15568" offset="1" stop-color="#9a9a9a" stop-opacity="1"/></radialGradient><linearGradient id="linearGradient269"><stop id="stop270" offset="0" stop-color="#a3a3a3" stop-opacity="1"/><stop id="stop271" offset="1" stop-color="#4c4c4c" stop-opacity="1"/></linearGradient><linearGradient id="linearGradient259"><stop id="stop260" offset="0" stop-color="#fafafa" stop-opacity="1"/><stop id="stop261" offset="1" stop-color="#bbb" stop-opacity="1"/></linearGradient><linearGradient id="linearGradient12512"><stop id="stop12513" offset="0" stop-color="#fff" stop-opacity="1"/><stop id="stop12517" offset=".5" stop-color="#fff520" stop-opacity=".891"/><stop id="stop12514" offset="1" stop-color="#fff300" stop-opacity="0"/></linearGradient><linearGradient id="linearGradient3781-9" x1="52" x2="12" y1="34" y2="44" gradientTransform="translate(-16.000004,-64)" gradientUnits="userSpaceOnUse" xlink:href="#linearGradient3775-1"/><linearGradient id="linearGradient3775-1"><stop id="stop3777-2" offset="0" stop-color="#d3d7cf" stop-opacity="1"/><stop id="stop3779-7" offset="1" stop-color="#fff" stop-opacity="1"/></linearGradient><radialGradient id="radialGradient278-3" cx="55" cy="125" r="14.375" fx="55" fy="125" gradientTransform="matrix(1.0434782,0,0,1.0434782,-8.391304,-131.43091)" gradientUnits="userSpaceOnUse" xlink:href="#linearGradient12512-6"/><linearGradient id="linearGradient12512-6"><stop id="stop12513-7" offset="0" stop-color="#fff" stop-opacity="1"/><stop id="stop12517-5" offset=".5" stop-color="#fff520" stop-opacity=".891"/><stop id="stop12514-3" offset="1" stop-color="#fff300" stop-opacity="0"/></linearGradient></defs><metadata id="metadata4"/><g id="layer6" transform="translate(0,16)"><rect id="rect2987" width="46" height="58" x="-7" y="-61" fill="#d3d7cf" fill-opacity="1" stroke="#2e3436" stroke-dasharray="none" stroke-dashoffset="0" stroke-linecap="round" stroke-linejoin="round" stroke-miterlimit="4" stroke-opacity="1" stroke-width="2" display="inline" transform="matrix(0,1,-1,0,0,0)"/><rect id="rect2987-1" width="42" height="54" x="-5" y="-59" fill="url(#linearGradient3781-9)" fill-opacity="1" stroke="#fff" stroke-dasharray="none" stroke-dashoffset="0" stroke-linecap="round" stroke-linejoin="miter" stroke-miterlimit="4" stroke-opacity="1" stroke-width="2" display="inline" transform="matrix(0,1,-1,0,0,0)"/><g id="text3093" fill="#000" fill-opacity="1" stroke="none" font-family="Sans" font-size="40.167" font-stretch="normal" font-style="normal" font-variant="normal" font-weight="normal" letter-spacing="0" transform="scale(0.79948194,1.25081)" word-spacing="0" style="line-height:125%;-inkscape-font-specification:Clean"><path id="path3191" fill="#2e3436" d="m 22.139617,1.2345772 -5.913275,14.7550618 11.746318,0 -5.833043,-14.7550618 m -3.718597,-4.4325049 6.8226,0 12.28068,30.3803137 -5.45808,0 -2.72904,-7.99482 -14.399403,0 -1.974837,7.99482 -5.45808,0 10.91616,-30.3803137"/><path id="path3193" fill="#2e3436" d="m 50.032397,-0.05987132 c -2.016819,2.668e-5 -3.535889,1.00681896 -4.557213,3.02037982 -1.008412,2.000533 -1.512614,5.0143722 -1.512608,9.0415265 -6e-6,4.014109 0.504196,7.027948 1.512608,9.041527 1.021324,2.000515 2.540394,3.00077 4.557213,3.000767 2.029724,3e-6 3.548794,-1.000252 4.557215,-3.000767 1.021315,-2.013579 1.738998,-5.037224 1.739017,-9.051333 C 56.32861,7.9650747 55.610927,4.9610415 54.589612,2.9605085 53.581191,0.94694764 52.062121,-0.05984464 50.032397,-0.05987132 m 0,-3.13805698 c 3.24498,2.98e-5 5.720741,1.3010146 7.42729,3.90295838 1.719438,2.58892032 2.579166,6.35458492 2.579189,11.29700492 -2.3e-5,4.929374 -0.859751,8.695039 -2.579189,11.297005 -1.706549,2.588898 -4.18231,3.883345 -7.42729,3.883346 -3.245004,-1e-6 -5.727228,-1.294448 -7.44668,-3.883346 -1.706535,-2.601966 -2.5598,-6.367631 -2.559797,-11.297005 -3e-6,-4.94242 0.853262,-8.7080846 2.559797,-11.29700492 1.719452,-2.60194378 4.201676,-3.90292858 7.44668,-3.90295838"/></g><path id="path12511" fill="url(#radialGradient278-3)" fill-opacity="1" fill-rule="nonzero" stroke="none" stroke-width="1.25" d="m 64,-0.996127 a 15,15 0 0 1 -30,0 15,15 0 1 1 30,0 z" color="#000" display="block" visibility="visible" style="marker:none"/></g></svg>