<svg xmlns="http://www.w3.org/2000/svg" xmlns:svg="http://www.w3.org/2000/svg" xmlns:xlink="http://www.w3.org/1999/xlink" id="svg2568" width="64" height="64" version="1.1"><title id="title3032">MeshWorkbench</title><defs id="defs2570"><linearGradient id="linearGradient3864"><stop id="stop3866" offset="0" stop-color="#71f873" stop-opacity="1"/><stop id="stop3868" offset="1" stop-color="#009520" stop-opacity="1"/></linearGradient><radialGradient id="radialGradient3552" cx="48.646" cy="25.149" r="19.571" fx="48.646" fy="25.149" gradientUnits="userSpaceOnUse" xlink:href="#linearGradient3864"/><linearGradient id="linearGradient3593"><stop id="stop3595" offset="0" stop-color="#c8f9d7" stop-opacity="1"/><stop id="stop3597" offset="1" stop-color="#63ca72" stop-opacity="1"/></linearGradient><radialGradient id="radialGradient3599" cx="51.638" cy="24.963" r="19.571" fx="51.638" fy="24.963" gradientUnits="userSpaceOnUse" xlink:href="#linearGradient3593"/><radialGradient id="radialGradient3169" cx="25.188" cy="41.625" r="18.063" fx="25.188" fy="41.625" gradientTransform="matrix(1,0,0,0.32526,0,28.08607)" gradientUnits="userSpaceOnUse" xlink:href="#linearGradient2269-0"/><linearGradient id="linearGradient2269-0"><stop id="stop2271-4" offset="0" stop-color="#000" stop-opacity="1"/><stop id="stop2273-87" offset="1" stop-color="#000" stop-opacity="0"/></linearGradient><radialGradient id="radialGradient3026" cx="25.188" cy="41.625" r="18.063" fx="25.188" fy="41.625" gradientTransform="matrix(1,0,0,0.32526,0,28.08607)" gradientUnits="userSpaceOnUse" xlink:href="#linearGradient2269-0"/></defs><metadata id="metadata2573"/><g id="layer1"><path id="path2267" fill="url(#radialGradient3026)" fill-opacity="1" fill-rule="evenodd" stroke="none" stroke-width="1" d="m 43.25,41.625 a 18.0625,5.875 0 1 1 -36.125,0 18.0625,5.875 0 1 1 36.125,0 z" color="#000" display="inline" opacity=".267" overflow="visible" transform="matrix(1.6349796,0,0,1.0662685,-9.1810487,12.352246)" visibility="visible" style="marker:none"/><path id="path3007-3" fill="#8ae234" stroke="none" d="M 33,5 51,13 19,9 33,5"/><path id="path3009-6" fill="#8ae234" stroke="none" d="M 19,9 9,19 51,13 z"/><path id="path3011-7" fill="#73d216" stroke="none" d="M 51,13 57,33 9,19 51,13"/><path id="path3851" fill="none" stroke="#8ae234" stroke-linecap="butt" stroke-linejoin="miter" stroke-opacity="1" stroke-width="2" d="M 12,18 56,31"/><path id="path3013-5" fill="#73d216" stroke="none" d="M 57,33 7,33 9,19 z"/><path id="path3853" fill="none" stroke="#8ae234" stroke-linecap="butt" stroke-linejoin="miter" stroke-opacity="1" stroke-width="2" d="M 55,32 49,13"/><path id="path3845" fill="none" stroke="#8ae234" stroke-linecap="butt" stroke-linejoin="miter" stroke-opacity="1" stroke-width="2" d="m 8,31 42,0"/><path id="path3855" fill="none" stroke="#8ae234" stroke-linecap="butt" stroke-linejoin="miter" stroke-opacity="1" stroke-width="2" d="M 16,20 51,15"/><path id="path3015-3" fill="#4e9a06" stroke="none" d="M 7,33 49,49 57,33 z"/><path id="path3847" fill="none" stroke="#8ae234" stroke-linecap="butt" stroke-linejoin="miter" stroke-opacity="1" stroke-width="2" d="M 49,33 9,21"/><path id="path3839" fill="none" stroke="#73d216" stroke-linecap="butt" stroke-linejoin="miter" stroke-opacity="1" stroke-width="2" d="M 48,47 55,33"/><path id="path3849" fill="none" stroke="#8ae234" stroke-linecap="butt" stroke-linejoin="miter" stroke-opacity="1" stroke-width="2" d="M 11,20 9,33"/><path id="path3017-5" fill="#4e9a06" stroke="none" d="M 49,49 13,47 7,33 z"/><path id="path3841" fill="none" stroke="#73d216" stroke-linecap="butt" stroke-linejoin="miter" stroke-opacity="1" stroke-width="2" d="M 56,35 13,35"/><path id="path3833" fill="none" stroke="#73d216" stroke-linecap="butt" stroke-linejoin="miter" stroke-opacity="1" stroke-width="2" d="M 43,47 12,45"/><path id="path3843" fill="none" stroke="#73d216" stroke-linecap="butt" stroke-linejoin="miter" stroke-opacity="1" stroke-width="2" d="M 13,34 49,47"/><path id="path3019-6" fill="#4e9a06" stroke="none" d="M 49,49 33,55 13,47 z"/><path id="path3835" fill="none" stroke="#73d216" stroke-linecap="butt" stroke-linejoin="miter" stroke-opacity="1" stroke-width="2" d="M 15,47 9,34"/><path id="path3827" fill="none" stroke="#73d216" stroke-linecap="butt" stroke-linejoin="miter" stroke-opacity="1" stroke-width="2" d="m 19,48 16,6"/><path id="path3837" fill="none" stroke="#73d216" stroke-linecap="butt" stroke-linejoin="miter" stroke-opacity="1" stroke-width="2" d="M 8,35 41,48"/><path id="path3007" fill="none" stroke="#172a04" stroke-linecap="round" stroke-linejoin="round" stroke-opacity="1" stroke-width="2" d="M 33,5 51,13 19,9 33,5"/><path id="path3009" fill="none" stroke="#172a04" stroke-linecap="round" stroke-linejoin="round" stroke-opacity="1" stroke-width="2" d="M 19,9 9,19 51,13 z"/><path id="path3011" fill="none" stroke="#172a04" stroke-linecap="round" stroke-linejoin="round" stroke-opacity="1" stroke-width="2" d="M 51,13 57,33 9,19 51,13"/><path id="path3013" fill="none" stroke="#172a04" stroke-linecap="round" stroke-linejoin="round" stroke-opacity="1" stroke-width="2" d="M 57,33 7,33 9,19 z"/><path id="path3015" fill="none" stroke="#172a04" stroke-linecap="round" stroke-linejoin="round" stroke-opacity="1" stroke-width="2" d="M 7,33 49,49 57,33 z"/><path id="path3829" fill="none" stroke="#73d216" stroke-linecap="butt" stroke-linejoin="miter" stroke-opacity="1" stroke-width="2" d="M 31,54 45,49"/><path id="path3017" fill="none" stroke="#172a04" stroke-linecap="round" stroke-linejoin="round" stroke-opacity="1" stroke-width="2" d="M 49,49 13,47 7,33 z"/><path id="path3831" fill="none" stroke="#73d216" stroke-linecap="butt" stroke-linejoin="miter" stroke-opacity="1" stroke-width="2" d="m 19,49 26,1"/><path id="path3019" fill="none" stroke="#172a04" stroke-linecap="round" stroke-linejoin="round" stroke-opacity="1" stroke-width="2" d="M 49,49 33,55 13,47 z"/></g></svg>