<svg xmlns="http://www.w3.org/2000/svg" xmlns:svg="http://www.w3.org/2000/svg" xmlns:xlink="http://www.w3.org/1999/xlink" id="svg3097" width="64" height="64" version="1.1"><title id="title3739">Mesh_Import_Mesh</title><defs id="defs3099"><linearGradient id="linearGradient4081"><stop id="stop4083" offset="0" stop-color="#ef2929" stop-opacity="1"/><stop id="stop4085" offset="1" stop-color="#a40000" stop-opacity="1"/></linearGradient><linearGradient id="linearGradient3193-8"><stop id="stop3195-6" offset="0" stop-color="#8ae234" stop-opacity="1"/><stop id="stop3197-4" offset="1" stop-color="#4e9a06" stop-opacity="1"/></linearGradient><linearGradient id="linearGradient3013-7" x1="21.956" x2="12.024" y1="55.424" y2="32.91" gradientTransform="matrix(-0.99998269,0.00588453,-0.00588453,-0.99998269,46.851483,72.745975)" gradientUnits="userSpaceOnUse" xlink:href="#linearGradient3193-8-4"/><linearGradient id="linearGradient3193-8-4"><stop id="stop3195-6-8" offset="0" stop-color="#68ff00" stop-opacity="1"/><stop id="stop3197-4-8" offset="1" stop-color="#078b00" stop-opacity="1"/></linearGradient><linearGradient id="linearGradient4062-2" x1="35.528" x2="29.622" y1="46.625" y2="30.59" gradientTransform="matrix(-0.99998269,0.00588453,-0.00588453,-0.99998269,47.801526,90.414925)" gradientUnits="userSpaceOnUse" xlink:href="#linearGradient4081-4"/><linearGradient id="linearGradient4081-4"><stop id="stop4083-5" offset="0" stop-color="#8ae234" stop-opacity="1"/><stop id="stop4085-5" offset="1" stop-color="#4e9a06" stop-opacity="1"/></linearGradient><linearGradient id="linearGradient4165-3" x1="12" x2="16" y1="48" y2="60" gradientTransform="translate(4.0000004,-4)" gradientUnits="userSpaceOnUse" xlink:href="#linearGradient4081-6"/><linearGradient id="linearGradient4081-6"><stop id="stop4083-7" offset="0" stop-color="#8ae234" stop-opacity="1"/><stop id="stop4085-53" offset="1" stop-color="#4e9a06" stop-opacity="1"/></linearGradient><linearGradient id="linearGradient3049" x1="12" x2="16" y1="48" y2="60" gradientTransform="matrix(-1,0,0,1,3.7546294,-19.78136)" gradientUnits="userSpaceOnUse" xlink:href="#linearGradient4081-6"/></defs><metadata id="metadata3102"/><g id="layer1"><g id="g3030" display="inline" transform="matrix(-1,0,0,1,6.8546294,18.781361)"><path id="path4219" fill="none" stroke="none" d="m -30.145337,-1.7813635 0,35.9999985 -24,0 0,-27.9999985 8,-8 z"/><path id="path4219-6" fill="#fff" stroke="none" d="m -30.14537,-1.781361 0,35.999998 -24,0 0,-27.999998 8,-8 z" display="inline"/><path id="path4245" fill="#888a85" stroke="none" d="m -46.14537,-1.781361 0,8 -8,0 z"/><path id="path4221" fill="none" stroke="#2e3436" stroke-linecap="butt" stroke-linejoin="round" stroke-opacity="1" stroke-width="2" d="m -46.14537,-1.781361 0,8 -8,0"/><path id="path4247" fill="none" stroke="#2e3436" stroke-linecap="round" stroke-linejoin="miter" stroke-opacity="1" stroke-width="2" d="m -34.145297,2.218637 -8,0"/><path id="path4251" fill="none" stroke="#2e3436" stroke-linecap="round" stroke-linejoin="miter" stroke-opacity="1" stroke-width="2" d="m -34.145297,12.218637 -16,0"/><rect id="rect4253" width="12" height="12" x="38.145" y="18.219" fill="#73d216" fill-opacity="1" stroke="#172a04" stroke-dasharray="none" stroke-linecap="round" stroke-linejoin="round" stroke-miterlimit="4" stroke-opacity="1" stroke-width="2" transform="scale(-1,1)"/><path id="path4255" fill="none" stroke="#172a04" stroke-linecap="butt" stroke-linejoin="miter" stroke-opacity="1" stroke-width="2" d="m -38.145297,18.218641 -12,12"/><path id="path4247-3" fill="none" stroke="#2e3436" stroke-linecap="round" stroke-linejoin="miter" stroke-opacity="1" stroke-width="2" d="m -34.145265,6.218637 -8,0" display="inline"/><path id="path4219-6-6" fill="none" stroke="#2e3436" stroke-linecap="round" stroke-linejoin="round" stroke-opacity="1" stroke-width="2" d="m -30.145371,-1.781361 0,35.999998 -23.999999,0 0,-27.999998 8,-8 z" display="inline"/><path id="rect3165" fill="url(#linearGradient3049)" fill-opacity="1" fill-rule="nonzero" stroke="none" stroke-dasharray="none" stroke-dashoffset="0" stroke-linecap="round" stroke-linejoin="round" stroke-miterlimit="4" stroke-opacity="1" stroke-width="2.2" d="m -12.245372,40.218639 -12,-8 12,-8 0,4 12.00000138,0 0,8 -12.00000138,0 z" display="inline" enable-background="accumulate" overflow="visible" visibility="visible" style="marker:none"/><path id="path4087" fill="none" stroke="#8ae234" stroke-linecap="butt" stroke-linejoin="round" stroke-opacity="1" stroke-width="2" d="m -14.245372,36.218639 0,-2 12.0000018,0 0,-4"/><path id="path4089" fill="none" stroke="#8ae234" stroke-linecap="butt" stroke-linejoin="miter" stroke-opacity="1" stroke-width="2" d="M -12.063554,37.809548 -22.109009,31.082276"/><path id="path4091" fill="none" stroke="#8ae234" stroke-linecap="butt" stroke-linejoin="miter" stroke-opacity="1" stroke-width="1" d="m -12.245372,34.218639 -2,2"/><path id="rect3165-1" fill="none" stroke="#172a04" stroke-dasharray="none" stroke-dashoffset="0" stroke-linecap="round" stroke-linejoin="round" stroke-miterlimit="4" stroke-opacity="1" stroke-width="2.2" d="m -12.145371,40.218639 -12,-8 12,-8 0,4 12.0000022,0 0,8 -12.0000022,0 z" display="inline" enable-background="accumulate" overflow="visible" visibility="visible" style="marker:none"/><path id="path3009" fill="#4e9a06" fill-opacity="1" stroke="none" d="m -12.145371,2.21864 -12,-4 0,15.999999 12,4 z" display="inline"/><path id="path4167" fill="none" stroke="#73d216" stroke-linecap="butt" stroke-linejoin="miter" stroke-opacity="1" stroke-width="2" d="M -12.145371,16.218639 -26.14537,10.21864" display="inline"/><path id="path3009-6" fill="#73d216" fill-opacity="1" stroke="none" d="m 1.8546312,-4.78136 -14.0000022,7 0,15.999999 14.0000022,-7.999999 z" display="inline"/><path id="path4169" fill="none" stroke="#73d216" stroke-linecap="butt" stroke-linejoin="miter" stroke-opacity="1" stroke-width="2" d="m -14.145371,2.21864 0,13.999999" display="inline"/><path id="path3029" fill="#8ae234" fill-opacity="1" stroke="#172a04" stroke-dasharray="none" stroke-linecap="round" stroke-linejoin="round" stroke-miterlimit="4" stroke-opacity="1" stroke-width="2" d="m -26.14537,-3.78136 14,-6 14.0000012,6 -14.0000022,6 z" display="inline"/><path id="path4171" fill="none" stroke="#73d216" stroke-linecap="butt" stroke-linejoin="miter" stroke-opacity="1" stroke-width="2" d="m -24.14537,-1.78136 0,14" display="inline"/><path id="path5345" fill="none" stroke="#172a04" stroke-dasharray="none" stroke-linecap="round" stroke-linejoin="round" stroke-miterlimit="4" stroke-opacity="1" stroke-width="2" d="m -25.14537,-3.78136 27.0000012,0" display="inline"/><path id="path4173" fill="none" stroke="#73d216" stroke-linecap="butt" stroke-linejoin="miter" stroke-opacity="1" stroke-width="2" d="m -26.14537,-1.78136 13.999999,6" display="inline"/><path id="path5347-7" fill="none" stroke="#172a04" stroke-dasharray="none" stroke-linecap="round" stroke-linejoin="round" stroke-miterlimit="4" stroke-opacity="1" stroke-width="2" d="m -26.14537,-3.78136 14,22" display="inline"/><path id="path3009-9" fill="none" stroke="#172a04" stroke-dasharray="none" stroke-linecap="butt" stroke-linejoin="round" stroke-miterlimit="4" stroke-opacity="1" stroke-width="2" d="m -12.145371,2.21864 -13.999999,-6 0,16 13.999999,5.999999 z" display="inline"/><path id="path4193" fill="none" stroke="#8ae234" stroke-linecap="butt" stroke-linejoin="miter" stroke-opacity="1" stroke-width="2" d="M -12.145371,16.218639 1.8546312,9.21864" display="inline"/><path id="path4195" fill="none" stroke="#8ae234" stroke-linecap="butt" stroke-linejoin="miter" stroke-opacity="1" stroke-width="2" d="m -0.1453688,9.21864 0,-11" display="inline"/><path id="path4197" fill="none" stroke="#8ae234" stroke-linecap="butt" stroke-linejoin="miter" stroke-opacity="1" stroke-width="2" d="m 1.8546312,-1.78136 -14.0000022,6" display="inline"/><path id="path4199" fill="none" stroke="#8ae234" stroke-linecap="butt" stroke-linejoin="miter" stroke-opacity="1" stroke-width="2" d="m -10.145368,16.218639 0,-13.999999" display="inline"/><path id="path3009-6-4" fill="none" stroke="#172a04" stroke-dasharray="none" stroke-linecap="butt" stroke-linejoin="round" stroke-miterlimit="4" stroke-opacity="1" stroke-width="2" d="m 1.8546312,-3.78136 -14.0000022,6 0,15.999999 14.0000022,-7.999999 z" display="inline"/><path id="path5347" fill="none" stroke="#172a04" stroke-dasharray="none" stroke-linecap="round" stroke-linejoin="round" stroke-miterlimit="4" stroke-opacity="1" stroke-width="2" d="m -12.145371,2.21864 14.0000022,8" display="inline"/></g></g></svg>