<svg xmlns="http://www.w3.org/2000/svg" xmlns:svg="http://www.w3.org/2000/svg" xmlns:xlink="http://www.w3.org/1999/xlink" id="svg3167" width="64" height="64" version="1.1"><title id="title3747">mesh_cut</title><defs id="defs3169"><linearGradient id="linearGradient16968" x1="292.972" x2="296.94" y1="4.759" y2="10.711" gradientTransform="matrix(0,4.127761,4.136601,0,-12.029958,-1195.465)" gradientUnits="userSpaceOnUse" xlink:href="#XMLID_897_"/><linearGradient id="XMLID_897_" x1="292.972" x2="296.94" y1="4.759" y2="10.711" gradientUnits="userSpaceOnUse"><stop id="stop45093" offset="0" stop-color="#EEEEEC"/><stop id="stop45095" offset="1" stop-color="#fff" stop-opacity="1"/></linearGradient><radialGradient id="XMLID_52_" cx="165.061" cy="23.333" r="7.285" gradientTransform="matrix(1,0,0,1.0103,0,-0.159801)" gradientUnits="userSpaceOnUse"><stop id="stop812" offset="0" stop-color="#EF3535"/><stop id="stop2239" offset="0" stop-color="#c91a1a" stop-opacity="1"/><stop id="stop814" offset="1" stop-color="#ff4c4c" stop-opacity="1"/></radialGradient><linearGradient id="linearGradient2229"><stop id="stop2231" offset="0" stop-color="#e2e2e2" stop-opacity="1"/><stop id="stop2233" offset="1" stop-color="#d8d8d8" stop-opacity="1"/></linearGradient><radialGradient id="radialGradient3071" cx="165.061" cy="23.333" r="7.285" gradientTransform="matrix(1,0,0,1.0103,0,-0.159801)" gradientUnits="userSpaceOnUse"><stop id="stop3073" offset="0" stop-color="#EF3535"/><stop id="stop3075" offset="0" stop-color="#c91a1a" stop-opacity="1"/><stop id="stop3077" offset="1" stop-color="#ff4c4c" stop-opacity="1"/></radialGradient><linearGradient id="linearGradient3080" x1="292.972" x2="296.94" y1="4.759" y2="10.711" gradientUnits="userSpaceOnUse"><stop id="stop3082" offset="0" stop-color="#EEEEEC"/><stop id="stop3084" offset="1" stop-color="#fff" stop-opacity="1"/></linearGradient><linearGradient id="linearGradient3087"><stop id="stop3089" offset="0" stop-color="#e2e2e2" stop-opacity="1"/><stop id="stop3091" offset="1" stop-color="#d8d8d8" stop-opacity="1"/></linearGradient><linearGradient id="XMLID_45_" x1="68.175" x2="74.587" y1="21.425" y2="27.837" gradientUnits="userSpaceOnUse"><stop id="stop695" offset="0" stop-color="#BABDB6"/><stop id="stop697" offset="1" stop-color="#EEEEEC"/></linearGradient><radialGradient id="radialGradient3102" cx="165.061" cy="23.333" r="7.285" gradientTransform="matrix(1,0,0,1.0103,0,-0.159801)" gradientUnits="userSpaceOnUse"><stop id="stop3104" offset="0" stop-color="#EF3535"/><stop id="stop3106" offset="0" stop-color="#c91a1a" stop-opacity="1"/><stop id="stop3108" offset="1" stop-color="#ff4c4c" stop-opacity="1"/></radialGradient><radialGradient id="radialGradient3111" cx="165.061" cy="23.333" r="7.285" gradientTransform="matrix(1,0,0,1.0103,0,-0.159801)" gradientUnits="userSpaceOnUse"><stop id="stop3113" offset="0" stop-color="#EF3535"/><stop id="stop3115" offset="0" stop-color="#c91a1a" stop-opacity="1"/><stop id="stop3117" offset="1" stop-color="#ff4c4c" stop-opacity="1"/></radialGradient><radialGradient id="radialGradient3120" cx="165.061" cy="23.333" r="7.285" gradientTransform="matrix(1,0,0,1.0103,0,-0.159801)" gradientUnits="userSpaceOnUse"><stop id="stop3122" offset="0" stop-color="#EF3535"/><stop id="stop3124" offset="0" stop-color="#c91a1a" stop-opacity="1"/><stop id="stop3126" offset="1" stop-color="#ff4c4c" stop-opacity="1"/></radialGradient><radialGradient id="radialGradient3137" cx="165.061" cy="23.333" r="7.285" gradientTransform="matrix(1,0,0,1.0103,0,-0.159801)" gradientUnits="userSpaceOnUse"><stop id="stop3139" offset="0" stop-color="#EF3535"/><stop id="stop3141" offset="0" stop-color="#c91a1a" stop-opacity="1"/><stop id="stop3143" offset="1" stop-color="#ff4c4c" stop-opacity="1"/></radialGradient><radialGradient id="radialGradient16850" cx="165.061" cy="23.333" r="7.285" gradientTransform="matrix(1,0,0,1.0103,0,-0.159801)" gradientUnits="userSpaceOnUse"><stop id="stop16852" offset="0" stop-color="#EF3535"/><stop id="stop16854" offset="1" stop-color="#a40000" stop-opacity="0"/></radialGradient><linearGradient id="linearGradient16968-3" x1="292.972" x2="296.94" y1="4.759" y2="10.711" gradientTransform="matrix(0,4.127761,4.136601,0,-12.029958,-1195.465)" gradientUnits="userSpaceOnUse" xlink:href="#XMLID_897_-6"/><linearGradient id="XMLID_897_-6" x1="292.972" x2="296.94" y1="4.759" y2="10.711" gradientUnits="userSpaceOnUse"><stop id="stop45093-7" offset="0" stop-color="#EEEEEC"/><stop id="stop45095-5" offset="1" stop-color="#fff" stop-opacity="1"/></linearGradient><radialGradient id="XMLID_52_-5" cx="165.061" cy="23.333" r="7.285" gradientTransform="matrix(1,0,0,1.0103,0,-0.159801)" gradientUnits="userSpaceOnUse"><stop id="stop812-6" offset="0" stop-color="#EF3535"/><stop id="stop2239-2" offset="0" stop-color="#c91a1a" stop-opacity="1"/><stop id="stop814-9" offset="1" stop-color="#ff4c4c" stop-opacity="1"/></radialGradient><linearGradient id="linearGradient2229-2"><stop id="stop2231-7" offset="0" stop-color="#e2e2e2" stop-opacity="1"/><stop id="stop2233-0" offset="1" stop-color="#d8d8d8" stop-opacity="1"/></linearGradient><radialGradient id="radialGradient3071-3" cx="165.061" cy="23.333" r="7.285" gradientTransform="matrix(1,0,0,1.0103,0,-0.159801)" gradientUnits="userSpaceOnUse"><stop id="stop3073-6" offset="0" stop-color="#EF3535"/><stop id="stop3075-0" offset="0" stop-color="#c91a1a" stop-opacity="1"/><stop id="stop3077-6" offset="1" stop-color="#ff4c4c" stop-opacity="1"/></radialGradient><linearGradient id="linearGradient3080-6" x1="292.972" x2="296.94" y1="4.759" y2="10.711" gradientUnits="userSpaceOnUse"><stop id="stop3082-1" offset="0" stop-color="#EEEEEC"/><stop id="stop3084-8" offset="1" stop-color="#fff" stop-opacity="1"/></linearGradient><linearGradient id="linearGradient3087-9"><stop id="stop3089-2" offset="0" stop-color="#e2e2e2" stop-opacity="1"/><stop id="stop3091-0" offset="1" stop-color="#d8d8d8" stop-opacity="1"/></linearGradient><linearGradient id="XMLID_45_-3" x1="68.175" x2="74.587" y1="21.425" y2="27.837" gradientUnits="userSpaceOnUse"><stop id="stop695-7" offset="0" stop-color="#BABDB6"/><stop id="stop697-5" offset="1" stop-color="#EEEEEC"/></linearGradient><radialGradient id="radialGradient3102-7" cx="165.061" cy="23.333" r="7.285" gradientTransform="matrix(1,0,0,1.0103,0,-0.159801)" gradientUnits="userSpaceOnUse"><stop id="stop3104-3" offset="0" stop-color="#EF3535"/><stop id="stop3106-6" offset="0" stop-color="#c91a1a" stop-opacity="1"/><stop id="stop3108-1" offset="1" stop-color="#ff4c4c" stop-opacity="1"/></radialGradient><radialGradient id="radialGradient3111-9" cx="165.061" cy="23.333" r="7.285" gradientTransform="matrix(1,0,0,1.0103,0,-0.159801)" gradientUnits="userSpaceOnUse"><stop id="stop3113-3" offset="0" stop-color="#EF3535"/><stop id="stop3115-1" offset="0" stop-color="#c91a1a" stop-opacity="1"/><stop id="stop3117-9" offset="1" stop-color="#ff4c4c" stop-opacity="1"/></radialGradient><radialGradient id="radialGradient3120-7" cx="165.061" cy="23.333" r="7.285" gradientTransform="matrix(1,0,0,1.0103,0,-0.159801)" gradientUnits="userSpaceOnUse"><stop id="stop3122-8" offset="0" stop-color="#EF3535"/><stop id="stop3124-4" offset="0" stop-color="#c91a1a" stop-opacity="1"/><stop id="stop3126-5" offset="1" stop-color="#ff4c4c" stop-opacity="1"/></radialGradient><radialGradient id="radialGradient3137-6" cx="165.061" cy="23.333" r="7.285" gradientTransform="matrix(1,0,0,1.0103,0,-0.159801)" gradientUnits="userSpaceOnUse"><stop id="stop3139-1" offset="0" stop-color="#EF3535"/><stop id="stop3141-5" offset="0" stop-color="#c91a1a" stop-opacity="1"/><stop id="stop3143-5" offset="1" stop-color="#ff4c4c" stop-opacity="1"/></radialGradient><radialGradient id="radialGradient16850-7" cx="165.061" cy="23.333" r="7.285" gradientTransform="matrix(1,0,0,1.0103,0,-0.159801)" gradientUnits="userSpaceOnUse"><stop id="stop16852-6" offset="0" stop-color="#EF3535"/><stop id="stop16854-5" offset="1" stop-color="#a40000" stop-opacity="0"/></radialGradient><linearGradient id="linearGradient16968-9" x1="292.972" x2="296.94" y1="4.759" y2="10.711" gradientTransform="matrix(0,4.127761,4.136601,0,-12.029958,-1195.465)" gradientUnits="userSpaceOnUse" xlink:href="#XMLID_897_-3"/><linearGradient id="XMLID_897_-3" x1="292.972" x2="296.94" y1="4.759" y2="10.711" gradientUnits="userSpaceOnUse"><stop id="stop45093-74" offset="0" stop-color="#EEEEEC"/><stop id="stop45095-52" offset="1" stop-color="#fff" stop-opacity="1"/></linearGradient><linearGradient id="linearGradient16769-5" x1="294.595" x2="297.185" y1="12.188" y2="13.34" gradientUnits="userSpaceOnUse" xlink:href="#XMLID_52_-4"/><radialGradient id="XMLID_52_-4" cx="165.061" cy="23.333" r="7.285" gradientTransform="matrix(1,0,0,1.0103,0,-0.159801)" gradientUnits="userSpaceOnUse"><stop id="stop812-7" offset="0" stop-color="#EF3535"/><stop id="stop2239-4" offset="0" stop-color="#c91a1a" stop-opacity="1"/><stop id="stop814-4" offset="1" stop-color="#ff4c4c" stop-opacity="1"/></radialGradient><linearGradient id="linearGradient2237-3" x1="20.288" x2="24.326" y1="6.46" y2="23.943" gradientTransform="matrix(0,-1.3016783,1.3016783,0,0.73697465,64.260373)" gradientUnits="userSpaceOnUse" xlink:href="#linearGradient2229-0"/><linearGradient id="linearGradient2229-0"><stop id="stop2231-78" offset="0" stop-color="#e2e2e2" stop-opacity="1"/><stop id="stop2233-6" offset="1" stop-color="#d8d8d8" stop-opacity="1"/></linearGradient><linearGradient id="linearGradient16946-8" x1="296.486" x2="296.529" y1="15.507" y2="9.877" gradientTransform="matrix(0,-4.7353665,4.517312,0,-20.099304,1438.9837)" gradientUnits="userSpaceOnUse" xlink:href="#XMLID_52_-4"/><radialGradient id="radialGradient3071-8" cx="165.061" cy="23.333" r="7.285" gradientTransform="matrix(1,0,0,1.0103,0,-0.159801)" gradientUnits="userSpaceOnUse"><stop id="stop3073-4" offset="0" stop-color="#EF3535"/><stop id="stop3075-3" offset="0" stop-color="#c91a1a" stop-opacity="1"/><stop id="stop3077-1" offset="1" stop-color="#ff4c4c" stop-opacity="1"/></radialGradient><linearGradient id="linearGradient16974-4" x1="292.972" x2="296.94" y1="4.759" y2="10.711" gradientTransform="matrix(0,-5.276258,5.3845238,0,-14.759442,1594.4287)" gradientUnits="userSpaceOnUse" xlink:href="#XMLID_897_-3"/><linearGradient id="linearGradient3080-9" x1="292.972" x2="296.94" y1="4.759" y2="10.711" gradientUnits="userSpaceOnUse"><stop id="stop3082-2" offset="0" stop-color="#EEEEEC"/><stop id="stop3084-0" offset="1" stop-color="#fff" stop-opacity="1"/></linearGradient><linearGradient id="linearGradient2235-6" x1="20.288" x2="24.326" y1="6.46" y2="23.943" gradientTransform="matrix(0,-1.3016783,1.3016783,0,0.73697465,64.260373)" gradientUnits="userSpaceOnUse" xlink:href="#linearGradient2229-0"/><linearGradient id="linearGradient3087-8"><stop id="stop3089-9" offset="0" stop-color="#e2e2e2" stop-opacity="1"/><stop id="stop3091-2" offset="1" stop-color="#d8d8d8" stop-opacity="1"/></linearGradient><linearGradient id="linearGradient16739-6" x1="22.225" x2="24.19" y1="23.843" y2="22.861" gradientUnits="userSpaceOnUse" xlink:href="#XMLID_45_-6"/><linearGradient id="XMLID_45_-6" x1="68.175" x2="74.587" y1="21.425" y2="27.837" gradientUnits="userSpaceOnUse"><stop id="stop695-4" offset="0" stop-color="#BABDB6"/><stop id="stop697-9" offset="1" stop-color="#EEEEEC"/></linearGradient><radialGradient id="radialGradient2275-5" cx="25.188" cy="41.625" r="18.063" fx="25.188" fy="41.625" gradientTransform="matrix(1,0,0,0.32526,0,28.08607)" gradientUnits="userSpaceOnUse" xlink:href="#linearGradient2269-0"/><linearGradient id="linearGradient2269-0"><stop id="stop2271-4" offset="0" stop-color="#000" stop-opacity="1"/><stop id="stop2273-87" offset="1" stop-color="#000" stop-opacity="0"/></linearGradient><linearGradient id="linearGradient17037-1" x1="7.185" x2="25.152" y1="31.057" y2="50.775" gradientTransform="matrix(0,-1.5123914,1.2919118,0,1.0829091,67.424463)" gradientUnits="userSpaceOnUse" xlink:href="#XMLID_52_-4"/><radialGradient id="radialGradient3102-72" cx="165.061" cy="23.333" r="7.285" gradientTransform="matrix(1,0,0,1.0103,0,-0.159801)" gradientUnits="userSpaceOnUse"><stop id="stop3104-7" offset="0" stop-color="#EF3535"/><stop id="stop3106-2" offset="0" stop-color="#c91a1a" stop-opacity="1"/><stop id="stop3108-2" offset="1" stop-color="#ff4c4c" stop-opacity="1"/></radialGradient><linearGradient id="linearGradient17034-6" x1="13.825" x2="7.67" y1="40.069" y2="2.326" gradientTransform="matrix(0,-1.5123914,1.2919118,0,0.82028985,67.731906)" gradientUnits="userSpaceOnUse" xlink:href="#XMLID_52_-4"/><radialGradient id="radialGradient3111-1" cx="165.061" cy="23.333" r="7.285" gradientTransform="matrix(1,0,0,1.0103,0,-0.159801)" gradientUnits="userSpaceOnUse"><stop id="stop3113-0" offset="0" stop-color="#EF3535"/><stop id="stop3115-6" offset="0" stop-color="#c91a1a" stop-opacity="1"/><stop id="stop3117-1" offset="1" stop-color="#ff4c4c" stop-opacity="1"/></radialGradient><radialGradient id="radialGradient2241-5" cx="34.376" cy="37.5" r="8.389" fx="34.376" fy="37.5" gradientTransform="matrix(0,-1.3016783,1.3802749,0,-2.2562537,64.260371)" gradientUnits="userSpaceOnUse" xlink:href="#XMLID_52_-4"/><radialGradient id="radialGradient3120-9" cx="165.061" cy="23.333" r="7.285" gradientTransform="matrix(1,0,0,1.0103,0,-0.159801)" gradientUnits="userSpaceOnUse"><stop id="stop3122-4" offset="0" stop-color="#EF3535"/><stop id="stop3124-9" offset="0" stop-color="#c91a1a" stop-opacity="1"/><stop id="stop3126-0" offset="1" stop-color="#ff4c4c" stop-opacity="1"/></radialGradient><linearGradient id="linearGradient2257-9" x1="298.479" x2="298.869" y1="13.6" y2="13.803" gradientUnits="userSpaceOnUse" xlink:href="#linearGradient2251-1"/><linearGradient id="linearGradient2251-1"><stop id="stop2253-7" offset="0" stop-color="#df2a2a" stop-opacity="1"/><stop id="stop2255-7" offset="1" stop-color="#df2a2a" stop-opacity="0"/></linearGradient><linearGradient id="linearGradient2265-1" x1="298.479" x2="298.869" y1="13.6" y2="13.803" gradientUnits="userSpaceOnUse" xlink:href="#linearGradient2259-1"/><linearGradient id="linearGradient2259-1"><stop id="stop2261-5" offset="0" stop-color="#9a0c00" stop-opacity="1"/><stop id="stop2263-9" offset="1" stop-color="#9a0c00" stop-opacity="0"/></linearGradient><linearGradient id="linearGradient16894-7" x1="296.762" x2="297.798" y1="12.012" y2="10.947" gradientTransform="matrix(0,-4.7178524,4.7178524,0,-21.192662,1435.1606)" gradientUnits="userSpaceOnUse" xlink:href="#XMLID_52_-4"/><radialGradient id="radialGradient3137-7" cx="165.061" cy="23.333" r="7.285" gradientTransform="matrix(1,0,0,1.0103,0,-0.159801)" gradientUnits="userSpaceOnUse"><stop id="stop3139-6" offset="0" stop-color="#EF3535"/><stop id="stop3141-7" offset="0" stop-color="#c91a1a" stop-opacity="1"/><stop id="stop3143-3" offset="1" stop-color="#ff4c4c" stop-opacity="1"/></radialGradient><linearGradient id="linearGradient17028-6" x1="39.62" x2="-3.533" y1="44.541" y2="-11.889" gradientTransform="matrix(0,-1.5123914,1.2919118,0,0.82028985,70.914697)" gradientUnits="userSpaceOnUse" xlink:href="#radialGradient16850-5"/><radialGradient id="radialGradient16850-5" cx="165.061" cy="23.333" r="7.285" gradientTransform="matrix(1,0,0,1.0103,0,-0.159801)" gradientUnits="userSpaceOnUse"><stop id="stop16852-63" offset="0" stop-color="#EF3535"/><stop id="stop16854-9" offset="1" stop-color="#a40000" stop-opacity="0"/></radialGradient><linearGradient id="linearGradient3165-4" x1="292.972" x2="296.94" y1="4.759" y2="10.711" gradientTransform="matrix(0,5.3730169,5.3845238,0,-14.759442,-1555.6327)" gradientUnits="userSpaceOnUse" xlink:href="#XMLID_897_-3"/></defs><metadata id="metadata3172"/><g id="layer1"><polygon id="polygon45129" fill="url(#linearGradient16769-5)" fill-opacity="1" stroke="#9a0c00" stroke-dasharray="none" stroke-linecap="round" stroke-linejoin="round" stroke-miterlimit="4" stroke-opacity="1" stroke-width=".281" points="295.747 11.96 297.044 12.3 297.044 12.3 296.399 13.385 295.133 14.719 294.732 13.673" transform="matrix(0,-4.7353665,4.517312,0,-20.099304,1438.9837)"/><path id="polygon16896" fill="url(#linearGradient16946-8)" fill-opacity="1" stroke="none" d="m 35.841611,37.697999 c 0.63355,1.5911 2.649148,1.580261 3.85819,2.505702 0.931735,0.445595 1.752354,1.22851 2.731556,1.562043 0.670873,0.01263 1.770576,-0.583091 1.179646,-1.342356 -1.49215,-1.802793 -3.304543,-3.337979 -5.371858,-4.483273 -0.637866,-0.302462 -1.163913,-1.035812 -1.82805,-1.130215 -0.74301,0.701044 -0.693827,1.969203 -0.569484,2.888099 z"/><path id="polygon45097" fill="url(#linearGradient16974-4)" stroke="#888a85" stroke-dasharray="none" stroke-linecap="round" stroke-linejoin="round" stroke-miterlimit="4" stroke-opacity="1" stroke-width="1.302" d="m 2.852202,47.390493 c 0.089217,0.270922 0.1883033,0.533355 0.2831176,0.797598 2.8597899,0.832663 5.7517519,4.693027 8.5997084,3.225069 8.30521,-4.890337 16.720619,-9.745706 25.091328,-14.599507 0.191219,-0.953241 0.295368,-1.914835 0.318508,-2.878289 0.05234,-2.027786 -0.25317,-4.109445 -0.955523,-6.034 C 25.058333,34.357576 13.902778,40.816506 2.852202,47.390493 z"/><path id="path16635" fill="url(#linearGradient2235-6)" fill-opacity="1" stroke="none" d="m 6.2691076,47.703458 c 1.4665749,0.498588 2.5460369,1.886992 4.1084214,2.232133 8.323076,-4.827301 16.621296,-9.724764 24.935275,-14.548731 0.336222,-1.559887 0.121264,-3.161049 -0.203388,-4.703426 -0.963818,0.245722 -1.732444,0.960901 -2.641821,1.340707 -8.552711,5.06952 -17.096018,10.183941 -25.6696806,15.201002 -0.1973461,0.01908 -0.630188,0.282076 -0.5288068,0.478315 z"/><path id="path16731" fill="url(#linearGradient16739-6)" fill-opacity="1" fill-rule="nonzero" stroke="none" stroke-width="1.25" d="m 24.190449,23.843431 a 0.98252523,0.98252523 0 1 1 -1.96505,0 0.98252523,0.98252523 0 1 1 1.96505,0 z" color="#000" display="inline" overflow="visible" transform="matrix(0,-1.2755055,1.3016783,0,0.96352265,63.855051)" visibility="visible" style="marker:none"/><path id="path2267" fill="url(#radialGradient2275-5)" fill-opacity="1" fill-rule="evenodd" stroke="none" stroke-width="1" d="m 43.25,41.625 a 18.0625,5.875 0 1 1 -36.125,0 18.0625,5.875 0 1 1 36.125,0 z" color="#000" display="inline" opacity=".267" overflow="visible" transform="matrix(1.6349796,0,0,1.0662685,-9.1810487,11.880901)" visibility="visible" style="marker:none"/><path id="path45138" fill="url(#linearGradient17037-1)" fill-opacity="1" stroke="#a40000" stroke-opacity="1" stroke-width="1.302" d="m 40.160819,41.220155 c 2.247541,-4.210944 8.607892,-4.550454 14.206977,-0.752299 5.602376,3.798114 8.324475,10.289102 6.086819,14.501944 -2.247544,4.212879 -8.604596,4.550451 -14.203681,0.752298 C 40.651853,51.92592 37.929755,45.432995 40.160819,41.220155 z m 3.569391,2.414776 c -0.994,1.869891 0.703584,5.86726 4.470001,8.417097 3.766412,2.555077 7.697497,2.372826 8.6885,0.504692 0.999988,-1.868099 -0.703582,-5.868985 -4.469998,-8.418821 C 48.6523,41.581062 44.724211,41.765074 43.73021,43.634931 z"/><path id="path16771" fill="url(#linearGradient17034-6)" fill-opacity="1" stroke="none" d="m 40.546578,45.61318 c 0.504037,2.505901 1.892662,4.730896 3.229779,6.569451 0.90454,0.978553 1.887332,1.618719 2.934256,2.493557 3.061632,2.223692 7.085592,3.155578 10.504113,1.39649 1.891477,-0.80633 2.665112,-3.439861 2.185691,-5.686013 -0.32342,-1.889924 -1.511338,-3.490211 -2.34159,-4.962534 -1.029343,-1.198719 -2.117193,-2.022827 -3.373009,-3.036674 -3.220876,-2.355205 -7.482929,-3.63417 -11.080256,-1.68955 -1.486685,0.942032 -2.27376,2.908784 -2.058984,4.915273 z m 1.251539,-0.614409 c 0.32588,-2.62484 2.646072,-4.369701 4.844671,-4.064552 2.976859,-0.02704 5.784781,1.491752 8.114821,3.544667 1.824929,1.844743 3.551332,4.358819 3.431641,7.372909 -0.0038,1.768791 -1.187517,3.166429 -2.551886,3.665293 -3.295749,0.802666 -6.853634,-0.253459 -9.551713,-2.559355 -1.982862,-1.76799 -3.758077,-4.158664 -4.219644,-7.116944 -0.01988,-0.280758 -0.05531,-0.560868 -0.0679,-0.842018 z"/><path id="path11967" fill="url(#radialGradient2241-5)" fill-opacity="1" stroke="#a40000" stroke-opacity="1" stroke-width="1.302" d="m 40.160819,24.778173 c 2.247541,4.210943 8.607892,4.550452 14.206977,0.752297 5.602376,-3.798114 8.324475,-10.289102 6.086819,-14.501943 -2.247544,-4.2128803 -8.604596,-4.550451 -14.203681,-0.752298 -5.599081,3.796178 -8.321179,10.289102 -6.090115,14.501944 z m 3.569391,-2.414778 c -0.994,-1.869889 0.703584,-5.867261 4.470001,-8.417096 3.766412,-2.555077 7.697497,-2.372825 8.6885,-0.504693 0.999988,1.868099 -0.703582,5.868984 -4.469998,8.418821 -3.766413,2.556837 -7.694502,2.372825 -8.688503,0.502968 z"/><polygon id="polygon45101" fill="url(#linearGradient2257-9)" fill-opacity="1" stroke="url(#linearGradient2265-1)" stroke-dasharray="none" stroke-linecap="round" stroke-linejoin="round" stroke-miterlimit="4" stroke-opacity="1" stroke-width=".276" points="298.254 11.96 296.956 12.3 296.956 12.3 297.6 13.385 298.867 14.719 299.268 13.673" transform="matrix(0,-4.7178524,4.7178524,0,-21.192662,1435.1606)"/><path id="polygon16860" fill="url(#linearGradient16894-7)" fill-opacity="1" stroke="none" d="m 37.102611,30.213349 c 0.258801,0.555488 0.262264,1.323565 0.65084,1.74913 1.824157,-1.23662 3.793951,-2.460057 5.48342,-3.710927 0.982175,-0.870243 1.952813,-1.764835 2.81478,-2.756787 -1.811186,-0.957094 -3.984709,-0.175935 -5.450779,1.057613 -1.171111,0.784307 -2.750397,1.080162 -3.376228,2.39997 -0.154133,0.395774 -0.231539,0.846891 -0.122033,1.261001 z"/><path id="path16795" fill="url(#linearGradient17028-6)" fill-opacity="1" stroke="none" d="m 40.371898,22.242083 c 0.299062,1.979051 1.413173,3.768288 3.108361,4.218021 3.118108,1.472385 6.656151,0.279699 9.407036,-1.665861 1.751021,-1.434354 3.813805,-2.525347 4.912495,-4.737566 1.202262,-1.914319 2.46092,-4.349092 1.693338,-6.791689 -0.564211,-1.969849 -2.187556,-3.085853 -3.868398,-3.4887221 -3.006916,-0.786773 -6.086597,0.3849011 -8.638567,2.2219221 -1.189352,0.85738 -2.451329,1.735118 -3.507563,2.75086 -1.176006,1.554931 -2.149759,3.433714 -2.905804,5.322355 -0.143721,0.695224 -0.302954,1.451663 -0.200898,2.17068 z m 1.574518,-0.567148 c -0.08693,-2.287445 0.962536,-4.210297 2.302624,-5.696626 1.261493,-1.343719 2.349798,-2.631545 3.903574,-3.465733 2.369795,-1.402146 5.180626,-1.806548 7.7626,-1.093545 1.724089,0.687781 2.566956,2.897736 2.104091,4.934817 -0.29786,2.579772 -2.175124,4.187944 -3.655581,5.892135 -1.863209,1.959998 -4.528052,3.176903 -7.136289,3.267969 -1.324677,-0.01837 -2.835606,0.03445 -3.948735,-0.908758 -0.707006,-0.536647 -1.372393,-1.796325 -1.332284,-2.930259 z"/><path id="path4458" fill="#73d216" stroke="#172a04" stroke-linecap="round" stroke-linejoin="round" stroke-opacity="1" stroke-width="2" d="M 15,7.0000005 3,51 19,51 31,7.0000005 z"/><path id="path4464" fill="none" stroke="#8ae234" stroke-linecap="butt" stroke-linejoin="miter" stroke-opacity="1" stroke-width="2" d="M 5.6136364,49 16.5,9 29,9 17.471591,49.017045 z"/><path id="path4462" fill="none" stroke="#172a04" stroke-linecap="butt" stroke-linejoin="miter" stroke-opacity="1" stroke-width="2" d="M 31,7.0000005 3,51"/><path id="path16717" fill="url(#linearGradient3165-4)" stroke="#888a85" stroke-dasharray="none" stroke-linecap="round" stroke-linejoin="round" stroke-miterlimit="4" stroke-opacity="1" stroke-width="1.302" d="M 2.852202,19.776411 C 2.941419,19.50052 3.0405053,19.233274 3.1353196,18.964186 5.9951095,18.116253 8.8870715,14.185097 11.735028,15.679975 20.040238,20.659994 27,25 34,29 c -4,2 0,0 -4,2 -4,3 -4,2 -4,2 C 14.868992,26.425389 13.902778,26.470957 2.852202,19.776411 z"/><path id="path16719" fill="url(#linearGradient2237-3)" fill-opacity="1" stroke="none" d="m 6.2691076,19.627353 c 0.4002049,0.300846 1.1336863,0.585256 1.5050656,0.892992 C 16.564054,25.788049 19.246642,26.712832 28,32 c 1,-1 0,0 1,-1 2,-1 0.674966,-0.514259 2.674966,-1.514259 C 23.582159,24.592747 19.146067,22.35591 11.050405,17.474083 10.5463,17.028295 9.8460175,16.941546 9.3426285,17.409843 8.2796676,18.099753 7.1626883,18.798654 6.1470772,19.505584 l 0.092042,0.09185 0.029991,0.02993 z"/><path id="path4460" fill="none" stroke="#888a85" stroke-linecap="butt" stroke-linejoin="miter" stroke-opacity="1" stroke-width="1.5" d="m 33.887506,28.935718 -6.842051,4.132464"/></g></svg>