<svg xmlns="http://www.w3.org/2000/svg" xmlns:svg="http://www.w3.org/2000/svg" xmlns:xlink="http://www.w3.org/1999/xlink" id="svg2" width="64" height="64" version="1.1"><defs id="defs4"><linearGradient id="linearGradient3755"><stop id="stop3757" offset="0" stop-color="#424242" stop-opacity="1"/><stop id="stop3759" offset="1" stop-color="#9f9f9f" stop-opacity="1"/></linearGradient><filter id="filter3871" width="1.907" height="1.907" x="-.454" y="-.454" color-interpolation-filters="sRGB"><feGaussianBlur id="feGaussianBlur3873" stdDeviation="9.898"/></filter><linearGradient id="linearGradient3606" x1="51.037" x2="14.872" y1="47.693" y2="10.398" gradientUnits="userSpaceOnUse" xlink:href="#linearGradient3600"/><linearGradient id="linearGradient3600"><stop id="stop3602" offset="0" stop-color="#555753" stop-opacity="1"/><stop id="stop3604" offset="1" stop-color="#d3d7cf" stop-opacity="1"/></linearGradient><filter id="filter3805" width="1.593" height="1.606" x="-.296" y="-.303"><feGaussianBlur id="feGaussianBlur3807" stdDeviation="2.249"/></filter></defs><metadata id="metadata7"/><g id="layer1" transform="translate(0,-988.36218)"><path id="path2826-8" fill="#000" fill-opacity=".656" fill-rule="evenodd" stroke="none" stroke-width="5" d="m 57.818182,30.363636 a 26.181818,26.181818 0 1 1 -52.363636,0 26.181818,26.181818 0 1 1 52.363636,0 z" color="#000" display="inline" enable-background="accumulate" filter="url(#filter3871)" overflow="visible" transform="matrix(0.48061681,0,0,0.1201542,24.795032,1042.7139)" visibility="visible" style="marker:none"/><path id="path2826" fill="url(#linearGradient3606)" fill-opacity="1" fill-rule="evenodd" stroke="#0b1521" stroke-width="1.806" d="m 57.818182,30.363636 a 26.181818,26.181818 0 1 1 -52.363636,0 26.181818,26.181818 0 1 1 52.363636,0 z" color="#000" display="inline" enable-background="accumulate" overflow="visible" transform="matrix(1.1076389,0,0,1.1076389,-3.0416672,986.73024)" visibility="visible" style="marker:none"/><path id="path2826-4" fill="none" stroke="#d3d7cf" stroke-width="1.939" d="m 57.818182,30.363636 a 26.181818,26.181818 0 1 1 -52.363636,0 26.181818,26.181818 0 1 1 52.363636,0 z" color="#000" display="inline" enable-background="accumulate" overflow="visible" transform="matrix(1.03125,0,0,1.03125,-0.62500046,989.04968)" visibility="visible" style="marker:none"/><path id="path3608" fill="#fff" fill-opacity="1" fill-rule="evenodd" stroke="none" stroke-width="5" d="m 21.636363,20.181818 a 10.454545,7.2727275 0 1 1 -20.90909001,0 10.454545,7.2727275 0 1 1 20.90909001,0 z" color="#000" display="inline" enable-background="accumulate" filter="url(#filter3805)" opacity=".845" overflow="visible" transform="matrix(0.85867478,-0.7467709,0.70576526,0.90856459,-4.8393203,997.4188)" visibility="visible" style="marker:none"/><path id="path2826-5" fill="none" stroke="#2e3436" stroke-width="1.806" d="m 57.818182,30.363636 a 26.181818,26.181818 0 1 1 -52.363636,0 26.181818,26.181818 0 1 1 52.363636,0 z" color="#000" display="inline" enable-background="accumulate" overflow="visible" transform="matrix(1.1076389,0,0,1.1076389,-3.0416672,986.73024)" visibility="visible" style="marker:none"/></g></svg>