<svg xmlns="http://www.w3.org/2000/svg" xmlns:svg="http://www.w3.org/2000/svg" xmlns:xlink="http://www.w3.org/1999/xlink" id="svg2" width="64" height="64" version="1.1"><defs id="defs4"><linearGradient id="linearGradient10855"><stop id="stop10857" offset="0" stop-color="#ce5c00" stop-opacity="1"/><stop id="stop10859" offset="1" stop-color="#fcaf3e" stop-opacity="1"/></linearGradient><marker id="TriangleOutS" orient="auto" overflow="visible" refX="0" refY="0"><path id="path4211" fill-rule="evenodd" stroke="#000" stroke-width="1pt" d="M 5.77,0.0 L -2.88,5.0 L -2.88,-5.0 L 5.77,0.0 z" transform="scale(0.2)"/></marker><marker id="TriangleInS" orient="auto" overflow="visible" refX="0" refY="0"><path id="path4202" fill-rule="evenodd" stroke="#000" stroke-width="1pt" d="M 5.77,0.0 L -2.88,5.0 L -2.88,-5.0 L 5.77,0.0 z" transform="scale(-0.2)"/></marker><linearGradient id="linearGradient3857"><stop id="stop3859" offset="0" stop-color="#ce5c00" stop-opacity="1"/><stop id="stop3861" offset="1" stop-color="#fcaf3e" stop-opacity="1"/></linearGradient><linearGradient id="linearGradient3831"><stop id="stop3833" offset="0" stop-color="#c4a000" stop-opacity="1"/><stop id="stop3835" offset="1" stop-color="#fce94f" stop-opacity="1"/></linearGradient><marker id="TriangleOutM" orient="auto" overflow="visible" refX="0" refY="0"><path id="path3966" fill-rule="evenodd" stroke="#000" stroke-width="1pt" d="m 5.77,0 -8.65,5 0,-10 8.65,5 z" transform="scale(0.4,0.4)"/></marker><marker id="TriangleInM" orient="auto" overflow="visible" refX="0" refY="0"><path id="path3957" fill-rule="evenodd" stroke="#000" stroke-width="1pt" d="m 5.77,0 -8.65,5 0,-10 8.65,5 z" transform="scale(-0.4,-0.4)"/></marker><marker id="TriangleOutL" orient="auto" overflow="visible" refX="0" refY="0"><path id="path3963" fill-rule="evenodd" stroke="#000" stroke-width="1pt" d="m 5.77,0 -8.65,5 0,-10 8.65,5 z" transform="scale(0.8,0.8)"/></marker><marker id="Arrow1Lend" orient="auto" overflow="visible" refX="0" refY="0"><path id="path3824" fill-rule="evenodd" stroke="#000" stroke-width="1pt" d="M 0,0 5,-5 -12.5,0 5,5 0,0 z" transform="matrix(-0.8,0,0,-0.8,-10,0)"/></marker><marker id="TriangleInL" orient="auto" overflow="visible" refX="0" refY="0"><path id="path3954" fill-rule="evenodd" stroke="#000" stroke-width="1pt" d="m 5.77,0 -8.65,5 0,-10 8.65,5 z" transform="scale(-0.8,-0.8)"/></marker><marker id="Arrow2Lstart" orient="auto" overflow="visible" refX="0" refY="0"><path id="path3839" fill-rule="evenodd" stroke-linejoin="round" stroke-width=".625" d="M 8.7185878,4.0337352 -2.2072895,0.01601326 8.7185884,-4.0017078 c -1.7454984,2.3720609 -1.7354408,5.6174519 -6e-7,8.035443 z" transform="matrix(1.1,0,0,1.1,1.1,0)"/></marker><marker id="Arrow1Lstart" orient="auto" overflow="visible" refX="0" refY="0"><path id="path3821" fill-rule="evenodd" stroke="#000" stroke-width="1pt" d="M 0,0 5,-5 -12.5,0 5,5 0,0 z" transform="matrix(0.8,0,0,0.8,10,0)"/></marker><linearGradient id="linearGradient3837" x1="24" x2="34" y1="994.362" y2="1046.362" gradientUnits="userSpaceOnUse" xlink:href="#linearGradient3831"/><linearGradient id="linearGradient3863" x1="27" x2="33" y1="1004.362" y2="1036.362" gradientUnits="userSpaceOnUse" xlink:href="#linearGradient3857"/><linearGradient id="linearGradient10861" x1="28" x2="36" y1="1006.362" y2="1036.362" gradientUnits="userSpaceOnUse" xlink:href="#linearGradient10855"/></defs><metadata id="metadata7"/><g id="layer1" transform="translate(0,-988.36218)"><g id="g7108" transform="matrix(-1,0,0,-1,64.000002,2040.7244)"><rect id="rect7087" width="58" height="58" x="3" y="991.362" fill="url(#linearGradient3837)" fill-opacity="1" fill-rule="nonzero" stroke="#302b00" stroke-dasharray="none" stroke-dashoffset="0" stroke-linecap="round" stroke-linejoin="round" stroke-miterlimit="4" stroke-opacity="1" stroke-width="2" color="#000" display="inline" enable-background="accumulate" overflow="visible" visibility="visible" style="marker:none"/><rect id="rect7087-3" width="54" height="54" x="5" y="993.362" fill="none" fill-opacity="1" fill-rule="nonzero" stroke="#fce94f" stroke-dasharray="none" stroke-dashoffset="0" stroke-linecap="round" stroke-linejoin="miter" stroke-miterlimit="4" stroke-opacity="1" stroke-width="2" color="#000" display="inline" enable-background="accumulate" overflow="visible" visibility="visible" style="marker:none"/><rect id="rect2985" width="34" height="34" x="15" y="1003.362" fill="url(#linearGradient10861)" fill-opacity="1" fill-rule="nonzero" stroke="#ce5c00" stroke-dasharray="none" stroke-dashoffset="0" stroke-linecap="round" stroke-linejoin="round" stroke-miterlimit="4" stroke-opacity="1" stroke-width="2" color="#000" display="inline" enable-background="accumulate" overflow="visible" visibility="visible" style="marker:none"/><g id="g4256" transform="matrix(0,1,-1,0,1052.3622,988.36222)"><path id="path3041" fill="none" stroke="#2e3436" stroke-dasharray="4 8" stroke-dashoffset="10" stroke-linecap="round" stroke-linejoin="round" stroke-miterlimit="4" stroke-opacity="1" stroke-width="4" d="m 10.000002,1004.3622 0,18 0,0 44,0 0,-18" color="#000" display="inline" enable-background="accumulate" overflow="visible" visibility="visible" style="marker:none"/><path id="path3018" fill="#2e3436" stroke="none" d="m 5,45 10,0 -5,9 z" transform="matrix(-1,0,0,-1,64.000002,1052.3622)"/><path id="path3018-1" fill="#2e3436" stroke="none" d="m 15.000002,1007.3622 -10,0 5,-8.99998 z"/></g></g></g></svg>