<svg xmlns="http://www.w3.org/2000/svg" xmlns:svg="http://www.w3.org/2000/svg" xmlns:xlink="http://www.w3.org/1999/xlink" id="svg3018" width="64" height="64" version="1.1"><defs id="defs3020"><linearGradient id="linearGradient3759"><stop id="stop3761" offset="0" stop-color="#c4a000" stop-opacity="1"/><stop id="stop3763" offset="1" stop-color="#fce94f" stop-opacity="1"/></linearGradient><linearGradient id="linearGradient3765" x1="168.903" x2="149.609" y1="171.571" y2="156.153" gradientUnits="userSpaceOnUse" xlink:href="#linearGradient3759"/><linearGradient id="linearGradient3773" x1="168.903" x2="161.025" y1="171.571" y2="151.81" gradientUnits="userSpaceOnUse" xlink:href="#linearGradient3759"/><linearGradient id="linearGradient4696-1" x1="168.903" x2="161.025" y1="171.571" y2="151.81" gradientTransform="matrix(1.0117827,0,0,1.0010613,-131.94627,-139.97322)" gradientUnits="userSpaceOnUse" xlink:href="#linearGradient3759"/><linearGradient id="linearGradient4777" x1="168.903" x2="161.025" y1="171.571" y2="151.81" gradientTransform="matrix(0.50589135,0.87622952,-0.86694452,0.50053065,271.74898,6.9955571)" gradientUnits="userSpaceOnUse" xlink:href="#linearGradient3759"/><linearGradient id="linearGradient5080" x1="13.818" x2="29.806" y1="25.689" y2="25.689" gradientUnits="userSpaceOnUse" xlink:href="#linearGradient5062"/><linearGradient id="linearGradient5062"><stop id="stop5058" offset="0" stop-color="#729fcf" stop-opacity="1"/><stop id="stop5060" offset="1" stop-color="#204a87" stop-opacity="1"/></linearGradient></defs><metadata id="metadata3023"/><g id="layer1"><g id="g3861" transform="matrix(0.5,-0.8660254,0.8660254,0.5,-193.03669,88.488562)"><g id="g1795" transform="translate(2.0236774,-1.6739723)"><path id="path4775" fill="#f6efd1" fill-opacity="1" fill-rule="nonzero" stroke="#353535" stroke-dasharray="none" stroke-dashoffset="0" stroke-linecap="round" stroke-linejoin="round" stroke-miterlimit="4" stroke-opacity="1" stroke-width="4" marker-end="none" marker-mid="none" marker-start="none" d="m 181.18703,156.58637 -14.38406,-24.53892 -22.32456,13.05147 14.40211,24.83973 11.15886,4.5113 -0.77696,7.77145 -10.12506,5.8457 c -1.84677,-0.77424 -3.95711,-0.58367 -5.63531,0.50889 -2.79552,1.8238 -3.58376,5.56821 -1.7608,8.36427 l 0.004,0.007 c 1.8265,2.79405 5.57202,3.57875 8.36642,1.75279 1.83723,-1.20114 2.87898,-3.30382 2.72154,-5.4932 4.81876,-2.76365 12.95698,-7.54612 12.95698,-7.54612 l 1.33807,-14.99881 2.55096,-1.52692 z" clip-rule="nonzero" color="#000" color-interpolation="sRGB" color-interpolation-filters="linearRGB" color-rendering="auto" display="inline" enable-background="accumulate" image-rendering="auto" opacity="1" overflow="visible" shape-rendering="auto" text-rendering="auto" vector-effect="none" visibility="visible" style="isolation:auto;mix-blend-mode:normal;solid-color:#000;solid-opacity:1;marker:none"/><path id="path3854" fill="none" fill-opacity="1" stroke="#2d2d2d" stroke-dasharray="none" stroke-dashoffset="0" stroke-linecap="round" stroke-linejoin="miter" stroke-miterlimit="4" stroke-opacity="1" stroke-width="4" d="m 162.04014,142.06651 8.55256,14.59012 m -15.11324,-10.66255 8.55255,14.59012" opacity="1" vector-effect="none"/><ellipse id="path3859" cx="167.16" cy="-169.337" fill="#302b00" fill-opacity="1" fill-rule="evenodd" stroke="#242421" stroke-dasharray="none" stroke-dashoffset="0" stroke-linecap="butt" stroke-linejoin="bevel" stroke-miterlimit="4" stroke-opacity="1" stroke-width="3.047" display="inline" enable-background="accumulate" overflow="visible" rx="1.541" ry="1.525" transform="matrix(0.01120568,0.99993721,-0.99993726,0.01120168,0,0)" visibility="visible" style="marker:none"/><path id="path3757" fill="none" stroke="#cacaca" stroke-linecap="butt" stroke-linejoin="miter" stroke-opacity="1" stroke-width="3.047" d="m 176.81273,167.26762 -6.56068,3.92757 -9.13607,-3.48982 -12.52611,-21.64238 17.1438,-9.79128 12.44009,21.22198 z"/><g id="g1753" transform="rotate(60,-57.271266,224.89274)"><path id="path4250-71-8" fill="none" stroke="#2e2900" stroke-dasharray="none" stroke-miterlimit="4" stroke-opacity="1" stroke-width="2" d="M 14.970374,19.82823 A 8.993818,8.9934077 0.02042283 1 1 28.632785,31.527845 8.993818,8.9934077 0.02042283 1 1 14.970374,19.82823 Z"/><path id="path4250-7-3-8" fill="url(#linearGradient5080)" fill-opacity="1" stroke="#729fcf" stroke-dasharray="none" stroke-miterlimit="4" stroke-opacity="1" stroke-width="2" d="M 16.49299,21.139192 A 6.9999997,7.0000001 0 1 1 27.126578,30.245604 6.9999997,7.0000001 0 0 1 16.49299,21.139192 Z"/></g></g></g></g></svg>