<svg xmlns="http://www.w3.org/2000/svg" xmlns:svg="http://www.w3.org/2000/svg" xmlns:xlink="http://www.w3.org/1999/xlink" id="svg3085" width="64" height="64" version="1.1"><defs id="defs3087"><linearGradient id="linearGradient5062"><stop id="stop5058" offset="0" stop-color="#729fcf" stop-opacity="1"/><stop id="stop5060" offset="1" stop-color="#204a87" stop-opacity="1"/></linearGradient><linearGradient id="linearGradient3836-0"><stop id="stop5008" offset="0" stop-color="#c4a000" stop-opacity="1"/><stop id="stop5010" offset="1" stop-color="#fce94f" stop-opacity="1"/></linearGradient><linearGradient id="linearGradient7597"><stop id="stop7599" offset="0" stop-color="#000003" stop-opacity="1"/><stop id="stop7601" offset="1" stop-color="#000003" stop-opacity="0"/></linearGradient><linearGradient id="linearGradient3893"><stop id="stop3895" offset="0" stop-color="#fff" stop-opacity="1"/><stop id="stop3897" offset="1" stop-color="#fff" stop-opacity="0"/></linearGradient><linearGradient id="linearGradient7603" x1="15.715" x2="34.136" y1="22.299" y2="22.299" gradientUnits="userSpaceOnUse" xlink:href="#linearGradient7597"/><linearGradient id="linearGradient3836-0-3"><stop id="stop3838-2" offset="0" stop-color="#c4a000" stop-opacity="1"/><stop id="stop3840-5" offset="1" stop-color="#fce94f" stop-opacity="1"/></linearGradient><linearGradient id="linearGradient5064" x1="33.056" x2="42.195" y1="43.596" y2="57.417" gradientUnits="userSpaceOnUse" xlink:href="#linearGradient5062"/><linearGradient id="linearGradient5072" x1="3.813" x2="19.801" y1="51.689" y2="51.689" gradientUnits="userSpaceOnUse" xlink:href="#linearGradient5062"/><linearGradient id="linearGradient5080" x1="13.818" x2="29.806" y1="25.689" y2="25.689" gradientUnits="userSpaceOnUse" xlink:href="#linearGradient5062"/><linearGradient id="linearGradient5088" x1="43.818" x2="59.806" y1="11.684" y2="11.684" gradientUnits="userSpaceOnUse" xlink:href="#linearGradient5062"/></defs><metadata id="metadata3090"/><g id="g1815"><path id="path3061-2-6" fill="#d3d7cf" stroke="#2e3436" stroke-linecap="butt" stroke-linejoin="miter" stroke-opacity="1" stroke-width="2" d="m 39.867728,50.432299 -5.043926,3.249433 -14.37481,-26.019768 5.043926,-3.249432 z"/><path id="path3063-7-1" fill="none" stroke="#fff" stroke-linecap="butt" stroke-linejoin="miter" stroke-opacity="1" stroke-width="2" d="M 37.798712,50.675315 24.245786,26.416728"/><path id="path3061-2" fill="#d3d7cf" stroke="#2e3436" stroke-linecap="butt" stroke-linejoin="miter" stroke-opacity="1" stroke-width="2" d="M 14.384846,55.128496 8.5892901,53.575582 18.204445,25.447086 24,27 Z"/><path id="path3063-7" fill="none" stroke="#fff" stroke-linecap="butt" stroke-linejoin="miter" stroke-opacity="1" stroke-width="2" d="m 10.858731,52.833317 8.939981,-25.6087"/><path id="path3061" fill="#d3d7cf" stroke="#2e3436" stroke-linecap="butt" stroke-linejoin="miter" stroke-opacity="1" stroke-width="2" d="M 40.599427,54.421192 34.803871,52.868278 50.204445,7.8977836 56,9.450698 Z"/><path id="path3063" fill="none" stroke="#fff" stroke-linecap="butt" stroke-linejoin="miter" stroke-opacity="1" stroke-width="2" d="M 37.073312,52.126013 51.798712,9.675315"/><path id="path4250-71" fill="none" stroke="#2e2900" stroke-dasharray="none" stroke-miterlimit="4" stroke-opacity="1" stroke-width="2" d="M 44.970374,5.822785 A 8.993818,8.9934077 0.02042283 1 1 58.632785,17.5224 8.993818,8.9934077 0.02042283 1 1 44.970374,5.822785 Z"/><path id="path4250-7-3" fill="url(#linearGradient5088)" fill-opacity="1" stroke="#729fcf" stroke-dasharray="none" stroke-miterlimit="4" stroke-opacity="1" stroke-width="2" d="M 46.49299,7.133747 A 6.9999997,7.0000001 0 1 1 57.126578,16.240159 6.9999997,7.0000001 0 0 1 46.49299,7.133747 Z"/><path id="path4250-71-6" fill="none" stroke="#2e2900" stroke-dasharray="none" stroke-miterlimit="4" stroke-opacity="1" stroke-width="2" d="M 30.970374,45.82823 A 8.993818,8.9934077 0.02042283 1 1 44.632785,57.527845 8.993818,8.9934077 0.02042283 1 1 30.970374,45.82823 Z"/><path id="path4250-7-3-2" fill="url(#linearGradient5064)" fill-opacity="1" stroke="#729fcf" stroke-dasharray="none" stroke-miterlimit="4" stroke-opacity="1" stroke-width="2" d="M 32.49299,47.139192 A 6.9999997,7.0000001 0 1 1 43.126578,56.245604 6.9999997,7.0000001 0 0 1 32.49299,47.139192 Z"/><path id="path4250-71-8" fill="none" stroke="#2e2900" stroke-dasharray="none" stroke-miterlimit="4" stroke-opacity="1" stroke-width="2" d="M 14.970374,19.82823 A 8.993818,8.9934077 0.02042283 1 1 28.632785,31.527845 8.993818,8.9934077 0.02042283 1 1 14.970374,19.82823 Z"/><path id="path4250-7-3-8" fill="url(#linearGradient5080)" fill-opacity="1" stroke="#729fcf" stroke-dasharray="none" stroke-miterlimit="4" stroke-opacity="1" stroke-width="2" d="M 16.49299,21.139192 A 6.9999997,7.0000001 0 1 1 27.126578,30.245604 6.9999997,7.0000001 0 0 1 16.49299,21.139192 Z"/><path id="path4250-71-1" fill="none" stroke="#2e2900" stroke-dasharray="none" stroke-miterlimit="4" stroke-opacity="1" stroke-width="2" d="M 4.964639,45.82823 A 8.993818,8.9934077 0.02042283 1 1 18.62705,57.527845 8.993818,8.9934077 0.02042283 1 1 4.964639,45.82823 Z"/><path id="path4250-7-3-5" fill="url(#linearGradient5072)" fill-opacity="1" stroke="#729fcf" stroke-dasharray="none" stroke-miterlimit="4" stroke-opacity="1" stroke-width="2" d="M 6.487255,47.139192 A 6.9999997,7.0000001 0 1 1 17.120843,56.245604 6.9999997,7.0000001 0 0 1 6.487255,47.139192 Z"/></g></svg>