<svg xmlns="http://www.w3.org/2000/svg" xmlns:svg="http://www.w3.org/2000/svg" xmlns:xlink="http://www.w3.org/1999/xlink" id="svg2784" width="64" height="64" version="1.1"><title id="title3260">Mesh_Ellipsoid</title><defs id="defs2786"><linearGradient id="linearGradient3777"><stop id="stop3779" offset="0" stop-color="#71b2f8" stop-opacity="1"/><stop id="stop3781" offset="1" stop-color="#002795" stop-opacity="1"/></linearGradient><linearGradient id="linearGradient3377"><stop id="stop3379" offset="0" stop-color="#faff2b" stop-opacity="1"/><stop id="stop3381" offset="1" stop-color="#fa0" stop-opacity="1"/></linearGradient><radialGradient id="radialGradient3692" cx="45.883" cy="28.87" r="19.467" fx="45.883" fy="28.87" gradientUnits="userSpaceOnUse" xlink:href="#linearGradient4391"/><radialGradient id="radialGradient4514" cx="45.883" cy="28.87" r="19.467" fx="45.883" fy="28.87" gradientTransform="translate(-135.72159,-55.525617)" gradientUnits="userSpaceOnUse" xlink:href="#linearGradient3377-3"/><linearGradient id="linearGradient3377-3"><stop id="stop3379-8" offset="0" stop-color="#faff2b" stop-opacity="1"/><stop id="stop3381-3" offset="1" stop-color="#fa0" stop-opacity="1"/></linearGradient><radialGradient id="radialGradient3026" cx="45.883" cy="28.87" r="19.467" fx="45.883" fy="28.87" gradientTransform="translate(-135.72159,-55.525617)" gradientUnits="userSpaceOnUse" xlink:href="#linearGradient3377-3"/><radialGradient id="radialGradient3026-0" cx="45.883" cy="28.87" r="19.467" fx="45.883" fy="28.87" gradientTransform="translate(-135.72159,-55.525617)" gradientUnits="userSpaceOnUse" xlink:href="#linearGradient3377-3-4"/><linearGradient id="linearGradient3377-3-4"><stop id="stop3379-8-3" offset="0" stop-color="#faff2b" stop-opacity="1"/><stop id="stop3381-3-0" offset="1" stop-color="#fa0" stop-opacity="1"/></linearGradient><radialGradient id="radialGradient3046" cx="45.883" cy="28.87" r="19.467" fx="45.883" fy="28.87" gradientTransform="translate(-135.72159,-55.525617)" gradientUnits="userSpaceOnUse" xlink:href="#linearGradient3377-3-4"/><radialGradient id="radialGradient3072" cx="45.883" cy="28.87" r="19.467" fx="45.883" fy="28.87" gradientTransform="matrix(0.3349762,0.94222659,-0.94222659,0.3349762,60.740747,-155.53235)" gradientUnits="userSpaceOnUse" xlink:href="#linearGradient3377-3-4"/><radialGradient id="radialGradient3711" cx="210.147" cy="90.154" r="19.467" fx="210.147" fy="90.154" gradientTransform="matrix(0.4753781,0.8155084,-1.8390522,1.0720245,273.2829,-177.15465)" gradientUnits="userSpaceOnUse" xlink:href="#linearGradient4391"/><linearGradient id="linearGradient4391"><stop id="stop4393" offset="0" stop-color="#8ae234" stop-opacity="1"/><stop id="stop4395" offset="1" stop-color="#4e9a06" stop-opacity="1"/></linearGradient><radialGradient id="radialGradient5728" cx="210.147" cy="90.154" r="19.467" fx="210.147" fy="90.154" gradientTransform="matrix(0.4753781,0.8155084,-1.8390522,1.0720245,45.22607,-257.40997)" gradientUnits="userSpaceOnUse" xlink:href="#linearGradient4391"/><radialGradient id="radialGradient3113" cx="25.188" cy="41.625" r="18.063" fx="25.188" fy="41.625" gradientTransform="matrix(1,0,0,0.32526,0,28.08607)" gradientUnits="userSpaceOnUse" xlink:href="#linearGradient2269"/><linearGradient id="linearGradient2269"><stop id="stop2271" offset="0" stop-color="#000" stop-opacity="1"/><stop id="stop2273" offset="1" stop-color="#000" stop-opacity="0"/></linearGradient><radialGradient id="radialGradient3060" cx="25.188" cy="41.625" r="18.063" fx="25.188" fy="41.625" gradientTransform="matrix(1,0,0,0.32526,0,28.08607)" gradientUnits="userSpaceOnUse" xlink:href="#linearGradient2269"/><radialGradient id="radialGradient3922" cx="15.918" cy="53.56" r="29" fx="15.918" fy="53.56" gradientTransform="matrix(0.00125623,0.6424978,-1.3990533,0.00273542,105.93456,63.43972)" gradientUnits="userSpaceOnUse" xlink:href="#linearGradient2269"/><radialGradient id="radialGradient3938" cx="15.95" cy="53.318" r="29.5" fx="15.95" fy="53.318" gradientTransform="matrix(0.00123493,0.631608,-1.3753404,0.00268907,104.33181,63.59592)" gradientUnits="userSpaceOnUse" xlink:href="#linearGradient4391"/></defs><metadata id="metadata2789"/><g id="layer1"><path id="path2267" fill="url(#radialGradient3060)" fill-opacity="1" fill-rule="evenodd" stroke="none" stroke-width="1" d="m 43.25,41.625 a 18.0625,5.875 0 1 1 -36.125,0 18.0625,5.875 0 1 1 36.125,0 z" color="#000" display="inline" opacity=".267" overflow="visible" transform="matrix(1.652249,0,0,1.1276596,-7.7417123,-0.14601302)" visibility="visible" style="marker:none"/><path id="path3806-6" fill="url(#radialGradient3938)" fill-opacity="1" stroke="url(#radialGradient3922)" d="M 61,86 A 29,15 0 1 1 3,86 29,15 0 1 1 61,86 z" transform="matrix(0.85599925,-0.51697707,0.51697707,0.85599925,-40.825539,-30.778071)"/><path id="path3806-35" fill="none" stroke="#8ae234" stroke-dasharray="none" stroke-miterlimit="3.984" stroke-opacity="1" stroke-width="2.226" d="M 61,86 A 29,15 0 1 1 3,86 29,15 0 1 1 61,86 z" transform="matrix(0.79696482,-0.48132347,0.44804678,0.741866,-33.008434,-22.103526)"/><path id="path3806" fill="none" stroke="#172a04" stroke-dasharray="none" stroke-miterlimit="3.984" stroke-opacity="1" stroke-width="2" d="M 61,86 A 29,15 0 1 1 3,86 29,15 0 1 1 61,86 z" transform="matrix(0.85599925,-0.51697707,0.51697707,0.85599925,-40.825539,-30.778071)"/><path id="path3806-3" fill="none" stroke="#172a04" stroke-miterlimit="3.984" stroke-opacity="1" stroke-width="2" d="M 20.449225,45.533161 C 26.424332,36.083386 40.120321,27.811755 52.977197,25.888027"/><path id="path3833" fill="none" stroke="#172a04" stroke-linecap="butt" stroke-linejoin="miter" stroke-opacity="1" stroke-width="2" d="M 6.2024834,41.286929 55.850443,11.302264"/><path id="path3806-3-6" fill="none" stroke="#172a04" stroke-miterlimit="3.984" stroke-opacity="1" stroke-width="2" d="M 9.0757287,26.701171 C 20.220608,25.811397 33.916595,17.539764 41.603702,7.0560425"/><path id="path3853" fill="none" stroke="#172a04" stroke-linecap="butt" stroke-linejoin="miter" stroke-opacity="1" stroke-width="2" d="M 9.0757287,26.701171 C 7.0415951,34.939026 12.211368,43.499025 20.449225,45.533161"/><path id="path3855" fill="none" stroke="#172a04" stroke-linecap="butt" stroke-linejoin="miter" stroke-opacity="1" stroke-width="2" d="m 18.991811,16.039495 c -3.0512,12.356788 3.152525,22.628781 15.509313,25.679979"/><path id="path3857" fill="none" stroke="#172a04" stroke-linecap="butt" stroke-linejoin="miter" stroke-opacity="1" stroke-width="2" d="M 23.271807,13.45461 38.781119,39.134584"/><path id="path3853-7" fill="none" stroke="#172a04" stroke-linecap="butt" stroke-linejoin="miter" stroke-opacity="1" stroke-width="2" d="M 41.603702,7.0560425 C 49.84156,9.0901753 55.011329,17.650169 52.977197,25.888027"/><path id="path3855-5" fill="none" stroke="#172a04" stroke-linecap="butt" stroke-linejoin="miter" stroke-opacity="1" stroke-width="2" d="m 27.551803,10.869725 c 12.356788,3.051199 18.560513,13.32319 15.509313,25.679979"/></g></svg>