<svg xmlns="http://www.w3.org/2000/svg" xmlns:svg="http://www.w3.org/2000/svg" xmlns:xlink="http://www.w3.org/1999/xlink" id="svg2821" width="64" height="64" version="1.1"><title id="title3261">Mesh_Cylinder</title><defs id="defs2823"><linearGradient id="linearGradient4399"><stop id="stop4401" offset="0" stop-color="#0f0" stop-opacity="1"/><stop id="stop4403" offset="1" stop-color="#fff" stop-opacity="0"/></linearGradient><linearGradient id="linearGradient4391"><stop id="stop4393" offset="0" stop-color="#0f0" stop-opacity="1"/><stop id="stop4395" offset="1" stop-color="#0f7d0f" stop-opacity="1"/></linearGradient><radialGradient id="radialGradient3701" cx="83.722" cy="84.604" r="19.467" fx="83.722" fy="84.604" gradientTransform="matrix(1.8600164,2.0819639,-1.8011177,1.6091098,75.176237,-227.94519)" gradientUnits="userSpaceOnUse" xlink:href="#linearGradient4391"/><linearGradient id="linearGradient3377"><stop id="stop3379" offset="0" stop-color="#faff2b" stop-opacity="1"/><stop id="stop3381" offset="1" stop-color="#fa0" stop-opacity="1"/></linearGradient><linearGradient id="linearGradient4397" x1="72.474" x2="99.154" y1="98.786" y2="100.786" gradientUnits="userSpaceOnUse" xlink:href="#linearGradient4391"/><radialGradient id="radialGradient4081" cx="25.188" cy="41.625" r="18.063" fx="25.188" fy="41.625" gradientTransform="matrix(1,0,0,0.32526,0,28.08607)" gradientUnits="userSpaceOnUse" xlink:href="#linearGradient2269-1"/><linearGradient id="linearGradient2269-1"><stop id="stop2271-2" offset="0" stop-color="#000" stop-opacity="1"/><stop id="stop2273-1" offset="1" stop-color="#000" stop-opacity="0"/></linearGradient><linearGradient id="linearGradient4004" x1="36.719" x2="56" y1="35.689" y2="35.689" gradientTransform="matrix(1.560103,0,0,1.560103,-40.043502,0.07927942)" gradientUnits="userSpaceOnUse" xlink:href="#linearGradient3972"/><linearGradient id="linearGradient3972"><stop id="stop3974" offset="0" stop-color="#8ae234" stop-opacity="1"/><stop id="stop3976" offset="1" stop-color="#73d216" stop-opacity="1"/></linearGradient><linearGradient id="linearGradient3970" x1="99.075" x2="117.815" y1="16.47" y2="15.977" gradientUnits="userSpaceOnUse" xlink:href="#linearGradient3972"/><linearGradient id="linearGradient3090"><stop id="stop3092" offset="0" stop-color="#8ae234" stop-opacity="1"/><stop id="stop3094" offset="1" stop-color="#73d216" stop-opacity="1"/></linearGradient><linearGradient id="linearGradient3908" x1="34" x2="57" y1="18" y2="24" gradientTransform="translate(2,2)" gradientUnits="userSpaceOnUse" xlink:href="#linearGradient3892"/><linearGradient id="linearGradient3892"><stop id="stop3894" offset="0" stop-color="#8ae234" stop-opacity="1"/><stop id="stop3896" offset="1" stop-color="#4e9a06" stop-opacity="1"/></linearGradient><linearGradient id="linearGradient3114" x1="34" x2="57" y1="18" y2="24" gradientTransform="matrix(1.560103,0,0,1.560103,-40.043502,-1.9207206)" gradientUnits="userSpaceOnUse" xlink:href="#linearGradient3892"/></defs><metadata id="metadata2826"/><g id="layer1"><path id="path3890" fill="url(#linearGradient3114)" fill-opacity="1" stroke="#172a04" stroke-linecap="round" stroke-linejoin="round" stroke-opacity="1" stroke-width="2" d="m 48.88237,9 0,46.803091 c -6.88237,3 -11.88237,4 -17.88237,4 -6,0 -11,-1 -18,-4 L 13,9 z"/><path id="path3962" fill="none" stroke="#73d216" stroke-linecap="butt" stroke-linejoin="miter" stroke-opacity="1" stroke-width="2" d="m 47,13.803091 0,41"/><path id="path3870-2" fill="#73d216" stroke="url(#linearGradient3970)" stroke-dasharray="none" stroke-linecap="round" stroke-linejoin="round" stroke-miterlimit="4" stroke-opacity="1" stroke-width="1.543" d="m 119.56862,12.5 a 11.568624,5.2723789 0 1 1 -10e-6,-0.0081" transform="matrix(1.5306778,0.02805427,-0.20842853,1.0650023,-131.51812,-5.3222136)"/><path id="path3996" fill="none" stroke="url(#linearGradient4004)" stroke-linecap="butt" stroke-linejoin="miter" stroke-opacity="1" stroke-width="2" d="m 49,53.803091 c -7,3 -12,4 -18,4 -5.656668,0 -11,-1 -18,-4"/><path id="path3890-6" fill="none" stroke="#172a04" stroke-linecap="round" stroke-linejoin="round" stroke-opacity="1" stroke-width="2" d="m 13,55.803091 0,-47.000001 36,0 -0.11763,47.000001"/><path id="path3848-4" fill="none" stroke="#172a04" stroke-linecap="butt" stroke-linejoin="miter" stroke-opacity="1" stroke-width="2" d="m 35,59.803091 -16,-48"/><path id="path3870" fill="#8ae234" fill-opacity="1" stroke="#172a04" stroke-dasharray="none" stroke-linecap="round" stroke-linejoin="round" stroke-miterlimit="4" stroke-opacity="1" stroke-width="1.543" d="m 119.32651,12.5 a 11.326509,5.5296402 0 1 1 -1e-5,-0.0085" transform="matrix(1.5859358,0.02795853,-0.21595287,1.061368,-137.53206,-7.6102506)"/><path id="path3848-4-5" fill="none" stroke="#172a04" stroke-linecap="butt" stroke-linejoin="miter" stroke-opacity="1" stroke-width="2" d="m 35,58.803091 0,-45"/><path id="path3848-4-8" fill="none" stroke="#172a04" stroke-linecap="butt" stroke-linejoin="miter" stroke-opacity="1" stroke-width="2" d="M 48.88237,43.322267 35,13.803091"/><path id="path2267-4" fill="url(#radialGradient4081)" fill-opacity="1" fill-rule="evenodd" stroke="none" stroke-width="1" d="m 43.25,41.625 a 18.0625,5.875 0 1 1 -36.125,0 18.0625,5.875 0 1 1 36.125,0 z" color="#000" display="inline" opacity=".267" overflow="visible" transform="matrix(1.036073,0,0,0.75255287,4.1476483,28.061126)" visibility="visible" style="marker:none"/><path id="path3848-4-8-1" fill="none" stroke="#172a04" stroke-linecap="round" stroke-linejoin="miter" stroke-opacity="1" stroke-width="2" d="M 29,3.8030904 19,11.803091"/><path id="path3848-4-8-7" fill="none" stroke="#172a04" stroke-linecap="butt" stroke-linejoin="miter" stroke-opacity="1" stroke-width="2" d="M 35,13.803091 29,3.8030904"/><path id="path3848-4-8-4" fill="none" stroke="#172a04" stroke-linecap="butt" stroke-linejoin="miter" stroke-opacity="1" stroke-width="2" d="M 35,13.803091 44.20206,4.3196913"/><path id="path3848-4-5-3" fill="none" stroke="#172a04" stroke-linecap="butt" stroke-linejoin="miter" stroke-opacity="1" stroke-width="2" d="m 19,57.803091 0,-45"/><path id="path3848-4-6" fill="none" stroke="#172a04" stroke-linecap="butt" stroke-linejoin="miter" stroke-opacity="1" stroke-width="2" d="m 19,57.803091 -6,-18"/></g></svg>