<svg xmlns="http://www.w3.org/2000/svg" xmlns:svg="http://www.w3.org/2000/svg" xmlns:xlink="http://www.w3.org/1999/xlink" id="svg2901" width="64" height="64" version="1.1"><title id="title3258">Mesh_Torus</title><defs id="defs2903"><linearGradient id="linearGradient3990"><stop id="stop3992" offset="0" stop-color="#8ae234" stop-opacity="1"/><stop id="stop3994" offset="1" stop-color="#4e9a06" stop-opacity="1"/></linearGradient><linearGradient id="linearGradient3273"><stop id="stop3275" offset="0" stop-color="#faff2b" stop-opacity="1"/><stop id="stop3277" offset="1" stop-color="#faff2b" stop-opacity="0"/></linearGradient><linearGradient id="linearGradient3377"><stop id="stop3379" offset="0" stop-color="#faff2b" stop-opacity="1"/><stop id="stop3381" offset="1" stop-color="#fa0" stop-opacity="1"/></linearGradient><radialGradient id="radialGradient3692" cx="42.871" cy="28.422" r="19.467" fx="42.871" fy="28.422" gradientTransform="matrix(0.69820836,0.90688615,-0.80234164,0.6177199,36.829014,-29.491992)" gradientUnits="userSpaceOnUse" xlink:href="#linearGradient4391"/><linearGradient id="linearGradient4391"><stop id="stop4393" offset="0" stop-color="#0f0" stop-opacity="1"/><stop id="stop4395" offset="1" stop-color="#0f7d0f" stop-opacity="1"/></linearGradient><radialGradient id="radialGradient4002" cx="-42.161" cy="8.94" r="29" fx="-42.161" fy="8.94" gradientTransform="matrix(0.16646849,0.31034481,-0.82047173,0.47209691,34.836409,28.863804)" gradientUnits="userSpaceOnUse" spreadMethod="reflect" xlink:href="#linearGradient3990"/><radialGradient id="radialGradient4002-5" cx="-58.65" cy="9.251" r="29" fx="-58.65" fy="9.251" gradientTransform="matrix(0.2052298,0.34448422,-0.79876492,0.51046978,36.398051,34.208664)" gradientUnits="userSpaceOnUse" spreadMethod="reflect" xlink:href="#linearGradient3990-1"/><linearGradient id="linearGradient3990-1"><stop id="stop3992-9" offset="0" stop-color="#8ae234" stop-opacity="1"/><stop id="stop3994-7" offset="1" stop-color="#4e9a06" stop-opacity="1"/></linearGradient><radialGradient id="radialGradient3042" cx="25.188" cy="41.625" r="18.063" fx="25.188" fy="41.625" gradientTransform="matrix(1,0,0,0.32526,0,28.08607)" gradientUnits="userSpaceOnUse" xlink:href="#linearGradient2269"/><linearGradient id="linearGradient2269"><stop id="stop2271" offset="0" stop-color="#000" stop-opacity="1"/><stop id="stop2273" offset="1" stop-color="#000" stop-opacity="0"/></linearGradient><radialGradient id="radialGradient3035" cx="25.188" cy="41.625" r="18.063" fx="25.188" fy="41.625" gradientTransform="matrix(1,0,0,0.32526,0,28.08607)" gradientUnits="userSpaceOnUse" xlink:href="#linearGradient2269"/><radialGradient id="radialGradient3035-3" cx="25.188" cy="41.625" r="18.063" fx="25.188" fy="41.625" gradientTransform="matrix(1,0,0,0.32526,0,28.08607)" gradientUnits="userSpaceOnUse" xlink:href="#linearGradient2269-6"/><linearGradient id="linearGradient2269-6"><stop id="stop2271-7" offset="0" stop-color="#000" stop-opacity="1"/><stop id="stop2273-5" offset="1" stop-color="#000" stop-opacity="0"/></linearGradient><radialGradient id="radialGradient3048" cx="25.188" cy="41.625" r="18.063" fx="25.188" fy="41.625" gradientTransform="matrix(1,0,0,0.32526,0,28.08607)" gradientUnits="userSpaceOnUse" xlink:href="#linearGradient2269-6"/><radialGradient id="radialGradient3087" cx="-42.161" cy="8.94" r="29" fx="-42.161" fy="8.94" gradientTransform="matrix(0.16646849,0.31034481,-0.82047173,0.47209691,34.836409,28.863804)" gradientUnits="userSpaceOnUse" spreadMethod="reflect" xlink:href="#linearGradient3990"/><radialGradient id="radialGradient3121" cx="-42.161" cy="8.94" r="29" fx="-42.161" fy="8.94" gradientTransform="matrix(0.1724138,0.31034481,-0.8497743,0.47209691,32.866281,23.863804)" gradientUnits="userSpaceOnUse" spreadMethod="reflect" xlink:href="#linearGradient3990"/></defs><metadata id="metadata2906"/><g id="layer1"><path id="path2267" fill="url(#radialGradient3035)" fill-opacity="1" fill-rule="evenodd" stroke="none" stroke-width="1" d="m 43.25,41.625 a 18.0625,5.875 0 1 1 -36.125,0 18.0625,5.875 0 1 1 36.125,0 z" clip-path="none" color="#000" display="inline" opacity=".267" overflow="visible" transform="matrix(1.652249,0,0,1.1276596,-7.6160214,-0.64827936)" visibility="visible" style="marker:none"/><path id="path3010" fill="url(#radialGradient3121)" fill-opacity="1" stroke="#172a04" stroke-dasharray="none" stroke-linecap="round" stroke-linejoin="round" stroke-miterlimit="3.984" stroke-opacity="1" stroke-width="2.035" d="M 32 9 C 15.983742 9 3 16.611159 3 26 C 3 35.388841 15.983742 43 32 43 C 48.016258 43 61 35.388841 61 26 C 61 16.611159 48.016258 9 32 9 z M 32.15625 21.0625 C 38.15416 21.01272 41.37295 22.743841 42.71875 24.15625 C 42.03968 25.632941 38.0843 28.12903 32.09375 28.0625 C 25.83238 27.99296 22.45176 25.935718 21.3125 24.1875 C 22.29036 22.830112 25.85321 21.11481 32.15625 21.0625 z" clip-path="none"/><path id="path3010-1" fill="none" stroke="#8ae234" stroke-dasharray="none" stroke-linecap="round" stroke-linejoin="round" stroke-miterlimit="3.984" stroke-opacity="1" stroke-width="2.207" d="M 62,31 A 28,17 0 1 1 6,31 28,17 0 1 1 62,31 z" transform="matrix(0.96428571,0,0,0.88235294,-0.78571429,-1.3529412)"/><path id="path3010-3" fill="none" stroke="#172a04" stroke-dasharray="none" stroke-linecap="round" stroke-linejoin="round" stroke-miterlimit="3.984" stroke-opacity="1" stroke-width="2" d="m 32,17 c -6.627417,0 -12,2.686291 -12,6 0,3.313709 5.372583,6 12,6 6.627417,0 12,-2.686291 12,-6 0,-3.313709 -5.372583,-6 -12,-6 z m 0.1875,4 C 38.18541,20.95022 41.4042,22.681341 42.75,24.09375 42.07093,25.570441 38.11555,28.06653 32.125,28 25.86363,27.93046 22.48301,25.873218 21.34375,24.125 22.32161,22.767612 25.88446,21.05231 32.1875,21 z"/><path id="path3798" fill="none" stroke="#172a04" stroke-linecap="butt" stroke-linejoin="miter" stroke-opacity="1" stroke-width="2" d="m 44,23 c 5,-7 15,-4 17,2"/><path id="path3800" fill="none" stroke="#172a04" stroke-linecap="butt" stroke-linejoin="miter" stroke-opacity="1" stroke-width="2" d="M 38.951788,27.871435 C 43.951788,24.871435 47,35 45,41"/><g id="g3857" transform="matrix(-1,0,0,1,83.16047,-7.681818)"><path id="path3798-3" fill="none" stroke="#172a04" stroke-linecap="butt" stroke-linejoin="miter" stroke-opacity="1" stroke-width="2" d="m 63.16047,30.681818 c 5,-7 15,-4 17,2"/><path id="path3800-5" fill="none" stroke="#172a04" stroke-linecap="butt" stroke-linejoin="miter" stroke-opacity="1" stroke-width="2" d="m 58.112258,35.553253 c 5,-3 8.048212,7.128565 6.048212,13.128565"/><path id="path3802-6" fill="none" stroke="#172a04" stroke-linecap="butt" stroke-linejoin="miter" stroke-opacity="1" stroke-width="2" d="m 60.16047,29.681818 c -5,-8 1,-11 2,-12"/><path id="path3802-6-2" fill="none" stroke="#172a04" stroke-linecap="butt" stroke-linejoin="miter" stroke-opacity="1" stroke-width="2" d="m 42.16047,29.681818 c 5,-8 -1,-11 -2,-12"/></g><path id="path3010-2" fill="none" stroke="#172a04" stroke-dasharray="none" stroke-linecap="round" stroke-linejoin="round" stroke-miterlimit="3.984" stroke-opacity="1" stroke-width="3.314" d="M 62,31 A 28,17 0 1 1 6,31 28,17 0 1 1 62,31 z" transform="matrix(0.62500001,0,0,0.60344827,10.75,3.034483)"/><path id="path3010-9" fill="none" stroke="#172a04" stroke-linecap="round" stroke-linejoin="round" stroke-miterlimit="3.984" stroke-opacity="1" stroke-width="2.035" d="M 60.49951,24.14471 C 57.536776,33.371516 42.375339,39.443385 26.635494,37.706609 14.429902,36.359813 5.0423537,30.606287 3.290076,23.39846"/><path id="path3010-3-1" fill="none" stroke="#172a04" stroke-dasharray="none" stroke-linecap="round" stroke-linejoin="round" stroke-miterlimit="3.984" stroke-opacity="1" stroke-width="2" d="M 31.09375 20.09375 C 30.689468 20.106725 30.282663 20.125677 29.875 20.15625 C 25.265461 20.501948 21.550223 21.95468 20.375 23.84375 L 21 23.84375 C 20.992396 23.832349 20.976163 23.823875 20.96875 23.8125 C 21.94661 22.455112 25.50946 20.73981 31.8125 20.6875 C 37.81041 20.63772 41.0292 22.368841 42.375 23.78125 C 42.318583 23.903932 42.225751 24.02155 42.125 24.15625 L 43.8125 24.1875 C 42.711867 21.639608 37.157983 19.89912 31.09375 20.09375 z"/></g></svg>