<svg xmlns="http://www.w3.org/2000/svg" xmlns:svg="http://www.w3.org/2000/svg" xmlns:xlink="http://www.w3.org/1999/xlink" id="svg2784" width="64" height="64" version="1.1"><title id="title3262">Mesh_Sphere</title><defs id="defs2786"><linearGradient id="linearGradient3935"><stop id="stop3937" offset="0" stop-color="#8ae234" stop-opacity="1"/><stop id="stop3951" offset="1" stop-color="#4e9a06" stop-opacity="1"/></linearGradient><linearGradient id="linearGradient3919"><stop id="stop3921" offset="0" stop-color="#4e9a06" stop-opacity="1"/><stop id="stop3923" offset="1" stop-color="#8ae234" stop-opacity="1"/></linearGradient><linearGradient id="linearGradient3377"><stop id="stop3379" offset="0" stop-color="#faff2b" stop-opacity="1"/><stop id="stop3381" offset="1" stop-color="#fa0" stop-opacity="1"/></linearGradient><radialGradient id="radialGradient3692" cx="42.871" cy="28.422" r="19.467" fx="42.871" fy="28.422" gradientTransform="matrix(0.69820836,0.90688615,-0.80234164,0.6177199,36.829014,-29.491992)" gradientUnits="userSpaceOnUse" xlink:href="#linearGradient4391"/><linearGradient id="linearGradient4397" x1="72.474" x2="99.154" y1="98.786" y2="100.786" gradientUnits="userSpaceOnUse" xlink:href="#linearGradient4391"/><linearGradient id="linearGradient4391"><stop id="stop4393" offset="0" stop-color="#0f0" stop-opacity="1"/><stop id="stop4395" offset="1" stop-color="#0f7d0f" stop-opacity="1"/></linearGradient><radialGradient id="radialGradient3060" cx="25.188" cy="41.625" r="18.063" fx="25.188" fy="41.625" gradientTransform="matrix(1,0,0,0.32526,0,28.08607)" gradientUnits="userSpaceOnUse" xlink:href="#linearGradient2269"/><linearGradient id="linearGradient2269"><stop id="stop2271" offset="0" stop-color="#000" stop-opacity="1"/><stop id="stop2273" offset="1" stop-color="#000" stop-opacity="0"/></linearGradient><radialGradient id="radialGradient3042" cx="25.188" cy="41.625" r="18.063" fx="25.188" fy="41.625" gradientTransform="matrix(1,0,0,0.32526,0,28.08607)" gradientUnits="userSpaceOnUse" xlink:href="#linearGradient2269"/><radialGradient id="radialGradient3949" cx="43.68" cy="27.062" r="30.115" fx="43.68" fy="27.062" gradientTransform="matrix(-1.0589184,0.76635813,-0.69489076,-0.96296297,87.204733,1.8581631)" gradientUnits="userSpaceOnUse" xlink:href="#linearGradient3935"/></defs><metadata id="metadata2789"/><g id="layer1"><path id="path2267" fill="url(#radialGradient3042)" fill-opacity="1" fill-rule="evenodd" stroke="none" stroke-width="1" d="m 43.25,41.625 a 18.0625,5.875 0 1 1 -36.125,0 18.0625,5.875 0 1 1 36.125,0 z" color="#000" display="inline" opacity=".267" overflow="visible" transform="matrix(1.652249,0,0,1.1276596,-7.6160217,8.436169)" visibility="visible" style="marker:none"/><path id="path3025-2" fill="url(#radialGradient3949)" fill-opacity="1" stroke="#8ae234" stroke-opacity="1" stroke-width="2.626" d="M 64,33 A 29,29 0 1 1 6,33 29,29 0 1 1 64,33 z" transform="matrix(0.79310344,0,0,0.79310345,4.2413793,2.8275862)"/><path id="path3025" fill="none" stroke="#172a04" stroke-opacity="1" stroke-width="2.417" d="M 64,33 A 29,29 0 1 1 6,33 29,29 0 1 1 64,33 z" transform="matrix(0.86206896,0,0,0.86206895,1.8275862,0.55172485)"/><path id="path3795" fill="none" stroke="#172a04" stroke-linecap="butt" stroke-linejoin="miter" stroke-opacity="1" stroke-width="2.083" d="M 32,4.0000006 32,54"/><path id="path3797" fill="none" stroke="#172a04" stroke-linecap="butt" stroke-linejoin="miter" stroke-opacity="1" stroke-width="2.083" d="M 32,54 C 16.482758,49.689655 16.482758,8.3103455 32,4.0000006"/><path id="path3799" fill="none" stroke="#172a04" stroke-linecap="round" stroke-linejoin="round" stroke-opacity="1" stroke-width="2.083" d="m 25.965517,4.8620694 c -19.8275862,10.3448276 -18.1034483,37.9310336 0,48.2758616"/><path id="path3797-3" fill="none" stroke="#172a04" stroke-linecap="butt" stroke-linejoin="miter" stroke-opacity="1" stroke-width="2.083" d="M 32,54 C 47.517241,49.689655 47.517241,8.3103455 32,4.0000006"/><path id="path3799-6" fill="none" stroke="#172a04" stroke-linecap="round" stroke-linejoin="round" stroke-opacity="1" stroke-width="2.083" d="m 38.034482,4.8620694 c 19.827586,10.3448276 18.103449,37.9310336 0,48.2758616"/><g id="g3854" stroke-width="2.417" transform="matrix(0,0.86206896,-0.86206896,0,67.344826,-17.551723)"><path id="path3795-7" fill="none" stroke="#172a04" stroke-linecap="butt" stroke-linejoin="miter" stroke-opacity="1" stroke-width="2.417" d="m 53,12 0,58"/><path id="path3861" fill="none" stroke="#172a04" stroke-linecap="butt" stroke-linejoin="miter" stroke-opacity="1" stroke-width="2.417" d="m 6,45 52,0" transform="matrix(0,-1,1,0,22,73)"/><path id="path3863" fill="none" stroke="#172a04" stroke-linecap="butt" stroke-linejoin="miter" stroke-opacity="1" stroke-width="2.417" d="m 7,17 50,0" transform="matrix(0,-1,1,0,22,73)"/><path id="path3865" fill="none" stroke="#172a04" stroke-linecap="butt" stroke-linejoin="miter" stroke-opacity="1" stroke-width="2.417" d="M 3,31 C 21,31 44,21 50,9" transform="matrix(0,-1,1,0,22,73)"/><path id="path3865-2" fill="none" stroke="#172a04" stroke-linecap="butt" stroke-linejoin="miter" stroke-opacity="1" stroke-width="2.417" d="M 67,67 C 67,49 59,19 47,13"/><path id="path3865-9" fill="none" stroke="#172a04" stroke-linecap="butt" stroke-linejoin="miter" stroke-opacity="1" stroke-width="2.417" d="M 39,66 C 39,48 31,35 27,32"/><path id="path3865-1" fill="none" stroke="#172a04" stroke-linecap="butt" stroke-linejoin="miter" stroke-opacity="1" stroke-width="2.417" d="M 80,54 C 80,36 71,20 67,15"/></g></g></svg>