<svg xmlns="http://www.w3.org/2000/svg" xmlns:svg="http://www.w3.org/2000/svg" xmlns:xlink="http://www.w3.org/1999/xlink" id="svg3000" width="64" height="64" version="1.1"><defs id="defs3002"><linearGradient id="linearGradient3393"><stop id="stop3395" offset="0" stop-color="#06989a" stop-opacity="1"/><stop id="stop3397" offset="1" stop-color="#34e0e2" stop-opacity="1"/></linearGradient><linearGradient id="linearGradient3399" x1="1650.449" x2="2052.891" y1="1752.971" y2="1767.56" gradientTransform="matrix(-0.25534521,-0.95296128,-0.96517316,0.25861737,3999.0287,3042.7301)" gradientUnits="userSpaceOnUse" xlink:href="#linearGradient3393"/><linearGradient id="linearGradient3399-1" x1="1669.731" x2="2067.17" y1="1726.059" y2="1726.059" gradientTransform="matrix(0.98657811,0,0,0.99922078,20.129251,-2.6811697)" gradientUnits="userSpaceOnUse" xlink:href="#linearGradient3393-7"/><linearGradient id="linearGradient3393-7"><stop id="stop3395-4" offset="0" stop-color="#003ddd" stop-opacity="1"/><stop id="stop3397-0" offset="1" stop-color="#639ef0" stop-opacity="1"/></linearGradient></defs><g id="layer1"><g id="g3405" transform="matrix(0.1369365,0,0,0.1369365,-222.21754,-203.36512)"><path id="path2396" fill="url(#linearGradient3399)" fill-opacity="1" fill-rule="evenodd" stroke="#042a2a" stroke-dasharray="none" stroke-dashoffset="0" stroke-linecap="round" stroke-linejoin="round" stroke-miterlimit="4" stroke-opacity="1" stroke-width="14.605" d="m 1835.0277,1902.9135 c -106.1484,-2.3589 -189.8111,-89.4894 -186.7502,-194.4908 3.0611,-105.0013 91.6921,-188.303 197.8404,-185.9442 55.9403,1.2433 105.6257,26.0285 139.6708,64.565 l 44.1198,-35.1059 37.4604,176.0561 -178.5573,-51.1979 41.4836,-45.5767 c -22.1039,-24.0141 -53.73,-39.3793 -89.2346,-40.1684 -69.1228,-1.536 -126.8308,52.7017 -128.824,121.0778 -1.9931,68.3762 52.4788,125.1377 121.6017,126.6738 19.7778,0.4394 38.6039,-3.7029 55.475,-11.4237 l 31.3948,57.7752 c -26.0336,11.9963 -55.1182,18.4389 -85.6804,17.7597 z" display="inline" enable-background="accumulate" overflow="visible" visibility="visible" style="marker:none"/><path id="path2396-9" fill="none" stroke="#34e0e2" stroke-dasharray="none" stroke-dashoffset="0" stroke-linecap="round" stroke-linejoin="miter" stroke-miterlimit="4" stroke-opacity="1" stroke-width="14.605" d="m 1830.4943,1887.6865 c -78.8923,-1.5361 -138.9163,-54.9141 -161.631,-130.1829 -32.4053,-107.38 55.6977,-196.5384 121.2835,-214.3605 100.7263,-27.3711 169.4379,33.3038 195.1926,62.9466 l 32.9948,-25.9656 28.5313,126.5336 -130.8309,-37.2342 36.266,-37.8417 c -59.0149,-55.9052 -101.9936,-63.2133 -153.0445,-50.3357 -52.2393,13.1775 -118.2783,78.5389 -98.4143,164.5079 17.2644,74.7179 82.9486,105.1278 134.9353,106.5777 17.3999,2.1436 33.9339,-2.2822 47.106,-6.2036 l 17.5742,32.2101 c -20.5378,6.6037 -46.0171,9.8144 -69.963,9.3483 z" display="inline" enable-background="accumulate" overflow="visible" visibility="visible" style="marker:none"/></g></g><metadata id="metadata5324"/></svg>