<svg xmlns="http://www.w3.org/2000/svg" xmlns:osb="http://www.openswatchbook.org/uri/2009/osb" xmlns:svg="http://www.w3.org/2000/svg" xmlns:xlink="http://www.w3.org/1999/xlink" id="Layer_1" width="64" height="64" x="0" y="0" enable-background="new 0 0 32 32" version="1.1" viewBox="0 0 64 64" xml:space="preserve"><metadata id="metadata9"/><defs id="defs7"><linearGradient id="linearGradient3914"><stop id="stop3916" offset="0" stop-color="#4e9a06" stop-opacity="1"/><stop id="stop3918" offset="1" stop-color="#8ae234" stop-opacity="1"/></linearGradient><linearGradient id="linearGradient3888"><stop id="stop3890" offset="0" stop-color="#204a87" stop-opacity="1"/><stop id="stop3892" offset="1" stop-color="#729fcf" stop-opacity="1"/></linearGradient><linearGradient id="linearGradient6899" osb:paint="solid"><stop id="stop6901" offset="0" stop-color="#074cff" stop-opacity="1"/></linearGradient><linearGradient id="linearGradient4668" osb:paint="gradient"><stop id="stop4670" offset="0" stop-color="#009b00" stop-opacity="1"/><stop id="stop4672" offset="1" stop-color="#009b00" stop-opacity="0"/></linearGradient><linearGradient id="linearGradient4662" osb:paint="solid"><stop id="stop4664" offset="0" stop-color="green" stop-opacity="1"/></linearGradient><linearGradient id="linearGradient4529" osb:paint="solid"><stop id="stop4531" offset="0" stop-color="#0047ff" stop-opacity="1"/></linearGradient><linearGradient id="linearGradient4513"><stop id="stop4515" offset="0" stop-color="#fff" stop-opacity="1"/><stop id="stop4517" offset="1" stop-color="#999" stop-opacity="1"/></linearGradient><linearGradient id="linearGradient3681"><stop id="stop3697" offset="0" stop-color="#fff110" stop-opacity="1"/><stop id="stop3685" offset="1" stop-color="#cf7008" stop-opacity="1"/></linearGradient><pattern id="pattern5231" patternTransform="matrix(0.67643728,-0.81829155,2.4578314,1.8844554,-26.450606,18.294947)" xlink:href="#Strips1_1-4"/><pattern id="Strips1_1-4" width="2" height="1" patternTransform="matrix(0.66772843,-1.0037085,2.4261878,2.3114548,3.4760987,3.534923)" patternUnits="userSpaceOnUse"><rect id="rect4483-4" width="1" height="2" x="0" y="-.5" fill="#000" stroke="none"/></pattern><pattern id="pattern5231-4" patternTransform="matrix(0.66772843,-1.0037085,2.4261878,2.3114548,39.618381,8.9692804)" xlink:href="#Strips1_1-6"/><pattern id="Strips1_1-6" width="2" height="1" patternTransform="matrix(0.66772843,-1.0037085,2.4261878,2.3114548,3.4760987,3.534923)" patternUnits="userSpaceOnUse"><rect id="rect4483-0" width="1" height="2" x="0" y="-.5" fill="#000" stroke="none"/></pattern><pattern id="pattern5296" patternTransform="matrix(0.66513382,-1.0631299,2.4167603,2.4482973,-49.762569,2.9546807)" xlink:href="#pattern5231-3"/><pattern id="pattern5231-3" patternTransform="matrix(0.66772843,-1.0037085,2.4261878,2.3114548,-26.336284,10.887197)" xlink:href="#Strips1_1-4-3"/><pattern id="Strips1_1-4-3" width="2" height="1" patternTransform="matrix(0.66772843,-1.0037085,2.4261878,2.3114548,3.4760987,3.534923)" patternUnits="userSpaceOnUse"><rect id="rect4483-4-6" width="1" height="2" x="0" y="-.5" fill="#000" stroke="none"/></pattern><pattern id="pattern5330" patternTransform="matrix(0.42844886,-0.62155849,1.5567667,1.431396,27.948414,13.306456)" xlink:href="#Strips1_1-9"/><pattern id="Strips1_1-9" width="2" height="1" patternTransform="matrix(0.66772843,-1.0037085,2.4261878,2.3114548,3.4760987,3.534923)" patternUnits="userSpaceOnUse"><rect id="rect4483-3" width="1" height="2" x="0" y="-.5" fill="#000" stroke="none"/></pattern><linearGradient id="linearGradient3687" x1="37.898" x2="4.061" y1="41.088" y2="40.169" gradientTransform="translate(127.27273,-51.272729)" gradientUnits="userSpaceOnUse" xlink:href="#linearGradient3681"/><linearGradient id="linearGradient3695" x1="37.894" x2="59.811" y1="40.485" y2="43.559" gradientTransform="translate(127.27273,-51.272729)" gradientUnits="userSpaceOnUse" xlink:href="#linearGradient3681"/><linearGradient id="linearGradient3608" x1="37.894" x2="59.811" y1="40.485" y2="43.559" gradientTransform="translate(-37.00068,-20.487365)" gradientUnits="userSpaceOnUse" xlink:href="#linearGradient3681"/><radialGradient id="radialGradient4538" cx="32.152" cy="7.932" r="23.635" fx="32.152" fy="7.932" gradientTransform="matrix(1,0,0,1.1841158,-8.5173246,-3.4097568)" gradientUnits="userSpaceOnUse" xlink:href="#linearGradient4513"/><radialGradient id="radialGradient4538-6" cx="32.152" cy="7.932" r="23.635" fx="32.152" fy="7.932" gradientTransform="matrix(1,0,0,1.1841158,-8.5173246,-3.4097568)" gradientUnits="userSpaceOnUse" xlink:href="#linearGradient4513"/><radialGradient id="radialGradient3069" cx="32.152" cy="35.869" r="23.635" fx="32.152" fy="35.869" gradientTransform="matrix(0.39497909,0,0,1.1841158,-2.716491,-26.067007)" gradientUnits="userSpaceOnUse" xlink:href="#linearGradient4513"/><radialGradient id="radialGradient3102" cx="32.152" cy="35.869" r="23.635" fx="32.152" fy="35.869" gradientTransform="matrix(0.39497909,0,0,1.1841158,-2.716491,-26.067007)" gradientUnits="userSpaceOnUse" xlink:href="#linearGradient4513"/><pattern id="pattern5231-9" patternTransform="matrix(0.67643728,-0.81829155,2.4578314,1.8844554,-26.450606,18.294947)" xlink:href="#Strips1_1-4-9"/><pattern id="Strips1_1-4-9" width="2" height="1" patternTransform="matrix(0.66772843,-1.0037085,2.4261878,2.3114548,3.4760987,3.534923)" patternUnits="userSpaceOnUse"><rect id="rect4483-4-2" width="1" height="2" x="0" y="-.5" fill="#000" stroke="none"/></pattern><pattern id="pattern5231-4-1" patternTransform="matrix(0.66772843,-1.0037085,2.4261878,2.3114548,39.618381,8.9692804)" xlink:href="#Strips1_1-6-8"/><pattern id="Strips1_1-6-8" width="2" height="1" patternTransform="matrix(0.66772843,-1.0037085,2.4261878,2.3114548,3.4760987,3.534923)" patternUnits="userSpaceOnUse"><rect id="rect4483-0-0" width="1" height="2" x="0" y="-.5" fill="#000" stroke="none"/></pattern><pattern id="pattern5296-6" patternTransform="matrix(0.66513382,-1.0631299,2.4167603,2.4482973,-49.762569,2.9546807)" xlink:href="#pattern5231-3-7"/><pattern id="pattern5231-3-7" patternTransform="matrix(0.66772843,-1.0037085,2.4261878,2.3114548,-26.336284,10.887197)" xlink:href="#Strips1_1-4-3-8"/><pattern id="Strips1_1-4-3-8" width="2" height="1" patternTransform="matrix(0.66772843,-1.0037085,2.4261878,2.3114548,3.4760987,3.534923)" patternUnits="userSpaceOnUse"><rect id="rect4483-4-6-4" width="1" height="2" x="0" y="-.5" fill="#000" stroke="none"/></pattern><pattern id="pattern5330-0" patternTransform="matrix(0.42844886,-0.62155849,1.5567667,1.431396,27.948414,13.306456)" xlink:href="#Strips1_1-9-7"/><pattern id="Strips1_1-9-7" width="2" height="1" patternTransform="matrix(0.66772843,-1.0037085,2.4261878,2.3114548,3.4760987,3.534923)" patternUnits="userSpaceOnUse"><rect id="rect4483-3-7" width="1" height="2" x="0" y="-.5" fill="#000" stroke="none"/></pattern><linearGradient id="linearGradient4480" x1="37.898" x2="4.061" y1="41.088" y2="40.169" gradientTransform="translate(127.27273,-51.272729)" gradientUnits="userSpaceOnUse" xlink:href="#linearGradient3681"/><linearGradient id="linearGradient4482" x1="37.894" x2="59.811" y1="40.485" y2="43.559" gradientTransform="translate(127.27273,-51.272729)" gradientUnits="userSpaceOnUse" xlink:href="#linearGradient3681"/><linearGradient id="linearGradient4484" x1="37.894" x2="59.811" y1="40.485" y2="43.559" gradientTransform="translate(-37.00068,-20.487365)" gradientUnits="userSpaceOnUse" xlink:href="#linearGradient3681"/><radialGradient id="radialGradient4538-3" cx="32.152" cy="7.932" r="23.635" fx="32.152" fy="7.932" gradientTransform="matrix(1,0,0,1.1841158,-8.5173246,-3.4097568)" gradientUnits="userSpaceOnUse" xlink:href="#linearGradient4513"/><radialGradient id="radialGradient4538-6-9" cx="32.152" cy="7.932" r="23.635" fx="32.152" fy="7.932" gradientTransform="matrix(1,0,0,1.1841158,-8.5173246,-3.4097568)" gradientUnits="userSpaceOnUse" xlink:href="#linearGradient4513"/><radialGradient id="radialGradient3069-7" cx="32.152" cy="35.869" r="23.635" fx="32.152" fy="35.869" gradientTransform="matrix(0.39497909,0,0,1.1841158,-2.716491,-26.067007)" gradientUnits="userSpaceOnUse" xlink:href="#linearGradient4513"/><radialGradient id="radialGradient3102-2" cx="32.152" cy="35.869" r="23.635" fx="32.152" fy="35.869" gradientTransform="matrix(0.39497909,0,0,1.1841158,-2.716491,-26.067007)" gradientUnits="userSpaceOnUse" xlink:href="#linearGradient4513"/><linearGradient id="linearGradient3894" x1="15.86" x2="13.501" y1="58.906" y2="35.595" gradientUnits="userSpaceOnUse" xlink:href="#linearGradient3888"/><linearGradient id="linearGradient3920" x1="23.809" x2="18.028" y1="47.998" y2="38.68" gradientUnits="userSpaceOnUse" xlink:href="#linearGradient3914"/></defs><g id="g4535" fill="#3465a4" stroke="#0b1521" transform="matrix(1.8023246,0,0,1.953496,3.220937,-63.581261)"><g id="g4530" fill="#3465a4" stroke="#0b1521"><path id="path4139-3" fill="url(#linearGradient3894)" fill-opacity="1" stroke="#729fcf" stroke-linejoin="miter" stroke-width="1.066" d="M 28.938474,37.703996 C 27.273957,35.656385 20.381748,34.633116 12.79653,35.487888 6.031347,36.25025 5.3637709,38.144013 5.4258057,45.856895 l -3.4167645,5.598554 c -0.121333,0.238354 -0.6534799,1.078492 -0.8464868,1.299006 0.958399,0.25289 0.8924895,0.353964 1.4473285,0.353964 l 1.530784,0.178071 c 0,7.538969 5.3756913,12.052908 9.8362241,8.31995 2.774195,-5.63093 5.703018,-4.391073 11.449919,-5.926781 6.583626,-4.592473 7.255587,-14.230256 3.511664,-17.975663 z"/><path id="path4139" fill="none" fill-opacity=".973" stroke="#0b1521" stroke-linejoin="round" stroke-width="1.066" d="M 29.838722,37.154548 C 28.174205,35.106937 19.935583,33.480557 12.083874,34.595034 4.8709666,35.61884 4.3161276,38.178354 4.3161276,45.856895 l -3.88387305,6.142833 c -0.12133355,0.238354 -0.55483902,0.511903 -0.55483902,1.023806 0.55483902,0.511902 1.66451707,1.023805 2.21935607,1.023805 l 1.109678,0 c 0,7.166639 6.1032291,12.797569 11.6516194,8.190444 2.774195,-5.63093 5.54839,-4.095222 11.09678,-5.63093 6.658068,-5.119028 8.322585,-14.333277 3.883873,-19.452305 z"/><path id="path3-6" fill="url(#linearGradient3920)" fill-opacity="1" stroke="#8ae234" stroke-linejoin="round" stroke-width="1.066" d="m 25.070819,49.6954 c -1.374854,0.964787 -1.546226,0.355507 -2.350468,0.381536 -0.861565,0.03123 -2.401938,2.626157 -2.883822,3.070291 l 0.02632,-0.03238 -0.43802,0.113318 c 0.842457,-0.02169 -0.03446,0.557452 -0.03446,0.113318 -0.71119,-0.888268 1.571785,-3.348215 2.567969,-3.382052 0.723471,-0.02516 2.813615,-2.078107 2.813615,-2.078107 0,0 -6.621591,-0.429733 -6.464561,-0.632519 0.397411,-0.513209 0.868294,-1.105186 1.391859,-1.95339 -6.326046,0.251831 -10.9156048,2.266458 -10.9404187,-2.000888 -0.02066,-3.553021 5.2779007,-5.112119 11.0605147,-5.112119 4.818843,0 7.772185,2.891448 7.784592,6.057622 0.0052,1.332393 0.01241,-0.04929 0.01241,-0.04579 0,1.332402 0.178996,3.588932 -2.545528,5.501154 z"/><path id="path3" fill="none" fill-opacity="1" stroke="#172a04" stroke-linejoin="round" stroke-width="1.066" d="m 25.641,50.543 c -1.583,1.112 -1.871105,0.479859 -2.797105,0.509859 -0.992,0.036 -2.437436,2.482577 -2.992275,2.99448 l 0,0 -0.554839,0 c 0.97,-0.025 -0.554839,0.511902 -0.554839,0 -0.818859,-1.023805 1.072356,-4.568125 2.219356,-4.607125 0.833,-0.029 2.219356,-1.023805 2.219356,-1.023805 0,0 -9.987102,0 -4.438712,-2.047611 -3.883873,0 -11.0967803,2.559514 -11.0967803,-3.071417 0,-4.095222 5.5483903,-6.142833 12.2064583,-6.142833 5.54839,0 8.877424,3.583319 8.877424,7.166639 0,1.535708 0,-0.004 0,0 0,1.535708 0.04896,4.017813 -3.088044,6.221813 z"/></g></g></svg>