<svg xmlns="http://www.w3.org/2000/svg" xmlns:svg="http://www.w3.org/2000/svg" xmlns:xlink="http://www.w3.org/1999/xlink" id="svg8" width="48" height="48" version="1.1" viewBox="0 0 12.7 12.7"><defs id="defs2"><linearGradient id="linearGradient4495"><stop id="stop4491" offset="0" stop-color="gray" stop-opacity="1"/><stop id="stop4493" offset="1" stop-color="#999" stop-opacity="0"/></linearGradient><linearGradient id="linearGradient4499-8" x1="5.601" x2="3.061" y1="287.266" y2="291.399" gradientTransform="matrix(0.60226968,0,0,1,2.9973516,-0.46564767)" gradientUnits="userSpaceOnUse" xlink:href="#linearGradient4495"/><linearGradient id="linearGradient4499-8-0" x1="5.601" x2="3.061" y1="287.266" y2="291.399" gradientTransform="matrix(0.60226968,0,0,1,7.0045565,-0.46567031)" gradientUnits="userSpaceOnUse" xlink:href="#linearGradient4495"/></defs><metadata id="metadata5"/><g id="layer1" transform="translate(0,-284.29998)"><rect id="rect4507" width="2.019" height="11.454" x="2.998" y="284.844" fill="#000" fill-opacity="1" stroke="none" stroke-dasharray="none" stroke-dashoffset="0" stroke-linecap="round" stroke-linejoin="round" stroke-miterlimit="4" stroke-opacity="1" stroke-width=".265" opacity="1" ry="1.104"/><path id="path4489-9" fill="url(#linearGradient4499-8)" fill-opacity="1" fill-rule="evenodd" stroke="none" stroke-linecap="butt" stroke-linejoin="miter" stroke-opacity="1" stroke-width=".205" d="m 3.633962,289.73469 0.0095,-3.62856 c 0,0 -0.071726,-0.67244 0.1710297,-0.72572 0.4498756,-0.0987 0.9083372,0.17876 0.8510261,1.08857 -0.067956,1.37009 0.2406352,2.77217 -0.287398,3.29727 z"/><rect id="rect4507-5" width="2.019" height="11.454" x="7.005" y="284.844" fill="#000" fill-opacity="1" stroke="none" stroke-dasharray="none" stroke-dashoffset="0" stroke-linecap="round" stroke-linejoin="round" stroke-miterlimit="4" stroke-opacity="1" stroke-width=".265" opacity="1" ry="1.104"/><path id="path4489-9-5" fill="url(#linearGradient4499-8-0)" fill-opacity="1" fill-rule="evenodd" stroke="none" stroke-linecap="butt" stroke-linejoin="miter" stroke-opacity="1" stroke-width=".205" d="m 7.6411669,289.73467 0.0095,-3.62856 c 0,0 -0.071726,-0.67244 0.1710297,-0.72572 0.4498756,-0.0987 0.9083371,0.17876 0.8510261,1.08857 -0.067956,1.37009 0.2406351,2.77217 -0.287398,3.29727 z"/></g></svg>