<svg xmlns="http://www.w3.org/2000/svg" xmlns:svg="http://www.w3.org/2000/svg" xmlns:xlink="http://www.w3.org/1999/xlink" id="svg2860" width="64" height="64" version="1.1"><defs id="defs2862"><linearGradient id="linearGradient3948"><stop id="stop3950" offset="0" stop-color="#888a85" stop-opacity="1"/><stop id="stop3952" offset="1" stop-color="#d3d7cf" stop-opacity="1"/></linearGradient><linearGradient id="linearGradient3882"><stop id="stop3884" offset="0" stop-color="#888a85" stop-opacity="1"/><stop id="stop3886" offset="1" stop-color="#d3d7cf" stop-opacity="1"/></linearGradient><linearGradient id="linearGradient3838"><stop id="stop3840" offset="0" stop-color="#888a85" stop-opacity="1"/><stop id="stop3842" offset="1" stop-color="#d3d7cf" stop-opacity="1"/></linearGradient><linearGradient id="linearGradient4513"><stop id="stop4515" offset="0" stop-color="#fff" stop-opacity="1"/><stop id="stop4517" offset="1" stop-color="#999" stop-opacity="1"/></linearGradient><radialGradient id="radialGradient4285" cx="32" cy="48.1" r="29.1" fx="32" fy="48.1" gradientTransform="matrix(1.0175302,0,0,2.509614,-0.56096266,-71.712811)" gradientUnits="userSpaceOnUse" xlink:href="#linearGradient4513"/><radialGradient id="radialGradient4293" cx="32" cy="15.9" r="14.485" fx="32" fy="15.9" gradientTransform="matrix(0.9362755,0,0,3.1827795,2.0391841,-35.555771)" gradientUnits="userSpaceOnUse" xlink:href="#linearGradient4513"/><radialGradient id="radialGradient4301" cx="32" cy="32" r="21.793" fx="32" fy="32" gradientTransform="matrix(0.9909122,0,0,2.7445472,0.2908087,-56.309559)" gradientUnits="userSpaceOnUse" xlink:href="#linearGradient4513"/><radialGradient id="radialGradient4285-3" cx="32" cy="48.1" r="29.1" fx="32" fy="48.1" gradientTransform="matrix(1.0175302,0,0,2.509614,-0.56096266,-71.712811)" gradientUnits="userSpaceOnUse" xlink:href="#linearGradient4513-6"/><linearGradient id="linearGradient4513-6"><stop id="stop4515-7" offset="0" stop-color="#fff" stop-opacity="1"/><stop id="stop4517-5" offset="1" stop-color="#999" stop-opacity="1"/></linearGradient><linearGradient id="linearGradient3844" x1="31" x2="30" y1="54" y2="44" gradientUnits="userSpaceOnUse" xlink:href="#linearGradient3838"/><linearGradient id="linearGradient3888" x1="32" x2="31" y1="36" y2="26" gradientUnits="userSpaceOnUse" xlink:href="#linearGradient3882"/><radialGradient id="radialGradient4293-0" cx="32" cy="15.9" r="14.485" fx="32" fy="15.9" gradientTransform="matrix(0.9362755,0,0,3.1827795,2.0391841,-35.555771)" gradientUnits="userSpaceOnUse" xlink:href="#linearGradient4513-1"/><linearGradient id="linearGradient4513-1"><stop id="stop4515-0" offset="0" stop-color="#fff" stop-opacity="1"/><stop id="stop4517-2" offset="1" stop-color="#999" stop-opacity="1"/></linearGradient><linearGradient id="linearGradient3954" x1="34" x2="31" y1="18" y2="8" gradientUnits="userSpaceOnUse" xlink:href="#linearGradient3948"/></defs><metadata id="metadata2865"/><g id="layer1"><path id="path4257-1" fill="url(#linearGradient3954)" fill-opacity="1" stroke="#2e3436" stroke-dasharray="none" stroke-linecap="butt" stroke-linejoin="round" stroke-miterlimit="4" stroke-opacity="1" stroke-width="2" d="m 19,21 0,-2 6,-4 0,-4 -6,-4 -1e-6,-2 L 45,5 l 0,2 -6,4 0,4 6,4 0,2 z"/><path id="path4257-5" fill="none" stroke="#d3d7cf" stroke-dasharray="none" stroke-linecap="butt" stroke-linejoin="round" stroke-miterlimit="4" stroke-opacity="1" stroke-width="2" d="m 20,19 4,-1 3,-2 0,-6 -3,-2 -4,-1 24,0 -4,1 -3,2 0,6 3,2 4,1 z"/><path id="path4253-6" fill="url(#linearGradient3888)" fill-opacity="1" stroke="#2e3436" stroke-dasharray="none" stroke-linecap="butt" stroke-linejoin="round" stroke-miterlimit="4" stroke-opacity="1" stroke-width="2" d="m 53,36.999999 -6,-4 0,-4 6,-4 0,-1.918439 -42,0 0,1.91844 6,4 0,4 -6,4 0,2.08156 42,0 z"/><path id="path4253-7" fill="none" stroke="#d3d7cf" stroke-dasharray="none" stroke-linecap="butt" stroke-linejoin="round" stroke-miterlimit="4" stroke-opacity="1" stroke-width="2" d="m 48,36 -3,-2 0,-6 3,-2 4,-1 -40,0 4,1 3,2 0,6 -3,2 -4,1 40,0 z"/><path id="path4263-0" fill="url(#linearGradient3844)" fill-opacity="1" stroke="#2e3436" stroke-dasharray="none" stroke-linecap="butt" stroke-linejoin="round" stroke-miterlimit="4" stroke-opacity="1" stroke-width="2" d="m 3,57 0,-2 6,-4 0,-4 -6,-4 0,-2 58.000002,0 -2e-6,2 -6,4 0,4 6,4 2e-6,2 z"/><path id="path4263-3" fill="none" stroke="#d3d7cf" stroke-dasharray="none" stroke-linecap="round" stroke-linejoin="round" stroke-miterlimit="4" stroke-opacity="1" stroke-width="2" d="M 4,55 8,54 11,52 11,46 8,44 3.6779662,43 60,43 l -4,1 -3,2 0,6 3,2 4,1 z"/><path id="path4253" fill="none" stroke="#2e3436" stroke-dasharray="none" stroke-linecap="butt" stroke-linejoin="round" stroke-miterlimit="4" stroke-opacity="1" stroke-width="2" d="m 53,36.918439 -6,-4 0,-4 6,-4 L 53,23 l -42,0 0,1.91844 6,4 0,4 -6,4 L 11,39 53,39 z"/><path id="path4257" fill="none" fill-opacity="1" fill-rule="evenodd" stroke="#2e3436" stroke-dasharray="none" stroke-linecap="butt" stroke-linejoin="round" stroke-miterlimit="4" stroke-opacity="1" stroke-width="2" d="m 19,21 0,-2 6,-4 0,-4 -6,-4 -1e-6,-2 L 45,5 l 0,2 -6,4 0,4 6,4 0,2 z"/><path id="path4263" fill="none" fill-opacity="1" fill-rule="evenodd" stroke="#2e3436" stroke-dasharray="none" stroke-linecap="butt" stroke-linejoin="round" stroke-miterlimit="4" stroke-opacity="1" stroke-width="2" d="M 3.0000001,57 3,55 9,51 9,47 3,43 l 10e-8,-2 58.0000019,0 -2e-6,2 -6,4 0,4 6,4 2e-6,2 z"/><path id="path3894" fill="none" stroke="#d3d7cf" stroke-linecap="butt" stroke-linejoin="miter" stroke-opacity="1" stroke-width="2" d="m 11,49 42,0"/><path id="path3956" fill="none" stroke="#d3d7cf" stroke-linecap="butt" stroke-linejoin="miter" stroke-opacity="1" stroke-width="2" d="m 27,13 10,0"/><path id="path3958" fill="none" stroke="#d3d7cf" stroke-linecap="butt" stroke-linejoin="miter" stroke-opacity="1" stroke-width="2" d="m 19,31 26,0"/></g></svg>