<svg xmlns="http://www.w3.org/2000/svg" xmlns:svg="http://www.w3.org/2000/svg" id="svg4982" width="64" height="64" version="1.1"><metadata id="metadata4987"/><g id="layer1"><g id="opprofile" transform="matrix(0.32582598,0,0,0.36954005,-18.503027,-12.279118)"><path id="path2385" fill="none" stroke="#000" stroke-dasharray="none" stroke-linecap="round" stroke-linejoin="round" stroke-miterlimit="4" stroke-opacity="1" stroke-width="17.291" d="m 118.1705,160.41325 0,-86.594136 73.65896,0 0,86.594136"/><path id="path3157" fill="none" stroke="#4e9a06" stroke-dasharray="none" stroke-linecap="round" stroke-linejoin="round" stroke-miterlimit="4" stroke-opacity="1" stroke-width="17.291" d="m 81.341048,182.06178 c 3.069123,0 18.414738,0 18.414738,-29.76674 l 0,-78.475932 c 0,-8.1182 9.207364,-16.2364 18.414734,-16.2364 l 73.65895,0 c 9.20737,0 18.41474,8.1182 18.41474,16.2364 l 0,78.475932 c 0,29.76674 15.34562,29.76674 18.41474,29.76674"/><path id="path2385-3" fill="none" stroke="#d3d7cf" stroke-dasharray="none" stroke-linecap="round" stroke-linejoin="round" stroke-miterlimit="4" stroke-opacity="1" stroke-width="5.764" d="m 118.1705,160.41324 0,-86.594126 73.65897,0 0,86.594126"/><path id="path3157-6" fill="none" stroke="#8ae234" stroke-dasharray="none" stroke-linecap="round" stroke-linejoin="round" stroke-miterlimit="4" stroke-opacity="1" stroke-width="5.764" d="m 81.341048,182.06178 c 3.06912,0 18.41474,0 18.41474,-29.76674 l 0,-78.475932 c 0,-8.1182 9.207362,-16.2364 18.414732,-16.2364 l 73.65895,0 c 9.20737,0 18.41474,8.1182 18.41474,16.2364 l 0,78.475932 c 0,29.76674 15.34562,29.76674 18.41474,29.76674"/></g></g></svg>