<svg xmlns="http://www.w3.org/2000/svg" xmlns:svg="http://www.w3.org/2000/svg" xmlns:xlink="http://www.w3.org/1999/xlink" id="svg2816" width="64" height="64" version="1.1"><defs id="defs2818"><linearGradient id="linearGradient4513"><stop id="stop4515" offset="0" stop-color="#fff" stop-opacity="1"/><stop id="stop4517" offset="1" stop-color="#999" stop-opacity="1"/></linearGradient><linearGradient id="linearGradient3681"><stop id="stop3697" offset="0" stop-color="#fff110" stop-opacity="1"/><stop id="stop3685" offset="1" stop-color="#cf7008" stop-opacity="1"/></linearGradient><pattern id="pattern5231" patternTransform="matrix(0.67643728,-0.81829155,2.4578314,1.8844554,-26.450606,18.294947)" xlink:href="#Strips1_1-4"/><pattern id="Strips1_1-4" width="2" height="1" patternTransform="matrix(0.66772843,-1.0037085,2.4261878,2.3114548,3.4760987,3.534923)" patternUnits="userSpaceOnUse"><rect id="rect4483-4" width="1" height="2" x="0" y="-.5" fill="#000" stroke="none"/></pattern><pattern id="pattern5231-4" patternTransform="matrix(0.66772843,-1.0037085,2.4261878,2.3114548,39.618381,8.9692804)" xlink:href="#Strips1_1-6"/><pattern id="Strips1_1-6" width="2" height="1" patternTransform="matrix(0.66772843,-1.0037085,2.4261878,2.3114548,3.4760987,3.534923)" patternUnits="userSpaceOnUse"><rect id="rect4483-0" width="1" height="2" x="0" y="-.5" fill="#000" stroke="none"/></pattern><pattern id="pattern5296" patternTransform="matrix(0.66513382,-1.0631299,2.4167603,2.4482973,-49.762569,2.9546807)" xlink:href="#pattern5231-3"/><pattern id="pattern5231-3" patternTransform="matrix(0.66772843,-1.0037085,2.4261878,2.3114548,-26.336284,10.887197)" xlink:href="#Strips1_1-4-3"/><pattern id="Strips1_1-4-3" width="2" height="1" patternTransform="matrix(0.66772843,-1.0037085,2.4261878,2.3114548,3.4760987,3.534923)" patternUnits="userSpaceOnUse"><rect id="rect4483-4-6" width="1" height="2" x="0" y="-.5" fill="#000" stroke="none"/></pattern><pattern id="pattern5330" patternTransform="matrix(0.42844886,-0.62155849,1.5567667,1.431396,27.948414,13.306456)" xlink:href="#Strips1_1-9"/><pattern id="Strips1_1-9" width="2" height="1" patternTransform="matrix(0.66772843,-1.0037085,2.4261878,2.3114548,3.4760987,3.534923)" patternUnits="userSpaceOnUse"><rect id="rect4483-3" width="1" height="2" x="0" y="-.5" fill="#000" stroke="none"/></pattern><linearGradient id="linearGradient3687" x1="37.898" x2="4.061" y1="41.088" y2="40.169" gradientTransform="translate(127.27273,-51.272729)" gradientUnits="userSpaceOnUse" xlink:href="#linearGradient3681"/><linearGradient id="linearGradient3695" x1="37.894" x2="59.811" y1="40.485" y2="43.559" gradientTransform="translate(127.27273,-51.272729)" gradientUnits="userSpaceOnUse" xlink:href="#linearGradient3681"/><linearGradient id="linearGradient3681-3"><stop id="stop3697-3" offset="0" stop-color="#fff110" stop-opacity="1"/><stop id="stop3685-4" offset="1" stop-color="#cf7008" stop-opacity="1"/></linearGradient><linearGradient id="linearGradient3608" x1="37.894" x2="59.811" y1="40.485" y2="43.559" gradientTransform="translate(-37.00068,-20.487365)" gradientUnits="userSpaceOnUse" xlink:href="#linearGradient3681-3"/><linearGradient id="linearGradient4513-2"><stop id="stop4515-2" offset="0" stop-color="#fff" stop-opacity="1"/><stop id="stop4517-4" offset="1" stop-color="#999" stop-opacity="1"/></linearGradient><radialGradient id="radialGradient4538" cx="32.152" cy="7.932" r="23.635" fx="32.152" fy="7.932" gradientTransform="matrix(1,0,0,1.1841158,-8.5173246,-3.4097568)" gradientUnits="userSpaceOnUse" xlink:href="#linearGradient4513-2"/><linearGradient id="linearGradient4513-1"><stop id="stop4515-8" offset="0" stop-color="#fff" stop-opacity="1"/><stop id="stop4517-6" offset="1" stop-color="#999" stop-opacity="1"/></linearGradient><radialGradient id="radialGradient4538-6" cx="32.152" cy="7.932" r="23.635" fx="32.152" fy="7.932" gradientTransform="matrix(1,0,0,1.1841158,-8.5173246,-3.4097568)" gradientUnits="userSpaceOnUse" xlink:href="#linearGradient4513-1"/><linearGradient id="linearGradient4513-1-3"><stop id="stop4515-8-7" offset="0" stop-color="#fff" stop-opacity="1"/><stop id="stop4517-6-5" offset="1" stop-color="#999" stop-opacity="1"/></linearGradient><radialGradient id="radialGradient3069" cx="32.152" cy="35.869" r="23.635" fx="32.152" fy="35.869" gradientTransform="matrix(0.39497909,0,0,1.1841158,-2.716491,-26.067007)" gradientUnits="userSpaceOnUse" xlink:href="#linearGradient4513-1-3"/><linearGradient id="linearGradient4513-1-2"><stop id="stop4515-8-6" offset="0" stop-color="#fff" stop-opacity="1"/><stop id="stop4517-6-6" offset="1" stop-color="#999" stop-opacity="1"/></linearGradient><radialGradient id="radialGradient3102" cx="32.152" cy="35.869" r="23.635" fx="32.152" fy="35.869" gradientTransform="matrix(0.39497909,0,0,1.1841158,-2.716491,-26.067007)" gradientUnits="userSpaceOnUse" xlink:href="#linearGradient4513-1-2"/></defs><metadata id="metadata2821"/><g id="layer1"><path id="rect3083-0" fill="none" stroke="#172a04" stroke-dasharray="none" stroke-dashoffset="0" stroke-linecap="round" stroke-linejoin="miter" stroke-miterlimit="4" stroke-opacity="1" stroke-width="8" d="m 9.64758,48.5 -1,2 c -2,4 1,7 4,7 l 28,0 c 6,0 9.295455,-3.545455 12.295455,-6.545455 L 56,48" color="#000" display="inline" enable-background="accumulate" overflow="visible" visibility="visible" style="marker:none"/><path id="rect3083-0-1" fill="none" stroke="#73d216" stroke-dasharray="none" stroke-dashoffset="0" stroke-linecap="round" stroke-linejoin="miter" stroke-miterlimit="4" stroke-opacity="1" stroke-width="4" d="m 9.64758,48.5 -1,2 c -2,4 1,7 4,7 l 28,0 C 46.64758,57.5 50,54 53,51 l 3,-3" color="#000" display="inline" enable-background="accumulate" overflow="visible" visibility="visible" style="marker:none"/><path id="rect3083-0-1-7" fill="none" stroke="#8ae234" stroke-dasharray="none" stroke-dashoffset="0" stroke-linecap="round" stroke-linejoin="miter" stroke-miterlimit="4" stroke-opacity="1" stroke-width="2" d="m 8.965762,47.590909 -1.0000002,2 c -2,4 1.0000002,7 4.0000002,7 l 28,0 c 6,0 8.966056,-2.840909 11.966056,-5.840909 l 3.431818,-3.477273" color="#000" display="inline" enable-background="accumulate" overflow="visible" visibility="visible" style="marker:none"/><g id="g3983" fill="#fff" fill-opacity="1"><path id="path5521" fill="#fff" fill-opacity="1" stroke="#2e3436" stroke-dasharray="none" stroke-linecap="round" stroke-linejoin="round" stroke-miterlimit="4" stroke-opacity="1" stroke-width="2" d="m 17.050359,16.715191 c -1.136691,0.879746 -1.136691,0.879746 -2.85449,1.441444 -0.943725,0.308586 -2.006215,0.318049 -3.05709,0.318049 -2.3756142,0 -4.2576356,-0.63004 -5.6460642,-1.890121 -1.3884287,-1.266139 -2.082643,-2.980576 -2.082643,-5.143311 0,-2.1869664 0.7069522,-3.907461 2.1208566,-5.1614837 C 6.9448329,5.0257457 8.8809901,4.3987344 11.3394,4.3987344 c 0.948972,0 0.02751,0 2.300887,0 3.410072,0.8797468 2.639431,0.5465524 3.410072,0.8797468 l 0,2.6392406 c -1.136691,0 -2.112508,-0.4535987 -2.902256,-0.6656315 -0.78338,-0.2120329 -1.569944,-0.3180493 -2.359692,-0.3180493 -1.464856,0 -2.5953426,0.3907462 -3.3914601,1.1722386 -0.7897485,0.7754344 -1.1846227,1.8870919 -1.1846227,3.3349724 0,1.435765 0.3821363,2.544394 1.146409,3.325886 0.7642729,0.781493 1.8714778,1.068306 1.8714778,1.068306 1.136691,0 0,0 1.136691,0 1.136691,-0.879747 0,0 1.136691,-0.879747 l 0,-0.879747 -2.273382,0 0,-2.639241 6.820144,0 z" font-family="sans-serif" font-size="19.568" font-stretch="normal" font-style="normal" font-variant="normal" font-weight="bold" letter-spacing="0" transform="scale(0.87974687,1.1366906)" word-spacing="0" style="line-height:125%;-inkscape-font-specification:sans-serif"/><path id="path5525" fill="#fff" fill-opacity="1" stroke="#2e3436" stroke-dasharray="none" stroke-linecap="round" stroke-linejoin="round" stroke-miterlimit="4" stroke-opacity="1" stroke-width="2" d="m 48.877696,11.436709 4.546762,7.037975 -4.546762,0 -2.273381,-4.398734 -2.273381,4.398734 -4.546763,0 4.546763,-7.037975 -4.546763,-7.0379746 4.546763,0 2.273381,4.3987343 2.273381,-4.3987343 4.546762,0 z" font-family="sans-serif" font-size="19.568" font-stretch="normal" font-style="normal" font-variant="normal" font-weight="bold" letter-spacing="0" transform="scale(0.87974687,1.1366906)" word-spacing="0" style="line-height:125%;-inkscape-font-specification:sans-serif"/><path id="path5527" fill="#fff" fill-opacity="1" stroke="#2e3436" stroke-dasharray="none" stroke-linecap="round" stroke-linejoin="round" stroke-miterlimit="4" stroke-opacity="1" stroke-width="2" d="m 65.065129,11.413994 q 0,-2.5443931 -0.588229,-3.5803247 -0.577133,-1.0450187 -1.95337,-1.0450187 -1.376238,0 -1.964469,1.0450187 -0.588231,1.0359316 -0.588231,3.5803247 0,2.571655 0.588231,3.625761 0.588231,1.054105 1.964469,1.054105 1.365139,0 1.95337,-1.054105 0.588229,-1.054106 0.588229,-3.625761 z m 4.272995,0.02726 q 0,3.371322 -1.775788,5.206921 -1.775793,1.82651 -5.038806,1.82651 -3.274115,0 -5.049906,-1.82651 -1.775789,-1.835599 -1.775789,-5.206921 0,-3.3804076 1.775789,-5.2069186 1.775791,-1.835598 5.049906,-1.835598 3.263013,0 5.038806,1.835598 1.775788,1.826511 1.775788,5.2069186 z" font-family="sans-serif" font-size="19.568" font-stretch="normal" font-style="normal" font-variant="normal" font-weight="bold" letter-spacing="0" transform="scale(0.87974687,1.1366906)" word-spacing="0" style="line-height:125%;-inkscape-font-specification:sans-serif"/><path id="path5521-0" fill="#fff" fill-opacity="1" stroke="#2e3436" stroke-dasharray="none" stroke-linecap="round" stroke-linejoin="round" stroke-miterlimit="4" stroke-opacity="1" stroke-width="2" d="m 17.050359,34.310128 c -1.136691,0.879746 -1.136691,0.879746 -2.854491,1.441444 -0.943724,0.308586 -2.006215,0.31805 -3.05709,0.31805 -2.3756133,0 -4.2576347,-0.630041 -5.6460634,-1.890121 -1.3884287,-1.266139 -2.0826429,-2.980577 -2.0826429,-5.143311 0,-2.186967 0.7069522,-3.907461 2.1208565,-5.161484 1.4139046,-1.254023 3.3500621,-1.881034 5.8084708,-1.881034 0.948973,0 0.02751,0 2.300888,0 3.410072,0.879747 2.639431,0.546552 3.410072,0.879747 l 0,2.63924 c -1.136691,0 -2.112508,-0.453598 -2.902257,-0.665631 -0.783379,-0.212033 -1.569943,-0.318049 -2.359691,-0.318049 -1.464856,0 -2.5953427,0.390746 -3.3914602,1.172238 -0.7897485,0.775435 -1.1846228,1.887092 -1.1846228,3.334973 0,1.435764 0.3821364,2.544393 1.1464091,3.325886 0.7642732,0.781493 1.8714779,1.068305 1.8714779,1.068305 1.136691,0 0,0 1.136691,0 1.136691,-0.879747 0,0 1.136691,-0.879747 l 0,-0.879747 -2.273382,0 0,-2.63924 6.820144,0 z" font-family="sans-serif" font-size="19.568" font-stretch="normal" font-style="normal" font-variant="normal" font-weight="bold" letter-spacing="0" transform="scale(0.87974687,1.1366906)" word-spacing="0" style="line-height:125%;-inkscape-font-specification:sans-serif"/><path id="path5525-9" fill="#fff" fill-opacity="1" stroke="#2e3436" stroke-dasharray="none" stroke-linecap="round" stroke-linejoin="round" stroke-miterlimit="4" stroke-opacity="1" stroke-width="2" d="m 48.877696,29.031647 4.546762,7.037975 -4.546762,0 -2.273381,-4.398735 -2.273382,4.398735 -4.546762,0 4.546762,-7.037975 -4.546762,-7.037975 4.546762,0 2.273382,4.398734 2.273381,-4.398734 4.546762,0 z" font-family="sans-serif" font-size="19.568" font-stretch="normal" font-style="normal" font-variant="normal" font-weight="bold" letter-spacing="0" transform="scale(0.87974687,1.1366906)" word-spacing="0" style="line-height:125%;-inkscape-font-specification:sans-serif"/><path id="path5527-4" fill="#fff" fill-opacity="1" stroke="#2e3436" stroke-dasharray="none" stroke-linecap="round" stroke-linejoin="round" stroke-miterlimit="4" stroke-opacity="1" stroke-width="2" d="m 28.691034,11.413992 q 0,-2.544393 -0.588229,-3.5803246 -0.577133,-1.0450187 -1.95337,-1.0450187 -1.376238,0 -1.964469,1.0450187 -0.58823,1.0359316 -0.58823,3.5803246 0,2.571655 0.58823,3.625762 0.588231,1.054105 1.964469,1.054105 1.365139,0 1.95337,-1.054105 0.588229,-1.054107 0.588229,-3.625762 z m 4.272995,0.02726 q 0,3.371322 -1.775788,5.206922 -1.775793,1.826509 -5.038806,1.826509 -3.274115,0 -5.049905,-1.826509 -1.775789,-1.8356 -1.775789,-5.206921 0,-3.3804084 1.775789,-5.2069194 1.77579,-1.835598 5.049905,-1.835598 3.263013,0 5.038806,1.835598 1.775788,1.826511 1.775788,5.2069194 z" font-family="sans-serif" font-size="19.568" font-stretch="normal" font-style="normal" font-variant="normal" font-weight="bold" letter-spacing="0" transform="scale(0.87974687,1.1366906)" word-spacing="0" style="line-height:125%;-inkscape-font-specification:sans-serif"/><g id="text5496-3" fill="#fff" fill-opacity="1" stroke="#2e3436" stroke-dasharray="none" stroke-linecap="round" stroke-linejoin="round" stroke-miterlimit="4" stroke-opacity="1" stroke-width="1.712" font-family="Walkway Oblique Bold" font-size="19.568" font-style="normal" font-weight="normal" letter-spacing="0" transform="scale(0.87974687,1.1366906)" word-spacing="0" style="line-height:125%;-inkscape-font-specification:Walkway Oblique Bold"><path id="path5536" fill="#fff" fill-opacity="1" stroke="#2e3436" stroke-dasharray="none" stroke-linecap="round" stroke-linejoin="round" stroke-miterlimit="4" stroke-opacity="1" stroke-width="2" d="m 57.971221,32.550634 2.273381,0 0,-7.037975 -2.273381,0 0,-1.759493 2.273381,-1.759494 4.546763,0 0,10.556962 2.273381,0 0,3.518988 -9.093525,0 z" font-family="sans-serif" font-stretch="normal" font-style="normal" font-variant="normal" font-weight="bold" style="-inkscape-font-specification:sans-serif"/></g><g id="text5496-3-8" fill="#fff" fill-opacity="1" stroke="#2e3436" stroke-dasharray="none" stroke-linecap="round" stroke-linejoin="round" stroke-miterlimit="4" stroke-opacity="1" stroke-width="1.712" font-family="Walkway Oblique Bold" font-size="19.568" font-style="normal" font-weight="normal" letter-spacing="0" transform="matrix(0.87974687,0,0,1.1366906,-32,-2.474182e-7)" word-spacing="0" style="line-height:125%;-inkscape-font-specification:Walkway Oblique Bold"><path id="path5536-2" fill="#fff" fill-opacity="1" stroke="#2e3436" stroke-dasharray="none" stroke-linecap="round" stroke-linejoin="round" stroke-miterlimit="4" stroke-opacity="1" stroke-width="2" d="m 57.971221,32.550634 2.273381,0 0,-7.037975 -2.273381,0 0,-1.759493 2.273381,-1.759494 4.546763,0 0,10.556962 2.273381,0 0,3.518988 -9.093525,0 z" font-family="sans-serif" font-stretch="normal" font-style="normal" font-variant="normal" font-weight="bold" style="-inkscape-font-specification:sans-serif"/></g></g></g></svg>