<svg xmlns="http://www.w3.org/2000/svg" xmlns:svg="http://www.w3.org/2000/svg" xmlns:xlink="http://www.w3.org/1999/xlink" id="svg2816" width="64" height="64" version="1.1"><defs id="defs2818"><linearGradient id="linearGradient3914"><stop id="stop3916" offset="0" stop-color="#8ae234" stop-opacity="1"/><stop id="stop3918" offset="1" stop-color="#4e9a06" stop-opacity="1"/></linearGradient><linearGradient id="linearGradient3890"><stop id="stop3892" offset="0" stop-color="#000" stop-opacity=".5"/><stop id="stop3894" offset="1" stop-color="#fff" stop-opacity="0"/></linearGradient><linearGradient id="linearGradient4513"><stop id="stop4515" offset="0" stop-color="#fff" stop-opacity="1"/><stop id="stop4517" offset="1" stop-color="#999" stop-opacity="1"/></linearGradient><linearGradient id="linearGradient3681"><stop id="stop3697" offset="0" stop-color="#fff110" stop-opacity="1"/><stop id="stop3685" offset="1" stop-color="#cf7008" stop-opacity="1"/></linearGradient><pattern id="pattern5231" patternTransform="matrix(0.67643728,-0.81829155,2.4578314,1.8844554,-26.450606,18.294947)" xlink:href="#Strips1_1-4"/><pattern id="Strips1_1-4" width="2" height="1" patternTransform="matrix(0.66772843,-1.0037085,2.4261878,2.3114548,3.4760987,3.534923)" patternUnits="userSpaceOnUse"><rect id="rect4483-4" width="1" height="2" x="0" y="-.5" fill="#000" stroke="none"/></pattern><pattern id="pattern5231-4" patternTransform="matrix(0.66772843,-1.0037085,2.4261878,2.3114548,39.618381,8.9692804)" xlink:href="#Strips1_1-6"/><pattern id="Strips1_1-6" width="2" height="1" patternTransform="matrix(0.66772843,-1.0037085,2.4261878,2.3114548,3.4760987,3.534923)" patternUnits="userSpaceOnUse"><rect id="rect4483-0" width="1" height="2" x="0" y="-.5" fill="#000" stroke="none"/></pattern><pattern id="pattern5296" patternTransform="matrix(0.66513382,-1.0631299,2.4167603,2.4482973,-49.762569,2.9546807)" xlink:href="#pattern5231-3"/><pattern id="pattern5231-3" patternTransform="matrix(0.66772843,-1.0037085,2.4261878,2.3114548,-26.336284,10.887197)" xlink:href="#Strips1_1-4-3"/><pattern id="Strips1_1-4-3" width="2" height="1" patternTransform="matrix(0.66772843,-1.0037085,2.4261878,2.3114548,3.4760987,3.534923)" patternUnits="userSpaceOnUse"><rect id="rect4483-4-6" width="1" height="2" x="0" y="-.5" fill="#000" stroke="none"/></pattern><pattern id="pattern5330" patternTransform="matrix(0.42844886,-0.62155849,1.5567667,1.431396,27.948414,13.306456)" xlink:href="#Strips1_1-9"/><pattern id="Strips1_1-9" width="2" height="1" patternTransform="matrix(0.66772843,-1.0037085,2.4261878,2.3114548,3.4760987,3.534923)" patternUnits="userSpaceOnUse"><rect id="rect4483-3" width="1" height="2" x="0" y="-.5" fill="#000" stroke="none"/></pattern><linearGradient id="linearGradient3687" x1="37.898" x2="4.061" y1="41.088" y2="40.169" gradientTransform="translate(127.27273,-51.272729)" gradientUnits="userSpaceOnUse" xlink:href="#linearGradient3681"/><linearGradient id="linearGradient3695" x1="37.894" x2="59.811" y1="40.485" y2="43.559" gradientTransform="translate(127.27273,-51.272729)" gradientUnits="userSpaceOnUse" xlink:href="#linearGradient3681"/><linearGradient id="linearGradient3681-3"><stop id="stop3697-3" offset="0" stop-color="#fff110" stop-opacity="1"/><stop id="stop3685-4" offset="1" stop-color="#cf7008" stop-opacity="1"/></linearGradient><linearGradient id="linearGradient3608" x1="37.894" x2="59.811" y1="40.485" y2="43.559" gradientTransform="translate(-37.00068,-20.487365)" gradientUnits="userSpaceOnUse" xlink:href="#linearGradient3681-3"/><linearGradient id="linearGradient4513-2"><stop id="stop4515-2" offset="0" stop-color="#fff" stop-opacity="1"/><stop id="stop4517-4" offset="1" stop-color="#999" stop-opacity="1"/></linearGradient><radialGradient id="radialGradient4538" cx="32.152" cy="7.932" r="23.635" fx="32.152" fy="7.932" gradientTransform="matrix(1,0,0,1.1841158,-8.5173246,-3.4097568)" gradientUnits="userSpaceOnUse" xlink:href="#linearGradient4513-2"/><linearGradient id="linearGradient4513-1"><stop id="stop4515-8" offset="0" stop-color="#fff" stop-opacity="1"/><stop id="stop4517-6" offset="1" stop-color="#999" stop-opacity="1"/></linearGradient><radialGradient id="radialGradient4538-6" cx="32.152" cy="7.932" r="23.635" fx="32.152" fy="7.932" gradientTransform="matrix(1,0,0,1.1841158,-8.5173246,-3.4097568)" gradientUnits="userSpaceOnUse" xlink:href="#linearGradient4513-1"/><linearGradient id="linearGradient4513-1-3"><stop id="stop4515-8-7" offset="0" stop-color="#fff" stop-opacity="1"/><stop id="stop4517-6-5" offset="1" stop-color="#999" stop-opacity="1"/></linearGradient><radialGradient id="radialGradient3069" cx="32.152" cy="35.869" r="23.635" fx="32.152" fy="35.869" gradientTransform="matrix(0.39497909,0,0,1.1841158,-2.716491,-26.067007)" gradientUnits="userSpaceOnUse" xlink:href="#linearGradient4513-1-3"/><linearGradient id="linearGradient4513-1-2"><stop id="stop4515-8-6" offset="0" stop-color="#fff" stop-opacity="1"/><stop id="stop4517-6-6" offset="1" stop-color="#999" stop-opacity="1"/></linearGradient><radialGradient id="radialGradient3102" cx="32.152" cy="35.869" r="23.635" fx="32.152" fy="35.869" gradientTransform="matrix(0.39497909,0,0,1.1841158,-2.716491,-26.067007)" gradientUnits="userSpaceOnUse" xlink:href="#linearGradient4513-1-2"/><linearGradient id="linearGradient2224"><stop id="stop2226" offset="0" stop-color="#7c7c7c" stop-opacity="1"/><stop id="stop2228" offset="1" stop-color="#b8b8b8" stop-opacity="1"/></linearGradient><linearGradient id="linearGradient15218"><stop id="stop15220" offset="0" stop-color="#f0f0ef" stop-opacity="1"/><stop id="stop2269" offset=".599" stop-color="#e8e8e8" stop-opacity="1"/><stop id="stop2267" offset=".828" stop-color="#fff" stop-opacity="1"/><stop id="stop15222" offset="1" stop-color="#d8d8d3" stop-opacity="1"/></linearGradient><linearGradient id="linearGradient5048"><stop id="stop5050" offset="0" stop-color="#000" stop-opacity="0"/><stop id="stop5056" offset=".5" stop-color="#000" stop-opacity="1"/><stop id="stop5052" offset="1" stop-color="#000" stop-opacity="0"/></linearGradient><radialGradient id="radialGradient2842" cx="24.13" cy="37.968" r="16.529" fx="24.13" fy="37.968" gradientTransform="matrix(1,0,0,0.237968,0,28.9328)" gradientUnits="userSpaceOnUse" xlink:href="#linearGradient4477"/><linearGradient id="linearGradient4477"><stop id="stop4479" offset="0" stop-color="#000" stop-opacity="1"/><stop id="stop4481" offset="1" stop-color="#000" stop-opacity="0"/></linearGradient><linearGradient id="linearGradient2852" x1="14.999" x2="24.092" y1="2.166" y2="31.494" gradientTransform="matrix(0.98972044,0,0,1.0228953,0.20242822,0.02455684)" gradientUnits="userSpaceOnUse" xlink:href="#linearGradient2846"/><linearGradient id="linearGradient2846"><stop id="stop2848" offset="0" stop-color="#8A8A8A" stop-opacity="1"/><stop id="stop2850" offset="1" stop-color="#484848" stop-opacity="1"/></linearGradient><linearGradient id="linearGradient4446" x1="30.656" x2="33.219" y1="34" y2="31.063" gradientTransform="matrix(1.3208711,0,0,1.3208546,-6.6997238,-7.6069175)" gradientUnits="userSpaceOnUse" xlink:href="#linearGradient4440"/><linearGradient id="linearGradient4440"><stop id="stop4442" offset="0" stop-color="#7D7D7D" stop-opacity="1"/><stop id="stop4448" offset=".5" stop-color="#B1B1B1" stop-opacity="1"/><stop id="stop4444" offset="1" stop-color="#686868" stop-opacity="1"/></linearGradient><linearGradient id="linearGradient2372" x1="18.293" x2="17.501" y1="13.602" y2="25.743" gradientUnits="userSpaceOnUse" xlink:href="#linearGradient2366"/><linearGradient id="linearGradient2366"><stop id="stop2368" offset="0" stop-color="#FFF" stop-opacity="1"/><stop id="stop2374" offset=".5" stop-color="#FFF" stop-opacity=".219"/><stop id="stop2370" offset="1" stop-color="#FFF" stop-opacity="1"/></linearGradient><radialGradient id="radialGradient4493" cx="24.196" cy="39.434" r="16.529" fx="24.196" fy="39.434" gradientTransform="matrix(0.71428574,0,0,0.10816729,6.8474084,33.702429)" gradientUnits="userSpaceOnUse" xlink:href="#linearGradient3890"/><linearGradient id="linearGradient4487"><stop id="stop4489" offset="0" stop-color="#FFF" stop-opacity="1"/><stop id="stop4491" offset="1" stop-color="#FFF" stop-opacity="0"/></linearGradient><radialGradient id="radialGradient4460" cx="18.241" cy="21.818" r="8.309" fx="18.241" fy="21.818" gradientUnits="userSpaceOnUse" xlink:href="#linearGradient4454"/><linearGradient id="linearGradient4454"><stop id="stop4456" offset="0" stop-color="#729FCF" stop-opacity=".208"/><stop id="stop4458" offset="1" stop-color="#729FCF" stop-opacity=".676"/></linearGradient><radialGradient id="radialGradient4473" cx="15.414" cy="13.078" r="6.656" fx="15.414" fy="13.078" gradientTransform="matrix(2.5663055,0,0,2.3036626,-24.59967,-19.350105)" gradientUnits="userSpaceOnUse" xlink:href="#linearGradient4487"/><linearGradient id="linearGradient259"><stop id="stop260" offset="0" stop-color="#FAFAFA" stop-opacity="1"/><stop id="stop261" offset="1" stop-color="#BBB" stop-opacity="1"/></linearGradient><linearGradient id="linearGradient269"><stop id="stop270" offset="0" stop-color="#A3A3A3" stop-opacity="1"/><stop id="stop271" offset="1" stop-color="#4C4C4C" stop-opacity="1"/></linearGradient><linearGradient id="linearGradient15662"><stop id="stop15664" offset="0" stop-color="#FFF" stop-opacity="1"/><stop id="stop15666" offset="1" stop-color="#F8F8F8" stop-opacity="1"/></linearGradient><radialGradient id="aigrd2" cx="20.892" cy="114.568" r="5.256" fx="20.892" fy="114.568" gradientUnits="userSpaceOnUse"><stop id="stop15566" offset="0" stop-color="#F0F0F0"/><stop id="stop15568" offset="1" stop-color="#9A9A9A" stop-opacity="1"/></radialGradient><radialGradient id="aigrd3" cx="20.892" cy="64.568" r="5.257" fx="20.892" fy="64.568" gradientUnits="userSpaceOnUse"><stop id="stop15573" offset="0" stop-color="#F0F0F0"/><stop id="stop15575" offset="1" stop-color="#9A9A9A" stop-opacity="1"/></radialGradient><radialGradient id="radialGradient3132-2-7" cx="32.152" cy="27.951" r="23.635" fx="32.152" fy="27.951" gradientTransform="matrix(0.39497909,0,0,1.1841158,40.937415,-21.686946)" gradientUnits="userSpaceOnUse" xlink:href="#linearGradient4513"/><linearGradient id="linearGradient3920" x1="28" x2="34" y1="17" y2="53" gradientUnits="userSpaceOnUse" xlink:href="#linearGradient3914"/><linearGradient id="linearGradient3920-7" x1="28" x2="34" y1="17" y2="53" gradientUnits="userSpaceOnUse" xlink:href="#linearGradient3914-4"/><linearGradient id="linearGradient3914-4"><stop id="stop3916-0" offset="0" stop-color="#8ae234" stop-opacity="1"/><stop id="stop3918-9" offset="1" stop-color="#4e9a06" stop-opacity="1"/></linearGradient><linearGradient id="linearGradient3158" x1="30" x2="36" y1="10" y2="54.227" gradientTransform="translate(19.999928,-7.0000002)" gradientUnits="userSpaceOnUse" xlink:href="#linearGradient4031"/><linearGradient id="linearGradient4031"><stop id="stop4033" offset="0" stop-color="#d3d7cf" stop-opacity="1"/><stop id="stop4035" offset="1" stop-color="#888a85" stop-opacity="1"/></linearGradient><linearGradient id="linearGradient3097" x1="30" x2="36" y1="10" y2="54.227" gradientTransform="translate(19.999998,-7.0000001)" gradientUnits="userSpaceOnUse" xlink:href="#linearGradient4031"/><linearGradient id="linearGradient3147" x1="35.06" x2="27.286" y1="53.009" y2="7.312" gradientUnits="userSpaceOnUse" xlink:href="#linearGradient3898-8-9"/><linearGradient id="linearGradient3898-8-9"><stop id="stop3900-2-2" offset="0" stop-color="#888a85" stop-opacity="1"/><stop id="stop3902-4-7" offset="1" stop-color="#d3d7cf" stop-opacity="1"/></linearGradient><linearGradient id="linearGradient3143" x1="35.06" x2="27.286" y1="53.009" y2="7.312" gradientUnits="userSpaceOnUse" xlink:href="#linearGradient3898-8-9"/><linearGradient id="linearGradient3145" x1="35.06" x2="27.286" y1="53.009" y2="7.312" gradientUnits="userSpaceOnUse" xlink:href="#linearGradient3898-8-9"/></defs><metadata id="metadata2821"/><g id="layer1"><path id="path3923-0-4-0" fill="none" stroke="#172a04" stroke-dasharray="none" stroke-linecap="round" stroke-linejoin="round" stroke-miterlimit="4" stroke-opacity="1" stroke-width="8" d="M 6,52 C 6,52 6,40.547192 6,31 6,22 14,14 23,23 27.844097,28.448044 28,45 40,39 52,33 58,28 58,28"/><path id="path3923-0-4-0-1" fill="none" stroke="url(#linearGradient3920)" stroke-dasharray="none" stroke-linecap="round" stroke-linejoin="round" stroke-miterlimit="4" stroke-opacity="1" stroke-width="4" d="M 6,52 C 6,52 6,40.547192 6,31 6,22 14,14 23,23 27.844097,28.448044 28,45 40,39 52,33 58,28 58,28"/><path id="path3923-0-4-0-1-4" fill="none" stroke="#8ae234" stroke-dasharray="none" stroke-linecap="round" stroke-linejoin="round" stroke-miterlimit="4" stroke-opacity="1" stroke-width="2" d="m 5.1643283,50.958519 c 0,0 0,-11.388526 0,-20.935718 0,-9 9.6070607,-16.485741 18.6070607,-7.485741 C 28.615486,27.985104 28.899954,43.637106 40,38.022801 51.100046,32.408496 57.550023,27.151366 57.550023,27.151366"/><g id="g3908-1-4" transform="matrix(1.2383679,0,0,1,-39.54617,-12)"><g id="g3135"><g id="g3859-7-3" transform="matrix(0.78612717,0,0,1,48.768786,3)"><g id="g3126-1-1" fill="url(#linearGradient3147)" fill-opacity="1"><path id="rect4417-1-2" fill="url(#linearGradient3143)" fill-opacity="1" fill-rule="nonzero" stroke="#2e3436" stroke-dasharray="none" stroke-dashoffset="0" stroke-linecap="butt" stroke-linejoin="round" stroke-miterlimit="4" stroke-opacity="1" stroke-width="2.027" d="m 22.755149,28 0,9 18.489706,-8 0,-9 z m 18.489706,3 -18.489706,8 0,9 18.489706,-8 z m 0,11 L 22.755149,50 32,56 41.244855,50 z" color="#000" display="inline" enable-background="accumulate" overflow="visible" visibility="visible" style="marker:none"/><path id="path3085-5-3" fill="url(#linearGradient3145)" fill-opacity="1" stroke="#2e3436" stroke-linecap="butt" stroke-linejoin="round" stroke-opacity="1" stroke-width="2.027" d="m 22.755149,26 0,-14 18.489706,0 0,6 z"/></g><path stroke-opacity="1" style="marker:none" id="rect4417-1-4-2-3" fill="none" stroke="#d3d7cf" stroke-dasharray="none" stroke-dashoffset="0" stroke-linecap="butt" stroke-linejoin="miter" stroke-miterlimit="4" stroke-width="2.027" d="m 24.826699,29.299103 0.02839,4.492034 14.320401,-6.092914 0.02324,-4.645526 z m 14.361546,4.789285 -14.374245,6.229006 0.01513,4.5902 14.389879,-6.224988 z m -0.01949,10.999765 -12.158366,5.23507 4.97403,3.277297 7.174659,-4.659288 z" color="#000" display="inline" enable-background="accumulate" overflow="visible" visibility="visible"/></g><path id="path3906-7-4" fill="none" stroke="#d3d7cf" stroke-linecap="butt" stroke-linejoin="miter" stroke-opacity="1" stroke-width="1.797" d="m 68.272256,17 0.014,8.948166 L 79.576261,19.762958 79.577458,17 z"/></g></g><g id="g1772" transform="translate(8.9531919,15.759994)"><ellipse id="path4475" cx="24.13" cy="37.968" fill="url(#radialGradient2842)" fill-opacity="1" fill-rule="evenodd" stroke="none" stroke-dasharray="none" stroke-dashoffset="0" stroke-linecap="round" stroke-linejoin="miter" stroke-miterlimit="10" stroke-opacity="1" stroke-width="1" d="m 40.65864,37.967922 c 0,2.172292 -7.400116,3.933282 -16.528622,3.933282 -9.128505,0 -16.5286214,-1.76099 -16.5286214,-3.933282 0,-2.172291 7.4001164,-3.933281 16.5286214,-3.933281 9.128506,0 16.528622,1.76099 16.528622,3.933281 z" color="#000" display="inline" opacity=".27" overflow="visible" rx="16.529" ry="3.933" transform="matrix(1.44643,0,0,1.51999,-10.9745,-17.7517)" visibility="visible" style="marker:none"/><path stroke-miterlimit="10" style="marker:none" id="path2844" fill="#dcdcdc" fill-opacity="1" fill-rule="evenodd" stroke="url(#linearGradient2852)" stroke-dasharray="none" stroke-dashoffset="0" stroke-linecap="round" stroke-linejoin="miter" stroke-opacity="1" stroke-width="2" d="m 18.638514,3.2400846 c -8.055464,0 -14.5932308,6.7569102 -14.5932308,15.0823904 0,8.325478 6.5377668,15.082389 14.5932308,15.082389 3.443787,0 6.48366,-1.416089 8.98045,-3.480552 -0.203267,1.029934 -0.07723,2.081969 0.74837,2.823115 l 10.851379,9.745543 c 1.220736,1.095858 3.055724,0.952275 4.116038,-0.309382 1.060316,-1.261657 0.921389,-3.15815 -0.299347,-4.254006 L 32.184026,28.184037 c -0.664623,-0.596634 -1.477532,-0.773278 -2.28253,-0.657438 1.966276,-2.569944 3.330248,-5.675845 3.330248,-9.204124 0,-8.3254802 -6.537766,-15.0823904 -14.59323,-15.0823904 z m -0.07484,1.2542573 c 7.560929,0 13.155142,4.8985954 13.155142,13.5960951 0,8.873733 -5.756897,13.596096 -13.155142,13.596096 -7.227878,0 -13.1551394,-5.603515 -13.1551394,-13.596096 0,-8.1669059 5.7647634,-13.5960952 13.1551394,-13.5960951 z" color="#000" display="inline" overflow="visible" visibility="visible"/><path id="path4430" fill="#dcdcdc" fill-opacity="1" fill-rule="evenodd" stroke="none" stroke-width="1" d="m 18.614104,3.1754377 c -8.081503,0 -14.6404046,6.7787521 -14.6404046,15.1311423 0,8.352391 6.5589016,15.131144 14.6404046,15.131144 3.454918,0 6.504617,-1.420667 9.009479,-3.491802 -0.203922,1.033263 -0.07749,2.088697 0.75079,2.832239 l 10.886455,9.777046 c 1.224684,1.099399 3.065602,0.955353 4.129344,-0.310383 1.063743,-1.265734 0.924368,-3.168359 -0.300315,-4.267757 L 32.203402,28.20002 c -0.666773,-0.598561 -1.482309,-0.775776 -2.289909,-0.659561 1.972633,-2.578254 3.341014,-5.694193 3.341014,-9.233879 0,-8.3523902 -6.558901,-15.1311423 -14.640403,-15.1311423 z m -0.07508,3.2590154 c 6.216541,2e-7 11.261848,5.2144239 11.261848,11.6393409 0,6.424916 -5.045307,11.63934 -11.261848,11.63934 -6.216542,0 -11.2618498,-5.214424 -11.2618498,-11.63934 2e-7,-6.424917 5.0453078,-11.6393409 11.2618498,-11.6393409 z" color="#000" display="inline" overflow="visible" visibility="visible" style="marker:none"/><path id="path4438" fill="url(#linearGradient4446)" fill-opacity="1" fill-rule="evenodd" stroke="none" stroke-width="1" d="m 39.303318,42.554183 c -0.473751,-2.325233 1.382966,-4.921581 3.547211,-4.898007 0,0 -10.649756,-9.470078 -10.649756,-9.470078 -2.914519,-0.058 -4.225613,2.324649 -3.737989,4.705238 l 10.840534,9.662847 z" color="#000" display="inline" overflow="visible" visibility="visible" style="marker:none"/><circle id="path4450" cx="17.501" cy="18.92" r="11.049" fill="none" stroke="url(#linearGradient2372)" stroke-dasharray="none" stroke-dashoffset="0" stroke-linecap="round" stroke-linejoin="miter" stroke-miterlimit="10" stroke-opacity="1" stroke-width=".798" d="m 28.549437,18.920233 c 0,6.101942 -4.946602,11.048544 -11.048544,11.048544 -6.101943,0 -11.0485443,-4.946602 -11.0485443,-11.048544 0,-6.101943 4.9466013,-11.0485442 11.0485443,-11.0485442 6.101942,0 11.048544,4.9466012 11.048544,11.0485442 z" color="#000" display="inline" overflow="visible" transform="matrix(1.2329344,0,0,1.2742616,-3.1877108,-6.2938985)" visibility="visible" style="marker:none"/><rect stroke-miterlimit="10" style="marker:none" id="rect4495" width="19.129" height="4.481" x="40.716" y=".025" fill="none" stroke="#fff" stroke-dasharray="none" stroke-dashoffset="0" stroke-linecap="round" stroke-linejoin="miter" stroke-opacity="1" stroke-width="1" color="#000" display="inline" opacity=".433" overflow="visible" rx="2.146" ry="1.905" transform="matrix(0.74211359,0.67027414,-0.6364657,0.77130501,0,0)" visibility="visible"/><circle id="path4452" cx="17.589" cy="18.478" r="8.309" fill="url(#radialGradient4460)" fill-opacity="1" fill-rule="evenodd" stroke="#204a87" stroke-dashoffset="0" stroke-linecap="round" stroke-linejoin="miter" stroke-miterlimit="10" stroke-opacity="1" stroke-width=".711" d="m 25.897786,18.478292 c 0,4.588661 -3.719844,8.308506 -8.308505,8.308506 -4.588661,0 -8.308505,-3.719845 -8.308505,-8.308506 0,-4.58866 3.719844,-8.308505 8.308505,-8.308505 4.588661,0 8.308505,3.719845 8.308505,8.308505 z" color="#000" transform="matrix(1.384233,0,0,1.4306317,-5.9579283,-8.4644107)" visibility="visible" style="marker:none"/><path id="path4462" fill="url(#radialGradient4473)" fill-opacity="1" fill-rule="evenodd" stroke="none" stroke-width="1" d="m 18.172698,7.5906005 c -5.154058,0 -9.3276665,4.3135055 -9.3276665,9.6403265 0,1.538408 0.4159866,2.953888 1.0364074,4.244915 1.2395061,0.472182 2.5562071,0.793444 3.9537021,0.793444 6.107521,0 10.985187,-4.972946 11.362096,-11.187539 C 23.484066,8.9893823 21.030475,7.5906005 18.172698,7.5906005 z" color="#000" display="inline" opacity=".834" overflow="visible" visibility="visible" style="marker:none"/></g></g></svg>