<svg xmlns="http://www.w3.org/2000/svg" xmlns:osb="http://www.openswatchbook.org/uri/2009/osb" xmlns:svg="http://www.w3.org/2000/svg" xmlns:xlink="http://www.w3.org/1999/xlink" id="svg2816" width="64" height="64" version="1.1"><defs id="defs2818"><linearGradient id="linearGradient3845"><stop id="stop3847" offset="0" stop-color="#8ae234" stop-opacity="1"/><stop id="stop3849" offset="1" stop-color="#4e9a06" stop-opacity="1"/></linearGradient><linearGradient id="linearGradient3797"><stop id="stop3799" offset="0" stop-color="#729fcf" stop-opacity="1"/><stop id="stop3801" offset="1" stop-color="#204a87" stop-opacity="1"/></linearGradient><linearGradient id="linearGradient6899" osb:paint="solid"><stop id="stop6901" offset="0" stop-color="#074cff" stop-opacity="1"/></linearGradient><linearGradient id="linearGradient6887" osb:paint="solid"><stop id="stop6889" offset="0" stop-color="#074cff" stop-opacity="1"/></linearGradient><linearGradient id="linearGradient4668" osb:paint="gradient"><stop id="stop4670" offset="0" stop-color="#009b00" stop-opacity="1"/><stop id="stop4672" offset="1" stop-color="#009b00" stop-opacity="0"/></linearGradient><linearGradient id="linearGradient4662" osb:paint="solid"><stop id="stop4664" offset="0" stop-color="green" stop-opacity="1"/></linearGradient><linearGradient id="linearGradient4529" osb:paint="solid"><stop id="stop4531" offset="0" stop-color="#0047ff" stop-opacity="1"/></linearGradient><linearGradient id="linearGradient4513"><stop id="stop4515" offset="0" stop-color="#fff" stop-opacity="1"/><stop id="stop4517" offset="1" stop-color="#999" stop-opacity="1"/></linearGradient><radialGradient id="radialGradient3132" cx="32.152" cy="27.951" r="23.635" fx="32.152" fy="27.951" gradientTransform="matrix(0.39497909,0,0,1.1841158,-76.294432,-34.372515)" gradientUnits="userSpaceOnUse" xlink:href="#linearGradient4513"/><radialGradient id="radialGradient3805" cx="16.463" cy="23.896" r="18.501" fx="16.463" fy="23.896" gradientTransform="matrix(0.80330389,1.0328193,-1.4593803,1.1350735,43.668994,-14.467522)" gradientUnits="userSpaceOnUse" xlink:href="#linearGradient3797"/><linearGradient id="linearGradient3851" x1="20.881" x2="43.661" y1="21.481" y2="44.871" gradientTransform="rotate(-163.43915,30.812073,39.486566)" gradientUnits="userSpaceOnUse" xlink:href="#linearGradient3845"/><linearGradient id="linearGradient4055" x1="30" x2="36" y1="10" y2="54.227" gradientTransform="translate(71.494719,-3.1982556)" gradientUnits="userSpaceOnUse" xlink:href="#linearGradient4031"/><linearGradient id="linearGradient4031"><stop id="stop4033" offset="0" stop-color="#d3d7cf" stop-opacity="1"/><stop id="stop4035" offset="1" stop-color="#888a85" stop-opacity="1"/></linearGradient></defs><metadata id="metadata2821"/><g id="layer1" display="inline" opacity="1"><circle id="path4493" cx="31.021" cy="39.66" r="17.5" fill="url(#radialGradient3805)" fill-opacity="1" stroke="#0b1521" stroke-dasharray="none" stroke-linecap="round" stroke-miterlimit="4" stroke-opacity="1" stroke-width="2" display="inline" opacity=".97"/><circle id="path4493-1" cx="31.117" cy="39.756" r="15.5" fill="none" stroke="#729fcf" stroke-dasharray="none" stroke-linecap="round" stroke-miterlimit="4" stroke-opacity="1" stroke-width="2" display="inline" opacity=".97"/><path id="path3807" fill="none" stroke="#172a04" stroke-linecap="round" stroke-linejoin="round" stroke-opacity="1" stroke-width="8" d="m 59.29546,31.03118 -16.762552,0.129782 c 0,0 -4.363144,14.35141 -14.512504,13.356169 C 17.871045,43.521889 19.157163,32.415769 19.157163,32.415769 L 4.3081318,33.127305 6.1831723,44.149293 10.591968,43.399277 c 0,0 -0.6202341,12.353756 15.26969,15.094256 15.889923,2.740499 22.664209,-16.103838 22.664209,-16.103838 l 7.279078,0.122613"/><path id="path3807-7" fill="none" stroke="url(#linearGradient3851)" stroke-linecap="round" stroke-linejoin="round" stroke-opacity="1" stroke-width="4" d="m 59.301763,30.730423 -16.761448,0.23205 c 0,0 -4.275503,14.377763 -14.430746,13.444463 -10.155242,-0.933301 -8.936908,-12.04706 -8.936908,-12.04706 l -14.8444147,0.802117 1.942252,11.010344 4.4041387,-0.776901 c 0,0 -0.544852,12.357311 15.361497,15.000812 C 41.942482,61.03975 48.60167,42.154434 48.60167,42.154434 l 7.27969,0.0782" display="inline"/><path id="path3807-7-4" fill="none" stroke="#8ae234" stroke-linecap="round" stroke-linejoin="round" stroke-opacity="1" stroke-width="2" d="m 59.438018,31.57913 -15.807495,0.350853 c 0,0 -4.928506,14.176949 -15.526813,12.996849 -10.598307,-1.1801 -9.452729,-12.126113 -9.452729,-12.126113 L 5.8451749,33.369087 7.0512242,40.443208 M 6.4312195,44.494829 10.04149,44.036436 c 0,0 -0.03589,12.046482 15.841772,14.857128 15.877665,2.810646 23.690573,-15.708492 23.690573,-15.708492 l 6.322998,-0.140341" display="inline"/><g id="g4051" transform="matrix(0.66585367,0,0,0.65271967,-13.019025,-2.4143722)"><path id="rect4417-3" fill="url(#linearGradient4055)" fill-opacity="1" fill-rule="nonzero" stroke="#2e3436" stroke-dasharray="none" stroke-dashoffset="0" stroke-linecap="butt" stroke-linejoin="round" stroke-miterlimit="4" stroke-opacity="1" stroke-width="3.034" d="m 94.494721,6.8017444 -0.01099,27.5961536 18.021979,-7.660256 -0.011,-19.9358976 z M 112.49472,29.801744 94.483731,37.462 l 0.01099,8.339744 17.999999,-8 z m 0.011,10.724359 -16.520148,7.660256 7.509158,4.615385 9,-5 z" color="#000" display="inline" enable-background="accumulate" overflow="visible" visibility="visible" style="marker:none"/><path id="rect4417-1" fill="none" stroke="#d3d7cf" stroke-dasharray="none" stroke-dashoffset="0" stroke-linecap="butt" stroke-linejoin="miter" stroke-miterlimit="4" stroke-opacity="1" stroke-width="3.034" d="M 97.487394,9.8850776 V 29.753867 l 11.991186,-5.098858 0.0235,-14.7699314 z m 12.014656,24.5647544 -11.989201,5.01406 v 1.711385 l 11.963741,-5.40113 z m 0.0452,10.829611 -7.19513,3.327881 1.20492,0.808046 5.9895,-3.408611 z" color="#000" display="inline" enable-background="accumulate" overflow="visible" visibility="visible" style="marker:none"/></g></g></svg>