<svg xmlns="http://www.w3.org/2000/svg" xmlns:svg="http://www.w3.org/2000/svg" xmlns:xlink="http://www.w3.org/1999/xlink" id="svg8" width="48" height="48" version="1.1" viewBox="0 0 12.7 12.7"><defs id="defs2"><linearGradient id="linearGradient4495"><stop id="stop4491" offset="0" stop-color="gray" stop-opacity="1"/><stop id="stop4493" offset="1" stop-color="#999" stop-opacity="0"/></linearGradient><linearGradient id="linearGradient4499" x1="5.601" x2="3.061" y1="287.266" y2="291.399" gradientTransform="matrix(0.60226969,0,0,1,5.2361606,0)" gradientUnits="userSpaceOnUse" xlink:href="#linearGradient4495"/><linearGradient id="linearGradient4499-8" x1="5.601" x2="3.061" y1="287.266" y2="291.399" gradientTransform="matrix(0.60226968,0,0,1,1.703687,-0.36311337)" gradientUnits="userSpaceOnUse" xlink:href="#linearGradient4495"/></defs><metadata id="metadata5"/><g id="layer1" transform="translate(0,-284.29998)"><path id="path4485" fill="#000" fill-rule="evenodd" stroke="#000" stroke-dasharray="none" stroke-linecap="butt" stroke-linejoin="round" stroke-miterlimit="4" stroke-opacity="1" stroke-width=".83" d="m 5.8169018,295.81675 v -10.4282 l 5.4789992,5.00112 z"/><path id="path4489" fill="url(#linearGradient4499)" fill-opacity="1" fill-rule="evenodd" stroke="none" stroke-linecap="butt" stroke-linejoin="miter" stroke-opacity="1" stroke-width=".205" d="m 5.8727709,290.20035 0.0095,-3.62856 c 0,0 0.030321,-0.61216 0.1710297,-0.72572 0.1874413,-0.15128 0.5986037,0.29975 0.5986037,0.29975 0,0 2.8467977,2.66119 3.6486317,3.37615 0.532727,0.67295 -0.3705638,0.70994 -0.3705638,0.70994 z"/><rect id="rect4507" width="2.019" height="11.454" x="1.704" y="284.947" fill="#000" fill-opacity="1" stroke="none" stroke-dasharray="none" stroke-dashoffset="0" stroke-linecap="round" stroke-linejoin="round" stroke-miterlimit="4" stroke-opacity="1" stroke-width=".265" opacity="1" ry="1.104"/><path id="path4489-9" fill="url(#linearGradient4499-8)" fill-opacity="1" fill-rule="evenodd" stroke="none" stroke-linecap="butt" stroke-linejoin="miter" stroke-opacity="1" stroke-width=".205" d="m 2.3402974,289.83723 0.0095,-3.62856 c 0,0 -0.071726,-0.67244 0.1710297,-0.72572 0.4498756,-0.0987 0.9083372,0.17876 0.8510261,1.08857 -0.067956,1.37009 0.2406352,2.77217 -0.287398,3.29727 z"/></g></svg>