<svg xmlns="http://www.w3.org/2000/svg" xmlns:svg="http://www.w3.org/2000/svg" xmlns:xlink="http://www.w3.org/1999/xlink" id="svg8" width="48" height="48" version="1.1" viewBox="0 0 12.7 12.7"><defs id="defs2"><linearGradient id="linearGradient4495"><stop id="stop4491" offset="0" stop-color="gray" stop-opacity="1"/><stop id="stop4493" offset="1" stop-color="#999" stop-opacity="0"/></linearGradient><linearGradient id="linearGradient4499" x1="5.601" x2="3.061" y1="287.266" y2="291.399" gradientTransform="matrix(0.37684731,0,0,1,7.1020319,0.32736376)" gradientUnits="userSpaceOnUse" xlink:href="#linearGradient4495"/><linearGradient id="linearGradient5205" x1="5.601" x2="3.061" y1="287.266" y2="291.399" gradientTransform="matrix(0.37684731,0,0,1,1.6035424,0.32736376)" gradientUnits="userSpaceOnUse" xlink:href="#linearGradient4495"/></defs><metadata id="metadata5"/><g id="layer1" transform="translate(0,-284.29998)"><path id="path4485" fill="#000" fill-rule="evenodd" stroke="#000" stroke-dasharray="none" stroke-linecap="butt" stroke-linejoin="round" stroke-miterlimit="4" stroke-opacity="1" stroke-width="1.323" d="m 7.4658885,295.38403 v -9.41289 l 3.4485725,4.67196 z"/><path id="path4489" fill="url(#linearGradient4499)" fill-opacity="1" fill-rule="evenodd" stroke="none" stroke-linecap="butt" stroke-linejoin="miter" stroke-opacity="1" stroke-width=".162" d="m 7.5003666,290.52771 -0.019743,-2.9975 c 0,0 -0.066844,-0.79266 0.2868112,-0.88349 0.239548,-0.0615 0.7084599,0.70994 0.7084599,0.70994 0,0 1.293258,1.77771 1.7949753,2.49267 0.333335,0.67295 -0.231866,0.70994 -0.231866,0.70994 z"/><path id="path4485-3" fill="#000" fill-rule="evenodd" stroke="#000" stroke-dasharray="none" stroke-linecap="butt" stroke-linejoin="round" stroke-miterlimit="4" stroke-opacity="1" stroke-width="1.323" d="m 1.967399,295.38403 v -9.41289 l 3.448572,4.67196 z"/><path id="path4489-4" fill="url(#linearGradient5205)" fill-opacity="1" fill-rule="evenodd" stroke="none" stroke-linecap="butt" stroke-linejoin="miter" stroke-opacity="1" stroke-width=".162" d="m 2.0018771,290.52771 -0.019743,-2.9975 c 0,0 -0.066844,-0.79266 0.2868112,-0.88349 0.239548,-0.0615 0.7084599,0.70994 0.7084599,0.70994 0,0 1.293258,1.77771 1.7949753,2.49267 0.3333345,0.67295 -0.231866,0.70994 -0.231866,0.70994 z"/></g></svg>