<svg xmlns="http://www.w3.org/2000/svg" xmlns:svg="http://www.w3.org/2000/svg" id="svg8277" width="64" height="64" version="1.1"><metadata id="metadata8282"/><g id="layer1"><path id="path6514" fill="#8ae234" fill-opacity="1" stroke="#172a04" stroke-linecap="round" stroke-linejoin="round" stroke-miterlimit="32.2" stroke-opacity="1" stroke-width="2" d="m 46,20.844811 c 1.886656,2.854958 1,7.457529 -1,8.38972 -2,0.932191 -4.113344,0.871485 -6,-1.983474 -1.886655,-2.854959 -2.557497,-6.511112 -1,-8.270629 1.557497,-1.759517 6.113344,-0.990576 8,1.864383 z"/><path id="path6419" fill="none" stroke="#0b1521" stroke-linecap="round" stroke-linejoin="miter" stroke-opacity="1" stroke-width="8" d="m 10,18.980429 4,20.508205"/><path id="path6419-6" fill="none" stroke="#3465a4" stroke-linecap="round" stroke-linejoin="miter" stroke-opacity="1" stroke-width="4" d="m 10,18.980429 4,20.508205"/><path id="path6419-6-2" fill="none" stroke="#729fcf" stroke-linecap="round" stroke-linejoin="miter" stroke-opacity="1" stroke-width="2" d="m 9,18.980429 4,20.508205"/><path id="path6475-3-5" fill="#73d216" stroke="#172a04" stroke-linecap="round" stroke-linejoin="round" stroke-miterlimit="32.2" stroke-opacity="1" stroke-width="2" d="m 46,28.302339 c 2,-2.796573 0,-10.254102 -6,-10.254102 l 12,1e-6 z"/><path id="path6571" fill="none" stroke="#8ae234" stroke-linecap="butt" stroke-linejoin="miter" stroke-opacity="1" stroke-width="2" d="m 44,19.91262 6.954546,-0.02119"/><path id="path6475-3-5-1" fill="none" stroke="#172a04" stroke-linecap="round" stroke-linejoin="round" stroke-miterlimit="32.2" stroke-opacity="1" stroke-width="2" d="m 45.977273,28.323526 c 2,-2.796574 0,-10.254103 -6,-10.254103 l 12,1e-6 z"/><path id="path6397-6" fill="none" stroke="#2e3436" stroke-linecap="round" stroke-linejoin="miter" stroke-opacity="1" stroke-width="8" d="M 40.899954,24.963079 58,39.488634"/><path id="path6397-3-79" fill="none" stroke="#2e3436" stroke-linecap="round" stroke-linejoin="miter" stroke-opacity="1" stroke-width="8" d="M 32,54.403692 58,39.488634"/><path id="path6397-3-7-2" fill="none" stroke="#d3d7cf" stroke-linecap="round" stroke-linejoin="miter" stroke-opacity="1" stroke-width="4" d="M 32,54.403692 58,39.488634"/><path id="path6397-3-7-7-0" fill="none" stroke="#fff" stroke-linecap="round" stroke-linejoin="miter" stroke-opacity="1" stroke-width="2" d="M 31.590909,53.513874 56,39.488634"/><path id="path6419-5" fill="none" stroke="#2e3436" stroke-linecap="round" stroke-linejoin="miter" stroke-opacity="1" stroke-width="8" d="m 38,6 2.674966,18.909909"/><path id="path6397-5-1" fill="none" stroke="#d3d7cf" stroke-linecap="round" stroke-linejoin="miter" stroke-opacity="1" stroke-width="4" d="M 40.449977,24.333881 58,39.488634"/><path id="path6397-3-2" fill="none" stroke="#2e3436" stroke-linecap="round" stroke-linejoin="miter" stroke-opacity="1" stroke-width="8" d="M 11.227268,20.106902 38,6"/><path id="path6397-3-7-3" fill="none" stroke="#d3d7cf" stroke-linecap="round" stroke-linejoin="miter" stroke-opacity="1" stroke-width="4" d="M 11.54545,19.870247 38,6"/><path id="path6419-6-9" fill="none" stroke="#d3d7cf" stroke-linecap="round" stroke-linejoin="miter" stroke-opacity="1" stroke-width="4" d="m 38,6 2.674966,18.93987"/><path id="path6419-6-2-22" fill="none" stroke="#fff" stroke-linecap="round" stroke-linejoin="miter" stroke-opacity="1" stroke-width="2" d="M 37.570746,9.6645989 39.771389,25.389297"/><path id="path6397-3-7-7-7" fill="none" stroke="#fff" stroke-linecap="round" stroke-linejoin="miter" stroke-opacity="1" stroke-width="2" d="M 9.590904,19.954993 36.863636,5.5909091"/><path id="path6397-5-0-8" fill="none" stroke="#fff" stroke-linecap="round" stroke-linejoin="miter" stroke-opacity="1" stroke-width="2" d="M 39.610683,25.086302 56,39.488634"/><path id="path6397-3" fill="none" stroke="#172a04" stroke-linecap="round" stroke-linejoin="miter" stroke-opacity="1" stroke-width="8" d="M 14,39.488634 40,24.573576"/><path id="path6397-3-7" fill="none" stroke="#73d216" stroke-linecap="round" stroke-linejoin="miter" stroke-opacity="1" stroke-width="4" d="M 14,39.488634 40,24.573576"/><path id="path6397-3-7-7" fill="none" stroke="#8ae234" stroke-linecap="round" stroke-linejoin="miter" stroke-opacity="1" stroke-width="2" d="m 13.590909,38.598816 26,-14.915059"/><path id="path6397" fill="none" stroke="#280000" stroke-linecap="round" stroke-linejoin="miter" stroke-opacity="1" stroke-width="8" d="M 14,39.488634 32,54.403692"/><path id="path6397-9" fill="none" stroke="#2e3436" stroke-linecap="round" stroke-linejoin="miter" stroke-opacity="1" stroke-width="8" d="M 10,18.980429 28,33.895488"/><path id="path6397-5" fill="none" stroke="#c00" stroke-linecap="round" stroke-linejoin="miter" stroke-opacity="1" stroke-width="4" d="M 14,39.488634 32,54.403692"/><path id="path6419-0" fill="none" stroke="#2e3436" stroke-linecap="round" stroke-linejoin="miter" stroke-opacity="1" stroke-width="8" d="m 28,33.895488 4,20.508204"/><path id="path6397-5-0" fill="none" stroke="#ef2929" stroke-linecap="round" stroke-linejoin="miter" stroke-opacity="1" stroke-width="2" d="m 13.160706,40.061284 18,14.915058"/><path id="path6419-6-6" fill="none" stroke="#d3d7cf" stroke-linecap="round" stroke-linejoin="miter" stroke-opacity="1" stroke-width="4" d="m 28,33.895488 4,20.508204"/><path id="path6419-6-2-2" fill="none" stroke="#fff" stroke-linecap="round" stroke-linejoin="miter" stroke-opacity="1" stroke-width="2" d="m 27,34.827679 4,19.576013"/><path id="path6397-5-3" fill="none" stroke="#d3d7cf" stroke-linecap="round" stroke-linejoin="miter" stroke-opacity="1" stroke-width="4" d="M 10,18.980429 28,33.895488"/><path id="path6397-5-0-6" fill="none" stroke="#fff" stroke-linecap="round" stroke-linejoin="miter" stroke-opacity="1" stroke-width="2" d="M 9.160706,19.553078 27,34.827679"/><path id="path6475" fill="#3465a4" stroke="#0b1521" stroke-linecap="round" stroke-linejoin="round" stroke-miterlimit="32.2" stroke-opacity="1" stroke-width="2" d="M 16,15.251664 C 13.932554,19.024712 6,19.91262 3,18.048238 L 7,6.8619438 z"/><path id="path6475-6" fill="none" stroke="#729fcf" stroke-linecap="round" stroke-linejoin="miter" stroke-miterlimit="32.2" stroke-opacity="1" stroke-width="2" d="M 13.321412,15.371511 C 11.96658,16.692824 8.007986,17.475172 5.5007096,16.910046 L 7.8071527,10.291091 z"/><path id="path6475-3" fill="#c00" stroke="#280000" stroke-linecap="round" stroke-linejoin="round" stroke-miterlimit="32.2" stroke-opacity="1" stroke-width="2" d="m 26.705771,57.85818 c -0.233291,-4.231182 6.160254,-8.697462 9.758331,-8.481147 L 39,60.929031 z"/><path id="path6475-6-2" fill="none" stroke="#ef2929" stroke-linecap="round" stroke-linejoin="miter" stroke-miterlimit="32.2" stroke-opacity="1" stroke-width="2" d="m 28.936247,56.506474 c 0.462937,-1.776149 3.46918,-4.301222 5.943024,-4.982459 l 1.559168,6.805937 z"/></g></svg>