<svg xmlns="http://www.w3.org/2000/svg" xmlns:osb="http://www.openswatchbook.org/uri/2009/osb" xmlns:svg="http://www.w3.org/2000/svg" xmlns:xlink="http://www.w3.org/1999/xlink" id="svg2816" width="64" height="64" version="1.1"><defs id="defs2818"><linearGradient id="linearGradient3845"><stop id="stop3847" offset="0" stop-color="#8ae234" stop-opacity="1"/><stop id="stop3849" offset="1" stop-color="#4e9a06" stop-opacity="1"/></linearGradient><linearGradient id="linearGradient3797"><stop id="stop3799" offset="0" stop-color="#729fcf" stop-opacity="1"/><stop id="stop3801" offset="1" stop-color="#204a87" stop-opacity="1"/></linearGradient><linearGradient id="linearGradient6899" osb:paint="solid"><stop id="stop6901" offset="0" stop-color="#074cff" stop-opacity="1"/></linearGradient><linearGradient id="linearGradient6887" osb:paint="solid"><stop id="stop6889" offset="0" stop-color="#074cff" stop-opacity="1"/></linearGradient><linearGradient id="linearGradient4668" osb:paint="gradient"><stop id="stop4670" offset="0" stop-color="#009b00" stop-opacity="1"/><stop id="stop4672" offset="1" stop-color="#009b00" stop-opacity="0"/></linearGradient><linearGradient id="linearGradient4662" osb:paint="solid"><stop id="stop4664" offset="0" stop-color="green" stop-opacity="1"/></linearGradient><linearGradient id="linearGradient4529" osb:paint="solid"><stop id="stop4531" offset="0" stop-color="#0047ff" stop-opacity="1"/></linearGradient><linearGradient id="linearGradient4513"><stop id="stop4515" offset="0" stop-color="#fff" stop-opacity="1"/><stop id="stop4517" offset="1" stop-color="#999" stop-opacity="1"/></linearGradient><radialGradient id="radialGradient3132" cx="32.152" cy="27.951" r="23.635" fx="32.152" fy="27.951" gradientTransform="matrix(0.39497909,0,0,1.1841158,-76.294432,-34.372515)" gradientUnits="userSpaceOnUse" xlink:href="#linearGradient4513"/><radialGradient id="radialGradient3805" cx="16.463" cy="23.896" r="18.501" fx="16.463" fy="23.896" gradientTransform="matrix(0.80480754,0.96646344,-1.462112,1.0621481,39.041445,-19.519745)" gradientUnits="userSpaceOnUse" xlink:href="#linearGradient3797"/><linearGradient id="linearGradient3851" x1="20.881" x2="43.661" y1="21.481" y2="44.871" gradientUnits="userSpaceOnUse" xlink:href="#linearGradient3845"/><linearGradient id="linearGradient4055" x1="30" x2="36" y1="10" y2="54.227" gradientTransform="translate(71.494719,-3.1982556)" gradientUnits="userSpaceOnUse" xlink:href="#linearGradient4031"/><linearGradient id="linearGradient4031"><stop id="stop4033" offset="0" stop-color="#d3d7cf" stop-opacity="1"/><stop id="stop4035" offset="1" stop-color="#888a85" stop-opacity="1"/></linearGradient></defs><metadata id="metadata2821"/><g id="layer1" display="inline" opacity="1"><ellipse id="path4493" cx="26.369" cy="31.13" fill="url(#radialGradient3805)" fill-opacity="1" stroke="#0b1521" stroke-dasharray="none" stroke-linecap="round" stroke-miterlimit="4" stroke-opacity="1" stroke-width="1.936" display="inline" opacity=".97" rx="17.533" ry="16.376" transform="matrix(0.99813167,0,0,1.0686584,2.6798973,-2.2672712)"/><ellipse id="path4493-1" cx="26.369" cy="31.13" fill="none" stroke="#729fcf" stroke-dasharray="none" stroke-linecap="round" stroke-miterlimit="4" stroke-opacity="1" stroke-width="2.186" display="inline" opacity=".97" rx="17.533" ry="16.376" transform="matrix(0.88405948,0,0,0.94652598,5.6879088,1.5347026)"/><path id="path3807" fill="none" stroke="#172a04" stroke-linecap="round" stroke-linejoin="round" stroke-opacity="1" stroke-width="8" d="m 6,56 16,-5 c 0,0 0,-15 10,-17 10,-2 12,9 12,9 L 58,38 53,28 49,30 C 49,30 46,18 30,20 14,22 13,42 13,42 l -7,2"/><path id="path3807-7" fill="none" stroke="url(#linearGradient3851)" stroke-linecap="round" stroke-linejoin="round" stroke-opacity="1" stroke-width="4" d="m 6,56 16,-5 c 0,0 0,-15 10,-17 10,-2 12,9 12,9 L 58,38 53,28 49,30 C 49,30 46,18 30,20 14,22 13,42 13,42 l -7,2" display="inline"/><path id="path3807-7-4" fill="none" stroke="#8ae234" stroke-linecap="round" stroke-linejoin="round" stroke-opacity="1" stroke-width="2" d="m 6,55 15,-5 c 0,0 0.525424,-15 11,-17 10.474576,-2 12.610169,8.79661 12.610169,8.79661 l 12.067797,-4.322034 -3.239904,-6.403184 m -0.603234,-4.054151 -3.314222,1.503365 C 49.520606,28.520606 46,17 30,19 14,21 12,41 12,41 l -6,2" display="inline"/><g id="g4051" transform="matrix(0.66585367,0,0,0.65271967,-25.912339,-1.4521846)"><path id="rect4417-3" fill="url(#linearGradient4055)" fill-opacity="1" fill-rule="nonzero" stroke="#2e3436" stroke-dasharray="none" stroke-dashoffset="0" stroke-linecap="butt" stroke-linejoin="round" stroke-miterlimit="4" stroke-opacity="1" stroke-width="3.034" d="m 94.494721,6.8017444 -0.01099,27.5961536 18.021979,-7.660256 -0.011,-19.9358976 z M 112.49472,29.801744 94.483731,37.462 l 0.01099,8.339744 17.999999,-8 z m 0.011,10.724359 -16.520148,7.660256 7.509158,4.615385 9,-5 z" color="#000" display="inline" enable-background="accumulate" overflow="visible" visibility="visible" style="marker:none"/><path stroke-opacity="1" style="marker:none" id="rect4417-1" fill="none" stroke="#d3d7cf" stroke-dasharray="none" stroke-dashoffset="0" stroke-linecap="butt" stroke-linejoin="miter" stroke-miterlimit="4" stroke-width="3.034" d="m 97.487394,9.8850776 0,19.8687894 11.991186,-5.098858 0.0235,-14.7699314 z m 12.014656,24.5647544 -11.989201,5.01406 0,1.711385 11.963741,-5.40113 z m 0.0452,10.829611 -7.19513,3.327881 1.20492,0.808046 5.9895,-3.408611 z" color="#000" display="inline" enable-background="accumulate" overflow="visible" visibility="visible"/></g></g></svg>