<svg xmlns="http://www.w3.org/2000/svg" xmlns:svg="http://www.w3.org/2000/svg" xmlns:xlink="http://www.w3.org/1999/xlink" id="svg2816" width="64" height="64" version="1.1"><defs id="defs2818"><linearGradient id="linearGradient4066"><stop id="stop4068" offset="0" stop-color="#4e9a06" stop-opacity="1"/><stop id="stop4070" offset="1" stop-color="#8ae234" stop-opacity="1"/></linearGradient><linearGradient id="linearGradient4022"><stop id="stop4024" offset="0" stop-color="#204a87" stop-opacity="1"/><stop id="stop4026" offset="1" stop-color="#729fcf" stop-opacity="1"/></linearGradient><linearGradient id="linearGradient4513"><stop id="stop4515" offset="0" stop-color="#fff" stop-opacity="1"/><stop id="stop4517" offset="1" stop-color="#999" stop-opacity="1"/></linearGradient><linearGradient id="linearGradient3681"><stop id="stop3697" offset="0" stop-color="#fff110" stop-opacity="1"/><stop id="stop3685" offset="1" stop-color="#cf7008" stop-opacity="1"/></linearGradient><pattern id="pattern5231" patternTransform="matrix(0.67643728,-0.81829155,2.4578314,1.8844554,-26.450606,18.294947)" xlink:href="#Strips1_1-4"/><pattern id="Strips1_1-4" width="2" height="1" patternTransform="matrix(0.66772843,-1.0037085,2.4261878,2.3114548,3.4760987,3.534923)" patternUnits="userSpaceOnUse"><rect id="rect4483-4" width="1" height="2" x="0" y="-.5" fill="#000" stroke="none"/></pattern><pattern id="pattern5231-4" patternTransform="matrix(0.66772843,-1.0037085,2.4261878,2.3114548,39.618381,8.9692804)" xlink:href="#Strips1_1-6"/><pattern id="Strips1_1-6" width="2" height="1" patternTransform="matrix(0.66772843,-1.0037085,2.4261878,2.3114548,3.4760987,3.534923)" patternUnits="userSpaceOnUse"><rect id="rect4483-0" width="1" height="2" x="0" y="-.5" fill="#000" stroke="none"/></pattern><pattern id="pattern5296" patternTransform="matrix(0.66513382,-1.0631299,2.4167603,2.4482973,-49.762569,2.9546807)" xlink:href="#pattern5231-3"/><pattern id="pattern5231-3" patternTransform="matrix(0.66772843,-1.0037085,2.4261878,2.3114548,-26.336284,10.887197)" xlink:href="#Strips1_1-4-3"/><pattern id="Strips1_1-4-3" width="2" height="1" patternTransform="matrix(0.66772843,-1.0037085,2.4261878,2.3114548,3.4760987,3.534923)" patternUnits="userSpaceOnUse"><rect id="rect4483-4-6" width="1" height="2" x="0" y="-.5" fill="#000" stroke="none"/></pattern><pattern id="pattern5330" patternTransform="matrix(0.42844886,-0.62155849,1.5567667,1.431396,27.948414,13.306456)" xlink:href="#Strips1_1-9"/><pattern id="Strips1_1-9" width="2" height="1" patternTransform="matrix(0.66772843,-1.0037085,2.4261878,2.3114548,3.4760987,3.534923)" patternUnits="userSpaceOnUse"><rect id="rect4483-3" width="1" height="2" x="0" y="-.5" fill="#000" stroke="none"/></pattern><linearGradient id="linearGradient3687" x1="37.898" x2="4.061" y1="41.088" y2="40.169" gradientTransform="translate(127.27273,-51.272729)" gradientUnits="userSpaceOnUse" xlink:href="#linearGradient3681"/><linearGradient id="linearGradient3695" x1="37.894" x2="59.811" y1="40.485" y2="43.559" gradientTransform="translate(127.27273,-51.272729)" gradientUnits="userSpaceOnUse" xlink:href="#linearGradient3681"/><linearGradient id="linearGradient3681-3"><stop id="stop3697-3" offset="0" stop-color="#fff110" stop-opacity="1"/><stop id="stop3685-4" offset="1" stop-color="#cf7008" stop-opacity="1"/></linearGradient><linearGradient id="linearGradient3608" x1="37.894" x2="59.811" y1="40.485" y2="43.559" gradientTransform="translate(-37.00068,-20.487365)" gradientUnits="userSpaceOnUse" xlink:href="#linearGradient3681-3"/><linearGradient id="linearGradient4513-2"><stop id="stop4515-2" offset="0" stop-color="#fff" stop-opacity="1"/><stop id="stop4517-4" offset="1" stop-color="#999" stop-opacity="1"/></linearGradient><radialGradient id="radialGradient4538" cx="32.152" cy="7.932" r="23.635" fx="32.152" fy="7.932" gradientTransform="matrix(1,0,0,1.1841158,-8.5173246,-3.4097568)" gradientUnits="userSpaceOnUse" xlink:href="#linearGradient4513-2"/><linearGradient id="linearGradient4513-1"><stop id="stop4515-8" offset="0" stop-color="#fff" stop-opacity="1"/><stop id="stop4517-6" offset="1" stop-color="#999" stop-opacity="1"/></linearGradient><radialGradient id="radialGradient4538-6" cx="32.152" cy="7.932" r="23.635" fx="32.152" fy="7.932" gradientTransform="matrix(1,0,0,1.1841158,-8.5173246,-3.4097568)" gradientUnits="userSpaceOnUse" xlink:href="#linearGradient4513-1"/><linearGradient id="linearGradient4513-1-3"><stop id="stop4515-8-7" offset="0" stop-color="#fff" stop-opacity="1"/><stop id="stop4517-6-5" offset="1" stop-color="#999" stop-opacity="1"/></linearGradient><radialGradient id="radialGradient3069" cx="32.152" cy="35.869" r="23.635" fx="32.152" fy="35.869" gradientTransform="matrix(0.39497909,0,0,1.1841158,-2.716491,-26.067007)" gradientUnits="userSpaceOnUse" xlink:href="#linearGradient4513-1-3"/><linearGradient id="linearGradient4513-1-2"><stop id="stop4515-8-6" offset="0" stop-color="#fff" stop-opacity="1"/><stop id="stop4517-6-6" offset="1" stop-color="#999" stop-opacity="1"/></linearGradient><radialGradient id="radialGradient3102" cx="32.152" cy="35.869" r="23.635" fx="32.152" fy="35.869" gradientTransform="matrix(0.39497909,0,0,1.1841158,-2.716491,-26.067007)" gradientUnits="userSpaceOnUse" xlink:href="#linearGradient4513-1-2"/><radialGradient id="radialGradient3132" cx="32.152" cy="27.951" r="23.635" fx="32.152" fy="27.951" gradientTransform="matrix(0.39497909,0,0,1.1841158,64.952609,-7.0541574)" gradientUnits="userSpaceOnUse" xlink:href="#linearGradient4513-1"/><linearGradient id="linearGradient4028" x1="36.538" x2="36.804" y1="45.928" y2="23.333" gradientUnits="userSpaceOnUse" xlink:href="#linearGradient4022"/><linearGradient id="linearGradient4072" x1="41.611" x2="32.101" y1="59.854" y2="10.999" gradientUnits="userSpaceOnUse" xlink:href="#linearGradient4066"/><linearGradient id="linearGradient4055" x1="30" x2="36" y1="14" y2="54.227" gradientTransform="translate(71.494719,-3.1982556)" gradientUnits="userSpaceOnUse" xlink:href="#linearGradient4031"/><linearGradient id="linearGradient4031"><stop id="stop4033" offset="0" stop-color="#d3d7cf" stop-opacity="1"/><stop id="stop4035" offset="1" stop-color="#888a85" stop-opacity="1"/></linearGradient></defs><metadata id="metadata2821"/><g id="layer1"><path id="rect3083" fill="url(#linearGradient4028)" fill-opacity="1" fill-rule="nonzero" stroke="#0b1521" stroke-dasharray="none" stroke-dashoffset="0" stroke-linecap="butt" stroke-linejoin="round" stroke-miterlimit="4" stroke-opacity="1" stroke-width="2" d="M 33,21 17,45 41,49 53,33 49,23 z" color="#000" display="inline" enable-background="accumulate" overflow="visible" visibility="visible" style="marker:none"/><path id="rect3083-0" fill="none" stroke="#172a04" stroke-dasharray="none" stroke-dashoffset="0" stroke-linecap="round" stroke-linejoin="miter" stroke-miterlimit="4" stroke-opacity="1" stroke-width="8" d="M 50,13 39,11 c -4,-1 -5.171573,-1.4142136 -8,0 -2,1 -3,2 -5,5 L 7,46 c -3,4 -1,7 3,8 l 28,4 c 5,1 9,-2 12,-6 l 4,-5" color="#000" display="inline" enable-background="accumulate" overflow="visible" visibility="visible" style="marker:none"/><path id="rect3083-3" fill="none" stroke="#729fcf" stroke-dasharray="none" stroke-dashoffset="0" stroke-linecap="butt" stroke-linejoin="miter" stroke-miterlimit="4" stroke-opacity="1" stroke-width="2" d="M 33.965909,23.113636 20.349931,43.571429 40.140486,46.839294 50.710729,32.691101 47.57301,24.842851 z" color="#000" display="inline" enable-background="accumulate" overflow="visible" visibility="visible" style="marker:none"/><path id="rect3083-0-6" fill="none" stroke="url(#linearGradient4072)" stroke-dasharray="none" stroke-dashoffset="0" stroke-linecap="round" stroke-linejoin="miter" stroke-miterlimit="4" stroke-opacity="1" stroke-width="4" d="M 50,13 39,11 c -4,-1 -5.171573,-1.414214 -8,0 -2,1 -3,2 -5,5 L 7,46 c -3,4 -1,7 3,8 l 28,4 c 5,1 9,-2 12,-6 l 4,-5" color="#000" display="inline" enable-background="accumulate" overflow="visible" visibility="visible" style="marker:none"/><path id="rect3083-0-6-7" fill="none" stroke="#8ae234" stroke-dasharray="none" stroke-dashoffset="0" stroke-linecap="round" stroke-linejoin="miter" stroke-miterlimit="4" stroke-opacity="1" stroke-width="2" d="M 50.064283,12 38.517882,9.919647 c -4,-1.0000001 -5.171573,-1.4142141 -8,0 -2,1 -3,2 -5,5 l -19.0000003,30 c -2.9999999,4 -1,7 2.9999998,8 l 28.0000005,4 c 5,1 9,-2 12,-6 L 53,46" color="#000" display="inline" enable-background="accumulate" overflow="visible" visibility="visible" style="marker:none"/><path id="path3599" d="m 26.202906,1.6813301 c -9.673905,0 -20.9601314,6.2397496 -25.79708379,18.7192689 C 5.2427746,29.76025 14.916679,36 26.202906,36 37.489143,36 47.163048,29.76025 52,20.400599 47.163048,7.9210797 35.876821,1.6813301 26.202906,1.6813301 Z m 0,31.1987859 c -9.673905,0 -17.7354897,-6.23975 -19.3478099,-12.479517 C 8.4674163,14.160848 16.529001,7.9210797 26.202906,7.9210797 c 9.673915,0 17.7355,6.2397683 19.34782,12.4795193 -1.61232,6.239767 -9.673905,12.479517 -19.34782,12.479517 z m 0,-21.839152 c -1.007692,0 -1.914621,0.194993 -2.821549,0.438734 1.662698,0.731222 2.821549,2.339912 2.821549,4.241091 0,2.583655 -2.166544,4.67981 -4.836953,4.67981 -1.965006,0 -3.627715,-1.121208 -4.383483,-2.729881 -0.251923,0.877467 -0.453469,1.754917 -0.453469,2.729881 0,5.167306 4.333107,9.359651 9.673905,9.359651 5.340808,0 9.673915,-4.192345 9.673915,-9.359651 0,-5.167292 -4.333107,-9.359635 -9.673915,-9.359635 z"/><path id="path3630" fill="#fff" stroke="#ed1521" stroke-opacity="1" stroke-width=".18" d="M 24.513492,32.743549 C 20.158618,32.279756 16.320657,30.874437 13.101873,28.565038 10.565128,26.744986 8.0555748,23.645238 7.240207,21.324834 6.9310922,20.445146 6.9319596,20.410993 7.289147,19.39655 c 1.39318,-3.956736 5.894877,-8.025327 10.97742,-9.9212893 2.388118,-0.8908503 4.189049,-1.243432 6.954324,-1.3615029 3.700832,-0.1580165 6.748099,0.3948804 10.068295,1.8267941 4.509958,1.9450261 8.541022,5.8276231 9.860413,9.4972421 l 0.343034,0.954079 -0.406823,1.087884 c -1.903008,5.08883 -8.045412,9.656313 -14.648854,10.892867 -1.533211,0.287106 -4.793511,0.491266 -5.923465,0.370925 z m 3.944714,-3.168696 c 3.268532,-0.752696 6.040924,-3.250309 7.009108,-6.314414 0.74188,-2.347903 0.609807,-4.448295 -0.422862,-6.724951 -1.727573,-3.808655 -5.799065,-6.000195 -10.098702,-5.435771 -0.713226,0.09362 -1.36028,0.238742 -1.437897,0.322477 -0.07761,0.08374 0.205724,0.373163 0.629646,0.643172 2.40184,1.529797 2.621108,4.930323 0.448249,6.951712 -2.087088,1.941597 -5.735326,1.528636 -7.161292,-0.810623 -0.190194,-0.312008 -0.397714,-0.56753 -0.461157,-0.567826 -0.184558,-8.66e-4 -0.490195,1.808374 -0.485585,2.874447 0.0097,2.22833 0.762415,4.123494 2.376571,5.983168 2.345137,2.701835 6.063739,3.893862 9.603921,3.078609 z" opacity=".848"/></g></svg>