<svg xmlns="http://www.w3.org/2000/svg" xmlns:svg="http://www.w3.org/2000/svg" xmlns:xlink="http://www.w3.org/1999/xlink" id="svg2985" width="64" height="64" version="1.1"><defs id="defs2987"><linearGradient id="linearGradient3007"><stop id="stop3009" offset="0" stop-color="#a40000" stop-opacity="1"/><stop id="stop3011" offset="1" stop-color="#ef2929" stop-opacity="0"/></linearGradient><linearGradient id="linearGradient3013" x1="117.287" x2="103.231" y1="85.444" y2="40.385" gradientUnits="userSpaceOnUse" xlink:href="#linearGradient3007"/></defs><metadata id="metadata2990"/><g id="layer1"><path id="path3003" fill="#ef2929" fill-opacity=".86" fill-rule="nonzero" stroke="#280000" stroke-dasharray="none" stroke-miterlimit="4" stroke-width="1.987" d="m 77.09091,22.272728 a 29.545454,28.09091 0 1 1 -59.090908,0 29.545454,28.09091 0 1 1 59.090908,0 z" transform="matrix(0.98153848,0,0,1.0323624,-14.667694,9.0064723)"/><path id="path3005" fill="url(#linearGradient3013)" fill-opacity="1" fill-rule="nonzero" stroke-dasharray="none" stroke-miterlimit="4" stroke-width=".87" d="m 135.09091,62.454544 a 24.363636,23.90909 0 1 1 -48.727274,0 24.363636,23.90909 0 1 1 48.727274,0 z" transform="matrix(1.0671642,0,0,1.0874525,-86.164179,-35.916347)"/><g id="text2999" fill="#eeeeec" fill-opacity="1" stroke="none" font-family="Sans" font-size="40" font-stretch="normal" font-style="normal" font-variant="normal" font-weight="bold" letter-spacing="0" text-anchor="start" word-spacing="0" writing-mode="lr-tb" style="text-align:start;line-height:125%;-inkscape-font-specification:Sans Bold"><path id="path2993" d="m 26,10 12,0 0,16.119223 -1.7,11.758875 -8.600002,0 L 26,26.119223 26,10 m 0,31.985264 12,0 L 38,52 26,52 26,41.985264"/></g></g></svg>