<svg xmlns="http://www.w3.org/2000/svg" xmlns:svg="http://www.w3.org/2000/svg" xmlns:xlink="http://www.w3.org/1999/xlink" id="svg2816" width="64" height="64" version="1.1"><defs id="defs2818"><linearGradient id="linearGradient3888"><stop id="stop3890" offset="0" stop-color="#73d216" stop-opacity="1"/><stop id="stop3892" offset="1" stop-color="#8ae234" stop-opacity="1"/></linearGradient><linearGradient id="linearGradient3794"><stop id="stop3796" offset="0" stop-color="#4e9a06" stop-opacity="1"/><stop id="stop3798" offset="1" stop-color="#73d216" stop-opacity="1"/></linearGradient><linearGradient id="linearGradient3782"><stop id="stop3784" offset="0" stop-color="#204a87" stop-opacity="1"/><stop id="stop3786" offset="1" stop-color="#3465a4" stop-opacity="1"/></linearGradient><linearGradient id="linearGradient3772"><stop id="stop3774" offset="0" stop-color="#204a87" stop-opacity="1"/><stop id="stop3776" offset="1" stop-color="#3465a4" stop-opacity="1"/></linearGradient><linearGradient id="linearGradient3762"><stop id="stop3764" offset="0" stop-color="#3465a4" stop-opacity="1"/><stop id="stop3766" offset="1" stop-color="#729fcf" stop-opacity="1"/></linearGradient><linearGradient id="linearGradient3768" x1="20.542" x2="16.271" y1="59.068" y2="32.627" gradientTransform="translate(2.0000001,-3.9999995)" gradientUnits="userSpaceOnUse" xlink:href="#linearGradient3762"/><linearGradient id="linearGradient3778" x1="22.19" x2="19.919" y1="32.75" y2="22.827" gradientTransform="translate(2.0000001,-3.9999995)" gradientUnits="userSpaceOnUse" xlink:href="#linearGradient3772"/><linearGradient id="linearGradient3788" x1="52.622" x2="48.399" y1="44.595" y2="31.844" gradientTransform="translate(2.0000001,-3.9999995)" gradientUnits="userSpaceOnUse" xlink:href="#linearGradient3782"/><linearGradient id="linearGradient3800" x1="32.066" x2="30.51" y1="49.814" y2="26.323" gradientTransform="translate(2.0000001,-3.9999995)" gradientUnits="userSpaceOnUse" xlink:href="#linearGradient3794"/><linearGradient id="linearGradient3800-1" x1="32.066" x2="30.51" y1="49.814" y2="26.323" gradientUnits="userSpaceOnUse" xlink:href="#linearGradient3794-7"/><linearGradient id="linearGradient3794-7"><stop id="stop3796-4" offset="0" stop-color="#4e9a06" stop-opacity="1"/><stop id="stop3798-0" offset="1" stop-color="#73d216" stop-opacity="1"/></linearGradient><linearGradient id="linearGradient3843" x1="29" x2="28" y1="41" y2="27" gradientTransform="translate(25.949153,-44.872881)" gradientUnits="userSpaceOnUse" xlink:href="#linearGradient3888"/><linearGradient id="linearGradient3800-8" x1="32.066" x2="30.51" y1="49.814" y2="26.323" gradientUnits="userSpaceOnUse" xlink:href="#linearGradient3794-8"/><linearGradient id="linearGradient3794-8"><stop id="stop3796-2" offset="0" stop-color="#4e9a06" stop-opacity="1"/><stop id="stop3798-4" offset="1" stop-color="#73d216" stop-opacity="1"/></linearGradient></defs><metadata id="metadata2821"/><path id="path3790" fill="url(#linearGradient3800)" fill-opacity="1" stroke="#172a04" stroke-linecap="butt" stroke-linejoin="round" stroke-opacity="1" stroke-width="2" d="M 11,43 33,49 55,25 33,20 z"/><path id="path3792" fill="none" stroke="#73d216" stroke-linecap="butt" stroke-linejoin="miter" stroke-opacity="1" stroke-width="2" d="M 33.676409,22.215727 14.546985,41.887172 32.347561,46.748318 51.20339,26.169492 z"/><path id="path11207" fill="url(#linearGradient3778)" fill-opacity="1" fill-rule="evenodd" stroke="#0b1521" stroke-linecap="butt" stroke-linejoin="round" stroke-opacity="1" stroke-width="2" d="M 11,42.679189 33,20 33,7.0000005 11,29 z"/><path id="path3770" fill="none" stroke="#3465a4" stroke-linecap="butt" stroke-linejoin="miter" stroke-opacity="1" stroke-width="2" d="M 12.954868,29.838733 32,10.331257 31.48882,19.404016 12.964795,37.821736 z"/><g id="g3839" transform="translate(-15.949153,26.872881)"><path id="path3790-9" fill="url(#linearGradient3843)" fill-opacity="1" stroke="#172a04" stroke-linecap="butt" stroke-linejoin="round" stroke-opacity="1" stroke-width="2" d="m 34.949153,2.1271186 22,6 12.268293,-17.8637506 -17.877208,-5.575274 z"/><path id="path3792-4" fill="none" stroke="#8ae234" stroke-linecap="butt" stroke-linejoin="miter" stroke-opacity="1" stroke-width="2" d="M 51.968708,-12.95236 38.711865,1.1101696 56.296714,5.8754366 68.201324,-7.8959881 z"/></g><path id="path11199" fill="url(#linearGradient3788)" fill-opacity="1" fill-rule="evenodd" stroke="#0b1521" stroke-linecap="butt" stroke-linejoin="round" stroke-opacity="1" stroke-width="2" d="M 41,37 61,15 61,35 41,59 z"/><path id="path11203" fill="url(#linearGradient3768)" fill-opacity="1" fill-rule="evenodd" stroke="#0b1521" stroke-linecap="butt" stroke-linejoin="round" stroke-opacity="1" stroke-width="2" d="m 33,35 8,2 0,22 -37.9999999,-10 0,-22 L 11,29 l 0,14 22,6 z"/><path id="path2992" fill="none" stroke="#729fcf" stroke-linecap="butt" stroke-linejoin="miter" stroke-opacity="1" stroke-width="2" d="m 5.0000001,29.576271 0,17.864407 L 39,56.372881 39,38.559322 35,37.567797 35.01695,51.59322 9.0000011,44.542373 l 0,-13.966102 z"/><path id="path3780" fill="none" stroke="#3465a4" stroke-linecap="butt" stroke-linejoin="miter" stroke-opacity="1" stroke-width="2" d="M 42.98305,37.847457 59.027584,20.197866 58.999986,34.220339 42.966088,53.593221 z"/><path id="path11205" fill="#729fcf" fill-opacity="1" fill-rule="evenodd" stroke="#0b1521" stroke-linecap="butt" stroke-linejoin="round" stroke-opacity="1" stroke-width="2" d="M 3.0000001,27 11,29 25.762712,14.237288 33,7.0000005 l -8,-2 z"/><path id="path11201" fill="#729fcf" fill-opacity="1" fill-rule="evenodd" stroke="#0b1521" stroke-linecap="butt" stroke-linejoin="round" stroke-opacity="1" stroke-width="2" d="m 41,37 -8,-2 21,-22 7,2 z"/><path id="path3790-5" fill="#8ae234" fill-opacity="1" stroke="#172a04" stroke-linecap="butt" stroke-linejoin="round" stroke-opacity="1" stroke-width="2" d="M 23.542371,16.559322 45.067795,22.254237 54,13 33,7.0000005 z"/></svg>