<svg xmlns="http://www.w3.org/2000/svg" xmlns:freecad="http://www.freecadweb.org/wiki/index.php?title=Svg_Namespace" width="841mm" height="594mm" version="1.1" viewBox="0 0 841 594"><g id="orientation-border" fill="none" stroke="#000" stroke-linecap="miter" stroke-miterlimit="4" stroke-width=".2"><rect width="811" height="574" x="20" y="10"/><path d="m 83,10 v 4"/><path d="m 140,10 v 4"/><path d="m 197,10 v 4"/><path d="m 254,10 v 4"/><path d="m 311,10 v 4"/><path d="m 368,10 v 4"/><path d="m 425,10 v 4"/><path d="m 482,10 v 4"/><path d="m 539,10 v 4"/><path d="m 596,10 v 4"/><path d="m 653,10 v 4"/><path d="m 710,10 v 4"/><path d="m 767,10 v 4"/><path d="m 20,69 h 4"/><path d="m 20,126 h 4"/><path d="m 20,183 h 4"/><path d="m 20,240 h 4"/><path d="m 20,297 h 4"/><path d="m 20,354 h 4"/><path d="m 20,411 h 4"/><path d="m 20,468 h 4"/><path d="m 20,525 h 4"/><path d="m 827,69 h 4"/><path d="m 827,126 h 4"/><path d="m 827,183 h 4"/><path d="m 827,240 h 4"/><path d="m 827,297 h 4"/><path d="m 827,354 h 4"/><path d="m 827,411 h 4"/><path d="m 827,468 h 4"/><path d="m 827,525 h 4"/><path d="m 83,580 v 4"/><path d="m 140,580 v 4"/><path d="m 197,580 v 4"/><path d="m 254,580 v 4"/><path d="m 311,580 v 4"/><path d="m 368,580 v 4"/><path d="m 425,580 v 4"/><path d="m 482,580 v 4"/><path d="m 539,580 v 4"/><path d="m 596,580 v 4"/><path d="m 653,580 v 4"/><path d="m 710,580 v 4"/><path d="m 767,580 v 4"/></g><g id="orientation-text" fill="#000" font-family="tahoma" font-size="3" text-anchor="start" xml:space="preserve"><text x="54" y="13">1</text><text x="111" y="13">2</text><text x="168" y="13">3</text><text x="225" y="13">4</text><text x="282" y="13">5</text><text x="339" y="13">6</text><text x="396" y="13">7</text><text x="453" y="13">8</text><text x="510" y="13">9</text><text x="566" y="13">10</text><text x="623" y="13">11</text><text x="680" y="13">12</text><text x="737" y="13">13</text><text x="794" y="13">14</text><text x="21" y="42">A</text><text x="21" y="99">B</text><text x="21" y="156">C</text><text x="21" y="213">D</text><text x="21" y="270">E</text><text x="21" y="327">F</text><text x="21" y="384">G</text><text x="21" y="441">H</text><text x="21" y="498">I</text><text x="21" y="555">K</text><text x="828" y="42">A</text><text x="828" y="99">B</text><text x="828" y="156">C</text><text x="828" y="213">D</text><text x="828" y="270">E</text><text x="828" y="327">F</text><text x="828" y="384">G</text><text x="828" y="441">H</text><text x="828" y="498">I</text><text x="828" y="555">K</text><text x="54" y="583">1</text><text x="111" y="583">2</text><text x="168" y="583">3</text><text x="225" y="583">4</text><text x="282" y="583">5</text><text x="339" y="583">6</text><text x="396" y="583">7</text><text x="453" y="583">8</text><text x="510" y="583">9</text><text x="566" y="583">10</text><text x="623" y="583">11</text><text x="680" y="583">12</text><text x="737" y="583">13</text><text x="794" y="583">14</text></g><g id="drawing-border" fill="none" stroke="#000" stroke-linecap="miter" stroke-miterlimit="4" stroke-width=".35"><rect width="803" height="566" x="24" y="14"/></g><g id="titleblock-structure" fill="none" stroke="#000" stroke-linecap="miter" stroke-miterlimit="4" stroke-width=".35"><rect width="140" height="34" x="687" y="546"/><path d="m 687,554 h 140"/><path d="m 687,572 h 87"/><path d="m 687,576 h 140"/><path d="m 732,546 v 8"/><path d="m 774,546 v 30"/><path d="m 804,546 v 8"/><path d="m 774,562 h 53"/><path d="m 774,568 h 53"/><path d="m 804,568 v 8"/></g><g id="titleblock-text-non-editable" fill="#000" font-family="tahoma" font-size="3" text-anchor="start" xml:space="preserve"><text x="688" y="549">Author:</text><text x="688" y="553">Appr.:</text><text x="733" y="549">Legal owner:</text><text x="688" y="558">TITLE:</text><text x="688" y="575">Document type:</text><text x="805" y="549">Sheet:</text><text x="805" y="553">Size:</text><text x="775" y="549">Scale:</text><text x="775" y="553">Toler.:</text><text x="775" y="557">Part material:</text><text x="775" y="561">Part number:</text><text x="775" y="566">Drawing no.:</text><text x="775" y="571">Date:</text><text x="805" y="571">Revision:</text></g><g id="titleblock-text-editable" fill="#000" font-family="tahoma" font-size="3" text-anchor="start" xml:space="preserve"><text x="699" y="549" freecad:editable="AUTHOR_NAME"><tspan>AUTHOR NAME</tspan></text><text x="699" y="553" freecad:editable="APPROVER_NAME"><tspan>APPROVER NAME</tspan></text><text x="734" y="553" freecad:editable="OWNER_NAME"><tspan>OWNER NAME</tspan></text><text x="689" y="562" freecad:editable="TITLELINE-1"><tspan>FreeCAD</tspan></text><text x="711" y="575" freecad:editable="DOCUMENT_TYPE">Mechanical assembly drawing</text><text x="814" y="549" freecad:editable="SHEET"><tspan>99 of 99</tspan></text><text x="784" y="549" freecad:editable="SCALE"><tspan>M x:x</tspan></text><text x="784" y="553" freecad:editable="TOLERANCE"><tspan>+/- ?</tspan></text><text x="794" y="557" freecad:editable="PM"><tspan>PM</tspan></text><text x="794" y="561" freecad:editable="PN"><tspan>PN</tspan></text><text x="794" y="566" freecad:editable="DN"><tspan>DN</tspan></text><text x="776" y="575" freecad:editable="DATE"><tspan>YYYY-MM-DD</tspan></text><text x="806" y="575" freecad:editable="REVISION"><tspan>REV A</tspan></text><text x="814" y="553" freecad:editable="SIZE"><tspan>A1</tspan></text><text x="688" y="579" freecad:editable="RIGHTS"><tspan>(R) DO NOT DUPLICATE THIS DRAWING TO THIRD PARTIES WITHOUT OWNER&apos;S PERMISSION !</tspan></text></g><g id="freecad-logo" fill="none" fill-rule="evenodd" stroke="#000" stroke-width=".35" display="inline"><path d="m0.1524 0.15254v8.8549h1.9744v-3.4652h1.396v-1.3661h-1.396v-1.4745h3.4391v-2.5441l-5.4135-0.005z" transform="translate(675,569)"/><path d="m7.7927 3.4504-0.50715-0.176-0.48387-1.2366-0.76115 0.04-0.34718 1.2787-0.4859 0.23269-1.2119-0.53015-0.51188 0.56882 0.65892 1.1485-0.18006 0.50567-1.2366 0.48387 0.044064 0.76263 1.2787 0.34718 0.23269 0.4859-0.53421 1.2104 0.56882 0.51188 1.1485-0.65891 0.50973 0.18155 0.4798 1.2351 0.7667-0.04258 0.34311-1.2802 0.4859-0.23269 1.2145 0.5357 0.51188-0.56882-0.65891-1.1485 0.17748-0.51122 1.2351-0.4798-0.03851-0.76521-1.2802-0.34311-0.23269-0.4859 0.53163-1.216-0.56881-0.51184zm-0.5715 1.2244 0.23576 0.13679 0.20426 0.18519 0.16353 0.22101 0.11763 0.24572 0.06916 0.26489 0.01146 0.27146-0.03921 0.27139-0.08948 0.25764-0.14234 0.23834-0.17964 0.20167-0.22101 0.16353-0.24572 0.11763-0.26489 0.06916-0.27295 0.01553-0.2719-0.04-0.2576-0.089-0.2383-0.143-0.2002-0.183-0.165-0.217-0.1177-0.246-0.0676-0.269-0.0156-0.273 0.039206-0.2714 0.089484-0.25764 0.14085-0.23427 0.18113-0.20574 0.22101-0.16352 0.24572-0.11763 0.26895-0.06768 0.27147-0.01146 0.27139 0.03921 0.25764 0.08948z" transform="translate(675,569)"/></g></svg>