<svg xmlns="http://www.w3.org/2000/svg" xmlns:freecad="http://www.freecadweb.org/wiki/index.php?title=Svg_Namespace" width="420mm" height="297mm" version="1.1" viewBox="0 0 420 297"><g id="orienation-border" fill="none" stroke="#000" stroke-linecap="miter" stroke-miterlimit="4" stroke-width=".2"><rect width="395" height="283" x="18" y="7"/><path d="m 76,7 v 4"/><path d="m 132,7 v 4"/><path d="m 188,7 v 4"/><path d="m 244,7 v 4"/><path d="m 300,7 v 4"/><path d="m 356,7 v 4"/><path d="m 18,64 h 4"/><path d="m 18,120 h 4"/><path d="m 18,176 h 4"/><path d="m 18,232 h 4"/><path d="m 409,64 h 4"/><path d="m 409,120 h 4"/><path d="m 409,176 h 4"/><path d="m 409,232 h 4"/><path d="m 76,286 v 4"/><path d="m 132,286 v 4"/><path d="m 188,286 v 4"/><path d="m 244,286 v 4"/><path d="m 300,286 v 4"/><path d="m 356,286 v 4"/></g><g id="orientation-text" fill="#000" font-family="tahoma" font-size="3" text-anchor="start" xml:space="preserve"><text x="46" y="10">1</text><text x="103" y="10">2</text><text x="159" y="10">3</text><text x="215" y="10">4</text><text x="271" y="10">5</text><text x="327" y="10">6</text><text x="383" y="10">7</text><text x="19" y="36">A</text><text x="19" y="93">B</text><text x="19" y="149">C</text><text x="19" y="205">D</text><text x="19" y="261">E</text><text x="410" y="36">A</text><text x="410" y="93">B</text><text x="410" y="149">C</text><text x="410" y="205">D</text><text x="410" y="261">E</text><text x="46" y="289">1</text><text x="103" y="289">2</text><text x="159" y="289">3</text><text x="215" y="289">4</text><text x="271" y="289">5</text><text x="327" y="289">6</text><text x="383" y="289">7</text></g><g id="drawing-border" fill="none" stroke="#000" stroke-linecap="miter" stroke-miterlimit="4" stroke-width=".35"><rect width="387" height="275" x="22" y="11"/></g><g id="titleblock-structure" fill="none" stroke="#000" stroke-linecap="miter" stroke-miterlimit="4" stroke-width=".35"><rect width="140" height="34" x="269" y="252"/><path d="m 269,260 h 140"/><path d="m 269,278 h 87"/><path d="m 269,282 h 140"/><path d="m 314,252 v 8"/><path d="m 356,252 v 30"/><path d="m 386,252 v 8"/><path d="m 356,268 h 53"/><path d="m 356,274 h 53"/><path d="m 386,274 v 8"/></g><g id="titleblock-text-non-editable" fill="#000" font-family="tahoma" font-size="3" text-anchor="start" xml:space="preserve"><text x="270" y="255">Author:</text><text x="270" y="259">Appr.:</text><text x="315" y="255">Legal owner:</text><text x="270" y="264">TITLE:</text><text x="270" y="281">Document type:</text><text x="387" y="255">Sheet:</text><text x="387" y="259">Size:</text><text x="357" y="255">Scale:</text><text x="357" y="259">Toler.:</text><text x="357" y="263">Part material:</text><text x="357" y="267">Part number:</text><text x="357" y="272">Drawing no.:</text><text x="357" y="277">Date:</text><text x="387" y="277">Revision:</text></g><g id="titleblock-text-editable" fill="#000" font-family="tahoma" font-size="3" text-anchor="start" xml:space="preserve"><text x="281" y="255" freecad:editable="AUTHOR_NAME"><tspan>AUTHOR NAME</tspan></text><text x="281" y="259" freecad:editable="APPROVER_NAME"><tspan>APPROVER NAME</tspan></text><text x="316" y="259" freecad:editable="OWNER_NAME"><tspan>OWNER NAME</tspan></text><text x="271" y="268" freecad:editable="TITLELINE-1"><tspan>FreeCAD</tspan></text><text x="293" y="281" freecad:editable="DOCUMENT_TYPE">Mechanical assembly drawing</text><text x="396" y="255" freecad:editable="SHEET"><tspan>99 of 99</tspan></text><text x="366" y="255" freecad:editable="SCALE"><tspan>M x:x</tspan></text><text x="366" y="259" freecad:editable="TOLERANCE"><tspan>+/- ?</tspan></text><text x="376" y="263" freecad:editable="PM"><tspan>PM</tspan></text><text x="376" y="267" freecad:editable="PN"><tspan>PN</tspan></text><text x="376" y="272" freecad:editable="DN"><tspan>DN</tspan></text><text x="358" y="281" freecad:editable="DATE"><tspan>YYYY-MM-DD</tspan></text><text x="388" y="281" freecad:editable="REVISION"><tspan>REV A</tspan></text><text x="396" y="259" freecad:editable="SIZE"><tspan>A3</tspan></text><text x="270" y="285" freecad:editable="RIGHTS"><tspan>(R) DO NOT DUPLICATE THIS DRAWING TO THIRD PARTIES WITHOUT OWNER&apos;S PERMISSION !</tspan></text></g><g id="freecad-logo" fill="none" fill-rule="evenodd" stroke="#000" stroke-width=".35" display="inline"><path d="m0.1524 0.15254v8.8549h1.9744v-3.4652h1.396v-1.3661h-1.396v-1.4745h3.4391v-2.5441l-5.4135-0.005z" transform="translate(257,275)"/><path d="m7.7927 3.4504-0.50715-0.176-0.48387-1.2366-0.76115 0.04-0.34718 1.2787-0.4859 0.23269-1.2119-0.53015-0.51188 0.56882 0.65892 1.1485-0.18006 0.50567-1.2366 0.48387 0.044064 0.76263 1.2787 0.34718 0.23269 0.4859-0.53421 1.2104 0.56882 0.51188 1.1485-0.65891 0.50973 0.18155 0.4798 1.2351 0.7667-0.04258 0.34311-1.2802 0.4859-0.23269 1.2145 0.5357 0.51188-0.56882-0.65891-1.1485 0.17748-0.51122 1.2351-0.4798-0.03851-0.76521-1.2802-0.34311-0.23269-0.4859 0.53163-1.216-0.56881-0.51184zm-0.5715 1.2244 0.23576 0.13679 0.20426 0.18519 0.16353 0.22101 0.11763 0.24572 0.06916 0.26489 0.01146 0.27146-0.03921 0.27139-0.08948 0.25764-0.14234 0.23834-0.17964 0.20167-0.22101 0.16353-0.24572 0.11763-0.26489 0.06916-0.27295 0.01553-0.2719-0.04-0.2576-0.089-0.2383-0.143-0.2002-0.183-0.165-0.217-0.1177-0.246-0.0676-0.269-0.0156-0.273 0.039206-0.2714 0.089484-0.25764 0.14085-0.23427 0.18113-0.20574 0.22101-0.16352 0.24572-0.11763 0.26895-0.06768 0.27147-0.01146 0.27139 0.03921 0.25764 0.08948z" transform="translate(257,275)"/></g></svg>