<svg xmlns="http://www.w3.org/2000/svg" xmlns:freecad="http://www.freecadweb.org/wiki/index.php?title=Svg_Namespace" width="297mm" height="210mm" version="1.1" viewBox="0 0 297 210"><g id="drawing-border" fill="none" stroke="#000" stroke-linecap="miter" stroke-miterlimit="4" stroke-width=".35"><rect width="283" height="188" x="7" y="15"/></g><g id="titleblock-structure" fill="none" stroke="#000" stroke-linecap="miter" stroke-miterlimit="4" stroke-width=".35"><rect width="140" height="34" x="150" y="169"/><path d="m 150,177 h 140"/><path d="m 150,195 h 87"/><path d="m 150,199 h 140"/><path d="m 195,169 v 8"/><path d="m 237,169 v 30"/><path d="m 267,169 v 8"/><path d="m 237,185 h 53"/><path d="m 237,191 h 53"/><path d="m 267,191 v 8"/></g><g id="titleblock-text-non-editable" fill="#000" font-family="tahoma" font-size="3" text-anchor="start" xml:space="preserve"><text x="151" y="172">Author:</text><text x="151" y="176">Appr.:</text><text x="196" y="172">Legal owner:</text><text x="151" y="181">TITLE:</text><text x="151" y="198">Document type:</text><text x="268" y="172">Sheet:</text><text x="268" y="176">Size:</text><text x="238" y="172">Scale:</text><text x="238" y="176">Toler.:</text><text x="238" y="180">Part material:</text><text x="238" y="184">Part number:</text><text x="238" y="189">Drawing no.:</text><text x="238" y="194">Date:</text><text x="268" y="194">Revision:</text></g><g id="titleblock-text-editable" fill="#000" font-family="tahoma" font-size="3" text-anchor="start" xml:space="preserve"><text x="162" y="172" freecad:editable="AUTHOR_NAME"><tspan>AUTHOR NAME</tspan></text><text x="162" y="176" freecad:editable="APPROVER_NAME"><tspan>APPROVER NAME</tspan></text><text x="197" y="176" freecad:editable="OWNER_NAME"><tspan>OWNER NAME</tspan></text><text x="152" y="185" freecad:editable="TITLELINE-1"><tspan>FreeCAD</tspan></text><text x="174" y="198" freecad:editable="DOCUMENT_TYPE">Mechanical assembly drawing</text><text x="277" y="172" freecad:editable="SHEET"><tspan>99 of 99</tspan></text><text x="247" y="172" freecad:editable="SCALE"><tspan>M x:x</tspan></text><text x="247" y="176" freecad:editable="TOLERANCE"><tspan>+/- ?</tspan></text><text x="257" y="180" freecad:editable="PM"><tspan>PM</tspan></text><text x="257" y="184" freecad:editable="PN"><tspan>PN</tspan></text><text x="257" y="189" freecad:editable="DN"><tspan>DN</tspan></text><text x="239" y="198" freecad:editable="DATE"><tspan>YYYY-MM-DD</tspan></text><text x="269" y="198" freecad:editable="REVISION"><tspan>REV A</tspan></text><text x="277" y="176" freecad:editable="SIZE"><tspan>A4</tspan></text><text x="151" y="202" freecad:editable="RIGHTS"><tspan>(R) DO NOT DUPLICATE THIS DRAWING TO THIRD PARTIES WITHOUT OWNER&apos;S PERMISSION !</tspan></text></g><g id="freecad-logo" fill="none" fill-rule="evenodd" stroke="#000" stroke-width=".35" display="inline"><path d="m0.1524 0.15254v8.8549h1.9744v-3.4652h1.396v-1.3661h-1.396v-1.4745h3.4391v-2.5441l-5.4135-0.005z" transform="translate(138,192)"/><path d="m7.7927 3.4504-0.50715-0.176-0.48387-1.2366-0.76115 0.04-0.34718 1.2787-0.4859 0.23269-1.2119-0.53015-0.51188 0.56882 0.65892 1.1485-0.18006 0.50567-1.2366 0.48387 0.044064 0.76263 1.2787 0.34718 0.23269 0.4859-0.53421 1.2104 0.56882 0.51188 1.1485-0.65891 0.50973 0.18155 0.4798 1.2351 0.7667-0.04258 0.34311-1.2802 0.4859-0.23269 1.2145 0.5357 0.51188-0.56882-0.65891-1.1485 0.17748-0.51122 1.2351-0.4798-0.03851-0.76521-1.2802-0.34311-0.23269-0.4859 0.53163-1.216-0.56881-0.51184zm-0.5715 1.2244 0.23576 0.13679 0.20426 0.18519 0.16353 0.22101 0.11763 0.24572 0.06916 0.26489 0.01146 0.27146-0.03921 0.27139-0.08948 0.25764-0.14234 0.23834-0.17964 0.20167-0.22101 0.16353-0.24572 0.11763-0.26489 0.06916-0.27295 0.01553-0.2719-0.04-0.2576-0.089-0.2383-0.143-0.2002-0.183-0.165-0.217-0.1177-0.246-0.0676-0.269-0.0156-0.273 0.039206-0.2714 0.089484-0.25764 0.14085-0.23427 0.18113-0.20574 0.22101-0.16352 0.24572-0.11763 0.26895-0.06768 0.27147-0.01146 0.27139 0.03921 0.25764 0.08948z" transform="translate(138,192)"/></g></svg>